/* XPM */
static char *result[] = {
/* columns rows colors chars-per-pixel */
"64 64 35 1 ",
"  c gray28",
". c #373737",
"X c gray31",
"o c #3F3F3F",
"O c #23232F",
"+ c gray39",
"@ c gray34",
"# c #13131B",
"$ c #5F6F67",
"% c #57371F",
"& c #2F2F2F",
"* c #4B4B5F",
"= c #57576B",
"- c #3F3F4F",
"; c gray9",
": c #5B5F73",
"> c #4F5363",
", c #4F270F",
"< c gray12",
"1 c #272727",
"2 c #131713",
"3 c #676B7F",
"4 c #373B4B",
"5 c gray42",
"6 c #1F1F27",
"7 c gray45",
"8 c #6B4B33",
"9 c #57675B",
"0 c #4B5B53",
"q c #272B27",
"w c #5F6377",
"e c #6B6F87",
"r c #434757",
"t c #432B07",
"y c white",
/* pixels */
"   . X    o   XO+@XX   .                .     XX#$XX@@X%@X@ .   ",
"  % XXX &   o*XO+= XX        -    @ XXXX     oXo;:@ XXXX@XX    .",
"  o XX o*    .>O@@> XX.        -. X XX   o  X X@;+XXo@X   X     ",
" ,  XX o* X  XXO@@XXXX       .-.  @@@@X*    X@X@<+XX@@@@XXX XX+>",
"    XX   XXXXXXO+@X =X  >    -    @>=  @X@X@=@@@<+XX X@X X@ XX=>",
" .   XX  XXXX@X1:+=:@=    &     . XXXX@@@@@X@XXX<+XXXX@X  X X XX",
"     XXX@X@XX@X.@@@@@@   X  & %   @X@X=@=++XXXX <+Xo XXXXXoX  @X",
"  %  X@+X@@*=X@&++@@@   XXXX @  ,-@X@XX@XX@@XX X2+XXXXXXo XX XXX",
"     @==+@XX@X@.:@=@X* XXXX+:XXX  X@@@ *@@=XXXXX;+o X@XXXXX  oXX",
" , o X@:X@@XX@@.3+o*@@+X@ @=XXX@@ @@@@@X@@@=X@XX;+X@@@X XXXX XXX",
"  X  @@@@@X@@@@.:@*o>@*==XXX   XX XXXXX@ @@XX@XX;@ X@@XXX@ @XXXX",
" .X   @@  =@@=X&+@@*o@oX+@Xo   XXXX4@XX@X@=XX@XX;+XXX=XXXXX XX  ",
"  XX@@X@XX@@@@X.++>@@oXXXXX    oX @XXX@XXXX@@@@X;+XXXXXX@  XXXo>",
". @X@@@=@X@@@@@.@@@*@X=>+X  o @XXX@X@  -@@=XX@@@<+XX@XX@XXX@@XX ",
"   @*=@X=@@@@@@.+X>X@X@>@ XX@  XoXXXXX @@@X@X@@@<+XX @XXXXX@@XX@",
"   -@@=@@==@@@@.$XX@X @5X X X  X@X X-XX@@@X@@@XX6+@XXXXX X@X@X@@",
"  -..=4==@=@@@@.:=*-X ==>@  X=  XXXXXXXXXX@X@@@X<:XXX@XXX  X@XXX",
"    .oXX@@XXX@X.3=:=**X==@@@@X@  @XXXXXXo@@@@@@@<+@XX@X@% XXX@  ",
"    >@X@@X X@@@.$+@XXX@+=XX @X X@=@X@@o@@@@@@@X@;$+@@@@XXX@XXX  ",
">    XXX@@X@XXX.$@XXXX@::=@XX+X@X@=+@=X@@=@@XoX 23=X=@XX@X @XXX*",
".    X@@@XX@XXX&+XX=@XX>@X==*X:X@@=@=@=@@@>@XX *13@=XXXXX@@XX  o",
" >.  X*XoX@@@@@.+XX@=XX@XX@**X X @@@>@@@@XX@XXXoO7@@X@8%XXX@X * ",
" >.  XX@X=@@XX>.$@*++XX,=XXXX+=@@@@*>@@@XXXXXX  <$X+ X@@  *XX.> ",
" .@  XX%X@@XXXX&:XX@@Xo@X=X=+@+@=@@@@X@@*@X  X o1$@ @X@ ,  X  . ",
" @X  @- @@XXXXX&@XX@:XX:=X->=@====@@@@@=X X     O$    @  -      ",
">X@ o@>@@@@ XXo&:  @@ XXX=X=@@=+@+@@@@X XX@X4   19.    @ > .   >",
".@@oX@XX=X@XXXX.+X X*XXX@ X =@XX @@X@XXXXXX   ..;9       .     .",
" @XX X@@@@@XXX=.:XX  XX*@@XX@X@X@XXXX@  X X     ;9              ",
" X@XXXX@XXXXX@X&+     . + X XX>@@@=X@= ==@=     ;0    .-        ",
" @@X XXX@X X >X&@X   % XXX o 4XX@====>+@==X=  00q00  .-         ",
" @X >   X XXX<<<O2X  o*XX    X@@X++X@+ :+>=  0qqqqq0      .>.   ",
";O&OOOOOOOOOO<*=*O<;;<<<<<<<<<&.&11<11<<O<;;;qq>=-qqqqqqqqqqqqqq",
"9$+++@+++@@@@<=@@<+@9@@+@@@@@@@@@@@@:@@@@@@999q=>*q0000000000000",
" XXX @XX    X<o> OX,  o XXX X @@X @@@@   o   0q.*.q0,-          ",
" X X@=:@   X ;<<<2X  XXXXXX@@@@@X@=@@@X     00qqqqq0 @@@+ :-@@@ ",
" XXXX===>  >  X<@ o  XX 4ww+=@@:@=X@@@=XXXX@ -00;90 @@5+++>++++@",
" X X=+== @@@@  <@  =X=ww5555w@@=@@+=@@@X XXX ,  ;9   ++++ +@+++*",
"  4 X=X@@@@=@% <@ @=woX:www55X:@====Xo@@ X X%   ;9   @+> , .@@@.",
" 4o  @:X=>===@ O@X+55Xw=+==w+@=X@=@@XX@@@ oX  , <@  @+5+@  =X=X ",
">   @@XX+@:X=X O@  5=+ww=w5@+w*==@ @XX=@XXX     <@ >+w+@ o+w++=X",
"@=o  >e+Xw=XX@@.@ @=+4ow:@wX++=@@XXXXX=@@XXX   o;@Xo++@o ++w==XX",
"+5w>=+e +=@@oXX<@X 5:@@====+@@@@@=XXXX@@ X    XX<:XX+w+o +ww=X X",
"@www= ==eX@==Xo1=X 5=w==w5@=X@@X@XX=X@XXXX XXXXo<+XX=+X @@@=X  X",
"w55w> = @XX=@X O=X =w=w==w@@*@XX@XXXXX X@XX@@XoXO@X===XXX>w=XXXX",
"@5@=w= :X=*XX>X<=X@=5w@=>=@@@@@@@@@@@XXX@XX@@XX <:@X@+X@ ww=XXXX",
" X@wwe@+=w@=XXX1=X =@=@@@@@X@X@@XXXXXX XXXX@@@-X<:@XX>XX@@=@ XXX",
" @=w +eX=ww==XX1=X +:=*X:@@@ X@@oXXXXXXXX@X X   <@XXX  @XX+X@X X",
" @X@+=X@@=@= oX1=X @@X@@@X@@X@X@XXXXX&XXXXXXX   <@ @=X=+=w5@XX>X",
" X==X @@X@== XX<==@=X+@XX@=@@@@@XXXoXXXX@XoXX   <@X+w=XX=5ww=@ X",
" X@ X@e@+=+=X o1+X@ @=XXX @XX@X@XXXX XX@>XX@=@  <@X@wX@@==w=@XXo",
" X@@==@e==+X XX<=X X@XXX o@XX@@@XXX@XXXX@X@XXX  <@X@   %@+XXX>  ",
" XX=o@@@=@=X XX<@o@X=@@@@=X XXXXXX@X=@@XX@XX@ XX<@ X@@XXX@@X X  ",
"XXo@=e=*X+*@ XX<@X*@X@*X@=@XXXXXo@@@@@@@X@XX@ XX&@XXXX@==+@=@   ",
"%XX =o@@XX@@XX@&+ @  @XXX>   XXXX@X@XX@X@@XXX X@.X X=@@@++5=+   ",
"XXX+@XXX@ @@XXX&+  **@   X X X @XX@X@@X@X=@XX @@.X@=@@X@+=X5X   ",
"@rX  X @@>@XXXX&+    oXXX@X XX4@=@@X@@X@@=  t @X.X@=@XXw++XXX   ",
"    =&e@ XXX  X<+  -   X@X X XX=:X@@X@@@@ Xo   o<@X   X + =@X   ",
"    o@XeXX X*X*<@       oXX XX@@@@@XX@XXX>      <X   oX XX>X@   ",
"    -  .  >    ;9 -      X X X X@  @XX@  X   - -;X   XX@X       ",
"       .. >.   ;9         X>*@XXXXX@XXX*        ;X  .   X    .>>",
" .> .        .>;9       >  @X@@XX* XXXXX        ;X        .>    ",
"           ..> ;9>    .     .  .-        .    .>;X >.          .",
" . ,    .      ;9 .        ..     -          .> ;X>.          ..",
"   >>.         ;9      .                .       ;X              "
};
