/* XPM */
static char *result[] = {
/* columns rows colors chars-per-pixel */
"64 64 26 1 ",
"  c #3F3F4F",
". c #333343",
"X c gray12",
"o c gray31",
"O c #131713",
"+ c #4B5B53",
"@ c gray34",
"# c #272B37",
"$ c #434F47",
"% c gray39",
"& c gray28",
"* c #632707",
"= c #3F3F3F",
"- c #6B4B33",
"; c #434757",
": c #7F634B",
"> c #4B4B5F",
", c #4F5363",
"< c #432B07",
"1 c #7B370B",
"2 c #57675B",
"3 c #57371F",
"4 c #87472B",
"5 c #57576B",
"6 c #2F2F2F",
"7 c white",
/* pixels */
"      ..   .     . .          .Xo.  .     ..   .                ",
".       . ...  . ....         .Xo  .        . ...       .       ",
"..OXXX+  .OXXX+...OXXX+   OXXX+Xo OXXX+   OXXX+ . OXXX+ . OXXX+ ",
"..X...@...X...@. .X...@   X...@Xo.X...@   X...@...X...@ ..X...@ ",
"..X...@.#.X...@...X...@...X...@Xo.X...@  .X...@...X...@ ..X...@ ",
"..X$$$%.&.X$$$%. .X$$$% . X$$$%Xo.X$$$%...X$$$%...X$$$%*..X$$$% ",
"........&..........  ... ......Xo............... ... ..* ... .= ",
" .......&&....o.&&-o ..........Xo............... ....... .....o.",
"........&&&&.-&&..&...  .......Xo.......... ....................",
"  .  ..&-&............  .... ..Xo...............................",
"  OXXX+&&&OXXX+.;.OXXX+  .OXXX+Xo OXXX+.;.OXXX+;. OXXX+.. OXXX+.",
"  X...@.-&X...@;;.X...:o  X...@Xo X...@.;.X...@;; X...@.. X...@.",
"  X...@o-&X...@;..X...:@> X...@Xo X...@.> X...@;  X...@*  X...@.",
" .X$$$%--&X$$$%.;.X$$$:o, X$$$%Xo.X$$$%;> X$$$%;> X$$$%*  X$$$%.",
"......*&-&.>>>..;.... @:@ ... .Xo......;; .....;>  ....*   ...=.",
"<< ...*&-&o>>>;.,,;...@:@@  ...Xo..*.;;;>>>;;;;;;;;;..*1;.....o.",
"   ....&&&o@@&&@>oooooo-::@>><<Xo..*..;;>>>..;;;>;;;;;-*>.......",
"    .  .&...  .   ..ooo-@>>>>  Xo.......  ..  ..> ....**   .....",
"  OXXX+ o.OXXX+   OXXX:-> OXXX+Xo.OXXX+.. OXXX+.> OXXX+*> OXXX+.",
"..X...@ o X...@   X...@o> X...@Xo.X...@   X...@ > X...@*> X...@.",
"  X...@  .X...@   X...@ > X...@Xo X...@ . X...@ > X...@*> X...@=",
". X$$$%  .X$$$%   X$$$%.> X$$$%Xo.X$$$% ..X$$$% > X$$$%*> X$$$%=",
".... . ... .....      *.;    . Xo. . >.;....  oo>  ....*>   ...=",
"..#...  ............  *..    ..Xo . ;;;>oooooo-o@o ..;;;,  ...o ",
".......... ...... . .*....  ...Xo..  ..;;;o;:-oo:@oo;...> ......",
"..##..#........... ..*.........Xo...... ...... --&......>  .....",
"..OXXX+...OXXX+...OXXX+...OXXX+Xo.OXXX+...OXXX+o-.OXXX+.. OXXX+.",
"..X...@...X...@...X...@...X...@Xo.X...@...X...@...X...@.. X...@.",
"..X...@...X...@...X...@...X...@Xo X...@.. X...@...X...@.. X...@=",
". X$$$%  .X$$$%   X$$$%...X$$$%Xo X$$$%   X$$$%...X$$$%.. X$$$%=",
".... . ... .....  ....    .... Xo.         ...     ....*    ...=",
"XXXXXXXXXXXXXXXXXXXXXXXXXXXXXXXXoXXXXXXXXXXXXXXXXXXXXXXXXXXXXXXX",
"oooooooooooooooooooooooooooooooo2ooooooooooooooooooooooooooooooo",
"..##..#................   ....*Xo.....      ..  ..*....  ......=",
"..OXXX+...OOXXX+..OXXX+   OXXX+Xo.OXXX+   OXXX+...OXXX+...OXXX+=",
"..X...@...XX...@..X...@.  X...@Xo.X...@   X...@. .X...@.. X...@o",
"..X...@...XX...@..X...@ o.X...@Xo X...@   X...@> .X...@...X...@.",
"  X$$$% o&XX$$$% .X$$$:o- X$$$%Xo X$$$%>  X$$$% ,.X$$$%...X$$$%.",
"      . &..  . ....   o-o-.    Xo  ..  >   .   >,&..............",
"  o--- &--.  ...... o-o----&  .Xo .    >o@@@@@@@@@> . .        .",
"   ------- .     . .  o --o-- .Xo.  .>>,> ooo>>@@o   . &       =",
".      -. ...  . ....    o    .Xo  .   >    .o&oo  . ...&      =",
"..OXXX+- .OXXX+...OXXX+  -OXXX+Xo OXXX+>  OXXX+@. OXXX+&& OXXX+=",
"..X...@&..X...@. .X...@o-oX...@Xo.X...@>  X...@o .X...@.&.X...@o",
"..X...@&=.X...@...X...@&&&X...@Xo.X...@> .X...:&  X...@.&.X...@.",
"..X$$$%...X$$$%. .X$$$%o-oX$$$%Xo.X$$$%.;.X$$$%&..X$$$%.&.X$$$%.",
"...................  ..---.....Xo.......;......&&...... o... ...",
" ..&&.&&.&&&&& ....  ..&----&..Xo.......;......&&. .... o&......",
" ..&&&&&.oo&ooo...   ..&--.....Xo.......;;...  &   ...   &.....=",
"........& oo         ..&.&.....Xo  .  ..;;...  oo-       ......=",
" .OXXX+ . OXXX+   OXXX+  &OXXX+Xo OXXX+.;;OXXX+oooOXXX+ &.OXXX+=",
" .X...@...X...@ > X...@  &X...@Xo X...@.;;X...@&o X...@.& X...@o",
" .X...@...X...@.; X...@  &X...@Xo.X...@.;;X...@&&oX...@   X...@.",
"..X$$$%*..X$$$% > X$$$%  &3$$$%Xo.X$$$%...X$$$%&-.X$$$%>o.X$$$%.",
"   ....*... <<  ,    .. ..o....Xo..... ....*...o44     ,@.. ....",
".  ........  > >5>>>   .&o ....Xo.. << .;....;.-o-@>oo@5@  .. ..",
". .....  .    >>,> >>>> oo ....Xo..   ...;.>>.  o--o@@>,      .=",
"..OXXX+  .     >>       o&.....Xo.      .>>  .        >,>    ..=",
". X...@ . OXXX+,> OXXX+  .OXXX+Xo.OXXX+   OXXX+ ..OXXX+ ; OXXX+=",
"..X...@...X...@>> X...@  oX...@Xo X...@ . X...@.  X...@.. X...@.",
". X$$$%. .X...@>> X...@ o X...@Xo.X...@.. X...@  .X...@.* X...@ ",
"..6===o . X$$$%   X$$$% o X$$$%Xo.X$$$% ..X$$$%...X$$$%.* X$$$%.",
"......  ...#...  ....*. & . ...Xo ........  ...#...  ....*. .  .",
"... .................*... .... Xo..#... .................*...  ."
};
