/* XPM */
static char *xpm_[] = {
/* columns rows colors chars-per-pixel */
"64 64 35 1 ",
"  c gray12",
". c #23232F",
"X c #272B37",
"o c #333343",
"O c #13131B",
"+ c #171B23",
"@ c #272727",
"# c #373B4B",
"$ c #3F3F4F",
"% c #1F1F27",
"& c #2F2F3B",
"* c #434757",
"= c gray31",
"- c gray9",
"; c gray6",
": c black",
"> c #0B0B0F",
", c #4F5363",
"< c #D7A300",
"1 c #F7FF00",
"2 c gray34",
"3 c white",
"4 c #57576B",
"5 c #676B7F",
"6 c #0F0F13",
"7 c #373737",
"8 c gray28",
"9 c #3F3F3F",
"0 c #070707",
"q c #2F2F2F",
"w c #5B5F73",
"e c gray42",
"r c #4B4B5F",
"t c gray45",
"y c gray39",
/* pixels */
" ...XoO+@@XXXXooo#o#$$$o$$$####oooXXX@@.+%ooooo#oo###oo########&",
"o****=O+-;::::::::::>o$$$o>::::::::::>%@++o,*oo&o,*##&o,*##&o,*o",
"%oooo*O+;:<11111111<:>$$$>:<11111111<:;@+O=*2#o%=*2##%=*2##%=*2#",
"%&.&#*O+::1333333331::$$$::1333333331::@+O==4##.==4##.==4##.==4#",
"%.#5o*O+;:<11111111<:>***O:<11111111<:;@+O==4oo.==4#o.==4oo.==4o",
"%&.&#=O--;::::::::::;o$$$#O::::::::::>%@+6==*oo+==*#o+==*##+==*#",
"+&ooo*O-XXXX&&oo7&7$$$*****$$#$##o&XXXXX+O$8=oo.$8=#o+8=4oo.$8=#",
"%oo$o*>O-%%%%%%%@%-@@@X@@X@@@@.%%%%%%%%%O699*&o+99*oo-7#2o&+99*#",
"%oo7o*000>>>>>>>0>>>00O000000>>>>>>>>>OOOO#*4&&+#*4oo-.o9oo+#*4#",
"%o#7o#oo###ooooooooo&&&&X@&&%oo#####oo#&%%$$4&&%$$4oo-&o9oo%$$4#",
"%#87q&o,*##&o,*oo&o,*oo+%oX&o&o,*@%-X*oXX%#$4o&%#$4oo-o#8oo%#$4#",
".$8q7%=*2##%=*2#o%=*2#o%=*2##+9o7---q%8#o%#*4o&%#*4oo+oo8oo%#*4#",
"%#$q7.==4##.==4##.==4##.==4##.==4%%-784#o+**2&o+**2o&+o#2o#+**2#",
"%oq77.==4#o.==4oo.==4oo.==4#o.==4oo.==4o#.**4&o.**4o&-o#4oo.**4#",
".o.q7+==*#o+==*oo+==*oo+==*#o+==*##+==*#o@8=4&&@8=4oo+98woo@8=4#",
"%o.77.$888o+$98oo.$8=oo.$8=#o+8=4oo.$8=##+$*2oo+$*2oo+98*&o+$*2#",
"+XqX7+97*9o-97=&o+99*&o+99*oo-7#2o&+99*##+*$=&o+*$2oo.988&&+*$2#",
"+.qXq+#*e9o-#*e7&O#*4&&+#*4oo-.o9oo+#*4##.=8e&&.=9=oo.88*&&.=9=#",
"..7..%$$4oo-$$4&&%$$4&&+$$4oo-&o9oo%$$4##.=8e&&%*o8#o@#$=&&%*o8#",
"+.7o&%#$4oo-#$4o&%#$4o&+#$4oo-o#8oo%#$4##%88e9o+*88#o@$*8&&+*88#",
"+X7oo%#*4oo+#*4o&%#*$XX%#*4oo+oo8oo%#*4##.*8e7&@***#o@***&&@***#",
"+&q7o+**2o&+**2&o+**9XX+**2o&+o#2o#+**9#o%88e7&@***#o@***&&@***#",
".X7oo.*$ro&-**4X&%**,XX%**ro&-o#4oo.**$oo+==e7&@$*8oo+*88oo@$*8#",
".X7&o@994oo+8=4XX@9=4&&@784oo+98woo@79$&o+=8e&&@#$=#o%*o8#o@#$=#",
"%o7&&+$*2oo+$*=oX+o$2oo+$*2oo+98*&X+o*9&o@=8e&&.88*#o.=9=#o.88*#",
"%#9o&+*$2oo%*$2&X+oo8&o+*$2oo.988&X+o$9oo@8=eo&.988#o+*$2##.988#",
"%#oo&.=9=oo.==4&X%77$XX%=9=oo.88*&X%999#9q99e&&+98*##+$*2oo+98*#",
".8o#o%*o8#o@==4&&%77$%X+*o8#o@#$=&X+$o8#9q98eoo+98w#o@8=4&o+98w#",
"@8oo&+*88#o@8=4oo+77o%X+*88#&@$*8&X+$98#$@88eoo-o#4##.**4&o-o#4#",
"@#oXX+$*2oo+$*2oo+oo9XX+$*2oo+79*&o+$*2##q894oo+o#2#o+**2oo+o#2$",
".$o&&+*=8#o+**2o&+oo9XX+*==#o%8$4##.788#7q99e9o+oo8#o%#*4o&+oo8#",
"%XX&&.===##@==4&&.97$XX.==2##@oo*oo+79*87@==e99-o#8oo%#$4oo-o#8$",
"%.XXX+==4#o.**2oo+oX7X&+==4#o.9o*&o+79t77@==e99-&o9oo%$$4oo-&o9$",
"-X.XX+=*4##@*=4oo+*qoXo+=*4##@o#8&o-o#y79@==e99-.o9o#+#*4&o-.o9$",
"%o.77+*$r#X@**4oo-*$$X&+*$r#o@&o8oo+oo799@==e8#-7#2##+99*##-7#2#",
"+XqX7+=oroX%$*4oo-$*$XX+=*4#o.79#o&+oX787@===8#+8=4##%=$4##+8=4#",
"+.qXq+o*=XX%$*4&o-$*rXX+**2oo.o##oo-&o8#o%**4&&%*=4oo%*94oo@$*8#",
"..7..+o*4o&@**,Xo-**4XX+**4oo@$$2oo-Xo9#o%==4&&.==2#o.894#o@#$=#",
"+.7oX%77$XX+7=*X&-==4XX%8=4##+*8yoo+98*oo+**2&&+=*=#o%884#o.88*#",
"+X7oo%oooX%@79$oo.==4oX%$*4#o@*2y&o+984#&+**2o&+*==#o%8$4##.988#",
"+&q7o%*o$XX+97$oo.==4oo+o*4##+*22&o-o#,#&.==4&&.==2##@oo*oo+98*#",
".X7oo%**rX%+97*oo.==woo+o*4#o%$$2oo+o#2$&+**2oo+==4#o.9o*&o+98wo",
".X7&o%**4#o+*oroo+**4oo+$*4#o%&$4o&+oo8#&+*=4oo+=*4##@o#8&o-o#4o",
"%o7&&%#*4oo+#o$XX+o*4o&%#*4oo+oo8oo%#*4#o-**4oo+*$r#o@&o8oo+o#2#",
"%#9o&%#$4oo-oo$XX+&o$X&%#$4oo-o#8oo%#$4#o-$*4oo+=*4#o.79#o&+oo8#",
"%#oo&%$$4o&-o#$XX+oo$XX%$$4oo-&o9oo%$$4#o-$*4oo%**2oo.o##oo-o#8#",
".8o#o+#*4oX-X#$XX-&o$X&+#*4oo-.o9oo+#*4#o-$ooXo%**4oo@$$2oo-&o9#",
"@8oo&+79*&X-qq*X&+77*&o+99*oo-7#2o&+99*#o-7q&+..==4##+*8yoo+98*#",
"@#oX%+&77X%+&7=oo.$8=oo.$8=#o+8=4oo.$8=#o+q@@.+%**4#o@*2y&o+98w#",
"%#oXX+9=*oX+77*o&+77oXo+==*#o+==*##+==$o#-@@o@++**4##+*22&o-o#4#",
".8o#&+9=4#o%774oo%77$Xo.==4#o%8=4oo.89,o#-@q*&%-*$,#o%$$2oo+o#2$",
"@8oo&.884##.==4##%97$&#%994##.==4oo%==4##+$$$oX6o$4#o%&$4o&+oo8#",
".$8q7%=*2##%=*2#o%8o8#o+8o9oo+=*2#o-9*2#o%#*$XX6&*4oo+oo8oo%#*4#",
"%#87q&o,*##&o,*oo&o,*oo&o,*o&+%ooo#&o,*oX%#$rXX-&o4oo-o#8oo%#$4#",
"%o#7o#oo###oooooooooooo#oo###oo########&%%$$4XX+o$4oo-&o9oo%$$4#",
"%oo7o*0>0>>>>>00O>>>00O000000>>>>>>>>>>>>>#*4&X+oo*oo-.o9oo+#*4#",
"%oo$o*>O-%%%%%%%@%-@@@X@@X@@@@.%%%%%%%%%O699*XXO@@@oo-7#2o&+99*#",
"+&ooo*O-XXXX&&oo7&7$$$*****$$#$##o&XXXXX+O$8=%%-%@@#o+99roo.$8=#",
"%&.&#=O--;::::::::::;o$$$#O::::::::::>%@+6==*oo+77$o&+==*##+==*#",
"%.#5o*O+;:<11111111<:>***O:<11111111<:;@+O==4oo.==4#X%==4oo.==4o",
"%&.&#*O+::1333333331::$$$::1333333331::@+O==4##.==4oo.==4##.==4#",
"%oooo*O+;:<11111111<:>$$$>:<11111111<:;@+O=*2#o%=*2o#%=*2##%=*2#",
"o****=O+-;::::::::::>o$$$o>::::::::::>%@++o,*oo&o,*##&o,*##&o,*o",
" ...XoO+@@XXXXooo#o#$$$o$$$####oooXXX@@.+%ooooo#oo###oo########&"
};
