/* XPM */
static char *tile0451740675925[] = {
/* columns rows colors chars-per-pixel */
"64 64 19 1 ",
"  c #4F270F",
". c #3B2313",
"X c #431F0B",
"o c #432B13",
"O c #2F1B0F",
"+ c #472B17",
"@ c gray12",
"# c #532F1B",
"$ c #0B0B0F",
"% c #57230F",
"& c #23130B",
"* c #572B0F",
"= c #272727",
"- c #3B270F",
"; c #4F370B",
": c #2F2F2F",
"> c #2F1707",
", c #673F27",
"< c white",
/* pixels */
" ...XXo XX..OO..OOOO....o+@X #O$@%OOO......oooo....o++XX@XX@X# #",
"XO.. X. oX.OOOoo.OOO@...o.#@o.O$@%OOO.ooo..ooo.@...o........XXX#",
"&*oooo. .XXO&Xoo....O.....@@..O$@%OOO.oooooooo.O............XX.X",
"#&*oooO   XX&X.X....OOOOOO.+..O$@%OOO.oo+ oo..XOOOOOOO...X@XOO.#",
"##&+oo&O  .oooXX..OO..OOOO.oo.O$&%OOO.oooXX..OO..OOOOOOO XOOOO.@",
"&#&OOOO&*  ...oX.OOO.o.OOO.oo.O$&%OOO....oX.OOOoo.OOOOX@&XOOOO.@",
"XX@&O...O*  ...XXO&Xoo........O$&%.OOOO...XXO&Xoo.....&&&OOOO..@",
"@&@@O....&&OO.. XX&X.X....oX.OO$&%...OOO..oXX&X.X....&&&&OOOO..@",
"@X .....O.&&*ooooo.....oo#  o.O$&%oo...X.....o oo...&&@&OOOOO..@",
"XXXo......##&*oooo......oXooo.O$&%ooo.@XOO....o.Xo.O&@@@XXOOO..X",
"@#++oooo + ##&+ooo..OOO......OO$&%ooo.@OOOO........&&@@XXX.....@",
" #+++oo#   ##++ooo..X@&O.o.&OOO$&%oo..OOOOX=..OOO..&&X@.XXo...@@",
" #+oo.o+o@ *+++ooo.. .OOX..OOOO$&%oXXXXOO.XX..@@O..O&XXoXXo..O&@",
"@#X.+oooo oooooo.oo.. .OOOOOOOO$&%oXXXXO..@&OO@@....&@ XXoo...@@",
"@  ooo..  o. oo...o... .OOOOOOO$&%..XXOO.XXO&OOO.oo.&X@.ooo... @",
"@....... o   .&&&.  ... OOOOOOO$&%..OOOOXXXX& O..o+ @X#o...X..X-",
".......@#o..&&&&&&&.O@.+  XOOOO$&%..O&OOOXOX&&  oo X@&#oo..@..@ ",
".@....OOO&&&OOOO&&&&&..o. #...O$&%..    OOOXX&&.....O&Xo+.O@.o X",
". oo..OOO&OOOOOOOO&&O..ooo+oo.O$&%... ** .OOXXO&&&...X @...@o+ X",
"OOOoo.OOOOOOXXOOOOO&OOO..ooXo.O$&%......*..OOXOOO&&@X......X    ",
"......OOO...XXXOOOOO..OOO..oo.O$&%oo.....   OO.....&&O.....XX  ;",
"......OOO...XXXOOOOO...XXXooo.O$&%+oo........O.... &&&.#oo+    X",
"............XXOO.OOO..XX .oo+.O$&%+oXXXOOO...O..@..O&&.Xoo   XX ",
"oo.oooooooo.OOO....XXXX..ooo.OO$&%o...OOOO.OOO.....O&&.@.oX + XX",
"oo.+ooooooo.OOO.XXXX.....ooo..O$&%...OOOOOOOOO.....OO&@.oo +oo;X",
"oX.+ XooooX.OOXXXoo..oo..X o..O$&%...OOOOOOOOO...O@@OOO.oo#+ooX ",
".XX XXoooXXX....ooooooooXX o.@O$&%ooo.OO....OOOOOO@@OO.+oo++oo #",
".XXo..oooXXXX ooooooooooXX oXOO$&%o+o+....oo OOOOOOOO..ooooooo @",
"ooo.@@oooooo+ .oooooXXXXXXXXoOO$&%+++o....+  OO@OOO@...ooo+oooXX",
"...O@X.........XXXXXXXXXXXXXXXO$@+#;XX-@X  # OOOOOOOO.......oX@@",
"OOOOOOOOOOOOOOOOOOOOOOOOOOOOOOO$&#OOOOOOOOOOOOOOOOOOOOOOOOOOOOOO",
"$$$$$$$$$$$$$$$$$$$$$$$$$$$$$$$$&$$$$$$$$$$$$$$$$$$$$$$$$$$$$$$$",
":OOOOO&&&&&&&&&&&&&&&&&&&&&&&>&&&&&&&&&&&&&&@&&&@&&@&&&&&@@@&&&&",
"##############################,$&,##############################",
"                              O$&                               ",
" #o@@ +++++++++++++++++++ooo..O$&%ooooXX&ooo+##-      #X-+oooo+-",
"         X ++++  +#######+oo..O$&%oooXXX&&.oo++# #X++++o+ o+oo.X",
"+oooo+   X +### +#######++o+o.O$&%oo..X&&..ooo+ ##++oooooo.   +#",
"++o.o+XX   +###+  ++###+ooo+o.O$&%o.OOO&O..ooo+oooo+oooo...   ##",
"##+o++X      ++     ##++oo....O$&%o.&OO&..oooooo..ooo....OO#####",
"##+o+o   X XXX;  ;XXX+++oo....O$&%o.&OO&&.....oo...oooo.OOO+++##",
"++ooo. X    XXX  XX  +++oo....O$&%..&&OO&&....oXo..o +#.OOOooo++",
"o+oooo X   +oXX  XX #++ooXXX..O$&%..O&&O&&&...Xoo...oo o......oo",
"ooooo+   +#+oooo+ X    oOXXXo.O$&%..OOOOO&&&..ooo....o+oXX.OO.oo",
"ooo+##+  ##++o.o+ -XXXXXOXXXo.O$&%oo.OOOOO&&..ooo...ooo....OO..o",
".oo+##;######+o++# XXXXXXXXXo.O$&%oo.XOOOO&&..oooo.oooo..oo.....",
"..o+##+++####+o+oX XXXooXX.oo.O$&%oo.XOOOOO&...X +oooXXXXoo.....",
"..oo+++oo++++ooo.oXXXX.. @..o.O$&%o.OOOOOOO&...X  oo.XooXo.oooo.",
"...ooo...ooo+ooooo XXXXXoOO...O$&%..OOOOOOOO&O.XXXo+..ooo..oo...",
"ooo.  OO.ooooooo+# XX.XX.OOO..O$&%..OO.OOOOO&O....oo+oo+XX.ooo.o",
"oXX  oOO..oooo+###+XX.O&..OO..O$&%..OOOOOOOO&......oooo....  +oo",
".X  XoX.....oo+#### X..@......O$&%.OOOOO&OOO&.o+ ..ooo.....   oo",
"..ooo........o+#### XX.X@.....O$&%.OOOO&&OOO&. ++oooooXX...XXXo+",
"+oo+...ooo...oo++++ XX.& XO...O$&%OOO&OOOOOO&Xoo+ oo..XXOO  ..oo",
"oo+...oo......ooo.oXXX.@.XO.o.O$&%OOOOOOOOO&&.oooXX..OO..O ....o",
"oo.@..ooo.oooo.  o.....X.OOXo.O$&%OOXOOOOOOO&....oX.OOX.o.   ..o",
"oo.O..X +oooXX  oo.....#o..X..O$&%OOOOXXO..oo.OOOOXXX@XO . ++ooo",
"..XOOOX  oo.X  Xo...OO. +o...@O$&%OO..oooo.ooo...oo...OXX  ++ oo",
".OO..OXXXo+..ooo....OOXX##@XO@O$&%OO...X +oooXXXXoo...OOO    XX.",
"OOOoo....oo+oo+.......oo..@@@@O$&%OO...X  oo.oooXo....&@&@X  oX.",
"O&Xoo.....ooo+.....oXXoo..X@&@O$&%OOOO.XXXo+.oooo.....XX&&XX .XX",
"X&X.X.+ ..ooo.@.....oXo...@@@@O$&%OOOO....ooooo+...o..#@@@@ X  X",
"oooXX.++ooooo.O.....oo....@X@XO$&%OOO......oooo....o++XX@XXOXX .",
"...oX.o+ oo..XOOOOOO+...o. X@XO$&%OOO.ooo..ooo.@...o.......&&*  "
};
