/* XPM */
static char *result[] = {
/* columns rows colors chars-per-pixel */
"64 64 57 1 ",
"  c #8F0000",
". c #7F634B",
"X c #8B8B8B",
"o c #838383",
"O c #730000",
"+ c #937B67",
"@ c gray42",
"# c gray39",
"$ c #6B4B33",
"% c #570000",
"& c #7B7B7B",
"* c gray31",
"= c #57371F",
"- c #3F3F3F",
"; c gray28",
": c #2F2F2F",
"> c #430000",
", c #3B433B",
"< c gray45",
"1 c #4F1307",
"2 c #430F07",
"3 c #331707",
"4 c #87472B",
"5 c #272727",
"6 c #3B1B07",
"7 c #5F1707",
"8 c #6F331B",
"9 c #432B07",
"0 c #431F0B",
"q c #390000",
"w c #4F270F",
"e c #330B00",
"r c gray12",
"t c #43230F",
"y c gray9",
"u c #13131B",
"i c gray6",
"p c #1F1F27",
"a c #070707",
"s c #171B23",
"d c #373B4B",
"f c #272B27",
"g c #0F0F13",
"h c #2F2F3B",
"j c #272B37",
"k c #3F3F4F",
"l c #434757",
"z c #373737",
"x c #23232F",
"c c #271700",
"v c #333343",
"b c #1B0700",
"n c #070B07",
"m c #331F00",
"M c #431300",
"N c #3B0F00",
"B c white",
/* pixels */
"   .XXo   .XXo   .ooo   .Xoo O .ooo   +XXo   +XXo   .Xoo   .XXo ",
"O .@@#$O%$@&o$OO.##*=%%.@@@$%%.##@$OO.@**$OO.&@@$OO.@@#$%%.#@@$O",
"O.*##=%O-;#@$OO.@**:>%,<##$%%$*#*=%1=-**=%%.<&@$%%$#*#=%2=;-;$OO",
".*##$%%$;;*=OO.@#@=%>--;-=%O.@##:%%$*;;=13=@@o$O%$###=%%$*;;=OO4",
"**#$%%-;-;=1%.<<#$%%:*;*5%%$###$>%=###$%6=-#;=OO,###$%>.**#=%O4<",
"##$O%$##*$O%.&**=12:-;;=2%$#@@$%%,;*#=%%$#*#=17.###$O%$**;=1O8<<",
"#$OO.@#*=%%$&<#$%1:-;;9>%-##@$%1--::=21.#;#$11=<@#$%1$***=1%8<@<",
"=>>0-;-:q>w;**=%%w---:q>e-;-:>>0;:r522t--:92et;**:qq2;--5%%0;**#",
"yuyuyuyiiyyyppyyyyiyyyiiiiippyyuyuyuyuyyyyyyppyyyyiyyyiiiiippyyu",
"a5yaaaaaaaaaaaaaaaaaaaaaaaaaayraa5yaaaaaaaaaaaaaaaaaaaaaaaaaay5a",
"a5yaaaaaiiaaaiaaiaaaaaaaaaaiai5aa5yaaaaaiiaaaiaaiaaaaaaaaaaiay5a",
"sdfiyyyyyyyggyyyyyyyyyypypyyyyhssdfiyyyyyyyggyyyyyyyyyypypyyyfhs",
"dhdp5p5yy555jj5555y5rryyyyyjj5dhdhdhdhdf:ddkllkkdd:dzz:rrr:llkdh",
"idfiaaiaaiiiiiiiiiiiaaaaaaiiifdiidfiaaiaaiiiiiiiiiiiaaaaaaiiifdi",
"idfiiiuirsuuusuusuiuiuuiiuisufdiidfiiiuirsuuusuusuiuiuuiiuisufdi",
"sdfurrfrfffpsfffffffuyypyj5:rfhssdfurrfrfffpsfffffffuyypyj5:rfhs",
"ddddhhdfddd5fdhhdddj5:djx*jlkkdhddddhhdfddd5fdhhdddj5:djx*jlkkdh",
"idfaaaiaiiiiiiaaiaaaaaiiiiiiijhiidfaaaiaiiiiiiaaiaaaaaiiiiiiijhi",
"idfiiiuiussyuuiuiccaaiiiyyusujdiidfiiiuiussyuuiuiccaaiiiyyusujdi",
"sdfursfrf5jujfys33ccy5jyy:j:rfdusdfursfrffjujfys33ccyrjyy5j:rfdu",
"dddhhhkdddkykk:j-w:3cwdjz*k*kdkhdddhhhkdddkykk:5:t53ctvjj;k*kdkh",
";*;*******-;***kkkkkkkkkkkkkkk****************l*------:********;",
"dz:hhhh:::hjjjhjhj555555jj5jj5jhhhhv---::::::::hhh:::r5--------k",
"::::hh:h::hjr5jjhyyjp555prrp5yjhh:hhh:555:::::5hjjjjrjjhjhhhh:hh",
":::55:::::h5rrjjjjrr55yprj5j5h5:hhjjh555555555rjrj5j5rjhhhhhh:hh",
":::::::::hhrjj5:hhrrjrrrrrprr5:hjjr5r555555555rjjj555jrhhhj:hhh:",
"::::h:h:hhhhhhhhh55r5r55rrrrrhjjhhhj5rr555rrrrpjjj5jjjjhhhhhhhhh",
"v55555555r5rhhjjj55ryrr555jj5jjjjjj5ypprrrrryppppjj5hh5hhhh5jjjv",
"uyyuyyyyyyyyy5urryyyyuyyuuyyuyyyyuyyyyyyyyyyyyyyyuyyyppuyyyyyyuy",
"iiiiiiiiiiiiiiiiiiiiiiiiiiiiiiiiiiiiiiiiiiiiiiiiiiiiiiiiiiiiiiii",
"yyyyyyyyyyyyyyuyyyyyyyyyyyyyyyyyyyyyyyyyyyyuyyyyyyyuuyyypyyyyyyy",
"j5jypypyyppp55ppppypyyyyyyy55yj5j5j5j5jyrjjjhhjjjjrj55ruuurhhjj5",
"idfiaaiaaiiiiiiiiiiiaaaaaaiiifdiidfiaaiaaiiiiiiiiiiiaaaaaaiiifdi",
"idfiiiuirsuuusuusuiuiuuiiuisufdiidfiiiuirsuuusuusuiuiuuiiuisufdi",
"sdfurrfrfffpsfffffffuyypyj5:rfhssdfurrfrfffpsfffffffuyypyj5:rfhs",
"ddddhhdfddd5fdhhdddj5:djx*jlkkdhddddhhdfddd5fdhhdddj5:djx*jlkkdh",
"zkh5;;;lkzhvvhhhhhzj5hkzkzzzj55hhhjhhhzhhvvvhhjhhhhjvhvzk;zkzvkz",
"hvrurzz-j5p5ppypppj5rphpyrpuyyyyr5yuyp5r5j5ppjpyuyjp5p5j-z55r5vh",
"hhryc6riaai5raaaaaaaaihyyaaaai5yr5iiaaaauhiiaaaaaaar5iaair6cyrhh",
"h5ybccnaaay-:iaabibaaihaaaaaairrcriaaaaaahiaabibaai:-yaaanccby5h",
"hjyccniriai5hyiiyyciiuhiiiiiiuhpy5uiiiiiihuyucyyiiyhruiirinccyjh",
"hjrmni-:iaap5jr5jhj5j5hpppp5::vry5:dvpppphr5rjhj5rj5pyyy:-inmrjh",
"h5rcay;:aapvj5r55jj55p5iaaiiiujrr5iiiiaai5prrjj55r5jhpyi:;yacr5h",
"hjrray;rapvhjhjjvj555p5r5:5byihrr5iyb5:5r5prrrjvjjhj:zpyr;yarrjh",
"hh55ai:rihjjvkvvv5pp5p5iiyiiiih55hiiiiyii5prpp5vvvkvyyjur:ia55hh",
"hh5paayyih5hvvvvzj555pjaaaaaaih55hiaaaaaajpr5rjzvvvv9ijuyyaap5hh",
"hhyyaaiaijpjvvhhh5555phyiiyiiih55hiiiyiiyhpr5r5hhhvv5yjiaiaayyhh",
"hjyyaaaai5yyp5pprmyp5pk-:---5iv55vi5---:-k5rpumrpprpiiriaaaayyjh",
"h5ypyiyy55ruyr5j:fyr5p-ryrryya5pp5ayyrryrMrrpyf:j5pyyyrryyiypy5h",
"h5yppp55jhhvhhjjhh5r55hiiiiiia5pp5aiiiiiiM3rpphhjrrrhjj555pppy5h",
"hjyyaaaaup5j5pyiyyrr5phyyiyiia5pp5aiiyiyyNNypryyyyyy3bpuaaaayyjh",
"hhppaiyiiyy55pyiiy5j5phyiiyiia5pp5aiiyiiyNM3yyyyyiyyyayiiyiapphh",
"hhpjaiyyi5phvjyyp5hj5rvyiyyyiajppjaiyyyiyNMccyrpiar5jbyiyyiajphh",
"hhpjaaiaih5hvvrrhhvh5rhiaaiaaivjjviaaiaaiMNc3rhjyb:ryiriaiaajphh",
"jhp5aaiiihhjhhr5vhvh5phaaaaaaivjjviaaaaaac33jhzfrryiiiriiiaa5phj",
"jjp5aiyyaihvjhprvhvhjphaaaaaaih55hiaaaaaayy5hvhhryyirynayyia5pjj",
"jjp5ii-:iaijhjyy5hkkh5vaaaaaaih55hiaaaaaayy5kkhryir95iai:-ii5pjj",
"jjrjyy;:iaaiuyyussppppviiiaaaih55hiaaaiiiyypppssuyyuiiai:;yyjrjj",
"j5y5ry-:iaaaaaaaaaaaaihnnniaaih55hiaainnnyyaaaaaaaaaaiai:-yr5y5j",
"hjyyy55riaiyiyiabiaaaihaaaaaaivjjviaaaaaaiiaaaibaiyiyyair55yyyjh",
"hjr5y:jyiiiyuyuiyyygiy5iiyyyguh55hugyyyiayyigyyyiuyuyiiiyj:y5rjh",
"j5pjr5p5j5hvhhhhhjj5j55rr5hhvvvppvvvhh5rr5cj5jjhhhhhvh5j5p5rjp5j",
"5pp5phriiiiiiiiiiiiiiiii5v5ppppyypppp5v5iiiiiiiiiiiiiiiiirhp5pp5",
"ppp5phriiiiiiiiiiiiiiiii5v5ppppyypppp5v5iiiiiiiiiiiiiiiiirhp5pp5"
};
