/* XPM */
static char *xpm_[] = {
/* columns rows colors chars-per-pixel */
"64 64 24 1 ",
"  c #2F2F3B",
". c #4F5363",
"X c #87AFFF",
"o c #3F3F4F",
"O c #272B37",
"+ c #73778B",
"@ c #5F6377",
"# c #434757",
"$ c #272727",
"% c #57576B",
"& c #4B4B5F",
"* c #333343",
"= c #DFE7FF",
"- c #5B5F73",
"; c white",
": c #23232F",
"> c #373B4B",
", c #1F1F27",
"< c #13131B",
"1 c #676B7F",
"2 c black",
"3 c #070707",
"4 c #0B0B0F",
"5 c #6B6F87",
/* pixels */
" .XXXX.oO+@####o$%&&&&&&#######&##&&&##&&&&&&&%$o####@+Oo.XXXX. ",
"*.X==X%oO+@&####O-##&&&&####o&###&#&&#&#&&&&##-O####&@+Oo%X==X.*",
" .X;;X.oO+@&#&##O@&##&&####o#&&&&##.&####&&##&@O##&#&@+Oo.X;;X. ",
"*.X;;X.oO+@&#&##:@&&###&###########.###&&###&&@:##&#&@+Oo.X;;X.*",
" .X;;X.o +@.&###O@&&&&&############&#&&##&&&&&@O###&.@+ o.X;;X. ",
" .X;;X-oO+@.&&##O%&&&####&&#######&&#&&&###&&&%O##&&.@+Oo-X;;X. ",
" .X;;X.>,o+@&### .#ooo#o#.&ooo#########oo#ooo#. ###&@+o,>.X;;X. ",
" .X;;X.*<O+@&###>&#####o#..ooooo#oo####oo#####&>###&@+O<*.X;;X. ",
" .X;;X. <O+@&&&##>o####o#..ooooooo#####oo####o>##&&&@+O< .X;;X. ",
" .X;;X. <O+@.&&&&#*o###o#..oo#oooo####ooo###o*#&&&&.@+O< .X;;X. ",
" .X;;X. <*+1.###&&o*o##o#..oo#o######oooo##o*o&&###.1+*< .X;;X. ",
" .X;;X.O< +@.##&.&##*##o#..ooo#oo###ooooo##*##&.&##.@+ <O.X;;X. ",
" .X;;X. < +@.&&#2o&&o>#o&..ooo##oo##o###o#>o&&o2#&&.@+ < .X;;X. ",
" .X;;X. < +@.&&#23>##*###..#oooooo###o#o##*##>32#&&.@+ < .X;;X. ",
" .X;;X. < +@.&&#234##:&o&.%#o##o#######oo&:##432#&&.@+ < .X;;X. ",
" .X;;X. <O+@.&##223.o,.o&%%##o#oo####o#oo.,o.322##&.@+O< .X;;X. ",
" .X;;X.>,o+@.#oo222.#,%o&.%#oooooo#####oo%,#.222oo#.@+o,>.X;;X. ",
" &X;;X.>$+@.&&oo222.o,-o&.%#oooo##&&###oo-,o.222oo&&.@+$>.X;;X& ",
" .X;;X.>$+-&#&oo222.#,-#&.%#o##o#&&&###o#-,#.222oo&#&-+$>.X;;X. ",
" .X;;X%>$5-&##oo222.o,-#&&&o#ooooo&&#####-,o.222oo##&-5$>%X;;X. ",
"*.X;;X.>$+@&&oo#222%#:-&#..ooooooo#&###&&-:#%222#oo&&@+$>.X;;X.*",
"*.X;;X.o$+@&##o#222.#:-&#&.ooooooo######&-:#.222#o##&@+$o.X;;X.*",
"*.X;;X.o$+@&&###222.#:%&#&.#oooooo#&###&&%:#.222###&&@+$o.X;;X.*",
"*.X;;X%>O+@&#&##222#&:%##&.oooo#o#&&#o###%:&#222##&#&@+O>%X;;X.*",
"*.X;;X.o$+@.#&##22>&#:.##&.oo#oo###&#o###.:#&>22##&#.@+$o.X;;X.*",
"*.X;;X.>$+@.#.&&2o&&#*&o#&&#ooooo##&&o##o&*#&&o2&&.#.@+$>.X;;X.*",
" .X;;X.oO+@.#.#&..&&o>oo#&.#o####o#&#oo#oo>o&&..&#.#.@+Oo.X;;X. ",
"*.X;;X%o$5@.#.#&%.&#*o#o&&.########&&#o#o#o*#&.%&#.#.@5$o%X;;X.*",
" .X;;X.o$5@.#&#&..o*oo#o&#.########&##o#o#oo*o..&#&#.@5$o.X;;X. ",
" .X;;X%o$+@.&&&&%.*o&##o&&&#######&&##o#o##&o*.%&&&&.@+$o%X;;X. ",
" .X;;X.o$+@.#&&&%o##&##o&#.####&######o#o##&##o%&&&#.@+$o.X;;X. ",
" .X;;X.o$+@.#&#&% .#&#oo&..&#########ooooo#&#. %&#&#.@+$o.X;;X. ",
" .X;;X.o$+@.#&#&&:@.%..#&&&#######&#&o#.#..%.@:&&#&#.@+$o.X;;X. ",
" .X;;X.>$+@.#&#&.O-&&&&####.......%...#&#&&&&-O.&#&#.@+$>.X;;X. ",
" .X;;X.o$+@.#&&&&$%&&#&#o###&&&.&....&#&#&#&&%$&&&&#.@+$o.X;;X. ",
"*.X;;X.>$+@.#&&&.>&.&&&#####&&&&&&.&&&o&#&&&.&>.&&&#.@+$>.X;;X.*",
" .X;;X.>$+@.&&&&.#>#&&&##o#&&######&#&&.#&&&#>#.&&&&.@+$>.X;;X. ",
" .X;;X.>$+@.&&&&&&#*o#oo###&&#....%%.%#.oo#o*#&&&&&&.@+$>.X;;X. ",
" .X;;X.>$+@.&%&&&&&o*o#oo##&&#%&&.....#&o#o*o&&&&&%&.@+$>.X;;X. ",
"*.X;;X.>$+@.&.&#####>>#ooo#&&#&###&&#&&.o#>>#####&.&.@+$>.X;;X.*",
" .X;;X.>$+@.&.&#2o&#o*.ooo#&&&.#..%%%%##o.*o#&o2#&.&.@+$>.X;;X. ",
" .X;;X.>$+@.&.&o23>#oO.oooo#######&&#&&#o.Oo#>32o&.&.@+$>.X;;X. ",
" .X;;X.>$+@.&.&o234#o:.oooo######&&###&#o.:o#432o&.&.@+$>.X;;X. ",
"*%X;;X%>$+@.&.&o223.o:%oooo#######&&&&&#o%:o.322o&.&.@+$>%X;;X%*",
" .X;;X.>$+@.&#o#222.o:-oooo##ooooo#&&&&#o-:o.222#o#&.@+$>.X;;X. ",
" .X;;X%>$+@&o.&&222.#:-o#######ooo#&&&&#o-:#.222&&.o&@+$>%X;;X. ",
" &X;;X.oO+1.&.&#222.#:-o#######oooo#&&&#o-:#.222#&.&.1+Oo.X;;X& ",
" &X;;X.>,&1@..&#222.#:-o#&####&oooo&..&&o-:#.222#&..@1&,>.X;;X& ",
" &X;;X.*<*+@..&#222.o,-o#######oooo###&&o-,o.222#&..@+*<*.X;;X& ",
" &X;;X%*< +@..&#222.o,%###o##&#ooooo##&&#%,o.222#&..@+ <*%X;;X& ",
" &X;;X.*< +@..&#222.o,.########ooooo##&&#.,o.222#&..@+ <*.X;;X& ",
" &X;;X% < +@.%.&222.o,.#o######oooooo#&&#.,o.222&.%.@+ < %X;;X& ",
" &X;;X-*<*+1%.&&22>##*.###&&&&&ooo###&.&#.*##>22&&.%1+*<*-X;;X& ",
" &X;;X. < +@..&&2o&#o>##o#&&&#&ooo###&.&##>o#&o2&&..@+ < .X;;X& ",
" &X;;X. < +@.#oo##&o*o##oo###ooooo###&&###o*o&##oo#.@+ < .X;;X& ",
"*.X;;X%*<$5-&#oo###*#&&&####&########&&#&&&#*###oo#&-5$<*%X;;X.*",
"*.X;;X.*<$5-&##o##*#&#######&#########&####&#*##o##&-5$<*.X;;X.*",
"*.X;;X%>,>+-&##oo*&&&#######&#####&&##&####&&&*oo##&-+>,>%X;;X.*",
"*.X;;X.oO+@.&##o*#&&&#############&&##&####&&&#*o##&.@+Oo.X;;X.*",
"*.X;;X%oO+@.###o$.&&&########o&##&&&&######&&&.$o###.@+Oo%X;;X.*",
" .X;;X.>O+@.#&#o:-&.&########o####&&&o#####&.&-:o#&#.@+O>.X;;X. ",
" .X;;X.>O+@.&&#o:@&.&########o####&&&o#####&.&@:o#&&.@+O>.X;;X. ",
" .X==X.>O+@.&##o:-#.&########o####&&#######&.#-:o##&.@+O>.X==X. ",
"*%XXXX%>O+@%&##o*%&.&#&######o####&##&###&#&.&%*o##&%@+O>%XXXX%*"
};
