/* XPM */
static char *tile0831740675773[] = {
/* columns rows colors chars-per-pixel */
"64 64 45 1 ",
"  c #4B4B5F",
". c #4F5363",
"X c #434757",
"o c #373B4B",
"O c #272B37",
"+ c #23232F",
"@ c #73778B",
"# c #57576B",
"$ c #3F3F4F",
"% c #333343",
"& c #373737",
"* c #838383",
"= c #5B5F73",
"- c #2F2F2F",
"; c #2F2F3B",
": c gray39",
"> c gray28",
", c gray45",
"< c #3F3F3F",
"1 c #8B672B",
"2 c #7B5B1F",
"3 c #6F4F17",
"4 c gray34",
"5 c #977737",
"6 c #5F430F",
"7 c gray31",
"8 c #4F370B",
"9 c #9F5B3F",
"0 c gray42",
"q c #8B8B8B",
"w c #1F1F27",
"e c #272727",
"r c #13131B",
"t c #7B7B7B",
"y c #F7FF00",
"u c #BBBBBB",
"i c LightGray",
"p c #C3C3C3",
"a c gray70",
"s c gray64",
"d c #939393",
"f c white",
"g c #9B9B9B",
"h c gray67",
"j c #5F6377",
/* pixels */
" ........          ...         .  ...  ........      .          ",
".           X  XXX     XXXXX                      XXX  XXXXX  X ",
"ooooooooooooooooooooooooooooo.     ooooooooooooooooooooooooooooo",
"OOOOOOOOOOOOOOOO+OOOOOOOOOO++@#. $o+OOOOOOOOOOOOOOOOOOOOOOOOOOOO",
"%oooooooo%%%oo%&%%%ooo%%%%%%O*=XX oO%%%&&%%%ooo%%o%%%o%%%%%%oo%%",
"%%oooo$oo&ooo%%&-&%o%o%%%%%%O*=  XoO%o%;;oooooo%%oooo%%;;%%%oo%%",
"%%oooooo&;%%oo%%-%%%%%%%%oo%O*#  XoO%oo%%%%ooo%&%oooo%%;;%%%oo%%",
"%oo%ooo%&;;&%%%%%oo&%%%%%oo;+:>XX$oO%%%;;%;;;%&&&oooo%&--%%%%%%o",
"%%%%oo%;;&&;%%%%%%&%ooo%%oo;+:>$$$oO%%%;;%%%%&&&&o%oo%;--&o%%%%%",
"%%ooooo%%%%&ooo%%%ooooo%%oo;+:>$$XoO%%&;;%%%%;&&&oooo%;;;;o%%%%%",
"%%ooooo&&%ooooooooooooo%%oo;+:>X  oO&&-;;%%%&;&&&oooo%;;;;o%%o%%",
"%oooo%o;%oo%%%%%ooooooo%%oo;+:>   oO&-;;-%%;&;&&%o%oo%;;;;%%%o%o",
"%ooo%oo%%oooo%%oooooooo%%oo;+:#   oO-;;--%%&o%ooooooo%;-;;&%%%%%",
"%%%o%%o%%oooooo%o%ooooo%ooo;+,=  XoO-&;;;%%&%%%&ooo&&;;;&-&%%%%%",
"%%ooo%%%%oo%ooo%o%o%%%o%%oo%+*=  XoO%;%;%;;;;;&;&&oo&;&-&;o%%%%%",
"%oooo;&&%%%%%oo%o%o%%%%%oo$%+*= X oO%%%;;;&;;;%&&%oo%;&;&&&&;oo%",
"%%ooo;&;%&%%oo%%o%o%%%%%o$$%O*=  X%O%;%;;;;;%%ooooooo;&;%&&&;%o%",
"%;oo%&&;&;&;%%;;o;%%%%%ooo$%+*=  X&O%%%;;;;%%%%%ooo&;&%%&;%&;%%%",
"%%oo&&&;&;&o&o;&%%o%%%%ooo$%+*= $$&O%%%;;;;;&%%%o%o&&&&o%&&<&%%%",
"111111233<$%<4><<142111111512*= < &31212522333 <<42336336$XX2111",
"11111111127<32277411111111122*=$<$&33312136666<<>2122112>o441111",
"11111233336222644211222111122*#$< &66311366211441111111:4o421111",
"11111112321123612221122111122*.$;<&X8211111111121119742005111111",
"11111111111236611112233311112*=X%<;38112211111111124772111111111",
"2222222222223632238663>622222@=$<<&23366322222222244$.2422222222",
"$$<$<<$<<$<<<$<<$%&&<<<<<$$<<q#44<>$<&&<<$$$<$$$$$$$$$$$<<$<<$<<",
"7.7..7...7777..7.....77.7..77777777..7777777............777.7777",
"$<<$$<$$<<<<<$<$$$$$$<<$<$$<<<<<<<<$<<<<<<<<$$$$$$$$$<<$<<<$<$$$",
"wwwwwwwwwwwwwwwwewwwwwwwwwwwwwwwwwwwwwwwwwwwwwwwwewewwwwwwwwwwww",
"rrrrrrrre66ee66ee66errrrr:**tt,0<4<>-<>rrrrrrrr&44&rr&44&rrrrrrr",
"rrrrrrrr8yy68yy68yy8rrrrruiiippa4s>d<dsrrrrrrrr4ff4rr4ff4rrrrrrr",
"rrrrrrrr8yy68yy68yy8rrrrrguahsgd4*>,<:grrrrrrrr4ff4rr4ff4rrrrrrr",
"rrrrrrrre66ee66ee66errrrr0dq*t,0<4<>&<>rrrrrrrr&44&rr&44&rrrrrrr",
"wwwwwwwwwwwwwwwwewwwwwwwwwwwwwwwwwwwwwwwwwwwwwwwwewewwwwwwwwwwww",
"$<<$$<$$<<<<<$<$$$$$$<<$<$$<<<<<<<<$<<<<<<<<$$$$$$$$$<<$<<<$<$$$",
"7.7..7...7777..7.....77.7..777777><.><<<<7<7............777.7777",
"$$<$<<$<<$<<<$<<$$<<<<<<<$$<<:444><%<<<<<$%$<$$$$$$$$$$$<<$<<$<<",
"2223623<<<2222222222222222222@#X$<&22222222222222221122222222222",
"11232126><6111112111211111112*=.  %61511111111111111111111111111",
"11111126321115233112211121112*:.>>&61111221111111111111112111111",
"11111111112:226322232:1122112*:  $&61231222211122212121222111111",
"11111122114744><3333633122112*= ..$227737474223336322624<3111111",
"11111111>4<>:>&<<226833143212*>$  o22>>< j4>3333331126>><3%11111",
"oooooo$%>>o$;&&--&---&%%;;;%O*>$ .oO%%<<;;;;&%;-;%%%;&&&;&%%%oo%",
"%oooooo%%oo&&&&-&%---&%%;;;%O,>X  oOooo%;%%-;-%-%o%%;%oo%%%%%%%%",
"%%%o%oo%%%%;;&-;%%;;-%%%;;;%O,>   oOooo%;&;----;;o%%;%%%%%%%%%%%",
"%;%%%%oooooooooooo&;&ooo%%%%O,#  X%Oooo%;&;;-&-&;;-;;%%%%%%%%%%%",
"%;;%%%o%%oooooo%%&;;%%oo%%%%O*=  $&Oooo%-;;;--&-&&--;;oo%%%%%%%;",
"%;;%%%oo%oooooo%o%&%%ooo%o%%O*= X$&Ooooo;&&--&--&&--;&&o%o%%%%o%",
"%;;%%%oo%oooooo%o%%%%oo%%%%%O*=X$<%O%%oo;%;;;;&-&----%%;;;%%%%%%",
"%;;;%%ooooooooo%o%%%%oo%%%;%O*=XX$o+%%oo%%;;-&;&&&--;oo;;;-%%o%%",
";;;;%%o%ooooooo%%o%%%oo%%%%%O*= XXo+%%oo%;;;%o%%&&&;&oo;;;;%%%%%",
";;;;;%$oooooo$oo%%o%;%%;;%%%O*=$X o+;%oo%;;-%o%%%%%;;oo;;;;%%%%%",
";;;;;%o%oooooooo%ooo%o%%%%ooO*#$  oO%ooo%%;;%o%%%%o&&%%;-;;%%%%%",
"%;;;;%o%oooooooo%ooo%%%%;%ooO* $  oO%o%o&;;;%o%%%o%&&&&&;;&%%%%%",
"ooooooooo;;;;%;;;%%&---;;;%%O0><  oO%%&---&%%o%%%%oo%o;&--%%%%%%",
"ooooooooo;;;%%;;;;&&;;&&&&;%Ot.$  oO-&--&;oooo%%%;%%%%%;;;%%%%%%",
"ooooooooo;%;;%%;;;&&-&&&;;;%O*#$ XoO-&&-&&%oooo%%%o%;oo%%%%%%%%%",
"ooooooooo%%%%%%;;;%&&&&&;&%%O*.X $oO--%;;;%ooo%%%%o%%oo%%%%%%%%%",
"ooooooooo%%%%%%;;%%&-;%o%%%%O*= XX%O-&&;;;%o%&%;%%o%;oo%%%%%%%%%",
";;;;;;;;;;;;;;;OO;;;--;;;;;;O@#X$X&O;-;;;;;;;;;;;;;;O;;;;;;;;;;;",
"============================## X$$>= >=##X. .==### .< ==========",
".........   .      ...         X$X >$XX$<$XX<X$%<%<$$>          ",
"..........  .      ...            .X .   . . >>$$XX$$>          "
};
