/* XPM */
static char *tile0391740674605[] = {
/* columns rows colors chars-per-pixel */
"64 64 36 1 ",
"  c #57371F",
". c #6B3717",
"X c #7F431F",
"o c #733B1B",
"O c #87472B",
"+ c #4F270F",
"@ c #572B0F",
"# c #331707",
"$ c gray6",
"% c #070707",
"& c #271700",
"* c #431F0B",
"= c #934F2B",
"- c #9B572F",
"; c #73877B",
": c #5F6F67",
"> c #57675B",
", c #6B7B6F",
"< c #7B5B1F",
"1 c #6F4F17",
"2 c gray34",
"3 c gray28",
"4 c #879F8F",
"5 c #7F9383",
"6 c gray39",
"7 c #8B672B",
"8 c gray31",
"9 c gray42",
"0 c gray45",
"q c #4B5B53",
"w c #7B7B7B",
"e c #977737",
"r c #434F47",
"t c #272B27",
"y c #2F2F2F",
"u c white",
/* pixels */
" .XXooXXXOOOOOOOOOOXOOOOOXXXXXX XXXXXOXXXXXOOOXXOXXXXXoooooX....",
".. +@    +.oooooooooooooo......+.....   ..o.oooo..+@   @  ++#+ .",
"  +#+@.@+.. ooooooo...@@.......+.. ..    .... ooo.+@@.   +++#+..",
"@ $%@@@+  +@.o##########  .  ..%#o.      &&######## @ @+++++%$+ ",
"@+$$ ..   ++  #$$$$$$$$#.      %#X ... + #$%$$$$$$#@   @++++%$+@",
"  #$. +@o+++@ *=------O++@  + +%#o @   . *O===---O+ @+ +++++%$+@",
". #$ .   @+++ +XOOOOOXX+++@ .  $#..@+ .. *XXXXOOOo+..+ @++++%$++",
"#+$#..  @++++ *XXOOOOXX+ o@ .  $#o@++@   *XXXXXXXX+o.  +++++$###",
"ooo+o. +++++##$XXOOOOXX$#  @   *oo@ @+++&$XXXXXXXo$#@  +++++#ooo",
"...* . ++++*##$XXXOOOXX$#+   . *    @++*$$XXXXXOXo$#+@@+++++#+++",
" . *. @++++*##$XXXXXXXX$#+   . * +@@+++*$%XXXXXXOo$&#++++++ # ++",
"@@ +  @+++***#$XXXXXX.X$#++  . *@++++++*$%XXXXXXXo$###*+++++#++@",
"@@ + @@++++++#$XXXXXooX$#++@ o.*+++++++*$%XXXXXXXo$#+**+++++#++@",
"@@+#   @++*++#$XXXo...X$#++@ oo*++++++++&$XXXXXXXo$##**+++++#++@",
"@@+%$++ +++*+#$XXo@@ XX$#+   .o* ++  +++&%XXXXXXXo$##**+@.++%%@@",
"@++%&. ++*+++#$XXo @ oo$#@  .. * +  +  +#$oXXXXOXo&#**##@+  %# @",
"@++%&  @@+++oX@Oo. @ Xo@OX..   + +   @ oX@XXXXOOOo..@###++@.%#..",
"@+ %#   @+++  +OX+  .Xo#.oo. .++ @ . .+@+#.oXXOOOX*++**#*+@o%#..",
"@+@+X   @@@++ +OX .  X # ..o.. #  @ .. + #..XOOOOo#+++++*+.o+Xo.",
"@+ +o    ++++ +XX@.. .+# ..oo.+Xo. o.  +@#..XOOOOo+++++++ ..+oo.",
"@.+#@++  @*++ +X  .  X # ..oo* oo..o   @@#+@.XXXXo#++++++ ..+oo.",
"@+@#++@  @+++@+X. . .X.#  .. +@.......o @#  ooXOOX+@++++..  +oo.",
"@@+#@@.  ++++@*X .oo.X.#++@@+#+ .......@*#+.oooOOX+ @@+ .   +.o.",
"@@+++@+ @++++@#. @.ooX.#+*+++#@@ o... .@*# ..ooXOX+@ @..    +. .",
"@@+*@@ ..@+++@*o  .XX.@#++++@#++ oo....@*#  @.XXOX++ .oo ...+oo.",
"@++#@..o.@@++@*X..XXX.@#++++@#++ ooo.. +*#  @.oXOX++ . .  . +oo.",
"@ +#+ ...  @@@*XXoXXXo.#*+@@@#++@.oo...+*# @ oXXOX+ @ @@@   +.o.",
"@ @#+@ .@   @.+XXXXXXoo#*+@@ %$..oo.. @+*#+@ oXXOX+ +++++@ .+oo.",
"@@+#++@   @  o+OXXXXXo@##+++@%&o ... +++##+@ .XXXo+ ++++++  +.o.",
"@@.+ . @ @   .+OXXXOXo.+++++@$*o    @+++++  @ oXXo++@+++@+..+...",
".. ++# ++@   o+OXXXXX.X++++@+$#o .  @++++#  @ .XXo+  +@ @@#+#...",
"OXXXX.#*++@ . +XXXXXoXX++++@@$#o.X. +@+++# O.. XXo+. +@@+#XXOXOX",
"oo    +#+++  ++OXXXXoXX++++@+# .oXo @@@+ + ... XX.+. ++@+X..o..o",
"ooo#$.#.++@@++#XOXXXoXX++++@+#@* .. @  @++@.oo....+  ++ *..#&o..",
"oo.#$o*.++@ ++#OOXXXo.o+*++++#+*+.  @   ++ o.o..  ++  + #..#$o..",
".o.+#.#.++ @@+#XXXXXX.o+++++@#+++@@@@@  @+XXooo@.o#+ @++#..+# o.",
".o.* o#@+@@.o+#XXXXXXoO++@@ .+@o. @@@@.o.*XXXXo@ X+ +@ @#..+# +o",
";o.X:>o,o o<:,#XXXXXXo +@..11X22Oo @ .O 3+oXoX.@  #@@.o. 4;55;;;",
"OO=6,:o;<oO6,,#XXXXXXo +ooo>>X667X   o768+Xoo.@@  #@o<>1 4;;;;;;",
"X790;,o,7X<9;;#oXXXXXXo+.o<::o992Oo .<696+XXo.@@. #q:99:>5;;;;;;",
",,,w;;o;7769;,#oXXXXXXo+X<:,:X9062OoX90;5+XXo.@ o #;;99::4;;;;;;",
";;;;;;o;::9,;,*XOOXXXXo+;,,;;Xww962<7ew;5+XXo. .o #,;,9,,4;;;;;;",
";;;;;;o,,,,w;,*XXXXXXXo+;;;;;X4;9990ee;55+XXXo.XX.#,,,,::4;;;;;;",
";;;ww;o29:,;,;#XXXXXXXo+;;;;;X5,,9,wee,;;*XXXooXXo#,,,,; 4;;;;;;",
";;w96=o=7<0;;;#oXXXXXXo*;;;;;.5,,,,,ee,;;*oXXXoXXo#,,,,; 4;;;;;;",
";;92XOoO7O6,:>#XXXXXXXo+;;;;;5X,;;;;;;;;;#XXXXXXXo#,,,,; 4;;;;;;",
";;9<XOoO7oo:>rtXXXXXXXot#,;;;;4X;;;;;;;,#tXXoXXXXoty,,,;@4;;;;;;",
",,7XoOoO<..XXytXXXoooXotyX,,,,;4X;;;;;,,ytoXXoXXXoty,,;;@4ww,;;;",
";:O..Xo1<....ytXXXoooooty,,,,,,;4X;;;;,,ytooXXXXXoty,,;;@699:,;;",
",:O...o1< @..ytXXXoooo ty,,,,,,,;4X;;;,,ytoooXOXXoty,;,;@1O<7,;;",
",<.@ .o11@ ..ytXXXXooo ty,,,,,,,;;5X;;,,ytooXXXXXoty,;;; ..o=:;;",
"XX@@@oo1o@@. ytXXXXXXX.ty,,,,,,,,;5X;;,,ytoXXOOXXoty,;;;...oX=,;",
"o..@@@# ++++*%$XXXXXXXo$$#+++++++  #+++*%%XXOOOOOX$%+  .#....oXo",
"oo..@@# +++++$$XXXXXXXo$#*++++@++  #++++$%XOOOOOOX$#@.. #.....o.",
"oo.o.+# ++++.o+XXXXXXXo+ o+++   + .#+++oX+XXOOOOOX@OX. .#. o.oo.",
"oo..@+# ++++++#oooXXXXo*++++  . +  #@@   #XXOOOOOX+ooo..#... oo.",
".o... # ++++++#    ... +  ++@ . @ @#     *....ooo.+oooo.#..  oo.",
"o   .@#.+++. +$#&&&#####   @ @@  .+* .  .$&&$$&####ooooo#+ ...oo",
"#####%+  . +.+&#####*+++.  @ +++@ +*   .o##&$&#####.oooo.+%#####",
"#++**##++++   XXXooXXXXX.    +++@ +#++@..XX.............@$*+++++",
"    ++##+ ++ +  ..o.+..@....@  ++++#+   ..  . @@ .. ...@$*+ ....",
"..... +#$#################$$$$$$#&$$$##########$####&##%*+ .....",
".oooo..++++++++++++++++++++++++++*****++++++++++++++#*+++ ......",
".ooooooo..................... @@@@@@@@@@@  @@@@@@  @@@@@ .. . .o"
};
