/* XPM */
static char *result[] = {
/* columns rows colors chars-per-pixel */
"64 64 35 1 ",
"  c #432B13",
". c #3B270F",
"X c #473317",
"o c #4F3B1B",
"O c #6B5733",
"+ c #735F3B",
"@ c #7F6B47",
"# c #634B2B",
"$ c #23130B",
"% c #574323",
"& c #331F07",
"* c #2F1707",
"= c #170B07",
"- c #4F370B",
"; c #2F1B0F",
": c #5F430F",
"> c #1F0B00",
", c #673F27",
"< c #6F4F17",
"1 c #37230B",
"2 c #977737",
"3 c #8B672B",
"4 c #A77757",
"5 c #472B17",
"6 c #532F1B",
"7 c #A78747",
"8 c #936347",
"9 c #B79353",
"0 c #BB8F6F",
"q c #432B07",
"w c #7B5B1F",
"e c #3B2313",
"r c #C3A363",
"t c #B77757",
"y c white",
/* pixels */
" ..X  X . ..... XooooOO+OOOO@+#.$o%@@@+%+oXo. Xo%%oooooX ....&&.",
"*. X....  XXX  o  ooo%oXo%O+@+O.=Xo+@+++OX-#XoooXXooo%o   .... .",
".... XXo.. .. Xo . XXo Xooo%OOOo$;#O+@+O#--o.o%oXooo%oo%  ...   ",
" .... .o .oX XXO#%oo XX X o#O@#o$*XX#O##:--o.oo%%%o%:o%%ooo ...X",
"&  X ... .%oXooO##Xo. .X  .o#@+o>*%+%%,o-: ;Xo%%%%%#####%%o.;...",
"..   ..;  o##oo#%o X.o%#X..Xo+Oo$*%#%:oo oXo####%###%###%%%X .. ",
".    X..%XoOOOo#%X#%OO#%.. %%+#%$;+#o#oXXo%####%#<#<#O#:Xo%X   .",
";.  . . %X#O##o#o%OOO###. X%o##+>;O#Xooooo%%#OOOOO#O###o XX.... ",
".1.XXooXoXOO++++####%#O%. o%+OO+$$#%Xooo%%o#OO++OO+##OooX    ...",
"& oXX%oooo@@@22@#OO#%%%  Xo%+O@@>;@+ooo%##X##O+@@O+O##XXX-    ..",
"&;.oo%oooX#@2222O++Oo%oX .ooO@@+=;@3oXo%##%#O+++@@+O<#XXX    ..;",
". ..o#%oXo#@2222@++#X%XXXXXXO4@O>;@4ooo%###%##+++@OO##%%X     ..",
"..X  XoX X#@@@@@@#O#XOO%5 oX+2@4=.@4:-:####o#oO+++O++OO#o    ..&",
".. XX.XX X%@@@@@@O%oo%#%X66X@444=;@7::<O##%%###O++OOOO##%%ooX.;.",
"%XX .o%oXXo+@8+OO#%ooo%%ooX.@494=.24##OOO#%###%OOOOOO####%oX  &.",
" XX..X%oXo#ooo+O##%oX5%%%#%o@204>#47+OOOO+#O##%O#O##oX%##%X ....",
"      Xo oooooOOO%%oo%%%%%%#+272>%47@++++++OOO#%%#%ooX%#%X   XX ",
"&&....  ooXXXX%%#O%XX#%oo%%o++92= 4@@@+@+@+++O##X-%o Xo%X.. XXo;",
".......X%o XXX####%#%#oXX%%o##7@>X2@@@@@@@@++OO#%o:XXXX% ... XoX",
"....&;; X6   X%###%ooo6X.o%o+#7#$.2+32@2@@@++OO#%%  XXXo ..1. oX",
"...&&;..5%   X%%##o66X5 Xoo#+@7#$;@@@2@@@@@++OO#%o q X% .&&&.X%;",
".. .. X..5  X%%%o66%6XX  %#O#+7%;;@224@@@@@@OOOO:  .. %o..XX .X.",
".   ;XoX...o%#Ooo%oooooXX%#OO@4o=%@@2@@@@@@++OO##-o X%##oXoX. ..",
".X XX##%% %#+4@5 Xo%%#%%%#O#O@@;=#@@4++@@@@+O<#<:--o%%OO#oXXX ..",
" X o%%%%%#O@44%   %#####O#OO#+@;=#+@4OOO+++ww<<:- XXX#OOO#%%o 1;",
"X ..%%%##o#@@Oo X%%##O%#O#OO+77;=o3+4OOOO+Ow<<:Xoo###OOOO#%oXX.&",
"   . #O%#o%#+%oXoooX###%###O+77;=;%+2#OOOOO<#:%XX%%#O+@@+O#o. .;",
".;.  %%%#@+##+%%#%%%o%%o%OO++2@;>;+2@##O#O<,<<::-%%O+@@@@+O#o  .",
";X11ooXo#+@@@@+%#O%%#ooo%##O+@@e=#29@%#+#%:o<ooX.o%O@@@@@@+#%%%o",
"oo..o+o#@444444+#O#@#+%%+@@@902;=@@733w<#o-:XooX;oo#+277744#oooX",
"%o%++@++4000004@@404@@@@O@@4@@@$>53+4@@++3#@Oo qX@@@447rr7@+%%oo",
"O%oooOOO@4444@@O#+O%#@@@#5o##o;$>;O#%O+++O<#%%%;o44@@tt744@#oXoX",
"Xe$$$$==$$;eeee;$$$$$$$$======>>$$$>>>>>>$$>>====>>$$e#+@$;;o##O",
";eo##o%%++%O.X %5;;$& &.;%o%%%;.>$5+5$;.e.$$$$$$$;;  o%+@@@04@O+",
"+4+@@@+@@@O@@+@@+##o+%%X+++##o&;$.+@+X## e;5#;$$%#o%#+@@4t7t4++@",
"#+#@@+@@@@@@272@X+XX#%o###+@72@.eo<@@+@3@@@+ooXo#%..X.%%%%%#o%#@",
"1&X%########%@@+OO#o   O## #77@;;-@47@#@@#XoXX.e##. oXXoXXoo%O  ",
"   Xo#######%XoXo  XXX X#Oo#@72$$o@@###O##oo%oX %o  Xo%ooooX%#XX",
"  XXo#######oo#XX...XX .XX-+@@2;$o2@###O##:%%ooXXX..o#%oO%oo##o ",
"   Xo%####%oX###%X.oXoXoX%o3#OOe=%22+OO:%O#:oooo%X.Xo#%oO#XXXX  ",
" 1;XXoooXoX %OO##X6oXooo%%#3@+@ $o@2@O###O#:%%O#X%X..%o#o X..1 .",
"& .* XooXXXoOOO#%o%oooooo%##++@%;+07@+OO##O#%o%o&1XX1&. 1 X. . .",
"11&. XXXooXo#%##X%XooooXoo#O@@@+;2t72@+#O###:XoX &. 1..111X 1 .&",
"X..  .XXX#oX##oXX#o  oX-%%#O7t@%;@0422+OOOO##ooXXXXo.o1 ooXoo%% ",
"##  .... ##o##XXX##%XoXo##OO002;$#t442@+O#O##o XX o%#%1.%%%%o##%",
"##    .X%#%X%%#%oXXXXX%:o#@299@e$#8477@O####: X Xo#OOOoXoXXoo%##",
"Xo   ..Xoo##%%. ooXXXo:o:#@277@%;O+272+O#:##Xo.1oo#%%o X%#%X XX ",
"ooX;... XoX%%XXooXXX%O%:%O424t@o;#+272@Ooooo%XX  X#%%X1 %OO#XXXo",
"X X. .. .ooXXXXooooXO##%#@4@40@%$+@72@O#ooX....ooXo o...oOOOoXX ",
"& X .XXXX  .. Xoo%#%#O#%:O@274@#$O@48@#ooX ....ooX.;1&.Xo%O%X1X.",
".;....  . 5 XXXX Xo%#OO##:+@@7+#$o84@O%#o  X .. .*.;&..X .  . ..",
".... ----oo - XXXXXo%%####%##7@#$%2+Ooo%oooX.. ......;. XX......",
"..&;   -:%oXXXX XXX##XXO####O@2@;#2@#:oXXo#oo....;;.&*...   ....",
".*.    oooX oX XoooOOXX%O##%<+@#$o@@o.   ##:-X .XX.; ..&.  ..&&.",
"..&..  ooooX%  ooX#O#oX###oo#@3#$%+4%X%%###%-..%X.   .;. .&&;..*",
".;;.;..X:ooX%%XXoo###oo%#%%%#@#o>#+4#o%OO##o--  XXX.;.;;....;&..",
" .&&;...ooXXXoXXXoOO%o%%o ;XX#Oo>o@+++#+O#oX-  X  X .....&*;&*&&",
";.......-XX %##oX##%XX%XX ;.X+3#>%@2@@+@%ooXXXooXX  ...;.*;. ...",
" .  ...X X   ooo%#%o%oo##%X.;#O#$#4744@@@+#oX XXX  X..&.. X.; .;",
"XX. ..;o  .  #%o%#%#o%###X&;;#+#$O47442@@+OO%%oooXXX  .  .&&;. .",
"..... X .&;... XXX#o%%oX;&..;@O#$O@4744@@O#oXXoo%oo .  ;&&. ....",
".....&&&&.X......  X  ;;.. XX@+e$@tr74@@%ooXXXX oo%o..&;......&;",
"X        ...... ..XoXX. o XX#@@;$@@7744#%oo-  XX%ooX....  ;& X .",
" . ..  X..  X....&Xo%%#oo oX@2@.;+@244O#%oo:XX...;XX  o ....... "
};
