/* XPM */
static char *tile0691740674605[] = {
/* columns rows colors chars-per-pixel */
"64 64 24 1 ",
"  c #333343",
". c #2F2F3B",
"X c #272B37",
"o c #1F1F27",
"O c #171B23",
"+ c #272727",
"@ c #4F270F",
"# c #572B0F",
"$ c #23232F",
"% c gray12",
"& c #271700",
"* c #3B1B07",
"= c #373737",
"- c #331F00",
"; c gray9",
": c #13131B",
"> c #432B07",
", c #0F0F13",
"< c #331707",
"1 c black",
"2 c #0B0B0F",
"3 c #431F0B",
"4 c #070707",
"5 c white",
/* pixels */
" .. ...XXXXXXXXXXXXXXXXXXXXXXXXXXXXXXXXXXXXXXXXXXXXXXXXXXXXXXXXX",
"oOoX+++@##################@@@############################@$$$o%o",
"OOOXX+O&*****************&&&&&****************************$$$%%%",
"oOo++++&&&***************&&&&&&&**************************=$$o%o",
"++XXX+O&&&&**************&&&&&&&*&************************$$$$$$",
"+X+++++&-&&&&&&&-&&&&&&&-&&&&&&&-&&&&&&&-&&&&&&&&&&&&&&&&&+$$$$$",
"X$$$+XXO;;;OOOOOOOOOOOOOOOO;;;;OO;OO;;:;:;:>&&,OOOOOOOOO;;+++++.",
"X@###<;;1;XXXXX212XXXXX212X+XX+212XXXXX212+#*&;2111111111;+>@#@X",
"X@<<*&;1+1XXXXX1+1XXXXX1+1X+XX+1+1XXXXX1+1X#*-;1+=======+1X@&<&O",
"X#<<*&O1=1+XXXX1=1XXXXX1=1X+++$1=1XXX+X1=1X#*&O2111111111:X#<<&O",
"X#<**&O1=1+XXXX1=1XXXXX1=1X++$$1=1XXX++1=1+@&&;+++XXXXX++++@<<&O",
"X#<**&O1=1++XXX1=1XXXXX1=1X+$+$1=1XXX++1=1+@&&;+XX+X+XX++++#<<&O",
"X#<**&O1=1++XXX1=1XXXXX1=1X$+$+1=1XXX+X1=1X#*&;+++++X+X++++#<<&O",
"X#<<*&O1=1++XXX1=1XXXXX1=1X+$$+1=1XXXXX1=1X#*&;+++++XXX++++#<<&O",
"X#<<*&O1=1++X+X1=1+XXXX1=1X$+$+1=1XXXXX1=1X#*&O+++++XXXX+++#<<&O",
"X#<<*&O1=1++X+X1=1++XXX1=1X++$+1=1XXXXX1=1X#*&O;1111111112+#<<&O",
"X#<<*&O1+1+++++1+1++++X1+1+$+$+1+1XXX++1+1X#*-O1+=======+1+@<<&O",
"X#<<*&O212+++++;1;++++X:1:X+$++O1:XXX++;1:X#*&O:1111111112+#<<&O",
"X#<<*&OXXXXX++++++$$$+XX++X++++  XXXX+++XXX#*&OX+++++X+X+++#<<&O",
"X#****###@@#@@@@@####@##@@@@@@@######@@@####*&OX++++++XXX++#<<&O",
"X#*****&*&&&&&&&*&<<<<&&&*&&&&&33****&&&***&*&OX+XXX++XXX++#<<&O",
"X#***&&&&&&&&&&&&&&&<@@@&##>&>>#3###*>>>*###*&OXXXXXXXXX+++#<<&O",
"X#<<*&,;O;;;;;;;:::<<@@@&>>>&>>#3###*>>>&>##*&O+++++X+X++++#<<&O",
"X#<<<&:2111111111;$#<@@>1#>#1>>#1#>#1>>>1###*&O:1111111112+#<<&O",
"X#<<<-:+========+1$@<<<111*111&111&111&111*&*-O1+=======+1X@<<&O",
"X#<<&&O2111111111;$#<@@@1>#>1###1>##1###1###*&O;1111111112+@&&&O",
"X#<<&&OXX++++++XX++@&@@@&>#>*###3>##*###&###*&O++XXXXXX++++@&&&O",
"+#<<&&OXX++++$$$+XX#&@@>&>#>1###1>##1###&>##*&;+++++XXX++++@&&&O",
"+#<<<&OXXX++$$$$$XX#&<<&&&*111*1+1*111*&&&***&;++++XXXX++++@&&&O",
"+#<<<&O+XX++$$$+XXX@&@@@&>#>1###1>##1##>&>#>&&;++++XXX+++++@&&&O",
"X#<<*&OXXXXXXXXXXXX#&>@>&@@#*#>#*>##*##>&>>>&&;XXXX++++X+++@&<&O",
"X#<<*&O2111111111:X#*>>>&@##1#>#1>##1###&>>#&&;:1111111111X@&<&O",
"X#<<*-O+========+1X@*******1+1<1+1*1+1&&*****-;1+=======+1X@<<&O",
"X#<**&O2111111111:X#*###*##>1@@#1>##1>>>&>>#&&;;1111111111+@<<&O",
"X#<**&OXX+++XXXXXXX#*###*##@*>@#3###*>>>&>#>&&;++XXXX++++++#<<&O",
"X#<**&OXX+++XXXXXXX#*###*@@#1#>#1###1>##*###*&;++++XXXX++++#<<&O",
"X#<<*&OXX+++XXXXXXX#****<<*111&1+1*111*******&;+++XXXX+++++#<<&O",
"X#<<*&OXX+++X+XXXXX#*##>*###1#>#1###1###*###*&;+++XXXXX++++#<<&O",
"X#<<*&OXXX++X+XX++X#*#>>*###&@>#3###*###*###*&;+++XX+X+++++#<<&O",
"X#<<*&O2111111111;+#*#>>1###1>@#1###1>>>1###*&O;1111111112+#<<&O",
"X#<<*-O+========+1+@**&111*111<111*111&111***-O1+=======+1+@<<&O",
"X#<<*&O2111111111;+#*#>>1###1>@#1###1>>>1###*&O:1111111112+#<<&O",
"X#<<*&OXX+++$+$+$$$#<@@@<>>#&>@#3###*>>>*###*&OXXXXXXXX++++@<<&O",
"X#<<*&O++$+$+++$$$$#<@@@<@>><>@#3###*>>>*##>**#@#######@@@>***&O",
"X#<<*&O+++++++++$$$#<<<<<<&&&<&33****&&&********&******&&&&***&O",
"X#<<*&O+X+++X+++$$$#<<&&-&&&&&&&-&&&&&&&-&&&&&&&-&&&&&&&-&&***&O",
"X#<<<&:$$$$$$$$$$$$#<&2:;OO;;;;OOO;OO;;;;;;OOOOO;;OOOOO;;;;@<<&O",
"X#<<<&:2111111111;$#<&:;1:X++++:1;+XX++;1;+XXXX:1;XXX+X212X#<<&O",
"X#<<<-:+========+1$@<&:1+1XX+++1+1XXX++1+1++XX+1+1+XX++1+1X#<<&O",
"X#<<<&:2111111111;$#<&:1=1X++++1=1+XX++1=1+XXXX1=1XXX+X1=1X#<<&O",
"X#<<<&:$$$$$$$$$$$$#<&:1=1XX+++1=1XXX++1=1++XX+1=1+XX++1=1X#<<&O",
"X#<<<&O+XXXXXXXXXX$#<&:1=1XX+++1=1XXX++1=1X++X+1=1+XX++1=1+#<<&O",
"X#<<<&O++XX+++++XX$#*&O1=1+++++1=1XXXX+1=1XXXX+1=1XXX$$1=1$#<<&O",
"X#<<<&O++XXXX++XXX$#*&O1=1+++++1=1XXXXX1=1XXXX+1=1XXX$$1=1$#<<&O",
"X#<<<&OX+XXXXXXXX+$@*&O1=1+++++1=1XXXXX1=1XXXX+1=1+XX$$1=1$#<<&O",
"X#<<&&O;1111111112+#*&O1=1+++++1=1XXXXX1=1XXXX+1=1+XX$$1=1$#<<&O",
"X#<<&&O+========+1+@*&O1+1X++++1+1XXXXX1+1XXXX+1+1+X+$$1+1$#<<&O",
"X<&&&&O:1111111112+#*&O212X++$+212XXX+X212XXXXX212X+X$$;1;$@&&4O",
"$:::::$$$$$$+XXXX++>&&;++++++++XX++++++X++++++++++++++XX++++;;O+",
"$$$$$$$@##########@***@#@#####@#@@@@@@@#@#######@####@#@@>++XX++",
"o%o$$$$<<<<<<<<<<<<***<<<<<<<<<<&&&&&&&<<<<<<<<<<<<<<<<&&&;++oOo",
"%%%$$$$<<<<<<<<<<<<***<<<<<<<<<<<<&&&&&<<<<<<<<<<<<<<<<<<&;+XOOO",
"o%o$$$$&&&&&&&&&&&&&&&&&&&&&&&&&&&&&&&&&&&&&&&&&&&&&&&&&&4;+XoOo",
"XXXXXXXOOOOOOOOOOOOOOOOOOOOOOOOOOOOOOOOOOOOOOOOOOOOOOOOOOO.. .. "
};
