/* XPM */
static char *xpm_[] = {
/* columns rows colors chars-per-pixel */
"64 64 25 1 ",
"  c #733B1B",
". c #7F2F07",
"X c #771F00",
"o c #732700",
"O c #671F00",
"+ c #5B0B00",
"@ c #570000",
"# c #331707",
"$ c #57230F",
"% c #6F331B",
"& c #271700",
"* c #933F00",
"= c #430000",
"- c #390000",
"; c #632F13",
": c #87472B",
"> c #431F0B",
", c #8F3707",
"< c #874723",
"1 c #3B1B07",
"2 c #432B07",
"3 c #934F2B",
"4 c #572B0F",
"5 c #7F431F",
"6 c white",
/* pixels */
" .. XoooooOooO+@#o.oO+ooooooXXoooo$$$oooo+o .XoXXooX..%+&o*.oooo",
"Oo.XoooXXOO++++=-o.oOoo++++XXX;oo$$$o$oooo;ooo$o$ooXXXo=#o*.X..o",
";.ooooooo++o+++=&o.oO+++++$oooooOo$o$oooXo  Xooo$$$oooO=#o..oooo",
"..o++++oo+O++o+=&o..ooooooo$$ooo+oo;X;XXoX :.oooooooooO=#o..oooo",
"Xo++>+++o+++oo+=-o..ooooooo$o$oooooXXXXXX  :.o+oXXoo$ooO#o..XXoo",
"oo .o+++ooo++oO=-o.oO>OoooXXoo$OoooXXooXXX. .X+++o+>$ooO#o..Xooo",
"X.:,o+++Ooo>+>O=#o.oOOooooXXXooO..oXo+oo.;ooXXo++ooooXXO#o..Xo$o",
"X  ,oooooo$>>>+=-o.oooo+oXXXXXXoo.;X++oo;.ooooo+++XXXXoO#o..XXoo",
"ooX.o++ooO>O>OO=-o.ooOO+ooo...ooo. oo+oooooOo;oo+oXXXooO#o*...oO",
"oo..:oOooOOOOOO=#o.oO+O+$O+oooXoooXo+++oX..Xoo$++XoooooO#.*. .oo",
"oO+o<.oooO+$o+O=#o.X+>>OO$O++++oo>$$OooooX..XooOOoooXoOO#.*...oo",
"o++o.OO+++o+oo+=-o.Xo+>OO$$OO>>$$$oooooooooooooooooooooO#.*.o..o",
"ooo. oo$$o++O++=-o.Xoo+$>>++Oo$$;ooooX.oooooooo$ooXoXXXO1.*.o..o",
"+o;oXo$$$$>OOOO=&o.X++OO+Oo++$$;ooooXXXXooo+oooo$oooXXXO#...o..o",
">$$$$$O++O+OO+O>#o.XOOO+Oo$oo+$oooooXoXXoooo+o.XXooXXXoO#o.oooXX",
">ooOO$oo>>OO$o$O#o.X+>O>Oo$;;oooooo+ooooXoooooX$ooo$o$$>#o.oOo$o",
"O+++oooOO$>OO$$>#o.oOO>O22O$oooooooooooooooooo$ooo+$$o$>#o..oooX",
"+OOooOO>OOOOOOO1&o.oOO+++OO$$oooXooo+oo+ooXXXX+oooo$$o$O#o..ooo$",
">>>>OOOOO>>OOOO1&o.$O>++OO+$++oo+o$ooo+ooooXooOooooo$$oO#o..ooo$",
"oOo>OO>OOO$O+oO#&o.$>>OO$$>$$+OX$o++++o+oooo$+OoooooOooO#o..oooO",
"ooo$$OOOoOOOOOO-#o.$>OOO+$OOo+o$ooo+o+++oo++$o;ooXXoo;oO&o..ooo$",
"oo+O$O>++++OOOO=#o.oO>o$O$o++++$++ooo+++oo+O$oooo.ooooo>#o..oooX",
">+oo+o+$+++OOOO=-OoOOOO$$OOOOOOOOOO$O++++++OO$$$o..ooo$>#o..XXXX",
".X..oo+;+$oXo;o>&>O#-=OOO>=OO==OOOOOO======#1>>>O$$$>O>1&o..oXXo",
"..X.XooXooo...o>&#&&&###&&-#-#-###---------&&&##1######&&o..ooo$",
".XXoXXoooooX..oO#$oooo$>&;o.Xooooooooooooooooooo.....o$$#o..$$O+",
".oOo.oooXoXX.XoO#o*.**.#&o**....................******.>#o.o$>>+",
"o+OooooXXooo;XoO1.*.ooo>#o*.XXXXoooooooooooooooXX.....o>#o.$>>>>",
",oOOOOoooo+OOOOO#o.Xooo>#o.ooooO+OOO>++>OOOOOOoO+>oO>$o>-o.O++>>",
"ooO++ooO+oo$ooOO#o.X+$+-#o.o$$$$OO>>>+>OOOOOo$OOOOOOO$o-#o.X+$o$",
">>>O>+OOOo$OO$O>#$.oOOO#-o.o$oo$o$+++O>+++$OOooOOO@o+o+>#o.oooo$",
"####1-##--1###>##>$O==##&o.ooooX$$OOO+++O>$O$oo$$>>OOOO>#>$O>->>",
"&&&##-&&&-##&-&-&######&-o.oooOo$oOO+++++$O$$oo+o+O>OO>#&###-###",
"oooooo$1&Ooooooooooooo$O-o.oOOooo$o+oooOOOOooooo+O+OOo++oooooooo",
".......>#o*............O&o.o>$ooXoOo$oXoO+oo...XoooX.ooo........",
"....XXo$#o.Xooooooooooo>&o.oooooXooXooooO+. .X.; ;o....XXX......",
"o.oooOo$#o.X+oo>OOoo++$-#o...ooooooXXo++Oo  .ooo ;oX..XoOooooooo",
"o  ooO+$#o.XoO+O$O+++++--o..ooo..ooo..+Oo .< $oo;$OoXXXoooooXooo",
".3,oX+O>#o..oooo++>>+++--o..o+Oo;;o.ooOOo ;;;OOO;oOoooooooooXXoo",
".,,oooO##o*.X+ooo+>++++1#o..o++oooooooOOOo$$$OO>o$OOooooooo...oo",
"X,,;ooo1#o*.Xo$o.o+ooo$1#o..;Xo++ooooooOOO$$$ooo$oOooooooo....Oo",
"o. Xoo+>&o*.ooo$ .oooXo>#o..XXoO++oooOoOOoX..oooooOooooooooooooo",
"Oo.,,.o>#o*.XoXoX.o.o.XO#o.Xo.X++++oO+oooo..oOooooO+oooooooooooo",
"OOo ,Xo>#o*.o.....o  ..O#o.Xo.ooXXo+ooooo;;ooOooooo$o++ooo++oooo",
"OoooooO#&o..ooXXXoo;,..O#o.XooXoooooooXoo;o+>+ooooO$>+++oo+O+ooo",
"oooO;.X>#o.ooXXooo+X..XO#o.XoXXooooooooooooO++oo. oo>O+ooOO+++oo",
"Xooo$oo>#o.oooooo+OO+oo$1o..oXooooo>+oooooooooOoooo.OoO>ooOO+ooX",
"oXXoooo>#o.o+ooo++oooXo$#.*.XXoo+++>++o+oooooooo$o.XXOO+oo+++ooX",
"oo+O>Oo--o.$>OOO+>++>oXO#.*.XooO>++ooo$O>+oo. oo+oooo>>+++ooo++o",
"o+++ooO#&o.$+OOooo+O>+o>#.*.o++>>+oo$$$O>+ooooooo$+OO1O>+ooo++oo",
"oo+Ooo.>#o.o>OO+oooO>+o>&.*.o++$++oo$$oooooo.ooo$+oOOO$>+o++>+oo",
"XooXo..$#o.o>+oooooo++O>&.*.ooo.ooo$ooOoXo+oooo$$$o+4$o$o+$>O$oo",
"XooXXX.$#o.o$o+oooOoooO>#o..ooXooooooo+ooO+O++$oO$$o+oXoo+O+>$oo",
"oooXXX.$#o.Xo+$$oooooo+O#o.ooooXXX$o+o+O$o+>++oo$OOOOo+oO+o++ooo",
";$ooXoo>#o.oo+OOOO$O+OOO#$o$$$$ooOOOOOOOOOO++OOO$>OOOOOOOOOOOOoO",
"$OOOOO>#&O$OO+=>>OOO==>#&1>>>>>>>111##>>>OO==-=>>111###11#==#1O1",
"#######&&####-##&######&&##1#######&&&#####---&#-&&&#-&#&&&&&&&&",
"%oooooooooooooOO#oooooooooooooooooooooooooooooooooooooOO-Ooooooo",
"<..............O#*....................................oO&$......",
"5ooooooooooo..oO#,*+oooo...ooXX....oo$ooXXXXXXXXXXoooo$>&o.XXooo",
"$oo+>++ooooo$o$>&,.ooo+Ooo;o+++;5,oO>OO>ooXXXo$ooO+OO>>#-o.oXo$O",
">++++++oooooooO1&**ooo+OOO$ooO+o,<OOO++OO+++$o;oooo+OO>#&o.Oo$$O",
"+ooooo+oooooo$O1&,.oo+O+O++>$O>+ooo>>$+++++++ooooX>>O>>#&o.>+>OO",
"+.;.oooooXo+Oo$1&*.o+>>OO++>$OOOoO$O+;oo+++>>>OoooO>++>1&o.$O1O>"
};
