/* XPM */
static char *result[] = {
/* columns rows colors chars-per-pixel */
"64 64 17 1 ",
"  c #272B37",
". c #2F2F3B",
"X c #272727",
"o c #333343",
"O c #13131B",
"+ c #171B23",
"@ c #373B4B",
"# c #434757",
"$ c #3F3F4F",
"% c #3F3F3F",
"& c #4B4B5F",
"* c #2F2F2F",
"= c #1F1F27",
"- c #23232F",
"; c #070707",
": c gray9",
"> c white",
/* pixels */
" ........      XXXX...         .  ...  ........X    X.          ",
".  .........  . X X...    X X   .. .... ....  .  . X      X X.  ",
"ooO++++++++++++++++++++++++++++++++++++++++++++++++++++++++++Ooo",
"@@+#$$$$$$$@@$@@@%@@$$$@@@@ooo @o$@@$$@$@ooo @o$@@$$@$@@@@@@@o&@",
"o@+$.....   ..      ...  *         .   .   *==   .   .      .+#o",
"oo+$..o.. ...    X  . .       -  . ....   -=+ *. ....  XX   .+#o",
"oo+$.....   ..   X  .            . ....    -=--. ....  XX   .+#o",
"o@+@.....         ...  .X=       . ....  XXXX=-. ....  XX    +#@",
"ooO;+..             ...X --     ..   .. =     ..   ..  XX-. O;=o",
"oo;;;..    .... .. ...X  --     ... ... =     ... ...    =. ;;;o",
"oo;;;.. ...............  - -    ... ... =     ... ...    =. ;;;o",
"o@;;; .X ..     .  ...   ---=   .......-+     .......-   =. ;;;@",
"o@;;;..  ....   . X.  .   ---   .......=+-  . .......= X =. ;;;o",
"oo;;; .  .......X X  XX------  . ..... =+= * *...... =   =. ;;;o",
"ooO;+ .  .. ...*  XX.  =-----    .....* =- - =......* . --. O;=o",
"o@+$. .      .. XX..  X  - -   X .....* X -- =......* . --.* +#o",
"oo+$. .     .. X. .             *...... XXX= =....... . **.* +#o",
"o.+$...    X  X.                 ...... XX====.......  .- .- +#o",
"oo+$...   XX .X.    XX  X        ...... XXX==-.......  ... + +#o",
"o@+$. .  XXX .XX   X.X  -       ....... XX =-........  ... + +#o",
"@o+$ ..     . X .X X..  -     ...... .. XX - ..... .. ....-+ +#@",
"@@+$....   X XX .  =  ..=.  -  ........ XXX    ...... .... = +#@",
"@@+$....  . . X .      . *    .......o.    ..  ....o. ... .=-+#o",
"@@+$... ...     .. -   =      .  ....o...-     ....o..... .==+#o",
"@@+$  .. ... .  ..-=...  . X  . .....oo..==  ......oo....  ==+#@",
"@@+$  .  .   .    == ....    ......o.oo..--  ....o.oo...  .==+#o",
"o@+$. ...    ..  o...X ..    - ...oo.oo. ==.....oo.oo...   =-+#o",
"@o+$. .. X   . ......X=     .  ...oo.o. X==.....oo.o.  .     +#@",
"oo+$.... X   . ..o....X     ......@o.o. X-=.....@o.o.  .     +#o",
"oo+$....  .... ...-- . -- .......oo..o. =  ....oo..o. ..     +#o",
"oo+$=*..   . .....      - ..... .....o..=X    .....o....     +#o",
"o@+@-- . ... .... X  -       ...oooo.o..  .  .oooo.o.....    +#@",
"oo+@-= . ... . ..X=  --   = .....ooo.o..  .  ..ooo.o.....  * +#o",
"o@+$. ...    ..  ...  -  .     ...oo.oo. ==.....oo.oo...   =-+#o",
"@o+$. .. X   . ......      -  ....oo.o. X==.....oo.o.  .     +#@",
"oo+$.... X   . ......    .    ....@o.o. X-=.....@o.o.  .     +#o",
"oo+$....  .... ......   =     ...oo..o. =  ....oo..o. ..     +#o",
"oo+$=*..   . ............-.     .....o..=X    .....o....     +#o",
"o@+@-- . ... .....     ..*=  ...oooo.o..  .  .oooo.o.....    +#@",
"oo+@-= . ... . .       ...   ....ooo.o..  .  ..ooo.o.....  * +#o",
"oo+$-=     .....    .....o.  ....ooo.o..X .  ..ooo.o....   - +#o",
"oo+$-=-.  ....ooX    ...  . ...o...@.o....o..o...@.o....   - +#o",
"@@+$-==   ....XX-.   ....   ........ ............. .....     +#@",
"o@+$--==  ... XX X - .....  ........    . ........    .      +#o",
"oo+@--==  ... XXXXXX  ... . . .......   ...........   ..   . +#@",
"oo+@---   .... XXXXX X...  .........    ..........    ..     +#o",
"@@+@*-.   ...o  X-=XXX  X. . .......    X    .....     . X   +#o",
"o@+@ **==- ....  .---X X  .... ..... X       ..... X  ..     +#o",
"oo+$*=- +=. ...     -X..... .  .   .  X   X  .   .  X .. =   +#o",
"@@+$-=- +=. ...XX  XXXX    X   . X .  X XXX  . X .  X ..     +#o",
"o@+$*-- +=.*...XX  -XXXX   X     X..  X   X    X..  X ..     +#o",
"ooO;+ - ++ XX X  .  XXXXXX  XXX X  .  X   XXX X  .  X     = O;+o",
"o.;;; - =-* ...... -=.XXXX     .  ..XXX      .  ..XXX     - ;;;o",
"o.;;;     .*...  ..=  -X  XXX  .  ..XXXX     .  ..XXXX..    ;;;o",
"o.;;;      * ..  ..   -----XX  .  ..XXX      .  ..XXX  .    ;;;.",
"o.;;;    -.  ..  . . ------- XX.  . XXX -XXXX.  . XXX       ;;;o",
"o.;;; .-    -..  . . -=-----  ..  ..   *=XXXX.  ..   *   +X ;;;o",
"..O;+  =  -.-..   .   -==--   ..   .   -XXX  .   .   -*  += O;+o",
"..:%X-o  --.-o...  . X- -==   ..    . X-XXX  .    . X-* ==-  +#o",
"..:*X= =++*.-.... ... .  ==    .    . =-+=   .    . =- =X==- +#o",
"o.:%X  =++ .-.... ...    ==    .    *=+==    .    *=+=*  =+= +#o",
"@@Oo+++++++O:+::::+++::::+++++++++++++++++++++++++++++++::+++O#o",
"@@.#$$$$@*%%@@%%%%%@$@@$@@$$$$$$@@@%@@@@$$$$$$@@@%@@@@@%%%@@@@#o",
" ........      XXXX...         .  ...  ........X    X.          "
};
