/* XPM */
static char *result[] = {
/* columns rows colors chars-per-pixel */
"64 64 29 1 ",
"  c #423142",
". c #4A394A",
"X c #523952",
"o c #524252",
"O c #5A4A5A",
"+ c #23232F",
"@ c #2F232F",
"# c #1F1F27",
"$ c #392939",
"% c #393142",
"& c #271B27",
"* c #42314A",
"= c gray12",
"- c #13131B",
"; c gray6",
": c gray9",
"> c #171B23",
", c #0F0F13",
"< c #2F2F2F",
"1 c #635263",
"2 c #3F3F3F",
"3 c #6B5A6B",
"4 c #272727",
"5 c gray28",
"6 c #5A425A",
"7 c #2F2F3B",
"8 c #373737",
"9 c #736373",
"0 c white",
/* pixels */
"    .  X.. .oXX.  .o. XoX    ....X.  OOXX.   .XO.XX  .       .o.",
"+@#@@@$$@$@@  %$@+$%$$% %@@&&$$$$$$@$* %$%$+$@% @$ &$@$@@+@$@$ @",
"@$&&@$ $@$$@% $$$@$$@$%  $$+&@@$@$$@@$%$$$%@$$$$@%%&$$@+@@@@@@%@",
"@%@&@%$@@@$@%$#=--;:=>&  $=&#&@$$$$@&&&&&&>->;>=-::;>=&=@@@@@$$@",
"&@@@@@$@@@@$&;;;;->-,,= o$&>=& @$@+@@&->::=-====&>=>:,;>$$@+@$@:",
",>@@@@@@@@$&;;;>#&&=>-,@O@&:&=$$$@+&&&->>---==>>==--=,;,>$$@@@&-",
";;>@$@@+@@@;;-&&&&==&>->.@@,&=@$$@$@&&,:=&&==&&=&#=:&>->;$ +@@;&",
"-;,@@@#&@@,;,>=&&&=====>.@$-&&&@ @$@@&=##&&=&&&=&&&=&&>:;+ +@:;=",
"&;;-@&#&+-;-&=$OO$$&=&>< @@;&=&@.$$$%&=&&&&== 1o &=:==&--  @&;-=",
"&:;,@&&&>;,>&&Oo$@@@:=&2O@@;&&&@.$$$$&##=@&&@.O.o$&=&=&&@ @@-:-=",
"=&;-=&&&-;>=&@O @@$$==&O3@@:=&&@ $$%$&#<&=&@$O$@. @&&==&$ $&;:>=",
"==;,,@@+-:==>$.@@@@$=&o1O@$-=&&$ @@$$=#<<==&O @@$$$@&&&&$.$,:>==",
"==-;,@$@;;==-.$&+@&& Oo @@@;&=&.O@@@@&#&--:$. $@$@$$@&&@$ :;:===",
"==>,,$$@;-==; @@@+@$$ @+@@;;==&1O@@@@&#&--:$$$$$@$@$$&=$.@;>&===",
"$==>-$$$,,::>$$$$@@@$@+&#,;;== 3.+@@@&#&,-=@$$$$$@@@$&>$ -;&&@OO",
".@=>:@$ ,;>=>>@$$@@&&:>,;;;>=413$&$$&&#&,;>&$$$$$$$@$4% &;=&&$$.",
"$@@==@$$--:=>;$$@@&,;;;;:>:==$1O++$%=&##>;,&$$$@@$$@>$.&;-&&@.@$",
"@@@==@$.&-:->;>$@+@&====&==>$oO%@@$$=&&&>>,:@$$$@@@&+$@,;&&&.$$@",
"@@@&=@@O@-;>>,;@$&+@&=&&>@$ $ @@@$%&=&&#==-;=$$$@@@4&@&,>=&$ $$@",
"@@@@=@$. &;,->-,$&&+@@$$$$$$@@@@$$%$$@&&=&&,;@$$@$@#&>-&==@.$$@@",
"@@@@&@@@O@-;-:>;=&+@@@$@@@@@@@&@$$$$ Oo &=&&;;@@$$@@-;:::=.$$@@@",
"&@@@@@$$$ &;;,>>-=@@@@@@+@@@@@&@$$$$$ .O.@=&:;,@$$@%>:-:=+.$@==>",
":&%4@@@@@@$>;,>>::+@$@@@-=&@@+&@$@$$$%5oOO@==-;,@$$%&>,,>$@@$&-,",
";:$o@@@@$@$ >-,&>;=@$@$@@:>-$$@+$$#&$$** OO.4&,;-$$$@>:;:=@@$@&,",
",;>.@@@$@@$@.&:,:>;@$@$@@=&>:$$@@%%$@#@$% 6OO>=;;@$$$@=-,,:@@$$&",
":;;  @@@$@$$@. >-=-:@@@$@@=::>%@@% $$$=>@* o$.=:;-$@$%&&,;>@@$@$",
"=;;4%+@@@@@@@@.O7:>-&@@%$$@>>;&&@$    $=-@ $$ .>;-@$$%@&&;,&.$$$",
">,;-$&+@@@@@@@$oO2>>,&$%@$$=->;@@$%***%%::@$+$..>;@$%$@&&:;&  $$",
"=;-;#+@@$@+&&@+@ O@>:=@%$$$@>-->@@%@* $5$-,:@@$.$-=$$$@$&>,: O$$",
":---,:,-=->>&&+&+$O&>=$$@$@@&:,;@$$=-@%5%&>;->$$$4=$$@$$@&>,@O$@",
"=-;;;,,;-;;;:&&&&&$O@,@$$$@$$>,-&$&=;:@% 8&:;;& $@4@$@$$$#-;@.$&",
"=;;;,>&>>:;;;->#&+&o.,=$$@$%%&>,=$$#:;;@5%&-:;>&$@>$$$$$@&=;,  &",
";,;,&=&&&=>;;,=&#&&@.:=$$$$$ #&;,.%&&-;,$ @:>;,>@%@$@$$$$&=;;$ &",
"-,>==&====&>;;-@&@&&+==$$$$$%#&-;$* #>;;& @&:>;-&%@@$@$$$=&,;8.@",
"=>===@... $=:,-=@++&&&:@@@@$$##=;@  #>>;=.$@==,;&$@$$$$@$=&,;4o$",
"=::@$1Oo +$+&&-=@@+&&>@@$$@@@#&>;>.$%#=,, %@==>;>@@$$$$@@=&:;:.@",
"&@ .O $$@&@@@@>=@+@&+@&+@@$@@&&&;=o%%#=>,& %&::-;@@$$$@$@=&=;,O$",
"4...$$$$@#$@@$@&:&&@@$@&+@$$@=&#>&.%%$>--=O%@&=:;:@@$$$@@=&=;,O ",
"$. @$$$@->@@@@+@=#&@&$$#&@@@@-#&-@ $%$=:4-O$&>&>;;$@$@$$&==&;,O.",
". @$$@@>,>&@+&&@=@@@&@@&&@$@>=&&;@.$%$&=&,1$&=&=;;$@@$$@=,&&:,oo",
" @+@$@@;,->@+&+@=$@@@@&@@$%$,-=>- O$$%&=#@1%&&>>,; @$@$@=-&&:, O",
"$$@@@@,;;,-@@@@@&@@$$@+@$%5@;>&=:..%@$$&&@3%&&->,; $@$$$--&&=;+O",
"$$@@@:;>-;;>@@@@@@@$$@@$$$%@;#&= 6>&$$$## 3%&#-=,,  @$$@-==&=;&O",
"@@$@+;;>>,;;@@+@@&@$$@@$$$@,;#<&O$-&$$$&&oO$#===,;. $$$@,==&:;=O",
"+@@@@;:::-;;-@&@+&@$$$@@@$>;-&<@O:->$$$#7O @&=-=,;. @$@>;&==&;=O",
"@#@&=,:=&=>;;,-@@#@$$@+&&=;;>=$ 2;,:@$$*X..$=->=,;..@@@-;&==&;&O",
"@&&=-=>-@&#>,;;;:>=@&===,;;:=$  -,>;:$$ %$$$>,>=,;O.@$&,;===>;=.",
"$+@=-:=-@$&&==>:,,;:,;,,;-&=@ $>;==;:&$ % %@,:=&-+1.$@=;::==,;=O",
"@&@=-:=;@@$&=&=:>---,->>&&> O @;,&=;;=@%% .>,,=&-$1 $&-;>===,,-.",
"&+@=:>&-+@$%$=&=====&=&&8.6@$@>;:&>-;;-@%$&--;=&>.O$@==;&.==,;>O",
"+@@=,==;&@@%$@@$@$  o.O.o$@@@@;->&&&>;;>&&:&-;=&>O.@@>;:@O&=;;:%",
"@@&:;&=;>>@$@@@@+@&@$$%$@$@$$-;>@$&#&:;;,=&-;:=&$O$$&>:> O=-,;-@",
">>;,;==;;:&$@@@+@@@@$&#@$@@$=;>@. @=&&:;;;;;:#&& O$$=&>>1.=-,;;-",
";;;>-::-,;;:&@@@@$&>;;;>&@$@;,@O @@&=&&=-,;:#&#@3.$@-=> 3%==:,,;",
"=>:&4,>=>;;;;;->>:,;,->#&$@=-@..$@@@&&&&:=>&&<#O9%$=>&811@==-;:-",
"--,=:;,=:-=:;;;;;;,:&#%$&@=-+.o$@@$$&#&##=#&&<+91@@=-411@@=-=;--",
",::::4.===&=---->&==&%2o$&:& o%@$$@@@&&&&=&&#$19 @=>&.1@@@@==:,,",
":::>$OO&=&#======&&=$7  &=& .@@@@$@$@&&&&==&7O3O@=@& O@$$$$=->:=",
"$ o.OO$@&&&=::===>@$.o @&@ $@@@@@@@$$$#=&&>+.O  &-&  @@$@$$@  %$",
"1O$ $@$@#@$&<  oOo.O$ $$&$@$@@@$$@@$$$$. .O1O $@=@@@@$$$@$@$ OOO",
"@$$&+&@+&@$@@@@@@$$+@$$$@$@$@@@$$@@$@$$$oo.$@$$$+$%@@%$@$@@@$@$$",
"+$$+@+@&&$@$@@$@&@@&@$$@$@$@$$@@$$$@$$$$$$$$@@@$@@$@@$@$$@@$@@$$",
"&@$&&+@&+@@@@&&@+@$@$$$@@$@$@$@$$$@$@@@@@$$@$$$$%@$$@$$@$$@@$@$$",
"==&=:=:=:=====:=:=#==#&&====&=&=&&&&=&&&&&&&#&=&#==#&=&&&&====&&"
};
