/* XPM */
static char *tile0741740674605[] = {
/* columns rows colors chars-per-pixel */
"64 64 33 1 ",
"  c #0F0F13",
". c #1B131B",
"X c #0B0B0F",
"o c gray6",
"O c #13131B",
"+ c #272B37",
"@ c #271B27",
"# c #171B23",
"$ c gray12",
"% c #1F1F27",
"& c #23232F",
"* c #2F232F",
"= c #2F2F2F",
"- c #392939",
"; c #393142",
": c #423142",
"> c #4A394A",
", c #523952",
"< c #42314A",
"1 c #524252",
"2 c #5A4A5A",
"3 c #5A425A",
"4 c gray28",
"5 c #3F2B2F",
"6 c #432F33",
"7 c #573F47",
"8 c #4B333B",
"9 c #4F3B3F",
"0 c #5B434F",
"q c #4A3952",
"w c gray31",
"e c #635263",
"r c white",
/* pixels */
" ..Xoo.ooooO.oXoo.O..O.oooooo..ooO..OO......O.o..oo...oo..oooo..",
"+@@.#@@@..$@@....@%%%%@@@...@@@@#@%&***&*%@%%@@@@@@@@@@.@@@...@.",
"+*&%*===*%****%%&*****************--;-----*****************&%***",
"*&@&-:-:-@*&*-*%*---*--**-****---:>,,<;-;:;**-&*-****;*****@@*-*",
":::*-;-;-%@@=:*@-12:::-*>::-**--,,>:>,:--;:--;***&-**-*-***@**-*",
">-&::---=:>>11:>>11>::--:>*->-->12>>:1:>:->-=1>*%@@+::--**=-*>:-",
"::>11>>>::>:::>::11>::>>::>:>>1222231,>11111>11:::::111>:::::>:-",
"***-*--;**&@@*-*@@*-&-;-****---44>:;:;;<::-*:>1*-;-*@&*-*@@*--**",
"***----;*-*@@&**@@--*---***-;;;:4-*;<<;:<<-*;;4-;<:-&@--*@**--**",
"--**---*@#**55556***@55*55**@@*;<**-:;-;:;-*---*@*5*655@&&***-**",
"---*--*@$%55**-5*@&**5*55**5@@**;&*;;;-;<--*-@@$%**@*65*5@******",
"--**-**#@565*55*&@&*@65*5****@@#&**;:;;;;----&.*@****@76**&**--*",
"--*-*&..**5*6-&&@@&**555*5*5***$@&*;<;:;;--;- .*****@@*766*&&***",
"*-*-@OX*55*--#@@@@*@5**5*55*5@-&.$@-;-;-;-;-.@.***:*@@&;>865@@*-",
"-***.X@55*:9@&@@&&.5***5555*5.*;@.%-;--;:-* @.***67&#@&@-7:**@**",
"*-**X$556>7*@@@#&#@5********5.@;-$ #;-*-:-@ .****9@@.&@@$:7**@@@",
"*-@.X5567>**@@&@@ 55**5*****5 @*-&$ O&****O.$***-@&@-@&*@*-7**@@",
"**#X@5580***@&&# @55*7*=***5*#O#-&@   #&*$O@@**--&&*<*@*@&;>5**@",
"*@..*5679&&#&*% $556:9*=***5*@.@&-*@@X$@* .****:&&*-:&***@*;5**@",
"@..@5599*&.$&&. *558:-**55**@&.&@--@@ X@#.*5*-:***@*;-&****--*5*",
"@..6560*@@..#  @55597&&@65***&.*@#::**X@$@*5*-:&&@*---**-&*@:-*5",
"@.*5508-*55*.  5*55--@@@555**&$*@#$>-5.#.**66*@&***---**-**#$-*5",
". 6660*-6665 .@55580&%%$55**5*#&@@#-:65#**586*5&---**-****&%O-*5",
".@6687**7886.&55567-&&#@**6**5@.$&@#-8*@**68*5**--**-*&*-*@@O-*5",
" 68608@.7965**55607@@@.#****5*** #&#@8@@*68*.**-*-***-&***@@.=*5",
"@56836@@-755555*80>@@@ *****65**$ &#@*@@*86.#@@@*-*&=****-@@O$56",
"*6591*@@@065555*98@@&OX555-*676*@XO.@*@@*:@@@@&*-**@*@****@@$O66",
"55590@..@06*555*9:@&$ #555-5&976*@ @*@@*-*#@@@@*-@*&*@@*-**@ #66",
"66579.#@.,85655*8.@@ X*658:*@@>9**@@*@@*-*@@O@**-@*55O @@@@@ *66",
"56576.@*#*9656**- @# .5557:$..*765***@@>&:@*..@@;**65@  @@&$ @55",
"*567..@*.@9655**6.$..5556>-.. @975****-*&:-*@ @#@**00-*.X#@.&*55",
"5668.#@&#@8656**5*#.5*5*77655*5*1***5*-&&&,**  &@**@-,:-. $O@***",
"6666@$#@@@855655**@**55-7@555*5*:8*55*&@#.,-*$X @&*@ @,,:$.#*556",
"8656@ #%..-5565@*@%@@@*>*.*556*@@0**55@O@@-:**$ @*@* $@:>-@*5*9*",
"8566@.@&.@*655*@#@@*-;>@..55565..:*555*  @*-*5@ .#@*. @@-:55-0-@",
"6566665555565*@@.@..@&...#55555.@*-*555# @&-***@.#&@* .@@-5**5@&",
"6666*-:>>96**@@**@. .##..@5*555##$:*555@ &&*@5*@@#&@@ .@@5**56$&",
"6666@#@@@@**@@**55*@ ..@@@5*555@..>**55@ *@&@5***.&@@$.@**-866.&",
"6686@@@@&.@*@***56**5.X.@@5*555..#:**5*@ -&@@***-#&@*@@569:-76@@",
"5666@@#@*#**@****6*5**.O&@5*555# #-*5*55 =&.@**@-#&@***->,*@765*",
"5556@%@@&.*****:@@*555*.O&55*55@ #****5*$*@.@***:#&&5**>-@@@:555",
"5558@@*&@.5**@5:@.&*5*6@O&6*5*5#  ******#*& @@@--.@@5*5@@&&@*555",
"5556@***$@5****;@ #55*86.&55555. X**@***@&@ @@*:*#..*55@@&;@@55*",
"-:96@*-*$*5***5;@ .*55-7@&55555.X @*****&& .@**,*@# 5**#@*;*@55*",
"-707@-&&.*65*55>#X#565,>@&*5555XX@**@@-*&$X***-3@&@@5*8@@;--@5**",
"#@@@*-&# 665@*-:.X#55617@***555  @@*@-**& X***:-*&.@**>.*-;*@55@",
"@@&*--& $866**>*  5*57>6*****5@*@**---&*$ *5*50**& **-:#@*;&@66*",
"*&**--O 5666*,*@ *5561:******555-:>::*&# .5**60*&$$*5:*.$;&@*55*",
";*@**%O@655*7;& @65*---&-***55@@@$##&*#  @*@*>>&&O#5-9=@@$ @555-",
"-&%@#. *6557>*.$@**-,;&;-****5@##@..&@  @@@*-,*@ @**--#*...@556@",
"#&&$  @5567:*@5*@@*:@@@>-&-**5@##&.@@  5*@*->;@@.*5->-*@..@*57*@",
"#&# .*55807-*6***:-#@.*<-*-;***@@&#@*-565*-:;&& @**:>#.@@@*6>*&&",
"@@@*56687-6**5*-:@.@&*-;****@*5$@*#@56566-,;@**@*68>%@.@*5-1-@@@",
"**56668>&55*55@&#..@***-*&-***5.@**@5656-q:&5***---*&#.*5*>*@@&@",
"*&*----;;;-;*;4;---&*****@****-----;***--@@*-*****&*****-;-***-*",
"&@@@***=@@&*@**&@*&*&*#@*&*@@@@&&@@*&@@&@@.@@&@##@@@@@@@&*@@@&@@",
".O..%%#%.O........#................@.O.....O........OO...#......",
"@#@&=**-&.&*@*&@&***@@&#@#&**&@*****&@#**@#.&&&&@@@&@.&**-&@@@@#",
"@**;;;;1-&--*:;**,;<;;;**&*:w:*;;->1:-=,<-*&*=>:*******->,:**-*@",
"&&-:--;1-@--*;:*->;>;<-*****>q----131;->1-*@*>,>:*@*-*&:,,-&&*--",
":-*;-*:;-**----*--;<;;&*****11-*;,-11:*11:*@*:11>*@&**=-,,*@*>>:",
">::>-&-**--;;---:-:w>-****&*1q;&*:;-,:=>,>-**->11:-@->::::-:-:>:",
"11:>::--=>1113>::111>-*--*@-:>:-::<-:>:<,>:*;-:3>>>:=>::::::*111",
"ee1122>::1222e211>131:>3311221,1221111121>::>3311211:113>1113211"
};
