/* XPM */
static char *tile0791740674605[] = {
/* columns rows colors chars-per-pixel */
"64 64 26 1 ",
"  c #333343",
". c #3F3F3F",
"X c #3F3F4F",
"o c #2F2F2F",
"O c #272727",
"+ c #272B37",
"@ c #13131B",
"# c gray9",
"$ c #0F0F13",
"% c #4B4B5F",
"& c #373737",
"* c #1F1F27",
"= c #171B23",
"- c #2F2F3B",
"; c gray34",
": c gray31",
"> c gray28",
", c #434757",
"< c gray6",
"1 c #23232F",
"2 c gray12",
"3 c black",
"4 c #57230F",
"5 c #632F13",
"6 c red",
"7 c white",
/* pixels */
"                      .  .         . . ............. .  .......X",
".......          . ........ ...   .......XXXXXXXXXXXXXXXXXXXXXX.",
"ooooooOOOOOOoooOOoOoooooooooooo.   oooooo+++++++++++++++++++++oo",
"@####@@@@@@@##@@@#@###########$oX%&$#####*******************#*#@",
"*OOOO***********=O*******OO*OO#OX%-#O***O+++++++++++++++++++OOO*",
"*OOO************=O*******O****@OX%-#O***O+++++++++++++++++++OOOO",
"*O*O************=O*******O****@OX%-#O***OO++++++++++++++++++OOOO",
"=***************=O==*****O****@OX%-#O***OO++++++++++++++++++OOOO",
"***OO***********=O******OOOOOO#o;:&#OOOOOO++++++++++++++++++OOOO",
"OOOOO***********=O******OOOOOO#o>:-#****OO++++++++++++++++++OOOO",
"OOOOO***********=O******OOOOOO#o>:-@****OO+++++++++++++O*O++OOOO",
"*OOOO***********=O******OOOOOO#o>:-@****OOOOO***OOOOOO+O*O++OOO*",
"OOOOOO*OOOOOO***=O*OOOO*OOOOOO#o>:-@****O***=====*****OOO++OOOO*",
"OOO++O*OOOOO***O*O*OOOOOO=====@OX,-@=====**=#########*O******OO*",
"OOO++OOOOOO**OO*=O**OOOOOOOOOO@o>:-#OOOOOO*=#@@@@###=*O+++++OOO*",
"*OO++OOOOOOO*****O**OOOOO*****@o>:-@*****O*=#@@<<@@#=*OOOOOOOOO*",
"OOO+OOOOOOOO*O***O***OOOO*****@o>X-@********#@<<<<@#=OOOOOOO**O*",
"*OO+OOOO***O****=O**OOOOOO*OO*@o Xo@******O*=#@<<<@#=**OOOOO*OO*",
"*OO+OOOO*******O*O*OO++OOOOOOO@O.Xo@*****OO**=#@@@##=*****OO*OOO",
"OOO+OOOOOO****OO*O*O++++OOOOOO@o.Xo@*****OOO*==#####=****==*OOOO",
"OOO+OOOOOO****O*=O*O++++OOOOOO@O Xo@*****OOO*========***O****OOO",
"*OOOOOOOOOO*****=O*OOOOOOOOOO*@o Xo@**==*OOO*=====*=****O****OOO",
"*OOOOOOOOOOOOOO*=O**O*OOO*****@o  o@**==*OOO*=====******OOOOOOOO",
"*OOOO***********=O**O********=@O  o@===***OO*****=******OOOOOOOO",
"*OO*************=O***********=@O  o@@=*****O********O***OOOOOOOO",
"OO*****=***==***=*=********==@@O  O@===OOOOO********O****OOOO***",
"*OO****=*==****=*=*********===@O  O@*****OOOOO***********OOOO*OO",
"OOOOOO*===#=**=****=****O***==@O  O@*****O+OOO**O**OOO*OOOOOOOOO",
"OOO****===#=*******==*OOO****=@O  O@**OOOOOOO**OOOOOOOOOOOOOOOOO",
"OOO****=**=************O*****=@O&&+#OOOOOOOOO***OO*OOOOOOOOOOO+O",
"*OO****=****==***==****O******@O&-+#OOOOOOO*********OOOOO*OO*O++",
"OOO****=***=#=**=#=****OO*****#o&-+#O++OOOO********OOOOOOOOO*O+O",
"OOO****=***=#=**===****OOOOO**#o& +#O+OOOOO*********OOOOOO*OOO+O",
"***=====**==##==******OOO*OO**@O -O@*****===========**=====**OO=",
"O+OOOO*=*#######******OOOOOOOO#o&-o*O+OOOOOOOOOOOOOO++OOOOO++++O",
"OOO****=*######=******OOOOOO**@O--o#OOO*O***********OOO***OOOOOO",
"OOO****==##===#=******OOO+OO**@O-+o#***=**=##=*********OOOOOOOOO",
"OOO****==##=====*****OOOOOOO**@O-+O#******=###=******OOOOOOOOOOO",
"*OO****@=##=*===*****OOOOOOO**@O-1O@*****======*****OOOOOOOOOOOO",
"*OO****@===***==*****OOOOO****@O-1O@***=O***==******OOOOOOOOOOOO",
"*OO=====================OO===2#o-1O@====2OO======2=======OOOOOOO",
"@###@@@@@@@@##@@@@@@@@@##@@@##$O+OO$@@@@###########@@@@@@#######",
"@###@@@$@@@###@@#@@@@@@##@$$##$O+OO$@@@$#@##=#####@@@@@@@@######",
"X:::::::::::::::::::::::::::::-->-+-::::::::::::::::::::::::::::",
"-&&&&&...&&&&&&&&&&&&&&&&&&&.............&&&&&&&&&&&......&&&&&X",
"=OOOO===OOOOOOOOOO=O==O=OOO=====O===========OOOOOOO=======OOOOOO",
"3#3#3$3$3#3#3#3#3#3#3#3#3$3$3$3$3#3#3#3$3$3$3$3$3$3$3$3$3$3$3$3$",
"3O3O3=3O3O3O3=3O3O3O3O3O3=3O3=3=3=3=3=3O3O3O3O3O3O3O3O3O3O3O3O3O",
"o&o&o&o&o&o&o&o&o&o&o&o&o-o&o-o-o-o-o-o&o&o&o&o&o&o-o&o&o&o&o&o&",
":&:&:-:-:&:&:&:-:&:&:&:&:&:&:-:-:-:-:-:&:&:&:&:&:-:-:&:-:&:&:-:&",
"&&&&----&&&&&&&--&---&&-&&&----------&&&&-&&&&&&&&&&...&.&&&&&&&",
",%%%%%%%%%%%%%%%%%%%%,-,%%%%%%%%%,-,%%%%%%%%%%%%%%%%%%,-,%%%%%%,",
"XXXXXXXXXXXXXXXXXXXXXX-XXXXXXXXXXX-XXXXXXXXXXXXXXXXXXXX-XXXXXXXX",
"XXXXXXXXXXXXXXXXXXXXXX-XXXXXXXXXXX-XXXXXXXXXXXXXXXXXXXX-XXXXXXXX",
"XXXXXXXXXXXXXXXXXXXXXX-XXXXXXXXXXX-XXXXXXXXXXXXXXXXXXXX-XXXXXXXX",
"XXXXXXXXXXXXXXXXXXXXXX-XXXXXXXXXXX-XXXXXXXXXXXXXXXXXXXX-XXXXXXXX",
"XXXXXXXXXXXXXXXXXXXXXX-XXXXXXXXXXX-XXXXXXXXXXXXXXXXXXXX-XXXXXXXX",
"XXXXXXXXXXXXXXXXXXXXXX-XXXXXXXXXXX&XXX::XX:::XXXXX::::X&::::XXXX",
"&&-----------------------&----------&&&&&&&&&&&&&&&&.&--&&&&&&&&",
"OOOOOOOOOOOOOOOOOOOOOOOOOOOOOOOOOOOOOOOOOOOOOOOOOOOOOOOOOOOOOOOO",
"4444444444444444444444444444444444444455544444444444444444444444",
"6666666666666666666666666666666666666666666666666666666666666666",
"4444444444444444444444444444444444444444444444444444444444444444",
"<<<<<<<<<<<<<<<<<$<<<<<<<<<<<<<<<<<<<$<<$$<<<<<<<<<<<<<<<<<<<<<<"
};
