/* XPM */
static char *tile0911740675773[] = {
/* columns rows colors chars-per-pixel */
"64 64 19 1 ",
"  c #3F3F3F",
". c gray28",
"X c #2F2F2F",
"o c gray31",
"O c #373737",
"+ c #272727",
"@ c gray12",
"# c gray6",
"$ c #070707",
"% c black",
"& c gray9",
"* c gray39",
"= c gray34",
"- c #E30000",
"; c green",
": c gray42",
"> c #7B7B7B",
", c gray45",
"< c white",
/* pixels */
" .....   .XX X.    ..o .  O  OXOOXX+XXOOXXXOO+@@@@@#$$%%%&+@X@@@",
"X ... .   OX O      .o . .O   OOOXOXX++X+XXXX+@@&&&$#%%%%@XXOOOO",
"   o...   +XOXOO OO .oO O OXOXXXXXX+X@+@@++OOX@@@@#&#%%%%&XXXO O",
"X O.... ..XXOOOOXXO  ooo.. ... .oOOXXXO+XX   @&+&+#$#%%%%@OXOXO ",
"+OO  OOXXO@@+OOXXXXO o.. . .OOO o OOOX X+@@+X+&@&+@##$$%$&X+OOXX",
"OOOooo.XX @+@@X++++XX   . +++++X OOXX+X+@$&&@&#&@@+&+##&&+ X O O",
"+OO  .O@@@@++++X+@+++OO  X+X+++X +X+X++@+$&@+@&&&&@&@&&@&XOO    ",
"+XX... @&######&@&&&&&@++@@+@@+@+@@@&#&##$###&##&##$$$$##+O++XX+",
"+OO OO ++@###&&&@@&@@@@@@@@+@@++O++X+++&&$@&&&$$###$$##$#@++@@@@",
"@@+.OOO@@O&&@X+XOXXOOOXOOX+OO+O.*..oo..XO&XXX@##&+#$%$%$$+X&@@&#",
"XO+OOOO@&X@#&@++XX+XXOO  X@+X+O.=..=o. +X@+XX+@@&XX@####$&@@@X+#",
"@X+O. X@@ X-+XOO OXOOXX O+++X+X = .....OX&X+X&&#&&O+-&#$$++X+XXX",
"XXX .. ++ OXXOOO OOO OO. OX+XX  =. .O O+@#X@@#$#@&+++&@#$XXXXX++",
"XX@X  X@+ OOXOOOO OX++O O+X+O@O .  .OOX+&#+@+&@&++@&X$$$$XOOXX+@",
"@+X OOX@+OOOX. OOOOO+++OX@@@XXX@ XXOOX+@&#@@+#@&&+O#@$$$$@++++&#",
"O@@X OX@@OOOX   XOX OXXOOX&+++OO.O    OX+#X+X&&&##X@#$$%%XOXXX@&",
"@+@+XOX++OOOO OO@+@+@++@+O+XOXOX.O  OOX&&&OXX&@@#&@&@##$$OOXXX+@",
"@X+XX O++ O    O&+@@@@+++O++  ++OXXX+++$$#++@&&@&&&@#%%%%O XOO+X",
"@&XOX.O@+o O  OO&@+@+@++XX++O X+OXXO+@@$$#+++@&@&#@+&%%%%X XO +O",
"@@XO+.O+@ .  OOO@@@@++++O++X OX+OX+X+@+##&X+@&&@@+&&@%$$%+XOX ++",
"@+XO+ O+@ .   OO@+++XX++XX@+XX++ +XX+@@###@&&#&&&+&@&%%$%#%%%&#&",
"@@+XXXO++     .O++@&&&&#@&##&&##+@###$####&&#$%%%&$%%%%%%$%%%&&$",
"++X++XX@@  OOX O++&&####&###&#%$@##$$$#@@@@@@&@@&@$%%%###&#$$&&#",
"#&++@O+&&XOOOO O@+&####$#+@#&&%$@##$$$%###$##$$$$$%%%%$%%$#%%$#+",
"&@+&&+@&&+XO    &+&&###&+&&@@@#$@##&@&#&&&##%$$$%%%%$$#%%$$%%$#@",
"@@X&&++&&+   .  @@#&&$$$+@#@&&##@&&@&@&@@@&@&&@&&&&&@&%%%#&###&+",
"++XXXOX&@Ooo..ooOXX+XXX+XX@X++&@+@@@&@&&++@+@@$$$%%$$####@+@&##&",
"+XXOXXO@&O . ooo. o. oo.XOX XXXOXXX++X++O. .. &+++++++#$$#&&&&&+",
"  OXOO+&&OO O  o.Oo  .  XO  OOX+XOOOXXX+X   .O#@@@@@@@##$#&&&@&#",
"OOO  X+&&XOO.=oo*oo=o.  XXO OOXX++XOXXX++OO.O+#@@#@@@@#$$#@&&@&@",
"  O; OO@@OO O.o.oo .o:oXX+XOXOXXXXXOXOX      X#&O++&&@@$$#&&;@&&",
" . ....&@OO  ooooo  Ooo +OOO +O    X+++O o==oO$#@&@&@&@$$#&@&+&#",
"...o=..@&OO  ooo.o..Oo..+OOOO X OOX OOO.Oooo.X$#&#@@+@&#$&#&#&@&",
"  O;.. @@OOO ===oo.oOo. XOXOO.    XOXXX  oo. +$#@#&++@@##&@#;@#$",
".o.  OO&+O.. oooo.o..oo.O OO  ... X+XX+XXXX+&&%%@@@&@@+###&##++&",
".o . OO@+O  ooo=*=oooo=o   O  OXXO+XX OOO  O@&%%&#@&@&@##&&&&&@$",
"oo.  O @@OO Ooooooooooo OOXXOXXX+X@++...o.oo.X#&&&@&&&@##&&#&#&$",
".. o.OX@+OOOOoooo=ooo..O+XXXX+++@+@X+    ...OX##@&&&&#&$#&&&@&&#",
"O O .OX@&+   . oooo.. . OO+++X++@@@@X. o ...OX@&@@O+X@@##&&&&#&%",
"O .   X@&X O .OOO OO++++X+@+@@@+&&@&@OO OOO XO XXXOXOOX#&@@&&#&$",
"XX OOO@&&XOOO.XXOOX+++@+XX+X++++@+@&X.. O O   XXOO   OO&&&@&@&+#",
" OO O O@@XX O=+XOXOO++X+XOXXXXXX+X+&X  O . o.o..  ....oXXXX@+@O ",
".  .=.oXX.. O=OOXX O+XXXO O  OOX+XX&X OOXOO.O..  oo.o.oXOXX++@++",
"O XOo.oXX   O. .  .  XOXXXX+X+XOXXX&X. O OX Oo.OO . ...+XO+XX@@+",
"O X =.oXX.  . @@@+@+++XOOOOOOO+O++O&+O  ...  .  O     O@@+@+X++@",
"+XX o..+X  ..oXXXXX+XX+++XXX++XOX+X+Xo=oo.Xo.o.  O ....++X@O++X+",
".OO =.oX+.  o.XOOXOOOXOOX XXOXXOX+X+XO OOX+.O +@@+@@@@+@&@@XX+XX",
"X O =ooOX.. .oOOOO+XOOXOXX+XXXXX++X+XO  OX@. O@@@+&@@@@#&+XXX+XX",
"OOO o..++.. .oXX+ OOO  O  OXXX O+@@&@OOXX++@+@&@@@&@@@+#&+X  +OO",
"XOO oo=++ OOO  XXXXXOOOOXOOO +OXO@+@&X OOXX&&&+++@&@&&@&&XO+OO+$",
"@X++ OO@@ XX +O  OX  O OOO OX@OXX++@&O.  O@#&#&##@&@++&#&@OXO X#",
"+++XOXO&@ OO O....O .O. O    ++X+@@@#X OOOX&&&#$#@@+X++&#@OXOOX#",
"+++X XX@&X+-OX .    . . XO OOO++X&&@#@O+@++@+&&@&##&-@@#&@+++@&#",
"++XO.  ++OOXOOOXOOOXOO  X .    O X+X@X X++X@+@@+@&##@@&&&+X@@@@&",
"O+XO++X&&+XO.OXXXOOO.   O .o.  O XX+@XX+X+X+XXXXX+@&@@&&@+XX+@&#",
"XXOOOXO@@@+@@@@@@@@@X+++@@++++@@+@@@&@@&@&@&&##&&&&#@&&&@+O+@@@#",
"@+XX++X&&&&@@+@@@&@@X+@+@@@XXX+&+@++&@@&@@@&&#&&&&&#&##&&+OOO++#",
"X+@+@@@OOXXO OOOXXOO  O  XO   OO O  OO.XO  XOX@OXX+@XX@&@#&&@@@$",
"XX+X+++XOX+@XXX++X+XOOOXOOOOOOOO    OO.O   XX++OOXO@++X@+@@@+&&$",
"XOXXXXXOX+@@++++@+X+XXO+XOOO OXO .  XOo . .OOO&@++X@+++@XXX++#&#",
"O O  OOO XX@OXOXX+XO O.  OXOO OO   OXO.  O O  +&@@+@+XO+XXXOX@&&",
"XXX+X+X..  ++@@&+++@OX OX ooo===::*  . ..  O.OO XX+@+@OOOOX OX+&",
"OOOOOO+ OO OX++++XXX.  OX.**:*==*:*+X oO. O XX@X++++O+@X+X+XXX@#",
"+XXX++X..o+++@#@@@+O..o.X+OO:>,,:,*++X+@OXX X++X+X@&+@&@+X++@++&"
};
