/* XPM */
static char *tile0731740674605[] = {
/* columns rows colors chars-per-pixel */
"64 64 42 1 ",
"  c #392939",
". c #524252",
"X c gray28",
"o c #4A394A",
"O c #5A4A5A",
"+ c #5A4A63",
"@ c gray12",
"# c #2F232F",
"$ c #423142",
"% c #23232F",
"& c #6B5A6B",
"* c #393142",
"= c #271B27",
"- c #13131B",
"; c #1B131B",
": c #42314A",
"> c gray9",
", c #0F0F13",
"< c #635263",
"1 c gray6",
"2 c #736373",
"3 c #1F1F27",
"4 c #7B6B7B",
"5 c #4A3952",
"6 c gray34",
"7 c #5A425A",
"8 c #272B37",
"9 c #523952",
"0 c #171B23",
"q c #130B13",
"w c #735A73",
"e c #6B5A73",
"r c #63526B",
"t c #3F3F3F",
"y c #6B526B",
"u c #7B6373",
"i c #52425A",
"p c #0B0B0F",
"a c #2F2F3B",
"s c #333343",
"d c #272727",
"f c white",
/* pixels */
" ...............XXo..............OO..O+.O+OOX............XX.... ",
"@#                        $$$$%&o*$$$o$$$oo$        $$         @",
"@%=#=%#########%##=##@@=   #  =&.-$$$$*  *$ =# ## #  *#  #%#   @",
"@=#%==%########=# ## ;---@ ## -&O@ :$--;@;$ %  #### * ##  #    @",
"@%#%#%## #%==#%=#* #@>,;-@ #   &<@ * -1@@= ###  %=#   #  #     @",
"-###=### #=%==%=% * $=--@@## @ 2<@@ =-@@@= ##%# #%#  #         @",
"@####### #=3======## $$-;@#  @$4& @ #-@= Oo##=   ### #   **# # @",
"@ #### ###===#%3.$##% 56$$ *#@.4& -**@@oO5 %## < ##     #   #  @",
"@ #% #   ##%=##= 7. 8 $***    &4&O@$ *.o$$ 8 9$  *# #      #   @",
"@#### #### #=####$&&&o$ *$  0$&2<+o$**$* $9.<<q# *## #   # #   @",
"@==##    =;;= ##=3$&&&<.o$# @@;qq1#$**$o.<<&O=;#  # ;; #   #   @",
"@%%#     ->1@ ##=;=.4<&<&<=#@8=;;;0#**<<<<&<$1;# #@--,##   #   @",
"@#%#    @@>,,>##=;@ <4&&&@=#88==8###**$.<&<9;13##=;,,,- #      @",
"@#%    @@->,,,@#==;;9&2<=q#  ** $$*$**;=<<. q;###-,1,--@     * @",
"@ ##   @@@,,,,,##=%q=7<oq=## $$+<$* * #3 <5;;  #=11,---;# #  *#@",
"@ #  #@--@@,1,-@ #8;q$<;;  # +4442w$** ==# ;=* ;,1------     # @",
"@#%# #@-@@@@-@-@# ==q;;;=# ow2wwe+ewo*# 8#;;=*=>;@@@@@@@@    # =",
"@ #####$X.....o####==;-==# w22ww<r<+< #*#8%3# #@tooooo.  #   ##@",
"@ ###==##%=%########===;=#owe$o<y<.<<o  $ %8#*## * ##     # *  @",
"@# #%3=####3##%##=##====# 7e$#$<<.o+++  * * * ##  ##   *  # * #@",
"-#### #=%##==#=#%=# #=3= *e.  o<+<++<+*    #  ##$$           * @",
"@3## r2222222222222u<##   <o$$ooo<ii++ ** $44422224222222we# * @",
"@==#%.+i+++++++++++e.## ##oo++5oo+5o.o $$ $44e<+<<e+<<<<<<o#  #@",
"@%###.+i5++++++++++w+$##== o..o$o++.o =** $4w<<i<<e++<+<<<.# ##@",
"@=## .+++o.5+i+++++2ro%#==q$ooooi.oo#q=:* .4r+<5<+<+++.o++.## %@",
"@%## i+++oio+555+++r4o# ==pp $$$oo. >q#$* w45++i++++++5o5+.# ##@",
"-### i7i7+++7oo$777+4+$ #=1pq $#  #qq; $*.4w7iio++7++5i$$7.####@",
"@##%#iiii -3;$o$iiiie2.$ ==;ppp=;;qq;= *o2wioioo++$$$ ii5ii### @",
"@##=#i+o;q;=; +...i.r42+ ===;q11q;;3%##$+2+oo$oo+o@=@@  $+5#=##@",
"@#==#io;q;=8;;o+.$o.+<42+a==========# $.4y.<o$oio$;==;>@$+i ## @",
"@=3=#i=q=3==;q%o..oo++rwwr ========8 o+2w+.+5o$5i;;====;, o #% @",
"@===#.;;3====q;t...oo5+o+2w.o*####$orw2e.i++oooo 1;====;q;o# %#@",
"@=3= o;;;=#==;q3$.$$$ o$o7<<ro### o.+<<<+.+75$o$;1======;;o# ##@",
"-#== $;;;%#=;3;;;$$    #o..7eo=##=$+o777o 77.$$;1====##==;o#*##@",
"-#%=#3==3@ #3;;;p;.$$$ # $.i. q==; $5oiio 575O qq===### #= #* #=",
"@##=#3==-;##=;3=;1=$$$  #$..o -3=; $$$..$ $.$ q;==##--# #=#  ##@",
"@  =#==0--@##===;;q; $$ #$..o ;3=; $ $...oo.$@;=3=*;1@-# ### # @",
"-  %%0#--,,;##==;=;;@#$$ ..5o ;==; 5 $o5..o#;;==== ,111-### ## @",
"@# ==3;-,-,,;@=#3===q;  $...o ;#=; o$o$o5 #=;===a#,,,-1--### # @",
"@# #3@,-1;-,,;%#a3==;;#$....o ;##; ooo ..;=8=8==*>,->;,1--=### @",
"-  %=-->-@;;,,, *===;;  o$ooo ;##@ o..$..;;==###@,,,>@;---#### @",
"@# =#,--;-@@,,,,@ #=;; $  ooo ;##@#$o $oo;;=#$*;>,,>;@@@,@ ### @",
"@##= -1@@@@@;>,,-  *;@ oo ooo ;##@# oo5o5;= # @>1,>;@@@@-@##%# @",
"@%=% 11=@@@-@;-,; # =@ oo$$o$ ;##0# ooooo;=*## ,1-@@@=@@;@#==# @",
"@==# -,@@-@@@@@@@###=#  $ooo$ ;##0# o$oo.;8$  *@,1@@@@@@@@#=## @",
"@#=# >>-@@@-@@@-@#% =@#  ooo$ ;##@#   oo.;#$ #:@1,@-@@@@@@### #-",
"@#%# >>-@-@@@@@@@#=#=@  #oo$$ ;##@#  $ $.;#*  $;1,-@-@@@@@### #@",
"@## #>-@@@-@@@@@@ % =@  # $o$ ;##3#  o  o;8$#$o@1-@@@-@@@@=#  #@",
"@##  >,@@@@@@-@@@ # =@     $$ ;  ;#  o # ;=$ **;,-=@-@@@@@##  #@",
"@ ## -,-@@@-@@-@@*##=@$     $ ; a;#  o$  ;=   #,,-=@-@@@@-### #@",
"@  # -,-@=@@-@-@@ % 8@$$$ # $ ;*s;# ooo$ ;= #$#>,-@@@-@@@@#####@",
"@ ## ---@==@@@-@-#= =@ $$$  $ 3*s; $ooo$o;8 #$ -1,@@-@@@@@ ##  @",
"@ #  ---@@=@-@@-$###@#   $$ $ 3aa; $o$o od# # #--@@@@@-@@@#  ##@",
"@ # *-,-@@=@@@#.  %#;%$$ $$ $ 3a8-=#$$$ o3; # #. @@@@-@-@@#   #@",
"@### --;@@@@;$o$=#==- $$$$$$$ ; #-## $$ o -#    oo0@@@@@@@###  @",
"@ #  -;-@=@ .o$%=#=--.$$$$$$  ;#=q##  $$i.>,# ##  o$;-@-@@##  #@",
"@ ## @@@@@o.$*##= ;-oo$$$ $$  ;#=q## #$$o+ ;-### ##$+$$ 0@ # ##@",
"@####@; $<o$**=3@;@o5o        3#=-#  #   iro;@;  ## :  $$oo## #-",
"@#### .$.$ * *=3;#.io        #3#=;       o+ee.$  ## $%### #####@",
"@#### *##  **$$.+r.o        ##;3=;#        .++<++o #* %## #####@",
"@####  ####$o<++5             33=;#===####== o7..+o.  ## ######@",
"@ #### ####$* #q%=q;;;;;;;;;33=##8;;;;;@@;;;;q;#=##   ##  #####@",
"-@@@-@@@@-@@@@@@@@>>>-@@@@@@@0@@@=@0@0@@@>->>>>-@@@@@@@@@@@@@@@@",
",------@--,-,------,-1------,-,--,-,,-----,-,---------,---------"
};
