/* XPM */
static char *tile0821740675773[] = {
/* columns rows colors chars-per-pixel */
"64 64 26 1 ",
"  c #373737",
". c #331F00",
"X c #3F3F3F",
"o c #432B07",
"O c #431F0B",
"+ c #3B1B07",
"@ c #2F2F2F",
"# c #331707",
"$ c gray28",
"% c #4F270F",
"& c #271700",
"* c #272727",
"= c gray12",
"- c #572B0F",
"; c #632F13",
": c #4F370B",
"> c gray9",
", c #6B3717",
"< c #5F430F",
"1 c gray31",
"2 c #7F431F",
"3 c #733B1B",
"4 c #6F4F17",
"5 c #874723",
"6 c #87472B",
"7 c white",
/* pixels */
" . X   oO+.OoOOo@@@OO+##O  # ##X##$XO o% o&%oOo#&@&+#@@*@@@@@&@@",
"X   @@ OO++O++O@oOOoO+##.o&.#O.## o%o% o$%*%.o@*@@@@++#+*@@@+@@@",
" @  @@oOOO+...+oOOO@@O+###O##X ##O O%ooo%o**&+++@$#@O+@O@@&@OX@@",
"@ *  *O+OOO...+OOOO@@OOO#O## Ooo.#O%%OO.O.#.oX%&.OOX@O.O*.@@@+**",
"o*@  *.OO.+..*.OOO+OOOOO. ###+OoO++%%%..O#&.X+@$+X#+XO+@+@+X@@@&",
"@@*@@**++**.##*O++++++..#O% #++OO+O%%%@oO+..O+######*+o@@O+OO@o@",
"*.O++o@@**&.++#.+++++### %O+##+OOOOo%oooO.=.O&O.#++#&#@&+#.@+@@@",
"#+O+O+**@*+.+..o###++&*+*%%#+#O%%ooooOoOO***o-.#.#+#&&&#.&@&& @*",
".++O+*@@@*&*@.**&=*&#&..O#@.&&#O%%%o+OOOO.@*%;.#.#O&##&#&.=+.+#&",
"*++OO*@*=@@*@.***.++o+*#.@&&&&.O%%:oOOoOOOoOo#.#.&##+#&*&&+.@@X*",
"*+%++**.+.@@@*@ oOO+%++.*&=&&&.OO%oooooO+ooo@.O+&&&&.#&#+@&+@#@&",
"*+%++*X*.@++*oO  oo#%#*==>o&=&..OOO***OO.*  O*&++&&&&*&##O*&X&@@",
"#+%++++..@+*+oooo+%  **==.&**.#.+oo**.OO**o;+#&#++&+##&*$..&@@*@",
"#O++..&.+%&.*#oo %%o@*@=&&>=**O+++O*...*@@.@..#....O++&&&@@+@+@@",
"@++O+++#+O# +.oOOo@O+**+#+:&=#&&+++oo.=@@*.*@...+OOO+++&#.@X&#+O",
"@O%+O++++++ &+o%ooo@ *@**+++*o%o...OO.*@  o*@*.++#OOO++.oo @& OO",
"+O%%O+++OOO#o+:::oO*@**+@*@=& O&..OOO#.@  @ *o+++#*..#+Oo  @@+@+",
"+O%%OO+O--O#+oo:%%o@+*@*@*@@&=@#&&OO++.. %oO@oOOO**.#++Ooo * +O+",
"O+OOOO+O%%OO&+O%%-:o-o*@@*X*#=o+&&OOOO.**@ OXoO@  .O++.o%o XX@++",
"O++OOO++O+OOO+%%-;%oo;@@*%@X&*.+&&.O%o*@@*X O o%%%ooo.*o%ooX+@++",
"+++%%%OOO+O%%+o%%%%%o%@@ o$@*..++=*@-%  *   XO;-%%o  *@o%%%+++++",
"++O,%%+OO++%;%%%%O%+Oo*@@ *+.X#+++-+-,,: @  @O%:%O;  * :%:%o+$X+",
"+X+-%O++;OO%;%OO%O+O++.O +**#+++++;Oo*::X    O@O; ..o%:X::::<1+%",
"+O%-%OOOO%o%%%%OO%%+++OO.*@*#+++++++o% XXX ::o+X+.o,2;,::%<<3X++",
"+#%;+++++O%%%%%++OO+##:OOoo..&+++o&+%-@ $<::%%O++O-o%;;,;;;<X+++",
"OO%++++++O%o-%OO++++###oOOO.#&&&+&oO%%%X<<%%%OO-%%%+Oo;2,%,$$3O+",
"o;+O%OOOO-;o:;%+#O+++&#O#.OOO#-++++O%%o::,--oOO+oOo++%;-%:,,O$<<",
"%;OO-%%%o-;%%;-++O+-+&O+O#*OOOo+O-&O%oo%%--:%OO--+&oO%;;-::,3OOo",
";O+O%%OO%%-o%%-;-&&#&%#o.#*.O..+++-;O+o::%%-%+++++&oo;--%  %O%,,",
"O#+OOO++O--OO+++%-&++&%-## #o**.O3--&O%%-%%-%+&+++++o,%,: o,<OOO",
" oOOO+O#.oOO%O,%%O&#o+$;+#OO.**.;o;-+;-%%%%%%%+&+O+---+%:%%O : O",
"o%%O++....OO;*-%O-O&&%;%;.o+O..Oooooo3O%%%%O%%+&o+++O++;-,,o  o ",
"#oOO+++..#+&&*&OOO+++&#,%%%%++-OOo oO %O-+OO%%+&++-OoO%+;-+ , #o",
"oooO#&+&....&&&+o+%%o+o&@1%%O+++O;o OO ;+%%%-%O++++o:<.#+-% o oo",
"  @o.&&#.@*#+.*oo%-%oo:;,2-%++#.Ooo OO +o-;--%%OO-+o$X*o+O%% oo:",
"  oO..&.***.+..+O%%--%:%;-%+o.#..O+o%,OOO--;-%%OO%-o X*.+O%oOO%:",
" ooOO++.*.O...++O%-%;;:o::%%*.+..O@ :,oOOo:-;;-%O%+Oo@@OOOOO%O%:",
"ooooO++#..#.@@*.o%-;, @X+-- @*@.O+ $ o@%%o%%;;-O%%O3; oo%OoOooo%",
"Ooooo++##&#*@@@*o%%-o @:%-:*++*++@%;@O:::%%%-;;%%-OO@ oOOO@ %%:%",
"oooooO###=***@@*+oo%@ +--:@*++o++ooo+%;,::%%;,;;;-3O*XoO+O@oOO  ",
"@  ooO+#.@@@* @oo+%:X@,,;:  @O+o+Ooo%@O+;%%%%-,;;-+#o;o.#O@%OOo ",
"@  oOO##..*@@@ooooo%,,;;-%o@*++oO+oO+@o*O%%%%o--,+--#**.+&o@%%Oo",
"  ooOO*.O.O%@ ooo%o;;o3o4%@ *OOO+@OOO@ @ :%oo%o-++-+#. .o# oo%o@",
"   %o.OO-% o@@@o+%%%%-3;%%::oOO++OOOo@@   +oOo++,-+++#*#o &.+O;O",
"+XXo @%%% oO*@@O-+%-%%%;-%%-%OOOOOOOO*@**@oOO%o+,-++++##o+&o.   ",
"+OOoo %OOo%oo**.o+--O#%;%%+%OOOO+OOO.@@  *OO   o-,++++#*X&oXX+O ",
"  O o%%% ;O%oO.o.OO-##O%;+&;+%++...**@*@@.Oo   %&-+-+-& &o @ .  ",
" O OO%%%%%%ooO+OOOO+;+O%O+%O+OO.+@*@*@@@@.OOo@%--,%%++-&o+O $+-O",
"X3O%O%%O%;O%OO+O;;O+&-+%%+O-O.+O*.*XX*@*@.OOO%-%O;..+OOO++O;XO%;",
"O O+%%%%%;%.%%+oOO3+++OO;+;+++O*XX**X@**@.OOO%%O..oO+O;O+.;O+ o ",
"3O3XO--%,%;%#+OoOoO+++O++%;++;OXX*X*@@*@@..OOOOOo.+OO.*;+OoOO1oO",
"X;3$X2;1,<;OOOOO%%O+++&&O%+++-+*X.***@@*.+++.OOO..+OO.OO+o%o%:o ",
" 3;+-X35,<,;o;+&+&##&+&+++O++Oo%.**@@**.++... O+..+o*..O;%o%%%% ",
"22 O255;;<,<%O&++&#&&++&O%OOOo%**X**X*#++.&&#%O.+*..***.oo%O%%  ",
":X123O5<%,;,OOO-O&&&XO++@@ooo@@*@X;**.+++&+#+o+.*%...*@*o%-%%   ",
"%3155,,<,;;%O%#%+***&#%O*@**@@@@@****o&&&.&##:+OO O+.@@*o%%%%o@o",
"-o1352,;;;%O+O+*ooo&&&&&*@****@@@@@*....&&&&O#OO@+++.**@oo%oOOo%",
";32$163;;-%O++O%O @*+**O*.#===*@@@@*.#..#++##O%OO+#&=.@@ oooOOoo",
" X;$523;;3O:.&O%+=OO**o;@..==#.@@@@*..OOO++#X%O+O+O+#OX*  O O o ",
"13O3243O43$OO@#@#*@Xo*+**O&@+#+%*.@...OOOO+OO#%+++ #&%  O  ++ O ",
"X12;1$6$646@ooo&@@*o@%&&&*#@o+   @@OOOO++O#O% O O#*O OXO o   +OO",
"X$%11116$  oo o @****.&&&&*&o%*#-%OO%-oO.XO%O O##+#+ %   O OO XX",
"XX$,3321   @    @oOo@o.@@&*&#%*O#O*o%%OOX#OOO#   +X +%+  OO  OOO",
"XX%1;XX ooo@  @@@@oOoOOO#o ##+oO  OOo%OO#OOOO%O # X +% O  X     "
};
