/* XPM */
static char *tile0591740674605[] = {
/* columns rows colors chars-per-pixel */
"64 64 67 1 ",
"  c #373B4B",
". c #23232F",
"X c gray9",
"o c #13131B",
"O c #0B0B0F",
"+ c #070707",
"@ c #3F3F3F",
"# c gray12",
"$ c #171B23",
"% c gray45",
"& c #2F2F2F",
"* c gray28",
"= c #4B4B5F",
"- c #434757",
"; c #272B37",
": c #5B5F73",
"> c #2F2F3B",
", c #3F3F4F",
"< c gray6",
"1 c #0F0F13",
"2 c #6B6F87",
"3 c #272727",
"4 c #7B7B7B",
"5 c #939393",
"6 c #9B9B9B",
"7 c #8B8B8B",
"8 c gray39",
"9 c #4F5363",
"0 c gray34",
"q c #D7A300",
"w c #F7FF00",
"e c #5F6377",
"r c #333343",
"t c #1F1F27",
"y c white",
"u c gray42",
"i c gray64",
"p c #676B7F",
"a c black",
"s c #373737",
"d c #6B0000",
"f c #9B0000",
"g c gray31",
"h c #57576B",
"j c #431F0B",
"k c #331707",
"l c #771F00",
"z c #730000",
"x c #7B5B1F",
"c c #430000",
"v c #4F370B",
"b c #6F4F17",
"n c #5B0B00",
"m c #5F430F",
"M c #8B672B",
"N c #57230F",
"B c #A78747",
"V c #AB0000",
"C c #671F00",
"Z c #3B1B07",
"A c #331F00",
"S c #977737",
"D c #7F2F07",
"F c #632F13",
"G c #AB6300",
"H c #570000",
"J c #BBBBBB",
/* pixels */
" .X.oO++OO+++++.@@#$$@%@$&*=-===------;$@:>$$#,@.++$++OO++Oo.XX.",
" .X> ++o<1++oo+.@,#oo@2@$3@@:4556578,,3$@:>oo#,,>++O++1<o++ >XX.",
" .X>9.++ooOo$$o;@,#$$@2@$3,05qwwwwq60,3$@e>$$#,,roO+oOoo++.9>XX.",
" 3X& 9 +otO+OO+;@,#oo@2@$3,eqwyyyywqu,3$@:>oo#,,;+O++Oto+ 9 &X#.",
" &X3+,9.to+++<+.@@#$$@2@$3,:5qwwwwqi0,3X@u>$$#,,;+OO++ot.9,+3X#.",
" .<#>,,9.o<OOo+;@@#oo@2@$3,,:455557:,,3$@:>oo#@@;O+OO<o.9,,>#<X.",
" .oX; @,9;<++t1;@@#$$@%@$3,,@,@@@,,,,@3$@:>$$#@@;1t++<;9,@ ;XoX.",
" .<$<3@@@9>++>;,@@#oo@p@$3,aaa333333#@3$@:>oo#@@,;>++>9@@@3<$<X.",
" .11+Oss+ 0&O;;,@@#$$@p@$3@adas--==*3@3$>:>$$#,@,;;O&0 +ssO+11X.",
" &1Oo+<3s**0.$$>@@#oo@p@$3@afa3r@,,@3@3$>:>oo#,,>$$.0**s3<+oO1#.",
" .1OoO++3&s*=tO>,,#$$@e@$3,ada3@@,@@3@3$>:>$$#,,>Ot=*s&3++OoO1X.",
" .1Ot$+++t&&&=$;,,#oo@e@$3,aaa3@,,@@3@3$>:>oo#,@;$=&&&t+++$tO1X.",
" 311oo1++Ot3+,=.,,#$$>:@$3,aaa3@@,,@3@3X>:>$$#@,.=,+3tO++1oo11#.",
" .11$&$O++Ot>g-=>,#oo>:>$3,aaa3@@,,,3@3X>0>oo#@.=-g>tO++O$&$11X.",
" .1Oo#O<O++<s@@,;,#$$>:>$3,aaa3@@,,,3,3X>0>$$#@&,@@s<++O<O#oO1X.",
" .<O+++OO++Oos@,3,#oo>:>$3,aaa3@@,,,3,3X>0>oo#,3,@soO++OO+++O<X.",
",;<Oo++1<o++Ot@*3,#$$>h>$3,aa+333333#,3X>0>$$#,3*@tO++o<1++oO<X.",
"-;<O$oOoo++O.-@g3,#oo>0>X3,,,@@@@,,,,,3X>0>oo#,3g@-.O++ooOo$O<X.",
"-;<OO+Oto++.9,*g3,#$$>0>X#333333333333$X>0>$$#,;g*,9.++otO+OO<X.",
"-;o<+++oto&9>  @3,#oo>0>1oo1111oo111111<>=>oo#,>@  >9&oto+++<oX.",
"-><OOO<ot.=>+@.$@@#$$>9>1#j1kosoo1$&1>o<>=>$$#,,$.@+>=.to<OOO<X.",
"-><O++<t>9,s;s+.@@#oo>9><#l#z#x##$@x$h#<>=>oo#,,.+s;s,9>t<++O<X.",
"=>1O++o.9 @@3+O>@,#$$>-><#l#z#x$#$@x#:$1>=>$$#,,>O+3@@ 9.o++O1X.",
"-3<OO+.9 @>.++1>@,#oo>-><*565470##@x#:$1>=>oo#,,>1++.>@ 9.+OO<1$",
"=3<O$&0@+;3+<+O;@@#$$>->1@088%00#$gx$h$1>=>$$#,,;O+<+3;+@0&$O<1$",
"=;o$;h-@>;+O+++.,@#oo>=>11c1cov##$gx$h$1>->oo#,,.+++O+;>@-h;$o1$",
"=;o;:0g,.+<+oO+.,,#$$>=>1@745470##gx$h$1&-&$$#,,.+Oo+<+.,g0:;o1$",
"9;1>*g,&+++Oo++.,,#oo&=&1*0%8%00$$gx$h#<&-&oo#,,.++oO+++&,g*>11.",
"=>X$+@s<+++$tt$.,,#$$&*&<ac1cova#$gb#h#<&*&$$#@@r$+t$+++<s@+.$X$",
"=>X.@ .O++1oooo;,,#oo&*&1$n$n#x##$8b#h#1&-&oo#@@>o1oo1++O. @.XX$",
"9>X. ;O++O$&$$&r,,#$$&*&1$n$n#m$$$%b#h#1&-&$$#@@r&$+&$O++O; .XX.",
"=>X.><++O<O#oo#;,,#oo&-&1$n$n$v$$$%x#2&<&@&oo#@,>#O1#O<O++<>.XX.",
"=>X.oO++OO+++++.,,#$$&,&1$n$n$v$$$0x#&*<3,3$$#@,.++$++OO++Oo.XX.",
"->X> ++o<1++oo+.,,#oo.,31$n$z#v$$#0x###<3,3oo#,,>++O++1<o++>.XX.",
"->X>9.++ooOo$$o;,,#$$.,.1$n#z#M3$$0x###<.@&$$#,@roO+oOoo++.9&XX.",
"->X& 9 +otO+OO+;,,#oo&,&1#N#l#aMbb0bM3#<.@&oo#,,;+O++Oto+ 9 &X#.",
"->X3+,9.to+++<+.,,#$$&>>1$l#l#$aaa0b#B$<.>3$$#@@;+OO++ot.9,+3X#.",
"-;<#>,,9.o<OOo+;,,#oo.>;1#l#V###$#0x#M$<.r.oo#,,;O+OO<o.9,,>#<X.",
"-;oX; @,9;<++t1;,,#$$.>;1$l#Cl#$$$0x$M$1.r.$$#,,;1t++<;9,@ ;XoX.",
",3<$<3@@@9>++>;,,,#oo.;;1$ljXlZ$##0x$M#<.r.oo#,,,;>++>9@@@3<$<X.",
",311+Oss+ 0&O;;,,,#$$&>;1$al#Xl$#$*x$M#1&,&$$#@,,;;O&0 +ssO+11X.",
",;1Oo+<3s**0.$$>,,#oo&@&1#aClXnl#$*bXM#1&@&oo#@,>$$.0**s3<+oO1#.",
" 31OoO++3&s*=tO>,,#$$&@&<##alCXlZ$8mXM#1&*&$$#@,>Ot=*s&3++OoO1X.",
" 31Ot$+++t&&&=$;@,#oo&@&<##aalXal#um#M#<&*&oo#@,;$=&&&t+++$tO1X.",
" &11oo1++Ot3+,=.@@#$$>*><A#AaZloz&S##M#<&*&$$#@,.=,+3tO++1oo11#.",
"r.11$&$O++Ot>g-=.,#oo>-><####aN$Db$X#M#<>->oo#,&=-g>tO++O$&$11X.",
"r.1Oo#O<O++<s@@,3,#$$>=>1A#A##F&G#&##M#1>=>$$#,;,@@s<++O<O#oO1X.",
"r.<O+++OO++Oos@,3,#oo>=>1$$$$#DbZX@##S#1>=>oo#,3,@soO++OO+++O<X.",
">.<Oo++1<o++Ot@*3,#$$>=><$##$&G#C#*##x#1>=>$$#,3*@tO++o<1++oO<X.",
">.<O$oOoo++O.-@g3,#oo>9>1$$$3bZXl#*$#b$<>=>oo#,3g@-.O++ooOo$O<X.",
">t<OO+Oto++.9,*g3,#$$>9>1$$3b#C#l#8$#v$<>->$$#,;g*,9.++otO+OO<X.",
";to<+++oto&9>  @3,#oo>0>1$30#Xl#l#0$$M#<>->oo#,>@  >9&oto+++<oX.",
";t<OOO<ot.=>+@.$,,#$$>0>1#M#X#l#l&%#$M#<>0>$$#,,$.@+>=.to<OOO<X.",
";t<O++<t>9,s;s+.,,#oo>h>1#bo&%%%%%&#$M#<>0>oo#,,.+s;s,9>t<++O<X.",
";t1O++o.9 @@3+O>@,#$$>h><#bX%aH#Ca###x#<>h>$$#,,>O+3@@ 9.o++O1X.",
">$<OO+.9 @>.++1>@,#oo>:><#bX0#l#l####m#1>h>oo#,,>1++.>@ 9.+OO<1$",
">$<O$&0@+;3+<+O;@@#$$>:><#bX0$l#l#$$$v$1>h>$$#,,;O+<+3;+@0&$O<1$",
">$o$;h-@>;+O+++.@@#oo>:>@gJ%5%i%i7&$$v$1>h>oo#,@.+++O+;>@-h;$o1$",
">$o;:0g,.+<+oO+.@@#$$@:><ova>aCoCa7#$v$1>:>$$#@@.+Oo+<+.,g0:;o1$",
" $1>*g,&+++Oo++.@@#oo@u@<#b#0#l#l#%#$v$1>:>oo#@@.++oO+++&,g*>11.",
">.$.+@s<+++$tt$.@,#$$@e@<#x$0#l$z#%#$v$1>:>$$#@@r$+t$+++<s@+$XX$",
">.X.@ .O++1oooo;@,#oo@p@<#b$0#l$z#%##b$1>:>oo#@@>o1oo1++O. @.XX$",
" .X. ;O++O$&$$&r@@#$$@p@1$b$0#z$z#%$$b$1>:>$$#,,r&$+&$O++O; .XX.",
" .X.><++O<O#oo#;@@#oo@p@1$x$-#N$F#8$$b$1@:>oo#,,>#O1#O<O++<>.XX."
};
