/* XPM */
static char *tile0571740674605[] = {
/* columns rows colors chars-per-pixel */
"64 64 31 1 ",
"  c #333343",
". c #373B4B",
"X c #2F2F3B",
"o c #272B37",
"O c #23232F",
"+ c #3F3F4F",
"@ c gray31",
"# c #3F3F3F",
"$ c #1F1F27",
"% c #13131B",
"& c #0F0F13",
"* c #171B23",
"= c #4B4B5F",
"- c #373737",
"; c #2F2F2F",
": c gray28",
"> c black",
", c #272727",
"< c #434757",
"1 c gray6",
"2 c #57576B",
"3 c gray42",
"4 c #4F5363",
"5 c gray9",
"6 c gray12",
"7 c gray34",
"8 c gray39",
"9 c #331707",
"0 c #271700",
"q c #5F6377",
"w c white",
/* pixels */
" .......XX     XXXX. .XXXXXXX  .  ...  ........X    X.          ",
".  .....X ..  . XooX  ooo oXX   .. .... ....o . O. X      X X.  ",
"   .....XXX XXoooooXXXoo XXXX.   . .. . ....oo .oXX ..       .  ",
"....+@#. $%&%%&&&&&&&&&%&&&&%%%%%%%%%%%%%%%%%%%%%%&%%O*O     ...",
" .+.+@##=O**$$*************$$$$$$$$-$$$OO$$$OOO$$O*%$O$;=   ..  ",
"  :. -@@+= ooooO**$O$$****$$$$$$$$$O$OO$$--O**OO XX . +=    ..  ",
"  @+###@:+=XXoo%>>>>>>>>>>>>>>>>>>>>>>>>>>>>>>>>%OOo.+=     ..  ",
" .@#@##,>>+< o%&>>>>>>>>>1>>>>>>>>>>>>>>>>>>>>>>%%*X+=X,>1     .",
"  ##+@#>>>++= &&11>>%*>>%*%>>>>>%%%%%*%%%%*%*>>1&%&X=+ >>><     ",
"  @+$##>>;2X+=$1&%%%*O*>OO%>%>>**>>>>>>>>>>>>&>%&%$<+#->>O2X*   ",
"  +;%*;o@3@.oX4$%&%*OOO;#;%>>>1OO>%>>%>%%*5%%5%%%;4++,#;<4+*%;  ",
" ..;*,%;X   XX+<X***OOO-;O%>>>%1O*1*O OO;--;;;O*X<+:#;## ;*,*; X",
" ..;5 ,%;   ## +=X**OOO;*O*>*>>%%%>>>>>>11>%**OX=X-#;##X;%,;5O  ",
"   ;5  ,*   #### @;OOOOO*O OOO%;*>>>1>>>>1>1*$ @+###@-#o%$o 5O  ",
"  .;* ;O>>;######+=;;OO>OO ;; ;O;%%>;,1>1%*>6;7+@##@+ ;>1*X.%O  ",
" ..;, *%>>>;#@@5>> @;;OO;O ;;; O%;;;-   -;O -7@,>> .X;1>&1*.5;. ",
"  +-,+>>>>>5#@#>>>+#@;O*OO ;; ,*O;O*  -O;;O*@@->>><X;>>>&>1X5OX ",
"##@-,+>1>>>>% #>>,8-#@;**O;OOO1%*O%O-;OOOOO@;##>>;2;>>>>*>>.5O  ",
"##@-,.>1,>>1>%-;@3@--#@$******%%%>%%*%%***< --#-@3+>>>>1%1>.5O  ",
" ..;*.>>11>>1>>;;;---##<*1>>>O*>>>>>>>>&;@#;-###-;>>>>>>1>>.5;+ ",
". .;*.>>,&>>>>>>;,,;---@+;*>>;*>>>>>>>>;@  o#-##;>>>>>>>11>X*-+.",
"...;*.>1O$5&>>>>>$,;,,,;;<*11*%>%%%***;@  o###-;>>>>>>>>>>>;*-@.",
"...;*.>%O;5&>>>>>>O,,,;,,;<*%**%%%***;@  X #@#;>>>>>>>>%>>>$5;# ",
"..=X,<1>**%1&>>>>>1o ,;,>>#=X*%>>>%*;@ $>>#-#->>>>>%>>%%%>> 5;# ",
"..= O<>%%*1*%1>>>>>1O*->>>7+=;&&&&%;@ X>>>+X->>>>>>>>>%%%>>X5;#.",
"..< O<1>%%$$>11>>>>>1*o>>,3@+@*&&%$=+XX>>$4;>>>>>>>>>>%%%%% 5-# ",
" .< O+1%%,;;;%1>>>>>>1oX+3@@+ @$&$=+ X #@4#>>>>>>*1*1%%OOO*+5;# ",
". . O 11-;-;>>%>&>>>>>1O-####  <X=+ X --#O>>>>>>$O*%>%*O-X*@5-@.",
"    *.1>,1,1%>O>&1>>>>>;######XXX# X ##-;>>>>>>%>O>>>%%*OO1#5;# ",
"   ;*.1>>>90>>11%>>>>>1>;#####XX##X ###;>>>>>>>**;>>>>>>>O>#5;# ",
"  .;5.1>>>00>>>5>>>>>>5>>,;### #----##;>>>>>>>>*>;>>>>>>>*>X5;# ",
" ..O*.1>%>>00>*1>O>>>>>1>>;####,>>##-;>>>>>>>>>O1;>>>>>>>O>X5O .",
"   O* 1>5>>>0>*1>OO*1>>11>1.;##>>>@oX%>>>1>>>>$%>;; ;%%**O>.5O  ",
"  .;* 1>,#>>0>1*>*>>>>>%11O####>>;2  <%11&1>>>1O*O>>>>>>>%1 5O  ",
"  .;* 1>%#>>1>*%*O>>>>>*%$+#####@8<.X @$1%*>>>*O*;>>>>,>1%1 5;  ",
"...;%X1>%->>%>O%%1>>>>5$$@#-;##@@X. XoX=,*%%%1O,%;>>>>>>>%> 5; .",
" ..O%.1>>>>>%1O*%%>>>>$;= ##@@@@# .X Xo @X*>*%;O*;>>>>>>>O> 5O. ",
"  .O%X>>>>>>>1*%%O>>1>;=   @###;>O  ; XX @$%1%OO*O>>>>>>>;>.5O..",
"  .;%X>>>>>>>>O*%->;-;=+#  @+ ;>>>X+;#  ##4;%**;*->1;,,,- > 5O  ",
"...;5X>>>>>>%>>O%*11*= ,>>#++;>>>>>;.+o,1>#@;>*O**>>>>>>%-> 5;. ",
" ..;*X>>%%%1%1>O%***< #>>>@+;>>>>>>1O.o1>>@#@;*O**>>>>>>>*> 5O. ",
"  .;* >>>>>>1>*O*O;<X##>>,8;>>>>1>>>1;.>>,8# <****>>>>>%%O> 5O  ",
"  .;*.>>>%>>%%*;O;=###-;+4#>>>>>>>>>>%Oo+2@-oX<O**>>>%>>>*> 5O  ",
"...;*.1>%%>>O%OO;= #####;;>>>>%%1>>>>>>Oo,--ooX@;,>>>>>>>;> 5;. ",
" ..;*.1>>>>>*%O*=X;####-;>>>>%*%>>%1>>>1$X--XoX#@;*>>>>>>;> 5O  ",
"   ;*@>%>>>>**O<X ##;#-;>>>>1%>%>>%%>>>>1;XXoXooX<;>>>>>>O> 5O  ",
" X O5.>>>1>>,;<#+@#;#+;1>>>>>*%*>>$**1>>>1;XXXX;.+@;>>>>>1> 5O  ",
"XooO5 >>,;>>;@+,>>-  ;>>>>>>,;*1>151*>>>>>1;XX;,1> @5>>>>;> 5O X",
"XooO5 >>5;%;@+#>>>+X;>>>>>>>>%>1>>>>>>>>>>>1;##>>>+X<*>>>;> 5O. ",
" ooO5 *>,O;@ #->>,4;>>>>>%>>>>>>>>>>>>>>>>>>>;#>>*4o <*>>*% 5O  ",
" ooO,:+O%;=+#@##+2#>>>>>>1>>>>>>>>>>>>>>>>>>>1; @8@-;#:%1O; 5;  ",
"XXX,,:@  q+@@@@##;>>>>>>>>1>>>>>>>>>>>>>>>>>>11;##-;--+2X   5O  ",
"XXX,5:@ =+@@@@@+;>>>>>>>>>1*>*>%%%%**1%*>>>>>111; o;--:+=+  5O  ",
"XXX,%# =+@@@@++X>>>1>>%>>>>>>>>>>>>>>>>>>>1>>1%%>;+ #@@# =+ 5O  ",
" Xo,* =+@@@@+#;>>>>>>>*>>>>>>>>>>>>>>>>>>>>>>>>>>11 #@## +=+*O  ",
".....4+,>>@###>>>>>1%%O>>>>>>%%%>>1O*>>>>%>>>>5>>>>; . O1>+ O   ",
"XX..++#>>>@X#5>>>1%OOOO*$%%*;;OOO,*;$%1>**>>>>>>*%**;  %>><   # ",
"XX+#+.+>>*8#5,*1&&%%%>O1>>>>%>>>%>>>>>>>>*>10O%>>>*,1X.1>O2#### ",
"XX  ++++@8@1* o*>111>>*>>>>>>>>>>>>%>>>>>5>>51%11*X;,1X <2@#### ",
"XX.+##@@+ *OX  ++<<+++<<+++++<@<+ ++#+;; ++#+<<+<+. ;$5X  ##### ",
" X     ..*O  X XX  .o  XXXXXXX@  ....   X    ..  .. X ;* #####+ ",
".X XX.XXXX+<<++++<<<<+++++++++<<<<<<<+<<<<<<<<<<<<<<<<+  #####  ",
". .  .XXXXX  XXoXoX XXXXXXXXXX    ..       ..     .  .    ###   ",
"....... XX  .XXoooXX XXXXXXX X    .  .   . ....   . X.          "
};
