/* XPM */
static char *result[] = {
/* columns rows colors chars-per-pixel */
"64 64 66 1 ",
"  c black",
". c gray6",
"X c #0F0F13",
"o c gray12",
"O c #23232F",
"+ c gray9",
"@ c #1F1F27",
"# c #13131B",
"$ c #070707",
"% c #272727",
"& c #2F2F2F",
"* c #2F2F3B",
"= c #373737",
"- c gray28",
"; c #171B23",
": c #434757",
"> c #631B17",
", c #431F0B",
"< c #43230F",
"1 c #3B1B0B",
"2 c #4F0700",
"3 c #5F0000",
"4 c #3F0700",
"5 c #5B0B00",
"6 c #0B0B0F",
"7 c #632F13",
"8 c #57230F",
"9 c #331707",
"0 c #271700",
"q c #4B2B17",
"w c #333343",
"e c #7B2F27",
"r c #572B0F",
"t c #4F270F",
"y c #3F3F3F",
"u c #57331F",
"i c #5F3B27",
"p c #6B3717",
"a c #373B4B",
"s c #6F331B",
"d c gray42",
"f c gray45",
"g c gray31",
"h c #671F00",
"j c gray34",
"k c #7B7B7B",
"l c #8B8B8B",
"z c #3F3F4F",
"x c gray39",
"c c #9B2F00",
"v c gray70",
"b c gray64",
"n c #939393",
"m c #4B4B5F",
"M c #9B9B9B",
"N c #1B0000",
"B c #3B1B07",
"V c #4F5363",
"C c #57576B",
"Z c #5F6377",
"A c #67472F",
"S c #733B1B",
"D c #570000",
"F c #330000",
"G c #270000",
"H c white",
/* pixels */
"  .XooO.++@+###+++++++##+++ooo... .ooo++$$$$$$$$$$##++++++%+... ",
"$$++%&*+@%++XXXXXXX+XXX+%@+&%%+XXX+@%&+++XXXX$$X$$$$$$$$$$&%+. $",
"$X$$o=-+@%;;+;+%;;;;X+X;%@+&%%;+;;o@%&+o;%;;++XX+X     X.+&&++X$",
"$+;X%=:+%&>,,<1123>>45>,&%+=&%oX++o@%=+@%%%%+;;X$6      .+&&+++$",
"$+oo%=:+%778<<9098><,><%q%+w&%o++@@O&w+@%%%@o@o+++......++&&+++$",
"$+@@%=-o%errt1<9<778t7q&=%oy&%@@%%&&&y+%&&&%%%@o++++++++++&&++++",
"$+oo%=-+%77rrq<uue>8,ru==%+w&%@@%&*&&y+%&=&%%@@+++++++++++&&+++$",
"$X;X%y-o%877quuuie8<9rpi=%oa&%@%&=*&&yo%=y=oo;%;+++XXX;+++&&%+++",
"$X;;%y-o%8spqu&%==&+1rsse&oy&&O%&&*&&yo&&-=o+%%;+XXXXX+;o+&=%+++",
"$X%;%y-o%7s7q=&ydfg+%he7>=oy=&&===*&&yo&=y%9o%o;;+XXXX++++==&+++",
"$X%%&y-o&ee7u=gyjdkj&=i88=@y=&===&=&&yoo%&&%%+%;;+XXXX;;o+==&++$",
"$X%;&y-o%seei&yyjllf&==88&@z=&=====&&yo+4&&&&o%;;;;++X;;o+==&%+$",
"$+;;&y-o&7eee=jddllx==u8,&oy=&=====&=y+o=-=&&%%%ooX++X;;o+==&%++",
"$+%;&y-o&tcec&xddllj%e881&@z=&&======z+%yg<&&%++o+X++;;%++&=&%++",
"$+%;&y-o&=y=&xdddllfd&&&=&oy=&======yyo&yy=&&%o+;++++o;%o+&=&%o+",
"$+%%&y-o&xvbkxxxdkllxjxjd&oy=&%%&&==yzo&%==&&1%++++%Xo%;++&=&o++",
"$+;%&y-o&nnndxxxfkfkdjjxk&oy=&%%&&==yzo%=uy=%=&%+++ooo;o++&=&%o$",
"+%%%&y-o=dlldgjxfxjxkfdfl=@yy===&===yy@&yg-y=y&%.+o+oo;%o+=y=&o+",
"+%%%&y-o=flldjjjdjgjdkfll=@:y=====yyyy@&yg-==&&++++++o%%%+=y&&%$",
"+%&;&ymo=Mnldjgjjj-gjfflb=@yy=====yyy:o%=g-yy=&+++++ooo;++=y&%+$",
"+%&%&ym@&vMkxgggjjyygkflv%o:y==y=yy=yy++=g-yy&o%+%%+o%o;++=y&%+$",
"+%&%&y-o&-djjggggj===gjdg&oyy=&%=&==yy+o=g-y&%%oo%%%%%o;@+=a=&%+",
"+@%&=y-o&&&&&&&&&&====%&=&oyy=&&&&=yyyo%=-y=&%%%o@%%%@@@@+=a=&%+",
"+%&==ymo&y=&&&%%&&&=====y&o-y=&&&==y-:o%y-y=&oo++++%%@@@@+=a=&%+",
"+%*==y-o&yy=&&&&=====y-yy&oy===&&&=y-:+%y-y=o+9o..+%%%@@@+=a=&%$",
"+%wyy--o=--=&&=%==y==-g--=@qq==%==yy--%=---q99o9o9o%&&%%%+=ay=%+",
"+%wyy-mo=yy====yy====y---&o,q==yy==y-:o=--gq1o%%%o%&&&%&%+=ay=%+",
"+%w=y-g@=-y=&&=%=y===y-yy=o,q==%=y=y-:@&y--=%o%o&&%&&&&&%+--y=&+",
"+%wy=yg&&yy=&&&=&yy==y--=%N-====&yyy-:@%yy-y=&%=&&+%&&==@+--y=&+",
"+%=y=y-%&=y=&&&%&&=y=y-y=%N--y=%&&=y-:@o=y--=&%&o++o%&==%+--y=&+",
"+&yy==-o%&===&&%====y-===&o--y=%&&=y--oo%=y-y=&%9o+o%&=%%X-yy=&$",
"+&yy&==&o%&&&&===&=yy-=qq=o--====&=---@%qu=yy=&&=&%&&=&%o%=y==&+",
"+&=%&%9-g%%%%&&====ygy=qB=@m-%&====-g-+<qu==uuu=gy==&&%oy%=yy=&+",
"+&=&&%9q-g%%%%======yy==y=o-qo&====-g-+<q=%Bqru=-y&&9%oy=%=yy=%+",
"+@=&&%9<ygV%%%%%&&=yy&====og-&=&&==-gg@o<=,&qquyy=&oo%Vy@%==y&++",
"$@&o&%%qy--V%%%%&&==y&===%og-y==&&=-gg%%&==yy==yy=9o%Vy@o%=yy=+$",
"+o&0&%%yygy--%%%%&==y====&omg&==&&=-gg%91<---y====%%V:&oo%=yy=%+",
"+;o%%&&y-j---V%%%&===y=y-y@ggq=====-gmo9,,&yy=%q&%%gy&=&%%=yy=%$",
"+o&%%&=y=g-y&gV%%%&==yyy-y@mgy==&&=-gmoo&=qy=%<9%%Vy&&=@+%&yy=%$",
"+@&&&%=y+&=-&--V%%%&=yyy-=ogg&==&==-gm++o%<<%9o%%V-&=&&+.@&yy=+$",
"+@&&&==y++@====yV%%%&====&og-1*&&&&ygg.++91999%%V-&&&@+..@&=y=%+",
"+@%%&&=y@@++%=&&y-%%%&=&=&og-yw&&%&y-g+++9999o%V-=&%@+.+.@&=y=+$",
"+@%%%&=y@&@++&=&&y-%%%&=y&oggy=&&&&yggo%o<<%%%V-===%+.+o+@&=y=%+",
"+@=&&==g%=-%+%==&&-V%%&=-=%ggy==&&=-gg@.9<%o%V-yy-&+XX%%+@&--y%$",
"+&&&&==g@yg=X@&@&=y-V%%&==%ggy=%&=y-ggo+9%&%V-y-=-%oX%&&+@&y-y%+",
"+&=&%=y-@yy&V-=%%===-V%%&%@ggy==&==-gg.+o&%V-yy-&=&%-%%&+@&--y&+",
"+&&%%y=-@=&C-y=o.%yy=-V%%%%ggy=%&=yggg++%%Vy=&y%.%=&yg%%+@=--y&+",
"+@&%&==-&&Zg=y%.XX%y=yg:%%%Vgy=%&=yggV@%%d-==&%XXX%&&yC%X@&--y&+",
"+%&%&==-&CVyy%Xo%oo==yy-:%%V-y=&&&=--Vo%Vgy&=%oX&oX%&&--o@=--y&+",
"+%%%&==yCg-y%Xo%&g&&&===-y%g-y=&&&=yyg%gy-y&%@&y%%oX%&&=-@&--y&$",
"+%&o&==yg=y%Xo&=g&y=%&==y=g-y=*&&&yy=yg==-y&@@=-y%%o.%&%&@=--y&+",
"$%%%&&&===%Xo&&g&&y&X+&%==yy==&%&&yy*==&&==+XX=y=yo%oX%%;@&--y&$",
"+%%%&&&==%Xo&=g=&&@6X.+@==y===&=&=y=%&=%%%+.X6@-=&y%%oX%;@=--y&+",
"$%%&%&&y%Xo==g&=&@6@@+++&=%q==&=&===%&&%@@.+@X6@=%%yo%o..o&--y&+",
"$%%%%&&%Xo&=g=&=o6@=%@+.+%%%====&&==%%&o+++@%%;6X%%%zo%oXX=-yy&$",
"$+%&%%%Xo%=g&&&o6o==%%%.++&&&&&&&&==%%%+.@&%+%%o6;;%%=%%o.&y-y%$",
"$+%%;%.oo%-=&&%X;%%%%o%o++@&%+&%%%&&%%@++%oo+ooo;X;&%%=%Xo&yy=%$",
"6%@%%=-myg==&=wwyy=====ww*&%&&&&&&**&&o%w==w*w=www=*%%%w=y==&%%;",
"X;@%iAAu&&&&iAA&&&&&AAAi&&&&iAeAAeAi&&&&iAAA&&&&&AAi&&&&uAAi&@;+",
",X;@+uSiq@@@@qS<q@@@@uiuu@@@oqS>>Sqo@@@uuiu@@@@qqSq@@@@qSSu%@;X,",
"D,X+++uprq;++;,qpq;;++qppq;++;u>>u;;++qppq;+X+qr,1XXXX1trt+;;+tD",
"D5<++++,ptr++X;,tr<+X6+q>tr++X;q,X++X,t>q;;+X<rr96XXX,rr,XX;;r>D",
",Dt16666t5>,66XX91t,$$X.t5>966XX6666FD>t.XX6,t9F$6$$,D5,666X,r>,",
"$919FNNNN9119NNNNNF19N$NN919GNNNNNNG919NNNN91FNNNNN9119NNNNF919$"
};
