/* XPM */
static char *xpm_[] = {
/* columns rows colors chars-per-pixel */
"64 64 48 1 ",
"  c #3F3F3F",
". c #373737",
"X c gray31",
"o c #2F2F2F",
"O c #272727",
"+ c #272B37",
"@ c gray28",
"# c gray12",
"$ c gray39",
"% c gray45",
"& c #7B7B7B",
"* c gray42",
"= c gray67",
"- c #838383",
"; c black",
": c #4F5363",
"> c #6F4F17",
", c #632F13",
"< c gray34",
"1 c #373B4B",
"2 c #171B23",
"3 c #23232F",
"4 c #271700",
"5 c #3B1B07",
"6 c #431F0B",
"7 c #333343",
"8 c gray9",
"9 c #13131B",
"0 c #0B0B0F",
"q c #070707",
"w c #1F1F27",
"e c #2F2F3B",
"r c #331707",
"t c #432B07",
"y c #5F6377",
"u c #6B6F87",
"i c #572B0F",
"p c #8B8B8B",
"a c #8B672B",
"s c #434757",
"d c #4F270F",
"f c #57576B",
"g c #3F3F4F",
"h c #5B5F73",
"j c #733B1B",
"k c #934F2B",
"l c #6B3717",
"z c white",
/* pixels */
"             .   .  .X    .o  OooO  o.    X.  .   .             ",
".+...o....      ... @@o. o o @.OO.@ o o .o@@ ...      ....o.....",
".++.+.o#ooooooooooooooo@$%&&&*. *=-&&&%$ ooooooooooooooo#o......",
"..+.+oX;;;;;;;;;;;;;;%&%*:XXX o@> , X<<*%&%;;;;;;;;;;;;;;Xo.....",
"...... X;;;;;;;;;;;&&$X@11...o23O4456..@@X$&&;;;;;;;;;;;X ......",
"  7  7  X;;;;;;;;%*XX@.6OOo84#900q4##ooo.  XX>%;;;;;;;;X  .     ",
" 77o.7   X;;;;;%&X@.117o8888;2ww444;4844O @@O.X&$;;;;;X .6o.o   ",
" 73;o+1   X;;;%<@..oe288;;;;;27.46r;;;;;8#o o..@<%;;;.t .ooO;o  ",
"  3;;3+   tX;&X.o.o888;;;;;;;91.r6r;;;;;;;8#8o.o.X%;X 6 o4O;;o  ",
"  o;;;3..66<y@.OOr4q;;;;;;;;;2  66o;;;;;;;;;8#oo.. $..66OO;;;o  ",
"  o;;;;oOt612#.O44;;;;;;;;;;;o  .6r;;;;;;;;;;;88oOOOOotOo;;;;o  ",
"  o;;;;;o@@u:0O44;;;;;;;;;;;;o   .r;;;;;;;;;;;;8##*@q#6r;;;;;o  ",
"  o;;;;;;&w:70##;;;;;;;;;;;;;o @@@.;;;;;;;;;;;;;##@oq4i;;;;;;o  ",
"  o;;;;;>XO8q0#;;;;;;;;;;;<$%&@  @p&%$;;;;;;;;;;;44q46i,;;;;;o  ",
"  o;;;;t$  o4#;;;;;;;;;;*%$X@O#* qO @<*%;;;;;;;;;;##o.6a,;;;;o  ",
" @o;;;@,  @OO;;;;;;;;;%%<    O#@OqO    s$%;;;;;;;;;Oo d $@;;;o@ ",
"@@o;;;>,  oO;;;;;;;;*%$    .#80qq08#. 71 <*y;;;;;;;;Oo1 ,f;;;o@@",
"@@o;;<$t oO;;;;;;;;*%X@  o#q0;;;;;;qq8o  @X:$;;;;;;;;Oo  f<;;o@@",
"  o;;$6..O;;;;;;;;@$22  o88;;;;;;;;;;88o  ww..;;;;;;;;OOt7$;;o  ",
"  o;s,6@oo;;;;;;;$*-1qOoO;;;;;;;;;;;;;;8##%@qO1;;;;;;;Or,@<<;o  ",
"  o;$X6 o;;;;;;;$%Ogoq#O;;;;;;;;;;;;;;;;##@oqOs1;;;;;;;o tX$;o  ",
"  o@$@@Oo;;;;;;;$ w90###X;;;;;;;;;;;;;; 80802+11;;;;;;;oo.@$@o  ",
"  o$@@ r;;;;;;;XX.629#oooX;;X<$$$$<X;;X.OO88+77XX;;;;;;;o  X$o  ",
"  o* @oo;;;;;;;< 6522o.oooX@ @@@@@@ @@O...o0O   <;;;;;;;oo1 *o  ",
".oo<..O;;;;;;;XX6.42;O.ooXOO @@@@@@ O#O#.@o;8o  sX;;;;;;;O..<oo.",
"ooX@.oo;;;;;;;@Xt62;;;OoX&@0#o8888#o8$@Ooo;;;O. s<;;;;;;;oo.XXoo",
".o< .oo;;;;;;@,@ r2;;;;@o@oq0qq;;q880 o# ;;;;#o 1<@;;;;;;oo. <o.",
"  $@ o@;;;;;;X<@7r;;;;;XOqq8q;;;;;;q0q8OX;;;;;o11<X;;;;;;@3 @$  ",
"  *  o;;;;;;;<X133;;;;<@ O29;;;;;;;;q8  @<;;;;o3@..;;;;;;;3  *  ",
"  * .o;;;;;;;.X13;;;;;<  ow;;;;;;;;;;8o  <;;;;;o@.O;;;;;;;3. *  ",
"o.<O#o i@@<X.#92o;;;;;X  ow;;;;;;;;;;Oo  X;;;;;###9.@<<<s7 .o<.o",
"o.#@*846@@@o89:@#;;;;;@  7;;;;;;;;;;;;   @;;;;;4> 02#@ ,O5O%<O.o",
"o.0oO44@@@.o096r#;;;;;  7g;;;;;;;;;;;;X   ;;;;;4r442r@@1138..#.o",
"oo80q44ooor48O48o;;;;;o 7s7;;;;;;;;;; $  o;;;;;Oq0424ooo3wO888oo",
" .oO46;;;;;;;oOo6;;;;;o.7@*;;;;;;;;;;$$ .o;;;;;6@,r;;;;;;;<##o. ",
" .o .i;;;;;;;o@@,d;;;; 3OO$$;;;;;;;;@%  o.;;;;@d@dr;;;;;;;<OOo+ ",
" .o  $X;;;;;;o@@ d;;;;;3O8#*@;;;;;;@%o#OO;;;;;X.@Or;;;;;;X$11o+ ",
".o4..<<;;;;;; .@  ,;;;;O#*@2 %<;;<*%#$@8O;;;;@@ @77;;;;;;<s++23.",
"oo4o6d>;;;;;;;O@  X;;;.##@+44<%&&%* #@o846;;;X. @3;;;;;;;fg+323o",
".o4rO6,;;;;;;;#   @@;<.##92 t @@@@66Oqq246<;@@t 73;;;;;;;:7+323.",
"  OO7@<$;;;;;;;o   X<X@o220O..@@@.6480##r6@<$ 6 3;;;;;;;:s17331 ",
"  o871.<;;;;;;; o #8.X@ w2;;OO#OO484;;#O6td%X  o7;;;;;;;*@1733  ",
"  o8#1  <;;;;;;;oo9q0. .o;;;;;;;;;;;;;;r.6,.#Oo3;;;;;;;$<@1+93  ",
"  o;871 ,;;;;;;;222h12* ;;;;;;;;;;;;;;;;+>4@*###;;;;;;;$X112;3  ",
"  o;8e@@,$;;;;;;;29132@*X;;;;;;;;;;;;;;sh<0o@8#;;;;;;;*X@179;o  ",
"  o;;8. ,j;;;;;;;;808O @*$@;;;;;;;;;;@$*@ O808;;;;;;;;<@1,2;;o  ",
"@@o;;8ro6,$;;;;;;;;Oo @  $%$X;;;;;;<*%<  @ oO;;;;;;;;$ 1go9;;o@@",
"@@o;;;456t6$;;;;;;;;O.o.  @<$%& @&%$@   .ooO;;;;;;;;$   #8;;;o@@",
" @o;;;84.  @$;;;;;;;;;.Oo.   O8*@8O   .3O+;;;;;;;;;$ o.O89;;;o@ ",
"  o;;;;4#o . $;;;;;;;;;;OOOoo#0 o08oOO#O;;;;;;;;;;% O8#84;;;;o  ",
"  o;;;;;8480o $;;;;;;;;;;;oOO#8q08#OO.;;;;;;;;;;;&X.4458;;;;;o  ",
"  o;;;;;;8q6,O $;;;;;;;;;;;;;OOOOOO;;;;;;;;;;;;;%. *tq4;;;;;;o  ",
"  o;;;;; 8q454oo<;;;;;;;;;;;;O    O;;;;;;;;;;;;*Xo8@#qqX;;;;;o  ",
"  o;;;;goO0qq4...*;;;;;;;;;;;O    O;;;;;;;;;;;*X .#0q4O .;;;;o  ",
"  o;;;s7+oo4q#6. @$*;;;;;;;;;O  .6O;;;;;;;;;%$  O64q8#6t X;;;o  ",
"  o;;s777O64;88#o.@<%*;;;;;;;O .66O;;;;;;;a><@.O884;8O    X;;o  ",
"  o;X777.6O;;;88#o.@<***;;;;;O .OtO;;;;;$><X .5448;;;r.    X;o  ",
"  oX777 6r;;;;;#88#o@X<$%**<;o O466;$%->i, @#488#;;;;;o.    Xo  ",
"   177.5r;;;;;;;;888O. @XX<*&%& 6kl%<@,6666o888;;;;;;;;o.       ",
".+.+..O4;;;;;;;;;;;888Ooo..@@ o@ 66...44r5888;;;;;;;;;;;#o......",
".+++.Or;;;;;;;;;;;;;;o888#Oo.80@o04t5O#888o;;;;;;;;;;;;;;oo.....",
"++++..+@<<<<<<<<<<<<<<Xo888888qqqq4q4888oX<<<<<<<<<<<<<<@.......",
"++++.3++..      ... @@o. oo#oO8q888o#oo .o@@ ...      ....o.....",
"  77 777 771 .   .  .X    .o  OooO  o.    X.  .   .             "
};
