/* XPM */
static char *result[] = {
/* columns rows colors chars-per-pixel */
"64 64 63 1 ",
"  c gray31",
". c #5F6F67",
"X c #939393",
"o c #9B9B9B",
"O c gray28",
"+ c gray39",
"@ c gray34",
"# c #373737",
"$ c #272727",
"% c gray45",
"& c #838383",
"* c gray64",
"= c #8B8B8B",
"- c gray42",
"; c #3F3F3F",
": c #0B0000",
"> c gray6",
", c #13131B",
"< c #070707",
"1 c #131713",
"2 c #0B0B0B",
"3 c #3B433B",
"4 c black",
"5 c #171B23",
"6 c #331F00",
"7 c gray9",
"8 c #23232F",
"9 c #7B7B7B",
"0 c #1F2F1F",
"q c #1F1F27",
"w c #331707",
"e c #373B4B",
"r c #3F3F4F",
"t c #434757",
"y c #272B37",
"u c gray12",
"i c #2F2F2F",
"p c #172317",
"a c #333343",
"s c #271700",
"d c #070B07",
"f c #5B1F00",
"g c #43230F",
"h c #57230F",
"j c #57675B",
"k c #330B00",
"l c #1B0700",
"z c #4F5363",
"x c #270700",
"c c #2F2F3B",
"v c #272B27",
"b c #57576B",
"n c #4F270F",
"m c #431F0B",
"M c #434F47",
"N c #3B1B07",
"B c #4B5B53",
"V c gray70",
"C c #833F0F",
"Z c #B75717",
"A c #8F4B13",
"S c #632F13",
"D c white",
/* pixels */
" ..XoOO  OO  OOO +++@  +                   + @@++  OO   O   OooX",
"#$$O%&&&&XXoXooo*XX=&%%%&&&%&%%--%%&%&&&%%%&=XX*oooXoXX&&&&%O##$",
"#$$O%&&&&XXoXooo*XX=&%%%&&&%&%%--%%&%&&&%%%&=XX*oooXoXX&&&&%O##$",
"#---#@@ ########+%%  --%   @O;;##;;O@   %--  %%+######## @@#-##-",
";--@O--$:>>,>>><>,,><,,><<<<1,,22,,1<<<<>,,<>,,><>>>,>>:$--O+33-",
"OOO#O&&$44444444444444444444><<55<<>44444444444444444444$&&OO##O",
"OOO#O&&$44444444444444444444><<55<<>44444444444444444444$&&OO##O",
";OO#;&&62,,>,>>>,,,72>><1,,<$228822$<,,1<>>27,,,>>>,>,,26&&;O33O",
"#OO#O99,<77>5,,>$00$$77,7$$q$558855$q$$7,77$$00$>,,5>77<,99OOOO ",
";OO# %%#wqqqe888reetyuu$i>>$ eeqqee $>>i$uuyteer888eqqqw#%%     ",
";OO# %%#wqqqe888reetyuu$i>>$ eeqqee $>>i$uuyteer888eqqqw#%%     ",
"OOO# &&p422<<<<<<<<<<2244<<4q<<aa<<q4<<4422<<<<<<<<<<224p&&  OO ",
";  # ==1<,,>,>>>,uu52>><,<<<$<<ee<<$<<<,<>>25uu,>>>,>,,<1==    @",
"#  # oo$s;;#eeeyr  a$OOiidd8reeyyeer8ddiiOO$a  ryeee#;;s$oo O  @",
"#  # oo$s;;#eeeyr  a$OOiidd8reeyyeer8ddiiOO$a  ryeee#;;s$oo O  @",
"#++@ ==><<<<<<<42<<<<<<44444u<<ee<<u44444<<<<<<24<<<<<<<>== +  +",
";%%%@&&><uu7><<>,,,><>><12220<<ee<<02221<>><>,,,><<>7uu<>&&@%@@%",
"#--@+%%<p$$i5>>s$uusi>>,7uu7055ee5507uu7,>>isuu$s>>5i$$p<%%++++-",
"#--@+%%<p$$i5>>s$uusi>>,7uu7055ee5507uu7,>>isuu$s>>5i$$p<%%++++-",
";-- -%%y$eee;ff#aggh$88qquuareeyyeerauuqq88$hgga#ff;eee$y%%-@++-",
";%% %jj>4<<<<44<2<<<<<<44444u<<ee<<u44444<<<<<<2<44<<<<4>jj% --%",
"#99-%OO2>55,,>>>>551<>>2,<<20<<ee<<02<<,2>><155>>>>,,55>2OO%+--9",
"#99-%OO2>55,,>>>>551<>>2,<<20<<ee<<02<<,2>><155>>>>,,55>2OO%+--9",
"O99%9;;,$00u,>>>>uu>u0077ssw055ee550wss7700u>uu>>>>,u00$,;;9+--9",
"O--@&ggk$eeya88aeaaqieeiy55yOee88eeOy55yieeiqaaea88ayee$kgg& ..-",
"O++ 9ss<422<<<<<<<<<<<<44444$228822$44444<<<<<<<<<<<<224<ss9@  +",
"O++ 9ss<422<<<<<<<<<<<<44444$228822$44444<<<<<<<<<<<<224<ss9@  +",
";++ Xss2,,,>,11,,55><>><,22>$228822$>22,<>><>55,,11,>,,,2ssX+  +",
";@@@-22<7>>1,>>u000$u>>,7yy7$558855$7yy7,>>u$000u>>,1>>7<22-+@@@",
";  O%ll<<22<<<<<<<<<<<<44444$<<88<<$44444<<<<<<<<<<<<22<<ll% @@@",
";  O%ll<<22<<<<<<<<<<<<44444$<<88<<$44444<<<<<<<<<<<<22<<ll% @@@",
"#zz;9xxscccycqqeeaaqieeyy77i ee88ee i77yyeeiqaaeeqqcycccsxx9   z",
"   #-115v$$7,>>>>uu7$uu71ww7055ee5507ww17uu$7uu>>>>,7$$v511-O  @",
"i  #%>><7,,,>>>>>55>2>>2><<2$<<ee<<$2<<>2>>2>55>>>>>,,,7<>>%OOO@",
"i  #%>><7,,,>>>>>55>2>>2><<2$<<ee<<$2<<>2>>2>55>>>>>,,,7<>>%OOO@",
"#OO#->>4<<<2<44<<<<<<<<4<4440<<ee<<0444<4<<<<<<<<44<2<<<4>>-OOO ",
"iOO#bcc$aeernmmeyhhg888qq77ereeyyeere77qq888ghhyemmnreea$ccbOOO ",
"#OO# 22p$ii5,ss$077w$>>,uuu7055ee5507uuu,>>$w770$ss,5ii$p22 rMM ",
"#OO# 22p$ii5,ss$077w$>>,uuu7055ee5507uuu,>>$w770$ss,5ii$p22 rMM ",
"#OO# 22du77><22,,>><>>>>,222$<<ee<<$222,>>>><>>,,22<>77ud22 ;;; ",
"#  #O22<<<<<<442<<<<2<<444440<<ee<<044444<<2<<<<244<<<<<<22O;OO ",
"#  #zwwuOiieeyyr ;;q;;;#$44ereeyyeere44$#;;;q;; ryyeeiiOuwwz;;;@",
"#  #zwwuOiieeyyr ;;q;;;#$44ereeyyeere44$#;;;q;; ryyeeiiOuwwz;;;@",
"#@@;#22>$>>5,11$i$$7uuu5sss>$55ee55$>sss5uuu7$$i$11,5>>$>22#M;;@",
"#---v44>,>>,1>>,7uu2>22,>44>$<<ee<<$>44>,22>2uu7,>>1,>>,>44v@OO-",
"#%%%044<<<<<<<<<<<<<2<<44444$<<aa<<$44444<<2<<<<<<<<<<<<<440+@@-",
"#%%%044<<<<<<<<<<<<<2<<44444$<<aa<<$44444<<2<<<<<<<<<<<<<440+@@-",
"#-- #NNqqcca5yyerttyu$$#u<<; eeqqee ;<<u#$$uyttreyy5accqqNN#O  -",
"i-- 4<<7>115>pp$0$$$7,,>uyy,$558855$,yyu>,,7$$$0$pp>511>7<<4   -",
";%%@4227>115>pp$0$$$7,,>uyy,$558855$,yyu>,,7$$$0$pp>511>7224@BB%",
";%%@4227>115>pp$0$$$7,,>uyy,$558855$,yyu>,,7$$$0$pp>511>7224@BB%",
" 99%:22,>>>,1>>,5772>22>,22>$<<88<<$>22,>22>2775,>>1,>>>,22:%--9",
" 99-:44444444444444444444444>445544>44444444444444444444444:-++9",
"#-- 4::>>,,><>>,,22<,11<244>>,,22,,>>442<11,<22,,>><>,,>>::4   -",
"#-- 4::>>,,><>>,,22<,11<244>>,,22,,>>442<11,<22,,>><>,,>>::4   -",
"O++ 7777777$u$$i$$$$#;;i$iiu7$$$$$$7uii$i;;#$$$$i$$u$7777777   +",
";;;+@###$$$$$$$$$$$$ --%@   @OO;###;O@@  @@%-  $$$$$$$$$$$$##;;+",
"OOO  OOO;&&V&$$CZAA;q22222222222222222222222222$&VV&$CCZA;;OO   ",
"OOO  OOO;&&V&$$CZAA;q22222222222222222222222222$&VV&$CCZA;;OO   ",
" OOO OOO;==O=$$AmAAO,ii@<>>>>>>>>77>>>>><<<@$77$=OO=$AAmA  ;O@@r",
" OO@OOO;### $$$mSmm;,$$ 477#744#O777#$$7#77;u77$#  $$mmSmOO;O  O",
"-OOO;;;;#$$>$##$7$$O,$$ 4$$D;$$DD;;$D;;$D$$;q77$$>>$#$$7$  O OOO",
"-OOO;;;;#$$>$##$7$$O,$$ 4$$D;$$DD;;$D;;$D$$;q77$$>>$#$$7$  O OOO",
"-OOr;;;OO;;#;;;;;;;#,$$O477;y$$+-ii7;yyq#77;q77y;;;; OO;O  OOOO;"
};
