/* XPM */
static char *result[] = {
/* columns rows colors chars-per-pixel */
"64 64 33 1 ",
"  c #272727",
". c #373737",
"X c #4F5363",
"o c #3F3F3F",
"O c gray31",
"+ c gray28",
"@ c #2F2F3B",
"# c #434757",
"$ c #5B5F73",
"% c gray12",
"& c #070707",
"* c #3F3F4F",
"= c #57576B",
"- c #333343",
"; c #373B4B",
": c #272B37",
"> c #0F0F13",
", c #171B23",
"< c #1F1F27",
"1 c #4B4B5F",
"2 c gray34",
"3 c #23232F",
"4 c gray6",
"5 c #2F2F2F",
"6 c gray9",
"7 c #676B7F",
"8 c #5F6377",
"9 c #13131B",
"0 c #0B0B0F",
"q c gray39",
"w c gray45",
"e c #6B6F87",
"r c white",
/* pixels */
" .XX.oOoOOooooO  oXX+@#O   oo$% & *=oo. .ooOOooo. -*o-*oOOo.oOOo",
" oO#;+X*#.% ..;.ooXX*:*; oooo*>,& .=****X;.ooo+.  -XX$*;Ooo.o+*.",
"%OO.<::-*<.o  *oo.@@<:o .oooo1 <&o.$;##XX..o o-oooX2##;ooo..o*-@",
".Oo <-oOX;o. ;#;oo oXO+ ooo. *;:& .O;#O+X+. ..#OOo;o*.ooo...ooo#",
"o   .XXO#*  .;OOo  .X#o oooo =*3&45*oX+@#*%%oo+oo.oo;-.....oo+*X",
"o   oXX: .< .oo   .o=X > oo.;$*@& o*oX*<.@@OOo....o.-ooo..oo.;*X",
". ooo*.   -X=O.     o.%%oooo*X*@&  :.+;oo.X=;.... . oOo..  %<*XX",
" o.oo*;@ .OX+o  ....oo .o. @.#. & o1oX#o..OX<    ..  ooooo.@o.-:",
" .%  ooo oO#..@;OoOoo*.O2*.: ..%&.o#o+.. oo-% X; o %.;o. <.*+o. ",
"..  oo** oO+.  .o  .oooo;@.;;;o6&%oo.OO#oo. <;O  .% oo+ @o#+Oo o",
"....oo.  o.   oOo %.   oo.*;.+.%&.;O oo;ooo..OOoo. OOoo ooXOo. o",
".% *O. % ;.:.oOOo@;-.o o;. :oo.6&3*7*ooo.;**+OO;;.XXoo..X+**;;oo",
";@*#=OOooXX#XXX+oo==XO .@..*#+@>&<X8Xo+;o;*#;*+<.;=XX. .;o##++oo",
"*.#XX;oO2X#*###o.@*##X.  o;*#*@&&688X*.+XXX#-;*oOXX*X- ..o+XX#**",
"-*#X#XXXO;==*-3 @:-;**. oX;.;o 4&<#X=*##OXXXX@-o+##**. .OX+*..;;",
"*+*-#X;@@-XX***;O:.**;. .X***#13&@+XX#OO+#oXX:#++*;@*; oX=# %@**",
"X#-.#*-.o**-;X===..+Xoo ;XX#;*:,& *XX#*++-<.::=X..;.#ooo#X#<@#++",
"..;;##*X2*..o;+OO .OOooo.#+;ooo.&.*X7;XX*< o..o;ooo.o..o*#+;o;..",
"oo+@oOXX#@.oo;oo %.oo.oO-*#oOX#@&.*2O+=#<%..o;+Oo..oooo####;o#*#",
"oo#oo*.@#*ooo-XOo .o...;-*X*o**<&6;+;;-:.*+oo*XOo..ooooO*#*-.--*",
".o...;3;X##+o;#o. oO   .-*X*.oo9&>5X.OX#*XX;oX#+oooO  oO*X#*;.;#",
". .. -;***X;ooo . oo+oo;*-*; o.>&65;XXO#*=Xooo+ooooo.oo**#*;;ooo",
";o. .*oo*XXooo..o.oXX*.;#O;o.o.,&> .+=5o*#*ooOooooo##Xo*#+ooooo.",
"oo oo+ooXOo..o....o+;oo.Oooo.o. &,o ...oo;;ooo    .;;;oo+ooo.o..",
"*#.o.o..;;o.oo .o.oX+oooo  . oo &<oO*OO.*;o#. >  .o+ooooo. .....",
"X#o.@.;o+#-o#;<.o;X=+ooo %.XXOX>&3o8XXOo#+++.<@;oX8*.oo.-  -;o;*",
"=;<@@#=X#O*.**o.;***;.o;;-X+oOX>&&--#XXX#;*+:<o++=X*o. -**XXOOXo",
"OOX=#X#;.O#*XXX:X$#XXX##X;..O5@ &4 <#X$=Xo*-%@X#X=X#X#XX#;;ooo#o",
".*#*@#*:;;+;*;-@=X*X$#-;;.;-oo; &>@;*X=8=22*;+#XXXXXX###;.;#oo*#",
":-#*@##+1=;@,<:.o***#-;ooo;;1#-,&, @@;#X$88X***++#**;o.;oooo;;;o",
";8=-<,,93,,<<@;-.,<@<.#X*-.@@;9,&, <,@;*###*:<,,4 @  1-1=#. @,,,",
"3+990,-1:&<% 4664>%< -;*@<00>,4,&>00;@-3<<< %>9,9>,,,9,@;.,, >@1",
"&&&&&&&&&&&&&&&&&&>>&&  &&&&&&&&&&&&&&&&&&&&&&&&&&&&&&&&&&&&&&&&",
" ,>;:  @-:1:0&>90,403,@ 3@.@:949&,9<,  @*=-@,9996>61;;* 3@;*; :<",
";*#*Xo;-.-1#*$;-33-3<;#=*#X*-<69&--#*o*@ @-<,-,;;-,    -: @-<,3@",
"*+#*X#*;*.*;*XO#-;=+*#XX@XX+;:<,&.;<:;**@.XX#**X#-3+#*-3*$XO@,- ",
"@@.#X*--*XX.@#O=-;X#*;2=*X#@.;@,&9*--@--:XX;;@@#*-<;#@ **#;@-#X*",
":<;XX;#-#$#;#=X#@+O+*;X=*+.;##X,&<==X;X#*##*::;=OO.-*.-#*;;#X88X",
"..X=XX#.OOoX=8X* .o:.##*-O;-#2q@&.=X*#=X++OXXX==+o..X8X**o##XwX*",
"OO8X**:oO+*+##*-:;o<@X+:*X@ -OO &.X*.*X+;;;.;*##Xo.#XXO*#X..*O+;",
"X+O*:3@Ooo#*-;o#+X+oOOOXX#:;*XX3&Oo*XX#*oo*-#*;#+*.oo+X2O#.#X#-<",
".;*.@*O2X;@%<;*#+ooooOOO+@:+O+;@&#X+*#oo*;*.;;*X;oooooooo#*OX;o;",
"o@::<#=OO. 3#X**oooooo+*@ **-@;,& X#**#oooo;*#X+oooooo**oo*-***;",
"X*@.-2X..@:o2O@% ;**o;-#*O#.<:* &-#;*+X##+*oo+o;o+**;;*X***;@;*.",
".--*;X#.-*#XO;@@o;;@<.;X#*#+;#* &3*-;.*;+***oO+*o*;*#+XX**#+.##.",
".o-;+=;.<.;###XX*;o *XX=#*+o@o: &,:*o<@..;o+##**;*;o++XX**;;;+o.",
"oXO*X=*;*#X*-:-#-+O.O+X##*o. ;o,&*;XX#=#**..*****+#o;+XXX#;o;@ o",
"oX=#*##XXXOO.:.o-##o  +X#+o .oo &.oX#X8=##+.;:@;*##;oo;X#;ooo.oo",
"8e8#-X*X+X=2#X=X.;;;ooX#.o .oOo:&-XX*X=;<:**X@*#o**;ooOX;ooooooO",
"O##..*--.OOOoo+. .+..oo*.  oOOo,&3X; #X<%.+XO ;+o.;..o.@.oo.oooo",
"oo#.;--*oo .oo.< .o  ooXO..o.  4& #.<*.<.OOO.%oXooo..o.*. o.o   ",
"oo@ .@o*+o   %%@#*Oo.+X=.  .  . &oO;o+O#*+O..oO**#oo.;;X; .o % o",
"oo    .oo. oo .o*-o .XX+ .o.oOo & ooooo;.oooo. .##..o**;o.o % oO",
"oo. o..oooooooo. .oooOo.  oooOo & +ooo.ooooo. .o+;.ooo;o..oooOOo",
"oo....oooo.;oOoooOOOo;@. .oo oo &.ooo.oo..;o..ooo..oo*+;ooo.oooo",
"o. ..ooOo .Oo#+ooo.;*##+oooo ..,&ooOooo.  <  .@...o;*##oo.. oo  ",
"*oooo.OO.ooo..@....o;o*.o..o .o4&oo8ooo % .. @ ... @.5-.o.ooO.% ",
";o. ..o  oo   o.....oo.-...o.Oo,&+;+ ..% oo..oooo.%.  o+o.  o..o",
" ..  o. .o. .o. ...  ....o... .>& oOo   .oo .Oooo  o oOoo >   oo",
" ooooo  .. .oo o....oo.oo.%   .,& o$oo.oooo.ooo   .ooOoo.  ooooo",
".ooo.    .oo.. . ooooo.oo% ...% &OO. o..oOoo.o   ..oo  ..  oooo.",
" ooo.oo..ooo..o.o.....ooo.ooooo &,+#oo. ooo  oo. .oo.  .o.ooo.oo",
"Ooo.  o.ooooooo .ooo o...oo..  4&,5Xoo  o.     % .oo..ooo.o.  o.",
"OoOo  ooo.ooooo.        .    < 0&,+1 .% .oo...o  oooo.oo.oo. .o%"
};
