/* XPM */
static char *xpm_[] = {
/* columns rows colors chars-per-pixel */
"64 64 34 1 ",
"  c #373B4B",
". c #272B37",
"X c #070707",
"o c #3F3F4F",
"O c #434757",
"+ c #0F0F13",
"@ c #23232F",
"# c #1F1F27",
"$ c #171B23",
"% c black",
"& c #2F2F3B",
"* c #0B0B0F",
"= c #373737",
"- c #13131B",
"; c #2F2F2F",
": c #4F270F",
"> c #272727",
", c #771F00",
"< c #C70000",
"1 c gray9",
"2 c #AB0000",
"3 c red",
"4 c #57230F",
"5 c gray12",
"6 c #572B0F",
"7 c #9B3F0B",
"8 c #6B3717",
"9 c #6F331B",
"0 c #333343",
"q c gray28",
"w c #8F3707",
"e c #871F00",
"r c gray31",
"t c white",
/* pixels */
"  ..............Xoooooooooo   o  oOooOoooo   ooOX..............+",
" ..@@#@##@.####$% &&&.&.&&&&...& .&&&&&& && &&..%.@@#@##@.####$*",
" ..@@@#@##@@###$% .&& &&.&&&&. &&&. &.& &&& && #%.@@@#@##@@###$*",
" @&&..@@@..@.@@$% o&=..&.&&&&&&&....&&.&&  &. &-%&&..@@@..@.@@$*",
" @.@......@...@$%o=o .&&&& &&&.@@.&&&&&..&.&&.&#%.@......@...@$*",
"o.&....;::>...@$%o==&= &&&&&&&..@@.& &&..& &  &#%&....;::>...@$*",
"  ...&>,<<,;..#1%o=====&&&&&& &.@.@&...&..&& &&#%...&>,<<,;..#1*",
" &&...:2332:&.#$% ..&.&#$@&&&======&&.@@$@@.&&=#%&...:2332:&.#$*",
"O&.@.&423324&.#1% .....--*$$$$>5>>>>>>>*+$.====#%.@.&423324&.#1*",
" &&@.&:2332:&.#$% .;..@@-$@#..##===;;=&#-@&==&=#%&@.&:2332:&.#$*",
" &...&673376&&##% ..@@@@@@@@.@@.@&=;>;.&..@=;.=#%...&673376&&##*",
" &.#..673378&.#1%o&@@@.@@...@.. &&.==...&.&==&=#%.#..673378&.#1*",
" &.#.&673378&.$$% .@@@@@ .&.&&.&&&&&&...&&.==&=#%.#.&673378&.$$*",
"O&.#.&673378&.##% .&@...&&@@& .&&&&&&..&&&&====>%.#.&673378&.##*",
"o....&623378..#1% =.@@&&&&&.&&...&&&&&&&&&.=;;=>%...&623378..#1*",
"o..@.&673378&.#1% ;@@@.#$@&......@@.&&&#$@.==;;>%.@.&673378&.#1*",
"O..@.&673378&.#1% ;@@@.$-*$$$$$-$$$-$$$+-$@;;=@>%.@.&673378&.#1*",
"o..#..673378&.#1% =&@#@@-@..@....@...@.$$#.;===>%.#..673378&.#1*",
"O..#@&673378&.#1%o..&@@@.&.&&&.&.@..@@@.&&.=;=;$%.#@&673378&.#1*",
" ..@..623378&.#1%o@@@@.@.&.&&.&&&@..@.&&&&@&=.=>%.@..623378&.#1*",
" &...&673378&&@$%o..@@.@&&&&&.&&&..@@...&.&&&&=>%...&673378&&@$*",
" ..#.&673379&0##% &&.@.@....&&&&....&&....&&&&&>%.#.&673379&0##*",
" ..#@&:23326&&##% .&.@.@@...&...&&.&...&&.&&&&=>%.#@&:23326&&##*",
" ....&:23324&0##% ...@@$-@@.@.@.&.@.&..#$@&&&&=>%...&:23324&0##*",
" .&..&;,<<,;&..#% &.@#@-**$$-$$$-$$$$$$++$&&&&=>%&..&;,<<,;&..#*",
" &...&.>::;;0.##%o.....$-$@..&&&&......$$@&&&&=>%...&.>::;;0.##*",
" .&..&.@@...@=##% .@&@.@@.@&@..&&...@....&&&&&=>%&..&.@@...@.##*",
"o&&.....@@.@.=##% @..@#@@.&@@.@.&..@@@@...&&&&=>%&.....@@.@..##*",
"o&&.@@#@@@@=;;#1%o.@@@@...@@@@..&.&@@@&&@&.&&&=$%&&@@#@@@@.@@#1*",
" .&@@######>>>#$%O.@@@@@.@@.@..@.&.&.@&&.&&&&.=>%&;@##########$*",
"o@.@#######>>>$$%o=@@@#@&.@.@#..&&&&&..@@&&.@..#%.;##########$$*",
"o&.@##@#@##>;>#1%o&.@.#@-@...#&=&&&&&&&@$#..&..#%.;##@#@###@##1*",
"o@.##@#####>>>#1% .....-++--$$-$$$$$$$$++$.&&=.#%.>#@#########1*",
"o.&@;@###>#>;>#$%o&&. .$-$...;@=&=.&&@&@-$..==.#%&;@@######@##$*",
"q@.@>>###;#@;>>$%o&&.&@@@;=;==;=.&&&==;.#@@.==.-%.@#####@#@@##$*",
"o .@=;#@@@..@;>$%o&&&.@@..&;=;>=&&.=q&&....#==&-%.@=@@@@@..@@#$*",
"o&..===@.....==1%o.&.......@@$====.&.==.&&&===@-%..&..@.......1*",
"o@.@.===.....=>1% .&=..@.@@.@@.=.&&&@.=.@.&===@#%.@..........#1*",
" ....&...&&.&&>$%o===.&@..@.@@@;..&.....&@.=;=.-%...&...&&.&&#$*",
" @.@...;:4;;&.>;%o===.@$$$..@@.#@..@...#$@.===.-%.@...;:4;;&.#@*",
" ..@.&;,<<,;&.>>%o===@@-+*$$-$----$$$$$+-$.&=;;#%.@.&;,<<,;&.##*",
" &.@@&:233w=&&&1%o==.@@$-@@&.@@@#@@....#$@..==;#%.@@&:233w=&&&1*",
" ..#.&973378&&#$%o=;@.@..==o.@@.#@.@.@&@&&@&.;;#%.#.&973378&&#$*",
"o..#.0873378&.#1% .@@.@..====...#@@.@.&&@..&.@@#%.#.0873378&.#1*",
" &.@.&873378&.#$%o.@...@.====...@;@@..&..@.&.@@-%.@.&873378&.#$*",
"o@.#@0873378&.@1%o&&.@@@..===&.@.;@@@..&&..&.&@-%.#@0873378&.@1*",
"o..#.&873378&&#1% &&&..@...&=&.@.;@@@&&..&.&...-%.#.&873378&&#1*",
" &.@.&873378&.@1%o&..@.@$#.&....&#@@..&#$@..&&.-%.@.&873378&.@1*",
"o&...&873378&&#1% ..@..$++$$$$$$$$-$$$$++$ .& &#%...&873378&&#1*",
" ..#.&873378&0&1% .....$$#@@.&& ..&.&&&&$@...&.#%.#.&873378&0&1*",
"o..@.&673378&&@1% @...&&.@@@.&.&@..&.&&&.@@@..&#%.@.&673378&&@1*",
" ..@.&673378&&@1% .@....@@.@.@ .@@.@.&&&.@@..&.#%.@.&673378&&@1*",
" ..@.&673378&&@$% .@@&.@.@@@@@&&&@.@&.. &....&&#%.@.&673378&&@$*",
" &&@.&673378&&.$% @@@@.@#@@.@@@.@@@..@@o=.&.&.&#%&@.&673378&&.$*",
" .&@@.423379&&@#% @@@.@@@..@..@@.@..@====.&.&&&-%&@@.423379&&@#*",
" ..#@&:2332:&..$%o&@@@#@-@.#@@@...@.&===>#&&.&&#%.#@&:2332:&..$X",
" &&...>23324&&.#%o&&.@@-**$$--$$-$$$$>>$1$...&&#%&...>23324&&.#X",
" &.@..;e332:.0@$% =.&.@@-@@.@..&@& &&===$#&&& &#%.@..;e332:.0@$X",
"O&....;9,,,>..@#%o>@&..&..@..@@ ...@ &.&.&& &==#%....;9,,,>..@#X",
" ..#@@>>>>>>.@##% &;=r====@...&&.@@@&@.@..&.&.r#%.#@@>>>>>>.@##X",
"  &####@#####@@#% ===oq==r&&@.&. .@&@.&@..&=o==#%&####@#####@@#X",
"o.&#@@###..@##@$%o.&&==o&..&..@@.&   ....@..&@@#%&#@@###..@##@$X",
".#@$11#11111#$11%&####@##@####-####-#-###-#####-%@$11#11111#$11*",
"+**************X%******************************X%**************+"
};
