/* XPM */
static char *xpm_[] = {
/* columns rows colors chars-per-pixel */
"64 64 68 1 ",
"  c #373B4B",
". c gray39",
"X c #3F3F3F",
"o c #2F2F2F",
"O c gray34",
"+ c #939393",
"@ c gray12",
"# c #13131B",
"$ c #8B8FA7",
"% c #57576B",
"& c #878BA3",
"* c #333343",
"= c #3F3F4F",
"- c #2F2F3B",
"; c gray28",
": c #7B7B7B",
"> c gray42",
", c gray45",
"< c gray31",
"1 c #5B5F73",
"2 c #4B4B5F",
"3 c #1F1F27",
"4 c #4F5363",
"5 c #434757",
"6 c #0F0F13",
"7 c #5F6377",
"8 c #070707",
"9 c gray64",
"0 c #777B93",
"q c #838383",
"w c #C3C3C3",
"e c #676B7F",
"r c #73778B",
"t c #6B6F87",
"y c #8B8B8B",
"u c black",
"i c gray70",
"p c #9397AF",
"a c #9FA3BB",
"s c gray67",
"d c #9B9B9B",
"f c #CBCBCB",
"g c #BBBBBB",
"h c gray86",
"j c #979FB7",
"k c #A3ABC3",
"l c LightGray",
"z c gray89",
"x c #ABB3CB",
"c c #7F839B",
"v c #272727",
"b c #BFC7DF",
"n c gray6",
"m c #B3B7CF",
"M c #B7BFD7",
"N c gray97",
"B c #EFEFEF",
"V c #272B37",
"C c gray9",
"Z c #435F93",
"A c #373737",
"S c #87AFFF",
"D c #171B23",
"F c blue",
"G c #5F7FAB",
"H c #23232F",
"J c #2B437B",
"K c white",
/* pixels */
" ........XoO++@o+++++O#@O$$+++O#@%+$$&+%#@O&+&+&@o+&%@*OOOOO%%%*",
"ooXo==== -@;:>@o>,::,;#@;.<<<.X#@ 1=22.;#3;,,,,.@o>,X#3oooo*@#@@",
"ooo 2 ;XX-@;.O@o4....o#@*O<<52o6#o5=5=4o6@oOOOO<#oOOo#@@oooo33@@",
"oo 522;<;*37><#35%..Oo6#oOO<5538#3 =55=o6#o<OOO;#@<OX#@oooooo*o@",
"o;2%%4O<;o@>94#3%70q,o6#o>>..1o8#oOO..Oo6#oO.>.;#@O.o#@o;X;X<<;@",
"o=411%2 X@@Owe#@rq+++X6#;qq:te;86 .>>,y.6#o.,:>O#@..X#@oX<<<OO;@",
"o<O.1.<uuu#ipe-@,+asd<6#<+++qe;u8 .,,,q:86;:q:>>>,.dq##uo;OOOO<@",
"o<.... uuu.fq:+d$agws.o@;+99+,;## >:+syO##;q+::++++dquuuu;OO.O;@",
"oO>.>7uuuu@wi,+pwfhfg>o@Ojkid&5@@=,+slwo#@<+d9dy9wzwXuuuuu.>.O<@",
"oO>eeeuuuuuiwjxszhfli>o@1+ig9+5@@5,sshgX@@O+9is++:9louuuuu,,..<o",
"oOtt,tuuuu.hwld+qswq:<@@Xe+&+.*##-4,0d+o##X>,::,>O,gXuuuuu:,,.Oo",
"@O,::0uuuuXs9yuuO9wuuu#uuuuuuuuuuuuuuuuuuuuuuuuuuu.>ouuuuuqq,>Oo",
"oO::qcuuuo,llyu.q9fs&01*==;;<=uuu85==;XXoO+shzhi>u>9.uuuuu+:,>Oo",
"oO>,0qu@,9ywdXuoo;<<3>.O1e>qqcq+++++pd999i+oOOO<ou:9iuuuuud9>.<o",
"t++d$sfhzhld<-uXOe+:v..;<OO..>t:0:cq&++++s+o+++.;u>igawlz9bwqc,t",
".yds>.$bbe=-O;u.qglw+.X##@O@###uu###@O@#6<.ihzld>u>9fhhzzskb$777",
".,..O<+.d6n#3#u7qglld:;@@<+<@@3uu@3@<+<@3++llhzd>uX,9:iiwd+9.uu7",
".d@Oqdyrw<-5 3u7+mzhM&.@@<g<@oXu82:,rl+<+qhNhhBd>uoOxpdi+i=-3uu7",
".q<.wi9afs+r7*uV*5O>:qw9:::::::q:sgsssiwwwwh+>woou>+wgd.9zr 3uu7",
"O9:shl9g9g,< 3uO9sgq<pl9ysi:ss9ly:qqq+qdyg+q9gzOXu*Osco-ef%3#uu7",
".iyylgzzwg,@X,u:ihBz0 eX#o>o#<wuu###X,X#6o 7&lz+5u@3,C@#Og3#uuu7",
".,OXlwmNlw9ey9<+igzf$Zv#@O+O@@luu@@@O9O@#;Zr$gz&4uo<+;*o>i o#uu>",
"..X,ydkMq+gadgwdwllwpZ5@@O,O@osu8oX@O,O@@;Zcpwh+4uO:d.t5ew2 3uu>",
"..@>,gh.v@AgisdsglhipZ2@o@S@oo:u8XXo@S@o@;ZcphB+4uo<,.=vei;3@uu7",
"Oyq.#hkA@DebMiqpgffspZ2@oFSFoo.u8ooXFSFo@;Gcpghj4u33>;D@,wo@uuu>",
"O+d#,lr3;OMbM7p$dggs$G2@oFSFooXu8XoXFSFo@<G&pglj4uo595O*yw 3#uu7",
"Os:@.lr;:ddMtvXej9is$G2@oFSFooou8XXoFSFo@<G&pihj4uOq9.yO2b2 3uu>",
">lu#@lO;<-<d1v3Opii9$G4@oFSFooou8XoXFSFX@<G&$glq<uo5O<OH=r 3#uu.",
"yluu#s;3@C,q#Cu.agid$G4@oFSFooXu8XXXFSFo@<Gc&sw:<u33o33<O>3@uuu.",
".+u#@MO<*H+b=ouXjk9d$G4@oFSFoXou8;XXFSFX@<$xx9ky<uo,O42OX>:o@uu.",
".ou@;w..0.wh4<uAr$w9&G%oXFSFXoXu8X;XFSFXo<$xx9k$5u%kswMqO.d.ouu.",
".uu#@M.;<H9aXou;.$bk$G%oXFSFoXXu8X;XFSF*o<G$xdkj5uoy.+9+;9;X@uu.",
"9uuu#MO33#Oy33u<ekbMjG%oXFSFXo;u8X;XFSFXo<Gcci$$23333o<:vso@uuu>",
"+uu#@MrX<-yjXXu$aghwjG%oXFSFXX;u8;;;FSF*o<Gc0g&$1;o524+g;+ o@uue",
",uu@Xx>=:0dc2<u..>+djG%o FSF X;u8;;;FSFXo<G0rxq>7;Oq&sgd,dO;vuue",
".uu#3d ;<X2yXou;..-9jG%o FSFXX;u8;;;FSF o<Grtsxy5uX5OOOO;< o@uue",
".uuu#q33@33,33u=<.OikG%o FSF;X;u8;=;FSF*o<Grtslf=u3oovAOvvv@uuue",
"Ouu#@<;<<O1qX3u=1<,sMG%o FSF;;Xu8<;;FSF o<GrcdMh=uX5OOyeo= o@uue",
".uu@;<.:+d9+=*u.q%,9mG4o;FSF<;;u8<==FSF o<Grtaxw7uO0&dp0*1O;oune",
"Ouu#@X;<<Oq1X3u:+..srZ2o FSF;<;u8<=;FSF o<GtepMwyuqOO4>,X<;o@nXe",
"Ouuu#o@@@@@X3@u.qqq+5Z5o=FSF<<;u#<5=FSF o;Zee$xb7u,ooooy@oo@un>e",
"Ouu#@>;=<O4=Xou;,9i91Z5*;<S<<<;u8<===S  o;Z77yabjui+OO%,D<;-@@q,",
",uuX;+O7:+d&:%u*:lfb$J5*o%,%-<;u#<<o1:1ooOZ170sbj@ww9spc;>O<ood,",
"+ou#@q;<XOOO5ou-+fzi4J4*o1x.-5 u#<<o1d1ooOJ%47$acXi99+%%-O<X@o+>",
"+.uu#9@@@3:,@@u@X+gO#*OO.:+::qswg9g&9dllhi>#3#Xdwu,q,::X@oo@uX:>",
"ddo<,q;<5Os+ @uovclq@Or$O+>>+swlgw++c+wwws>@XXv>kuX%ykwyO5<Xos9>",
"+99.yq.:+df,.XuO=rf14Xq:@d;oo,y98@@@oX<:,@o2.o<<duOc+hzw:>O<qz97",
"ddiiy+;<;qs< ou< 2w12V O3g9<@*q+6oo@<9.q>X;2O--;9u549bhs+.d>9zs>",
"ywfww:9+::qq0Xu< 5g%2*2*-9+<*4r.#<O-<+<..<;5Oov;yu&9www9+++isgp>",
"oo>+i9q<XXX..Xu3##>#6O&&+9++++ss++++++++y+O6##6-qu,r:<<;;;=;;;=;",
"6#<s6@uuuuuX.Xuo3@@@<+++ddd9bwd++++dddddc&O63@v;bu,,<uuuuu@3@@@@",
"#@XwC@uuuuuX.XuX3oXXO>X< 4yydyou6@ ; XX o3@* X*Xgue,;uuuuuXXX;X@",
"@v.svAuuuuuX.Xuuuuuun.uuuX.gquuuuuuuuuuuuuuuuuu@duee=uuuuu.....X",
"@vqf#AuuuuuX.:+pppddd.@@.d9ll9.@@.d99dd.@31pppdddpe>;uuuuu.....X",
"@-,sCouuuuuoO.>,r0++qO@@.9ihl0=@@;:++q+>@@2cc0rccree=uuuuu....>X",
"@AArDXuuuuuoO.O>rc+adO@@.9ibw: @3;,++qqy@@5cccr0rt>>;uuuuu....>;",
"@AXqvAnuuu8oO..>>0++023@O+da9e=@@=,++q,i@@=0c0,t7..e 6uuuC....>;",
"@AA;HA;nu8@o..#@.>,.t=6#;:qxqt ##Xr+c:.y6# rrrrr3@>e;@8uC>...>>;",
"@AA>vooO.o#oOO#@O>,te 6# e,y,eo6#=0q0.%.6#=er,tr3#>,;o5::...>>>;",
"@oAq3AAoX@#oOO#@O.>+q=#@;t>>>.X#oO+ct7%o#3=e777%##,e;oX%.....>>;",
"@o--vAAAo3#o..#@<O.>,X##;.OO..X#oO9:e1%X#3=t7777@@e,=o*.......,;",
"@o--oAA-o@#o..#@OOO.Oo6#XO<;O.;#@<9,14%5#3=r.777@@ee=o*%.....>>;",
"@oooAoo--3#@AAu8AAAXX@uu@o@@o<o6#o,%;*<;6#X5XXXX88;;ooX%%.....>X",
"#3@@@@@33#6@oo88ooooo@uu@o@@@o@uu@o@@@o@uu@ooooo88--@@@**XXXXXX@"
};
