/* XPM */
static char *result[] = {
/* columns rows colors chars-per-pixel */
"64 64 28 1 ",
"  c #333343",
". c #2F2F3B",
"X c #272B37",
"o c #1F1F27",
"O c #171B23",
"+ c #272727",
"@ c #4F270F",
"# c #572B0F",
"$ c #23232F",
"% c gray12",
"& c #271700",
"* c #3B1B07",
"= c #373737",
"- c #5B0B00",
"; c #570000",
": c gray9",
"> c #13131B",
", c #432B07",
"< c #0F0F13",
"1 c #331707",
"2 c black",
"3 c #0B0B0F",
"4 c #9B0000",
"5 c red",
"6 c #771F00",
"7 c #431F0B",
"8 c #070707",
"9 c white",
/* pixels */
" .. ...XXXXXXXXXXXXXXXXXXXXXXXXXXXXXXXXXXXXXXXXXXXXXXXXXXXXXXXXX",
"oOoX+++@##################@@@############################@$$$o%o",
"OOOXX+O&*****************&&&&&****************************$$$%%%",
"oOo++++&&&***************&&&&&&&**************************=$$o%o",
"++XXX+O&&&&**************&&&&&&&*&************************$$$$$$",
"+X+++++&-&&&&&&&;&&&&&&&-&&&&&&&-&&&&&&&;&&&&&&&&&&&&&&&&&+$$$$$",
"X$$$+XXO:::OOOOOOOOOOOOOOOO::::OO:OO::>:>:>,&&<OOOOOOOOO::+++++.",
"X@###1::2:XXXXX323XXXXX323X+XX+323XXXXX323+#*&:3222222222:+,@#@X",
"X@11*&:242XXXXX242XXXXX242X+XX+242XXXXX242X#*-:24555555542X6&1&O",
"X#11*&O252+XXXX252XXXXX252X+++$252XXX+X252X#*&O3222222222>X#11&O",
"X#1**&O252+XXXX252XXXXX252X++$$252XXX++252+@&&:+++XXXXX++++@11&O",
"X#1**&O252++XXX252XXXXX252X+$+$252XXX++252+@&&:+XX+X+XX++++#11&O",
"X#1**&O252++XXX252XXXXX252X$+$+252XXX+X252X#*&:+++++X+X++++#11&O",
"X#11*&O252++XXX252XXXXX252X+$$+252XXXXX252X#*&:+++++XXX++++#11&O",
"X#11*&O252++X+X252+XXXX252X$+$+252XXXXX252X#*&O+++++XXXX+++#11&O",
"X#11*&O252++X+X252++XXX252X++$+252XXXXX252X#*&O:2222222223+#11&O",
"X#11*&O242+++++242++++X242+$+$+242XXX++242X#*-O24555555542+611&O",
"X#11*&O323+++++:2:++++X>2>X+$++O2>XXX++:2>X#*&O>2222222223+#11&O",
"X#11*&OXXXXX++++++$$$+XX++X++++  XXXX+++XXX#*&OX+++++X+X+++#11&O",
"X#****###@@#@@@@@####@##@@@@@@@######@@@####*&OX++++++XXX++#11&O",
"X#*****&*&&&&&&&*&1111&&&*&&&&&77****&&&***&*&OX+XXX++XXX++#11&O",
"X#***&&&&&&&&&&&&&&&1@@@&##,&,,#7###*,,,*###*&OXXXXXXXXX+++#11&O",
"X#11*&<:O:::::::>>>11@@@&,,,&,,#7###*,,,&,##*&O+++++X+X++++#11&O",
"X#111&>3222222222:$#1@@,2#,#2,,#2#,#2,,,2###*&O>2222222223+#11&O",
"X#111;>45555555542$6111222*222&222&222&222*&*-O24555555542X611&O",
"X#11&&O3222222222:$#1@@@2,#,2###2,##2###2###*&O:2222222223+@&&&O",
"X#11&&OXX++++++XX++@&@@@&,#,*###7,##*###&###*&O++XXXXXX++++@&&&O",
"+#11&&OXX++++$$$+XX#&@@,&,#,2###2,##2###&,##*&:+++++XXX++++@&&&O",
"+#111&OXXX++$$$$$XX#&11&&&*222*242*222*&&&***&:++++XXXX++++@&&&O",
"+#111&O+XX++$$$+XXX@&@@@&,#,2###2,##2##,&,#,&&:++++XXX+++++@&&&O",
"X#11*&OXXXXXXXXXXXX#&,@,&@@#*#,#*,##*##,&,,,&&:XXXX++++X+++@&1&O",
"X#11*&O3222222222>X#*,,,&@##2#,#2,##2###&,,#&&:>2222222222X@&1&O",
"X#11*-O45555555542X6*******2421242*242&&*****-:24555555542X611&O",
"X#1**&O3222222222>X#*###*##,2@@#2,##2,,,&,,#&&::2222222222+@11&O",
"X#1**&OXX+++XXXXXXX#*###*##@*,@#7###*,,,&,#,&&:++XXXX++++++#11&O",
"X#1**&OXX+++XXXXXXX#*###*@@#2#,#2###2,##*###*&:++++XXXX++++#11&O",
"X#11*&OXX+++XXXXXXX#****11*222&242*222*******&:+++XXXX+++++#11&O",
"X#11*&OXX+++X+XXXXX#*##,*###2#,#2###2###*###*&:+++XXXXX++++#11&O",
"X#11*&OXXX++X+XX++X#*#,,*###&@,#7###*###*###*&:+++XX+X+++++#11&O",
"X#11*&O3222222222:+#*#,,2###2,@#2###2,,,2###*&O:2222222223+#11&O",
"X#11*-O45555555542+6**&222*2221222*222&222***-O24555555542+611&O",
"X#11*&O3222222222:+#*#,,2###2,@#2###2,,,2###*&O>2222222223+#11&O",
"X#11*&OXX+++$+$+$$$#1@@@1,,#&,@#7###*,,,*###*&OXXXXXXXX++++@11&O",
"X#11*&O++$+$+++$$$$#1@@@1@,,1,@#7###*,,,*##,**#@#######@@@,***&O",
"X#11*&O+++++++++$$$#111111&&&1&77****&&&********&******&&&&***&O",
"X#11*&O+X+++X+++$$$#11&&;&&&&&&&-&&&&&&&;&&&&&&&;&&&&&&&;&&***&O",
"X#111&>$$$$$$$$$$$$#1&3>:OO::::OOO:OO::::::OOOOO::OOOOO::::@11&O",
"X#111&>3222222222:$#1&>:2>X++++>2:+XX++:2:+XXXX>2:XXX+X323X#11&O",
"X#111;>45555555542$61&>242XX+++242XXX++242++XX+242+XX++242X#11&O",
"X#111&>3222222222:$#1&>252X++++252+XX++252+XXXX252XXX+X252X#11&O",
"X#111&>$$$$$$$$$$$$#1&>252XX+++252XXX++252++XX+252+XX++252X#11&O",
"X#111&O+XXXXXXXXXX$#1&>252XX+++252XXX++252X++X+252+XX++252+#11&O",
"X#111&O++XX+++++XX$#*&O252+++++252XXXX+252XXXX+252XXX$$252$#11&O",
"X#111&O++XXXX++XXX$#*&O252+++++252XXXXX252XXXX+252XXX$$252$#11&O",
"X#111&OX+XXXXXXXX+$@*&O252+++++252XXXXX252XXXX+252+XX$$252$#11&O",
"X#11&&O:2222222223+#*&O252+++++252XXXXX252XXXX+252+XX$$252$#11&O",
"X#11&&O45555555542+6*&O242X++++242XXXXX242XXXX+242+X+$$242$#11&O",
"X1&&&&O>2222222223+#*&O323X++$+323XXX+X323XXXXX323X+X$$:2:$@&&8O",
"$>>>>>$$$$$$+XXXX++,&&:++++++++XX++++++X++++++++++++++XX++++::O+",
"$$$$$$$@##########@***@#6#####@#6@@@@@@#6#######6####@#@6,++XX++",
"o%o$$$$111111111111***1111111111&&&&&&&1111111111111111&&&:++oOo",
"%%%$$$$111111111111***111111111111&&&&&111111111111111111&:+XOOO",
"o%o$$$$&&&&&&&&&&&&&&&&&&&&&&&&&&&&&&&&&&&&&&&&&&&&&&&&&&8:+XoOo",
"XXXXXXXOOOOOOOOOOOOOOOOOOOOOOOOOOOOOOOOOOOOOOOOOOOOOOOOOOO.. .. "
};
