/* XPM */
static char *result[] = {
/* columns rows colors chars-per-pixel */
"64 64 18 1 ",
"  c #230B00",
". c #0B0700",
"X c #2F1707",
"o c #170B07",
"O c #270F00",
"+ c #0B0B0F",
"@ c black",
"# c #431F0B",
"$ c #2B1300",
"% c #331707",
"& c gray6",
"* c #331F00",
"= c #3B1B07",
"- c #1F0B00",
"; c #23130B",
": c #271700",
"> c #671F00",
", c white",
/* pixels */
"   ... X   Xo o ooo  X X. o OX+@o#$oO   OXX O Ooo..  o  o  o XOX",
"  OO .    .ooOo....   X.. %oO +@o#$ X XO  o oo   O o o ooXo    %",
".o   o.   &oooo.o o   o   ooo +@o#*o  o.  Ooo Oo.oO.o X oo  o o ",
" ... O o.oo   o o.o&. oo.oXX o+@o#$=  o.oo        oOoOo X o o oX",
" .. . oo. .   o    ooXo  . X%%+@.#$o  OoX XooXXX O  oo .O  o o o",
".X.. ..o.oo  ...   oooo.  OXXX+@.#-.OX  ooooO%OXXOXXo  o  o ooOo",
"  o.    ..  .. ..  oO oooo ooo+@.=Oo   o;o.oOXOXOoOX o.    o ooo",
"o.oo XXooooo. ooXoo ;oXOX    X+@.=o   Xoo oooX oOo$$oo.o..o.oXXo",
"o Oo.oO.o OOX OX o.oOoXOOXXOXX+@.=ooOX  OoOooOOOO-o.Xoo.  o.  Oo",
"      oO o%%O%%%O%%o Oo o    o+@.=O.X o o  -oO   O o ooo  o.oo  ",
"oXXX O  OXOXXOX XOO o.OoX oO  +@.=oOOOoo .. o o&   o oo   OoX Xo",
"O%OXXOXXOOO%=%XX o=o o.o oX.oO+@.X. .oo..o &   .ooo . o.OX  oooo",
"OXOXOoOX oO=%%XoXooX   . X o o+@.=     ooO    oooX  .  X   o;o.o",
"oX oOo$$ -::$$$   XooX o oo   +@.=     ooOo.  oo O o.oOO  Xoo oo",
"oOOOO-o. OooooO o  OOo  o. oo +@.%..  .o   o o  oXXXo o.OX  OoOo",
"oO   O oOOO OOO. o ooX%X.o .o.+@.= ooooo    o.o.OXOOo XoX o o  -",
"oooooo o%O% OXooX X oooX o .. +@.= o.. .o .  o   XX o.Xoo oo  oO",
"ooooo  ..oo.o ...ooXoXoXoXXoX +@.X  X oo..    o X   o. OOOoooX$ ",
"-OO;Oo ooooooo.... o.oXX XXO O+@.% o X    .   . .o o  Oo OooOO$ ",
"OXOXO  o. .o X .ooo.X.oo O   O+@.XOooOooO oX  o o  o ooO o& O  $",
" oo.  o. oX   O.oX&oo.. .oo XX+@.%XoOo X o  o OoO oooo oo X  O$:",
" o- O  o ooo  Xo.O oXXoo.ooOXo+@.=XXO  OoO X  X ooOooo %XOXO  : ",
"O  oXO o oo    oO... Oo   XXO +@.%    .oo.o X  oo oooX   oOO: -$",
"oXOOOOOO O O. OoXOoOoo oXoXXo.+@.=   O o.OoO.oO o Xoo  o O   :  ",
"XOOOo XXOX ooooooX    o o OXXX+@.=oooo.  .o..oo  o  o ooOOOO:$: ",
" OXOO   o    o oOX.o %oOo  O  +@.= -ooooo.oo&o    ooooooXo%O : O",
"ooXO   o.    o   XOX. OO O Xoo+@.=OO;Oo.;  X  oooooo.o o%OOX$$OX",
"oo=% oXX  O  O XXoO OO O  OO..+@.= OXo  o-oOOOoo  O   OOX- O$$Oo",
"oOooooOO %OXOO o OooOXOOOXOX ;+@.#:$:$oOoO OO-oooooooX-oXO $-:  ",
"oooOoo=OoXOXOOOoO %OX%oOoooXO=+@o#=:  -o OOXO. o -ooO o  OO$: oo",
"+++++++++++++++++++++++++++++++@.%++++++++++++++++++++++++++++++",
"@@@@@@@@@@@@@@@@@@@@@@@@@@@@@@@@.@@@@@@@@@@@@@@@@@@@@@@@@@@@@@@@",
".&..........................................o...o..o.....ooo....",
"======================##=======@.====%=%========================",
"OXoo OoXo%X;OOX  OXXXO $XOoXo*+@.=  oX o. ooXX  -OoXOOo$  -. O--",
"OX;ooOOXOXOX%X    $$==$$OXoo %+@.=X         XXX-$OOOO$X -$O-$---",
"$$$$$$$$$ $ $*$ :$=$$= *OOOOo=+@.=oO O      o XXOX *X  XX X .Xo ",
"*$$$$$$$$ $$$==  *$:$>$$=X=  O+@.=X% O   o oXXXOXX XXOX  X XX  X",
"$ $$ $  $$ $$*$  $ $$$:$oX%X %+@.=oX.oo.o. XXOXXXXXXo XX ooX o.X",
"$$$  $ $$$ $$$$ :   =$$XOoXoO +@.=. o .OXX  O XOo  X%oX o.ooX.oO",
"-$$$  $$$ $   :  :    *%O-oX O+@.= o.o.OO% ooOOoo oX.O .  o ooo.",
"--   $$  $$$   $   $$$$OO  o X+@.%.oooo. .ooo.X  oOOXXXo.ooX   .",
"---       $$ - :-  $$>:Oo    O+@.=  .%XooO O.o %X .   OO    oooo",
"---      $$$::- $$-$$ Oo . OOO+@.=o ..o..ooX  o%Xo.oo XO   o  o.",
" -- $$$=$X%%=Oo XO-    .o o Oo+@.=O ooo  o  o %%O .oXX  o   .. o",
"$  $$$:=$X%=%OOOXX$-$  O .  XX+@.=     .XooooXX  %oO O o.%X o. o",
"$ $$-$$$$XOXXOXO  O   o    OOO+@.=o .  o.o.  o  O% XX O O     Xo",
"OOO XXX  %%O%%o Oo   ooOOo  =O+@.%O... .X.oo o  OX    O    Oo %%",
"oOO  o.o   XOO o.O$ $oo O.o   +@.=.X. oo..   oOO  OXo oX  o%XoXX",
".  Xo .oOOX   %XXX$ -.  XooooO+@.=.. .oX...oo. ..O OX OOOo %Xo X",
"OO O  .o.  oX %O%%$-$  .O  oOX+@.% o. Ooo....OX oX.%%o  ooXXXo O",
"XOX O .X o X XOX=%$O  oo   .oo+@.; .o.. .o... OXOooo X o%oX O  X",
"o. X  o o  ooO%X%=:   X o  oXO+@.%oo.oo.. ... OX    XOO   o. o X",
"     ooX  Xo=O%OOO:$ $O.O o XX+@.= .o.... ...  X X%OX. .. .  oXO",
" X. oXX oOoXo oXOo-$ - oO. oOO+@.;..o. Xooo  XXXO   X .X. o .oOO",
"oooo .oooOo  o OO  --$O o.o.OX+@.-.. oo  o .o oX oO oo. XoooooXX",
"o.ooooXoXoX o.O XX$ o.oXX    .+@.-o...oo X o ..X   ... X   Xo oo",
"ooXXoooo%   .Oo XO$O o OOXo   +@.%....o o.o  . .  OO .    .ooO;O",
"oo  oooX.X $ $$ X  .o   XXo o +@.X  o   ooX X o..o   o.   &ooo o",
"oo%OX ; o o o  -.oO...  X oooo+@.=....  ooo XOX. ... O o.oo   o.",
"Xo XO OXoo ooOO$.OXoo   X  o.o+@.=oo  XX    X    .. . oo. .   oo",
"Xo o.oOX Oo    $oOXO ooXXooooo+@.X .o.. X   X.  .X.. ..o.oo  .X ",
"Oo ooOX  %OOOoX$XXXXoXo OXo o +@.=o....  . XX o   o.    ..  ..oX",
"..oo  ooXOOXOXo=O.Xo.ooo..O o +@.=o ooO Xo  oXo o.oo XXooooo. oO"
};
