/* XPM */
static char *result[] = {
/* columns rows colors chars-per-pixel */
"64 64 26 1 ",
"  c #070707",
". c gray9",
"X c #13131B",
"o c #1F1F27",
"O c #0F0F13",
"+ c #272727",
"@ c #171B23",
"# c gray12",
"$ c black",
"% c #2F2F2F",
"& c #0B0B0F",
"* c gray6",
"= c #1B0000",
"- c #270000",
"; c #333343",
": c #373737",
"> c gray39",
", c gray28",
"< c #434757",
"1 c #330000",
"2 c #430000",
"3 c #271700",
"4 c #3F3F3F",
"5 c #3F3F4F",
"6 c #331707",
"7 c white",
/* pixels */
"  .XX.....o.XXX.......XX.X.X..... OOO             XX...... XXXO ",
"  ......++..OOOOOOO.OOO.++..OOOOOOO.OOO..OOOO  O           OOO  ",
" O  .@@#++@@.@@.@@@@O.O@++@@.@@.@@@@O.O@@+@@..OO.O$$$$$O$$ .O.O ",
" .@O@%++%%+@@@@O..@@..@+%%+@@@@O..@@..@+++++.@@O &$$$$$$$  .... ",
" .##+++%%%%+++#..o+oo+++%%%+++#..o+oo++++++o#o#...*******....#. ",
" .oo+++++++++o###oooooo+++++oo####oooo++++ooo###...........o+o..",
" .##$.&&&&&&&&&..&&&&&&&&&&&&&&&&&&&.&&..&&&&&&&....&&&... o+o. ",
" O@O.$$$#$$$$#$  $#$$$$#$$$ #&$= #$.&$#&&$$#$$$ o..&$#$  $.++o..",
" O@@.$&$+&$$$+&..&+&&&$+&&&&%#$-.+$##$+#.&$+$$&.;:%#$+&..&.++o..",
" O+@.$$$#$$$$#$$$$#$$$$+$$$&%#$-.+$..$+#&$$+$$&.;>,%$+&##..o+o..",
" O++.$$$+$$$$+$$$$+$$$$+$$$$+.$-.+$&.$+&$$$+$$&.;>,%$+$&&$&++o. ",
" O+@..+++++++++++++++%%%%%%%%;%;;%%%%;;%%;%%%%%;:<<:%%:::o.+%+# ",
" .@@.$$$+$$$$+$$$$+$$$$+$$$$+&$=&+$===%---=%$$$&;##.$+$..$&%%+o.",
" .+@.$&$+$$$$+$$$$+$ &$+&&&=%$$-.+$12=%122-%=$&.;:%#$+&## &%%+o.",
" .+@.$&$+$$$$+$$$$+$ &$+&&&=%$$-.+321=%--1-%3$&.;>,%$+&##&.%%+o.",
" .++.$&$+$$$$+$$$$+$ &$+&&&=%.$-.+121=%---=%1$&.;>,%$+&##&.%+o..",
" .@+..++++++++++++++;%%%%%%%;:%;;%;;;;;;;;;;;%%;;:::%%%%:+.%%+o ",
".+++#$$$+$$$$+$$$$+$$$$+$$$$%=$=&+====%====%=$$&;%%#$+$.. .%%%o.",
".+++. .$+$$$$+$$$$+$.o.;ooo.%#$=.+=--=%11-=%=$$&;+++$+$&. &%:%o ",
".+%@#$&$+$$$$+$$$$+$ &$%...&+.$-.+$--=%---=%$$.#;+%+.+.+# &%:+. ",
".+%+#$&$+$$$$+$$$$+$$&$%...&+.$-.+$===%---=%$$$.;+##$+&.# &%:+. ",
".+%+#.++++++++++++4+#%%%%%%;;;%;;%%%%;;;;;%%%%%;:::%%%%;:+&%:%o.",
".o+%#$$$+$$$$+$$$$+$$$$+$$$=%&$=&+$$$$+$$$$+$$$&;#.$$+$&.$&%:%o.",
".+%:#$$$+$$$$+$$$$+$$$$+$$$=%#$-.+$$$$+$$$$+$$$.;%#.$+&.# &%:%o.",
".+::#$$$+$$$$+$$$$+$ $$+&&&$%#$-.+$$$$+$$$$+$$$.;,+#$+&.# &%4%o ",
".+44#$&$+$$$$+$$$$+$ &$+&&&$%#$-.+$$$$+$$$$+$$$.;,%#$+&## &%,:o.",
".+44#.+++++++++++++++%%%%%%%%;%;;%%%%%%%%%%%%%%;:<::%%%;:+.%,:o.",
".+4:#$$$+$$$$+$$$$+$$$$+$$$$+&$=$+$$$$+$$$$+$$$&;#.&$+$.. &%,:+.",
".+44#$$$+===$#$ ==#$$$$+333=+.$=$+$$$$+$$$$+$$&.;:#.$+&##&&%,:+.",
".+44#$$$%333$+$$==+$$$$+$33=%&$-.+$$$$+$$$$+$$$.;>%#$+&##&&,,:+.",
".+44#$$$+=33=+$$$=+$$$$+$$3=%&$-.+$$$$+$$$$+$$$.;>%#$+&##&.%,:+ ",
".+44#.+%%%%%%%%%%%%%%%%%%%%%%%%;;%%%%%%%%%%%%%%;:<5:%%%::+.%4:+.",
".+:+.$$$+$$$$+$$$$+$$$$+$$$$+$$=&+$$$$+$$$$+$$$&;##.$+$.. .%,:+.",
".+:%.$$$+$.&$+$$$$+$$$$+$&$$+$&-.+&&#.;#&$$+&$$.;:%#$+&##&.%,%o.",
".+:%..#=%=%+.+$&%#%&$&.;#%+&%&$-.+$+%#;%#$$%#$$.;>,%$+$& $&%4+..",
" +%%.&%=%6,>%+#%,%;%&$#5%>,#;..-.+$%%%5>%$$%+.$.;>,%$+$.. &%:+. ",
".+%%..4:;;<<:%::<:::;%:::<<:;;%;;%%::::<:%%%%;%;:<<:%%%%%o&%4+o.",
"..%+.$#&+=##.+$.#.%##$.;###&+$$=&+$$.&;&$$$+$$$$;%%#$+$$& &%:%o ",
"..%+.$$$+$#&$+$$#$+&&$$+&&&$+$$-.+&$$$+&$$$+$$&#;,%#$+$&&&&%:+. ",
".+%%.$$$+$$$$+$$$$+$$$$+$$$$+$$-.+$$$$+$$$$+$$&#5,%.$+$&&$&%:+. ",
".o%%.$$$+$$$$+$$$$+$$$$+$$$$+$$-.+$$$$+$$$$+&&+#;%#$$+$&$$&+%+..",
".o++..+%%%%%%%%%%%%%%%%%%%%%%%%;;%%%%%%%%%%%%:::::;%%%%%%o&+%o. ",
".o++.$$$+$&$$+&&&$+$$$$+$&&$+$$=&+$$&$+$$$$+##.&;.$$$+$$&$&+%+#.",
".+:%.&#.;.#.&;##.&;#.. ;.#. +$$-.+&&##;%#..;%%#.;&$$$+$..&&%:%o ",
".%%%..%#5#%+.5##.&;###&5#:+&%&&-.+$&%%;>%#.;%%#&+$$$$+&.. &%:%o.",
".%:%..%%5%,%#5%%#.;%%%.5%,%#;.&-.+&.%%;,%#.;+# $+$$$$+&#.$&%:%o.",
".%%+#.4:::::::::::;:::::::::;;%;;%%;;:::::;;%%%%%%%%%%%:%#&%:%o.",
".+%+.$$$+$.$$+$$.$+.$$$+$$$$+$$=&+$$$$+$&$$+$$$$+$$$$+$.$$&%:%o.",
".+%+.$$$+$$$$+$$$$+$$$$+$$$$+$$-.+$$$$+$&$$+$$$$+$$$$+&#. &%:%o.",
".+%+.#%#;%%+#;%%%#;%%%#;+&$$+$$-.+$$$$;%%%#;%%%#;+%%#;%+%.&%:%o ",
".+%+.&##+#%&.;##%$;###.;%%#$+$$-.+$$$#5###.;###$;&#..%.&#&&%:%o.",
" +++..+:%%:%%%%%:%%%%%%%;:<:%%%;;%%%:::;%%%%%%%%%%:%%%%%%#&%:%o ",
".+++.$$$+$$$$+$$$$+$$$$+$&##%$$=&+$$%.+$$$$+$$$$+$$$$+$$$$&%:%o.",
" ++%..%#;%%+#;%%%#;%%%#%$..#;&$-.+$+%&+$$.#;%%%#;%%+#;%%%.&%:%o.",
" +++..##+#%&.;##%$;####5#$.#;.$-.+$%#$+$#,#;###.;#%&.;###.&%%%o ",
" .+%.$&#+&+&$+&&+$+&&&$;,..#%.$-.+$%#$+.,+$+&&&$+&+&$+&&&.&%:+o ",
" .++&.+%%%%%%%%%%%%%%%%%::%:;;%;;%%::%%%;%%%%%%%%%%%%%%%%#&%%+. ",
" .@+&$$$.$$$$.$$$$.$$$$.$$$$.$$=$.$&$$.$$$$.$$$$.$$$$.$$$$ %:+. ",
" .o+.$$$.$$$$.$$$$.$$$$.$$$$.$$= .$$$$.$$$$.$$$$.$$$$.$$$$$%%+. ",
" .o++;+++++o++++++%%+++++++o++++++++++++%%++oo+###.o##oo.#+%%o. ",
" O#oo#o++++oo+o++o++oo+++++oo+o++o++oo+++++o#oo...........o++o. ",
" O@@@@@@+@+@@.++@.@@.O@o+@+@@.++@.@@.O@oo++@.@..O&...O.....+++. ",
"  OOOOOO.O.OOO..OOOO  ...O.OOO..OOOO  .....OOO   O    OOOOO.... ",
"                      O               O                         "
};
