/* XPM */
static char *tile0891740675773[] = {
/* columns rows colors chars-per-pixel */
"64 64 10 1 ",
"  c #1F1F27",
". c #171B23",
"X c #23232F",
"o c #4F5363",
"O c #434757",
"+ c #272B37",
"@ c #272727",
"# c #2F2F3B",
"$ c #2F2F2F",
"% c white",
/* pixels */
"         ..........              .   ...       .   ..         ..",
" ..      ..........          .      ....    ....   ..         ..",
" .       ..........         .       ....    .   .             ..",
"   XXXXXXXXXXXXXXXXXXXXXXXXXXXXXXXXXXXXXXXXXXXXXXXXXXXXXXXXXX   ",
"   XoOOOOOOOOOOOOOOOOOOOOOOOOOOOOOOOOOOOOOOOOOOOOOOOOOOOOOOoX   ",
"   XO+@XXXXXXXXXXXXXXXXX@@@XXXXXXXXXXXXXXXXXXX@@@@X@@XXXXX#OX   ",
"   XO@   ..........      XX         ....    ..  XX XX.... @OX   ",
".  XOX   .......         XX...................  XX XX.... XOX   ",
".  XOX .........         XX...................     XX.... XOX   ",
".  XOX .........         XX...................     XX.... XOX   ",
".  XO@X         X        XX...................       .. . XOX   ",
".  XOX ......... .       XX...................       .. . XOX   ",
".  XO@X......... .       XX...................       . .. XOX...",
"...XOX ......... .       XX...................       .  . XOX...",
"...XOX ......... .....   XX...................       .  . XOX   ",
"...XOX ......... .....   XX...................       .  . XOX   ",
"...XOX ......... .....   XX........... .......     X .    XOX   ",
".. XOX ......... .....    X........... .......     X .    XOX   ",
".. XOX ......... .....    X...................  XX XX     XOX   ",
".  XOX ......... .....    X...................  XX XX     XOX   ",
" . XOX .........  ....     ...................  XX XX     XOX   ",
"   XOX .........  ....... X...................     XX     XOX   ",
"   XOX .........  ....... X...................  XX XX     XOX   ",
"   XOX .........  ....... X...................  XX XX     XOX   ",
"   XOX .........  ....... X...................  XX XX     XOX   ",
".  XOX .........  .......XX...................  XX XX     XOX   ",
"   XOX   ....   X   .    XX...................XXXX XX     XOX   ",
"   XOX  .....       .    XX...................XXXX X      XOX   ",
".  XO@  .....       .    XX...................XXXX X      XOX   ",
".  XOXX  ......          XX...................XXX  X      XOX   ",
".  XO@   ......          XX...................     X      XOX   ",
".  XOX   ....... .       XX...................XXXX X      XOX   ",
".  XOX   ....... .       XX...................XXXX X      XOX   ",
".  XOX   ....... .       XX...................XXXX X      XOX   ",
"   XOX      .... .....     XXXXXXXXXXXXXXXXXXX   $ X      XOX   ",
" . XOX      ....  .......                         .       XOX   ",
"  .XOX      ....X .......                     ... . ....  XOX   ",
"   XOX      ....X ........   ..........       .   . ....  XOX   ",
"   XO@X     .... ......      .XXXXXXXX X          . ...   XOX   ",
"   XO@X       .. ........    .X       .X.......   . ...  .XOX   ",
"   XO@X       .. .........   . ........ ........ .....    XOX   ",
"   XO@        .. .........    XXXXXXXXXX........ .....    XOX   ",
"   XOX         . .....................  ........ .....    XOX   ",
"   XOX         . .....................  ........ .....    XOX   ",
"   XO@         . ..................     ........  ....    XOX   ",
"...XOXX .  ..... ...................    ........  ......  XOX   ",
"...XOX  XXX                    .....    ........  ......  XOX   ",
"...XOX  XXX                    .....    ........  ......  XOX  .",
"...XOX  XXX                    .....    ........  ......  XOX   ",
"...XOX    X                    .......  ........  ......  XOX   ",
"...XOX    X                    .......   ....   X   .     XOX   ",
"...XOX                         .......  .....       .     XOX   ",
"...XOXX XXXXXXX X   ......     .......  .....       .     XOX   ",
"...XOX                         .......   ......         ..XOX   ",
"...XOX             X .....     .......   ......          .XOX   ",
"   XOX   .......... ......   ........... ....... .      ..XOX   ",
"   XOX   ..........          ...........         .........XOX   ",
"   XO@   ..........          ..............        ..     XOX   ",
"   XO#XXXXXXXXXXXXXXXXXXXXXXXXXXXXXXXXXXXXXXXXXXXXXXXXXXX@#OX   ",
"   XoOOOOOOOOOOOOOOOOOOOOOOOOOOOOOOOOOOOOOOOOOOOOOOOOOOOOOOoX ..",
"   XXXXXXXXXXXXXXXXXXXXXXXXXXXXXXXXXXXXXXXXXXXXXXXXXXXXXXXXXX ..",
"         ..........          ..............        ..         ..",
"         ..........          ..............        ..         ..",
"         ..........          ..............        ..         .."
};
