/* XPM */
static char *tile0931740675773[] = {
/* columns rows colors chars-per-pixel */
"64 64 27 1 ",
"  c gray34",
". c #2F2F2F",
"X c gray39",
"o c #7B7B7B",
"O c gray42",
"+ c gray45",
"@ c #838383",
"# c #8B8B8B",
"$ c gray31",
"% c #373737",
"& c gray9",
"* c #9B9B9B",
"= c #939393",
"- c gray67",
"; c #BBBBBB",
": c #C3C3C3",
"> c gray70",
", c gray64",
"< c gray28",
"1 c LightGray",
"2 c #CBCBCB",
"3 c gray12",
"4 c #0B0B0F",
"5 c black",
"6 c gray86",
"7 c gray89",
"8 c white",
/* pixels */
"    .XooO+o++o@###@@#@@@oo@@ooo##@@@@@@@@@@###@oo+@@@@@@@##@$+X$",
"XXXX.Xoo%O@@oo@@##@@@@@@oooooo@#####@@@@@@@@#@@oo+oo@@+oo@@+%@#o",
"XX  .Ooo&.%%%.%%%%%%%%%%%%%%%%%%%.%%%%%%%%%%%%%%%%%%%%%%%%%%&@*=",
"XXXX.XO+%O-;;:::::::::::;;;::;::-$>::::::::::::::;:::;;;:::;$#*=",
"XXOO.XXo%+=*,,,------,,**,,,,,--=X,,,,,,*@ooo@@@@ooooo+o@@#o%@*=",
"XOO+.OO@%+#==**,,,,,**=====*==**@X*==*=#%%$<<<<<<%%%%%%%%%%%.@==",
"OO+o%Xo#%+@#==*,,,****===****==*@ *=***#%=11111122:22::222;,%@==",
"OOO+% +#%O###=*,-,**,*=====**==*@ *=***#%@,,,-,,********,,@o%@**",
"OOOO%%O=<+###=*,-,,**===##==*==*@ ====*#%o####@oo+O+OOOOO#o+%#**",
"OOXO.%O=$+=#==*,,,**==#=##=====*@ ==*=*#%+#@**===#@#@@o@o#@o%#,*",
"O.%O.%O=$+#===******=##=====*===@ *****#%Oo3 *#===@#@@@@=#@+%#**",
"O&3+%%o*$+===****,**=##==*******@X***,,=<+o%%@==#####@@#=#@+%#**",
"O&.@%<=, o*****,,,,,*====*******#X,,,,-=<+O=O+#==#=#@@@@#@oo%=**",
"O&.@%<=- o*,**,----,**===****,,*#X,,,,,=<++=o< =*#*#@#=##@++%*,,",
"X&.@. ,- o*,*,,-->--,,==********o ,,**,=$+*=@3%*-,,=@=*=#@+O%=,-",
"O&.o.O-,$@**,,-->>>>--*==****,**o ,*=*,*<O*-=.$,--,=@#=##@O+%=,,",
"O&3o%o>, @,*,--->>;;;-,***,,,**=o *=#=*=%O*,#$o>>*#====##o++%=,,",
"O&.o%@-, @*=*,--->;;>>-***,,--,=@X,*==*=<O=,*#*--@o=*==#@oo+%*,*",
"O&.@%o-*$o=##=,-->;>--,=#==*,,==@X,=****%O*,,----##**=#@#ooo<,-=",
"O4.@%+*=<o=#@=,,-;;-,,*=#=**,*==@X*==**=%O*,---->,*-*=@@=++o<,**",
"$5.@%O#=<o=##=*,->--,,*==*,,,===@X,**,,=%O=,,--->>-,,*##=o+o%**,",
"$5.@%+*#<o#=#=*,--,,,,,**,--*=**#X,*,,-*%O=,--->>----,==*oo@%*,,",
"$5%@%O*@%O@###=*,,**,,,*,---=*,-=O,,,--*<O**O+***@$@>-***@@@%=,*",
"<5%@%+*@%+###=*,,,**,,-,,--,*,,,=O,**--*<++<.%O<<%4 =,,,*@@@%=*,",
" 5%@%O@@%+####**,***,,,,*,--,,,,= $+#=#*<oX<XXO$$$&&+,-,,###%*,,",
"O4%o%Oo#%+####=**,***,***,,,***,#X&O--,@$oO%o@ooOX3&+>-->*=#%*,-",
"+4%o%+*#%+=##==*,,*****==******,@XXo---@<ooO>>>-,,o+,>-->,=#%*--",
"+4%o%+*#%o==#===,,**=**==******,#XO@-->=<@**,,,,,**,****,-*#%,--",
"+&%@%+*@%o=======,*,*****=*===,,#O@*>>-,$=,O-->>-,***,,--;*#%,--",
"o&%@%+=@%o=*==#==*,,****=#*=*,,,,=>>>>>,<=->>;;:;>--->>>;;=#%-->",
"o.<o%+*@%o***====**,,,,*==**,-,--=->;>>,<=->>;:::;>--->>>;*#%,->",
"@+O+%+*@<o*,**===*****===**,,#**o=>>>>>,<=->>;:::>>>>>>>>;*=<,-;",
"@o++%o*#.%XXX     XX X $   XX$  $O**-*$X$=->>;;;;>->>>->>;=#%->;",
"@ooo%o,#<#2112:2::2222222222122221:#-*@@<=>>->;;>-->>>-->;*#%->;",
"@@o+%o,=$#->-,,,-,,--,,,--->;---,,*#-**@$=>>>>;;>-->>>>>;:,*%>;:",
"@o@+%o-*$#->-,,---->-,,,,-->>>>---*#-*,#$*>;;;;;>>>;;;;;;:**%>;:",
"@O+@%@-* =->,,->>;;;>,*,,---->>>>-*@,=*#$*>;;;:;>>>;;;::;:,*%>;:",
"=3%#<o-* =>>--->>;;;>-*,*,--->;;;-*@,#=*$*>;;;;;>>>;;::;;;,*<;;:",
"=33@%o,= =-->---->;>>-,,,,--->>;>,=@-=@*$*>;>>;>>>>>>>;;;;*=$:;;",
"#&3@<o,=$#-------->>-,,,,--,,----,*@---=$*>;>>;>>>>;>>;>;:*=$:;>",
"@&3@<o,=$#->---,----,,***,,,,,->>-*=->>=$*;;;>>>>>>;:;->>;*=$;;>",
"@&.@%o,=$#----,,---,*=====*,**,->>,=,-*=<=;;;;>---;::;>>;:*#$;;>",
"@&3o%+,#$#--,-,,,,,*===#==****,->>-,,--*<=;;;:;-->;::>>>;;==$>>>",
"o4.o%o,#$#,,,,,,****=*=#==**==,->>>>->;*<=>;>;:;>;::;>>>;:==<->>",
"o4.@%o-=$@,-,,,,*******==***==,----->>-,<=>>;::;;;::;>>;;;==%,--",
"o&.@%o-=$@,-,,,,*****,*,,,**==,,,,,----,<=;;;:;>;;;;>>->>;=@%,--",
"+4.#%o-=$@,,,,,,,,,,*,**,*=*##**,,,----,$=>;;;;;>>;;>>>>>;*@<,,-",
"O4.@%o-#$@,,***,,,,,*****,*#@#=*,,,,->-,$=;:;:;;;;;;>;>;::*#<,*-",
"O5.#%o,#$#-,*=*,,,-,*****,*###=*,,,->>>,$*:::::;;:::;;;;;:*#<,,-",
" 5%#%@,#$#-,***,,--,*******#==***,,->>>,$=;:;;:;;;;;;;;;::,=$*,-",
"$5.@%o,#$#,***,,,--,**=======****,-----,$=>;:;:;;;;;>;;:::,=<=**",
"$5%#<o,@$#-,**,>>>>-,*=======*****,--,-,<#-;:;:;;>>>--->;:,#<#==",
"<5%#<o,#$#-,,,,>>>-,,*===**=******,,,--,<@->;;;;>>--->>>>;,+%==*",
"%5%=<o-#$#,,,,,->>-,,,,*******,,*,,--->-3@->>;;>>>,---->>;@o<==*",
"%5%#<o+o @,,,,,-->--,,,****,**,,,*,,----3o-->>>-,,,,,,--->@@<***",
"%5%@<o3% @,**,,,->-,,,***,,**==*,,*,,--,$#,,->--,,,**,,,->=@$,,=",
".5%@<o%$$@,==**,,-,*,,*=****==*,,,,,,->,<#,-->>--,*,*,,,--#o<*,=",
"X% o<o#+$o*****,,,,*,,*=====**,,--,,,,,,<@*,,--,,,****,,--#o$*,*",
"Oo@+%o.%$o*****,,,,**,******,,-->>---,-*<#,,---,--******,-#+<*,*",
"++oo%o.< =@**,,-----,,*,**,-->>>;>>-,,-*<o,**=****=#@@@##=oO%**=",
"+oo+<o@@%%3.%%%%<$$$$<<<$$$        $$$$$3<        $$$$$$ $<%3===",
"+o+O%+;:->->:;;::::::::::;-;::212222::::;266667776122222221:O===",
"O+oo<o*,-->>-,,,,->>>>>>;# #;-,>>->>,--->------>=o,**oOXX#>= ***",
"O+@=$o*,,,--,**==***#=# #,*,,,*#,,,#*,*,,->>->>,X<*# %<%%%+O ***"
};
