/* XPM */
static char *tile0581740674605[] = {
/* columns rows colors chars-per-pixel */
"64 64 32 1 ",
"  c gray12",
". c #23232F",
"X c #272B37",
"o c #333343",
"O c #13131B",
"+ c #1F1F27",
"@ c #2F2F3B",
"# c black",
"$ c #434757",
"% c #373B4B",
"& c gray31",
"* c #3F3F4F",
"= c #171B23",
"- c #4F5363",
"; c gray34",
": c #57576B",
"> c #676B7F",
", c #0F0F13",
"< c #0B0B0F",
"1 c gray28",
"2 c #3F3F3F",
"3 c gray9",
"4 c #373737",
"5 c #070707",
"6 c #272727",
"7 c #2F2F2F",
"8 c #5B5F73",
"9 c gray42",
"0 c #4B4B5F",
"q c gray45",
"w c gray39",
"e c white",
/* pixels */
" ...XoO+@oooX#+$@#+$%#.$o#+$X#+$o#+%oX%%++ooooo%oo%%%oo%%%%%%%%@",
"o$$$$&O+@@o%@#+*X#+*%#.*X#+%X#+$o#.$XXXo+=o-$oo@o-$%%@o-$%%@o-$o",
"+oooo$O.oooo%#+%.#+$%#+*X#+%o#+*o#.$@@@%+O&$;%o+&$;%%+&$;%%+&$;%",
"+@.@%$O.@XX@o#+%X#+%@#+$o#+$o#+$%#+%.+.X+O&&:%%.&&:%%.&&:%%.&&:%",
"+.%>o$O.X+O+X#+*@#O%@#+$@#+*@#+%X#+%+O,++O&&:oo.&&:%o.&&:oo.&&:o",
"+@.@%&O.=&<+.#O%@#O%o#+$X#O$X#O*o#O%.O;.+,&&$oo=&&$%o=&&$%%=&&$%",
"=@ooo$OX+O=.+XXXX@@@@@ooXXX@@@@@@@@X....+O*1&oo.*1&%o=1&:oo.*1&%",
"+oo*o$<X=O=++.....+++++.+++++..+....++++.,22$@o=22$oo34%;o@=22$%",
"+oo4o$555<<<<<<<5<<<55O555555<<<<<<<<<OOOO%$:@@=%$:oo3.o2oo=%$:%",
"+o%4o%oo%%%ooooooooo@@@@X6@@+oo%%%%%oo%@++**:@@+**:oo3@o2oo+**:%",
"+%147@o-$%%@o-$oo@o-$oo=+oX@o@o-$6+3X$oXX+%*:o@+%*:oo3o%1oo+%*:%",
".*174+&$;%%+&$;%o+&$;%o+&$;%%=2o43337+1%o+%$:o@+%$:oo=oo1oo+%$:%",
"+%*74.&&:%%.&&:%%.&&:%%.&&:%%.&&:++341:%o=$$;@o=$$;o@=o%;o%=$$;%",
"+o744.&&:%o.&&:oo.&&:oo.&&:%o.&&:oo.&&:o%.$$:@o.$$:o@3o%:oo.$$:%",
".o.74=&&$%o=&&$oo=&&$oo=&&$%o=&&$%%=&&$%o61&:@@61&:oo=218oo61&:%",
"+o.44.*111o=*21oo.*1&oo.*1&%o=1&:oo.*1&%%=*$;oo=*$;oo=21$@o=*$;%",
"=X7X4=24$2o324&@o=22$@o=22$oo34%;o@=22$%%=$*&@o=$*;oo.211@@=$*;%",
"=.7X7=%$92o3%$94@O%$:@@=%$:oo3.o2oo=%$:%%.&19@@.&2&oo.11$@@.&2&%",
"..4..+**:oo3**:@@+**:@@=**:oo3@o2oo+**:%%.&19@@+$o1%o6%*&@@+$o1%",
"=.4o@+%*:oo3%*:o@+%*:o@=%*:oo3o%1oo+%*:%%+1192o=$11%o6*$1@@=$11%",
"=X4oo+%$:oo=%$:o@+%$*XX+%$:oo=oo1oo+%$:%%.$194@6$$$%o6$$$@@6$$$%",
"=@74o=$$;o@=$$;@o=$$2XX=$$;o@=o%;o%=$$2%o+1194@6$$$%o6$$$@@6$$$%",
".X4oo.$*0o@3$$:X@+$$-XX+$$0o@3o%:oo.$$*oo=&&94@6*$1oo=$11oo6*$1%",
".X4@o622:oo=1&:XX62&:@@641:oo=218oo642*@o=&19@@6%*&%o+$o1%o6%*&%",
"+o4@@=*$;oo=*$&oX=o*;oo=*$;oo=21$@X=o$2@o6&19@@.11$%o.&2&%o.11$%",
"+%2o@=$*;oo+$*;@X=oo1@o=$*;oo.211@X=o*2oo61&9o@.211%o=$*;%%.211%",
"+%oo@.&2&oo.&&:@X+44*XX+&2&oo.11$@X+222%27229@@=21$%%=*$;oo=21$%",
".1o%o+$o1%o6&&:@@+44*+X=$o1%o6%*&@X=*o1%27219oo=218%o61&:@o=218%",
"61oo@=$11%o61&:oo=44o+X=$11%@6*$1@X=*21%*6119oo3o%:%%.$$:@o3o%:%",
"6%oXX=*$;oo=*$;oo=oo2XX=*$;oo=42$@o=*$;%%712:oo=o%;%o=$$;oo=o%;*",
".*o@@=$&1%o=$$;o@=oo2XX=$&&%o+1*:%%.411%472292o=oo1%o+%$:o@=oo1%",
"+XX@@.&&&%%6&&:@@.24*XX.&&;%%6oo$oo=42$146&&9223o%1oo+%*:oo3o%1*",
"+.XXX=&&:%o.$$;oo=oX4X@=&&:%o.2o$@o=42q446&&9223@o2oo+**:oo3@o2*",
"3X.XX=&$:%%6$&:oo=$7oXo=&$:%%6o%1@o3o%w426&&9223.o2o%=%$:@o3.o2*",
"+o.44=$*0%X6$$:oo3$**X@=$*0%o6@o1oo=oo4226&&91%34%;%%=22$%%34%;%",
"=X7X4=&o0oX+*$:oo3*$*XX=&$:%o.42%o@=oX4146&&&1%=1&:%%+&*:%%=1&:%",
"=.7X7=o$&XX+*$:@o3*$0XX=$$;oo.o%%oo3@o1%o+$$:@@+$&:oo+$2:oo6*$1%",
"..4..=o$:o@6$$-Xo3$$:XX=$$:oo6**;oo3Xo2%o+&&:@@.&&;%o.12:%o6%*&%",
"=.4oX+44*XX=4&$X@3&&:XX+1&:%%=$1woo=21$oo=$$;@@=&$&%o+11:%o.11$%",
"=X4oo+oooX+642*oo.&&:oX+*$:%o6$;w@o=21:%@=$$;o@=$&&%o+1*:%%.211%",
"=@74o+$o*XX=24*oo.&&:oo=o$:%%=$;;@o3o%-%@.&&:@@.&&;%%6oo$oo=21$%",
".X4oo+$$0X+=24$oo.&&8oo=o$:%o+**;oo=o%;*@=$$;oo=&&:%o.2o$@o=218o",
".X4@o+$$:%o=$o0oo=$$:oo=*$:%o+@*:o@=oo1%@=$&:oo=&$:%%6o%1@o3o%:o",
"+o4@@+%$:oo=%o*XX=o$:o@+%$:oo=oo1oo+%$:%o3$$:oo=$*0%o6@o1oo=o%;%",
"+%2o@+%*:oo3oo*XX=@o*X@+%*:oo3o%1oo+%*:%o3*$:oo=&$:%o.42%o@=oo1%",
"+%oo@+**:o@3o%*XX=oo*XX+**:oo3@o2oo+**:%o3*$:oo+$$;oo.o%%oo3o%1%",
".1o%o=%$:oX3X%*XX3@o*X@=%$:oo3.o2oo=%$:%o3*ooXo+$$:oo6**;oo3@o2%",
"61oo@=42$@X377$X@=44$@o=22$oo34%;o@=22$%o347@=..&&:%%=$1woo=21$%",
"6%oX+=@44X+=@4&oo.*1&oo.*1&%o=1&:oo.*1&%o=766.=+$$:%o6$;w@o=218%",
"+%oXX=2&$oX=44$o@=44oXo=&&$%o=&&$%%=&&*o%366o6==$$:%%=$;;@o3o%:%",
".1o%@=2&:%o+44:oo+44*Xo.&&:%o+1&:oo.12-o%367$@+3$*-%o+**;oo=o%;*",
"61oo@.11:%%.&&:%%+24*@%+22:%%.&&:oo+&&:%%=***oX,o*:%o+@*:o@=oo1%",
".*174+&$;%%+&$;%o+1o1%o=1o2oo=&$;%o32$;%o+%$*XX,@$:oo=oo1oo+%$:%",
"+%147@o-$%%@o-$oo@o-$oo@o-$o@=+ooo%@o-$oX+%*0XX3@o:oo3o%1oo+%*:%",
"+o%4o%oo%%%oooooooooooo%oo%%%oo%%%%%%%%@++**:XX=o*:oo3@o2oo+**:%",
"+oo4o$5<5<<<<<55O<<<55O555555<<<<<<<<<<<<<%$:@X=oo$oo3.o2oo=%$:%",
"+oo*o$<X.+++.......66....++++++......++..,22$XXO666oo34%;o@=22$%",
"=@ooo$O.6...X@@Xoooooooo@@@@@@@@oo@XX666.O*1&++3+66%o=220oo.*1&%",
"+@.@%&O+.;++@#O%*#+$*#O$@#O$o#O*o#O%6=:..,&&$oo=44*o@=&&$%%=&&$%",
"+.%>o$O+.=5+X#.*%#.0%#+$X#+*X#.$%#+%+O+.+O&&:oo.&&:%X+&&:oo.&&:o",
"+@.@%$O+.+=+@#.$@#.0%#+$X#O%.#+$o#+%+++.+O&&:%%.&&:oo.&&:%%.&&:%",
"+oooo$O+...Xo#+*@#.0%#+%X#O%X#+$o#+%X.@X.O&$;%o+&$;o%+&$;%%+&$;%",
"o$$$$&O+@@@o@#+$%#.0%#+$o#+$o#+$o#.*XX%o+=o-$oo@o-$%%@o-$%%@o-$o",
" ...XoO+@oo@@#.$%#+0%#.$@#+$X#+$o#+%o@%%++ooooo%oo%%%oo%%%%%%%%@"
};
