/* XPM */
static char *result[] = {
/* columns rows colors chars-per-pixel */
"64 64 61 1 ",
"  c black",
". c gray28",
"X c #3F3F3F",
"o c #373737",
"O c gray12",
"+ c #1B0000",
"@ c #271700",
"# c #270000",
"$ c gray6",
"% c #2F2F2F",
"& c #3F3F4F",
"* c gray9",
"= c #331707",
"- c #3F0700",
"; c #431F0B",
": c #4F0700",
"> c #671300",
", c #671F00",
"< c #8F3707",
"1 c #330000",
"2 c #732700",
"3 c #5B0B00",
"4 c #4F270F",
"5 c #272727",
"6 c #7F2F07",
"7 c #B74300",
"8 c #771700",
"9 c #831F00",
"0 c #8F2700",
"q c #3B1B0B",
"w c #57230F",
"e c gray31",
"r c #390000",
"t c #13131B",
"y c #9B2F00",
"u c #AB3700",
"i c gray34",
"p c #57331F",
"a c gray39",
"s c #070707",
"d c #0B0B0F",
"f c gray42",
"g c #67472F",
"h c #5F3B27",
"j c #733B1B",
"k c #331F00",
"l c #631B17",
"z c #43230F",
"x c #4B2B17",
"c c #6F4F37",
"v c #632F13",
"b c #6F331B",
"n c gray45",
"m c #771F00",
"M c #934F2B",
"N c #7B5B43",
"B c #A35B33",
"V c #6B3717",
"C c #874723",
"Z c #572B0F",
"A c white",
/* pixels */
" .XXXXoO+++@+++#+++@+++@+++@+++#+++@+++@+++++++++++@+++#OXXooX. ",
" oo$$XoO+  @+  @+  @+  @+  @+  @+  @+  @+  @+  @+  @+  @OXo$$%o ",
" &o$*XoO+  =+  -+  -+  ++  =+  -+  -+  ++  ++  #+  =+  -Ooo$*%& ",
" .o*OXoO@#=;@--;@---@-#+@#=;@--;@---@-#+#=#@@##@@#=;@--;Ooo*Oo. ",
" .o*OooO-:>>#-,<#-,<1::,-:>>#-,<#-,<1::,+#>,#--,#1:2->,<Ooo*O%. ",
" &o**ooO#  ,+  2+  2#  3#  ,+  2+  2#  3+  =+  4+  3#  2O%X**5& ",
" Xo**%%O1  6#  2-  6-  21  6#  2-  6-  2+  -+  21  6-  <O%o**OX ",
" XXX.%5O3>27,8,2,9,<20093>27,8,2,9,<2009;4q=+w:,;,,728>7O%%.X%X ",
" X%oo%oO#:1<-:,,#>-,->3>1:1<-:,,#>-,->3>##+@+11:#--<-,:<OX.X%%X ",
" XoXX%oO+  3#  :+  ;+  2#  3#  ,+  ;+  2+  **  =+  3#  2OXe.ooX ",
" XX%X%oO+  ,-  4r  ,#  <1  ,5  =#  ,#  <+  *t  :#  >1  <OXeeXoX ",
" &ooo%oO*O134w6,3y<u;3w21>,iO5opq2<u;,<7-5*eo*3:1::>3>y7OeaiXo& ",
" &ooXo%Ot*#q##-3#,,01Oo;+**O$sdt +,01-:6+t$5tt,:#::31,,<OefeXo& ",
" &Xooo%Ot  #+  1+  ;*  +   $$      2#  2+  $$  :#  :#  2OefiXo& ",
" &Xo%X%O*  1#  ##  pO  +   t$   +  <-  ,#  $$  >1  <1  0Oefi.o& ",
" .Xo%%%OO+o,p:1@*Opg@r;43+ dtss @@;720<<-:15OO=22<073<<7Oefe.X. ",
" .Xoo%5O*#t1*o#+tOOqso.h#   $ **+-,<-,,j1#t5$#-,-,><1,,2Oef.... ",
" .X%o%5O+  *t  @$  $$  o+  $   O+  2#  g*  O$  @+  2#  3O.a.X.. ",
" eXoo%%O$  O*  +$  d$  $$  $   -#  <-  i-  ++  ;#  6-  2OXaXX.e ",
" iXXoooO@4oXOO-1td$d $dO@=Xi=3,:=2<73,4g2,1@@@Oi.w:>3229OXiXXX. ",
" i.XoooO+#+=**1q$t** d$++  r#1:r#-,2#1#--:+@$OOoO-1:1::2OXiX%.. ",
" eeXo%%O+  :+  Ot      @   1+  ,+  :+  =+  td      3#  3OXioo.& ",
" eeXo%oO+  ,+  o*   +  =+   +  2#  -#  et  Od      21  8OXa.Xe& ",
" ieXo%oO##,2,;@et*O   tO.q    =<;,5kO.Xe5t+Xt    #<72007OXieXee ",
" aioo%oO+#-,#:#*t+@    t*o##+##=#q*t*$$*d*t.Ot   :,<-3,<Ooi.Xii ",
" iiX.ooO+  ;+  **      *+  @+  +*   *  d$  -+   +  3#  ,Ooe..ie ",
" ee..ooO#  h*  O*      o+  p$  *       5d  #+  ;1  ,+  2Ooe.eee ",
" .e..o%O;>,2-,%p@     ++@:,j1-qhO    d$OOO-1---22 <2;332OoeXXee ",
" ..iX%%O1-:,#1t=+  $   t+#=o++#l+tss$$tOO=1#++#=#--;#r1rOo.Xoee ",
" &.iX%5O#  3#  #   @t   +  o$  :+  *$  5+  :+  @+  @+  @OX.XXe. ",
" &.eX%5O-  :O  ++  t$   t  Ot  >#  Ot  -#  -+  r#  r+   OX.XXe. ",
" &.eXO5O2,3hX3*##++1#55   doo=33-,rr#r:3zoo;1@@-=:3:    OX.Xo.. ",
" &.eX%5O-:1-#5 #+#=o+@s     *5-,#:1+++1;tttt++++        Oo.Xo.. ",
" X.eXX%O+  @d  ++  O+       d  3#  @+  *$  t$  ++       OX.oX.. ",
" X...X%O+  Xd  ++  .t  +    $  21  xt  O$      ++  0-  2OXXoXe. ",
" X..e.oO@-xe*   @5oo+#1@*..o or2lc=-Ot**tt$ t1=3200u2<29OXo%o.. ",
" X.X.XXO+OO5$+  *e.=++14#O    #3=x5O $*o$ $$$-,0-330-,:2Ooo%%.. ",
" .X.XXoO+  +$   t  @+  =+      ,#      ds  d$  2#  2#  3Ooooo.. ",
" eXXXo%O+  t$  @+  ,#  v1  O@  p-  t   ts      2-  01  3O%ooXXe ",
" &XXoo%t,:  @  @;3<u;,,b24.ttOqn, w=@  d$d   @<93>>m3>2>t%oXXX& ",
" &XoXoot-:1#$   1>,2#--,-X$* $d.#>-#    d*   :3-+1-:#:::t%XoXX& ",
" &XXooXt#  =$   #  3+  2O  s$  ;#  #   ;$  r#  1   r#  :tOooXX& ",
" XXoo%Xt-  pt  .#  ,#  3=  $   <1  -    *  ;1      ;1  3t%ooooX ",
" XXoooXO,,-3#= o@#-,=:>m,$dt$=:u2>-:@: :z;;:32<y33;:1+:>O%oo%oX ",
" &XooooO#11;+$  +::2#1:h*  d+r-<-3r;+1 x++1r#3>91::3#::3Oooo%o& ",
" &o%%o%O#  r+      :   gt   +  2#  -+  =       2#  :#  :Oooooo& ",
" .o%%ooO1  ;+  w-  ;#  Mo  ;#  <-  w#      ++  01  3#  3OooooX. ",
" .o%OoXO22-,@==22007262622pf.w272032;6;4@+ @:=<7,2>m323>OooooX. ",
" .o%%%5O1:1;+##woq-6-,q-+Oo.X,,<oq#4#,=-+11;-,,<-3:>#::3Oo%O%X. ",
" &o%o%oO#  =   ;5  ,#  =$  o*  25  -+  =+  ;#  ,   3#  :O%%O5o& ",
" XXoXooO1  q+  45  ,-  ot  Xt  2*  -#  -+  w1  r   >1  3O%o%%oX ",
" XXoXo%O;2w:@+r-oXX2aee   t$$++-OOt;;642@;w,;<<4,90932pfO%%%%oX ",
" &XXX%oO#--@++#@5%o4*i5     ++#@**t=+3-;+---#>,@-33014.nO%%O%o& ",
" &XXXXXO+  #+  =+  p#       +  =+  q+  r+  @+  @+  2#  iOoO5oX& ",
" &XX%ooO1  =+  -+  z-   +   +  -+  =#  ;+  ;-  01  <-  iOo%5oX& ",
" .%o%%%O,2-=###;,:,22<,;1-  # #4,--;;<-w-;w22<0u209034.vOoo55o. ",
" &%oo%5O#,-#+++-#3>0-,--    + #,#3-3#,#-#r-3->><-3:>#::bOo%55%& ",
" Xo$$%oO+  @+  @+  3#  @+  ;+  =+  r+  @+  ;#  2#  :#  NOo%$$%X ",
" &o$*5%O-  =+  -#  <O  -#  w#  +#  wt  -#  w-  >#  31  <Oo%$*o& ",
" &o$O%%O2<w;@=r,;,,BNb6,;ww2;w39@-rVhb4,r-w22<2>33>22>>uOoo$Oo& ",
" .o$O%%O-,-=+##w-:12-:,w#--w#--<-:+;#:-w+r-4-3:>1::6-::0Ooo$O%. ",
" .o$OooO#  @+  ;#  xO  ;+  ;+  2#  =t  ;+  r+  3#  6#  2Ooo$O5. ",
" Xo$OooO-  =+  w-  CO  w#  w#  <-  Zt  w+  :1  2-  2-  >Ooo$O5X ",
" Xo..XoO#-#@+++=#--w#--=+##=+1-w#-#=#-#=+##r#--3#11;+11-OXX..oX "
};
