/* XPM */
static char *tile0671740674605[] = {
/* columns rows colors chars-per-pixel */
"64 64 13 1 ",
"  c #373737",
". c #3F3F3F",
"X c gray34",
"o c gray39",
"O c gray42",
"+ c gray28",
"@ c gray45",
"# c gray31",
"$ c #2F2F2F",
"% c #6B4B33",
"& c #7F634B",
"* c #57371F",
"= c white",
/* pixels */
" .....XooOOooXoXXooooooOoo+..      ..+XOOOOOOooXXooooOOooX..    ",
" ....XooOOooooXXXoooooOoOOo.        .X@oOOOOOOooXoXoooOooo# ..  ",
" ...XooOOoooooXXXoooooooOOOX        X@OOoooooOooXooXooooOoo#.   ",
" ..XoooOoOoooXXoooooXXooOO@OX$     X@@OOooooooooooooooOooooo#   ",
"..#oooOoooooooXXoooXXoooOOOOO#$   X@OOOoooooXooooXoooooooooXo#  ",
" #OoooOOOoooooooooXXXooooooOOO#..XOOOOooooooXooooooooooooooooo# ",
"+oooooooOoooooooooXXXooooOOOOOo##oOOOOOoooooXXooooooXoooooooXoo+",
"oooooooooooooooooXXXXoooOoOOOoooooOOOO@OoooXXXooooooXXoooooooooo",
"oooooooooooooooXoXXXXooOoOO@OoooooOOO@@OoooXXXooXooXoXooooooXooo",
"ooooooooooooooX.#XXXXoOoOO@@OOoooooO@@OOoooXXXX+.XooooXoooooXXoo",
"ooXooooooooooX...+XXXoooOOOOOOOOOOOOOO@OoooXXX+...XoooooooXooXoo",
"XXooooooXoooX+... +oooooO@OOOoOO@OOOO@@@ooooo+ ...+ooooooooXoXXX",
"XXooXooooooX+......#oooO@OOOOOOOOOOOOO@@Oooo#  ....+oooooooXXoXX",
"XoXXooooooX++.......XoOOO@OOOO@@OOOOOO@@OOO#    ...+#oOoXoXXXXXX",
"XXooXooooo+... ...+++oOOOOOOO@@OO@OOOOOOOOX.      .+++oooooXXXXX",
"XXXoXoooo+.+.....+++++oOOOO@OOOOO@@OOOO@@o....     .+++oXooXXXXX",
"XXXXooXoo#... ..+++++#OOOOOOO@OOoOOOOO@O@o+....    ...#oXXoXXXXX",
"XXXXoXXXoo#.. ..++%+#oOOOoOOOOOoooOOOOOO@@o+...      #ooXXXXXXXX",
"XXXoXXXXooo+ ...+++#&OOOooOOOOoooooOOOOOOOOo+..    $+oooXXXXXXXX",
"XXXXXXXXooXX+ ..++%oooO&OoooooooooooOOOOoOoOo.   $ +XXXoXXXXXXXX",
"XXXXXXXooXXXX. .++ooo&OOooooXoooXoXooOOOoOOoOo.   .XXXXXoXXXXXXX",
"XXXXXXooXXXXXX+.+&oooo&oooooXXoXXoXXooOooOOOoOX  +XXXXXoXoXXXXXX",
"XXXXXooXoXXXXXo+Xo&o&oooooooXooooXXXooooooOOOOo#+XoX#XXXXoXXXXXX",
"oXXXoXXXXXXXXXoXo&o&oooooooXoXooXXXXXooooOooOoooXoXXX#XXXXoXXXXX",
"oooXoXXXXXXXXoXXooooo&XooooXoXoXXXXXoooooooooOoooXXXXXXXXXXoXooo",
"+oooXoXoXXXoXXXooooo&Xooo&XoXXo++XXXXXoooooooooooXXXXXXXXXXoooo+",
" +ooXoooXXXXXXXoooooXXoooXXooX#. +XXXoXoooooooooooXXXXXXXXXXoo. ",
" $+ooooXXXXXoooOoooXXooo&XooX#....#XoXXXoooXoooOOooXXXXXXXooo+$ ",
"   #ooXXXXXooooOooXXXXooXXoo#++....#oXXXooooXoooOooooXXXXXoo+$$ ",
"    #oXXXXooooOOooXoXoXXoXo%#+++...+XoXXooooooooOOoooXXX#Xo# $$ ",
"  . .XXXXooooOOoooXooXXXoo###+++...++XoXoooooooooOOoooXX#X#   $$",
"   .++XXXoooOOOOoooooXoXX#+##+++...+++XXXooooooooOOOooXX##...  $",
"   .++#XXoooOOOooooooXoXX#+##%++...+++#XXooooooooOOoooXXX#... $$",
"  ...XXXXXoooOOoooXoooooXo%#X#%+..+++XoXooooooooOOOoooXX#X#.  $$",
".  .#oXXXXooooOOoooXooooXXoo%#++..++XoXooooooooooOoooXX##Xo#    ",
"   #oooXXXXoooOOooooXoooXXo&X#%#+.+#ooXoooooooooOoooXXXXXXXo+$$ ",
" $+ooooXXXXXoooOooooXoooXo&o&X#%+.#ooooXoooXooOoooooXXXXXXooo+$ ",
" +ooXoXXXXXXXoooOoooXoooooX&oo%+++XooXXoooooooooooXXXXXXXXoXoo.$",
"+ooooXXXXXXXXXXooOOooooooooo&oo##XoXooooooooooooXXXXXXXXXXXooXo+",
"oooXoXXXXXXXXXXXooOOoooooooooooooXXoXXoooooooOoooXXXX#XXXXXXXXoX",
"oXXXXXXXXXXXXXoXoooooooooooooooooXXXooooooooOoooXoXX###XXXoXXXXX",
"XoXXoXoXXXXXXXX+#ooOooOoooooooooXXoXoooOoOOOoOo#+XX####XXoXXXXXX",
"XXXXXXXoXXXXXX+  XoOOOOoOOoooooXXoXoooOOoOOoOoo..+X###XXXoXXXXXX",
"XXXXXXXXooXXX.$  .oOoOOoOOOOooooooooooOOOOOOoo+.. .#X#XXoXXXXXXX",
"XXXXXXXXooXX.$$   +oOOOOOOOOOoooooooOOOoOOoOo+..   +XXoXXXXXXXXX",
"XXXXXXXXooX+$    ..+oOOOO@@@OOoooooOOOOOOOOo#+..... +XXoXXXXXXX#",
"XXXXXXXXoo#  $   .+.+OOOO@@@@OooooOOOOOOO@O#+++... ..#ooXooXXXXX",
"XXXXooXoo#.. $$  ..++#OO@@@@@@OooO@@O@@OOO#+++... ..*+XoXXoXXXXX",
"XXXXXooXo+...     ..++o@O@@OO@@OOOOO@@OO@o++... ...++++ooooXXXXX",
"XXoXooXooo+..     ...XOO@@OOO@@@O@@OOO@OOOX... .. .++#ooXooXXXXX",
"XoXXXooXooo+.     ..XOOO@OOOO@@@O@OOOO@@OOOX    . .++&ooXooXXoXX",
"XXooXooooooo.      #oooO@@@OOO@@OOOOOO@@Oooo#   ...+oOoXoooXooXX",
"XXXoXoooooooX.    +ooooO@@@@OOOOOOOOO@@Oooooo+$   +XoooXoooXoXXX",
"ooXooXoooooooX.  +XXooooO@@@OOOOOooOO@OOooooXX+  .XoooooooXooXXo",
"ooXXoXooooooooX.+XXXXoooO@@@OOoOoooO@O@OoooXXXX+.XooXoXoooooXXoo",
"oooXoooooooooooXXXXXXoooO@@@OOoooooOOOOOoooXXXXoXoooooooooooXXoo",
"ooXXooooooooooooXXXXXooOOO@@@OoooooO@OOOooooXXoooooooooooooXXXoo",
".ooXoooooooooooooXXXXoooOOOOOOO##oOOOOOoooooXXoooooooooooooXXoo.",
"$+ooXooooooooXXoooXXooooooOO@O#  #OOOOooooooXXoooooooooooooXoo+ ",
"$$#oooooooooooXoooXXooooOOOO@X$  $#@OOOooooooooooXoooooooooXo#  ",
"$  #ooooooooXXXoooooXoooOO@@X $  $$X@OOOoooooooooXoXooooooXo#   ",
"$   #XoOooooXXXXXooooooOOO@o       $o@OOooooooooXXXXooooOoX#. . ",
"$  . #XoOOOoXXXXXooOOOOOO@o.         o@OOooOOooXXXXXoOOOoX# ....",
"$   . #XoOOoXXXXXoooOOOOOo+..      ...oOOOOOoooXXXoXoOOoo# ....."
};
