/* XPM */
static char *result[] = {
/* columns rows colors chars-per-pixel */
"64 64 19 1 ",
"  c #272B37",
". c #272727",
"X c #1F1F27",
"o c #373B4B",
"O c #171B23",
"+ c #13131B",
"@ c #0F0F13",
"# c gray6",
"$ c gray9",
"% c #2F2F3B",
"& c #333343",
"* c #373737",
"= c gray12",
"- c #23232F",
"; c #3F3F4F",
": c #2F2F2F",
"> c #3F3F3F",
", c #070707",
"< c white",
/* pixels */
" .......XX.X.............X.X.XXXXXX.X.X.............X.XX....... ",
".                      .......XXXX.......                      .",
"..                     ......XXXXXX......                     ..",
"X. .                   .......XXXX.......                   . .X",
"X...oO+@@@@@@@@@@@@@@#+.XXX..XXXXXX..XXX.+#@@@@@@@@@@@@@@+Oo...X",
"....o.OOOOOOOOOOOOOOO++$XXX..XXXXXX..XXX$++OOOOOOOOOOOOOOO.o....",
"....%&OOOOOOOOOOOOOOOO#@OXX..XXXXXX..XXO@#OOOOOOOOOOOOOOOO&%....",
".... oOOOOOOOOOOOOOOOO@@OXX..XXXXXX..XXO@@OOOOOOOOOOOOOOOOo ....",
".... o.OOOOOOOOOOOOOOO@#$..............$#@OOOOOOOOOOOOOOO.o ....",
".... &%OOOOOOOOOOOOOOO$@@OXX........XXO@@$OOOOOOOOOOOOOOO%& ....",
".... %%+$OOOOOOOOOOOOO$@#$XXX......XXX$#@$OOOOOOOOOOOOO$+%% ....",
"X...  *+$O$$$$$$+++$$$$$#@OXX......XXO@#$$$$$+++$$$$$$O$+*  ...X",
"X.... o=$$+++++@@@@@+++$@#$XX......XX$#@$+++@@@@@+++++$$=o ....X",
"X..XXX- +$+#########@++@@#+OOOOOOOOOO+#@@++@#########+$+ -XXX..X",
"X...   ;O$+@########@+$$$@@..........@@$$$+@########@+$O;   ...X",
"X......%$$+@########@+$+++#+XX....XX+#+++$+@########@+$$%......X",
"X.XX...%%$$@########++++++##OXX..XXO##++++++########@$$%%...XX.X",
"X..X...:*++@#######@+$+++++#@XOXXOX@#+++++$+@#######@++*:...X..X",
"...X..XX%O+@######@++$$++++##X....X##++++$$++@######@+O%XX..X...",
"....XOOX =+@#####@@+$$$+++++#OX..XO#+++++$$$+@@#####@+= XOOX....",
"...XXXX.. +@@@@@@@@+$$$+++++++OXXO+++++++$$$+@@@@@@@@+ ..XXXX...",
"...XXXX.O&++@+@@@@@+$$$+@@++#+XXXX+#++@@+$$$+@@@@@+@++&O.XXXX...",
"........X%=+++@@@@@+$$$+@@++#+XXXX+#++@@+$$$+@@@@@+++=%X........",
"........X--+++@+++++$$+++@@@#+XXXX+#@@@+++$$+++++@+++--X........",
"........XO%$++++++++$+++++@##+OOOO+##@+++++$++++++++$%OX........",
"XXX....XXX%$++++++++$$$$$@@@#+XOOX+#@@@$$$$$++++++++$%XXX....XXX",
"..X....XXX .++++++$$$$$+++++#+XXXX+#+++++$$$$$++++++. XXX....X..",
".........X:%$++$++$$$O$+++++#+XXXX+#+++++$O$$$++$++$%:X.........",
"...........*@$$$$++$$$$$$$++#+XXXX+#++$$$$$$$++$$$$@*...........",
". .........%=+$$+++$$$$$$$$$#$....$#$$$$$$$$$+++$$+=%......... .",
"  .X..X....  ++++++++$$$$$$$#$....$#$$$$$$$++++++++  ....X..X.  ",
". .X........>++++++++$$$$OO$#$....$#$OO$$$$++++++++>........X. .",
". ...X......%O+++++++$$$$$O$#O .. O#$O$$$$$+++++++O%......X... .",
"O..XXOOOOOXXX.@@@@@@@@@+++++#+XOOX+#+++++@@@@@@@@@.XXXOOOOOXX..O",
".    .....  :*$$$$$$$$$$$$O$@$....$@$O$$$$$$$$$$$$*:  .....    .",
"......XXX...X%O++++++++$+$$$#$XXXX$#$$$+$++++++++O%X...XXX......",
".........XXXX .+++@##@++@+++#$XXXX$#+++@++@##@+++. XXXX.........",
"...........XX. ++@###@++++++#+XXXX+#++++++@###@++ .XX...........",
"............XX&++@@@@@@+++++#+XXXX+#+++++@@@@@@++&XX............",
"............XX%O++@@+++$@+++#+XXXX+#+++@$+++@@++O%XX............",
".......XXXXXX.  +++++$$$@+++#+XXXX+#+++@$$$+++++  .XXXXXX.......",
"......XXXXXXX..*+$$$$$+$@+++#+X..X+#+++@$+$$$$$+*..XXXXXXX......",
"......XXXXXXXX.%$$$O$$+$@+++#+X..X+#+++@$+$$O$$$%.XXXXXXXX......",
"......XXXXXXX..%.+$$++$$@+++#+X..X+#+++@$$++$$+.%..XXXXXXX......",
"......XXXXXXX..:*+$$+$$+@+++#+XXXX+#+++@+$$+$$+*:..XXXXXXX......",
"......XXXXXXX...*@$$++@+@+++#+X..X+#+++@+@++$$@*...XXXXXXX......",
"X.XXXXXXXXXXXXX. O+++@+$+$$$#+....+#$$$+$+@+++O .XXXXXXXXXXXXX.X",
"...... .   .....:%$$$+$$$+++#+X..X+#+++$$$+$$$%:.....   . ......",
".......X....XX...*$$$+$$$++++.XXXX.++++$$$+$$$*...XX....X.......",
"..X..X.XX...XXX...*>>&>>>&&%XXXXXXXX%&&>>>&>>*...XXX...XX.X..X..",
"....... .   ..........X....XXXXXXXXXX....X..........   . .......",
"........X....XX....#########,+XXXX+,#########....XX....X........",
"...X..X.XX...XXX..@@$$+$$$$$#+XXXX+#$$$$$+$$@@..XXX...XX.X..X...",
"......X.XX...XX...#++$$$$$++#+XXXX+#++$$$$$++#...XX...XX.X......",
".....X.XXX...X...@#++$$$$$$$#+XXXX+#$$$$$$$++#@...X...XXX.X.....",
"...X...XXX.......@@+$$$$$$$+##XXXX##+$$$$$$$+@@.......XXX...X...",
"...OXXXXOOX.XXXXO#++++++++$+##OOOO##+$++++++++#OXXXX.XOOXXXXO...",
"....    ..    ..@@$OOO$$OO$$@@....@@$$OO$$OOO$@@..    ..    ....",
"........XX. ....#@$$$$$$$$$$+#XXXX#+$$$$$$$$$$@#.... .XX........",
"X.XX....XX...X.@#$$$$$$$$$$$+#XXXX#+$$$$$$$$$$$#@.X...XX....XX.X",
"..X..........X.@@$$$$$OOOO$$$+XXXX+$$$OOOO$$$$$@@.X..........X..",
".............X..&>>;;;;;;;>>>*....*>>>;;;;;;;>>&..X.............",
"...................       . ........ .       ...................",
"...X..................  .. .......... ..  ..................X..."
};
