/* XPM */
static char *xpm_[] = {
/* columns rows colors chars-per-pixel */
"64 64 10 1 ",
"  c #272B37",
". c #2F2F3B",
"X c #23232F",
"o c #171B23",
"O c #1F1F27",
"+ c #272727",
"@ c #333343",
"# c #3F3F4F",
"$ c #373B4B",
"% c white",
/* pixels */
" ....XoO.    XoO+++..XoO     XoO  ...XoO.....XoO    +XoO     XoO",
".@#@.....@#@  . +@#@..   @#@+   .@#@... .@#@  .  @#@     @#@+.  ",
" @+@.....@+@     @+@..   @+@+.   @+@. . .@+@   . @+@..   @+@ .  ",
".O+O.....O+O .  +O+O..   O+O ....O+O.    O+O ... O+O .   O+O ...",
" XoO.....XoO..   XoO..   XoO     XoO   ..XoO...  XoO .   XoO..  ",
"  ....@.. ...   +  . .             . ..  ....... ....  ++   ..  ",
"  ...@#@.   .@#@+  . @#@ ..  @#@  .. @#@   ..@#@ ....@#@+   .@#@",
" .. .@+@.    @+@ ... @+@ ..++@+@     @+@+ +++@+@ ....@+@+    @+@",
"    .O+O     O+O   ..O+O ..++O+O ++  O+O+    O+O . ..O+O+ .  O+O",
"  ...XoO   ..XoO  ...XoO ..++XoO++   XoO+    XoO.....XoO  .  XoO",
"  ..... ...............  ..++ ++++    +++     .......     .  .  ",
" @#@. .+ @#@    .@#@...  @#@+ +  @#@ ++++@#@  ...@#@.    @#@ . .",
" @+@ ..  @+@.  ..@+@...  @+@++ ++@+@+++++@+@. ...@+@.  + @+@    ",
" O+O  .  O+O... .O+O... .O+O++  +O+O+   +O+O.....O+O.    O+O    ",
" XoO. .  XoO... .XoO  .  XoO+++++XoO + + XoO  ...XoO. .  XoO    ",
" .... .      .. . .     ..@ +  +       +++    ....... .  ... .. ",
"  ...@#@    .@#@. .  @#@.@@  @#@+    @#@++++ @#@.....@#@.... @#@",
" +...@+@   + @+@.+   @+@..@ +@+@++   @+@+++  @+@.....@+@.... @+@",
"  ...O+O  ++ O+O. .  O+O..@ +O+O  .. O+O++++ O+O.....O+O.... O+O",
" ....XoO +++ XoO.    XoO..@ +XoO ... XoO ++  XoO.....XoO.... XoO",
". .. ..     . ++.      ....+ +++++..   + ++ ...... .. ....  ....",
".@#@.... @#@ +++.@#@+++  @#@+++++@#@     @#@   ..@#@. ...@#@....",
".@+@.... @+@. + .@+@ ++  @+@+++++@+@   ..@+@.  ..@+@. ...@+@    ",
".O+O... .O+O    .O+O +   O+O+++++O+O    .O+O   ..O+O.....O+O    ",
".XoO  .. XoO .  .XoO +   XoO+++ +XoO + ..XoO ....XoO@....XoO   .",
".. .  .  .   .  ..   +   ..++ ++   . +   ... ....@.@@...  .  .  ",
" . ..@#@.    @#@@....@#@ .. +@#@+  ..@#@    .@#@@@.@@@#@   . @#@",
".  ..@+@ +   @+@.....@+@ .. +@+@ + . @+@++  .@+@@@.@.@+@   . @+@",
"   ..O+O +   O+O@....O+O...  O+O   ..O+O++  .O+O$@.@.O+O     O+O",
"   ..XoO  ...XoO.....XoO. .  XoO   . XoO+   .XoO@..@.XoO     XoO",
"  .. ...   . .....@........       ..  + + +   .....@....        ",
" @#@.... @#@ ....@#@.....@#@   . @#@  + +@#@ .@@@@#@.....@#@   .",
" @+@. .. @+@ . ..@+@.....@+@     @+@ ++ +@+@ ..@@@+@.....@+@    ",
" O+O.    O+O . ..O+O.....O+O     O+O.++++O+O ..@@O+O.... O+O    ",
" XoO.  . XoO . ..XoO ... XoO.....XoO.. . XoO.@...XoO.... XoO .  ",
".....     .. .....    . +   .......... . ......... .....     . .",
" ....@#@   ..@#@@.   @#@    .@#@.....@#@ . ..@#@..   @#@     @#@",
"  ...@+@  ...@+@@..  @+@ + ..@+@   . @+@ ....@+@...  @+@   . @+@",
"  ...O+O  ...O+O..  +O+O   ..O+O..@@.O+O ....O+O..   O+O     O+O",
".....XoO  ...XoO.. ++XoO+  ..XoO.....XoO++   XoO..   XoO +   XoO",
" ......  ......... ++   ++ .. .   .. . .+    ..... +  ..      . ",
" @#@...  @#@... .@#@+   +@#@... .@#@@@..+@#@     @#@+ .. @#@    ",
" @+@...  @+@... .@+@+   +@+@     @+@ .  +@+@ .   @+@+ .. @+@    ",
".O+O...  O+O...+ O+O+   +O+O     O+O  . +O+O . + O+O+ .. O+O .. ",
" XoO...  XoO...+ XoO+   +XoO     XoO... +XoO   +.XoO+ .. XoO    ",
"   . ..    ++ +   +++   +++  +++++ .... +  ++ +  .  +           ",
" +   @#@.....@#@..   @#@     @#@++ ..@#@+    @#@..+++@#@     @#@",
" ++  @+@ ....@+@..   @+@     @+@+++ .@+@+    @+@..+++@+@     @+@",
" ++  O+O ....O+O..   O+O .   O+O+++..O+O+    O+O..+++O+O .   O+O",
" ++  XoO ....XoO.    XoO     XoO+++  XoO+ +++XoO. +++XoO     XoO",
" +++  ......... .    ..   +  . +++++  ..  +++.  ..   ..   +  .  ",
"+@#@  . .@#@...  @#@ ..  @#@   ++@#@  .. @#@ .   @#@ ..  @#@    ",
"+@+@+ @..@+@.@.. @+@+  ++@+@   ++@+@+ .. @+@ .   @+@+..  @+@    ",
"+O+O+ . .O+O.... O+O .   O+O...++O+O ... O+O .   O+O .. +O+O    ",
" XoO+ . .XoO.... XoO    +XoO. .++XoO ... XoO .   XoO ... XoO    ",
".........++++ +++  .++++++   +++++   ..      .    .. . .++      ",
".....@#@.+++ @#@++ . @#@    .@#@     @#@.....@#@ +   @#@++   @#@",
".....@+@.+ ++@+@++ . @+@    .@+@     @+@   ..@+@  . +@+@     @+@",
".....O+O.    O+O++ ..O+O    .O+O  .. O+O   ..O+O  .  O+O     O+O",
".....XoO.    XoO+  . XoO     XoO  .. XoO   ..XoO  . +XoO     XoO",
".........      ++  ....      +.  ....      ....  .. +..       . ",
".@#@.....@#@.. ++@#@..   @#@ +   @#@.+   @#@...  @#@ .   @#@    ",
".@+@.....@+@.  ++@+@..   @+@ +   @+@     @+@.    @+@ .   @+@    ",
".O+O.....O+O.  ++O+O..   O+O +   O+O .   O+O...  O+O+.   O+O    "
};
