/* XPM */
static char *result[] = {
/* columns rows colors chars-per-pixel */
"64 64 29 1 ",
"  c #3F3F4F",
". c #434757",
"X c #333343",
"o c #23232F",
"O c #4F5363",
"+ c #373B4B",
"@ c #272B37",
"# c #171B23",
"$ c #2F2F3B",
"% c #1F1F27",
"& c #13131B",
"* c gray9",
"= c #373737",
"- c #432B07",
"; c #2F2F2F",
": c #3F3F3F",
"> c #331707",
", c #272727",
"< c gray12",
"1 c #331F00",
"2 c #271700",
"3 c #431F0B",
"4 c #3B1B07",
"5 c #4F370B",
"6 c #3B433B",
"7 c gray6",
"8 c #070B07",
"9 c gray31",
"0 c white",
/* pixels */
"   . ...           . ...  ....XoO ..      . +++o@oo#o$$+XX++ .$@",
".$$XXXX$X$$$$$$$$$$XXXX$XXXXX$o%.XXX$$$$XXXX@ooo#####$$@$$$$$$o%",
" $&&XXXXX$$$$$$$$$$XXXXXXXXX&&o% X&&$$$$XXXX$@ooooooo@$$$$$$*&o%",
".X&&XXXXX$$$$$$$$$$XXXXXX$X$&&@%.X&&$$$$$$$$$XX@oooooo$$$$$$&&@%",
" $&%$X$$$$$$$$$$$$@@@X$@@$$$*%o% $&%$$$$$$$$$$$$$@o@@$@@@$XX&%o%",
" $$$$$$$$$$$$$$$$@@@$@@@@@o@@$o% $=-=$$$$$$$=$$$$$=$$=$$$$$$$$o%",
"$@@@$$$$X$$$$$$$$oo@@@@@$@o@@$o# @;-;$$$XX$$$$X:$@;@$=$$$X$$$X@%",
"$@$$$$X$X$$$$$$$$$@o>@$@@@$ooo%# @;--$$$$@@oo,$$@$$==$===+X$$$@%",
"$oo@$$$$$$@@@@@@$@o<>,@@@@@ooo%<:=1-1@$ooooooo@,@@=$$$====$$$$o%",
"@ooo@$X$$$$$$$$$$oo*2>o@@o@ooo%<=<<-1o@@oo@ooo@;@;@=$$====$$$$o%",
"@oooo$X$X$XX$=3$$oo222ooo@@ooo%<=<<11@oo@@@;o<o<;@;;=$;===XX$$o%",
"@@@@oXX$$$$X$$$$$oo22<#ooooooo%<=,1--@oo@@@@oo;@,==;=$====XXX$@%",
"@@@@@X+$XXXX$$$$$;><%##ooooooo%<=,;=$@oo@=@;oo;;@,,$=$:;==XX$$o%",
"@$$$$XXXXX+XXXXX$@@oo,>o,@@ooo%<;;==$$$@@$$;;@@,@$=;;+XXXX+XXX@%",
"@@@$$@XX++XXXXXX$@,3>>>o@@oo%=<<;;;;;$$@@$$$$@;<=,,--:=X:+XXXX@%",
"@oo$@@@XX XXXXXX$o,4>ooooooo@;%<=;;--$$$@$$$=$$;;=<;;=5X5 XXXX@%",
"o,,,,@@@X+X$$XXX=,>>>ooo,@ooo@%#$,,@@$$$$:$;@@@;,-;=;;;;5+=XXX@%",
",,,,,,;;:X$$$$XX$o,%ooo<@ooooo%<$o@@@@$$$@oo<,<,<3-;-$:55::$XX@%",
",,<<%,--=X$$XXXX$@oooooo$o,o@@%#$o@@@$$$$X@o<<o,--,3X:;56XXXXX@%",
",,,%%,--=XX$XXXXX$oooooo,o,o@@%#$o@@@@$$$+$o,@,@,343$;;=++XXXX@%",
",,<<%,3--XX$$$XXX$@ooooooo$;@,%<;--@;@@$+==,,11,,3,;;;;=++XXXX@%",
",,<<,<14-XX$$$$$$$@oo,@,oo$;;@%#Xo@@@@@;;;,1341>1,,@;;,$XXX$$$o%",
",,,,<<<1-X$$$$$$$@oo@;<@@,;@;o%#Xoo,@@;--1<*222*2,,@@;;@$X$$$$o%",
",,,ooooo$$$$$$$$$@ooo@@@,o@,;o<<=,;;;$;-1**7887*>3,@@-;,$@$$$$o%",
",,,@o@o;$$$$$$$$X$@@o@oo,;o,;@<<:<;$$$;12877777<>1;=$--@@$$X$$o%",
"=,,@o@o=$$$$$$$X$$@@@oooo,oo;<%#X;$$;:;<*22<<*7**13=$--@$$$$$$o%",
"Xoo@@@@==$$X$XXXX$$=,11oo11<;;o# =$XXX;<222%<***<1,@$=$$=$$$XX@%",
"$oo@o@@==$$$$$XXX$=$11-,,,1o@@;#.=::==;*222%%<*<*%,@@,$$$@@@$$@%",
"$o@@@$@===@@@@X:XX$=$=;@@$@o@;o<5;::XX=;,<%%,<*<%,;@;@$$$$@@$X@%",
"X@@@XX$$==@o@@$XXX=$;$$@@@$,=$@<9;$;XX=$=<%<*<,<<,<,o$$$$$X$XX@%",
"X@@XX+X$@@oooo$XXX;$==$@,@@@X:@%9;,$$+++=-<,%<<<o<*@;==$XXX+XX@%",
".XX:++=$@@ooo@$X:X$$@@@@@=;;XX@<.=@;=$:+X@@,,<,o,*,$@=$:++++XX@%",
".X=+++:X;@@@@@$X:X@;@$==$$X=XX@%9$@@@=X++X=,,,<,o,@=;$=+++++XX@%",
".+$+ X:X$$$@@;=$+++=====$$XX++$<.:@o@$$$++=,<,,=::==X$$X++++++$%",
".+$: XXX$$$$==$$+++:=,==$$$::+$%.$;oo$$$  +====;;:$XX$$X ++++X@%",
".X@:=$X$$=====@$$XX:XX$$$::XXX@% @oooo@$$+$===;===$$@@$XX++XXX@%",
":X$$$$$$=,,,,@@@$X$X$=:;X:::::@% #oo#ooo$:$@@;;=;=@=@$X$XXXXXX@%",
" $$$$$$$=,ooo,@@$$$$X$$$$$$$$X@% *ooooo@$X$$;;;,;@@@$$XXXXXXXX@%",
".X$=+$$$=,1,<,o@@@@@@$==$$=$$@$< %ooooo@$$X$$$$$$$;$@$XXXXXXXX@%",
".X++=$@@@,111,,@@@$@@;$$$$@@@;;2 *#oooo@@$$$$@@$$$$$$=:XXX$$$$@%",
".XX=$@,,,,<<1@@@@o$o@@@oo,@=,<>< &*#ooo@;$$$$$XXX$$==:X+++XX$X@%",
".X::$,oooo,,@@@@;o$$@@o@@@@,,%3& &**oo@$@$$$$$$@=;;=+XXXX+XXXX@%",
".XXX:;,oooo,,;@o@,@$$$$@$@@%,312 &**o@$$@$$$$@@@$@@@XX++XXXXXX@%",
".XX+X@@,,o%%,;;,@oo=X$@oooo<1-12+&**#o$$@@$$$$@@$@@=XX++X+XX$X@%",
".XXXX@$@,,%%%%,;@@@X$@@o,oo,3--<+&**#o$$@@XXXXX$$@$XXX+++XXXXX@%",
":==:::$@@,,o%%,@@%%$$@@@@o,33-1< &*#o@$@@@XXX==@@$==6:XXXXXXX+$%",
".+++ +$@@@,,,,@@$$@@=$@@@@;1432< <#o@$$$$$$$$@@@@;===6:XXXXXXX@%",
".+XX==$@@@,,,,@@@@@$@@@@@@@,44<<+%o@@$$$$=@@@@o@;;;;;==+X+++XX$%",
".$;X$$$=,ooooo,,;;,=$$@@o@@,142<+,o@@@;$$$@@$@@@@,;;;;==$$$$X$@%",
" $$$$$$$@@oooo,,;=;=@@$$@@@;,;%< ,,,<<1;$$$@ooooo,,,;;==$$$$$$o%",
" $;;=$$$$@@@,,@,===;==$$@$==;;o%X,,o,<1;@@@,,oo#%%,,,;==$XXX$$o%",
" $;;$=$$$$$$@@;==$==;=,,;;=;;;%< @oo@=;-==,,,ooo,%,%,,==$$X$$$o%",
" @@;@=:$$$$$:;$=$$$==,,,;,;,;;1< $@@@@;;1$;,,oo,%<%%,,;$$$X$$$o%",
" @@,@$$=$$$==$$$$$$@;;;;oooo;-1< $$$$$@;;o@@$@;,,<%%,--$$$$$$$o%",
" @$==$$$$$X;$;XX$@;==@@@@@$@$=-< @$$$$@@;@ooo@@=;;,,;--$$$X$$$@%",
":$$$$X$=$;$@@;$=;@;;;;====$$$@%< $$$=$$@@@@o@@@@;====--$$$$$$$o%",
" $XXXXXX$@@@=$@$@@=;;========-1% $$$=;=@@===$$@X$@$$=-;$$@$$XXo%",
" $$$$X$:$@@@@@;@@@@=;=;;;;=$;-1% $$$$=;;@@@$$$$$$$$@@$==;;$$$$o%",
" $$$$X===$$$$@@%@@@$=======$=-%& $$$$$$;;$$$$$$@$@@@@$@$@@$$$$o%",
" $&&@$$$$$$$$%oo$$@$@$$$$$$=**%& $&&o$$$$$$$$@@o@@@o#@@@@@@$7&%&",
" $7&$$$$$$$$o%%o$$@$$$$$$===77%& $7&$$$$$$$$@@oo@@o##oo@@@@@7&%&",
" $&%$$$$$$$oooo%$$@$$$$$$$$@&&%& $&%$@$$$$$@@ooo@oo##ooo@@@o*%%&",
" $$$$$$$$$$ooooo@$@$$$$$$$$@@o%& $$$@$$$$$$@ooooooo##oooo@@oo@%%",
"$%%%%%%%%%%%%%%%%%%%%%%%%%%%%%%&X%%%%%%%%%##%%%###########%%%%%%"
};
