/* XPM */
static char *result[] = {
/* columns rows colors chars-per-pixel */
"64 64 41 1 ",
"  c black",
". c #1F1F27",
"X c gray6",
"o c gray9",
"O c gray28",
"+ c #4F370B",
"@ c #432B07",
"# c #2F2F2F",
"$ c #3F3F4F",
"% c #434757",
"& c #4B4B5F",
"* c #4F5363",
"= c #57576B",
"- c #5B5F73",
"; c #373B4B",
": c #13131B",
"> c #23232F",
", c #777B93",
"< c #73778B",
"1 c #272B37",
"2 c #5F6377",
"3 c #676B7F",
"4 c #333343",
"5 c #2F2F3B",
"6 c #3F3F3F",
"7 c #A3ABC3",
"8 c #272727",
"9 c #431F0B",
"0 c #171B23",
"q c #373737",
"w c #1B1F1F",
"e c #0F0F13",
"r c #878BA3",
"t c #7F839B",
"y c gray39",
"u c #6B6F87",
"i c gray31",
"p c #9397AF",
"a c #979FB7",
"s c #272B27",
"d c white",
/* pixels */
" .XooO++@#$$%$$$%&*===--*======**&&%%$$;%$$$$$&----=**O++@#o.X: ",
";...>*,<;1$%$%$$$%&****=&&****&&&&%%%$$$$$$$%%*2322-***,<;145..4",
"6*...<7=51%1114444$$$$%%%$%$$$$$$;4441111111111111.14*<7=5148.&5",
"49=>.$%40.5oooooXXXoooooXXXoooooooooXXXoooooXXXooooo.4$%40.8><$4",
"5q6=>;>w..>w:  ewe ewe ewe ewe eXe e:   :   :e ewe :w1;>w..1r*45",
"O++@#>..4.  :e :8e e8: :8e e8: :we e.e e.e e.: :8e e$.4$$1>tO++@",
"*,<;1*..8e  88.1$:X:$1.1$:X:$1.11:X:5>e>4:X:$1.1$:X:$1>55>2-*,<;",
"<7=51$6 >  e$&-&$:X:$&-&$:X:$$&$8:X:5$$$5:X:$&-&$:X:$&-&5y$$<7=5",
"$%40.$55.  :$4>4$:X:$4>$$:X:$$4$1:X:4$5$4:X:$4>4$:X:$4>$$u$1$%40",
";>w..5.:.e :$.e.$:X:$.e.$.X:$1e11:X:4#e14:X:$.e.$:X:$.e.$.t%;>w.",
"***41: :8:X:$:X:$:X.%.X.&.X:$.X.1:X:4:X.4:X:$:X:$:X.%.X.&.Xt$4$%",
"**4.X  w4>>1$:X:$5>5$wXw%5>5$.X.1>>>4wX.4>>1$:X:$5>5$wXw%5>53%$&",
"=-1  X .;$$$$:X:$$$$$wXw&$&$$.X.15444wX.;$$$$:X:$$$$$wXw&$&$$2%=",
"-2. e.X.;484$:X.$5w5&wXw&5>5%>X.1>.>5.X.;484$:X.$5w5&wXw&5>5%**=",
"-21 :.e.$8e8$:e.$we>&wew&>ew$>e.1.e.5.e.$8e8$:e.$we>&wew&>ew$-&&",
"-31 .:e:5.e.4:e:4.e.4wew4.e.4:X:>:ew1:e:5.e.4:e:4.e.4wew4.e.4=&*",
"-21 .:e:5.e.4:e:4.e.4wew4.e.4:X:>:ew1:e:5.e.4:e:4.e.4wew4.e.4i&&",
"&*1 .:X:5>.14wXw41.14.X.41.14wXw>.:w1:X:5>.14wXw41.14.X.41.14i&$",
"$%1 .:X:5;$$4wXw4$=$4.X.4$=$4.Xw885#5:X:5;$$4wXw4$=$4.X.4$=$4&%$",
"$%1 .:X:55>54.X.4484;.X.;4>44.X.8>>>5:X:55>54.X.4484;.X.;4>44*%$",
"$$1 .:X:4:Xw4.X.$.X.$.X.$.X.$.X.8.X.5:X:4:Xw4.X.$.X.$.X.$.X.$-=%",
"$$1 .:X:4:X:4.e.$:X:$.e.$:X:$.e.8:X:5:X:4:X:4.e.$:X:$.e.$:X:$2-%",
"$$1 .>e>4:X:$1.1$:X:$1.1$:X:$1.11:X:5>e>4:X:$1.1$:X:$1.1$:X:$u2&",
"%$1 .$$$5:X:$&-&$:X:$&-&$:X:$$&$8:X:5$$$5:X:$&-&$:X:$&-&$:X:$2=&",
";$1 .$5$4:X:$4>4$:X:$4>$$:X:$$4$1:X:4$5$4:X:$4>4$:X:$4>$$:X:$O%;",
"$$1 .#e14:X:$.e.$:X:$.e.$.X:$1e11:X:4#e14:X:$.e.$:X:$.e.$.X:$&O4",
"$$1 .:X.4:X:$:X:$:X.%.X.&.X:$.X.1:X:4:X.4:X:$:X:$:X.%.X.&.X:$-%$",
"%%4 .wX.4>>1$:X:$5>5$wXw%5>5$.X.1>>>4wX.4>>1$:X:$5>5$wXw%5>5$2&$",
"%%4 .wX.;$$$$:X:$$$$$wXw&$&$$.X.15444wX.;$$$$:X:$$$$$wXw&$&$$3*%",
"&%4 ..X.;484$:X.$5w5&wXw&5>5%>X.1>.>5.X.;484$:X.$5w5&wXw&5>5%,=&",
"&&; ..e.$8e8$:e.$we>&wew&>ew$>e.1.e.5.e.$8e8$:e.$we>&wew&>ew$t-=",
"*&$ .:e:5.e.4:e:4.e.4wew4.e.4:X:>:ew1:e:5.e.4:e:4.e.4wew4.e.4r2=",
"*&$ .:e:5.e.4:e:4.e.4wew4.e.4:X:>:ew1:e:5.e.4:e:4.e.4wew4.e.4p2=",
"=&$ .:X:5>.14wXw41.14.X.41.14wXw>.:w1:X:5>.14wXw41.14.X.41.14r2-",
"=*$ .:X:5;$$4wXw4$=$4.X.4$=$4.Xw885#5:X:5;$$4wXw4$=$4.X.4$=$4r2-",
"=*$ .:X:55>54.X.4484;.X.;4>44.X.8>>>5:X:55>54.X.4484;.X.;4>44t32",
"=*$ .:X:4:Xw4.X.$.X.$.X.$.X.$.X.8.X.5:X:4:Xw4.X.$.X.$.X.$.X.$t32",
"=*% .:X:4:X:4.e.$:X:$.e.$:X:$.e.8:X:5:X:4:X:4.e.$:X:$.e.$:X:$u-=",
"=&$ .>e>4:X:$1.1$:X:$1.1$:X:$1.11:X:5>e>4:X:$1.1$:X:$1.1$:X:$3==",
"*&% .$$$5:X:$&-&$:X:$&-&$:X:$$&$8:X:5$$$5:X:$&-&$:X:$&-&$:X:$u-=",
"-=% .$5$4:X:$4>4$:X:$4>$$:X:$$4$1:X:4$5$4:X:$4>4$:X:$4>$$:X:$a32",
"-*% .#e14:X:$.e.$:X:$.e.$.X:$1e11:X:4#e14:X:$.e.$:X:$.e.$.X:$p32",
"=*$ .:X.4:X:$:X:$:X.%.X.&.X:$.X.1:X:4:X.4:X:$:X:$:X.%.X.&.X:$r32",
"=*$ .wX.4>>1$:X:$5>5$wXw%5>5$.X.1>>>4wX.4>>1$:X:$5>5$wXw%5>5$t32",
"=*$ .wX.;$$$$:X:$$$$$wXw&$&$$.X.15444wX.;$$$$:X:$$$$$wXw&$&$$t2=",
"*&$ ..X.;484$:X.$5w5&wXw&5>5%>X.1>.>5.X.;484$:X.$5w5&wXw&5>5%2**",
"&%4 ..e.$8e8$:e.$we>&wew&>ew$>e.1.e.5.e.$8e8$:e.$we>&wew&>ew$2&&",
"%$4 .:e:5.e.4:e:4.e.4wew4.e.4:X:>:ew1:e:5.e.4:e:4.e.4wew4.e.42&&",
"$$4 .:e:5.e.4:e:4.e.4wew4.e.4:X:>:ew1:e:5.e.4:e:4.e.4wew4.e.4=%%",
"$$4 .:X:5>.14wXw41.14.X.41.14wXw>.:w1:X:5>.14wXw41.14.X.41.14*$$",
"$%1 .:X:5;$$4wXw4$=$4.X.4$=$4.Xw885#5:X:5;$$4wXw4$=$4.X.4$=$4&%$",
"%$1 :e :55>54.X.4484;.X.;4>44.X.8>>>5:X:55>54.X.4484;.X.;4>58&$$",
"$%1 ee X4:Xw4.X.$.X.$.X.$.X.$.X.8.X.5:X:4:Xw4.X.$.X.$.X.$. :&$;$",
"$$%1.  e5:X:4.e.$:X:$.e.$:X:$.e.8:X:5:X:4:X:4.e.$:X:$.e.$: &44$$",
"O++@#X :.XX:$1.1$:X:$1.1$:X:$1.11:X:5>e>4:X:$1.1$:X:$1.1$e=&%%%$",
"O++@#4w:.e :$&-&$:X:$&-&$:X:$$&$8:X:5$$$5:X:$&-&$:X:$&-%1*%O++@#",
"*,<;14. :e X$4>4$:X:$4>$$:X:$$4$1:X:4$5$4:X:$4>4$:X:$4>1184*,<;1",
"<7=51.ee4  e4.e.$:X:$.e.$.X:$1e11:X:4#e14:X:$.e.$:X:$. <1w.<7=51",
"$%40.:1-%$ e8XX:$:X.%.X.&.X:$.X.1:X:4:X.4:X:$:X:$:X.$:,$35.$%40.",
";>w..O++@#4e8eX:$5>5$wXw%5>5$.X.1>>>4wX.4>>1$:X:$5>11,%$-<4;>w..",
"s58:5*,<;14$:  e88888X X58588: :.....X :>8888e e88152$O++@#4:.##",
"1.:q3<7=514$&&*=222ttrpau3uttrrprt,32-&O2u2-*&ii=-*2%4*,<;13>:85",
"w:>*5$%40.$;$%$%&&*23333-=-332222-=*&%O%=2-=%%&&&&*%$$<7=51-%8:.",
"  #:X;>w..$$$$$%&&*=2222===22--===&%$$4;&&%%$$$&*&==&%$%40.0>4: "
};
