/* XPM */
static char *xpm_[] = {
/* columns rows colors chars-per-pixel */
"64 64 27 1 ",
"  c #373B4B",
". c #272B37",
"X c #070707",
"o c #3F3F4F",
"O c #434757",
"+ c #0F0F13",
"@ c #23232F",
"# c #1F1F27",
"$ c #171B23",
"% c black",
"& c #2F2F3B",
"* c #0B0B0F",
"= c #373737",
"- c #13131B",
"; c #2F2F2F",
": c #5F0000",
"> c #272727",
", c #871F00",
"< c #D7A300",
"1 c gray9",
"2 c #AF5700",
"3 c #F7FF00",
"4 c gray12",
"5 c #333343",
"6 c gray28",
"7 c gray31",
"8 c white",
/* pixels */
"  ..............Xoooooooooo   o  oOooOoooo   ooOX..............+",
" ..@@#@##@.####$% &&&.&.&&&&...& .&&&&&& && &&..%.@@#@##@.####$*",
" ..@@@#@##@@###$% .&& &&.&&&&. &&&. &.& &&& && #%.@@@#@##@@###$*",
" @&&..@@@..@.@@$% o&=..&.&&&&&&&....&&.&&  &. &-%&&..@@@..@.@@$*",
" @.@......@...@$%o=o .&&&& &&&.@@.&&&&&..&.&&.&#%.@......@...@$*",
"o.&....;::>...@$%o==&= &&&&&&&..@@.& &&..& &  &#%&....;::>...@$*",
"  ...&>,<<,;..#1%o=====&&&&&& &.@.@&...&..&& &&#%...&>,<<,;..#1*",
" &&...:2332:&.#$% ..&.&#$@&&&======&&.@@$@@.&&=#%&...:2332:&.#$*",
"O&.@.&:2332:&.#1% .....--*$$$$>4>>>>>>>*+$.====#%.@.&:2332:&.#1*",
" &&@.&:2332:&.#$% .;..@@-$@#..##===;;=&#-@&==&=#%&@.&:2332:&.#$*",
" &...&:2332:&&##% ..@@@@@@@@.@@.@&=;>;.&..@=;.=#%...&:2332:&&##*",
" &.#..:2332:&.#1%o&@@@.@@...@.. &&.==...&.&==&=#%.#..:2332:&.#1*",
" &.#.&:2332:&.$$% .@@@@@ .&.&&.&&&&&&...&&.==&=#%.#.&:2332:&.$$*",
"O&.#.&:2332:&.##% .&@...&&@@& .&&&&&&..&&&&====>%.#.&:2332:&.##*",
"o....&:2332:..#1% =.@@&&&&&.&&...&&&&&&&&&.=;;=>%...&:2332:..#1*",
"o..@.&:2332:&.#1% ;@@@.#$@&......@@.&&&#$@.==;;>%.@.&:2332:&.#1*",
"O..@.&:2332:&.#1% ;@@@.$-*$$$$$-$$$-$$$+-$@;;=@>%.@.&:2332:&.#1*",
"o..#..:2332:&.#1% =&@#@@-@..@....@...@.$$#.;===>%.#..:2332:&.#1*",
"O..#@&:2332:&.#1%o..&@@@.&.&&&.&.@..@@@.&&.=;=;$%.#@&:2332:&.#1*",
" ..@..:2332:&.#1%o@@@@.@.&.&&.&&&@..@.&&&&@&=.=>%.@..:2332:&.#1*",
" &...&:2332:&&@$%o..@@.@&&&&&.&&&..@@...&.&&&&=>%...&:2332:&&@$*",
" ..#.&:2332:&5##% &&.@.@....&&&&....&&....&&&&&>%.#.&:2332:&5##*",
" ..#@&:2332:&&##% .&.@.@@...&...&&.&...&&.&&&&=>%.#@&:2332:&&##*",
" ....&:2332:&5##% ...@@$-@@.@.@.&.@.&..#$@&&&&=>%...&:2332:&5##*",
" .&..&;,<<,;&..#% &.@#@-**$$-$$$-$$$$$$++$&&&&=>%&..&;,<<,;&..#*",
" &...&.>::;;5.##%o.....$-$@..&&&&......$$@&&&&=>%...&.>::;;5.##*",
" .&..&.@@...@=##% .@&@.@@.@&@..&&...@....&&&&&=>%&..&.@@...@.##*",
"o&&.....@@.@.=##% @..@#@@.&@@.@.&..@@@@...&&&&=>%&.....@@.@..##*",
"o&&.@@#@@@@=;;#1%o.@@@@...@@@@..&.&@@@&&@&.&&&=$%&&@@#@@@@.@@#1*",
" .&@@######>>>#$%O.@@@@@.@@.@..@.&.&.@&&.&&&&.=>%&;@##########$*",
"o@.@#######>>>$$%o=@@@#@&.@.@#..&&&&&..@@&&.@..#%.;##########$$*",
"o&.@##@#@##>;>#1%o&.@.#@-@...#&=&&&&&&&@$#..&..#%.;##@#@###@##1*",
"o@.##@#####>>>#1% .....-++--$$-$$$$$$$$++$.&&=.#%.>#@#########1*",
"o.&@;@###>#>;>#$%o&&. .$-$...;@=&=.&&@&@-$..==.#%&;@@######@##$*",
"6@.@>>###;#@;>>$%o&&.&@@@;=;==;=.&&&==;.#@@.==.-%.@#####@#@@##$*",
"o .@=;#@@@..@;>$%o&&&.@@..&;=;>=&&.=6&&....#==&-%.@=@@@@@..@@#$*",
"o&..===@.....==1%o.&.......@@$====.&.==.&&&===@-%..&..@.......1*",
"o@.@.===.....=>1% .&=..@.@@.@@.=.&&&@.=.@.&===@#%.@..........#1*",
" ....&...&&.&&>$%o===.&@..@.@@@;..&.....&@.=;=.-%...&...&&.&&#$*",
" @.@...;::;;&.>;%o===.@$$$..@@.#@..@...#$@.===.-%.@...;::;;&.#@*",
" ..@.&;,<<,;&.>>%o===@@-+*$$-$----$$$$$+-$.&=;;#%.@.&;,<<,;&.##*",
" &.@@&:2332:&&&1%o==.@@$-@@&.@@@#@@....#$@..==;#%.@@&:2332:&&&1*",
" ..#.&:2332:&&#$%o=;@.@..==o.@@.#@.@.@&@&&@&.;;#%.#.&:2332:&&#$*",
"o..#.5:2332:&.#1% .@@.@..====...#@@.@.&&@..&.@@#%.#.5:2332:&.#1*",
" &.@.&:2332:&.#$%o.@...@.====...@;@@..&..@.&.@@-%.@.&:2332:&.#$*",
"o@.#@5:2332:&.@1%o&&.@@@..===&.@.;@@@..&&..&.&@-%.#@5:2332:&.@1*",
"o..#.&:2332:&&#1% &&&..@...&=&.@.;@@@&&..&.&...-%.#.&:2332:&&#1*",
" &.@.&:2332:&.@1%o&..@.@$#.&....&#@@..&#$@..&&.-%.@.&:2332:&.@1*",
"o&...&:2332:&&#1% ..@..$++$$$$$$$$-$$$$++$ .& &#%...&:2332:&&#1*",
" ..#.&:2332:&5&1% .....$$#@@.&& ..&.&&&&$@...&.#%.#.&:2332:&5&1*",
"o..@.&:2332:&&@1% @...&&.@@@.&.&@..&.&&&.@@@..&#%.@.&:2332:&&@1*",
" ..@.&:2332:&&@1% .@....@@.@.@ .@@.@.&&&.@@..&.#%.@.&:2332:&&@1*",
" ..@.&:2332:&&@$% .@@&.@.@@@@@&&&@.@&.. &....&&#%.@.&:2332:&&@$*",
" &&@.&:2332:&&.$% @@@@.@#@@.@@@.@@@..@@o=.&.&.&#%&@.&:2332:&&.$*",
" .&@@.:2332:&&@#% @@@.@@@..@..@@.@..@====.&.&&&-%&@@.:2332:&&@#*",
" ..#@&:2332:&..$%o&@@@#@-@.#@@@...@.&===>#&&.&&#%.#@&:2332:&..$X",
" &&...:2332:&&.#%o&&.@@-**$$--$$-$$$$>>$1$...&&#%&...:2332:&&.#X",
" &.@..:2332:.5@$% =.&.@@-@@.@..&@& &&===$#&&& &#%.@..:2332:.5@$X",
"O&....;,<<,>..@#%o>@&..&..@..@@ ...@ &.&.&& &==#%....;,<<,>..@#X",
" ..#@@>>::>>.@##% &;=7====@...&&.@@@&@.@..&.&.7#%.#@@>>::>>.@##X",
"  &####@#####@@#% ===o6==7&&@.&. .@&@.&@..&=o==#%&####@#####@@#X",
"o.&#@@###..@##@$%o.&&==o&..&..@@.&   ....@..&@@#%&#@@###..@##@$X",
".#@$11#11111#$11%&####@##@####-####-#-###-#####-%@$11#11111#$11*",
"+**************X%******************************X%**************+"
};
