/* XPM */
static char *tile0661740674605[] = {
/* columns rows colors chars-per-pixel */
"64 64 21 1 ",
"  c #43230F",
". c #373737",
"X c #3F3F3F",
"o c #2F2F2F",
"O c gray28",
"+ c #57371F",
"@ c #1F2F1F",
"# c #3B1B07",
"$ c #272B27",
"% c #1F1F27",
"& c #23232F",
"* c #272727",
"= c #331707",
"- c gray12",
"; c gray9",
": c #271700",
"> c #1B1F1F",
", c #2F3733",
"< c #171B23",
"1 c #432B07",
"2 c white",
/* pixels */
"  ....XXXXXXo.XXX...X...XoOOOOXXXXXX+.oX+X..ooo... ooo  o  o o  ",
"o   oo  ....  o+o  o o o. ......+.+..  .ooo o o o o  oo  o  @# @",
" $oo+o oo+.+% .o oo oo .o$.....ooo.+. $oo  o o o . $oo & @*$  @=",
"o o o o o.o. oo o oo ooo.$...+o.oo...  o o oo o .. o.o @** o@# -",
" @#o o o ...$ .o.o oooooo$....oooo+.o $o oo oo oo. *o o $$o  @#-",
"$*  $ o o...$o..+o.. ooo $X...ooo..oo $.o ooo oo..o$. ooo $@# @=",
" @% @# oo...$o.......oooo$.X..o.ooo.o $oo $o o..o.o$..o oo * @ -",
" -=@=$ $o...$o......ooooo$X........o.o oooo o.o....$.... o @* @=",
" @ -* &o ...=o..X...ooooo$.X......... $ oo o.....X.o.....oo*$$ -",
" ;@=@% oo...$o.XX...ooooo$............ oo o..o...X.*....ooo $ @=",
" @=@*$ $o...$........oooo .........o.o$. oooo....X.o.....oo &$ -",
" -*  @*oo.o.$.X.X.....ooo$....o...o.o $.. o o.....o*....oooo &$=",
"$* &$o oooo.$XXX.X.......=...o...o. oo$...o.....o.o$.oooooo $ $ ",
"o & $ o ooo.$XX.......X..$..ooo.o.oooo .oo....oo..o$oooooooo$oo=",
"o @ @o $o o.o.X.......XX.$.ooooo.o.oo @o.o...o oo.o=ooo*o o oo $",
"$-:-=-=%$$$$*oo o o $oo o $$$o*$$o*$$-=$$ o $$o*$$=%$=-=>%=%= @=",
" oooo..ooo..$.XX.XXXXOXXX$......X....o$....X...o. $$oooooo...o.$",
"oooooooooooo$ooo....X....$.o.......oo @.o...o ooooo=oooooooooo $",
"o  @oooo ooo$oooo...X....$ooo.....o oo o.o...ooooo %oo*oooo ooo$",
". @* oo oooo$o.. ...X...o$oo...XX....o$.o.o.o.ooooo=ooo ooooooo ",
"o -$$$ooooo.$...o..X...oo$....XXXX...o$.oo...o.oo $=o oooo.. oo$",
". $$o* oooo.$o. o..X....o=.oo..XXX...o$.o.o.o.o oo$=o$o oo. oo $",
" $ $ ooooooo$ oo ...X....=ooo..XXX... $..o.o.o.ooo$=ooooooooo o ",
" $$$oooo.ooo $ooooo......$oooo.XXXX.X.$...o.o.oooo$=ooooooooo o ",
" o $oooo..o.%oooo o..XXX.=oooo..XX..X.$....o.ooooo$=o ooooo oo @",
"  o ooo.....$oo ooo ..X..=oooo..X.XXX.$....ooooooo$=oo ooooo o *",
"oo oooo.....$o oo ooo.XX.%o oo....XX.. X..o.o.o. o %oo..oo $oo $",
" oo oo......$ooo o  ....o=o$oo........$...oo.o.oo o o o.ooo o o=",
".  o o......$ooooooo o..o%oooooo.....o$.ooo.......o$...o.o $ $o ",
". oo........$o o o oo ooo $oo oo.o...o . o.o......o$X..o.oo$o o-",
".o ooo......-oooo oo oooo=oooooooo.ooo=ooooo...... oX..o.ooo o *",
" $$  @#ooo $== -*$ @*=$ %=$$$ $$$$o*o*=$= @* oo o $* o o $$$$$ -",
".+.,XXXXOXXX$oooo....o.oo%...o.....XX. oooo...XOXX.oXXOXOX..... ",
".o ooo..XX..% o o o o o o=oooooooo.ooo=o$ oo .....o ...... o o $",
"oooooo...X.. $o $ooo $ $$%ooooooooo oo=o$$ooo oo..o ,..XX.ooooo ",
"   @o .....X$ooo o oo &oo=oooooooooo o=o$o oooo .+o ,..X..o o o ",
" $$  oo.....$oooo o $$$o %ooo ooo ..oo oo $  @ooooo ,.....oo o @",
"o  &@ ......$oo oo $ $$*$=$ooooooo.o o=o oooo  @o o@..... o ooo=",
"o@%=*$ o....$oooo $$$$o*$<$oo o ooo o -ooo oo @*oo *.....oo$o o ",
" * @& o ..oo $o $$$$$$*$$;*o$o o ooooo=o oo $$&  $ @.oo.ooo oo @",
"$$$*$ $o ooo= $ $$$=$$$$$=$o*$$oo o o @o oo $ $@* @= oooooo$ @o=",
" @*$ &$ooo  @ $ &$$$$$$oo=$*o o $o $oo ..oo &$ * @*=o o oooo * @",
"o  @oo o oo.*o o $$$$$ooo$oooooo $o . $X.o o$ $ &*=-ooooooo &oo=",
" @*o o $oo .$o.o$$$$$oooo=.ooo oo o .. X.. o o & @==o oo. oo $ @",
"o  $o &oooo.$.oo @*$$* oo$ oooo o $o.o .... $oo &* -ooooooo $ $=",
" @# $ @o oo.$..oo*$$$$$ o$.ooo o $oo o@....oo $ @*@=ooo oooo$o @",
"$*@ @*ooo.oo$..o $$$$$$o.$oo oo$ $ oo *o....o$$@=$*=oooooooo @* ",
" -=-=-*o*o*$=$$$-=-=--=$$$$$$=-:-*$=$ -*$o*$$$=-==%=$$o*o*$$$*@-",
" o o o...X..$oooooooo....$.oooooooo oo*..oo.o.ooooo$.......o.o. ",
"  @#$ oooooo=oooooo oo .. oo $  @ooooo=.o.oooooo*o$$oo..o ooooo$",
" $  &o ooooo$ooo* oo o.o.= o $$$* o oo o.oooooooooo*oo.... o oo$",
"o @*oo....oo=oo*$$ o o..o$o &$ ooo ooo%.o.oooooo*o*$..o..o.ooo $",
" @*o  ..o..o%ooo$$oo..o. =o$$$ $ ooo.o$ooooooo *$oo$.o.o...o oo ",
"o  @ooo.o..o$oo $$oo..o.o=o$o*$oooo.oo$.o..oooooooo$..o...o. o @",
" @#o ooo..oo$oo$ooo .o.o.=o$ oo oooooo ooo oooo ooo$oo.o.o.. o -",
"o  $ o o..o.=ooooo o..... $$oooooooooo=oo.ooooooooo$ooooo.o.ooo=",
" @#o oooo o.$ooo o.......%o o oooo o.o oooooo o o.o$. .o.o.oo o ",
"o  @o oooooo=o * $o...ooo o $oo o o.oo=o o ooo oo o$.oo.oooo o @",
" @#* o o ooo= $$o o..o oo=oo oo oo.o. $..o o oo oo @ .ooooo o o ",
"   @* o $o o-*  $oo ooooo=o $ oo ooo. $+.oo o oo o %  ooooo o o$",
" @#*o $o o o=$$o o oo  o -oo o oo  .o $.+.o o o o @=o o .o o o $",
"o  @ o oo  o=$o o o oo $o= oo o oo oo $...o  o  o % oo    o o o ",
" @#*  $ o $ = @# $o @#$ $=o  o o oo oo=.+.oo @*o $ -# $o o o  @*",
" -1 &$ o $   $ @* o %o o - o o $  oo o ,.+. o  $  $ o @#$ $ $  $"
};
