/* XPM */
static char *result[] = {
/* columns rows colors chars-per-pixel */
"64 64 23 1 ",
"  c black",
". c #3B1B07",
"X c #331707",
"o c #431F0B",
"O c #271700",
"+ c #4F270F",
"@ c gray6",
"# c gray12",
"$ c #572B0F",
"% c #0B0B0B",
"& c #432B07",
"* c #272727",
"= c #6B3717",
"- c #331F00",
"; c #171B23",
": c #4F370B",
"> c #87472B",
", c #632F13",
"< c #5F430F",
"1 c #733B1B",
"2 c #9F5B3F",
"3 c #070707",
"4 c white",
/* pixels */
" .Xo        O..  .oO        O..  .oO        O..  .oO        O.. ",
"++oO@o++++o@@XX....O@#++++o@Oooo...OOoo+$oo%OoXO.ooO@oo+$$o@Oooo",
"++oO@@...XO@O......O@O.X..O@Ooooo&oOO.oX.oO@@&&&+ooO@O.oooO@Oooo",
"++oO%%@OO@@%@**....O%%OOOO@%Ooooo&&O@OOOOO@%O&&&&+oO@@OOOO@%Oooo",
" .XO        O**  .oO        O..  *&O        Oo*  *oO        O.. ",
"++oO%#&o+=&@O&&&oooO@o$===&%O.*.o**O@o$+++o@O.o***XO@o++++o@O...",
"o+.O@@**-&#@O&&&&&oO@O&&&&#%@o*+o**#O.+oooO@Ooo&&&oO@Oo.**;%O...",
"++.O@@%%%#%%Oooo&&oO@@OOOO@%O+*&***#@O.OOO@%Ooo.&ooO%@O###%%O...",
" .XO        O..  *&O        O**  *&#        O..  .oO        O.. ",
"++oO%&:::>&%Ooo&&&&O@o$$$$o%;&&*&**OOo,$$$o@Ooooooo#%o$:&&;%O.X.",
"++oO%#**&&;%Oo&&&+oO@Ooooo;%;**&***OO.+oooO@Oooooo&;%#o**-%%O.XX",
"++oO%%;;%;%%OooooooO@@OOOO%%;*&**&*O@O.OOO@%Oooo+&&;%%OO@O%%O.XX",
" .XO        O..  .&O        O**  *+#        O..  &&;        O.. ",
"o+oO%&:&&>&%Ooo+&&+O@o$$$$+%O***o..##&==$$o@Oooo&&&;%o$oooo%O.XX",
"++oO@O.o*&;%O+&&+ooO@OooooO%O**o..*##*:&+oO@Oooo&&&O%Oo.XX#%%.XX",
"++o.%@OO;*;#o++&&:+.@OOOOOO%#&&&+&:#%#*#OO@@Ooo&&&o#%%O@O%%%%.XX",
" .XO        #o.  *&O        #o*  *&#        O..  .o;        #.. ",
"++oO%&+&:>&;*+o:::o.Oo$$$=o@#+&&oo&;#&<>>$o@Ooooooo;%&$++:&%O..X",
"++oO%;&&*&&;*+++&ooO@Ooo+&O%#o.o..*;%;:&&&O@O++++++*;*+oooO%O..X",
"++oO%%#;;;;%*o++oooO@O..o*;%Oo&&..*#%%;;;;%%O+++++:*;O.OOO%%#..X",
" .XO        O.*  *&O        O..  .&#        O..  .o#        #.. ",
"+++.@&<$><&;*+:&&&&#@o,=<<&%#&o&..oO@+1>>1&@O++++++.Oo,$$$&%#.XX",
"++oO@O&&&:*;*&+:&&+#@.+:::*O*:+:oooOO.:&&&;@O+++:++.O.::++*#oooo",
"++oO%%O#;*;;*&+:&&o#%O.***#%*:++oooO@O*#;;%%O+o::++.@O**..O@.ooo",
" .XO        ;..  *o#        ;o.  .oO        O.o  .oO        O.. ",
"++oO@o$$$=&%O.o&X*.#%o$=>=&;*+++oo&OO+,$==&@O+:::++.O&<,,,oO.ooo",
"++oO@Ooo+&#%#oo+.*.#%Oo&&&*;*:++oo&#O.++&&O@O::::++.#*:+++.O.ooo",
"+++.@@OO.*O%*&o+ooo#%Oo***#%*&:+ooo#%O.#OO%@O:::+++o##*...O@.ooo",
" .XO        #*o  .o#        ;**  .oO        Oo*  .+#        O.. ",
"+++.#&=<=,o#*&&+ooo#%&<<><+#*::+oooOO+<2>1&@O+++++:*#&<<=,oO.oXo",
"+++.#O&&&oO%O.&oX..%%O::::+#*::+oooOO.:&:&O@O++o+::*;*:::+.O.ooo",
"+++.#%OOOO%%#.&oX..;%@..&*;%&::+oo&#@#&;;#%%O++::::*%;**o.OO.ooo",
" .XO        #.*  .o#        ;&.  *&O        O.*  o&;        O.. ",
"+++.O&=$$$o%O..o...#%o,=>>&%;+++o&&#@o$:::o%O+++++:*;&=,,,oOOooo",
"+++.O#&&ooO%O*oo..X%%Oo:::*%*+++o&&O@Oo+&.O@O+++o::*#*+++oOO.ooo",
"+++.O%O;OO@%#-oo...O%@o#**;%*:+:oooO@@#%;O%%O++++::*%#....O@.o.o",
" .XO        ;..  .oO        ;o.  .oO        O..  +&#        O.. ",
"+++.Oo$=>$o%#-oo...O@#+::=&%%*.o-o+O@o=::+o%O++++::##&,==,o@O.oo",
"+++.OO&&&oO%#*o..**O@OXo*&;@OX.&&*&O%%&***O%O++++::*#O+:++O@Oooo",
"o+oO%%%;%@%%%*oo.**O@%OO%#%%Oo.&&&:@3%#;;;%@O+++:::*%O..OO@@..oo",
" .XO        #o.  *&O        O.*  *&O        O..  *&O        O.. ",
"oooO@+&:&+o%%.o+..*O%;=:+&&@Oo&&&&&O@&=:::&@O+++o+oOO&=$,,oO.ooo",
".ooO@O.**.@%#.&+XX.O%#&**-O@O.+&oooO@O&**&%@O++++++.#*++o+.O.ooo",
"oooO@@O#%O%%#*+oXXXO%%#;%#%%Ooo&&ooO@%;###@@O++++++*OO.OO.O@.ooo",
" .XO        #*o  .oO        O..  .oO        O..  .oO        O.. ",
"oooO@o++o$&%#&&oooo@%;>:=>&%Ooo&&o&O@&$o++o%Oo+++++.@oo=$$o@Oooo",
"oooO@OooX&#%Oo&&&ooO%;&&*&O%Ooo&&&&#@O&X..O@Oo++++o.OO.&ooO@Oooo",
"+++.@@..O*#@Oo++&&o@%%;;#;@%Ooo+&&&#%%#OOO@%Oo+++++.@@O@OO@%Oooo",
" .XO        O..  *oO        O..  *&#        O..  .oO        O.. ",
"+++.Oo,,==o@Oo+o&+o@%#==$=o@Ooo&&&&#%&=+::o@O.oooo+#@o$$$$o@Oooo",
"+++@@#::&:#%@o+ooo&O%@&&++.O.++:&&&#%;:o+*O@O.ooooo%@O....#@O...",
"+++OO%####%%O&&&&&&@3%OOO.O@.+::&&&#%%;#;;@%@.oooooO%@OOOO%%O...",
" .XO %      Oo*  *&O        O.*  *&O        O..  .oO        O.. ",
"+++.O+==:=&%O+&&&&&@%;$$><+O.+::&&&O%&>=>=&@@o+++o+O@oo+$$o@Oooo",
"o++O@O+&*&#%O&&&&&*%%%oo&+.O.++&&&&O%#:&&&#@Oo+++:&O%O..ooO@Oooo",
"++oO@@OO%O%%O&&&&*&%%%OOOOO@.+oo.&+#%%##;#%%OO++++oO%@OOOO@@Oooo",
" .XO        O.*  *&;        O..  *&#        #..  .oO        O.. ",
"+++.Oo$$+$o@Oo&&&&&%%;$$$+o@.o+o.**;@#$===+%#X++++o@@o++oo#%@XXX",
"+++.OOoo.oO@Oo&&&&&%%@ooo+.O.+++o&*%%@o&&o#%OXXoX..O@O.XooO@Oooo",
"+oo.O@OOOO@@OX.*#X.@%@OOOO@@.+++o&*%@@OOOO%%@XXX+..O@@OOOO@%Oooo",
" .XO        O..  .oO        O..  *&O        O..  .oO        O.. ",
"+o+.@o$$+oo@O..XXXXO@#$,$,oO.+++:::OOo+,+o#%@o+oXo.O@o$++$o%@ooo",
"$+oOO@XXXXO@O...XXXO@@o+++.O.++++::.@O.o.X@@@.+.o+oO@OoXXXO@OXoo",
"o+..@@OOOO@%Ooo..X.O%@....O@.o++oo+O@@...@%%@ooX++oO@@OO@@@@Oooo"
};
