/* XPM */
static char *result[] = {
/* columns rows colors chars-per-pixel */
"64 64 49 1 ",
"  c gray39",
". c gray42",
"X c gray34",
"o c #432B07",
"O c #3F3F3F",
"+ c gray28",
"@ c #4F370B",
"# c gray31",
"$ c gray45",
"% c #070707",
"& c #271700",
"* c #070B07",
"= c gray12",
"- c #272727",
"; c #373737",
": c #5F430F",
"> c #431F0B",
", c #331707",
"< c gray9",
"1 c #7B7B7B",
"2 c #6F4F17",
"3 c #7B5B1F",
"4 c #3B1B07",
"5 c #671F00",
"6 c #2F2F2F",
"7 c #3B433B",
"8 c #272B27",
"9 c gray6",
"0 c #572B0F",
"q c #331F00",
"w c #4F270F",
"e c #939393",
"r c #838383",
"t c #6B3717",
"y c #7F431F",
"u c #632F13",
"i c #733B1B",
"p c #874723",
"a c #87472B",
"s c #934F2B",
"d c #390000",
"f c #430000",
"g c #570000",
"h c #7F2F07",
"j c #732700",
"k c #8B672B",
"l c #8B8B8B",
"z c #A78747",
"x c white",
/* pixels */
" . XooO+O@#X.$%%%%&**=$. #Ooo-;OOO $XXX$$X:@o++OOOOX$X+++OOOO+XX",
".. #@oOO;o@X#.*&>,,>,<$#X#O;o-OOOOX XXX1$2::@+OOOOO+XXXXOOO+X .X",
"..$:@@XXOOo+#.%%%%&&&%$#+OOOooOOOO $XXX32::::@;OO+#2 .++++XX...X",
"XXoo::X+O+@##X*&4,56,* #+++OooOO+O7X+O@:::::OOO++XXXXXXOO+++XXX+",
"=<&%&---==###X%%%%&=&% ###8=&<-==<<<<*===<<<<<<<<<<<*<<<<<<<999=",
"+o9%;+XXO8+## %&,-06,*.#@+=q@@@-@>&w>>oo86oo@&<9&w>w&&oooo6;<*-+",
"<*%9#$e$#;X #.%%*9&=&%$#XXo@r3#wttwtywyyu@#..+oo@wtyo@+O+++#%%%9",
"i0<9#.e1X;  #$<&0,>6,&$#  o@2++#.3>t2 1$.##$.+;;;O33o@#+O;++=&+i",
"%<99#.11#;$.X$%%%9&=&%$X..o@o 8X. ,t2 .$X#+..#;;;# 2o@#+=#<+%%%&",
"%0&9#X$$#;$. $<&0@>7,&$ ..o@o-8#X.;+ X.$X#+..#;;;+.+-@##-<&+=&it",
"*<99XX.$#8.$ $%%%4w=&%$X$ q@@;+#XX-%999%*99===999%=-=###@oo+%%%*",
"00&9+X..#8 ..$<&uiy+,&$ .#q@####XX8-&&&<<=&---====&&*#X+@@@+=&>>",
"4<99;#..#8  $ %%wwi&&%.3 :q@######O;&&&ooooOXX#;-@pat####+++%9**",
"i0&9;#..+8X $ <wyip04*.3 @qo+###++O;&&&qo@o+X#@&@@w32##XX#++==00",
"&<99;#..+8X   =wwwi&&%.2 @qo###+++O;&&&oo+;O@@@ooowsy##XX#+;%9%%",
"40=9;#..+8X $ <-ptw04<.3 @qq###+O+O;q&=8O+;+##+6-owpy#..X#++==>4",
"%<<9;#. +8X.$ %%*&&%**.3.@qo+##+O+O;q&--++;+##+6-owsyX..X#++%%%%",
"> =9;#. +8X$$ <<+o>0,<..$@qoO+#+O+O;q&--#O;+# +8qowi2X...#;+&&,4",
"&&<9;#XX+8X$$ %%%9%&<*.$$@q6O++;O+#Oo&-;+;8O# +6-o@tyX...#;+%%%%",
"45<9;#X#O8X # <<,44w,<.  @&;++O;O+#8o&-O+8-;#X+6-o@:yX. X#;;&&&,",
"&&&9;#X#O8X # %%*%%&<*.$ :,;++O;O+++qq8#O8-;#X+6;O@:y# .X#;+%%%9",
"&5&9;#X#;8X## <=%&&>==. X:,8+OOOO+#;oq8#O8-;#XO;;+@o:+. X#;8&&&-",
"*&&9;+X#;8###+%%%&&&<9  2:,8OOO;O++;o-;#O88;XXO;O+@oo+   #;8%%%&",
"%4&9;+##;-+##+<=%%%%== X2:&-OO;;O++;o=8+;--;XXO6;+Ooo# X #;8&&&q",
"%&&9;+##;-+++O%%%%%%99 .::&=O;;8;++;o-8+;--OXXO6;++;o#X X#;8%%%<",
"%&&9;+##;-+OOO<<&%%%%=X2:u&,;;88;++;o-8+;-8O #;8;++;;# XX#;8&&&O",
"%&&9;+##;-X+OO%%%%%%%9 #:u&&6688;;++o-8#O88; #;8;++;;#XXX#;8%%%9",
"%-<9;+##;-X++O<9%%%%<= X:u&&8888;;++o-8#O8;; #O;;++;;+XXX#;8<&&&",
"&999;+##;=X+++%%%%%&<9 X#u&&88886;;+o8-#O88; #+OO++;;#XXX#+8%%%&",
">-<9;O++;=X+#+<9%%%&8=  #:=-88888;++o8;#O88; #OO;OO;;#XXX#+8=&,>",
"&<998;O+8=###+%%%%%%=9 X##==88886;;+O8+#O-8; +8;;;;;;+XXX#+;%%%&",
",;<98;OO8=# +O<<,,&&== #X#==8888;;;+O8X#O88; ;8;8;;8;+X#X#+;=&>0",
"&<<98;;O8=#X+O9%%%%%<9X###==8888;;;++;X#O88;X88;8;;8;+XX##+;%%%&",
"4#=98;;;8=#X +<<-%%%==X###==8888;;;;;;X#;88;+;8;8;;8;+X#X#+;=&4w",
"&=<98;;;-=## +%%%%%%<=X###==8888;;;;;;X#O688+;8;8;;8;+####+;%%%%",
"t5=98;;;-=## #<*%%%%==X###==8;88;;;;;OX#;68;;;8;;;;8;+#+##+;=&,w",
"&&<98;;;-=## #%%%%%%==X###<=8;;-6;;;;OX#;688;;8;6666;+##+#+;%%%%",
"i0=9d-6ddd## #<%%%%&8=X###%,q66644-6;;OO;-d,4>>>4>444wwfgfdd=&w0",
"&&<9444ddd###+%%%%%&<=X.X+dd4>44dd4q6;;;64ddd4>>dddddffffddd%%%&",
"0w=9;>dddd##+O<%%&%,==X$.+ddddddd4->>6-8q,dddd>>ddddddfddddf=&>0",
"&&<9d4dddd#O+#%%9%%&<=.$#@dddd>ddddd48--,ddddd44dddddf44dddf%%%&",
"4w=9d4dddd#+O#<*;,&4==$1##dddd4ddddd=6=,dddddddddddddd>>>dff=&=0",
"&9<9ddd-dd+#O+%%9&&%<=X.#+d,,>>4,dd6-;dd,,44ddddddd,,4w>ddfd%%%&",
"04=98;;;-=+#O.<*-&&&==$X#+==-;#88;O;;;8--8;;;;;8;;8--6;;,oqq=&40",
"&9<98;;;-=+## %%*&&&<=. #+=--;#8-;OO;;888;;;;;;;;;888OO-,oq&%%%&",
"tO=988;;-=+##X<9,&,,==.$#+==-;#-8;O;;88-;;;;;;;8;;--8;O,o-qq=&=0",
"&=<98888-=++##%%%%%%<=$.#+==-;#8-;;;;8--8;;;;;;8;8--8;;6o@--%*9&",
"5+=98888-=+X##<<-4&,8=$..+<=8;X8-;;;;8--8;;;;;88;88-8;;;6q-====>",
"&=998888-=+###%%%&%&==$. +==86X8-;;;88-88;;;;;88;88-8;;;oq--%*%%",
"4-<98888-=+###%<&>,48=$.X+==8oX8-8;;88--8;;;;;88;88-8;;6oq==%-60",
"&<<98888-=++#X%%%***==$.#+==qo@8-8;;88--8;;;;;88;8--8;;&o=&<%99&",
"t5<9-88--=+O# %<40,58=$##+==&o@8<9<=88--8;;;;;88;8--8;=<6-&<%=;0",
"&&&9-88--=+#..%%%<&&==$##+=<&o@89&,9=----;;;;;8888---;<&=o<<%*%&",
"5>&98-8--=+# X%<4>;>8= ##+=<&q+-&,q&9---88;+;;88;---89&q&o<<*&;0",
"&&&9-----=#X.X%%%<=&== ###=<&q#;;,,,&9---8;;;;8888---9,&oo<<%%*&",
"5>&9-----=# .X%<457>8= .##==&8#;+-,,,&<--8;;;;8888=-&&oq-8<<9&4X",
"&&&9-----=X .X%%%&&&== .#X===#O;+8q,,,<--8;;;;88-&=9&&qq<@<<%*%=",
"7>&9-----= .1X<<5hj08= .# ==99=;;-8&,&==8-8;+;;-&<<<&,q&***=9-;X",
"==<9-----=.$1.%%%%**99$X# ===9=;;-8=,&&&,-q;+;6====<-q&<<**=%99=",
"X+=9---=-8.$$.<<iiiX8=$$.X88==8;;-;=6-,#:+,;;66=<<;;6--==oo=9-;X",
"r$..2##X$$rr..%9*&&==9$.r ++# Xr2333:i2p2k31leeer$ $$XXX:3ze1$re",
"..XO,4@6o@ .X#<-Xi2X8=XX. #Oqo;X $k2uui2#2@+OO+OOX$11  2ooOOO;OO",
" X+w00:q@#XXX.%99&===9$XXX#+-qo@2@22::@3.XO;+OO;6OX$r$X;o-;;66;O",
"#7@>>w@7X##XX.<-Xi$X8=$XX##X6;OO++$.XXO+X+O;;;66;O+$$X+OOO;66OOX"
};
