/* XPM */
static char *result[] = {
/* columns rows colors chars-per-pixel */
"64 64 84 1 ",
"  c #373B4B",
". c gray39",
"X c #3F3F3F",
"o c #2F2F2F",
"O c gray34",
"+ c #939393",
"@ c gray12",
"# c #13131B",
"$ c #8B8FA7",
"% c #57576B",
"& c #878BA3",
"* c #333343",
"= c #3F3F4F",
"- c #2F2F3B",
"; c gray28",
": c #7B7B7B",
"> c gray42",
", c gray45",
"< c gray31",
"1 c #5B5F73",
"2 c #4B4B5F",
"3 c #1F1F27",
"4 c #4F5363",
"5 c #434757",
"6 c #0F0F13",
"7 c #070707",
"8 c #5F6377",
"9 c #777B93",
"0 c #838383",
"q c #676B7F",
"w c #73778B",
"e c #8B8B8B",
"r c #6B6F87",
"t c black",
"y c #9FA3BB",
"u c gray67",
"i c #9B9B9B",
"p c #7F839B",
"a c #BBBBBB",
"s c #C3C3C3",
"d c gray64",
"f c #CBCBCB",
"g c #979FB7",
"h c #A3ABC3",
"j c gray70",
"k c LightGray",
"l c gray86",
"z c gray89",
"x c #9397AF",
"c c #272727",
"v c #B3B7CF",
"b c #272B37",
"n c #A793A3",
"m c #9F5B3F",
"M c #6B5A73",
"N c #B77757",
"B c #5A4A5A",
"V c #6B526B",
"C c #735A73",
"Z c #7B6B84",
"A c #5A4A63",
"S c red",
"D c #7B6B7B",
"F c #AF633B",
"G c #57230F",
"H c #6F331B",
"J c #1B131B",
"K c #736373",
"L c #271B27",
"P c #632F13",
"I c #B75300",
"U c #6B5A6B",
"Y c #63526B",
"T c #977737",
"R c #733B1B",
"E c #A74700",
"W c #87472B",
"Q c #635263",
"! c #674F5B",
"~ c #ABB3CB",
"^ c #373737",
"/ c gray6",
"( c gray9",
") c white",
/* pixels */
" ........XoO++@o+++++O#@O$$+++O#@%+$$&+%#@O&+&+&@o+&%@*OOOOO%%%*",
"ooXo==== -@;:>@o>,::,;#@;.<<<.X#@ 1=22.;#3;,,,,.@o>,X#3oooo*@#@@",
"ooo 2 ;XX-@;.O@o4....o#@*O<<52o6#o5=5=4o6@oOOOO<#oOOo#@@oooo33@@",
"oo 522;<;*3=.<#35%..Oo6#oOO<5537#3 =55=o6#o<OOO;#@<OX#@oooooo*o@",
"o;2%%4O<;o@;>4#3%890,o6#o>>..1o7#oOO..Oo6#oO.>.;#@O.o#@o;X;X<<;@",
"o=411%2 X@@;>q#@w0++eX6#;00:rq;76 .>>,.X6#o.,:>O#@..X#@oX<<<OO;@",
"o<O.1.<ttt#;qq#@,+yui<6#<e++0q;t7 .,,,.o76;:0:>O#@O.X##to;OOOO<@",
"o<.... ttt7;>>>:pyasu.o@;edde,;## >:::.o##;0e::OOOO.Xtttt;OO.O;@",
"oO>.>8ttttt >,:&iaffa>o@Oghji&5@@=,0e+.o#@<eidi00>..ottttt.>.O<@",
"oO>qqqttttt;,9p+dafkj>o@1+jade5@@5,e+i,X@@O+dju+e:..ottttt,,..<o",
"oOrr,rttttt;,08>>:00:<@@Xqe&e.*##-4,994o##X>,::,>O.OXttttt:,,.Oo",
"@O,::9ttttt;>;tttttttt#tttttttttttttttttttttttttttXOottttt00,>Oo",
"oO::0pttttt >;t.0dsu&91*==;;<=ttt75==;XXoO+ulzlj>tX.Xttttte:,>Oo",
"oO>,90ttttt;>;too;<<3>.O1q>00p0eee++xidddjeoOOO<otX.Xttttt:>>.<o",
"reei&e++duy0>;tXOqe:c..;<OO..>r:9:p0&e+e+ueoeee.;tX..peiii$00p,r",
"...:..9wrq8>>;t.0aks+.X##@O@###tt###@O@#6o;jlzki>tX....1:wrqq888",
".ttt@@@@33333#t80akki:;@@<+<@@3tt@3@<+<@#;:jklki>t@@@@@@3333ttt8",
".tt@oX;5<O<5 3t8evzsx&.@@<a<@oXt7*o34u<@@O0uklki>toO425<  *-3tt8",
".tt@;<.reiew8*tb*5OOc:i,:::::::0::0:::::,+:oOOOoot>eie9,8O2 3tt8",
"Ott#@X;<<O<< 3t;%:e0owi,::0::::0::000e0:,+,o:e:OXt*O22<<  *3#tt8",
".ttt#@@3@3@@@@t8+slze;*##o>o###tt###X,X#6o;,jkae8t@3@@@3333#ttt8",
".tt#@X;<<O<5;@t8eazldno#@O+O@@3tt@@@OdO@#;mMuaj&8to<OO25=  o#tt>",
".tt@;<.:eier8Xt.ejkkdNB@@OVO@oot7oX@OVO@@BmCjsae8tO:ei&9q12 3tt>",
".tt#@X;<<O<< @t.ejssZNA@o@S@ooot7XXo@S@o@BmCjlae8to<OO25= ;3@tt8",
"Ottt#@@@@@@@@3t8pusjDFA@oGSGooot7ooXHSGo@BJCuahp8t3333333oo@ttt>",
"Ott#@o;<<O<5 ot.0dajKLA@oPSPooot7XoXHSGo@AJCyayp.to524O5<  3#tt8",
"Ott@;<.:eiew>Xt>0djuKJA@oGSGooot7XXoHSHo@AICyjyp8tO0+d+0q12 3tt>",
".tt#@X;<<O<5<ot>:ujuCIA@oPSPooot7XoXHSHX@AICjad0.to5OOO5=  3#tt.",
".ttt#@@@@@333@t.0djuCIA@oGSGooXt7XXXHSHo@AIMiui:.t33o33o333@ttt.",
".tt#@X;<52425otq:dddCIA@oGSPoXot7;XXHSHX@AIMii+:OtoOO42O< ;o@tt.",
".tt@;<O>9ei&9Otq:&diCIAoXHSPXoXt7X;XHSHXoAIU&+er1t%9+i&0,.O;ott.",
"Ott#@X;<<OO25ot8:&yiMIAoXHSHoXXt7X;XHSH*oAIUp+&w1to5OOOO<<;o@tt.",
"Ottt#@@@33333@tO:xyiNIAoXHSHXo;t7X;XHSHXoAIU&d&r8t333oooooo@ttt>",
"Ott#@X;<<2425Xt8,0d+NIAoXHSHXX;t7;;;HSH*oAIVe+&w8to524OO<< o@ttq",
"Ott@;5O8:&i&9Ot1>:+eNIAo HSH X;t7;;;HSHXoAIV9p0>8tO0&d+0,.O;cttq",
".tt#3X <<2225ot1.r&eNIAo HSHXX;t7;;;HSH oAIYrwr>8tX5OOOO<< o@ttq",
".ttt#@@@@33333t1.re0NIAo HSH;X;t7;=;HSH*oAIYqrw81t3ooccoocc@tttq",
"Ott#@X;<<O55<3t11,00TIAo HSR;;Xt7<;;HSH oAIY,:r81tX5OOO5<= o@ttq",
".tt@;<.:eiew8*t1180:VEAo;RSR<;;t7<==HSH oAIYrrr.8tO9&i&9q1O;ottq",
"Ott#@X;<<O55<3t%%>0:YWBo RSR;<;t7<=;HSH oAEY,r,>1tXOO4OO<<;o@ttq",
"Ottt#@@@@@@33@t%%1:,YWBo=RSR<<;t#<5=HSH oB7Qrrr11t@oooocooo@tttq",
"Ott#@X;=<O425ot%41,,QWB*;<S<<<;t7<===S  oBWQ>r>11tXOOO%4<<;-@tt,",
"Ott@;<O8:ei&:%t%4.,q.!<*o%V%-<;t#<<o1:1ooOW.qqq%1tO0+uxp:>O<ott,",
"Ott#@X;<XOOO5ot45%>q%54*o1~.-5 t#<<o1i1ooO<%>q>%%tXOOO%4OO<X@tt>",
"Ottt#@@@@3@@@@t@@3o3#*OO.:e::0e0+e+&diuddj>#33o@3t@oooooooo@ttt>",
"Ott#@X;<5O;< @toc*X @X%2O.>>>::peeeepeidiu>@XXXo*tX%.%..O5<X@tt>",
"Ott@;<.:e+0,.XtO=2.1433@@o;o@@@t7@@@oXo@@@o2.8.O%tOp+i+e:>O<ott8",
"Ott@oo;<;O<< ot< 2O12b X3<d<@*ct6oo@<d<@oX;2O.OO%t544%OO<<;Xott>",
"O,::::00::009Xt< 5O%2*2*-<e<*4=t#<O-<e<oX<;5OO.<%t&++++eeeeeeep>",
"ooooooXXXXX..Xt3####6O&9e+e+++++e+ee+e++0+O6#####t,w:<<;;;=;;;=;",
"6####@tttttX.Xto3@@@6Oeeiiidyi++e+eiiiiip&O63@co*t,,<ttttt@3@@@@",
"#@@@@@tttttX.XtX3oXXo#3o   ;= 6t6@ ; XX o3@* X*X=tq,;tttttXXX;X@",
"@ccc^^tttttX.Xttttttttttttttttttttttttttttttttttttqq=ttttt.....X",
"@ccc-^tttttX.:+xxxiii.@@.iddud.@@.iddii.@31xxxiiixq>;ttttt.....X",
"@-ocootttttoO.>,w9++0O@@.djud9=@@;:++0,;@@2pp9wppwqq=ttttt....>X",
"@^^--XtttttoO.O>wp+yiO@@.dj~i: @3;,++0>;@@5pppw9wr>>;ttttt....>;",
"@^X^^^/ttt7oO..>>9ee923@Oeixeq=@@=,++0>;@@=9p9,r8..q 6ttt(....>;",
"@^^^^^;/t7@o..#@.>,.r=6#;:0&0r ##Xwep:.X6# wwwww3@>q;@7t(>...>>;",
"@^^^^ooO.o#oOO#@O>,rq 6# q,:,qo6#=909.%o6#=qw,rw3#>,;o5::...>>>;",
"@o^^-^^oX@#oOO#@O.>e0=#@;r>>>.X#oOepr8%o#3=q888%##,q;oX%.....>>;",
"@o--^^^^o3#o..#@<O.>,X##;.OO..X#oOd:q1%X#3=r8888@@q,=o*.......,;",
"@o--^^^-o@#o..#@OOO.Oo6#XO<;O.;#@<d,14%5#3=w.888@@qq=o*%.....>>;",
"@ooo^oo--3#@^^t7^^^XX@tt@o@@o<o6#o,%;*<;6#X5XXXX77;;ooX%%.....>X",
"#3@@@@@33#6@oo77ooooo@tt@o@@@o@tt@o@@@o@tt@ooooo77--@@@**XXXXXX@"
};
