/* XPM */
static char *xpm_[] = {
/* columns rows colors chars-per-pixel */
"64 64 40 1 ",
"  c #070707",
". c gray9",
"X c #13131B",
"o c #1F1F27",
"O c #0F0F13",
"+ c #272727",
"@ c #171B23",
"# c gray12",
"$ c #3B1B07",
"% c #2F2F2F",
"& c #431F0B",
"* c #0B0B0F",
"= c #373737",
"- c #4F270F",
"; c #23232F",
": c gray45",
"> c #939393",
", c gray34",
"< c gray42",
"1 c #8B8B8B",
"2 c gray28",
"3 c #9F5B3F",
"4 c gray31",
"5 c #838383",
"6 c #3F3F3F",
"7 c gray39",
"8 c #2F2F3B",
"9 c #87472B",
"0 c #331707",
"q c #6B3717",
"w c #733B1B",
"e c #632F13",
"r c #272B37",
"t c #9B9B9B",
"y c #8B672B",
"u c #7B7B7B",
"i c #771F00",
"p c #7F2F07",
"a c #271700",
"s c white",
/* pixels */
"  .XX.....o.XXX.......XX.X.X..... OOO             XX...... XXXO ",
"  ......++..OOOOOOO.OOO.++..OOOOOOO.OOO..OOOO  O           OOO  ",
" O  .@@#++@@.@@.@@@@O.O@++@@.@@.@@o@O.X$@+@@..OO.O     O   .O.O ",
" .@O@%++%%+@@@@O..@@..@+%%+@@@@O..#@.$&+++++.@@O *         .... ",
" .##+++%%%%+++#..o+oo+++%%%+++#..o+oo++++++o#o#...*******....#. ",
" .oo+%%====%%+++++%--%#$-++###+-++;;+######++%o#...........o+o..",
" .##o+:>:,##<1<2#+:134$-,5,=##<1<2##:><6##41<2X.7176..7176.o+o. ",
" O@O+%>  2##1  2#=>  4#-1  =#o1  ,#=>  ,#61  6#@1  8* 1  6.++o..",
" O@@+%:  =#+:  2#+:  ,#+7  6##7  4#+:  ,+67  2#@7  8*O7  6.++o..",
" O+@+%42=2+=4,49#=444,++666,#=4,,,#+4,,,#=6422#@6688*O6666.o+o..",
" O+++%#+++-=##0##-#####+##############+##=#####@X.***OXXX..++o. ",
" O+@+%=qq6w6%&&#+++##+++++26%%=====%%===+=+%+++@@@@.OO@@@#o+e+# ",
" .@@%=:>:,+6:1,2&+,176#+71:,#=:>:,#=:>:4#=7><4##71,2.O7172X%e+o.",
" .+@%=>  ,+61  9-e>  2o+1  ,#+>  ,#=>  ,+4>  4##1  2X@1  2#%e+o.",
" .+@%=:  ,+e3  ,+e:  ,+6:  ,#+:  ,#+:  ,+4:  8##7  2.#7  2#ee+o.",
" .++%=,,,,+-ww22#+42,,+6,,,,#+2244#6,,,,+4,686#@6222*#2662#e-o..",
" .@+%=#+--&e0&###+##+++6+++##+#####r##+++4+####@.....#XXX.#-%+o ",
".+++===q2wq--++=%=r66=66222r===+#++++=66642+++%%######@+@o+e%%o.",
".+++%=:t:9$-y572+6:>:6#6:>:2#=:176#+71<2#4:178##<1<2.#<1:2#ee%o ",
".+%$==t  4#e>  2#=t  6#=>  4##>  6#+1  6#81  6##1  2.#1  2#ee+. ",
"0+%+==:  ,#-,  ,#6:  ,+=:  ,##:  6#+7  2#8<  8##,  2.#<  2#=e+. ",
"&--+e=28=,$-8242#+44,,+=4,,,##46=8#+4,,,#8626=##8=62##2622#=e%o.",
"$---e+#$&-#+#####=#-###=++###+#####r####&r#######XXX#oXX###%=%o.",
".-e=-+++eq6++#%%=====666666===%+#+r==66=e=q=%;#####++ooo+++==%o.",
".+=e++71:4+=,5:4#=:>:,%6:>:,#+:>,6#=:>:q#2:t:2##,1,2##<1<2#=6%o ",
".+66621  4+=1  2#=>  ,=2>  ,#+>  4+=>  ,+2t  4##5  2#+1  2#62=o.",
".+6662:  ,+=:  ,+=:  ,+2:  ,#=:  ,#=:  ,#2:  2##,  2#+<  4#62=o.",
".+6=62,2,,+=42,2#6,,,,+6,,,,#+,22,#=,,,4#2,,42##6824#+4444+62=+.",
".+66=2+##++=#####6+##++6+++##+&###++#+###6++###=##.##+###--62=+.",
".+e6=6===26=#+%+%+r6=62=226=%%%+;;=6+66===226++%;@#%%===%+%22=+.",
".+e6==:>74#+:>:2#=:>:,#=:>:2#+:1<8#=:>:,#6:>:2#=:1<4#=:>:2#62=+ ",
".+e6==1  6#=>  ,#-t  9-e>  ,#+>  80q1  ,#6>  4+6>  4#=>  w#=6=+.",
".+e+%=:  8+6<  ,-e:  w&w:  ,#+:  6#-,  ,+2:  ,#+<  ,+6:  w+62=+.",
".+=%#+668=+=246,#=,,99&q,,,,#+,,,6##+62,+2,,,,##8424#=,42w#62%o.",
".+=+#+####+=#####$0----e+++##+##########+2+++#######ee-##+#-6+..",
" +%%+++6+===+%+#$$-eq-=6626=%#####+++#=664666+#$-+-&=e-##+%e=+. ",
".+%%-=<146o6<>:q0$3t:4#=:>:,+#71,4#=:>:,#6,5,+##4u,8#8:1<2#e6+o.",
"..%+&;5  2#21  9#-t  9#6>  4-+1  ,#=>  ,#6u  ;#+u  8#+>  2#==%o ",
"..%-&#7  2#=<  ,#+:  ,+=:  9#2<  6#=:  ,#=7  +#+4  2#+:  2#==+. ",
".+%-$+662,+=64,,#=,,,,+=,,,,#2,=86#=,,,,#=66=+#o64,4#+,222#%=+. ",
".o%%%=#+++++##0##+#####=+++##=#####+#####+#####=#######X.X#+%+..",
".o++%%=6666+#+#####--====6==%=%%;#+%%=====++++====%++++o.oo+%o. ",
".o+++%:>:,+67178##<>:,#=:>:,#=:>:6#+:>:,#6:>:2#=:>:4##<1<2#+%+#.",
".+=%%=>  ,=4>  2##>  ,+6>  4-2>  w-6>  ,+4>  ,#q>  ,#+>  2#==%o ",
".%%%%=:  ,=2:  2#=:  ,+6:  ,&6:  4-=:  ,+4:  ,+w:  4#6:  2#e=%o.",
".%=%-=,,,,+2,,,,#+,,,,+6,,,,+2,,4,#=,,,,+2,,49+w,,,4#+,422#==%o.",
".%%+=q#++=+2#+###+#+#++6++=++6+###+6##+++2+#---2++-##+##.X#==%o.",
".+%+eq=26246+6=##+66=626624qe6=+%=66=626626=e-=622e%%%=+#o+==%o.",
".+%+-e:>:,+=:>:=##:>:,+6:>:9&=:1:4#6:>:,+2:1:4#=:>:4#+:1<2#==%o.",
".+%+%=>  ,#6>  =#+>  ,#=>  9$+1  4#6>  ,#2t  4#6>  4#+>  2#==%o ",
".+%+%=:  6#=:  ,#+:  ,#=:  2#+7  4+6:  ,#2:  2#2:  2#+:  2#==%o.",
" +++-ew666#+4422#+,,,,##,,26#+8=44+6,,,2#2,442#6,222#+,262#==%o ",
".+++i-&###################++#=####+=#####2####+2########XX#==%o.",
" ++%p-&++++++++=%===+%%+===6==%=+=r+#####=6%++%6=+++@+%+.o+==%o.",
" +++iq:><8.+,1,4.#:>72.o:>:,.=:><8.+,1,=O=<1<2.6<1<2O#:172.=%%o ",
" .+%+-1  4.#5  8.#>  2.o>  4.#>  2.+1  =O6>  2.=1  2O.>  2.==+o ",
" .++@+<  6.=<  8.#:  =.#:  ,.#<  w.=:  2O6<  2.#7  4..<  2.=%+. ",
" .@+++24w6.#2,42.#26==.#4244.=44w4.=2222O=2466.#6664X.666q$e=+. ",
" .o+++#....#.....#.....#...O.#.....#0.X..#...aa+$$&&&&$&&&&-%+. ",
" .o++o+++++o++++++%%+++++++o++++++++++++%%--oo+###.-&&--&&+%%o. ",
" O#oo#o++++oo+o++o++oo+++++oo+o++o++oo+++---&--$...&&$X.0$o++o. ",
" O@@@@@@+@+@@.++@.@@.O@o+@+@@.++@.@@.O@oo++@.@..O*...$&$0..+++. ",
"  OOOOOO.O.OOO..OOOO  ...O.OOO..OOOO  .....OOO   O$$0aXOOOO.... ",
"                      O               O                         "
};
