/* XPM */
static char *result[] = {
/* columns rows colors chars-per-pixel */
"64 64 24 1 ",
"  c #1F2F1F",
". c #131713",
"X c black",
"o c #070B07",
"O c gray6",
"+ c #172317",
"@ c #434757",
"# c #87AFFF",
"$ c #A3C3FF",
"% c #C3D7FF",
"& c #23232F",
"* c #272B37",
"= c #4B5B53",
"- c #4B4B5F",
"; c #4F5363",
": c #1B271B",
"> c gray34",
", c #273727",
"< c #2F3733",
"1 c #3B433B",
"2 c #272727",
"3 c gray12",
"4 c #2B3F2B",
"5 c white",
/* pixels */
" .....XXXXXXXXXXXXXXXXXXX oo..O OoOoO.O.OO.OO..+.Oo.oO.O..O.oO.O",
" O.. @#$%$#&&#$%$#**#$%$#=+oO.O OO.OO.O..O.ooO...oo....O.O..oOOO",
" O.. -$%%%$**$%%%$**$%%%$;+o..O .O.OO.O+...oO..:.Oo.O.......oO.O",
" OO. @#$%$#**#$%$#**#$%$#>+o..O .O.o..O:...oO ....O.o.O.....oO.O",
":oO. ++++++::+++++::++++.++o..O OO.oO.o+...o..::.oO.o.O. ...oO.O",
":oO. @#$%$#&&#$%$#**#$%$#= o..O OO.o..o+.:.o:.::.oo.o...:...oO.O",
":oO. -$%%%$**$%%%$**$%%%$; o..O OO.O..O+.:.... :.oo.O..+..::.O.O",
":oO. @#$%$#**#$%$#**#$%$#> oO.O,OO.ooo.+.:..:. :.oo.ooo+::. Oo.O",
":oO. ++++++::+++++::++++.++o..O,Oo.ooXo+.:.. . :.oo.ooo.. . oo.O",
":oO. @#$%$#&&#$%$#**#$%$#= o..O ...o.oo+.:..,. :Ooo.oooO.:. oO.O",
":o.: -$%%%$**$%%%$**$%%%$;+o.oO ...o.oo+::..  ,+.oo.oooO... oO.O",
":o.. @#$%$#**#$%$#**#$%$#>+o..O ...o.oo+::.O  ,+:oO.oXOO... o..O",
":OO. + <111221111133111<. oo.+O,+.Oo.oo..:.O  ,+:XOOooOo..O oO.O",
" O..++<11112211111331111.+OO.+O +.OO.oo..:+. ,,+:oOOo.Oo... o..O",
" O..+@#$%$#&&#$%$#**#$%$#=+..+O,+....Oo.::..: ,+.ooOo.OX... O..O",
":O.. -$%%%$**$%%%$**$%%%$; ..+O,+...OOO.::..:::+.OoOo.O.:.. ...O",
":o.. @#$%$#**#$%$#**#$%$#>+..+O,+...O.o.::.O:. +.OoOo...:.. O.OO",
":o.. ++++++::+++++::+++++,+.O.O,+...O.o.::..+. .O.X.o:..:..:o.OO",
":O.. @#$%$#&&#$%$#**#$%$#=+OO.O,....O.o.:...+O ...O.....:..:o.OO",
":OO: -$%%%$**$%%%$**$%%%$;+OO.O,.+:.O.O.:...:. .....O...2o:.oOOO",
":O.: @#$%$#**#$%$#**#$%$#>+.O.O,.+:.O.O.:.O.:. ..+.OO.+.:..Oo.oO",
" O.: ++++++::+++++::++++.++OO.O,.+:.O.O.....:. +.o.OO.+....ooOoO",
" OO: @#$%$#&&#$%$#**#$%$#=+OO.O,.+:.O:......:. +.XoOO.+::..ooOOO",
" O.. -$%%%$**$%%%$**$%%%$; OO.O,.+:.....:...:. +.ooOO.+:...oOOOO",
":O.: @#$%$#**#$%$#**#$%$#>+OO.O,.+..........:: +OooO..+:..ooOoOO",
":O.:.+<11112211111331111<+oO..O,.+........O.:::+OooO..+:.oooo..O",
" O.:.+<111122111113311111+oOO.O,.+.:O...:.O.:.:+OooO..+:.Xooo.oO",
" O.: @#$%$#&&#$%$#**#$%$#=+OO.O,...:......o.:...OoOO... .o.oOooO",
":O.: -$%%%$**$%%%$**$%%%$;+OO.O,...:O.....X.+...Oo.O... .oOoOooO",
" O.: @#$%$#**#$%$#**#$%$#>+OOoO,...:.O..OOo.+...Oo.O... .oOoOooX",
" ..: ++++++::+++++::++++.++oOoO .o.:....O.o...O.oooO..+ .O.oOooX",
" ..: @#$%$#&&#$%$#**#$%$#=+oOoO ...:O..OOOo.+....ooO..+:.OOooooX",
" ..: -$%%%$**$%%%$**$%%%$;+oooO+OOOOOOOOOOXOOOOOOXXOOOOOOXXXXXXX",
" ... @#$%$#**#$%$#**#$%$#>+oOoO,    :     :::+++.++.....OOOOOOOO",
" ... ++++++::+++++::+++++,+XooO :..OoO..OOoo..OO.o.o...+OooooooX",
" ... @#$%$#&&#$%$#**#$%$#=+ooOO ...OoO..OOoo.O.O.oOo...++ooooooO",
" O.. -$%%%$**$%%%$**$%%%$;+.O.O ...OoO...Ooo.O.O.oO....++ooo.ooO",
":o.. @#$%$#**#$%$#**#$%$#> .. O,,...O.......:::......+::+OO...OO",
":o...+<11112211111331111.+...:O,,+.......+.   :: .:..: :..o...OO",
":o..++<11112211111331111.+...:O, ...: .....  ,:. . :  , ..o.+.OO",
":o.:,@#$%$#&&#$%$#**#$%$#= O.:O, ...: .::..:  .  .:: :: ..o.+.OO",
":O.:,-$%%%$**$%%%$**$%%%$; ...O, ...: .::.. : .:..+:.:+ :.o.+..O",
":O.:,@#$%$#**#$%$#**#$%$#> ..OO,:.... .::..:: ....+:+.: ..o.+..O",
":O.:4++++++::+++++::+++++, ..oO,.+..o:.::..:: ...O::+.::....+..O",
":O.:,@#$%$#&&#$%$#**#$%$#= ..oO,o...O:.+:...::....::+.:::...+..O",
" ..:,-$%%%$**$%%%$**$%%%$; ...O,o...O:.+:...:.....::..:::...+..O",
" ..:,@#$%$#**#$%$#**#$%$#> ...O,o...O:..++..+.....::..:+:+..+..O",
" ..: ++++++::+++++::++++.+ ...O,....O:..:.........::..:+:+..+..O",
" ..: @#$%$#&&#$%$#**#$%$#= ...O ....o:............::..:+....+..O",
" ..: -$%%%$**$%%%$**$%%%$; ...O ....o.............::..:+:...+..O",
":O.: @#$%$#**#$%$#**#$%$#> .+.O,.......o.....+.+:.::..:+:....++O",
":OO..+<11112211111331111.+...+O,...O...O.....++.:.::..:+:+....+O",
":OO..+<11112211111331111.+..o.O,...O...O...:.O....+:..++ +.....O",
":.o. @#$%$#&&#$%$#**#$%$#= .O.O,...O....+.......:.+:O.++:+.....O",
":.X. -$%%%$**$%%%$**$%%%$; .O.O,.+......+.......:.::..+.:++..O.O",
":.o. @#$%$#**#$%$#**#$%$#> .O.O,..+....O....+...+.::+.+...+....O",
":.o. ++++++::+++++::++++.+ .O.O,:......O...+....+..+......+....O",
" Oo. @#$%$#&&#$%$#**#$%$#= .o.O,:O.O.........O..+..+O....+.....O",
":oXO -$%%%$**$%%%$**$%%%$; .O.O :O.OO...+...+...+..+.....+++...O",
":ooO @#$%$#**#$%$#**#$%$#> ...O,:.+.O...++..+......+........O..O",
":ooO  +++++::+++++::+++++, ...O,:.+.o......o+...++.:.O......O..O",
" ooO @#$%$#&&#$%$#**#$%$#= ...O, .+.o......O+....+.:.o....+.O+.O",
" ooO -$%%%$**$%%%$**$%%%$; ...O  ...O.......+......+...........O",
":oOO @#$%$#**#$%$#**#$%$#> O..X  .......+..O.......+.....+..O..O"
};
