/* XPM */
static char *result[] = {
/* columns rows colors chars-per-pixel */
"64 64 33 1 ",
"  c #3F3F4F",
". c #434757",
"X c #333343",
"o c #8B672B",
"O c #7B5B1F",
"+ c #6B4B33",
"@ c #2F2F3B",
"# c #272B37",
"$ c #6F4F17",
"% c #57371F",
"& c #373737",
"* c #272B27",
"= c #1F1F27",
"- c #2F2F2F",
"; c #23232F",
": c #13131B",
"> c #0F0F13",
", c #070707",
"< c #131713",
"1 c #271700",
"2 c #331F00",
"3 c gray6",
"4 c #171B23",
"5 c #432B07",
"6 c #4F370B",
"7 c #3F3F3F",
"8 c #272727",
"9 c #2F3733",
"0 c #373B4B",
"q c #5F430F",
"w c gray28",
"e c gray12",
"r c white",
/* pixels */
" ........          .............. ...   ....... ...  .XXXXXXXX  ",
" ooooooooOOOoo+@@@#XXXXXXXXXX@XXXXXX@@@@XXXX@@@@X+o$%+OOOOOOOOo ",
".O+ooooooOOOOo&@@@#XXXXXXXXX@XXXXXXX@@@@XXXX@X@@#*%O++$OOOOOOOo ",
".O+XXXXXX&OOo&@@@@#XXXXXXXX@XXXXXXXX@@@@@@@@@XXX@=*+++-#####@oo.",
".++X;:>,<121,33333333333>>>>:;;=;;===;;;;;;=====4;4-555<44:##oo.",
".+OX;;=<566<>444444;;;;==44444#@#;;#;;@@XXX@##@#@ @X7%%$8=:;#oo.",
".+oX;X&OOO-;==;;;;#XXXX;;;;;#=;;;;;@;;@@XXXX@#;;@X@  9$O$-:;;oo.",
" +oX;7oOO-;=;;@@XXXXX@##X  #;4===;;#;;;####;####@0@@X@-$$q<=;Oo.",
" ooX<122,<<<<<>><<<<<><<<44<44#;;;@X#;#########@X@@X ##;$$6;#Oo.",
" oo7666<:;=====;;;;;;;;=;#;444;;;@@X##########XXX@@@ #@=;%6%*Oo.",
" OooOowXXXXXX@#X XXXXXX@@ @;;4;;;@@X##########XXXXXX#;@#=-6+%O$.",
" o+oO7X#@@@@@@@@X@XXXXXX# 0;;4;#;@@X@#########XXXX@@#;@;==e+%$$.",
" o+o-:<>>3333333333333333><3:4;#@#@@@@######@@XXXX###;X;==:-+$% ",
" o+9;;;;;;;;;;;;;;;;;;;;;##===##@X@@@@@#####@@XXXX###;X@=;:;-$% ",
" +-#;@@@@@XXXX0000000XXXX0X=;4;#@X##@@@#######XXXXX@#@#@=;:;;-%.",
" @@#;@####@@XX00000000XXX0X;;4;#XX####@#######XXXXXXX@#@#;:;;;#0",
" @@X=:33333333333333333333>>>:;;XX####X#######XXXXX X@@@X;:;;##0",
" #XX=4=====44===;44=;;;;;;#==4;;@@####X####@@@XXXXX X@XXX=4;;@X.",
" @X@=@X@@@X@X0X@0XXXX#@##;@;#4;;@@@@#######@@@XX  X  XX;#;4:4= .",
" XX#=@XXXXXXX0XX00XXX@@@##@;@4;;X@@@#######@@@XX  X  XX;##>,>4 .",
".@X#43333333333333333>>>3<33<4;###@@########@@XX  X  XX;#@>3>4 .",
".XX#=44=4==44<44;;;;==4444=444;##4##########@@XXXXX  XX;#@>,>4 .",
".XX@=;@#@@#;;;#@.0;@XX@;;;#@;4####4=###@@@##@@XX  X X####@:,>=0.",
".XXX=#@#@@@#;=;#XX###X0@44;#;4##=#;=@##@@@##@@XX  X 0##@#@:,:= .",
".XXX=#@;;;@#@@@#@#;#@;X#;#;;;4#;=#;;@##@@@##@@XX  X  @#XX@:,:= .",
" XXX=#@;#@X0X0X00#;;X@X@;@;;4=;;;#4=@###@@@@@@XX  X  X@XXX:,>40.",
".XXX=#@@#@0@0X@0.0@X@#@#X@;;44=;;#4;#;######@@    X  XXXXX:,:40.",
".XXX=#@@;#X@XX#@@XXX;#@@XX;=;4;#;;==;;######@@    X XXXXXX:,:40.",
" XXX=#@@@###XX@X000X@#XX#X;#;;##;;#=;#@#####@@    X XXXXXX:3:40.",
" XXX=#X@X@@@0@X0000@#@X4#X;;;4###;@;4;@@####@@   XX XXXXX#:3:40.",
" XXX=#@#0#@@0@X0@X@#@;X;@X@=44;=#;@;;@@@######XXXXX XXXXX#:3:= .",
" XXX=###X0X0@@00@0X@#;@##X@444;=#;X@#@@@###@@@    X XXXXX#:3:= .",
" XXX=@@#XX0X@X0XXX@#@@XXX#X444;=#@@;X;@X###@@@    X XXXXX#:3:= .",
" XXX=@XXXXXX@XX@XX@##XXXX@@444;=;@@@X##@XX@@@@    X XXXXX#:3:= .",
".XXX=XXXXXXXX@XX@@@@##@XX@;44; #@0 X @        XXX.X XXXXX@:3:= .",
".@XX=XXXXXXXXXXXXX@XX;;;;;;==4#@#X@@XXXXXXXXXXXXXX@XXXXXXX:3:= .",
".X@X;XXXXXXXXXX@0XX@X@;@#;@#=4#X@X@#@XXXXXXXXX@@@X@X@@@@XX:3:= .",
".XX@;XXXX@@X@XXX0X@@@@@@;###=4;@#@#;@@@XXXXXXXXXXX@X@@@@XX:3:= .",
".XXX;X0XX@XX@@X@X@@@@@@XX@#@=;    @@X X XXXXXXXXX@#X@@@XXX:3:= .",
".XXX;X0XXXXXXX@@X@@@@@;;;#;@;; XXX##@XX ###@XXX@X@;X@@@XX@:3:= .",
".XXX;X0XXXXXXX@@X@@@@;@;@#;#;;X@@@;;#XXXXX@@@@XXX@@@@@XXXX:3:= .",
".XXX;XXXXX@XXX@@X@@@@@#@#;;;#;    @@@   XX@X@#XXX;;@@#XXXX:3:= .",
".XXX;XX@X@@@X@X@X@@@@#@##@@;;;@@@@;;;XXX@XX@X@X@#;;@@;XXXX:3:= .",
".XXX;X@@@@#@@X@#@#######;X@;;;@@@@;;@XXX#@X#@@;#@;#;;;XXXX:3:= .",
".XXX;X@@@##@@@@#@######;##@;;;@@@@@@XXXX#@@#@#####;@@@XXXX4=== .",
" @@@;@X@##@;;;##@#######;#@#;=#####@XXXX#@@###;;@X@@####XX4XXXX.",
" ###=#@@XXX@###@@@@@@@@@@@@@@;X####@XXXX#;;;@;@@@X######XX4XXXX.",
" ###=;#@XXX@@###@@@@@@@@@XX@@;X####@XXXXX@;;###;##;###@@XX4XXXX ",
" ###=;#;@XX@@@#;@@@@@@@@XXXXX;X###@XXXXX@XX@##;;##;###@@XX=@XXX.",
" O9#=4@@@@X@@@@@@@@@@@@@XXXX@;X;;4;;XX##XX@;;;=;##;;;;;;##4;#9+.",
" OO-44;;;#X@@#@@@#@#@#@##@#;@;X;;4#@XX#@XX@;;###@###;####;4;-Oo.",
" OOO84=;;##@#@#@#@###@##@X;;@;X;;4;@#@@@#X#;;#######;###;#4;$qo.",
" OOO%8==;;@@X@X#@@##;@@@##;;@;X;;;;4;=@@;@;;;#######;###;;4$55o.",
" OOO6%8=4;;@@@XXXXX@#@;;;@=;@;X;;;;4;;;#@#@;;;;#########=-6%5%o.",
" OO96%O8=4;;@#X@X@XX@#@@@@#=#=X;;;;444;=#@@#;;;#########-O5$;OO.",
".ooX*qOO8444=@@@X#@X@;#=#44=#4#;;;;;=4=4==@@;;;;#;#####*$$6-;$O.",
".ooX4-$OO8444=4;X##@@;4;@==44=@;;;;4;;;4;;;@@####;;;;;;$$%<;;%O.",
".ooX448qO%8=444=;#;@#@444=;4==@;;;;;@==4@;;;;X#####;;*$%%*4#;%O.",
".ooX=448$%O8;4====4;;;;44=;4;;@;;;;;;=;4@#@;;;;####;;$%%-#4##%o.",
".ooX;44;-OOO*44==;4;44==4=;4=;@;;;;;4;;;@@@#====###-$%$-##4##$O ",
".ooX4::::<666<::::::::::::::::4::::::::::::4444444e656e444:##OO ",
".ooo+%%%oOOOOo&#@@#XXXXXXXXXX@@@@@@@@#@@@@@XXXXXX7oOOoooooooooO ",
".ooooO+%oOO%oo+@#@#XXXXXXXXXX@@@@@@@#@@@@@@XXXXXX+oOOoooooooooo ",
"  .......          ..........              ........  .........  "
};
