/* XPM */
static char *result[] = {
/* columns rows colors chars-per-pixel */
"64 64 11 1 ",
"  c #2B1300",
". c #230B00",
"X c #331F00",
"o c #1F0B00",
"O c #271700",
"+ c #23130B",
"@ c #170B07",
"# c #3B1B07",
"$ c #431F0B",
"% c #671F00",
"& c white",
/* pixels */
"   .  X oo  X  .  .. .  .O... .+@#..   o.O....X$ O  .   oooO...o",
"   ..  oo..    .   . ..  ...   +@# ...oo...     O.. .  #......oo",
" # .O ...O.   ..   . ...O.o.  .+@#...oooo..  %OO ....   . ..   .",
" ##X ..  O o...  ..   ......  .+@#...oooooo  .O..oo     #      .",
"    .oo    oo.......  .o. . .o +@#  .oo.o.o....o..o.         % .",
"X .O o.   .oo.......  ...#X#O X+@#   .. .. o ..O.o.o #$##      #",
"$     .  X.oo.   #  o. .   X O#+@# o  .    . ......   ..#    .  ",
"X       o#...   O# X O#X#.O    +@# #.O  ....o.   ...#     #. O #",
"OO###     X.  o    #O X       .+@#...O . ..ooo..Ooo..  O. #   O#",
"  O.    X   O.# $..    O.   $ o+@#.. ..o   o.o.o .o    O..#$$   ",
"  O  #O #   O...oo..     ##$X .+@#.. .O   OOoo.o ..  oO.     X..",
"  .  X  # X.. ..o..o $   #$%   +@#o .     O  ......  .o..  X    ",
"## .#$#    O. ..o... X$### #. .+@#.. oo.oO..O. .oO..  ..      . ",
"## O  ##     . ooo.   %$#$# . O+@# . o...o.... o o.. ..oOX    O ",
"## oO #$# Xoo ..o  . .# #      +@# o.  O ..oo..  o.        .    ",
" #$$   #$ #.o . ..oO . #$.    $+@#oO..   .  .  O.o..# ##  ... o#",
"$##O ###$     . .oo  ..   #. # +@##    O  ...    .    XO.  .. . ",
"         $ ##%  ooo .      ..#$+@# #   .#..o.  #        . ....# ",
"  .....  # #   #Ooo. ... X$    +@#$# # o  .... . %  X  .  ..o..#",
"  ...    $X  O .Oo.   ..   .  X+@#X ..  Xo  .  .         #...  #",
"         . . X ....X.o....     +@#O .O..o . O ..   .$#.....  o  ",
". O. . OO..o..oooo.... ....OX  +@#  #O  .   .  oo... # .. . . O ",
"  ..  XOooooO....o..   #      .+@#%  o O..o.o..o...O   .. O ...O",
"#  .    ...    .o.o..##XO ###$ +@# . .  O .... O  .o O  . .  ..O",
"   .O.   ooooo..oooo. $X$   #$ +@#     $ O.oO. .OOO        ..O  ",
"..oooo... .o.oO.. .o.. #oO #$# +@#   O X OO... ..oO ...OO# ..O. ",
".oO..o..O.....  O.......O  ##  +@#X  . . %.....o  . .O..     ...",
" . .oo    ... ..  ....  .#$#   +@#  ..#.   .  ooo.     O.  O .  ",
" ....o.       ..O  .Oo.   X  # +@# #.X..   .o..o...O     # .. . ",
"  oooo..    o  .  . . X   #O # +@#    ....oo...o..oO   O.  O O  ",
".  ..o. .    .  .    . ..    X +@#  X .O..o.o..oo..   o....    $",
"++++++++++++++++++++++++++++++++@+++++++++++++++++++++++++++++++",
"@@@@@@@@@@@@@@@@@@@@@@@@@@@@@@@@@@@@@@@@@@@@@@@@@@@@@@@@@@@@@@@@",
"################################@###############################",
" oO...  .   Xo  .      O. ..   +@#   X    . . . ooo .. .   . ...",
".o.  . o.O..o . O . .. .#      +@#     # .o. O  oo.    O ..   ..",
"  ....O.    .   .    O O     % +@# . #   .oO...Oo     #O....  .o",
". . .....    O    XO.. .#      +@#. OX  .. .......O.    ....  ..",
"... ... .    .      O.  #    . +@#O. #$ #$  .    ....... #  o. .",
"o....oO  X  o   X  ....O  #. O +@#O   ## #  .  ....o. .oO# X O#X",
".oo..o  . #.o.X     ...O. #   O+@##   $%$# . X   #XO  o.   #O X ",
"o.o....O .  o  $$#...  ...#$$  +@##.o #$##OO       XX O $..    O",
"..o....... . O   # . O .     X.+@# .oOO    X O o.    X  oo..    ",
" .o#.... O ...O    . .. .  X   +@##o OO    $. O.OO     #o..o $  ",
" ....O . .  ..O. O  .O O      .+@##X    O. X..O..o . #  o... X$#",
"  . . # ..   ..#    ..O.OX    O+@#  #O X    #O...O. OX  oo.   %$",
"X o     .o..  o..o  O.o    .   +@## X O#X## X  OO O. #$ o  . .# ",
"O .$O.  oO .o ...O...O..  ... o+@##   X$    ...         ..oO . #",
". . ....o...o.o.   OO O..  .. .+@#   # #  .....        #.oo  .. ",
"# . X  Oo.o.o.o.X #O.O. . ....#+@#   # $         #  O   ooo .   ",
"#OO    .oooooo. $ O   O   ..o..+@#o  #    .    #.O..... Ooo. ...",
"  X OX  .. ...O  O.O   . #...  +@#...$  #      #.o...   Oo.   ..",
"  $. O  ..  . O.  . oO.....  o +@##...  ...#$$   # #.o #...X.o..",
". X.. #.o #$##OO  O O.... . . O+@## . O .     X..   .oOOoo.... .",
"   #O  .oOO    X O.O o.O. O ...+@#  . .. .  X     .#o OO.o..   #",
"## X .#o OO    $. ...O... .  ..+@#O  .O O      . ..#X   o.o..##X",
"$   #$ #.O     $ O.oO. .OOO    +@#  O...   .O.   ooooo..oooo. $X",
"oO #$# XO    O X OO... ..oO ...+@# . .  ..oooo... .o.oO.. .o.. #",
"O  ##     X  . . %.....o  . .O.+@#X ..O..oO..o..O.....  O.......",
".#$#        ..#.   .  ooo.     +@# #     . .oo    ... ..  ....  ",
"  X  # X$# #.X..   .o..o...O   +@# . ..  ....o.       ..O  .Oo. ",
"  #O #   #    ....oo...o..oO   +@#ooo ..  oooo..    o  .  . . X ",
".    X  #   X .O..o.o..oo..   o+@# . O...  ..o. .    .  .    . .",
".  o.  O .... O    O.# $.. .. .+@# X  OO.o.oo.OO.  O  ...  O   ."
};
