/* XPM */
static char *result[] = {
/* columns rows colors chars-per-pixel */
"64 64 28 1 ",
"  c gray28",
". c #4B4B5F",
"X c #434F47",
"o c gray31",
"O c gray34",
"+ c #3F3F3F",
"@ c #4F5363",
"# c gray9",
"$ c #3B433B",
"% c #5B5F73",
"& c #5F6377",
"* c gray39",
"= c #4B5B53",
"- c #57576B",
"; c #434757",
": c #57371F",
"> c #3F3F4F",
", c gray42",
"< c #373737",
"1 c #2F3733",
"2 c #131713",
"3 c #272727",
"4 c gray6",
"5 c #333343",
"6 c #2F2F3B",
"7 c #4F270F",
"8 c #6B4B33",
"9 c white",
/* pixels */
" .   X   XXXoX O++OOOX@       +#O   XX   o        X  X X        ",
"  o . $+% &X*OOOO+ O  +       +#=  XX         OX XXoXXX    X X X",
"  OXOX&O*O@%@ &-  +$XX  +XX   +#=   X X   XoX@ O  XooXoXXXX  XX ",
"@ o  X ;%OOX*&&& ++XX$    X   +#=   :    o XX OOXX@O  Xo oX XXXX",
"  O  XoO @ %X *O  XXX  + Xo   +#=   o     o@ @X  X-@  -   XX XoX",
"  XOX &X*O XooO@OXXX:    X+X+X+#=   X ; ooO -   X O@-- O  XoooXX",
"  O X@- %%O*X%X@X X X +      X+#=   X    @@O  X  XXOO@OXXX    Xo",
" OO OX %%-@-  @-  @XXoXXX   XX$#O  XX  X X Oo O@XX O  @  X X X >",
"  OOo*$ @XX-%@X@@oXX X X    XX+#=  XXXXO X   @% o O  X    X  XX ",
" o @-%-*O@@X XXoXoo oXX@      +#= XXX OO@       o--XXXX Xo XXX  ",
"   OO *o@@@Xoo-OOXXXXX@Oo   XX+#O$ Xo $ @X  o  XOXXXX X   XXXoX ",
" $ O *%%XoXXX@X@XX.ooXXO  :  X+#O X@X-  XO   XoXX. o X    XXXX X",
" @ O OO@XXX+Xo@XXX@XXX -   $  $#O    X@@o @XXXoXXo o      XXXXXX",
"  OX O-%%XX%oO  OX    @@O    X+#O   O@  X@XXXoXXoo  X       Xo X",
"  +O& $&-@X@O X@%* XX+ @  Xo  $#OXoo@XO OOXooooXX    X  X  ooXXX",
"    ***-@@ oO   O XXXXO o     $#=XX@XO-X X XXX oX XX   XX + X  X",
"   OO@@@* @OX o  XX  @OOX$ X o$#=XXX@o@O  XOoo XX@XX   XXXX   X+",
" O O &&*@&X@XXXXX@XX  -.  oXXX$#=XXXXXXo% OO@X oXXXXX XXoX ++ XX",
"  :  *O@@X@@OXoX@@@@XX   XXX X+#=XXXO%XOOO X X@oXo oXXX  XX XXXX",
" O OXOOX@XXO@  O *@@OXX o XXXX #OXXO$X OoX  *X, XX  Xo + XXXXXXX",
": OO @OOO@@@%@@ %%%-XoXXXXXoX $#=XXX-oXX@X  oXX oX oXXo+ XXXXXX.",
":;   &*X@@@@OO +X%%XXoXXXX XXX #OX XO@@OX-  X oXo X   o  o XX oX",
"  $* @OOXX%OOO $%%@oXX XXXXX X+#=XXO@   X @oo  XXo X   X. @XXX X",
"O O X@O%OXOOX:o@X XXXXXX  XXXX+#=Xo @X@oX@ooX XoXXX X+ X   XXXX ",
" *- O XOOXoXX@&X ooXX XXXXXX X+#=X X O  O ,o,X  XX XXXX X X+XXXX",
"O@O% OO XX-X  XXoX XXXX X XXX  #Ooo   OXOX  @*XoO X XXX X+XXX o ",
"+  @X@O O%@XO &X*XXXX XXXo XXo #OXXOX@X%OOXXX XX@@    X XXXXX+ :",
"XX      @oXX@ *% XO XXX XXXX o+#=X* $*XX@X@@OXXXX@@<  O XXXO   @",
"X XX X    X@X@OX O+oXXoo XoXXo+#OXoXO@, ,,  - OOOXO +OOO X@@@XOO",
"XX+X X X XXXoXoXXXXoXooXXXoXo 1#Ooo oOXXO%&O@@O@O@O   %   o@X  O",
"<$+++$$$1$$$$  $+$    $$ $+$11$#O$++$$$$+$@++$O++@@@+@OO +++<+++",
"#2##################33##3######4############222#245#2#6#########",
"==O=O===O====X==o====Oo=oooOoo=#=O=O=O===OOo=o==OOOOOO==========",
"XXX   +XXX XXXXX+XXXOXooX     $#=Oo   XXoX+.  XX<X XXX  <   @   ",
"XO o >  XXXXX+XX XXXoXXX      +#OoXXOOXX@%@X%@X @X X@<O <@ O 7 O",
"XXX. XXXXXXXXX XoXXoX o  o    +#= XOO*@*%O%@%%X%%OO@*** O$*O@@OO",
"XX  o XX Xo  @+X  +o          +#= @ %,*O@ O@XX+X&@O&XoO*X@,O.OOO",
"@X X@ XoXOX    X   XX       X <#=@@*%*OO@@O*&%XX-&X%%Oo<&@O  OO ",
"X @X@   X       >     X  oXXXo$#O+@ OO@X*&O%,&@%@o&&X%-oooo  OO.",
" XX XX@OO XXX XX    XXoXXoXXo++#=OOOOXO**@&%X@&@@@O@-ooo@X*   O ",
"@XO+ XoXO o         XXXXXXXXXX+#O @O@@XO,+-*O@@*O@ Xo*O @%ooo   ",
"@@@@O@XX       oX X  XX+XXX XX$$OOOO@XX%%,O%,%o -+XXo%oOX%@$Xo  ",
"@XXX@XXOX+     X      +X X+XXX+$# O O-O&- X*.&X%  @%@* oX% X@o  ",
"@@XX+XX XOo@+      XXXXXXXX +  +=XXO@@@@XX  o %  X@&@%XXO@ @@%  ",
"@X@ XXXXXo X    X XXX+XX+XXXX# #=X@XO@@@XX > O*@X %@%@ < XXO@.O ",
"X-OO +XX@  XXOXXXOOXX  XX +X #=#=O@O&@@@-%X @ o  XX*XX> @@-X*@  ",
"OOOO XO@OOOoO OOXX  XOX XXX X$+#= O@O%X@@OOX X X XX X o XXOXO@@X",
"OOOOOO OO X @XOXOOXXX-XXXXoX X+#=XoX@oX*XOX %@XXO X X @O*%@-OO  ",
"oOO @@@O OXX@X -X@X X@O XXXXXX+#Oo@XOo* O  X  XX   +@OO@@@@ @@o ",
"- X XOO XO-XX@@X@XoX X   XX X  #O*@&@@%XOX@XXX@O%     O@+X%@@@  ",
"OX X@@O +@o  @@@XXX@X+@  -XX  $#=OOoOO@XO@O@ XXX+ XX +***X@o@@@ ",
"@OXO@OXOXX X@X@XXX XX XXXXX  X 3OOoXOO% XXoX ;  O +XXO *X+O**O@X",
"O@O@OX@@-8oX@ O X  O+X@XXXX  +$#=ooO@*OXX@.oX XOO    X OX@OO-@OO",
"X@-@@X-@@X @@X@O X  XX-$+ X   $#==  @%X%@ XXXoXXXX   OX@ X@OXXO@",
"@@-@@@X@@XoXXXXXXX+ -- @ X  +X #=o o@@%OX   XX X XX X XO@X@XX o@",
"@o--@oXXX X@XX@XXXX@-Oo X@    $#ooX@@-@@OX+ +XX     X @ XX-O  X ",
"XXXX@-@ XX -@@@@XX ooOX X X   +#=o o@-@ X@  XXX   o  X.XXX@XXoX ",
"-XX+@&@X  % -OO X@o@OX@- XXX  $#o= @OX @X*OXXX+   X  O+OXo@X@XXX",
"X@@@%XX-oXX @-@Xo-&*@@@O Oo   $#oo X@XXoX@@XX+    X XXXoX@XXXXX ",
"O-@X@% O - XX--*o @X@% OX O   $#oo  Xo  XOXX   XX XX XoXXXX XXXX",
"@OOXXO&  X@ Xo-O@ OX@@XX     X$#Oo  X@ @X+ X  XX++  ooXooXXXXXXX",
"OOOO OOO -@@@ XXO@@,OOOX       #oo@  X@  O-X XXX   X oXXXXoX XXX",
"  O X @  XX@XX  *  O*OOO     @$#O@$ XXXXX O oXXX    X oXXXXXXXXX",
"oXo X  XXoX    OOOO% X% X    X 2O=XXXXX XOX  o  oo   XXoXXo XX X"
};
