/* XPM */
static char *tile0761740674605[] = {
/* columns rows colors chars-per-pixel */
"64 64 49 1 ",
"  c #0F0F13",
". c gray9",
"X c #1F1F27",
"o c #373B4B",
"O c #3F3F4F",
"+ c #434757",
"@ c #4B4B5F",
"# c #333343",
"$ c #2F2F3B",
"% c #272B37",
"& c #171B23",
"* c #4F5363",
"= c #5B5F73",
"- c #57576B",
"; c #23232F",
": c #676B7F",
"> c #5F6377",
", c #6B6F87",
"< c #373737",
"1 c #2F2F2F",
"2 c gray6",
"3 c black",
"4 c #73778B",
"5 c #838383",
"6 c gray67",
"7 c #C3D7FF",
"8 c #9397AF",
"9 c gray64",
"0 c #DFE7FF",
"q c #777B93",
"w c white",
"e c #7F839B",
"r c #8B8B8B",
"t c #939393",
"y c #878BA3",
"u c gray45",
"i c gray42",
"p c #9B9B9B",
"a c #7B7B7B",
"s c #8B8FA7",
"d c gray39",
"f c #979FB7",
"g c #87AFFF",
"h c #9FA3BB",
"j c gray70",
"k c #A3ABC3",
"l c #BBBBBB",
"z c #13131B",
"x c #272727",
/* pixels */
" .XXXXXXXXXXXXX...XXXX........XXXXXXXXXXXXXXXXX...XXXX......... ",
"..oO++OO++++@@++OOOOOOO#ooo$$oooooooo$%%%%%%%%%XXXXXXX&&&&&.... ",
".%o+***@======--****@@@+OOOOO@OOOoOOoooooo####$$;;;;;;;XX&&X&&&.",
".$+O**--:::>:::>*--***@*@@@O@**@OOOOOoOOOOooooo#%$$%%%;%;XXXXX&X",
".o-*O**XXo:>>:::*---**@*OOOOO@**OOOOOo#Oooo#oooo;$$$%%;;XXXXXX&X",
".o--=O=->>,:::::-----=**@@@O@@*@OOOO@O@OooOooooo$$$$$#%%;X;XXX&X",
".o-->=+*=>::::=:->---=**@@@O*@@*@@OO@@OOooOooo#o$o$$$#%;;XXXXX&X",
"Xo-*X>*%X%o;;<1o%$%;;$XX&XX..&&XX&.&&%X%;%o;;<1o%$%;;XXXXX..&&&X",
"Xo->%::+.XX....X.XX.....22.2222....2.....&&....X.XX....2o%.&&&&X",
".o=>O::@.&%%XXX%XXX&.....&%O+=>->=*+%%&&&&&X&XX%XXXX&XX.O%&&&&&X",
".o==-::O.&%%XXX%XX&.2. %+:=*+O$%$oO@*--X%&&&.&X%XXXX.XX.O%XX&&&X",
"XO=:,::o2.&& ..... &&%*O+$$$%$$%%%%%%$o@+oX& 2....&&&..2OXXXX&&X",
"Xo=:=:>@23333333333%+O+%$$$%%%%%%%%%%%$$o++oX33333333333O%%%X&&.",
".#=>=::O2%OOooo%% o*O%$$$$+:4-+#o@=>*#%$$$O+OX%%%ooooooXo%%XX&&X",
".#=>=::@..%%X&&&X++O$$$O-56777>++:77784+$%%%O#o&&.&X&XX.O%%%XX&.",
"X#===::O22&..2 X-*$$$o+5970007q**q7000784=O%$o#o&22  .. O%%%XX&.",
".o->::-o2333333*+$$$Oq670wwww0e**e0wwww076r-%%o%o3333333o%XXXX&.",
".o--==-$2XoXX%+-$%$o570wwwwww04*@40wwwwww07to%%o%%.XX$oXO%%X%X&.",
".o->>>-o2 &  O+%%%*t70wwwwwww0e-*e0wwwwwww07tO%%oO%&..%&O$$$%%&.",
".o-=--*$2222%=$%%*t70wwwwwwww0y**y0wwwwwwww075o$%$oX22 2O%XX%%&.",
".o-====@3333-o%%#t70wwwwwwww07:++:70wwwwwwww07r#%ooo3333O#%%%X&.",
".o-=-*-o22 $-$$$u70wwwwwwww07r+#o@:70wwwwwwww07:o$oo& . o%%X%X& ",
"Xo*====@ &&-+o$+90wwwwwww07r-+%%%%+-i70wwwwwww0p+%o#o.& Oo%%%%&.",
"X$*====O2&$-o$o,7wwwwww079-+O*=>>-+O+-i70wwwwww7a$%oo%&.+ooo$%&.",
".$*=***O2.*+o$=60wwwwww7pO%@ues88sei+%Od7wwwwww09-$o$X&2Oo%%$%&.",
".$*-*@-o2&:O$%a7wwwwww09+%*5fgggggg8a*%+i0wwwwww75%o$O. Ooooo%&.",
"X$@--*@%2$-$%#p0wwwwww7*%*5hg777777gfa@%-7wwwwww09Oo%o& #oooo%XX",
"X$@**@*%2++%%*70wwwww0pO+afg70000007gfa+Oi0wwwww07*$%o% %%$%%%X.",
"X$@@-@@%2-o%%>70wwww07-%i8g70wwwwww07g8d%*70wwww07>$$$o2%o$$%%XX",
"X$@@-*@X2:O$%-7700007:+@eg70wwwwwwww07g5%O:7000077=$$$O X%$%%%X.",
"X$@@**OX2=%%%+:ye4ee,*%=sg70wwwwwwww07gqO%*:ye4eq:+$$oO X$$o%$X.",
"X$@****%2=$%$O@**@**+O%d8g70wwwwwwww07gqO$O@**@**+O$oo+2.oooo$X.",
"X%O*@@@%2-%%%O+*-***@O%>8g70wwwwwwww07gqO%O+*-***@O$oo*2&oooo$XX",
".%O@@@O%2*%%%+:ye4eq:*%>8g70wwwwwwww07gqO%@:ye4eq:+%$o*2%$ooo$XX",
".%OOOOo%2O#$%=77000078>=yg70wwwwwwww07g,+Ot7000077=%$o+2X%%%ooX.",
".1OOOOo%2%+%%>70wwww07t*qhg70wwwwww07gfi%470wwww07e%$o+2%%ooooXX",
".1OOOOo%2X+%$*70wwwww0jditkg70000007gh5@@90wwwww074%$+o2%$%%oo%X",
".%O@@@Oo2&*$%#,0wwwwww7r+itkg777777ghr=O57wwwwww0p#%$+%2ooO##o%X",
".%o@O@o%2.-%%%=7wwwwww0l,+ithggggggfrdOal0wwwwww7a$$%*&2Oo#Ooo%X",
"X%oooO#%2.#+$%+40wwwwww76,+iey8888e4=Ou67wwwwww06+$o$%.2oo%%ooX.",
".%oOOOo#22%+$$$=7wwwwww07lru+-ddd=*+>5670wwwwww7e$$o+%&2Oo%%ooX.",
".XoooOo#22&O#$$+40wwwwwww0765=%%%%+yj70wwwwwww06+$$oO&& OOoo#oX.",
".X###OO#2 &X+$$$=70wwwwwwww07y+#o@y70wwwwwwww07a#$$+X&&&+OOO#oX.",
"XX#oOoO$2222o$$%#d70wwwwwwww07:++:70wwwwwwww07r#%$oo2 .2OoO#Oo%.",
".X#oooo$2333&Oo$%od70wwwwwwww0y**y0wwwwwwww07t@%%oO&3333OOOO#o%.",
".X$##oo;2%oX X%o%%Od70wwwwwww0e-*e0wwwwwww07t*%%%oX XoOXOOOoooX.",
".X%##oo$2X%. .%+%%%od70wwwwww04*@40wwwwww07ro%%oOo. .%%.+OOOooX.",
"XX%%$ooo2.&.22&oo$%%#=470wwww0e**e0wwww078:o$%%Oo 222&&2@OOoOo%.",
".&;$$ooo2333333&oo%%%$+=470007q**q70007t=+$$$$+o&3333333OOooOO%.",
".&;;%#$;2%ooooXX&%o%%%$o+=,777>++:777r-+$$$$$+#%XXo$$oo&Oo#oOO%.",
".X$#$##o2X%X%%&..&Xo%%%$$%#*>-+#o@=>*#$$$$$$+%...%XX&XX.+OOOOO%.",
".X$#$;$;2..  &..222&%%$%$$o$%%%%%%%%%$oo%$+Oz 222...2 22OOO#O#X.",
"XX%#$##o2333333333333&oo#%o%%$$%%$$%%oo#+O%3333333333333O+++##X.",
".X%$;%$%&%oooO$o$oo%&X.&XO+O%%$$o%$oO#OX%XXX%o$o$ooo$oo&OOOOOO%.",
"XX;%$##$.&XX%%%%X%%&&&&...&X%OOOOOo%X%&.&&.&%%%%X%%XX%X.+O+&OO%X",
"XX;$$$%#..XX%%X&.XXX&&&.    &......&...&.&&X%%X&.XXX&XX2OOO&+O%X",
".&;$;;$%+++++Oo##OOOoO+oOOo%o%XXX%%o%oOO+++++Oo##OOOoO+o$O+%++%.",
".&;$;;X;#%%%%%%%%$#%%%%%o%$$ooOOOOOo+Ooo++@@@@+++**@++++O$O+++%.",
"X&Xx$;;;%XXXXXXX%$$%%%%%%%%%%%ooOOOoOOOO+OO++OOO+**@++++OO$O++%X",
"X&Xx;;;;%XXXXXXX%$#%%%%%$X%%%%ooOOOoOOO#@OOO+OOO+**@@+&&%OO$OO%.",
"X&X;XXX;%XXXXXXXX%%%%%%%%%%%%%oooOOOo##OOOOOOOO++++++@++#OOO%O%X",
"X&&XXXX;%XXXXXXXX%%%%%XXXXXX%%%oo#oo#oO#OOOOOOOOO+++++OooOOOO%%.",
".&.&&&&XX&&&&&&&&XXXXX&&&&&&&XX%%%%%%%$ooo$$%%%$oo####o$%%$$$%..",
" .XXXXXXXX.......XXXXXX.........XXXXXXXXXX.......XXXXXX........ "
};
