/* XPM */
static char *tile0681740674605[] = {
/* columns rows colors chars-per-pixel */
"64 64 68 1 ",
"  c gray9",
". c gray12",
"X c gray6",
"o c #0F0F13",
"O c #272727",
"+ c gray28",
"@ c gray31",
"# c #333343",
"$ c #3F3F3F",
"% c #3F3F4F",
"& c #131713",
"* c #0B0B0B",
"= c gray34",
"- c #070707",
"; c #0B0000",
": c #373737",
"> c #1F1F27",
", c #2F2F2F",
"< c #23232F",
"1 c gray39",
"2 c #13131B",
"3 c #171B23",
"4 c gray64",
"5 c #9B9B9B",
"6 c #7B7B7B",
"7 c #272B37",
"8 c #2F2F3B",
"9 c #838383",
"0 c #939393",
"q c gray67",
"w c #8B8B8B",
"e c gray45",
"r c #373B4B",
"t c #434757",
"y c #4F5363",
"u c #57576B",
"i c #4B4B5F",
"p c #000017",
"a c #1B1F1F",
"s c #070B07",
"d c gray42",
"f c black",
"g c #57371F",
"h c #5F1707",
"j c #4F1307",
"k c #57230F",
"l c #632F13",
"z c #430F07",
"x c #6B4B33",
"c c #6F331B",
"v c #87472B",
"b c #7F431F",
"n c #43230F",
"m c #430000",
"M c #390000",
"N c #3B0000",
"B c #5B0B00",
"V c #270700",
"C c #330B00",
"Z c #331707",
"A c #3B1B07",
"S c #3B0F00",
"D c #570000",
"F c #1B0700",
"G c #4F270F",
"H c #5F0000",
"J c #1B271B",
"K c white",
/* pixels */
" ..XoO+++@+@++@@@++@+++#$@@@++@@++%+@++%$$$$++$+@@++@@@+@+OXo   ",
" . o&O+++@+@++@@@@+@+++$+@@@+++@@+$+@++%$+$+++$+++@@@@+@@+Oo   .",
"  oX* $@+@+@$+@@++++@++$+@@@++++@+%+=@+++$+@++$++@@+@@+@@+Oo&  &",
"  X*-X$++@++%+=++++@@$+$+@@@@++@++$+@+%%$$+++$$+@@+$+++@@+.o&Xo&",
" o*;-o$+@@@+%+@%++%@+++%@@@+++++++%+@+$%$$$++$$$++$$@@$@+$ o  o ",
"XX*-- $++@@@+@@+$++++++$@@+++++$++++@+$+#$++++++++$$+++++:X*&XXX",
"*X*;*>$+=@=+++@++++=@++$+@+@@@+@@+$+@++%$++@++++@@++@@@@+:X*****",
"OOO.>,<<OOO><OO><><O<<<>><>>O>OO<O><O><<<<<<O<>>OOOOO,OO>O.>.><,",
"1===+: oo23o>3o333o33 32ooo2o-* 33322232333o3>33>3o3>32o*>+=@=11",
"45556+O> 78787<88<><<<<7<<>7<> O78<<<<<<<8><<77<87,8877<3$9055q4",
"0wwwe@,OO:####8:#87##:7#::8r87O78#::88878%88:8#8#8:%r#%8<+ew0000",
"11=@@+:7788#8:88887r%:7#8#:#87OO<#8:#877#r7:#:###:#%#$%87+=11111",
"1=@t++7<7O<8<<787878#7O:<788<O>O>7O78<>378>,:78887::88r8<:@y=uuu",
"i$+$$$<2>>>><>>>><<88> >><<>2> >23>><332<>>>>>>7<>>>>><7<<#%++t=",
":,,,:,>2o2>33o3333><3  23<>222o22222>32o333  33>>  2>333>>,,,,:+",
"O..OOO ooo2o2oooo222ooooo23oooo22poo2Xooo232ooo22 oo233o* . >..O",
"o**o&a&-----*s---***oo*oo*p---o*o*-----s--*-*---*-**oop*-**-***o",
"*;**X. *-******************************************X*X*****--;*-",
".   .,>o-*oooooo*oo-**o***ooooooooooooooos-s**soooo**o-oo .X ...",
"=@+$$$a22oo222>>2222322ooo22222222>3>33<>>>3>>3><333><233<+$====",
"www96=O><<<87<7<7<<<8<7>><<787>>7<878787:<8<8:8877<<7#78<:deww99",
"1d111=878%$%#:####<#%:#:,8r#%$77$:%#8#r:##r8#+#r888<##8#r+1111=1",
"@+@=@@7<8r##:::#8#7#r#88,::#$8:8$#$$##%8:%#8#t%##8#8###8#+@++@@+",
"@+@@@@7>8%$$:#:#<#88r$88,#8$%77::#%#$%%::r#88%%#8##7#88r#$=@+==@",
"@+$$+@O3<777O>>8378<8#7<>7<<7<<87<777:#<78788#887<7<<7<<88:$@=@+",
"$$+++@>o3>22222>o >3>>3 o22222332&22o2>33333>>3>323>>3223>O,+@$$",
"O,,,,$.fps*--**p-o--*-o*--*-------f----oo-*--*--s--**-s--2O>,::O",
" ... O ---*---*---fs--**-**--*-*-------*s***s--*---s---sf&.&  .a",
"...  . &   &&  &o&X&&X &X& && &&& & &o&&&&  oXX&ooX&oXo&o  **& .",
"OO... O:,,,:,,:,,,O,OO,OOO,,O,O,,OO,O,,O,O,:O><<OOOO<<<<<<   ..O",
"O.... :@++@+$+@++$:$$$+$$:$++$$$$$$$$++:#$++#::::,:,::::::O >>OO",
",...,O@=@@=@+@@@@++@@@++++@@++++++$+@@@$%$$@$::$$$::$$$$%$O>>>O,",
"::O,$$@@@+@=@@==@++@+++++++@@@++@+%+@@@$$%$+#$$$$#:+$$++%$:,,,,:",
"::O,$$@@@+@=@@==@++@+++++++@@@++@+%+@@@$$%$+#$$$$#:+$$++%$:,,,,:",
":::$++=@++@=@@==+@++$$++%%@@@++@+++++++%+$$+$$%+$:$$$$$$r++$::::",
"::,$++=@@+@@@@==@++++$++++@@@@+@@$++@@+%$$$+%$$%$$$$#$$$+++$8::,",
",,,$+%==@+==++=@@@+@+$+++%+@+@+@+%$$@@@+$%$+$#%$:$$$$$+%+%+:8,,,",
"O,O,$:@=@@@@+@==@@+++@+@+$+++@@++$%++@@$%%++$$+#$$:$:$%$%$,,>..>",
"   .O<$$:$++::+@$$:$$:$+::$$$$$$::$::++:8::$::::::,,,::::,O>oXX ",
"=1=1=@ghjkkjkjjkkjjjjjkkjkjjjhjjjklhjhjjjjjjjjzkkjkjzzjkhg====1=",
"1d11@txcccckccccccckcclccccklcccccvcclllcclcclcccccccllbcc@==111",
"+@+$%%khhlhjhhjhjhhhhhhlhhjhjhjhlhhhjhhhhjjhhjhhhkjjhjhhhg%++++@",
"$$$$#%nmmmmMNNNjMBjmjmmmjMNMMNVmNmjmMjNmmNmjNMjBzMMMMMBzmn$:::$$",
" ...>>  && && &a      &  &&&&     &&o&&o&&  &&22&&&&o&2&o ,O  . ",
"O,O,,O.CVVnVVVZZZVAZCZVAZCVVVZZAZCZCVVCVVVZACZZZCVVVVZZVZZOOO>OO",
"d66ed=nBjhhjSzzjjjhjhhjjjhhjjhjhjjBhjjjjjjhhhjjhjzjjjBjhhl=1=1dd",
"====++gccbckcckclccccccccccccccccccccccccvccvcbccccccccccx+@++@@",
"@@@@+@jjBjDjjmjjjjBhhjhDBhhjjjmjBjhhjjhhBhhhBjBBjjjjjjhBBk++++@@",
":$$$$$OVVVVFVVVVVVVVCVVVVVVVVVVVVVVVFVVVVVVVVVVVVVVFFVVVV ::8:$$",
"2&23>a &a22&&o222&222& 2&222 2a322&2&222  &22 2a a   a a  322222",
"++==@+gjjjjjzCjzjjjjkzjjzhkjjjjjzjhkjjjjjjjjjzzhjzzjzjjjjG++++@+",
"ee661=xccbcllkckbccccccccvvcbvcchccvcccbbccvckccbcllcbbccc1d1dee",
"@@+@++nhhhhhjjjhhjhhhlhjhhhhhhhhjjhhhhhlhjhhhjhhhhhhhhlhjg=@@@+@",
"@+@+++nNmNjmNVNzNMMSNmNMzMNjmzMzNSzjjjmmmMzzNMjmNMmmMNmmNn++@+++",
"OO,,,, o&  &     &oX&o&&oX        o&    o&    o&&    &  o ,O>OOO",
",,OOO,.VVZZZZVZAZZVVZZZZVVZZZZAZZVZCAAZZZZZZAAZCZVZZZZZZZZO.>>O,",
"666e1=khccchjjkllcllllhjjclllccclkcccclhclclcclchkchkhchhc=dddde",
"11d1=@gcvcclccchkccchckhhcccvcccbccvcvcbccccvccccvccccbckg=====1",
"@==+++nDBDhBjDBhNmBzmhhzmmzDDHjhDBhhBhhHBDDBBmjhBBjjmjBjmn+$$+++",
",,,,,:ZVVVVVVVCVFVVVVVVVVFFVVVVVVCCVVCCVVCVVVVVVVVVVVVCVFZO..OOO",
" ....O>aOOOOO>O>>OOOa.aa2O..O.>OOO>O>O>.>O>JO>>aa..OO.O.OOO&2   ",
",,:,,::,:$::$$:,::$$::::,,,::$$:::$::::::8:$:,:::,:$$::$$:>OO<O,",
",,,O,$$$++%$+$$#+@+$++$$$:$$+++$++++$%$$$$+@+:$+$$$@+$$+@:.O>>,,",
" *Xo .#%+@@@++@t@@+@=$%++%+@++@+%+@+%%+%%%@=+%+++++@+@+@+:.ooooo"
};
