/* XPM */
static char *tile0901740675773[] = {
/* columns rows colors chars-per-pixel */
"64 64 31 1 ",
"  c #AB0000",
". c #C70000",
"X c #E30000",
"o c #AB6300",
"O c #390000",
"+ c #3B1B07",
"@ c #5B0B00",
"# c #8F0000",
"$ c #431F0B",
"% c #632F13",
"& c #6B3717",
"* c #732700",
"= c #771F00",
"- c #572B0F",
"; c #671F00",
": c #7F2F07",
"> c #331707",
", c #733B1B",
"< c #6F331B",
"1 c #9B3F0B",
"2 c #933F00",
"3 c #57230F",
"4 c #FB0000",
"5 c #4F270F",
"6 c #331F00",
"7 c #271700",
"8 c #730000",
"9 c #570000",
"0 c #430000",
"q c #7F431F",
"w c white",
/* pixels */
" ...XXXXX..........XXX..................XXXXX...................",
"oO++@@@@@+++++++++++@@+++++++++##+++++++@@@@@+++++++O++++++++++#",
" $%%&&&&*&&**==*&%-%&&%%%%&;::&#=>%**&&&&&&&&%%&:#  =%%%%%%%%%& ",
" +&,,<* ...12#  2:&<,,<&:1...:&#=+%<2#22<<<<&&2..X.=**###:<&&&& ",
" +&,,2.o1=;333;;*#  21 .X4.#=&&#=+%5*=.o  11...#=@@+$$;:  =<,,& ",
" +&,1.o*$676++$+++;==1oX41=35%&#=+%-5$=2#11===@+6+$555-%=1.:,,< ",
" +%2. ;$-%%%%%%%%%5$;;-3;$+5%&&#=+%%%5$%;;3@+6$%%%&&&&&%5<  :,< ",
" +%1.#+5&<&&&&&&<&%%-5%%55%%%%&#=+-&%-5-5$$>+$%,,,,,,<&&-5: *<& ",
" +%o235%&&%%%%%%&&&&&&<,&&,%--%#=>-&%-%%---55-&,,,<,,<&&&%&=*&& ",
" +%:=$%&&&&&&&&&&&&&,,,,,,,%---#=>-&%-%-------&,,,<,,<&&&%%==&& ",
" +%*#=&&,,,,,,,,,,,,,,,,,,,%---#=>-%----------&,,,<,,<&&&&% =&& ",
" +%*.=&%&<<<<<<<,,*#. #  #*%---#=>--%=#.. ##=-&,,,<,,<&&&&=.=-% ",
" +%%2 =&&&&&&&&&=... ;==... =--#=>-% .. #;@;##:,,,<,,<&%&2. 3-& ",
" +&%5=#:<&&<:=2ooo##@$$$;8# =--#=>-= .=@$++$==:22:<,:***.X#3$%& ",
" +&&-$;.. ......:=@$5%%%-5@;=--@+75;;@%--55555*;3= .....X#$7-&& ",
" +&&&%5;=====@@@+>5%&&&&%&%53-=###;-55%%------&&%;;=1==#@+$-%&& ",
" +&&=#:&5$$$$+$5%%%%%%%%%=####+OOO#####;------&,,&%-;$5+5*##*&& ",
" +%#.  ==:*:2*:222=### ;5=*OOO55%%+OO##7-= ##92222*22=:==# .  * ",
" >%;;OO>>>+>++>++++OO@#=$=*$5---&&%%% ;7%. =@O3+>>7>>7>77O@;==& ",
" +%%%%%%----%%--%%%%$+8=$=#@5---&&&&=.@7;  @>$%%%%%%%%%%%%%%%%& ",
".$%&%&,<%%&%&%--&&&&57=#@5 @+5--%%&&=.+7=.=+7&,,,,<,,,,,,<<&<,,.",
".$&&%&,<%&&%%---&<&&%7+#@$ ;$5----&&  0+ .;7%&,,,,<,,,,,,<&&,,,.",
".$&<&&,<%&&&&&&&,<%%-+7#=$ #+5----%%.#@5..@6%&,,,,<,,,,,,<&&&<< ",
".$&<&&,<%&&&&&&&,<%--57#=5=235----%&.9$:.=+$%&,,,,<,,,,,,<&&&&& ",
".$&<&&,<%&&&&&&&,<%---+;:35 @>5---&=.;>2 @65&&,,,,<,,,,,,<&&&&& ",
" $%&&&,%-&%%%&&&,<%---5+=;$.=55---&.4@5.=+5%&&,,,,<,,,,<<&&&&&& ",
" +%&&&,&%&%--%&&,,&%&%%7#=$= ;$---&.#$#.;>5%&&,,,,<,,,,<&&&&&&& ",
" +%&&&,<&%---%&&,<&&&&%+@#;5#8+5--##0$ #+$--&&,,,,<,,<<&&&&&&&& ",
" $&&&&,<&%---%&&,<&&&&&%7#=3=.=%%:.9+;.;65--&&,,,,<,,<&&&&&&&&& ",
" =*&&<,,&&&&&&&&,<<,&<,&5; =3.1%&1X@; =+$---&&,,,,<,,<&&&&&&&&= ",
"=  *&&,<&&&&&&&&,<,,<,,,%5# ;;.=;.;+# @+5---%%&,,,<,,<&&&&&&&#  ",
"==. *&,<&&&&&&&&,&,,<,<,,5;@%5=  =75=;+$---%&&,,,,<,,<&&&&&&# # ",
"===.=%,<&&&&&&&&,<,,<,<,,,%=%* =@ ;%&5%%%--&&&,,,,<,,<&&&&&%##= ",
"====;%,<&&&&&&&&,<&<&&&,,%# + o%62.:=#;%--%&&<,,,,<,,<&&&&&%=== ",
"====-%,,&&&&&&&&,<&&&&&,<#.0;X=+7*X== =&&&,,,<<<qq,,,<&&&&&%=== ",
"===#;%,<&&&&&&&&,&&&&%&&%.#O#.@755# ;=#;&<<<<&&&,,<&<&&&&&&%#== ",
"===;$%,<&&&&&&&&,<&&&%&&#.O;.=7$%5;.=3#=<<&&&&&&&<&&&&&&&&&%;== ",
"=:;$-&,<&&&&&&&&,<&&&%&5.#O..@7%&%-2.;= ;%&&&&&&&&&&&&&&&&&%%5* ",
"=;+-&&,<&&<,&&&&,&&&%%&=.@7.=75&,&5:.;3#=&&&&&&&&&&&&&&&&&&&%-5 ",
"=7-&&&,<&&,,,,&&,<&&%%%..O91@7%,,,5%2*5:*%&&&&&&&&&&&&&&&&&&&%- ",
"=$&&&&,<&<,,,,<&,<&&%-=.;7  7$&<<<%5= ;* ;%&&&&,&&&&&&&&&&&&&&% ",
"=$%&&&,<&,,,,,<&,<&&%- .O;.87-,,,,&5; ;% ;%%%%%&%%%&&&&&&&&&&&& ",
"=+%&&&,<&,,,,,,&,<&&%%..7=.O>&<<<<<%5 *5#;-%&%-%&&&&&&&&&&&&&&& ",
"=+&,,&,<&,,,,,<%&%%%-#.8+ .O5&&&&&&%$ =$#=5&&%-%&&&&&&&&&&&&&&& ",
"=+&,,<,<&,,,,,<%%%--- .@;.#O%&&&&&&&$#=3=#3%%--&&&&&&&&&&&&&&&& ",
"=+&<<&,,&&<%%%%-%%--- .O;.9+%%%%%%&&5;#;-#@----&<&&&%%%%%&&&&&& ",
"=+-#  #**2*22*2222=##..7:.0-&%%%--&&-5=;5 ####22222*22*2**=#  * ",
"=>-*  =%++++$++$$$+OO++5#.+%&&&%--&&%-=-5;OOOO+$$$$++$++++:  =< ",
"=>-5;@%&&&&&&&&%&%%%%%%%=. ###*%--= 2*=$%%%%%%%&%%%---%&%%%;;&& ",
"=>----%&*2=22<,<,<&&&&&&==;;@@=###@@5$$6%%%%&&&,<&;21=2:<&%%%&& ",
"=>---%*  ..    *,:<&&&&&&&%%;%;;@@+$55%%&%--%&::= ...   .:&&&&& ",
"=>--%=  =;@@@+=*2o:*%%%%%: ..:%==6$=##=&%---**.X..#=@@@@=#=&&&& ",
"=>-%2..8$77$+%-53:# =%== .X.=3%#=+5- .. ==%=#.. #@++$5-5$= :<&& ",
"=>-;..8$+$5%,,&%%%;=## ...#@+5<#=$%%==#.. # . =$+75%%&<&$5=.=<& ",
"=>-=.=+75%,,,,,,,&&&;@@;@@+7>$,#=3%%%5;@@@@@@+66-%&,&,,,%$3 =&& ",
"2$%=#@+5&%%%%%%%%%%&&5$$+7+$-%%#=3%&&%%5$+6+6+5%&&,,<,<,&$5==&& ",
"1$&*=3+%,%---------&&%%%%%&,,&&#=3%&&&&%%%%%%%%&&%&<&&&%%-%=;&& ",
"1$&&==%<,%---------&,,,,,,,,,<&#=-&&&&&&&<<,,,,&<&&&&&&%%%: ;-% ",
"1$%%##;&,&&&&%-----&::2,,,,,,<&#=-&&&&&&:==:,,<&&&&&&&&&&:..@-% ",
"1$%5=#2,,<&&&%%&&:#..o4.1:<,,<&#=-&&&&=1.Xo==<,&&&&%%%&&=..8>%& ",
"1$%-53=#:<&&&%: ..XX.o..o.=*,<&#=-&<= .o. ===  =<&%%&==1..8O$%& ",
"1$%%%%;8=#2 ...X.#=;;&=*:o 2,<&#=-&,2..:@++3;==2. #=:2##89O5%&& ",
"15%&,,<;;=<:  ==:<-%%&%&<,*::<&#=-&::::3+$5%&%&,:===@5@+++5%&&&=",
"o   .....          ...                     ..        ####       "
};
