/* XPM */
static char *tile0441740674605[] = {
/* columns rows colors chars-per-pixel */
"64 64 47 1 ",
"  c #D3B377",
". c #4F270F",
"X c #6B3717",
"o c #632F13",
"O c #572B0F",
"+ c #432B13",
"@ c #532F1B",
"# c #473317",
"$ c #673F27",
"% c #634B2B",
"& c #3B1B07",
"* c #7F431F",
"= c #733B1B",
"- c #87472B",
"; c #472B17",
": c #9F5B3F",
"> c #7B4F33",
", c #431F0B",
"< c #574323",
"1 c #934F2B",
"2 c #6F331B",
"3 c #936347",
"4 c #3B2313",
"5 c #9B572F",
"6 c #2F1B0F",
"7 c #37230B",
"8 c #2F1707",
"9 c #3B270F",
"0 c #4F3B1B",
"q c #331F07",
"w c #7F6B47",
"e c #735F3B",
"r c #331707",
"t c #DFC387",
"y c #A77757",
"u c #874723",
"i c #B76B3F",
"p c #6B5733",
"a c #BB8F6F",
"s c #D3A783",
"d c #B77757",
"f c #E7AF8F",
"g c #CF8F6F",
"h c #AF633B",
"j c #E7BF9F",
"k c #C3A363",
"l c white",
/* pixels */
" .XooooOO+@@@@#@$$$@#%XXXOOo&.&. ******o=XX===$=$--=X$=$*oXXO@;O",
" -XXXXX=XX=**********--:-%>*Xo.. -XXXOO@OOOO@@,,,O,,OOO<O,O,OO&+",
" 1==XXX2@@OOOOOOoOO@X==*->>31*@o -==XOO;4,OOOO@;;,4,O@O,@O@+@O;;",
" 5*X@OO;;&,.,,.O..O.OooO;$>>1-=@ 1*X@,,446,4&;;,4784,;;94;+@OO<O",
" :*X;,9+,,OO,OOo@@@@@oXoO;$>>3$0 1*X;9&,8&&8,,+,448,4;;49,,<@;;#",
" >>$@,,OOOooooXXXXXXXXXXooO<%>%o >>$@,,+4+,,+...;;44qOO,;4744@;.",
" w>%@,OOXoX===**=***==*X=Xo;<%o@ w>%@,,,,+,,OOO.,O&@,@,4,4,44@..",
" w>%;OOoX==*$********===*Xo&@$$; w>%;,&&,,.OOOOO;;@OO.7&+4;q4;;.",
" 3e%OOXo==**=*=*===*==XX=XO;.X=O 3e%@,,r,,OOOOOO,,.OO.,&&,&6&O..",
" 33<OOXX=*===**--%=--*X*=oOq&Xo0t:3%@7&&@.OOO@XOO@@OO.+@4&r48O&.",
" 33$OOX==*==*=-%---*-*=$*o@.@$$ot3y>@,4,..,O@XXoO@@oO@.4O&+4&,@.",
" e3$OoX******u*-*--*%*=*=X@O;$*<tiy>@&,,..OOOXooooOOOO,+O;48;O,o",
" >>$OoXX=*-=%%11511*****=XO.;o*otyy>;4,,.OOO.0oooOOXOO@@,O,44;Oo",
" e>$OOoX=*==**15--**-*==*XO+.o*<tyy>@&&,OOOO<O@@OOOO@@,@OO464;OO",
" e>$O,OX==**u*55>-u--%===XoO,o*Oty3>.;4OOOOOXX@@@OO@@<O@O;99;OO+",
" e>$.,OoX=---155555u-====XOO,@*Oty3>++;,,@@@$$@@@oOO@OOOOO,;,@@.",
" e>$o,Oo=*-*u15u155*u*$==Xo+.@*+ty3>o4;&+@@@<$<<<X@O.,#O@O,&,4OO",
" e>$OOOo==**-1*-551**%=*=XO,,@*Oty3>@,&q,+@@<<$$XX@OO@@@OO,r;@,#",
" >>$0,OO=**%**1*u11--*-=XOO,;@*<tyy><;,,&@@@<<<%$<<o@o@@O,,,;,,O",
" 3>$0O,OX=**--****---=*=XO,,,.*otyy><444,@O@@@@<<@@@@O@OO,;;;;@#",
" 3>$0,OOooX****----=%**==oO,O.Xoty3><;&r,,,OOO,@@@oO@@@OOO;;;;;O",
" 3>%0.oOOOO=**=-*%==*===oOOO,Oo0tyye<;,,&;+.OOOOO@OO;@@.,,&7,,.#",
" 3>p<.,,OOOoX=-***-**$==OOOOooo#tyyw%;;44++,+.OOOOO@,;.,&&4,O,.O",
" 33>$O+,,OOooo=*===*X==oOOO,.oo#tyy3>@4+,;+&&,,O..+&&,.,&9+;;,;.",
" 3ye%0,,,,OOOoXXXXXXX==OO,,&4o=@ iyyw<;++,,&&,,,,,,,&4.,94+&&&;O",
" 3yae$@OO,,,,OOOOooooOOOO,,++@=@ 3aaye@<,;4,4,,,,,,;O&;&&;&4,O;O",
" 3ysae>XO,O,,,O,OOOOO,,;;,,;;@=@ 3ssayyy>,.,r,O,,++,,;+,,+44;@;O",
" 3:dfaw>>$0OOOO@OOO,,.+@;6;;Ooo@ 3dssssgye<@@@@@@@@;&;@@;6;;Ooo.",
" 3hiafay>>>>$$$$$$$<<>>>>p%$X==@ :hgfjssaye>>>>>>>%%%>>>>p%$XXo.",
" 3:ihy31ee33333e3333yyyy33>>--=@ ::dsfgaay33333e3333yyyy33>>*=Oo",
" 33::3333333333e>eee3333ee>>>>$@ 3:3iii33333333e>eee3333ee>>>>$@",
"tkkkkkk         kkkkkkkkkkkkkkkk   tttttt      kkkkkkkkkkkkkkkkk",
" .XooooOO+@@@@#@$$$@#%XXXOOo&,&Ok>XooooOO+@@@@#@$$$@#%XXXOOo&,&.",
" OXXXXX=XX=********X*--:-%>*XX..k>XXXXX=XX=**********--:-%>*XX..",
" 1==XXX2@@O,OO9&O,@XX==*%>>31-=o >==XXX2@@oooo@o2@@@X==*->>31-$o",
" 5*X@OO;;6r98&q&,,O..OOo@$>>11-X 1*X@OO;;6&;&,;O;;O;@ooO;$>>11-o",
" :*X;,778&,,&&,,,,9,&,,OO@$>>3>< 3*X;,9;,,..,OOo@@@@@2XoO;$>>3>0",
" >>$@.&&,,O.,,OXO,,,,,,oOo@<%>%o 3>$@.OoooooooXXXXXXX==XooO<%>%o",
" w>%@O&8,ooO.OX==ooO,,,Ooo,.<%=X 3>%@OooXXX===*-=---==-==Xo;<%=o",
" w>%;O&,,OXoXX=*$XXOO,OOX,&,@$$@ 3>%;oooX=*-$$$$$$---===-Xo&@$$#",
" 3e%@,,&,OX===***XXoOOOoo,&9OX=o 3e%@OXo=*--=-X$X=X$X=XX=XO;.X=o",
" 33%@Oo,,OX*X=**X-=oOoXXo,96OXo# 33%@OXX*-==X$$--$=---X-=oO6&Xo0",
" 3y>+.O,,OXX.X===1=o====O&9+@$$o 3y>@OX==*=X==$$--$X--=$*o@;@$-o",
" 3y>.o&,OX=XXX==OX=*5-*X,,,.@$=$ 3y>@oX*-**XX*=$=$$=$$=-=X@.;$*=",
" 3y>4o,,o=*X<%**=X=11*o.,,,;;X== 3y>;oXX=--X<<-----==X*-=XO;;o*o",
" 3y>+O,,OX=XX****==u1*Xo.,+6;o*$ 3y>@OoXX*=o=X--$$=X$===*X;6;o*o",
" 33>,&,,OoXX=u**-***-*oOO,,4,o*= 33>.,.o=X=X*=--$$X$$$o==oO;,o*o",
" 33>+,,,,Oo=**=51***u=X=,,,9,@*= 33>+,,Oo=---------=-ooXXXO;,@*o",
" 33>O,,,,,o*-u5*=****Xo.,O&&9O*$ 33>o,,O=*-**--==--=**<X=oO6;@*o",
" 33>@O,,,,o=-5*=X*=**XoOO,&&9+*o 33>@O,OX=**--X$---=X$=$XoO,,@*o",
" 3y>0&,,,OoX===XXX=**=oO,.,9,O*@ 3y><,,OX*=$X=-==----*-=oO,,+@*o",
" 3y>#4,,OOO=XoooXX===XO.,,&&,,*o 3y><;,,o=**--====---X$XXO,,,.*o",
" 33><,,O,.,,,oOooooo=XoO,&rr,O== 33><,,OOOo***=----X$$$==o.,..=o",
" 3ye<#,,O,,,,OOOOOOO9OO,,&8&,O=$ 3ye<;oOO,.X$$=-X$X=$===oOOO.OX0",
" 3yw%#,&,,&,,.OO+OOOO,,,,&&,,O== 3yw%#,,,.,OoX-$$$--$$==OO.ooooo",
" 3yy>@9,&,&,,,O,,,OO,,,,,,&,,O== 3yy>@9,&,,OOO=*===$X==o...,.ooo",
" 3ywe<,,,,O,&,,&,,,,,.,,,,&94o== :ywe<.,,,O,,oXooXXXX==OO.,&4o=o",
" 3ya3>@,.,&&&,O&&&,&&888&&&9;@== 3ya3>@OO,,,,OOOOooooO.O.,,++@=o",
" 3ysa3>X@,.&8&,,&,,,&889999+;@=$ 3ysa3>X@..,&,O,,O..O,,++,,;;@=o",
" 3:dfaw>>@#.@@..+..&,;4@;;;.Oo=$ 3:dfaw>>$<@@@@@@@@&,+4@;6;;Oooo",
" 3hiafay>>>>>$>>>>>%<>%$$<<<X=*$ :hiafay>>>>>>>>>>>%%>>>>p%$X==o",
" ::ihy31ee3333><%>3>3y33%%%>--*$ ::ihy31ee33333e3333yyyy33>>--=o",
" :3333333333333>>eee3333>>e>>>$$ 3iyyyyyyyy33333333333333333e>>$",
"                              kk gsfjffffssssggggggggggggggggggg"
};
