/* XPM */
static char *tile0961740675773[] = {
/* columns rows colors chars-per-pixel */
"64 64 52 1 ",
"  c black",
". c #4F270F",
"X c #7F431F",
"o c #8F3707",
"O c #5B0B00",
"+ c #5B5F73",
"@ c #333343",
"# c #777B93",
"$ c #431F0B",
"% c #3B1B07",
"& c #331F00",
"* c #432B07",
"= c #2F2F2F",
"- c #331707",
"; c #373737",
": c #3F3F3F",
"> c gray28",
", c #271700",
"< c #272727",
"1 c #57576B",
"2 c #171B23",
"3 c #7F839B",
"4 c #6B3717",
"5 c gray12",
"6 c #632F13",
"7 c #9B3F0B",
"8 c #878BA3",
"9 c #4F5363",
"0 c #0B0B0F",
"q c #771F00",
"w c #5F6377",
"e c gray9",
"r c #13131B",
"t c #57230F",
"y c #390000",
"u c #7F2F07",
"i c gray31",
"p c #572B0F",
"a c #732700",
"s c #4F370B",
"d c #5F430F",
"f c #E30000",
"g c #671F00",
"h c #AB0000",
"j c gray39",
"k c #73778B",
"l c #874723",
"z c #730000",
"x c #733B1B",
"c c #87472B",
"v c #6F4F17",
"b c white",
/* pixels */
" .XoO+@#$%&$*$$*===$$%--$;;-;--:-->:$;*.;*,.*$*-,=,%-==<=123$4.5",
" 5677+@#$%%$%%$=,,,*$%--&*,,,$&--;*.*.;*>.<.&*=<====%%-%<+28,$$$",
" <.64+23$$%&&&%,,$$99$%---$--:;--$;$.***.*<<,%%%=>,5$%=$=+@80,5.",
" <<-qw23$$$&&&%$$$,==,$$-$--;$%*&-$..$$&$&-&*:.,,,,e=$&$<w@8r05.",
"t$<ryw23$&%&&<&$$$%,,%$$&;-----*$%%...&&$-,&:%=>,:,,<%%=%+@3-r<$",
"u.50 w@3;i>&--<$%%%%%%&&-$.;-%%$$%$...=*$%&&$%-,,--,e,,==+236-<<",
"u.5,5+@3<;,&%%-&%%%%%---;.$%--%$$$$*.***$>>&$,$&-%%,,,5,%+2376.<",
"t$$$51@#=:%&%&&*---%%,<%<..-%-$..****$*$$<<<*p&-&-%-,,,,,+23o765",
",5.4-10#=:*i>&=i;;<,-,&&$-=&,,-$...*%$$$$&=e.6&-&-$,--,-,+23aoX.",
" 5$46+0#5==;:;>=<i>%*%<-&=,,,,&$..s*$$*$$d&%*-&-&,--%-,<,+@3 afX",
"  &g6+2#,%===<=5,,,%.%>>;,5,,,&$$.*dds*$%s**=&$%,,,,&-,-%1@30 qh",
"0 0 -+@3%<,,<,,5<**:d:=55e*,5,&&$$s=<<$$&jw;$<,%%,,,,<,--+@k 0 a",
"a0 0 +@3,=%<%****%.;;<<55&,<<&-&%**<<&$$>;*6%-,-%%,%--,<>w@#a  0",
"7O0  +23,,,&<-**;..*=<=5,,e5<<$%%%--%-&>>=&:&&-&&&&$%%,,,+@#Xa  ",
"77y  123%$,;%&*$$*=$%<<;:%s,5-,,%%%---i>=<&::&&&%$$$%%%,-+@#oXq0",
"go7g5+28%%%;,%*.***=;<=<>=%%<*.*&&&$$&>=;;*<:<&%%-$$$%%&*+23gooq",
" qooO+@8$$$,,%sss*$55<<%=>>>,;$,&&$$$-,=;;=;>*%%%-<&&-%$*w23 g7o",
" 0qXlw@8pp$-%**s..*5,5=<=<=i,5=-,,$$%%,,;.*$:*$$$<<&-%%$*w23  y7",
"   ao+@3..$$,%$..ps,,,<==<:>-5*%,,$$$$&<<=;$:*$=;;&$%%&*.w@30 0O",
"0  0g+23$%$$$%..p6.**,==<.=:,<&%,,&$.*<==<:;$;*...***&<*.+@3 0 0",
"z  0 +23$xXX4$*.....*,5=;*>=<&&%%5<=p.>><;;;:$6p..*;;<=*.1@#g 0 ",
"fO00 +230%%.6X6..$.%$,e5=;<%&:-%%%p%p4ds;=;;=$.s.$6;;<;s.10#4g& ",
"f7O  +236$$.666$.$%$%%,,;%<<,,%%%%6$*;ss:;;;;$=$6;&&*.s:s+0#44$5",
"q7o$5+@3-.*....$$..%%%$,,e5e,,%%%%%%*s;:::;%,,%:%&*4X64ss+2#$4.5",
"0qoug1@3--.....%%$$%--s$$**&&,%%%*,%.s5==d,,%$$%%$p*.6646+@3,$$$",
"  g$,+@k%-%*p.$$%%%%---*$$$&-,,,%,*$...e,,%-.$$p...%$*6X4+@30,5.",
"  ,q,+@#$--*s6-%-$%%%,-$-&$$$-p%%%%$..*s&-&.*$$%*$*%%.6p.+23r05.",
"0   ,+@#0%-----%%$%p%,$%$-<$$$*%$p,$.**..pps.$$pp-,*$.66p123-r<$",
"0   ,+230..---%$p,,-,.-*&-<&$&&%%%p6$%*ss..p.%%%%-,**6pp.+286-<<",
"a 0 ,w23$pp$$%%%.p,%%,.p--;-*::&$xpp,$..p..p.%,%%-%%*4.4s+@876.<",
"hq 0,w23&*$$.$4..$,-*%>6%-$$&<<&6*6p%6p.......%,%--.pp%.sw@8o765",
"Xfa ,w@3&&$$6<p.$p$,,.6.6&*%$&&$*****x$....$..%,-%%-%%%6p+@3aoX.",
".Xoa,+@3&-%,,<,$$$%%%,-4....%%p$$*;*$;.$p%$$..%,%%p$*$.%6+23 afX",
"567o,1@#&&&&,,,%*%..*%*,=i..$%%%$6*;$$;6%...p.$%%%%*sd&-%+23, qh",
"<.67,10#&>>-%&<**.p.**s64Xp.%%-&$*&;$$;%*p6pp..$$p%*>:<*%+23,0 a",
"<<-6,+0#<<<&%&&%$..pp.s.6p.%*&-&&$%*.4$$$pp6p..$$.p,=:<&%+230  0",
"$<r-,+2#0,,&&&;%$.p.66d*ss..<&%&&$=;s4*$$*sp66p.$.%%,<=$$+@30  0",
".50r,+@3,,,&i>9>*.p6c9>:%pp;=<=&$%;>;*=..*..66p$..$x6;**.1@30,  ",
".5,0,+@3-,->===<*..p*;=s.ps<,%<%%=,,=$sss...p66..p$$=;*$$+@k0g  ",
"$$$,,+23-5<<<==<%**.=;%pps=<%%*%%***%.64ss..64666px$<:*$%+@#uoq0",
"5.4$,123&===<;5**%.s:=446s;;=$%*%$**.=$%6....p466p%-*6*&-+@#$o7q",
"5$44,+28&&e5==,****.4466p.*=<%%*$%*$%:sid....*pp4%pp-<<&%+23 O7f",
" &g4,+@8$&$.=;***.*66*x*v.=;5$$$%=$$$>;=;s.**.*p%%p%-&;&*w2300Of",
" 0 g6+@#p.<,===*%....px6..s,,$$%,,$$*>=;;;%*$*%%4p%%%-<-*w230  z",
"0 0 -+@#.;*%e==$p%.p...6p..p.$$$$$$$$i=<<=*$$dd;4p%%%%--*w@30  0",
"O0 0 +23$*.*,<<&*%pp$-.6..%.$$$$%$$$d==;;5$$i>;dp4%%%%-<:+@3a   ",
"7y   w23;6$.*,,*&$$p--$.6%,6%.%%&&&i>=<==,$*;;5-,p%p%p,;,1@#Xq0 ",
"o7g  w23...**$%$$$$%6%$.$%.$%$$&%>i><====,$$,e,pp4..%%p,*10#ooq ",
"qoog5w@3.6$.$$%$66$%,p%..%$p$&%$9d<::<=<=,$$$.p.$6&&%$$$%+0#g7og",
"0qXoO+@3.6.&..%*$$x%%%$$6%6%%%$<i:<<:=<<=,$$$..$&&*$%$6$%+2# y77",
"  aXl1@#4.6.-%$*$*$%%%$%%.6%%6$9:<:<==<=5,&$$$$$*&%$$&<6%+@3 0O7",
"0  ao10#4d6$$$$$..$%%%,,$.%%%p--:&<<<==e,,%%&$$$&&%$$&$$%+@30 0a",
"a 0  +0#4d46*6%,%,--,%,%%%$%%$*-&<<==<e,,%&&&;$%&&%*>i>$6+23 0 0",
"hq 00+2#6d4d.$,%%,-,,%%,$.$$$dd;<:<<:<,,%&,,-.$&%<&=5<>&*123g&  ",
"Xfa 0+@3.464$$$p$,,;i$%>>:*dd<5<=:6<<,,%%,%-%*%&<.&:,<=>*+284$5 ",
".Xoa0+@3466.$.-.%<<<,-.d<=<<=====<<<e,,,,&,--s%$$;$%,e=>*+@84.5,",
"567oO+2366.$%$%<***,,,,;<=<<<<=====<,,,&,,,,$-$$=%%%&e<>dw@80$$t",
"<.6771236p.$%%$.$;=<%<<$<,,555<====<,,&&-%%--$.$$%-,5&==i+@3,5.u",
"<<-64+286x$s&,$.%5$$<<*65,&50,,555<<,&$$$%%-:.$%$%$%-$:<;+2305.u",
"$<r-q+@8vx>$$=-=-<=:*<%<<$,=%-%-5,=,&&$$$$%$$-.%%%;-,.;;$+23r<$t",
".50ryw@8cvc=***,==<*=.,,,<-=*%;;5e5%$$$%%$-$.;$;$-<$;$:$;+23-<< ",
".5,0 +@3>;;**;*;=<<<<&,,,,<,*.<-p.$$.p*$&:$.$;$--%-%;.;;;+236.< ",
"$$$,5+23;;;=;;;;=*$*=*&==,<,-.<$-$<*..$$:-$$$-;;;%:;%.%;;+@3765 ",
"5.4$5+23***=;;====*$*$$$-*;--%*$;;$$*.$$-$$$$.$;-;:;%.;$;1@3oX. "
};
