/* XPM */
static char *tile0851740675773[] = {
/* columns rows colors chars-per-pixel */
"64 64 10 1 ",
"  c #070707",
". c gray6",
"X c #13131B",
"o c gray9",
"O c #0F0F13",
"+ c gray12",
"@ c black",
"# c #2F2F2F",
"$ c #1F1F27",
"% c white",
/* pixels */
"  ........X...................... ...             ........ .... ",
"  ......oo..............oo...................  .           ...  ",
" .  .OOXooOO.OO.OOOO...OooOO.OO.OOOO...OOoOO......     .   .... ",
" .O.OooooooOOOO...OO..OooooOOOO...OO..Oooooo.OO.           .... ",
" .XXooooooooooX..XoXXoooooooooX..XoXXooooooXXXX..............X. ",
" .XXoooo++ooooooooooooo++oooooXXooooooooo+oooXX............XoX..",
" .XXXoo@@o+oo@@oo++@@++++@@ooOo@@+++o@@++++@@OoO.@@.. O@@..XoX. ",
" .O.ooo@@++oo@@oooo@@++++@@oooO@@ooo+@@++#+@@ooO.@@....@@..ooX..",
" .OOooo+##++o+o+++ooo+++##++o+o+++ooo++++#+ooooOO.........XooX..",
" .oOoo++##@@oo++@@+oo+@@###+@@+++o@@o+++@@+ooo@@O...@@OOO.XXoX..",
" .oooo++++@@oo++@@+oo+@@++#+@@++++@@o+++@@+ooo@@OOO.@@OOOXXooX. ",
" .oOoo++++#+o++++++o++++#+++o++++++++++++#++ooooOO.o..OOOXXoooX ",
" .OOo++@@o+oo@@oo++@@++++@@ooOo@@+++o@@++++@@OoO.@@.. O@@XXoooX.",
" .oOo++@@++oo@@oooo@@++++@@oooO@@ooo+@@++#+@@ooO.@@....@@XooooX.",
" .oOo+++##++o+o+++ooo+++##++o+o+++ooo++++#+ooooOO........XooooX.",
" .ooo+++##@@oo++@@+oo+@@###+@@+++o@@o+++@@+ooo@@O...@@OOOXoooX..",
" .Ooo+++++@@oo++@@+oo+@@++#+@@++++@@o+++@@+ooo@@OOO.@@OOOXooooX ",
".ooo++++###+oo+++++++##+###++++++++++##++##++oooooXXXXooooo+ooX.",
".oooo++@@o+oo@@oo++@@++++@@ooOo@@+++o@@++++@@OoO.@@.. O@@Xo++oX ",
".ooO+++@@++oo@@oooo@@++++@@oooO@@ooo+@@++#+@@ooO.@@....@@Xo++o. ",
".ooo++++##++o+o+++ooo+++##++o+o+++ooo++++#+ooooOO........Xo++o. ",
".ooo++++##@@oo++@@+oo+@@###+@@+++o@@o+++@@+ooo@@O...@@OOOoo++oX.",
".Xoo++++++@@oo++@@+oo+@@++#+@@++++@@o+++@@+ooo@@OOO.@@OOOooo+oX.",
".oo+++++++++oooo++++++#+++++oooooo+++++++#++ooooooooooXXooo++oX.",
".o+++++@@o+oo@@oo++@@++++@@ooOo@@+++o@@++++@@OoO.@@.. O@@oo++oX ",
".o+++#+@@++oo@@oooo@@++++@@oooO@@ooo+@@++#+@@ooO.@@....@@oo+#+X.",
".o+++##+##++o+o+++ooo+++##++o+o+++ooo++++#+ooooOO........oo+#+X.",
".o+++##+##@@oo++@@+oo+@@###+@@+++o@@o+++@@+ooo@@O...@@OOOo++#+o.",
".o+++#++++@@oo++@@+oo+@@++#+@@++++@@o+++@@+ooo@@OOO.@@OOOo++#+o.",
".o++++++###++ooo+++++#++#+++oo+ooo+++#+++++++oo+ooXo++++ooo##+o.",
".o+++++@@o+oo@@oo++@@++++@@ooOo@@+++o@@++++@@OoO.@@.. O@@oo+#+o ",
".o+++++@@++oo@@oooo@@++++@@oooO@@ooo+@@++#+@@ooO.@@....@@oo+++o.",
".o+oo+++##++o+o+++ooo+++##++o+o+++ooo++++#+ooooOO........oo+#+o.",
".o+oo+++##@@oo++@@+oo+@@###+@@+++o@@o+++@@+ooo@@O...@@OOOoo+#oX.",
".o+oo+++++@@oo++@@+oo+@@++#+@@++++@@o+++@@+ooo@@OOO.@@OOOooo+o..",
" oooo++++#++oo++oo+++o+++#++oo++oo+++o+++####+++#++o+$oXXoo++o. ",
".oooo+o@@o+oo@@oo++@@++++@@ooOo@@+++o@@++++@@OoO.@@.. O@@oo++oX.",
"..oooo+@@++oo@@oooo@@++++@@oooO@@ooo+@@++#+@@ooO.@@....@@oo++oX ",
"..oooo++##++o+o+++ooo+++##++o+o+++ooo++++#+ooooOO........Xo++o. ",
".oooo+++##@@oo++@@+oo+@@###+@@+++o@@o+++@@+ooo@@O...@@OOOXoo+o. ",
".Xooo+++++@@oo++@@+oo+@@++#+@@++++@@o+++@@+ooo@@OOO.@@OOOXoooo..",
".Xoooo+++++++++oooooo++++++++++oooooo++++++++++++++ooooXXXXooX. ",
".Xoooo+@@o+oo@@oo++@@++++@@ooOo@@+++o@@++++@@OoO.@@.. O@@XooooX.",
".o+oo++@@++oo@@oooo@@++++@@oooO@@ooo+@@++#+@@ooO.@@....@@Xo++oX ",
".oooo+++##++o+o+++ooo+++##++o+o+++ooo++++#+ooooOO........Xo++oX.",
".o+oo+++##@@oo++@@+oo+@@###+@@+++o@@o+++@@+ooo@@O...@@OOOXo++oX.",
".ooo++++++@@oo++@@+oo+@@++#+@@++++@@o+++@@+ooo@@OOO.@@OOOXo++oX.",
".oooo++#+##++++ooo+++++++##++++ooo+++++++#+o+oo++++ooo+oXXo++oX.",
".oooo++@@o+oo@@oo++@@++++@@ooOo@@+++o@@++++@@OoO.@@.. O@@Xo++oX.",
".oooo++@@++oo@@oooo@@++++@@oooO@@ooo+@@++#+@@ooO.@@....@@Xo++oX ",
".oooo+o+##++o+o+++ooo+++##++o+o+++ooo++++#+ooooOO........Xo++oX.",
" oooooo+##@@oo++@@+oo+@@###+@@+++o@@o+++@@+ooo@@O...@@OOOXo++oX ",
".oooooo+++@@oo++@@+oo+@@++#+@@++++@@o+++@@+ooo@@OOO.@@OOOXo++oX.",
" oooooo++o++++o+oo++oooX+o++++o+oo++oooXX#+oooo+ooooOXoo.Xo++oX.",
" oooooo@@o+oo@@oo++@@++++@@ooOo@@+++o@@++++@@OoO.@@.. O@@Xo+ooX ",
" .ooooo@@++oo@@oooo@@++++@@oooO@@ooo+@@++#+@@ooO.@@....@@Xo++oX ",
" .ooOoo+##++o+o+++ooo+++##++o+o+++ooo++++#+ooooOO........Xo+oo. ",
" .Ooooo+##@@oo++@@+oo+@@###+@@+++o@@o+++@@+ooo@@O...@@OOOXo++o. ",
" .XooXo+++@@oo++@@+oo+@@++#+@@++++@@o+++@@+ooo@@OOO.@@OOOXoooo. ",
" .XooXXooooXXoXooXooXXoooooXXoXooXooXXoooooXXXX...........oooX. ",
" .XXXXXooooXXoXooXooXXoooooXXoXooXooXXoooooXXXX...........XooX. ",
" .OOOOOOoOoOO.ooO.OO..OXoOoOO.ooO.OO..OXXooO.O... .........ooo. ",
"  ..................  ..............  ........   .    ......... ",
"                      .               .                         "
};
