/* XPM */
static char *xpm_[] = {
/* columns rows colors chars-per-pixel */
"64 64 46 1 ",
"  c #2F2F3B",
". c #333343",
"X c #272B37",
"o c #23232F",
"O c #1F1F27",
"+ c #434757",
"@ c #4B4B5F",
"# c #3F3F4F",
"$ c #373B4B",
"% c #4F5363",
"& c #57576B",
"* c #13131B",
"= c black",
"- c #0F0F13",
"; c #171B23",
": c #070707",
"> c #0B0B0F",
", c #5B5F73",
"< c #5F6377",
"1 c #676B7F",
"2 c gray9",
"3 c #6B6F87",
"4 c #73778B",
"5 c gray12",
"6 c #373737",
"7 c gray28",
"8 c #2F2F2F",
"9 c gray45",
"0 c #8B8B8B",
"q c gray64",
"w c #939393",
"e c #777B93",
"r c gray39",
"t c #3F3F3F",
"y c gray34",
"u c #A3C3FF",
"i c #DFE7FF",
"p c #7F839B",
"a c white",
"s c #C3D7FF",
"d c #878BA3",
"f c #838383",
"g c gray42",
"h c #8B8FA7",
"j c #979FB7",
"k c #9FA3BB",
/* pixels */
" .    XXXoXXXXXoooXXXXXX     . XXoooXoooooXXooXoooooXooooooOOOXo",
"X++@@@@+++@+#@@+++++++++@@@@@@@++$#$$++$$$++#+++$$$$+$$$$$$$...o",
"X+$ o.#+++@++@@+++++++++@@%%@@@++#+++++$+$++++++#$$$+$$$$$oOo.$O",
"X+ .@. $%%&%%&&%%%%%%%%%&&&&&&++++%%%%%%%%%&%%%%%%@@@@@+$o.+.o$O",
"X+o+ @o%o*====-;;;*-======:-- +#+$ --:======-;O;;-====*o+O+o+;$O",
"X+ .@. +@>==:Oooo-=====-;ooo; $+$$ OoXX;-=====-XoXo:==>#$o.+.o.O",
"X+$ oX$++@>*$$.;====-O..$+++  $$$.. $##$..O-====;$$$;>#$$$XOo.$O",
"X@+$$@@+@%% . -===> ..$#$ O>>O....O>*O.$$.  o>===-.$.@++#$$.$$.O",
" @@#o@%+%%%,o====;.$+#X>=====O.$. O=====* $...O====o%%&%+$$*$.$o",
" %%%-O%%%&&&%>=> .##o=====:-* $$$$ **:=====X$.$.>=>%&&&&%$>-+$$O",
" @@@==o%%&&&<,*$$+ ====:;.$ o.+##$$X$.X*====> #$$*%<,<&+$>==+$$O",
"X@@@==>.%&,<<11 $;===:o..$++.$++++$ ++$  O:===o$ ,1<<<+$2-==+$$O",
" +++=>O-.&,,<<11-===O$$$++.O-.@@%+.-;;$+#$$;===-,331<@$*;o>=#$$o",
"X@@@=o ;=X<<<11<1>>.$$+$o>>>>.&%%@.>>>>*.+$..>>%3311<$>=O.o=#$$O",
"X+@+-o$>==.1111133 .$$o>>>>--$&&&%$-->>>>*.+$ %13331$-==-$X-#$$o",
"o+%#OoO==>-+1<11144..;>>-O$@$+&,,&+ + *->>>o.,1313&+;;>==OXO#$.O",
"o+@+Oo===o;;$<111343->-o+%+$o+<<<<+o#++.*->>11<11&$-Xo.===oO#.$;",
"o+@+O-==;..*=.<<31313-.@+##.o+<111+o..$++.-,<<<<#$>=*$.O==-O#$.O",
"o+++;==>.. ===+1<13111.$$$$.o%3143%X... $$&<<<<<+*>==X$$>==;#..;",
"o+@+-==o.$>==;-+1111<<1.$$#.o@1143@X...  %&,&,%$oXo===$$ ==-#..O",
"o++@==-..X==OXoO+<<<<<,, $$ o%3133%X... &%&&,%$>*$$O==o+$-==$..o",
"o+++==o$$===.. *>+<<,,&&, $ o+<111+X.. %%+%&%#->>.+$:==#$o==$..o",
"X+++=>$$ ==O$$X>-;@,,&&&%%. o+<<<<+o. @$@+%+$oo->-++o==X+.>=# .o",
"o#++=*$$*=:.$$*>* ;$&&&%%&% +&1113<,$%@$++@$*o$o>> @$:=>+.*=$..o",
"o#+#=;$+==;$+ >-$$;-$%&%%@&11%%++++&1<+$@+.*; ++->*@+;==$$;=$ .o",
"o#+#=o#.== .+*>*%$X;-.%%@%1&@@@++++#+%<#@ *OX$#%O>>#+.==X$X=$. o",
"o#+#>o#O=:.$$>> %$$ O-.+%<%@$;===>5.+@%<@*;X$$$+$>> %$:=O#o>$ .O",
"X#+#-o+*=-.#o>-++$$$ ;-$1%@ =567765>.@+&+;X.$$$#%*>;%.*=-+o-$  o",
"X#+#*X+>=;.@;>*%+$$$$X;#<+$=890qq098>$$+< ..$$$$&;>;%.;=>+o*$  O",
"X+#+;X+==o$@>>;%$$$$$$ &&@;59w0000w985$+1...$$$#%;>>+. ==#o*+$Xo",
" +#++@%&&,<<1<,344eeeee+&@:7w097790w7>#+&&&<343<&+@@@$#$+#++$$$X",
" @#+$$#@%%&,,,<<1134433+@@=;88->>-77;=++@+%,131,%@#$. ....$+$$$o",
".@#+$++@%%&,<,<<1113333@++=5775--57r5=++@+%&<<<&%++.$ .$$$++#$# ",
"X%#%$++@%&&,<,%<<1<3333@++>#w097790w7>++@@+%&&&%+$$.....$+#@+$+X",
" +.$XXX   .....$$$$$$.#&+@o;9w0000w95o@+&.o.....  XooooooXX ..+X",
" @$+-;;;;;;;-8;;;;;;;-*%@+#>890qq098>#+@%*-;;;;;;;5-;;;;;;;-.$+X",
" @$%58555588576868688;O$@+% >;67765> %+@$6;88868887;8585555;+$+X",
" %+%676ttt778y777777768 %+@@$O>>>>O$@@+%.867777777y8tttt688o#++X",
" %+%677ttt778y7777777t8O$%@+@++++++@+@%$58t7777777y8tt7tt66O++@X",
" %@%677tt7776y7777777785X.%&&@@++@@&&%.65877777777y877t7t6to@@@X",
" @+%677777776y77777777788;X.%%@++@%%.6588t77777777y877777tto@@%X",
" @@&677777776y777777777tt855;o    o5588tt777777777y8777777to&%%X",
" %@,6777777769r7777777777tt85 #+++ 58tt7777777777yr67777777o,,&.",
"X%%,t7777777-6yry7y7777777775.+%@@$5777777777y7yry8*t777777o,&&.",
"X@%&t77777t877t8trry777777776$%&&&#t777777y7yrrt6t7755y7777o<,,.",
"X@%&t77778677yy7t67rrr7777776$&<<<+t77777yrrr76t7yyy7t5t777o<<&.",
"X@%&67y756yyrrrrr7t66yr777776#<111@t77y7yry66t7yryyyyy75677o<3<.",
"X+%&67687yrrrrrrrrry7667rr978+<141@87yrr76677rrrrryyyyy7t56o<3<.",
"X+&&686yyrrrrrrrrrrrry7t6yr78#<111@7yry6t7yrrrrrrrryyyyyyt5;<<1.",
"X+&&-tyrrrrrr99r9rrrrrry75885$&<<<+866t7yrrrr9rr9rrrrryyyyt;e41$",
"X+&<tyrrrr99999r9rrrrrryyy778$&&&&$7yyrrrrrrr9rr99rrrrryyy7X441.",
"o$&&tyrrrr999999999rrrrryyy78 %%@%.7yyrrrrrrr99999rrrrrryyyX433.",
"o#&<tyrrr99999999999rrrryyy78o++++.7yyrrrrrr99999999r9rrryyXe43.",
"o#%<trrr99999999999999rrrry76o#$$$X7yrrrrr9999999999999ryyy ee4.",
"o$&<trrr9uiiiiiiiiiiiiiu9yr76;$.$$o7yrr9uiiiiiiiiiiiiiu9ryy pe4.",
"o$&<7rr9uaaaaaaaaaaaaaaauyy78;.  $o7yrruaaaaaaaaaaaaaaauryy pp4.",
"o$&<7rr9saaaaaaaaaaaaaaasrr76;$$.$o7yrrsaaaaaaaaaaaaaaasryy dp4.",
"o$@<7rr9uaaaaaaaaaaaaaaaury76o$  .X7yrruaaaaaaaaaaaaaaaurry pe4.",
"o$%<7rrr9uiiiiiiiiiiiiiu9ry76o$ .$.7yrr9uiiiiiiiiiiiiiu9rry pe3.",
"o$@&7yr99999999999999999rry78X$..# 7yrrrr99999f99999r99rrry$p43.",
"o.$$.&&ggggphjjjjjkkhhhp&&&%+ +.$$##%&&epppjjjkjkkkkjdddp11<<13.",
"o$$$$#$$$$$$$$$$.$$$....      $..$$$#++++@@%@%%%%&&,,<<,,<<1113.",
"o$$$$$$$$$$$$$$$$$$.$....     $ $$$$#+++++@@@@%%%%&&,&<&,,<<1<3.",
"==============================================================>$"
};
