/* XPM */
static char *tile0881740675773[] = {
/* columns rows colors chars-per-pixel */
"64 64 43 1 ",
"  c #2F2F3B",
". c #1F1F27",
"X c #23232F",
"o c #272727",
"O c #272B37",
"+ c #333343",
"@ c #13131B",
"# c gray9",
"$ c #373B4B",
"% c #3F3F4F",
"& c #4B4B5F",
"* c #434757",
"= c #4F5363",
"- c #5B5F73",
"; c #57576B",
": c #5F6377",
"> c #676B7F",
", c gray28",
"< c #73778B",
"1 c gray45",
"2 c gray31",
"3 c #777B93",
"4 c #6B6F87",
"5 c #373737",
"6 c #838383",
"7 c #939393",
"8 c #9397AF",
"9 c #878BA3",
"0 c #7F839B",
"q c #9B9B9B",
"w c gray67",
"e c gray70",
"r c #B7BFD7",
"t c #BBBBBB",
"y c #C3C3C3",
"u c #B3B7CF",
"i c #ABB3CB",
"p c #A3ABC3",
"a c #979FB7",
"s c gray42",
"d c #8B8FA7",
"f c #9FA3BB",
"g c white",
/* pixels */
" .X.o.OoOXXXXXOXOXOO+OOOOO OOO O O OOOOO+O+++OOXOOOXXXOXOXXXX.XO",
" X.XoooOOXXXXOXOOOO+++OOO O OOO O O OOOO++++OOOOOOOXXOOOXOXXXX. ",
" .@@.#.#OX.@.@..OO......+O......+ ......++......OO......OX.@.@@.",
" o#.#...OX......OO......++......++......  ......OO......OO..@@@.",
" o.#....+X...... O......++......++......+ ......+O......OO...#..",
" O......+O......  ......++......++......++......++......OO......",
"+O......+O......+ ......++X.X.X.$+X.X.X.++......++......OO......",
" O......+ ......++.....X+%o...X.++.X....++......++......OO......",
" O...... O......++X.X.o.%$o.X.X.$+XXX.X.$+X...X.++..X... O......",
" O......  ......+$.XXoXo%%oXXXXX$$XXXXXX$$.X...X++.X.... +......",
" O......++..X.X.%+oXoXoo%%oXXXXX$$XXXXXX$$X.X.o.%+X.X...++......",
" O...... +...XXX$$XXoooo%%oXXXXX$$XXXXXX$$XXXXoo$%XX.... +.....o",
"+O....X.++X.X.XX%$oXoooo%%oXoXoX%$oXoXoX$$XXXXoo%$XXo.X.++......",
"  ......+$XXXXXX%$oooooo%%oooooo%%ooooXo$%XXXXoo%%XooXXX++......",
"+ ....X.$+XXXXXX%$oXoXoo%% ooooo%%oooooX%$oXoXoo%%oooXo.$+X....o",
"+ .....X$$XXXXXX%$oooooo%& ooooo%%oooooo%%oooooo%%oooXoX$$XX...o",
"% ..X.oX$$XXXXoX%$oooo o&& o ooo%%oooo o%%oooooo%%oooXoX$$X.X..o",
"%+.XXXoX$$XXXoXo%%ooooo && ooooo%%oooo o%%oooooo%%oooXoo$$XXXX.o",
"%+X.XXoX$$oXoXoo&%oo o  && ooooo&&  oooo%%oo o o&%oo ooX%%oXX.Xo",
"%+XXXXoX$$Xooooo%%o o   && ooooO&&  oooo%%o o   &&o oooo%%oXXXXo",
"*+XXXXoX%$oooooo&&      && oOo o*%  OoOo*%Oo o  &&   ooo%$oXoooo",
"*%oXXooo%%oooooo&&  oOoO*&+OO O *&  O OO**oo    &&   ooo%%oooooO",
"*%oXoooX%%oo o  &&OoOo O&&+O    && O O  && o    &&   o o%%oooXoo",
"*%oooooo%%o o   &&OOO   &=+     &&      &&      &&      %%oooooo",
"*%oooooo%% o    && O O  &=$ + + =&+ + + &&    + =&     o&%oooooo",
"%%oooooo%&ooo   &&      &-$+++++==++++++&=    ++== +    &&oooooo",
"%%oooo o&&ooO   -=+ ++++=-$+++++==++++++=&+ + $+-=  +   &% ooooo",
"%%oooo  &%oOO  +==++ +++=-$+++++==++++++==++ +$$== +    &&  oooO",
"%%oo o  &%OO  + =&++++++--%+++++;=++++++==+++ $$-=+++   && o ooo",
"%%oo    &&     +==+++$+$-:%+++++;;++++++==++++$$-=+$+   &&   ooO",
"%% o    &&    ++;=$+++%$::%+++++;;++++++;=++++$+;=+++   &&   o O",
"%%o     &&    ++==+$+%$%::%++++$;;++++++;;++++$$--+$++  &&    oO",
"%%      &&  + ++-=%$$$$%::%+$+$+-;$+$+%+;;++++%$:-+$+ + &&   o O",
"%&      &&  ++++-;+$$$$%::%$$$$$--$$$%++;;++++%%::+$++++&&      ",
"&%    + =&++++++:;++$+$%-:%%%%%%>>%%%%%%>:%%%%$+-:+$+++ =&     O",
"*&     +==++++++--+$++$$:-$%%%%%::%%%%%%::$$$$$$;:++++++==      ",
"&&    + ==++++++:-$+$+%$:-%$%%%%>:%%%%%%::%$$$$+;;+++++ =&+     ",
"&&   +++==++++++:-+$$%$%:>%%%%%%>>%%%%%%::$$$$$$--+$++++==      ",
"&&  + $+==++++++:;$$$$%$>>%%,%*%<>*%*%%%>:%$%$$$--++++++==+ +   ",
"&&   +$+==+%$%+$:-$%%$%%:>%,%%*,11,,%%%,::%%$$$$--+$++++=&++    ",
"&&  + $+=;%+%%$+:-%$%$%%>:%,,%*%>>,%%%%%>>%%%$%$:;$+++$+==+++   ",
"&&  ++++=;+%%%+$::$%$%%%:>,,,***<<******>>%%$$%%-;++++++==+++   ",
"&&  ++++=;%%%%%$:-%%%%%%>>,%,%,%11,%,%*%>>%%%%%%>-$+$+$+==+++   ",
"&& +++++=:%%%%$%--$%%%%%>>%,,,,*11,,,,**>>%%%%$$--$$++$$==++++  ",
"&&+ ++++-;%%%%%+>:%%%%%%1>*,*,*,<1*****,1>%%%$%$:-%$$+$+-=+++ + ",
"&&   +$+=-$++++$>:%%%%%%>1,*****<<******>>%%%%%$:>$$++++==++++  ",
"&*  + ++::%%%%%$>>%%,%,,<<****2*3<******<>%%%%%%>-$+++++-=+++ + ",
"&*   +++-:%%%%%%:>%%%,,*<<***22&<3*2****11%%%%%%:>$+++++==++++  ",
"&*    $+::%%%%%%>>%%,%*,<<2*2*2&3<&*222*<>*%%%%%>>$+++$+-=+++ + ",
"&&   +++::%%%%%%:>%%,,,*<<*2222&33&&****<<%%%%%%:>$$++++-;++++ +",
"&%%%*&==;;;;;;---:::--::>>11111111144>>>>>>::::::--;;=====&&&&=&",
"+++++%%%%%%%%%%**&&&&&===================&&&&&&&&&&*%%%%%%%%%%$$",
"OXXXXX+O+++++++O+++OOO++++++5+5++++++++++O+OOO+O+++OOOOOOOOOOOOO",
"  OO %%%%*&====-::>>441<3366778799770066<<>44:::---=&&&%%%%%+   ",
" OOO +%$&&==-::>><600977qqwweertyttuipwaq779066<>>:::==&%$%++++ ",
" OOO  +$$+++++%%%%&;==;;-:-s44>>4::44--:-;;;=&&%%%%%+%+$+++     ",
" OOO +$$%&&&-;:>><6077d8qwwweeytytyeeppqq8d77661>>:--&&&%$$+    ",
" OO  %%%**&&=-::>>466096dqqqwwwqwwfff88q66666<1>>::-=&&*%%$$    ",
" OOO++%%&%&&-=--::1<6606997978q7q8899990066661>::::&-&&%%$%++   ",
"   +++%**%%&==-::::6<66660977889d889990066<6<>::::-=&&&%%%$+    ",
"   O++%%*%&&=&--:::16<66060690d0d0d690066<<6<::::--&&&&%%+$+    ",
"  OO++%%%%%&==;;-::11666666669009960006666<61:::--=&&&%%%$++OOO ",
" XXO +++$$%%%*&&=;;--:>1111111<<<111111111----;;=&&%%%%$+  OOXXO",
"X@#....ooooOO +++$$%%%%,,,22222*22222222,,%%,%%%+++ oOoo......@X"
};
