/* XPM */
static char *xpm_[] = {
/* columns rows colors chars-per-pixel */
"64 64 27 1 ",
"  c #373737",
". c #2F2F2F",
"X c #272B37",
"o c #3F3F3F",
"O c gray12",
"+ c #272727",
"@ c #23232F",
"# c #171B23",
"$ c gray31",
"% c #0B0B0F",
"& c gray9",
"* c gray28",
"= c #13131B",
"- c gray6",
"; c #070707",
": c #0F0F13",
"> c #3F3F4F",
", c #2F2F3B",
"< c #333343",
"1 c #1F1F27",
"2 c black",
"3 c #373B4B",
"4 c gray34",
"5 c gray39",
"6 c #4B4B5F",
"7 c gray42",
"8 c white",
/* pixels */
" ....XX..X          ooXX... o X..OO++++++@....XX.XX.+@X...+.X+@ ",
"#$ %#o.&&o &#o.&#o #.$ ##*.=@$ ##*.=#*.== .-; .##o.==o.%:o.=;  #",
"#>,:#.O=&..&#.O=# .#. .#= O#. .#= O#+ .=%.O-;.O##.O=& O-;.O%%..#",
"@==++##++#O.X##+@#O. .O..OO. .O..OO..O#@#&=OO##..##+.<,,,,+#O&#.",
"##O##&=O==OO=::::::OOOOO@...OOOOOOOO..+#=%=1=OOOOO+++1OO@.O%%%&+",
"#$ ##&&#=22222222222222=... =222222= .+.=22222222222222=...O% .#",
"# .#+##+.22222222222222.... .222222.  ..+22222222222222.,,.O%..#",
"###+O#O+o3>>>,<,3o3>$$>>... $$>>>>>*  ..,<,,o>>>>>>><,o> 3..==&O",
"++#OOOOO.....@#O.@X. .....  o ..... o ..#&O##@..X,+O#OO#OOOO+O#+",
"+$ #=22=.$ &.$ O.$<1.$ O.$ . $ O.$ .o4 O+o,##* 1X$ #Oo O=22++$ #",
"+ .OO22.. O&.  ..<X1. .O. ..  .O. ..oo.O#.+#O .1X .#@ .OO22.. .#",
"O&#.O22>.OO .OO..O1. .O....oo.O....oo...+#&#OOOXXO1.X1O*O22>.O#O",
"+++.O22>  oo ......  ...  oooo... oooo .+++++..XXXXX... O22>..++",
"#* &=22> $ O >X& 4 O.4 O 4 Oo4 O 4 O 4 O+$ =@4 OX4 O.$ .O22>@* #",
"# .#O22>. OO.XO&. OO. OO. OOo OO. OO  O&+ O=+ OOX OO. ..O22>. .#",
"##&@O22>.&&..&& oOOooOO..OO oOO..OO  .O..&O+.OO .OO..OO.O22>.#&#",
"&&##O22>... ....    o .....ooo.... o o.....++.o....   ..O22>+##&",
"&o &=22>.$ &.4 O 5o.o5oO 5o.o5oO 5o.o5oO.5oO.5o+ 4 O.$ OO223@* =",
"&..&O22>. O&. .. o..oo.O.o..oo.O.o..oo.O.o.O.o.. 4 O. .OO22o. .=",
"###+=22>.&O .O...++ o+O..++oo+O..++o .+..OO..O.o.OO  ...O22>@###",
"##+.O22>.  ooo ..   oo....  o ....     ..+. ..o ..Oooo  O22>..+#",
"#* OO22> $ O*4 O.5oO 5oO.5o+o5oO.5o+ 5o+ 5o+.5oO.4 .*4o.O22>.$ #",
"# .&=22>. OO .OO.o.+ o.O.o.+ o.O.o.+ o.+ o.+.o.+ *O.  ..O22>@ .#",
"+##@@>6>.&&..OO..O+.o+O..+. o+O..+.  ++. +O .O+ .OO .OO..>6>@##+",
"###@.............   oo... oooo.. o*o   .oo  .. ..............@##",
"#* #.....7oO 5*=.5o.o5oO 5o.o5oO 5o.o5o+o7o+.5oO.4 O $ ......$ #",
"# O#.....o.O * O.o..oo.O o.+oo.O o.+o*.+*o.+.o.+. OO  .O..... O#",
"###@.@...#O  OO..+. o+O. ++ o+O. ++  .. o+. .OO..OOo ......@.###",
"OO+.OOOO..  ooo   * oo...   o ...  . oo o o .......oo  .OOOO..+O",
"#* O=22= $o.*5*O.5o+o5oO.5o+o5oO.5o+ 5o+o5o+.5oO.4 .*4o.=22+.$ #",
"# .&=22.  .. * O o.+oo.O.o.Ooo.O.o.O o.+oo.+.o.O. O.  ..O22.@ .#",
"+##@O22>.OO..OO  OO o+O..++.o+O..++. +O oO...O+  OO .OO.O22>.##+",
"###@O22>.......  .. oo...   o ...   o . o.o ..    ......O22>.@##",
"#* #O22> $ . 5*O 5o+o5oO.5o.o5oO.5o.o5o+o5o+.5oO 4 O $ .O22>.$ #",
"# O#,22>. .. * O o.+oo.O.o..oo.O.o..oo.+oo.+.o.O  OO  .OO22>. O#",
"###@>3>>.O.  OO  OO o+O..++oo+O..++oo+O o++ +OO. OOo ....>63.###",
"+++..@....  ooo  ...o ...  oo ...  oo ..o o +.... .oo  ....@..++",
"@$ O...  $ . 4 O.5o+o5oO.5o.o5oO.5o.o5oOo5o+.5oO.4 . $ .  ...$ #",
"# .#OO++. .O. OO o.O o.O.o..oo.O.o..oo.Ooo.++o.O. OO. .O.++OO .#",
"&==#++.. OO. .O  OO  +O..++ o+O..++ o+O.o++ .O+..OOo OO. ..++#=&",
"&&=&%%=O    ooo  ...o ...   o ...  o* ..o   +. ....oo   OO=:#&=&",
"&o.&%22,.$ O 4 O 5o+o5oO.5o.o5oO.5o.o5oOo5o++5oO.4 O $ O=22OO*.=",
"=.O&:22<@ .O. OO o.+ o.O.o.+oo.O.o.+oo.Ooo.++o.O. OO. .O=22+# O=",
"&==OO223.OO..OO  OO o.O..++oo.O..++oo++.o+O.+O+..OO..OO.O22<+&=&",
"##&OO22>..@@.... .. o ....  o ....  oo .  ..+.... .+O###:22,OO&#",
"#* #O22>.$ O.4 O 5o+o5oO.5oOo5oO.5oO 5o+o5o1+5oO.4 O.$ OO22>.$ #",
"+ .OO22>. .O. O.oo.Oo*.+.o.+o*.+.o.+ o..oo.O.o.O. OO. .OO22>. .#",
"+##.O22>.OO..OOooOO *.+ .O+ o.+ .O+  .+oo+O.+OO..OO..OO.O22>.O#+",
"+++.O22>.......oo . *o      oo  ... .  o  ..+...........O22>..++",
"#* OO22>.$ O.4 O 4 Oo4 O.4 Oo4 O.4 O 4 O 4 OO4 O.4 O.$ OO22>.$ #",
"# .&=22>+ .#. OO  OO* OO. O.o OO. O.o OOo OO+ OO. OO. .OO223@ .#",
"&=#+O22>.##..OO..OO  O...OOoo.. .OOoo.OooOO..OO..OO..OO.O223@##&",
"####=22>...........    ...  o* ..   o . o...............O22oO###",
"#* #=22>.$ O.$ O $ . $ O.$ . 4 O.$ . $ O $ O.$ O.$ O.$ 1122,O* #",
"&..#=223. .O. .O. .. o.O. .. o.O. ..  .O  .O@ .O. .O o.1O22,O .=",
"##&O#,<#+OO..O...OO. .....O.......O...O. OO.@OO..OO..OO.+<>,#&&#",
"++##OO##:OOOOOOOOOOOOOOO....OOOOOOOO. . OO=OOOOOOOOOO11=O&#OO##+",
"#* #####=22222222222222=....=222222=. +.=22222222222222%&####* #",
"# .####+.22222222222222......222222...+.X22222222222222+##### .#",
"####+@&+o>>>>>>>>3o>>>>>...@>>>>>>>3@.O+<<,<,>>>>>>>o,,,O##@+###",
"#####&O+++...@..+@.@..@@......@.......O+#O#+O.....+++OO#O##+####",
"#* ##o #O$ O.* ##* #.$ #@$ #.$ #@$ #.$ #&* &O$ O.$ ##* &#* ##$ #",
"+ .#O.O&# .#+ .&# .#+ .## O#+ .## O#+ .==.O=& .#+ .## .&# .## .#",
"+####=#&+##O+###&==####+####O##+####+##&&==&###++##&##=#+######+"
};
