/* XPM */
static char *tile0551740674605[] = {
/* columns rows colors chars-per-pixel */
"64 64 37 1 ",
"  c #272727",
". c #3F3F3F",
"X c #13131B",
"o c gray31",
"O c gray34",
"+ c #373737",
"@ c #2F2F2F",
"# c black",
"$ c gray28",
"% c #4F5363",
"& c #5F3B27",
"* c #3F3F4F",
"= c #4B2B17",
"- c gray12",
"; c #434757",
": c #57331F",
"> c #5B5F73",
", c gray6",
"< c gray42",
"1 c #6B6F87",
"2 c gray45",
"3 c gray9",
"4 c gray39",
"5 c #4B4B5F",
"6 c #43230F",
"7 c #57576B",
"8 c #5F6377",
"9 c #3B1B0B",
"0 c #676B7F",
"q c #333343",
"w c #2F2F3B",
"e c #331707",
"r c #3B1B07",
"t c #271700",
"y c #171B23",
"u c #0F0F13",
"i c white",
/* pixels */
" ...............X.........oOOOOOOOo..OOOoooo.ooo+OOOOOOOOOOOOOO.",
"     @...  ###  X @+@+@++++.......++++++++++++++X++###+.++++++++",
"   +...+.  ###  X +++++ ++..$oo%%o++++++++.@+.++X++###+++..+++++",
" +.++$.+.  ###  X $++++$.$%%%.+.$%o..+..+$$$++&+X++###+++.$+..++",
" @o..$..*@ ### @X+$++++.o%%%o$....$$....$$$$$+=+X++###..++$oo$++",
" @%oooo$.@ ###++-+.o+ ++.$$$$$$..$$...+.+$$$$.=+-++###...+ooo$++",
"@@;oo%O%$+@###++-++o+@@+...$$$$$oo$....++++$$.:+X++###+...oOO$++",
"@@.oO>>>o.@#,O..-++.++@%<<1122222222211<<%++... X  o,#+.ooOoO$++",
"@@+oo>>Ooo+34o@+X+oo+++%ooooooo555%%55ooo.@+..++,  +o,++o%O%%o++",
"@++.o>Ooo.+:o++-++.o+@ @+      @ @@@@@   @- +6+o+X  +o++57>>>o++",
"@@+.o%%Oo.+@++-+o+$.+  -XXXXXXXXXXXXXXXXX--+@$++O+X   @+o7>>>o++",
"@@+o77%Oo+@++X+O+.;;.   -  @    -    @@   6.***@+O+X  @+$5>>>$++",
"@+.O7>%o$+-+X+Oo.+++$.-   @@@++  @@++$$++$$$$;*@@+O+X  ++$7>7$+@",
"++o>8>o++ +X+o++.++.*+@   -@ @  @@++$..$$..$+++@@ +O+X @9+o%$+@@",
"++o>87.@- X+.+$.+++@@@@@@@+  @@   +++$$++$.+@@@@@  +o@X@++...@@@",
"++o>>5@,XX+o+.+$118><<<<0<0<<<<<0<<<00<<<<00000<<$  @.@,+.++.+@@",
"++o%%.6-X@oo+++755o$oooooooooooooooooooooooooooo..   @.X@+:o$+@ ",
"++oo.++.-+.++++@q@                              +@- +++-  :+.+  ",
"++.o$::.-@+++++ XXXXXXXXXXXXXXXXXXXXXXXXXXXXXXXXXX-+++@X@ +++   ",
"+++>$:6.-@.++++@@ X-X XX- X-----  @+       @++++..++.o@X@.:++@  ",
"@.$o.:=+X@+.+$.++   @*+@@@ --    @++++++..++.$.$.$..oo@X@++$.+  ",
" .+++==+X @+++..+-  w.*++@  --   @++@++$++.+++.+$$$$Oo X@  +$+  ",
" $+++@ @X @ ++6+ -----@ - @---   @@@ @++..+@@@@+@ +$oo X@9 .$+  ",
"-$++++@6X @@+@9+o%4>>>><<<>>4<<<<<<<<<<<000<000<<..+.. X@6=+.+  ",
"-$ @++=6X-  +=e+.$$$$$$ooo$;$oooooooooooooooooooo5+.+. X@e=@+@  ",
" $ @@+=6X- -@$9@+                                @ .++@X@@+@    ",
" $@+++@ X-  @@9 XXXXXXXXXXX3333XXXXXXXXXXXXXXXXXXX+++++X@++@  @ ",
" $++++++X  @+++  -+-- @ ---  ------   ++@@+@    ++++++@X@+++@@@ ",
"@o+++..+X  ++++*.**.$.$$++@@+@ @++...&6o%%%.+.++++.:++ X@++*@@@ ",
"@o+++$O@X- ++@+**$*;$$.+$+++++ ++.++.==.+.o$o4%o..o::++X@.+*@@@ ",
"@$+++oo@X-@++@e9+@@+++..+.+++@@+.+@..+++++++ =+@+.+==+.X@..;+@  ",
" $@+.o%@X-@+++@%<<<<88<0<11<<000000<<<<<<1<<<<<><.e6=++X@$$..@  ",
" $.+.oo@X3@++@ Oooooooooooooooooooooooooo555oooo$$e6=+@X@.$..@  ",
" $.+.o5@X- +@-@@                          @@@     ,r=+@-+.$$+@  ",
" $.+.oo+X-@+.@- XXXXXXXXXXXXXXXXXXXXXXXXXXXXXXXX3,t6=++-+.$.@@  ",
" $.++o$+X- $++@@    @@@@@@       @ -- @++@@@@@ @e +++++-++$+@@  ",
" $.++oo+X36.+++++6+++++++++++++++++@@++++++++@@+++.++++-@$..@@  ",
" $o..o$+3,6.+++ :+$@.+++.$$$..+++.+++@+++@ @@@@+.o.o..+-*$+$+@  ",
" $o$$o..X@+...+ e+ e++++.$$$$.@+++ @ -  @+   @@ @++oo.+-*o$$+@  ",
" $O..$..X .$.+ $000<<<<<<12222<<0<<>>>><<<<>4<>OO. $.+ X+.$+$   ",
" $O.+...--$.6@-%$$ooooooo5555oooooo$$$$ooooooo$..+-@++@X+.$+.   ",
" $o.+..$-,..++@@         @@@@                    @-@++@X++$.+   ",
"@oo....$X +.+@ X3,,XXXXXXXXXXXXXXXXXXXXXXXXXXXXXX- +++@y+.+.@   ",
"+o%ooo$$-  ...@@ -- --XuXX        --  --X    -X @ ++++@y+$..@@  ",
" o%$O%oo-@6.o.++ 99et ----@  +++++@@+++@@++++.++.oo.+++y+;$.+@  ",
" .o.Oo$o-@=+.$.@ r9e-    X @+++++++@@++@@+@-@@ +ooo:+++-+.;.+   ",
" +$.o$$o- ++o..@ -,,,  @++@++@@@@++  @  + --@@++.$$$+++-+.$+++  ",
" @oo%o$o  -=o.=6<<<<<0<<<<000<000<0<<<0888>><><.O$$o++@-+*;$.++ ",
"- oOoOoo-  +>.6=oooooooooooooooooooooooo;;$$$$.+q+..++ -+++$+++@",
"- .ooOoo@X@@$.:6e                               +o..+ @-@+..++@@",
" -@.ooo$.@-@++=6XXX3,,3,,3XXXXXXXXXXXXXXXXXXXXXXX@$.@@X+$$+++@@ ",
"  @+oo$$..@X@==:66669t9+ e++@  -- @ XXXXX---uXX@ +.+@X %+.+++   ",
" @++o$.$.+.@X@.+6===+$=66++.++@@ +++----     @@.++++X o$.++++@  ",
"++.....o. +.@X@+=+++++++@@+++++ - @@        - +..@ X o+++.++++  ",
"++$..+.o.  +.@X-6+++..++@@     ----        -X@+++ u o+++$$+.++  ",
"@+$..+.oo   +.@X @++$.@o<<<<<<<848<<<<<<<$  @@@@@u +@++$.$+++@  ",
" ++.$+$o.  #-+.@u ++@$+7oooooooooooooooo..-    @, +@-,+$.$++    ",
"  +.o+oo$+@##-++u +.@@+                  -X--   X.+@##++$.+@    ",
"- @.%%o$$++###  X @o +@XXXXXXXXXXXXXXXXXXXXXX  +X++###++++@     ",
"   .Oo..+ +###  X@@. +  ----------X------- - -++-++###.+@       ",
"  @+..+++  ###+@X@ @                      @ --++-++###$+        ",
"   +@+++@@ ###+@X@@@                     @@@ +++-++###.+        ",
"      @@   ### @X@                       @@@@+++-++###++        ",
"----------------u------------------------------ X    -  --------"
};
