/* XPM */
static char *tile0861740675773[] = {
/* columns rows colors chars-per-pixel */
"64 64 55 1 ",
"  c #838383",
". c #8B8B8B",
"X c gray39",
"o c gray34",
"O c #373737",
"+ c #2F2F2F",
"@ c #3F3F3F",
"# c gray31",
"$ c gray28",
"% c #3F3F4F",
"& c #4B4B5F",
"* c #676B7F",
"= c #4F5363",
"- c #6B6F87",
"; c #73778B",
": c #57576B",
"> c #5B5F73",
", c #5F6377",
"< c gray42",
"1 c #4F270F",
"2 c #671F00",
"3 c #431F0B",
"4 c #432B07",
"5 c #6B3717",
"6 c #6F331B",
"7 c #331F00",
"8 c #4F370B",
"9 c #3B1B07",
"0 c #57230F",
"q c #572B0F",
"w c #272727",
"e c #271700",
"r c gray12",
"t c #2F2F3B",
"y c #333343",
"u c #434757",
"i c #1F1F27",
"p c #13131B",
"a c gray9",
"s c #9B9B9B",
"d c #939393",
"f c #7B7B7B",
"g c gray45",
"h c #C3C3C3",
"j c #CBCBCB",
"k c #BBBBBB",
"l c gray89",
"z c gray86",
"x c gray70",
"c c gray6",
"v c gray67",
"b c #272B37",
"n c #0F0F13",
"m c #171B23",
"M c white",
/* pixels */
" ........   ....   ....      ...................................",
"XXXXXXXXXoXXXXXXoooXXXoooXoooXoXXXXXXXXXXXXXooXXoXXXXXXXXXXXXXXX",
"OOOOOOOOOOOOOOO+@o#ooooooooooooooXXoXooooXXoo#o$+OOOOOOOOOOOOOOO",
"%%%%%%@@%%@%%@@O&*=****--***---**;--*-;-;----:;&O%%%%@@%@%%@@%%@",
">====>=>=>=====@#*=********-*-;-*--;;---*-;--:-&%>>=>>>>>=>>=>>=",
">,>,==>>>>=====@&*:;-******-*-**--*-;*--***-*=*&@>=>>>===>>=,>>>",
"==>===>=>====#=@&*=-;-*************--*-*--*--:-&@,==>=>==>===>==",
"===,====>>>===$@&*=-;****<*-********-*-<*****=*&@>========>=>>=>",
">>>=>>==#=#==#=@&<:***-**-*-******<**<****-**=*&@>===#==#==>=>=>",
"==>>=>==$#====#@&<=*****-*--***<*****<***<<<<o*&@==$=#======#===",
"=#==>====#=====@#*o<*****;*-***<********<<***=*&@==#=#=#=$>=#=>#",
"#==>==>##==#===@&*o***-*<**<<*<*X****<*<*<***=*#@#=>=#=#====#>==",
"#==#=========##@&*o********<**oXX***<<Xo*<***=*&@#$=$=#==#===#==",
"#===#=======###@&*=<X<****X<*oXXoo<<<<***XXX*=*#@#=$#$=====#=$=#",
"#===#=##==##$==@#*o<X<**X<oo<<oXX<<*<X*X<XX**=*&@##=#=##$=#=###=",
"#=###=#===#=#X#@&X#X<****<oXooX<oXX<<*o<*X<<<#<#@$#=##==##$##=#$",
"#===$===#=#$##$@@Xo<<<o*oXXo::o<X<Xoo:oXXoXXX=o#@@@@@@@@@$#@o=##",
"122234O56121@$@7#XoX<<<<XXoXo::XXXoXoXoXXoXoo#<@7418444441331191",
"11100qqqqqq@##$7$X#Xo<XXXoXXXoXX:oXooo<XXX:XX&o$931144333394#193",
"1310000001q8O337%X#:XX:oo:X:oooXooXXXX<oXX:o:#X$7318$O4314@$O321",
"3331110032011337@o%=oXoooXo=Xo=ooXoXXooooXXoo#o@9118#@4139931119",
"3313913339911337%:%:#==:#oo:o:o==:::oXo:X:ooo&X@73@@$O3999339199",
"1333114311913399@#$::==:#::==:=o==X:X=:::o:oX#X$99333O3319993139",
"3323191wO1393999%#%:==o=:#::X:o=:o:Xo::oo:ooo&:$7333393339139393",
"+4#2311O$3999999@=%==#:==#oXoo::::o:XX:=o:=::%:%79993@4339939999",
"@+@813w@@933339e@=$==:#===ooX:==::o:oooo:=::=#:%93939wO399933399",
"$O+@133@399399e9@:&::==:==oX:oo:=o::Xo::o::==&:@9994w$@499333393",
"Ow+O193339399eee@#&:::#===:::=o==:o::#==:=:=:#=%99w+9w344O9933$3",
"w@99334@9999999e@:&:=:=:::###:#=:o:==##=:##=:%o%7+O3w$e@O94@93$9",
"wweeeerweerweeee@#&::==#==:##====::#:=#=###==&=@rwwrweeeeeerewwe",
"%#%%#%%#%%%%%%%%@:&:==:#=:::===::::##===###==%=%%@%%%#%#%%%%%%%%",
"wtttt@yyyyyttwyt@=##::#=o=o#:::##=#==####u#==$:@wty@ttyywtywytyt",
"riiiiiiiiiiiirii%=&:=o::==:=#====#:==#####=#=%=@ririiiiiiiiiiirw",
"papprppppaaaappa@=yyyyyyyyyyOOyOOOyyyOOOOOyOOy=%apapppppaappppap",
"iriiiiiiirririrr@=rpprpppprrrrrppppprprprrrrrr#%riirrirriirrriii",
"iiiiriiiiiriiiir@:iwwiiwwwwwwwwiiiiiiwwiwwwwww=@rirrrrriirrrriii",
"iiirriiirrriiiir%=##=#=##=###======##########==@rrrrrrrrrrrrriii",
"==========>====@&**************-*********-*****&@====>==========",
"sssssssssssssssssssssssssssssssdsssssssssssssssssssssssssssssssd",
" ffffffffffffffffffffffffffffffgffffffffffffffffffffffffff  fffg",
"hhhh#fffffff#hhhhhhh#fffffff#hhhhhhh#fffffff#hhhhhhh#fffffff#hhh",
"jjjhiXgfgfgXihjjjjjhiXgfgfgXihjjjjjhiXgfgfgXihjjjjjhiXgfgfgXihjj",
"kkkkwXgfgfgXwkkkkkkkwXgfgfgXwkkkkkkkwXgfgfgXwkkkkkkkwXgfgfgXwkkk",
"jhhkO@gfgfg@OkhhjhhkO@gfgfg@OkhhjhhkO@gfgfg@OkhhjhhkO@gfgfg@Okhh",
"dsdk@OXfgfXO@kdsdsdk@OXfgfXO@kdsdsdk@OXfgfXO@kdsdsdk@OXfgfXO@kds",
"lz.k#OXgfgXO#k.zlz.k#OXgfgXO#k.zlz.k#OXgfgXO#k.zlz.k#OXgfgXO#k.z",
"jj.kX+X<f<X+Xk.jjj.kX+X<f<X+Xk.jjj.kX+X<f<X+Xk.jjj.kX+X<f<X+Xk.j",
"hh.xO+OO@OO+Ox.hhh.xO+OO@OO+Ox.hhh.xO+OO@OO+Ox.hhh.xO+OO@OO+Ox.h",
"XX#x#t#XXX#t#x#XXX#x#t#XXX#t#x#XXX#x#t#XXX#t#x#XXX#x#t#XXX#t#x#X",
"accx#+<fff<+#xccaccx#+<fff<+#xccaccx#+<fff<+#xccaccx#+<fff<+#xcc",
"waav<bOXXXOb<vpawaav<bOXXXOb<vpawaav<bOXXXOb<vpawaav<bOXXXOb<vpa",
"+aasXiOXXXOiXsaa+aasXiOXXXOiXsaa+aasXiOXXXOiXsaa+aasXiOXXXOiXsaa",
"#++d#pOXXXOp#d++#++d#pOXXXOp#d++#++d#pOXXXOp#d++#++d#pOXXXOp#d++",
"#O+.Xat#X#taX.+##O+.Xat#X#taX.+##O+.Xat#X#taX.+##O+.Xat#X#taX.+#",
"X#+.Xai###iaX.+#X#+.Xai###iaX.+#X#+.Xai###iaX.+#X#+.Xai###iaX.+#",
"X#+f<ia#@#ai<f+#X#+f<ia#@#ai<f+#X#+f<ia#@#ai<f+#X#+f<ia#@#ai<f+#",
"<#+fXwa@O@awXf+X<#+fXwa@O@awXf+X<#+fXwa@O@awXf+X<#+fXwa@O@awXf+X",
"gXO<Xwni#inwX<+XgXO<Xwni#inwX<+XgXO<Xwni#inwX<+XgXO<Xwni#inwX<+X",
"gX+XXicnwnciXX+XgX+XXicnwnciXX+XgX+XXicnwnciXX+XgX+XXicnwnciXX+X",
"f<OXXipninpiXXOff<OXXipninpiXXOff<OXXipninpiXXOff<OXXipninpiXXOf",
" fO#XwpaiapwX#+  fO#XwpaiapwX#+  fO#XwpaiapwX#+  fO#XwpaiapwX#+ ",
"f<++@mmnmnmm@+igf<++@mmnmnmm@+igf<++@mmnmnmm@+igf<++@mmnmnmm@+ig",
" giw+mmmmmmm++@  giw+mmmmmmm++@  giw+mmmmmmm++@  giw+mmmmmmm++@ ",
"ff@iwmmmmmmmww@fff@iwmmmmmmmww@fff@iwmmmmmmmww@fff@iwmmmmmmmww@f"
};
