/* XPM */
static char *tile0521740675925[] = {
/* columns rows colors chars-per-pixel */
"64 64 32 1 ",
"  c #070707",
". c gray9",
"X c #13131B",
"o c #1F1F27",
"O c #0F0F13",
"+ c #272727",
"@ c #171B23",
"# c gray12",
"$ c black",
"% c #2F2F2F",
"& c #0B0B0F",
"* c gray6",
"= c #1B0000",
"- c #270000",
"; c #333343",
": c #373737",
"> c gray39",
", c gray28",
"< c #3F3F4F",
"1 c #3F3F3F",
"2 c #434757",
"3 c #871F00",
"4 c #AF5700",
"5 c #D7A300",
"6 c #330000",
"7 c #430000",
"8 c #F7FF00",
"9 c white",
"0 c #271700",
"q c #3B0000",
"w c #4B4B5F",
"e c #331707",
/* pixels */
"  .XX.....o.XXX.......XX.X.X..... OOO             XX...... XXXO ",
"  ......++..OOOOOOO.OOO.++..OOOOOOO.OOO..OOOO  O           OOO  ",
" O  .@@#++@@.@@.@@@@O.O@++@@.@@.@@@@O.O@@+@@..OO.O$$$$$O$$ .O.O ",
" .@O@%++%%+@@@@O..@@..@+%%+@@@@O..@@..@+++++.@@O &$$$$$$$  .... ",
" .##+++%%%%+++#..o+oo+++%%%+++#..o+oo++++++o#o#...*******....#. ",
" .oo+++++++++o###oooooo+++++oo####oooo++++ooo###...........o+o..",
" .##$.&&&&&&&&&..&&&&&&&&&&&&&&&&&&&.&&..&&&&&&&....&&&... o+o. ",
" O@O.$$$#$$$$#$  $#$$$$#$$$ #&$= #$.&$#&&$$#$$$ o..&$#$  $.++o..",
" O@@.$&$+&$$$+&..&+&&&$+&&&&%#$-.+$##$+#.&$+$$&.;:%#$+&..&.++o..",
" O+@.$$$#$$$$#$$$$#$$$$+$$$&%#$-.+$..$+#&$$+$$&.;>,%$+&##..o+o..",
" O++.$$$#$$$$#$$$$#$$$$+$$$$+.$-.+$&.$+&$$$+$$&.;>,%$+$&&$&++o. ",
" O+@..+#<111111111<#+%%%%%%%%;%;;%%%%;;%%;%%%%%;:22:%%:::o.+%+# ",
" .@@.$$$1$$$$$$$$$1$$$$+$$$$+&$=&+$===%---=%$$$&;##.$+$..$&%%+o.",
" .+@.$&$1$$34543$$1$ &$+&&&=%$$-.+$67=%677-%=$&.;:%#$+&## &%%+o.",
" .+@.$&$1$$48984$$1$ &$+&&&=%$$-.+076=%--6-%0$&.;>,%$+&##&.%%+o.",
" .++.$&$1$$59995$$1$ &$+&&&=%.$-.+676=%---=%6$&.;>,%$+&##&.%+o..",
" .@+..+#1$$48984$$1#;%%%%%%%;:%;;%;;;;;;;;;;;%%;;:::%%%%:+.%%+o ",
".+++#$$$1$$34543$$1$$$$+$$$$%=$=&+====%====%=$$&;%%#$+$.. .%%%o.",
".+++. .$1$$$qqq$$$1$.o.;ooo.%#$=.+=--=%66-=%=$$&;+++$+$&. &%:%o ",
".+%@#$&$1$$$qqq$$$1$ &$%...&+.$-.+$--=%---=%$$.#;+%+.+.+# &%:+. ",
".+%+#$&$1$$34543$$1$$&$%...&+.$-.+$===%---=%$$$.;+##$+&.# &%:+. ",
".+%+#.+#1$$48984$$w##%%%%%%;;;%;;%%%%;;;;;%%%%%;:::%%%%;:+&%:%o.",
".o+%#$$$1$$59995$$1$$$$+$$$=%&$=&+$$$$+$$$$+$$$&;#.$$+$&.$&%:%o.",
".+%:#$$$1$$48984$$1$$$$+$$$=%#$-.+$$$$+$$$$+$$$.;%#.$+&.# &%:%o.",
".+::#$$$1$$34543$$1$ $$+&&&$%#$-.+$$$$+$$$$+$$$.;,+#$+&.# &%1%o ",
".+11#$&$1$$$$$$$$$1$ &$+&&&$%#$-.+$$$$+$$$$+$$$.;,%#$+&## &%,:o.",
".+11#.+#<111111111<#+%%%%%%%%;%;;%%%%%%%%%%%%%%;:2::%%%;:+.%,:o.",
".+1:#$$$#$$$$#$$$$#$$$$+$$$$+&$=$+$$$$+$$$$+$$$&;#.&$+$.. &%,:+.",
".+11#$$$+===$#$ ==#$$$$+000=+.$=$+$$$$+$$$$+$$&.;:#.$+&##&&%,:+.",
".+11#$$$%000$+$$==+$$$$+$00=%&$-.+$$$$+$$$$+$$$.;>%#$+&##&&,,:+.",
".+11#$$$+=00=+$$$=+$$$$+$$0=%&$-.+$$$$+$$$$+$$$.;>%#$+&##&.%,:+ ",
".+11#.+%%%%%%%%%%%%%%%%%%%%%%%%;;%%%%%%%%%%%%%%;:2<:%%%::+.%1:+.",
".+:+.$$$+$$$$+$$$$+$$$$+$$$$+$$=&+$$$$+$$$$+$$$&;##.$+$.. .%,:+.",
".+:%.$$$+$.&$+$$$$+$$$$+$&$$+$&-.+&&#.;#&$$+&$$.;:%#$+&##&.%,%o.",
".+:%..#=%=%+.+$&%#%&$&.;#%+&%&$-.+$+%#;%#$$%#$$.;>,%$+$& $&%1+..",
" +%%.&%=%e,>%+#%,%;%&$#<%>,#;..-.+$%%%<>%$$%+.$.;>,%$+$.. &%:+. ",
".+%%..1:;;22:%::2:::;%:::22:;;%;;%%::::2:%%%%;%;:22:%%%%%o&%1+o.",
"..%+.$#&+=##.+$.#.%##$.;###&+$$=&+$$.&;&$$$+$$$$;%%#$+$$& &%:%o ",
"..%+.$$$+$#&$+$$#$+&&$$+&&&$+$$-.+&$$$+&$$$+$$&#;,%#$+$&&&&%:+. ",
".+%%.$$$+$$$$+$$$$+$$$$+$$$$+$$-.+$$$$+$$$$+$$&#<,%.$+$&&$&%:+. ",
".o%%.$$$+$$$$+$$$$+$$$$+$$$$+$$-.+$$$$+$$$$+&&+#;%#$$+$&$$&+%+..",
".o++..+%%%%%%%%%%%%%%%%%%%%%%%%;;%%%%%%%%%%%%:::::;%%%%%%o&+%o. ",
".o++.$$$+$&$$+&&&$+$$$$+$&&$+$$=&+$$&$+$$$$+##.&;.$$$+$$&$&+%+#.",
".+:%.&#.;.#.&;##.&;#.. ;.#. +$$-.+&&##;%#..;%%#.;&$$$+$..&&%:%o ",
".%%%..%#<#%+.<##.&;###&<#:+&%&&-.+$&%%;>%#.;%%#&+$$$$+&.. &%:%o.",
".%:%..%%<%,%#<%%#.;%%%.<%,%#;.&-.+&.%%;,%#.;+# $+$$$$+&#.$&%:%o.",
".%%+#.1:::::::::::;:::::::::;;%;;%%;;:::::;;%%%%%%%%%%%:%#&%:%o.",
".+%+.$$$+$.$$+$$.$+.$$$+$$$$+$$=&+$$$$+$&$$+$$$$+$$$$+$.$$&%:%o.",
".+%+.$$$+$$$$+$$$$+$$$$+$$$$+$$-.+$$$$+$&$$+$$$$+$$$$+&#. &%:%o.",
".+%+.#%#;%%+#;%%%#;%%%#;+&$$+$$-.+$$$$;%%%#;%%%#;+%%#;%+%.&%:%o ",
".+%+.&##+#%&.;##%$;###.;%%#$+$$-.+$$$#<###.;###$;&#..%.&#&&%:%o.",
" +++..+:%%:%%%%%:%%%%%%%;:2:%%%;;%%%:::;%%%%%%%%%%:%%%%%%#&%:%o ",
".+++.$$$+$$$$+$$$$+$$$$+$&##%$$=&+$$%.+$$$$+$$$$+$$$$+$$$$&%:%o.",
" ++%..%#;%%+#;%%%#;%%%#%$..#;&$-.+$+%&+$$.#;%%%#;%%+#;%%%.&%:%o.",
" +++..##+#%&.;##%$;####<#$.#;.$-.+$%#$+$#,#;###.;#%&.;###.&%%%o ",
" .+%.$&#+&+&$+&&+$+&&&$;,..#%.$-.+$%#$+.,+$+&&&$+&+&$+&&&.&%:+o ",
" .++&.+%%%%%%%%%%%%%%%%%::%:;;%;;%%::%%%;%%%%%%%%%%%%%%%%#&%%+. ",
" .@+&$$$.$$$$.$$$$.$$$$.$$$$.$$=$.$&$$.$$$$.$$$$.$$$$.$$$$ %:+. ",
" .o+.$$$.$$$$.$$$$.$$$$.$$$$.$$= .$$$$.$$$$.$$$$.$$$$.$$$$$%%+. ",
" .o++;+++++o++++++%%+++++++o++++++++++++%%++oo+###.o##oo.#+%%o. ",
" O#oo#o++++oo+o++o++oo+++++oo+o++o++oo+++++o#oo...........o++o. ",
" O@@@@@@+@+@@.++@.@@.O@o+@+@@.++@.@@.O@oo++@.@..O&...O.....+++. ",
"  OOOOOO.O.OOO..OOOO  ...O.OOO..OOOO  .....OOO   O    OOOOO.... ",
"                      O               O                         "
};
