/* XPM */
static char *xpm_[] = {
/* columns rows colors chars-per-pixel */
"64 64 12 1 ",
"  c #5F6377",
". c #676B7F",
"X c #3F3F4F",
"o c black",
"O c #4F5363",
"+ c #57576B",
"@ c #4B4B5F",
"# c #1F1F27",
"$ c #373B4B",
"% c #5B5F73",
"& c #73778B",
"* c white",
/* pixels */
" .....XooooooooooooooooooooooooooooooooooooooooooooooooooX..... ",
".OO++.@#oooooooooooooooooooooooooooooooooooooooooooooooo#@.++OO.",
" OO++. @X$$$X$$$$$$XXX$$$$$$$$$$$$$$$$$$$$XXX$$$$$$X$$$X@ .++OO ",
".++++....   .. %%  ...       %    %       ...  %% ..   ....++++.",
" ++++.++O@OOO+O+%++++OO++++OOOOOOOOOO++++OO++++%+O+OOO@O++.++++ ",
" O+++.++OO++++O++++++++++O+OOOOOOOOOO+O++++++++++O++++OO++.+++O ",
" O+++.++OOO+O+++++%++++++++OOOOOOOOOO++++++++%+++++O+OOO++.+++O ",
" ++O+.++O+++O++++++++++++O+OOOO++OOOO+O++++++++++++O+++O++.+O++ ",
" OOO+.++O+++O+O+++++++++++++OOOOOOOO+++++++++++++O+O+++O++.+OOO ",
" O+++.     . . ............          ............ . .     .+++O ",
" O+++.O+OO++O+O+++++O+++OOO++++++++++OOO+++O+++++O+O++OO+O.+++O ",
" ++++ OOOO++O+++++OOOO+O@OOO++++++++OOO@O+OOOO+++++O++OOOO ++++ ",
" +++O.OOOOO+++++%+OOOO+OOOOO++++++++OOOOO+OOOO+%+++++OOOOO.O+++ ",
" OO+O OOOO++++++%++OOO++O@O++OOOOOO++O@O++OOO++%++++++OOOO O+OO ",
" O+++ +OOO++++++++OO@O++OOO++O++++O++OOO++O@OO++++++++OOO+ +++O ",
" ++++ .   ...&.... %%   %  .. &..& ..  %   %% ....&...   . ++++ ",
" O+++ +OO+++++++++O@@OOO@@O++O+OO+O++O@@OOO@@O+++++++++OO+ +++O ",
" @+++.+OO++++++O++OO@OOO@@O++++OO++++O@@OOO@OO++O++++++OO+.+++@ ",
" O+++.+OO++++++O++OO@OOO@@@OOOOOOOOOO@@@OOO@OO++O++++++OO+.+++O ",
" ++++ +OO++++++@OO@@@OOO@@@OOOOOOOOOO@@@OOO@@@OO@++++++OO+ ++++ ",
".O++O.+OO++++++@OO@@@OOO@@@OOOOOOOOOO@@@OOO@@@OO@++++++OO+.O++O.",
".++++..    %% %   %%%   %%%  %%%%%%  %%%   %%%   % %%    ..++++.",
".++++.+OO+++++++++O@@OOO@@O++O+OO+O++O@@OOO@@O+++++++++OO+.++++.",
".++++.+OO++++++O++OO@OOO@@O++++OO++++O@@OOO@OO++O++++++OO+.++++.",
".+++O +OO++++++O++OO@OOO@@@OOOOOOOOOO@@@OOO@OO++O++++++OO+ O+++.",
".+O+O +OO++++++@OO@@@OOO@@@OOOOOOOOOO@@@OOO@@@OO@++++++OO+ O+O+.",
" +O++ +OO++++++@OO@@@OOO@@@OOOOOOOOOO@@@OOO@@@OO@++++++OO+ ++O+ ",
".OO++ .. %   . ......  . .. %      % .. .  ...... .   % .. ++OO.",
" OO++.++O@OOO+O+%++++OO++++OOOOOOOOOO++++OO++++%+O+OOO@O++.++OO ",
" OO++.++OO++++O++++++++++O+OOOOOOOOOO+O++++++++++O++++OO++.++OO ",
" O++O.++OOO+O+++++%++++++++OOOOOOOOOO++++++++%+++++O+OOO++.O++O ",
" ++O+.++O+++O++++++++++++O+OOOO++OOOO+O++++++++++++O+++O++.+O++ ",
" OOO+ ++O+++O+O+++++++++++++OOOOOOOO+++++++++++++O+O+++O++ +OOO ",
" O+++ OOOOO+O+O++++++++++++OOOOOOOOOO++++++++++++O+O+OOOOO +++O ",
" O+++ O+OO++O+O+++++O+++OOO++++++++++OOO+++O+++++O+O++OO+O +++O ",
".++++ OOOO++O+++++OOOO+O@OOO++++++++OOO@O+OOOO+++++O++OOOO ++++.",
" ++++.OOOOO+++++%+OOOO+OOOOO++++++++OOOOO+OOOO+%+++++OOOOO.++++ ",
" O+++.    ......&..   .. % ..      .. % ..   ..&......    .+++O ",
" O+++.+OO+++++++++O@@OOO@@O++O+OO+O++O@@OOO@@O+++++++++OO+.+++O ",
".++++.+OO++++++O++OO@OOO@@O++++OO++++O@@OOO@OO++O++++++OO+.++++.",
" ++++.+OO++++++O++OO@OOO@@@OOOOOOOOOO@@@OOO@OO++O++++++OO+.++++ ",
" O+++.+OO++++++@OO@@@OOO@@@OOOOOOOOOO@@@OOO@@@OO@++++++OO+.+++O ",
" O+++.+OO++++++@OO@@@OOO@@@OOOOOOOOOO@@@OOO@@@OO@++++++OO+.+++O ",
".++++..    %% %   %%%   %%%  %%%%%%  %%%   %%%   % %%    ..++++.",
" ++++.+OO++++++@OO@@@OOO@@@OOOOOOOOOO@@@OOO@@@OO@++++++OO+.++++ ",
" OO+O.+OO++++++@OO@@@OOO@@@OOOOOOOOOO@@@OOO@@@OO@++++++OO+.O+OO ",
" @OOO +OO++++++O++OO@OOO@@@OOOOOOOOOO@@@OOO@OO++O++++++OO+ OOO@ ",
" @@OO +OO++++++O++OO@OOO@@O++++OO++++O@@OOO@OO++O++++++OO+ OO@@ ",
" @@OO +OO+++++++++O@@OOO@@O++O+OO+O++O@@OOO@@O+++++++++OO+ OO@@ ",
" @@OO .   ...&.... %%   %  .. &..& ..  %   %% ....&...   . OO@@ ",
" @@@O +OOO++++++++OO@O++OOO++O++++O++OOO++O@OO++++++++OOO+ O@@@ ",
"%@@@O OOOO++++++%++OOO++O@O++OOOOOO++O@O++OOO++%++++++OOOO O@@@%",
"%@@@@ OOOOO+++++%+OOOO+OOOOO++++++++OOOOO+OOOO+%+++++OOOOO @@@@%",
"%@@@@ OOOO++O+++++OOOO+O@OOO++++++++OOO@O+OOOO+++++O++OOOO @@@@%",
" @@@@ O+OO++O+O+++++O+++OOO++++++++++OOO+++O+++++O+O++OO+O @@@@ ",
".++++.     . . ............          ............ . .     .++++.",
".++++.++O+++O+O+++++++++++++OOOOOOOO+++++++++++++O+O+++O++.++++.",
".++++.++O+++O++++++++++++O+OOOO++OOOO+O++++++++++++O+++O++.++++.",
".++++.++OOO+O+++++%++++++++OOOOOOOOOO++++++++%+++++O+OOO++.++++.",
".++++.++OO++++O++++++++++O+OOOOOOOOOO+O++++++++++O++++OO++.++++.",
".++++.++O@OOO+O+%++++OO++++OOOOOOOOOO++++OO++++%+O+OOO@O++.++++.",
".++++....   .. %%  ...       %    %       ...  %% ..   ....++++.",
".++++. @X$$$X$$$$$$XXX$$$$$$$$$$$$$$$$$$$$XXX$$$$$$X$$$X@ .++++.",
"......@#oooooooooooooooooooooooooooooooooooooooooooooooo#@......"
};
