/* XPM */
static char *result[] = {
/* columns rows colors chars-per-pixel */
"64 64 39 1 ",
"  c #777B93",
". c #676B7F",
"X c #57576B",
"o c #5F6377",
"O c #4F5363",
"+ c #4B4B5F",
"@ c #434757",
"# c #373B4B",
"$ c gray42",
"% c gray34",
"& c gray31",
"* c #7F839B",
"= c #5B5F73",
"- c #73778B",
"; c #3F3F4F",
": c #2F2F3B",
"> c gray39",
", c #23232F",
"< c #1F1F27",
"1 c #878BA3",
"2 c #6B6F87",
"3 c #272B37",
"4 c gray9",
"5 c #3F3F3F",
"6 c #2F2F2F",
"7 c #373737",
"8 c #333343",
"9 c gray12",
"0 c #272727",
"q c #271700",
"w c #0B0B0B",
"e c #0F0F13",
"r c #331707",
"t c gray6",
"y c gray28",
"u c #272B27",
"i c #13131B",
"p c #171B23",
"a c white",
/* pixels */
" .XXoo...ooXO+@#$%%O&o...ooXO+@# .%&&&%%oooXO+@# .XXoo...ooXO+@#",
"O*=%&%---.oXO+;:O>&OX.---.oXO+#,O*=Xo.---.oXO+;<O*=Xo.---.oXO+;<",
"+. &%%*1*-2.X@34+.-&>-*1*-2.%;34+. o2-*1*22.X@34+. o2-*1*-2.X@34",
"+.o566:###:676:<+.&563:#7#:673:<+.o@:3:##78:#3:<+.o@:3:###8:#3:<",
"+..769<3<006666<+>%76<<69<0663:<+..;:<<3<9,3:3:<+..;:<<3<<,3:3:<",
"+..76qweewq5766<+%%76wqr4ww57::9+..;:wwwtqw@#::<+..;:wwwwww@#::<",
"O2.76q,3,:t5766<&y%7uq00u:w@#:30&2.#3w,:6:w@#:3<O2.;3w,:::wo#:3<",
"O-.79q:#:#w&0009yy&79quuu#w=,,0<y$.#9q67##wX000<O-.;<w:###w=,,0<",
"X-.#6t68:#w%6669%>%56qu067w=833<&>.#6q6###w&663<X-.;3w::##w=833<",
"X-.;,w:#8#w=6669%$%#0q6667wo833<&%>;0q:###w&666<X-.;,w::##wo833<",
"X-.;<t6#8#wo6669&2X79q6766wo:33<&%%7<t:#8#w&666<X-.7<w::8#wo:33<",
"X-.;3q6###wo,669&-o76t6767to,33<&%%76w:78#w&066<X-o76w::##wo,33<",
"X-.#9q6#8#w=#36<&->79t67#7qX#33<&%%79q:7:#w&766<X-o59w:3:#q&#33<",
"+-o79q6#8#wX:3:<5->79t3##7q&:36<5%%79q:76#w&666<+->59t:::7q&:3:<",
"X-%79q67##w=33:<&->79t3##7q&636<&%%79q:76#w%666<X->59t::68t&33:<",
"O-%79q67#8w=:3:<y-=79w38##q&66:<y%%69q:76#wO66:<O-%59q3:63w&63:<",
"O2%76q6##8t=#33<y2%76t::##t&763<+%%66q:766wO#33<O2%#6q,363w%733<",
"O.%70t3#8:qX:3,iy.=70t6::#t&660iO..70q:766wO:3,iO.%#0q,:6,wO63,i",
"O.%56w::#7q=:33<y>o76q66:#w&666<+..56q:#76w=633<O.%;6q,630t=633<",
"+.>59w6:77qX,3,i5%.7<q66:#wX,3,i&..;0w:#76wX06,i+.%;9q0:06q&03,i",
"+.o56t6877q=#3,45%o53q:7:#w=#3,45..@3w:#66w=#604y>.@6q0:6:q&73,4",
"+..@<q6877q=,30i+o%50t:7:#w=,30i5o.@<w:#6:w=,6045%.@9q,,6:t&060i",
"Oo.@6q6##6q=:33<O=%56w::6#w=:33<y%.@3w:#8#w=:369y5%@6q,:6:w&663<",
"Oo.@6r68#6qo#:3<OX%56w3:6#wo#:3<y&.@3w:#8#wo#:69y5%#6q,67:w=7:3<",
"+oo@0r68#6q=#3,i+X&5,w3::#w=#3,i5&=@,w:#:#w=#30455&50q,:66w=73,i",
"+oo@,r:8#:qo#3,i+%&5,w3::#wo#3,i5&%@,w:8:8wo#3,455&50q:6:6wo#3,i",
"Ooo@3q:##:to#3:<O%&;3w:::#wo#3:<y&&@3w,868wo#3:9y5&53q66:6wo#3:<",
"Oooy,q:##:to:3,<O&&y,w:::#wo:3,<y&&y,w,8::wo:3,<y5&7,t6686wo:3,<",
"O=o73q:8#8wo#33<O&Xy3w:8##wo#33<y&&53w,::6wo#33<yy&73t66:6to#33<",
"+=o;3q:##8w=:33<+&=@3w:#8#w=:33<5&&53w,8:6w=:33<&y&53t666:t=:63<",
"+Xo;3q:###wo#3:<y&o@3w:88#wo#3:<5&&53w,8#6wo#3:<yy&53t666:wo#6:<",
"+Xo@3q:###wo:33<y%o@3w::8#wo:33<5&&56w,:#6to:33<+y&53w6:76w=663<",
"+Xo@3q:#:#wo#3:<&%o@3w::8#wo#3:<&&&56w,:#6to#3:<+&&56w6:76wo#3:<",
"@Xo@3t:#:#wo#3:<5Xo@3w::88wo#3:<5&&56w38#7to#3:<@O&56w6:76to#3:<",
"@Xo;<w:#:7w=:33<;Xo;<w::88w=:33<5&&79t38#7t=:33<@X%7<w6877q=:63<",
"@Xo;,w:#:7wo#38<@Xo;,w:88:wo#38<;&&70t38#7qo#38<@X=70w6:67q%#68<",
"@Oo;,w:8:7t=:3#,@Oo;,w:#8:w=:3#,;y&70q3:86q=:3#,@Oo70w6#67q&66#,",
"@Oo@3w:::7qX#:#,@Oo@3w:##:w=#:#,;y&56q6:86q=#:#,@Oo56w6:77q&76#,",
"@+o;3w::87q&#::,@+o;3w:##:wo#::,@5&76q68#6qo#::,@+o#6w:677q&76:,",
"@+=;<w38#7q&333<@+=;<w:##:w=333<@5&79q0:#7q=333<@+=;0w:676q&663<",
"@+o;3w,##7q&633<@yo;3w:#8:w=:33<@5&76q06#7q=:33<@+o;6w:676q&663<",
"@+=;,w3##7q&663<@&=;,w:#8:w=:33<@5&70q06##q=:33<@+=;,w6676q&663<",
"@+=;<w3##7q&663<@+=;<w:#::wo:33<@5&79q06##qo:33<@+=;<q6676r&663<",
"@+=;3w:##6q&066<@+=;3w:#:#wo,33<@&&76q667#qo,33<@+=;3t6666q&063<",
"@+=;,w:886q&666<@yO;,w:#:#wo:33<@y&70q667#qo:33<@+=;,t66u6q&633<",
";@X;,w::86q&666<;;&#,w::8#w=333<;@&70q677#q=333<;@X;,t6uu6q&333<",
"@@X;,w::#6q&0669@5&#,w::##wo,33<@@%70q677#wo,33<@@X;,t6uu6w&,33<",
"@@X;<w:886q&6669;5&5<w::##w=333<@@O79q6777w=333<@@X;<t6uu7w&333<",
"@@X;,w,8#6q&766955&7,w::##w=#33<@@X#0q6777w=#33<@@X;,t6667w&#33<",
"@@X;<w,##6q&666975&79w::##w=:33<@@X;<q677#w=:33<@@X;<t6667t&:33<",
"@@X;,w,##6q&766975X50w:88#w=#3:<@@X;,t6:##w=#3:<@@X;,t6667t&#3:<",
";@X;<w,##7q%,66475O#9t:#3#w=,33i;@X;<w:8##w=,33i;@X;<w6767t&,33i",
"@;X;,w3887q=#30477%;0q:#3#w=#3,4@;X;,w38##w=#3,4@;X;,w676#t&#3,4",
";;X;<w3:::q=,30477&#<q6:8#w=,30i;;X;<w3###w=,30i;;X;<w67:#ty,30i",
";;X;,w::8#q=:36976y7,q6:##w=:3:<;;X;,w:###w=:3:<;;X;,w6#8#w&666<",
";;X@,w:8:#qO#3:976y5,q66##w=#3:<;;X@,w:8##t=#3:0;;X@,w6###t&766<",
";#X@,w:###q%#3,476y50q66##w=#3,i;#X@,w:8##t=#3,i;#X@,w6###t%760i",
"5#X@,w:###t&#3,476y50q677#wo#3,i5#X@,w::##to#3,i5#X@,w:##7t=760i",
";8Xy:wwwww4%73:96u&y6tqqtwiX#3:<;8Xy:wweww4X#3:<;8Xy:wwwwq4O66:<",
";8Xy:;;;@;+666,456&y:#77;#y8:3,i;8Xy:;;;@;O::3,i;8Xy:;;;@7&666,i",
";:X8::33#:#6666i#6&8::66#:7::3:i;:X8::33#:#6:3:i;:X8::33#u7666:i",
";:,p44e44eeep<3i#60p44444e4ep<3i;:,p44e44eeep<3i;:,p44e44444993i",
";<p444e444444p<i;<p444e444444p<i;<p444e444444p<i;<p444e4444449<i",
",4e444444444444i,4e444444444444i,4e444444444444i,4e444444444444e"
};
