/* XPM */
static char *xpm_[] = {
/* columns rows colors chars-per-pixel */
"64 64 35 1 ",
"  c #331707",
". c #3B1B07",
"X c #57230F",
"o c #4F270F",
"O c #271700",
"+ c #671F00",
"@ c #632F13",
"# c #6B3717",
"$ c #572B0F",
"% c #431F0B",
"& c #732700",
"* c #7F2F07",
"= c #771F00",
"- c #6F331B",
"; c #733B1B",
": c #7F431F",
"> c #874723",
", c #933F00",
"< c #934F2B",
"1 c #87472B",
"2 c #8F3707",
"3 c #B76B3F",
"4 c #9B3F0B",
"5 c #AB4B13",
"6 c #AF633B",
"7 c #A35B33",
"8 c #331F00",
"9 c #432B07",
"0 c #4F370B",
"q c #AB6300",
"w c #B75717",
"e c #5B0B00",
"r c #390000",
"t c #977737",
"y c white",
/* pixels */
" .Xo...... .. ...... .............   ......oX.......XX.. ..... O",
"O+X@XXXXX++++++++XXXoX++++XXXXXXXXXXX@@@@@##@@XXXXX@@@XXXXXX$X% ",
".&&*&&=&&&&&&&&&&&@@@&&&&&@@@&&&&&&@-;****:>,**=@@@***&&&=***&X.",
"X&*====**=&==**=&=<1****,**--***=**:2:22*2<34,******,**=*222**X.",
".@*=$===*===**===&***,,,,**-*-***,,222222<<34,=*22**-*2*22<22*X.",
".@:4*==&=&&&&=&&&&&@X@********@&*********,>>,*&&=*=@-****2222*X.",
".#<5,*&+XXX++XXXXXXoooX@@@@@@@XX&&@@@X@@&@@#@@X++XXX@@@@#2*22*X.",
".#25,*XOO OOOO                   .       .              $*222*X.",
".@,4,*X ..O..% ++ .%..%+$$$X**XXX*-$X+XX$$.%$$XX+X$$$X$X42244*@ ",
".@*43,X XO O+. - %4 O=.=-&&O,..%,O .. =.%%.O*,O   O* *.=42244,@.",
".X*,6>@ XO> +   +4% O$$O&- O=2O.*O7,  ,.,4*.2XO4, #2O*.&4,*24,#.",
".+=*4*X + ; .2. . . O=o O.OO&:#O%O2*O4,.++.., O2*X4=O2.&4,,,,,*.",
".X*47*XOo +. =* 4 .,O* %; ,O&*>O# 2 #44= O 2&O #.7, O4.=54,,,,*.",
".@-,2#XOoO.. &*O,* = &82=.&O=#8>4 *O52= O X4.+ &#2 X 4%=4,,,,*=.",
" X#--@X + +. =&.*4 =+ @=&*;.*+>4, XX4X&44 4* ,. :+. +2&=4*&&,*X.",
" X@&&@X .$&+-,,*,2*=+.+o+*;::*,,***=,,,,2*****2-***-*--&2$&+&=X.",
" +&=*#XO%$$&&-*****&&&9&00@;X,,,,********,,,,*;*,,=-o*-%2-2,**X.",
".+&*,@%O.  %+&O&.2=& +===&&; *,,2+*.+*O .*22+4=O$$ OOOO+2**,,*X ",
" %X$&&%O.O &&& &O2X% o...&=. +*,.&$+4*.54.,*.4oO.52*,;O&2--***X ",
".o@$&&%O%O %=+ $O*% O #5o%$8>O%o ,.#4=+4*+&+%,O  2+.++.&2*-***X ",
".X&--X+O$O O+ .= * O# 4,=O.>*OX * .4,=.,+..O,2 + =&++O,&2=****X ",
".X=&-X+ + #. %2=O. OO.*-%#7*= +#2 X4*= 52++O:& + 4**OX4&2==*,*@.",
" X**==+O+.2* 2&=.   O,X.+4*2*.$252.*+O+4*.=$OOXo&444.22&2***2*@.",
"X@*4,*X +-,2,>,*&&=&==****=****;2****=**===&&;;;,241*,*&2*,2,*@.",
"X#*42*@ $*,44*4,&&++&*X*&&=*=*=**,=======+=&@@**q,2,:,2&4,,,*@X ",
"X@**2*@ $.X%&@w2.O  =,O. .,, ==& +=== %2& *=$&&**4,*&+4=42,,-@o.",
"X@#,4*@ $$,2X54X+.2.*&O*-X22 .& O +& .44.  +    X4%=,$4&422*-$%.",
".X&**=X $$* ;4,.2.4 XXO%%-*& *.+*O + 442 2 &254,$X454o4&4*=&$X% ",
"XX&&&&X XX ...%+,.4% & ,4,;% ,4@=. % ,:% 5# Xo**+-4<;%4&2==o=Xo ",
".oX==&XO+o 24+O**.4&O#O  O . :<:  $..2  .44O %.+&+. ..4e2*$==@X ",
" %X+$&XO%+    .,2.*= $.$=*++o2*o%#=+=+O ++;+24&++.r44X+&4,*,*&X ",
" %X&#X+O+=-&&&*,,,,,&=****#-,*,2-#&+&===&$-&-**-#$$&++&&2,*2,=X.",
"Oo&--X+O%=*-&=&=,,,,****=**o**&*-*&&=====#&--**=X=@$++$+,,,,=&X.",
" o&**&+O....+ +..&::+O*==*&O&&**& *+.O..++.*,,**.+=+&*=e2=***&X.",
" X&**&X X.4 *+% O**%OO O&&O4O;,&..&*-+,O&&.+444&+++.&,,&2;*,,=X.",
".X=*=&X.$+2,o*.OO*$82O48O.4*.**%,+*2,.OO+&.O424%o%=w*&4=2*****X.",
".$***&X.$+,4o-&OO&O>@O:*O+*@XO+,X.,*+O8 ..o%.&%+o 424O2&2*****@.",
".#***&X.$X*42O*. O%*+O..O.&**O.4*+&+%44O*456$ ..;%.*&#w&2,**2*@.",
"X;,,2=X XX.    ..O:$=+242O&,*+.*1@++44&.*<11@&;O1*. +w*&2,,,2*@.",
"X*2,,=XOX*,,2=**,=$====#*22*,=+*,,&*,,&@@*;;;@@$*;@&*,*&4,,44*@.",
".*2:**XO9,442*;,4,=*,$#-*22,$2,==**,,,*@&@;;;,,,;*&*,,$&4,444*@.",
".#,2,*X %X++***;1*+*O+%**+*,&&*&=OO.*&*&&*24O*+**,@$++.&2,,,,*@.",
" @>55,@ $O4,.8@5&844OOO22*O,.O..O05.O=+ +,4.O&O.**&O&o+&2*****@.",
" X*<5*@ XO42%o4@842<O4O*22OOX-,,Ow2=O+=5&o#OO&+O&*.%4+.&2*==,*@.",
" X=*,*XO.O* @5o8*;&1 4,.=%2@ .&$.+,+. 5*,O84O8O+O*O>:+ e2*=&=&X.",
".X&&:*@ XOO.5@.-2XO*.42%O42+O$2,,.O.*++*+@>,O.44OO*4O+.&2&&==&X.",
".X=,;*@ XOOO.&+**&8.+,,2X,**X. .,,*$=*+ +.4*O42*,O45o+.%2*&&=&X.",
".X=***@ X&##=**,==***2,4,4,,22,*===$==*=*,,,$***#,422@+e2,===&X.",
".X&+$&X +=&&$&@+=$==$*22,4142,*&$==***-+.=,,4<,*=,,,*o$e2=***&+.",
".X&=*=XO.+.%=+O&&,&.$O.,,,1.,.+O8=.X--o+ =$,,*,*Oo=O&8O%2***=&X.",
".X&&**= X*&OOOO+.O$&O* ,+++.,+4>.&.&@$OOO. X5,&.O.4 OO;@2*==$XX.",
".X*2*,*.$,,2OO+44O*.-*O* OO+*.,*&O O&&O44*OOX*O.O.4OO@4X2=#$+$X.",
".X*22,*.$&=2O*.&,O+&4, ,$OO&*.2$,&O.X+O4%+&..;%,O #O842&2=&=$@@.",
".X*22,=.$*&.OOOOOO%4,*O.OOO+&.X&&*$O=XO* +&OOO .O &.**=&2=*==@@.",
" X**2*@ $**O..;*..+X==X&X++ **,,,+$**+X OO+ 2$**X & +&$+2=**=&X.",
".X*22*@ X&++=ee&&&&&eX==&e%%&&&&&++++e%+e=&+e%e&&%++++++*&==+Xo.",
".@*2,#-&42244244542422422225442222222*24444222>22**222224&&&++%.",
".@*2*$#***&-*$&&*,**=&=&**,,*,*=*=$&&&#-**====#&&+00**#$=0&=&+% ",
"o@*======&$-**#=*=&+..&=**,==,*=&=**;==#****-***=++====$&&&==+% ",
".X&&==#*;&$&*2,,:1,=$o+*,,*=$=*,*4,==$=*2222*222,==*==**&**2*&% ",
" +&=$==*****-*--&&;***=&*,1*===:t5*+o++$**222*#,,&=&+o$$=&&,2=X ",
" +&&&&&&====&@@XXX&==&&XX@#@&&&#>>-X+++&&&&&=@#**=&&X99+++X&&@o ",
" %XXX+++XXXXXXo%%%+XXX++%oXX+++X@#$%%++++++++XX@@@X+%%%%%%%++%.O",
"O..X........ ..  O ..O   ..     .   .......    ...  ..   .   O O"
};
