/* XPM */
static char *xpm_[] = {
/* columns rows colors chars-per-pixel */
"64 64 21 1 ",
"  c #331707",
". c gray12",
"X c #271700",
"o c #272727",
"O c black",
"+ c #431F0B",
"@ c gray9",
"# c #2F2F2F",
"$ c gray6",
"% c #070707",
"& c #373737",
"* c #3F3F3F",
"= c gray34",
"- c gray31",
"; c gray28",
": c #632F13",
"> c #171B23",
", c #572B0F",
"< c #23232F",
"1 c #4F270F",
"2 c white",
/* pixels */
" .X oOOOOOO+XXX.oo@o.OOOOOO#.$.oo@@o@OOOOOO+o@%Xoo@oXOOOOOO+.@.o",
" .XoXOOOOOO&@%@.o@$o@OOOOOOo.@.oX@%o.OOOOOO&XXXX.o@o.OOOOOO+.XXo",
"#XXo.OOOOOO&X%XoX@%o@OOOOOO+.@.oXXXooOOOOOO+@@oooXXoXOOOOOO*X@.o",
"XXXoXOOOOOO+@%$@%%%.@OOOOOO&.@@@XX@o.OOOOOO&o@@@XX@o.OOOOOO+.X@@",
"OO%oXOOOOOO&X%OOOO$.XOOOOOO+o$OOOO%ooOOOOOO+X%OOOO$.@OOOOOO&X$OO",
"OOOX@OOOOOO&.OOOOOOXoOOOOOO+@OOOOOO.XOOOOOO+XOOOOOOo@OOOOOO+@OOO",
"OOOo@OOOOOO+oOOOOOOooOOOOOO+@OOOOOO..OOOOOO+oOOOOOOX.OOOOOO+.OOO",
"OOOXoOOOOOO&.OOOOOOoXOOOOOO&@OOOOOO.XOOOOOO+XOOOOOOooOOOOOO+@OOO",
"OOOo.OOOOOO&.OOOOOOo@OOOOOO&XOOOOOOX.OOOOOO+oOOOOOOooOOOOOO+XOOO",
"OOOX.OOOOOO+XOOOOOOooOOOOOOo@OOOOOO.@OOOOOO+.OOOOOOoXOOOOOO&XOOO",
"OOOo.OOOOOO*XOOOOOOoXOOOOOO+XOOOOOO.oOOOOOO*.OOOOOOo.OOOOOO+@OOO",
"OOO...OOOO.+XOOOOOOoo.OOOO.&XOOOOOOoXXOOOOX&oOOOOOOoXoOOOO.+@OOO",
"OOOo.@o=- @+XOOOOOOXXX#;: X+@OOOOOO.XX#=-#$&.OOOOOOX.X#;:o@+XOOO",
"OOOo.@@o.XX&XOOOOOOXo%XXoXX+XOOOOOO>o@.oXX@&.OOOOOOo.@..o@$&XOOO",
"OOOX.@XooX@&.OOOOOOXXXXXo.$+@OOOOOOXXX.XooX+oOOOOOOoX@..oX%&@OOO",
"OOO X@..oX@&.OOOOOO @@XXXo$+XOOOOOOoX@.oXXX&.OOOOOOoXXX.X@%&@OOO",
"OOOo.$XX..X+.OOOOOO#.$XXoo$&oOOOOOOoXXX.oo@&oOOOOOOoo@oXXX%+XOOO",
"OOOo.%XoXX@&.OOOOOO X%XXXo$+XOOOOOOoX$X.ooX&oOOOOOOoo@oooX%+@OOO",
"OOOXX@oX.XX*XOOOOOOoX$oXoX@&XOOOOOOXX$ooXX@*XOOOOOO#o@XooX@&XOOO",
"OOOoXXXX%XX+XOOOOOOX.@o@..@&oOOOOOOX@$@%X@X oOOOOOO .X.X@@X+XOOO",
"OOOX.$OOOO@&XOOOOOOo.@OOOOX+XOOOOOOoX%OOOO%#oOOOOOO#.@OOOO%+oOOO",
"OOO XOOOOOO+XOOOOOOX.OOOOOO&oOOOOOOXXOOOOOO+oOOOOOO#XOOOOOO*.OOO",
"OOOoXOOOOOO*oOOOOOOo.OOOOOO&oOOOOOOXXOOOOOO+XOOOOOO#oOOOOOO*XOOO",
"OOOoXOOOOOO*XOOOOOOo.OOOOOO+oOOOOOOXXOOOOOO+oOOOOOO#XOOOOOO+.OOO",
"OOO oOOOOOO*.OOOOOO.XOOOOOO+oOOOOOOXXOOOOOO+oOOOOOO#oOOOOOO&oOOO",
"OOOooOOOOOO+.OOOOOOo@OOOOOO&XOOOOOOooOOOOOO+oOOOOOO oOOOOOO*.OOO",
"OOOX.OOOOOO&.OOOOOOXXOOOOOO&XOOOOOOX.OOOOOO&XOOOOOO oOOOOOO+.OOO",
"OO.#oOOOOOO+.XOOOOXo.OOOOOO&XXOOOOXo.OOOOOO&ooOOOO.#.OOOOOO+X.OO",
"=#X XOOOOOO*oX ::#@o.OOOOOO+X@ ,,#Xo.OOOOOO&o@<--#X#oOOOOOO&X@o1",
" XX XOOOOOO*X@.#X.@X@OOOOOO+oXX#ooXo>OOOOOO&>@X##X@ oOOOOOO*.@@o",
" .X .OOOOOO+X%.o.@%X@OOOOOO&o@o XoXooOOOOOOoo@o##.@#.OOOOOO+X@.o",
"#XX#XOOOOOO&X%ooX@%.@OOOOOO+X@X .X@oXOOOOOO#XX.# .@#.OOOOOO*.@.o",
"#X@ .OOOOOO&o%oXX@%X@OOOOOO&o@X#oX@o.OOOOOO+@@.X#.@#.OOOOOO+X@XX",
"#oX#.OOOOOO*X%@oo@%o@OOOOOO+XXX#oX@XoOOOOOO&XXX##o@ XOOOOOO*.X.o",
" X@ XOOOOOO&X%.XoX%.@OOOOOO&@X@ XXXXXOOOOOO+.@.##X@#.OOOOOO+X@.o",
"X.X XOOOOOO+X%@X$$%.@OOOOOO&o@.X%X@X.OOOOOO+oXo@..@#.OOOOOO+.@%@",
"OO%#XOOOOOO+o$OOOO$o@OOOOOO+o$OOOO$XoOOOOOO&o@OOOO@#.OOOOOO*.%OO",
"OOO oOOOOOO*oOOOOOOo@OOOOOO#@OOOOOOo.OOOOOO+.OOOOOOo.OOOOOO*XOOO",
"OOO#XOOOOOO+oOOOOOO.@OOOOOO#@OOOOOOo@OOOOOO&XOOOOOO#.OOOOOO&.OOO",
"OOOo.OOOOOO&XOOOOOOo@OOOOOO+.OOOOOOo@OOOOOO&.OOOOOO#.OOOOOO+oOOO",
"OOOo.OOOOOO&@OOOOOOoXOOOOOO+XOOOOOOXXOOOOOO+.OOOOOO oOOOOOO+.OOO",
"OOOo.OOOOOO+XOOOOOOo@OOOOOO&oOOOOOOX.OOOOOO&.OOOOOOXXOOOOOO*XOOO",
"OOOXXOOOOOO&@OOOOOOXXOOOOOO+.OOOOOO.XOOOOOO&oOOOOOO XOOOOOO+XOOO",
"OOOXX@OOOO@&XOOOOOO.@XOOOO.*XOOOOOO.XoOOOO@&.OOOOOO .XOOOO.+XOOO",
"OOOo.@X=:XX&@OOOOOOo@Xo:=#@&XOOOOOOXo@#;:X@&oOOOOOO .@#::#@+.OOO",
"OOOXX$XX.oX*XOOOOOOX@%..X.@+.OOOOOOoo@o..@%+oOOOOOO#XXXXX.X+XOOO",
"OOOX.%.o.X@*XOOOOOOX@%XX..X*XOOOOOOoX@ooXX$&XOOOOOO o$@oX.X+.OOO",
"OOO#.@X#XX@+.OOOOOOo@$.ooX@*XOOOOOOoXXXoX@$+.OOOOOO o@.XoXX*.OOO",
"OOO .@X oXX*XOOOOOO.X%X.o.@&.OOOOOOooXooXX$&.OOOOOO X@@XX.@+.OOO",
"OOO#XXX XXX+XOOOOOO.@%oXX.@*oOOOOOOoXXo.o@%+XOOOOOO.X%.oX.@*XOOO",
"OOOXXX.#XXX&XOOOOOOo@$oX#.@*XOOOOOOXXXXX.X%&@OOOOOO.X%@XXX$+@OOO",
"OOOo.%@X$X@+XOOOOOOo@%@XXX@*.OOOOOOXX@XX%$$&@OOOOOOXX%%@$%$&XOOO",
"OOO X%OOOO%+XOOOOOO.@%OOOO@*XOOOOOOoo%OOOO%&XOOOOOOX.%OOOO%*.OOO",
"OOO#.OOOOOO*.OOOOOOX%OOOOOO*oOOOOOO.@OOOOOO*@OOOOOOX@OOOOOO+.OOO",
"OOOo.OOOOOO+.OOOOOO@%OOOOOO*.OOOOOOo@OOOOOO+.OOOOOOXXOOOOOO*XOOO",
"OOOoXOOOOOO+XOOOOOOo@OOOOOO*.OOOOOOo@OOOOOO*@OOOOOOXXOOOOOO+.OOO",
"OOOXXOOOOOO+XOOOOOO.@OOOOOO*XOOOOOOo.OOOOOO*@OOOOOO.XOOOOOO+.OOO",
"OOO XOOOOOO+XOOOOOOXXOOOOOO*XOOOOOOX@OOOOOO*.OOOOOOX@OOOOOO&XOOO",
"OOO XOOOOOO&XOOOOOO.@OOOOOO+oOOOOOOX$OOOOOO*.OOOOOOX.OOOOOO+@OOO",
"OOX .OOOOOO+X@OOOOXo@OOOOOO*X.OOOO@.XOOOOOO*@@OOOOX..OOOOOO+XXOO",
"=#XXXOOOOOO+X@o--X@o@OOOOOO*X@#=: @.@OOOOOO&@@#=- XoXOOOOOO+@XX;",
"#X@ XOOOOOO+@%XX.@%o@OOOOOO&o@o#ooXooOOOOOO+@@.o..$oXOOOOOO+@@XX",
"&XXXXOOOOOO+@%@.X@%o@OOOOOO*XX.##o@#XOOOOOO*@$..oX@XXOOOOOO*X%.o",
"XX% XOOOOOO+XX.o.@%o.OOOOOO+o@. oX@XoOOOOOO @@.X#X@o.OOOOOO&.@Xo"
};
