/* XPM */
static char *result[] = {
/* columns rows colors chars-per-pixel */
"64 64 24 1 ",
"  c #373B4B",
". c #2F2F3B",
"X c #272B37",
"o c #23232F",
"O c #171B23",
"+ c #3F3F4F",
"@ c #1F1F27",
"# c #13131B",
"$ c #333343",
"% c #4F5363",
"& c #0F0F13",
"* c #434757",
"= c #4B4B5F",
"- c #57576B",
"; c #5F6377",
": c #6B6F87",
"> c #676B7F",
", c #73778B",
"< c #777B93",
"1 c #5B5F73",
"2 c #979FB7",
"3 c #7F839B",
"4 c #878BA3",
"5 c white",
/* pixels */
"         .........X              .   ...       .   XX         ..",
" .XooooooOOOOOOOOOOooooooooooOooooooOOOOooooOOOOoooOOooooo.+++..",
" X@OOOOOO##########OOOOOOOOO#OOOOOOO####OOOO#OOO#OOOOOOOOO@$++ .",
" oOOXXXXX@@@@@@@@@@XXXXXXXX@XXXXXXXX@@@@@@@@@XXXX@XXXXXXXXX$++% ",
" #&X$    .........X                 .........     X.       ++*% ",
" oOX     .........X                 ....      ++++  +.....   =% ",
" oOX     ..........      ++         ....    ..  ++ ++....    =% ",
".oOX     .......         ++XXX.XXXX.XXXXXXXXXX  ++ ++....    =% ",
".oOX   ...XXXXXX         ++XXXXX.XX.XX.XXXXXXX     ++....    =% ",
".oOX   .........         ++XXXXXXXX.XXXXXXXXXX     ++....    =% ",
".oOX  +         +        ++XXXXXXXXXXXXXXXXXXX       .. .    =% ",
".oOX   X........ .       ++XXXXXXXXXXXXXXXXXXX       .. .    *% ",
".oOX  +......... .       ++XXXXXXXXXXXXXXXXX..       . X.  ..+*.",
".O#@.. ......... .       ++XXXXXXXXXXX.XXXXX..       .  .  ..+*.",
".O#@.. ......... .....   ++XXXXXXXXXXX.XXXXXXX       .  .    *% ",
".O#@.. ......... .....   ++XXXXXXXXXXX.XXXXXXX       .  .    =% ",
".O#X.. ......... .....   ++..XXXXXXXXX XXXXXXX     + .       =% ",
".OOX.. ....XXXXX XX...    +XXXXXXXXXXX XXXX...     + .     . =% ",
".OOX.. ....X..XX .....    +XXXXX....XXXXXXX...  ++ ++        =% ",
".oOX.. .XXXX..XX .....    +XXXXX....XXXXXXX...  ++ ++        =% ",
" OOXX. .X..X.XXX  ....     XXXXXXX..XXXXXXXX..  ++ ++        =% ",
" oOX   .X..XXXXX  ..XXXXX +XXXXXXX..XXXXXXXX..     ++        =% ",
" oOX   .X.......  XXXXXXX +XXXXXXXXXXXX...XX..  ++ ++        =% ",
" oOX   .X.......  XXXX... +XXXXXXX...XX...XX..  ++ ++        =% ",
" oOX.  .X.......  XXXX... +XXXXXXX...XX...XX..  ++ ++        =% ",
".oOX.  XX.XXX...  XXXX...++XXXXXXX...XXX......  ++ ++        =% ",
" oOX     .XXX   +   .    ++XXXXXXX...XXXXXXX..++++ ++        =% ",
" oOX    .XXXX       .    ++XXXXXXX...XXXXXXX..++++ +         =% ",
".oOX    .XXXX       .    ++..........XXXXXXX..++++ +         =% ",
".oOX  +  ......          ++..........XXXXXXX..+++  +         =% ",
".oOX     ......          ++..........XXXXXXXXX     +         =- ",
".oOX     ....... .       ++..........XXXXXX...++++ +         =; ",
".oOX     ....... .       ++..........XXXXXX...++++ +         =; ",
".oOX     ....... .       ++..........XXXXXX...++++ +         =; ",
" oOX        .... .....     +++++++++++++++++++   * +         =; ",
" OOX        ....  ...X..X                         .          =; ",
" o#X        ....+ ...X...                     ... . ....     =; ",
" oO@        ....+ ...X....   ..........       .   . ....     =; ",
" oOX  +     .... ...X..      .++++++++ +          . ...      =; ",
" oOX  +       .. ...XXXXX    .+       .+XXX....   . ...  .   =; ",
" oOX  +       .. ...XXXXXX   . ........ XXX....              =: ",
" oOX          .. ...XXXXXX    ++++++++++XXX....              =: ",
" oOX           . ...XXXXXX............  XXXXX..              =: ",
" oOX           X XXXXXXXXX............  XXXXXXX  .....       %: ",
" oOX           X XXXXXXXXX.........        XXXX  ...X. .     %: ",
".O#@..+ .  XXXXX XXXXXXXXX...XXXXXX.       XXX.   .XX..      %: ",
".O#@XX  +++                    XXXX.       XX .XXX. XX       %: ",
".O#@XX  +++                    XXXX.      .X XXXXXXX X       -:X",
".O#@XX  +++                    XXXX.      ...XXXXXXX.        -> ",
".O#@XX    +                    XXXXXXX    X XXXXXXXXX        -> ",
".O#@XX    +                    XXXXXXX    . XXXXXXXXX       .-: ",
"XO#@XX                         XXXXXXX      XXXXXXXXX .    ..=,+",
"XO#@XX+ +++++++ +   ......     XXXXXXX     ..XXXXXXX...      ;<*",
"XO#@XX                         XXX....       XXXXXXX X. ..   ;,*",
".O#@XX             + .....     XXX....      . .XXX.   .  .   ;,*",
" oOX     XXXXXXXXXX .XXXXX   XXXXX......     X.   ...  ..X   ;,*",
" oOX     XXXXXXXXXX          ...........         X.....XXX   ;:*",
" oOX     XXXXXXXXXX          ..............        ..        ::*",
" .@X     ....XXXXXX          ..............        ..        ,>*",
" +$$     ....X....X          ..............    .   XX       +<1+",
" %+++    ....XX...X          ..............        XX      +12>+",
" +%%%===*++++++++++*========*++++++++++++++*=====%*++---11;,23*.",
"  +%%%%%%**********%%%%%%%%%-%%%-1;;;;;;;;;>>>>,<,,::::::,,:41..",
"         ........XX          ......X.......        XX      ++ .."
};
