/* XPM */
static char *xpm_[] = {
/* columns rows colors chars-per-pixel */
"64 64 60 1 ",
"  c gray12",
". c #23232F",
"X c #272B37",
"o c #333343",
"O c #272727",
"+ c #373B4B",
"@ c #3F3F4F",
"# c #2F2F3B",
"$ c #434757",
"% c gray31",
"& c gray9",
"* c gray6",
"= c black",
"- c #0B0B0F",
"; c #1F1F27",
": c #4F5363",
"> c #D7A300",
", c #F7FF00",
"< c gray34",
"1 c white",
"2 c #57576B",
"3 c #676B7F",
"4 c #13131B",
"5 c #171B23",
"6 c #373737",
"7 c gray28",
"8 c #3F3F3F",
"9 c #070707",
"0 c #2F2F2F",
"q c #5B5F73",
"w c gray42",
"e c gray39",
"r c #7B7B7B",
"t c #C3C3C3",
"y c #BBBBBB",
"u c gray70",
"i c gray67",
"p c gray64",
"a c #9B9B9B",
"s c #939393",
"d c #271700",
"f c #331F00",
"g c #331707",
"h c #4F270F",
"j c #933F00",
"k c #732700",
"l c #3B1B07",
"z c #733B1B",
"x c #7F2F07",
"c c #B75717",
"v c #AB4B13",
"b c #8F3707",
"n c #431F0B",
"m c #632F13",
"M c #4B4B5F",
"N c gray45",
"B c #838383",
"V c LightGray",
"C c gray86",
"Z c #671F00",
/* pixels */
" ...Xo.XOOXXXXooo+o+@@@o@@@++++oooXXXOO.Xoooooo+oo+++oo++++++++#",
"o$$$$%.X&*==========-o@@@o-==========-;OX#o:$oo#o:$++#o:$++#o:$o",
";oooo$.X*=>,,,,,,,,>=-@@@-=>,,,,,,,,>=*OX;%$<+o;%$<++;%$<++;%$<+",
";#.#+$.X==,11111111,==@@@==,11111111,==OX.%%2++.%%2++.%%2++.%%2+",
";.+3o$.X*=>,,,,,,,,>=-$$$4=>,,,,,,,,>=*OX.%%2oo.%%2+o.%%2oo.%%2o",
";#.#+%;O&*==========*o@@@+4==========-;OX5%%$oo5%%$+o5%%$++5%%$+",
"5#ooo$;OXXXX##oo6#6@@@$$$$$@@+@++o#XXXXXX.@7%oo.@7%+o57%2oo.@7%+",
";oo@o$4;&;;;;;;;O;&OOOXOOXOOOO.;;;;;;;;;;588$#o588$oo&6+<o#588$+",
";oo6o$9-9-------9---994999999-----------44+$2##5+$2oo&.o8oo5+$2+",
";o+6o$-9944444444444&&&&&&&&444444444449;;@@2##;@@2oo&#o8oo;@@2+",
";+760$.&;;;;...X.O.@XX#X#X#XXXX.O..;;;;&X;+@2o#;+@2oo&o+7oo;+@2+",
".@706$==9&&****OO;;:&OO0&&&&&&&&&&&&&***o;+$2o#;+$2oo5oo7oo;+$2+",
";+@06@==&0&&***OOO;$O888000000008000&***o5$$<#o5$$<o#5o+<o+5$$<+",
";o066o=9OOOO***5OO.$O88888888888888OO&**+.$$2#o.$$2o#&o+2oo.$$2+",
".o.06@=========;XXX:====================oO7%2##O7%2oo587qooO7%2+",
";o.66+=========;XXX:====================+5@$<oo5@$<oo587$#o5@$<+",
"5X0X6@==4   4**;XXX<&OOOOOOOOOOOOO   49*+5$@<#o5$@<oo.877##5$@<+",
"5.0X0o=&O888O*&;###:8weeee%%%%%%ee888O**+.%%2##.%8%oo.77$##.%8%+",
"..6..@908www8&0;X#o:rtttyuippasspieww8&*+.%%2##;$o7+oO+@%##;$o7+",
"5.6o#+=&O888O*&;ooX:8eeweeee%%%%%e888O**+;%%2oo5$77+oO@$7##5$77+",
"5X6oo@=========;XXX:====================+.$%2##O$$$+oO$$$##O$$$+",
"5#06o$ddddddddd;X##2dddddddddfffffddddddo.%%2##O$$$+oO$$$##O$$$+",
".X6oo$ddghhhhgd.o#o2ghhfhhhhhhhhhhhhhgddo;$$2##O@$7oo5$77ooO@$7+",
".X6#o$ddhjjjjkl4ooo2kjzzzjjjjjjjjjzjjkldo;$$2##O+@%+o;$o7+oO+@%+",
";o6##@dgxcccckk4ooo2jcccvcccccccccvccjkdo;$$2##.77$+o.%8%+o.77$+",
";+8o#@ddkjvvkll;ooo2kvbbjjvvvvvvvvjjvkddo;$$2o#.877+o5$@<++.877+",
";+oo#@ddnmmmddd;ooo2nmmmmmmmmmkkkmmmmnddo.%%2##587$++5@$<oo587$+",
".7o+o$dddffdddd;ooo2dffffffffffhfffffdddo.%%2oo587q+oO7%2#o587q+",
"O7oo#@ddddddffd.@@@:ddddddddffffffdddddd+;%%2oo&o+2++.$$2#o&o+2+",
"O+oXX@=========O$@@2====================+.$%2oo5o+<+o5$$<oo5o+<@",
".@o##@===**  *9.$6@24**======  *===**4-*+.%%2oo5oo7+o;+$2o#5oo7+",
";XX##@==&008&**.$882O000O000OOO   000O**+;$$2oo&o+7oo;+@2oo&o+7@",
";.XXX@=90%%%%&O.88820%%%8O008%%%%%%%%0&*+;$$2oo&#o8oo;@@2oo&#o8@",
"&X.XX@===* OO**.8882& *=*****   *4=* &**+;$$2oo&.o8o+5+$2#o&.o8@",
";o.66+==== OO*9.7882& ==*** 4OO ==== &**o;$$2++&6+<++588$++&6+<+",
"5X0X6@dddggndddO7@8:dggnnnnnnnnnggnggddd#;$$<++57%2++;%@2++57%2+",
"5.0X0odddnnhgdd.$M$2gnnnhhhhnhhnnnnnngddo.$$2##;$%2oo;$82ooO@$7+",
"..6..@==9* O&**X$$$2& **   **O ***** &**o;%%2##.%%<+o.782+oO+@%+",
"5.6o#+====*  *=X$8$24*==****=  *====*4-*o5$$<##5%$%+o;772+o.77$+",
"5X6oo@========9.$882=========***========#5$$<o#5$%%+o;7@2++.877+",
"5#06o$dddddddddX8882ddddfffffffffddddddd#.%%2##.%%<++Ooo$oo587$+",
".X6oo$dlkjjkkllX8882kjjjvvvvvvvbjjjjjldd#5$$<oo5%%2+o.8o$#o587qo",
".X6#o$dddddddddO8682ddddfffffffffddddddd#5$%2oo5%$2++Oo+7#o&o+2o",
";o6##@========9O86#$====================o&$$2oo5$@M+oO#o7oo5o+<+",
";+8o#@=9&00OO4 O$#6$O000%%%8888888000&*9o&@$2oo5%$2+o.68+o#5oo7+",
";+oo#@&O8NBee06O@#o$eBNNiiiVCCCCVtNNB8O*o&@$2oo;$$<oo.o++oo&o+7+",
".7o+o$=9&00OO4&Oo#o$O000%%%8888888000&*9o&$$2oo;$$2ooO@@<oo&#o8+",
"O7oo#@=======99Oo#X2====================o&%%2##.%%2++5$7eoo587$+",
"O+oXX@=======99OooX:====================o.%%2oo.$$2+oO$<e#o587q+",
";+oo#@ddddddddd;oo#:dddddddddddddddddddd+.%%2oo;$$2++5$<<#o&o+2+",
".7o+o$dddmnnndd.ooo:nmmmhhhhhhmmmmmmnddd+.%%qoo;$$2+o;@@<oo5o+<@",
"O7oo#@dddlddddd.ooo$dllllllllllZZZlldddd+5$$2oo;$$2+o;#@2o#5oo7+",
".@706$==&&&****OO;;:&OO0&&&&&&&&&&&&&***o;+$2o#;+$2oo5oo7oo;+$2+",
";+760$-=;;;;...X.O.@XX#X#X#XXXX.O..;;;;&X;+@2o#;+@2oo&o+7oo;+@2+",
";o+6o$-9944444444444&&&&&&&&444444444449;;@@2##;@@2oo&#o8oo;@@2+",
";oo6o$9-9-------9---994999999-----------44+$2##5+$2oo&.o8oo5+$2+",
";oo@o$4;&;;;;;;;O;&OOOXOOXOOOO.;;;;;;;;;;588$#o588$oo&6+<o#588$+",
"5#ooo$;OXXXX##oo6#6@@@$$$$$@@+@++o#XXXXXX.@7%oo.@7%+o57%2oo.@7%+",
";#.#+%;O&*==========*o@@@+4==========-;OX5%%$oo5%%$+o5%%$++5%%$+",
";.+3o$.X*=>,,,,,,,,>=-$$$4=>,,,,,,,,>=*OX.%%2oo.%%2+o.%%2oo.%%2o",
";#.#+$.X==,11111111,==@@@==,11111111,==OX.%%2++.%%2++.%%2++.%%2+",
";oooo$.X*=>,,,,,,,,>=-@@@-=>,,,,,,,,>=*OX;%$<+o;%$<++;%$<++;%$<+",
"o$$$$%.X&*==========-o@@@o-==========-;OX#o:$oo#o:$++#o:$++#o:$o",
" ...Xo.XOOXXXXooo+o+@@@o@@@++++oooXXXOO.Xoooooo+oo+++oo++++++++#"
};
