/* XPM */
static char *result[] = {
/* columns rows colors chars-per-pixel */
"64 64 24 1 ",
"  c gray12",
". c #2F2F2F",
"X c gray6",
"o c #43230F",
"O c #4F370B",
"+ c #070B07",
"@ c #57371F",
"# c #432B07",
"$ c #272727",
"% c #272B27",
"& c #331F00",
"* c #271700",
"= c #373737",
"- c #6F4F17",
"; c black",
": c gray9",
"> c #131713",
", c #3F3F3F",
"< c #0B0B0B",
"1 c #070707",
"2 c gray39",
"3 c gray28",
"4 c #7B5B1F",
"5 c white",
/* pixels */
" .... XoOOOOOOO+@+OOOOO+@+OOOOO+@+OOOOO+@+OOOO#+O+OOOOOOOo+ $$%%",
" .$$$ XoOOOOOOO&+&OOOOO&+&OOOOO&+&OOOOO&+&OOOOO*+&OOOOOOOo+ $$$%",
" .$$$ XoOOoXXXoOOOoXXXoOOOoXXXoOOOoXXXoOOOoXXXoOOOoXXXoOOo+ $$$%",
" .$$  XoOoX   XoOoX   XoOoX $ XoOoX . XoOoX $ XoOoX $ XoOo+ $$$%",
" .$$  XoO       O       O  $$$ %O% $..  O       O       Oo+    %",
" .$   XoO  $$$  O  $$$  O       O   $$  O       O       Oo+    %",
"X.    XoO% $$$ %O% $$$ %O%      O   ..%%O% $$$ %O% $$$  Oo+ $  %",
" . $$ XoO@  $  @O@  $  @O@     @O@  .%%@O@  $  @O@  $  @Oo+    %",
"X$$$$ XoOO@%$%@OOO@%$%@OOO@   @OOO@ .=@OOO@%$%@OOO@%$%@OOo+    %",
" .$$$ XoOOO---OOOOO---OOOOO---OOOOO---@OOOO---OOOOO---OOOo+    %",
" .$$$ XoOOOOOOoXXXoOOOoXXXoOOOoXXXoOOO#XXXoOOOoXXXoOOOOOOo+    %",
" .$ $ XoOOOOOoX $ XoOoX $ XoOoX   XoO#X $ XoOoX $ XoOOOOOo+    %",
"X$$$$ XoOOOOO% $$$ %O% $$$  O       O= $$$ %O% $$$ %OOOOOo+    %",
"X.$$$ XoOOOOO  $$$  O  $$$  O       O%%$$$  O  $$$  OOOOOo+    %",
" .$$$ XoOOOOO% $$$ %O% $$$  O       O=%$$$ %O% $$$ %OOOOOo+    %",
" .$.$ XoOOOOO@% $% @O@  $ %@O@  $  @O@% $  @O@  $  @OOOOOo+    %",
" .$$$ XoOOOOO@@=.=@@O@@%$%@OOO@%$%@OO@@%$%@OOO@%$%@OOOOOOo+    %",
" .$$$ XoOOOOOOO---@OOOO---OOOOO---OOOO@---OOOOO---OOOOOOOo+    %",
" .$$$ XoOO#XXX#OOOoXXXoOOOoXXXoOOOoXXXoOOOoXXX#OOO#XXX#OOo+ $  %",
" .$$$ XoOoX . X#OoX $ X#O#X $ XoOoX $ XoOoX $ X#O#X . XoOo+ $  %",
" .$$$ XoO% ..$ %O% $$. =O= $$$ %O   $$ %O% $$. =O= ... %Oo+ $  %",
" ...$  oO%%..$% O  $$.%%O%%$$$  O   $$  O  $$.%%O%%...% Oo+ $  %",
" .$$$ XoO=%..$%=O% $$.%=O=%...%=O% $..%%O% $$.%=O=%...%=O#* .$$%",
" .$$$ XoO@%%. %@O@  $%%@O@%%.%%@O@  .%%@O@  $%%@O@%%.%%@O#* .$$%",
" .$.$ XoOO@%$ @OOO@  %@OOO@=.=@@OO@%.=@OOO@%$=@@O@@=.=@@O#* .$$%",
" .$$$ XoOOO---OOOOO---OOOO@---@OOOO---@OOOO---@OOO@---@OO#* .$$%",
" .$$$$X  X#OOO#XXX#OOO#X  OOOOO   #OOOO   #OOOO   OOOOO    ..$$%",
" ....$ $.% OO# %$ X#OO %.. OOO .$$X#OO $$$X#OO ... OOO ... ..$$%",
" .....  X %XXX% X  XXX% X .   . X $   . X $   . X .   . X  ..$$%",
" %%%%% X;X     X;X    % ; %%%%% ;X  %%%X;X   %%X;X%%%%%X;X %%  %",
"X    :XX X:X:>:X X>>>: X X     X X::   X X:::  X X     X XX  ::%",
"X>>>>XXX,XXXX<XX,1<<<X>X,X>>>>>X,XXX>>>X,XXXX>>X,X>>>>>X,XX>>XX ",
";;;;;;;;2;;;;;;;2;;;;;;;2;;;;;;;2;;;;;;;2;;;;;;;2;;;;;;;2;;;;;;X",
"X>>>>XXX3XXXX<<X31<<<X>X3XXXX>>X3XXXXXX131<<X>>X3X>>>>>X3XX>XXX ",
"X    :XX X:X:>:X X>>>: X X :   X X:::::X X>>:  X X     X XX  ::%",
" %%%%  X;X     X;X     X;X     X;X     X;X   %%X;X%%%%% ;  %%  %",
" .$..$  X $ $ $XXX     XXX$$$$$XXX$$$$$XXX  $.. X ..... X  ..$$%",
" ....$ $$ X@-@X   X@-@X   X@-@X   X@-@X  XX@-@ %.. --@X%.. $$ $%",
" ....$    -OOO-X X-OOO-X  -OOO- $X-OOO-X X-OOO-X  -OOO-   X $$$%",
"X.$$$ X#-@OOOOO@@@OOOOO@-@OOOOO@-@OOOOO@-@OOOOO---OOOOO--#X . $%",
"X$$$$ XoOO#XXX#OOO#XXX#OOO#XXX#OOO#XXX#OOO#XXXOOOO# X OOOo  .$$%",
"X$$$$ XoOoX   XoOoXXXXXoOoXXXXXoOoX   XoOoXX  X#O#X . XoO#  .$$%",
"X$$$$ XoO      %O X     O X $ X%O%      O      =O= ... =O#  .$$%",
"X$$$$ XoO       O       O  $$$  O       O      %O%%...% O#  .$$%",
"X$$$$ XoO       O       O% $$$ %O%      O     %=O=%...%=O#  .$$%",
"X$$$$ XoO@  $  @O@     OO@ $$$ @O@ $$$ OOO  $$%@O@%%$  @OoX $$$%",
"X$$$$ XoOO@%$%@OOOO   OOOOO%$%OOOO@%$%@OOOO $%@@O@@=. OOOoX $$$%",
" ....  #OO@-4-OOOOO@-@OOOOO@-@OOOOO@-@OOOOO@-@@OOO@--@OOOoX $$$%",
" ....  #OOOOOOoXXXoOO#oXXXoOOOoXXXoOOOoXXXoOOO#XXX#OOOOOOoX $.$%",
" ....  #OOOOOoX $ XoOoX $ XoOoX $ XoOoX   XoOoX $ XoOOOOOoX $$$%",
" .. $  #OOOOO% $$$  O  $.. =O= .$$ %O%      O  $$$  OOOOOoX    %",
" ..$. XoOOOOO  $$$  O  $$.%%O%%.$$  O       O  $$$  OOOOOoX    %",
"X.... XoOOOOO% $$$  O  $$.%%O=%.$$ %O% $$$  O%%... %OOOOOoX $$$%",
" .... XoOOOOO@  $  @#@  $%%@O@%%$  @O@  $  @O@%%.% @OOOOOoX $$$%",
"X..$$ XoOOOOOO@%$%OO#O@%$=@@O@@%$%@OOO@%$%@OOO@=.=@OOOOOOoX $$$%",
" .$$. XoOOOOOOO---OOOOO---@OOOO---OOOOO---OOO#@---OOOOOOOoX $$$%",
" .$$. XoOOoXXXoOOOoXXXoOOOoXXXoO#OoX XoOOOoXXXoOOOoXXXoOOo  $$$%",
" .... XoOoX $ XoOoX   XoOoX . XoOoX   XoOoX $  #O#X   XoOoX    %",
" .... XoO% $$$ %O%     %O= ... =O%  :  %O% $$  %O  $$$  OoX  $$%",
" $$.. XoO       #       O  $..%%O       O  $    O   $   OoX $$$%",
" .$$. XoO       O      %O=%...%=O%     %O      =O= $$$  OoX  $$%",
" $..$ XoO@     @O@     @O@%%.%%@O@% .  @O@    %@O@  $  @OoX  $$%",
" .$ . XoOO@   @OOO@   @@O@@=.=@@O@@=  @OOO@%  @OO@@%$%@OOoX   $%",
"X. .$ XoOOO---O&+&O---@o*o@---@o+&@---@o*&O---O&*oO---OOOoX $$$%"
};
