/* XPM */
static char *result[] = {
/* columns rows colors chars-per-pixel */
"64 64 55 1 ",
"  c #3F3F3F",
". c gray34",
"X c gray31",
"o c gray39",
"O c #23232F",
"+ c #7B7B7B",
"@ c gray45",
"# c gray42",
"$ c #57675B",
"% c #676B7F",
"& c #5F6377",
"* c gray12",
"= c #1F1F27",
"- c #937B67",
"; c #5F6F67",
": c #4F5363",
"> c #373B4B",
", c #7F839B",
"< c #57576B",
"1 c #434757",
"2 c #8B8B8B",
"3 c #7F634B",
"4 c #171B23",
"5 c #6B4B33",
"6 c #3F3F4F",
"7 c #838383",
"8 c #5B5F73",
"9 c #73778B",
"0 c #4B4B5F",
"q c #373737",
"w c gray28",
"e c #333343",
"r c gray9",
"t c #271700",
"y c #57371F",
"u c #2F2F2F",
"i c #272B37",
"p c #0B0B0B",
"a c gray6",
"s c #43230F",
"d c #272727",
"f c #2F2F3B",
"g c #4F270F",
"h c white",
"j c #939393",
"k c #6B7B6F",
"l c #0F0F13",
"z c #070707",
"x c black",
"c c #7B5B1F",
"v c #8B672B",
"b c #434F47",
"n c #9B9B9B",
"m c #3B433B",
"M c #6B6F87",
/* pixels */
"   .X    ..XXoXOO+@.+##.o.X          XX .oo$%& *=-;:#...X    XX ",
"XX.XXXX .....o>**,@o+...o.X  XX .X   XX.ooo<&<1O=2oX.XXXX    XXX",
"XXXXXXXX....:o **2#.#X..oX   X  XX   XX.ooo::<>*=,o3..<o..X .XX ",
" .XXXXX.X.:..# 4*++.oXXX#..X         X..X.&<o&>=*+53o..o&&X..X X",
" XXXX  .X...:< *O2,@+&..oo.X         ..X..o<<&6=*-55o....oXXXXXX",
".X    .X.oo::o 4427#..<$...X         X.XX..<8%>**-55o<<o<.....XX",
"XX    X.o.o:<&1O*-79&o...XXXXXX       .X...:<&>=*755.&&o...X.XX ",
"    ..X  .o0<. **-@&<@..X X.XX XX   XXX   .$$.>=*,55o%&X  X..X X",
"   X.XX q .:.5 4*-.<.+.1  w:XX X    X     .$.& **,35o%&1e XXX  X",
"   XX..  6::53 4r-.0:+.    XX.X           .o#&1**233o&#: XXXXXXX",
"   XX.X0X.o:55 4*oXw5#oXXXXX XX       X...o<%&>OO,#3o.o.X....XX ",
"   X X...oo.5wqrt.:X5#o.X...XX      XXXXXoo<8&>44+@ooooo..X.XXXX",
" X.X XX.ooo:yuippi  5#&.XX:X.XXX.X .X   .o#.q**arO  .oo.o....X w",
"X.XX....oo&>sd*4r4**yo&&.....XXXXXXX..X..o#1*4Oieeii.ooooo.XXX X",
"XXX .:...o:i*dfeei*4gX.&...XXXX.XX .X.X..<oe*4Oieeiiw<o..X<.X ..",
"XXXXX...<.wi4OX@+ O=sq<&....X.XXX XXXX...o.u*4q@%XOOe<o.oX.X .X.",
"XXXX .XXo5q*=w2hhjqr*w:8..oo..X XXX.X .o.o **f2hh2wOio&<$.X.XXXX",
"X.X ....o5qri@hhhh&4410o.o<oo.X X XX...o.. ruohhhh#Oio#o.o..XXXX",
" XX....o.3w*ikhhhh&O* Xo.#oo..X .XXX..X#.. *iohhhh#Oi&#&.o..XXX ",
"  X.X.o&o5w*i jhh2 ii5X....XX.XXXX XX...o&1*i 7hh2qiO&oo....X  X",
"XX X..o&&3wOiiw#+ 4ii5X..X   XXX XXX...o.&w*qi ooi4ii&oooo..X  .",
".X  X..o+@XOi>eqiq>eq5X... XX X.XXX X....$.ui>eqiq>ee&@o.o....XX",
".X .X.o.#+XOii4al*ie 5.0wX...X      XX...#Xuii4al*ieq##+.o...XXX",
"X X..oo#%+XOu*zxxxluuywX  .XXX      X ....ydu*zxxxluuo+#&o.XX XX",
"  XXX..&&o *upxxxxx=Owo.  :..X.    X.XX.5.ydupxxxxx=doo.oo.XX XX",
"XXX.X<..o#X*upxxxxx=dX&X    XX    XXXX .5.ydupxxxxx=d.3....:X XX",
"X .X.$.o&+X*uaxxxxp*u.o.            XX..w.yduaxzxxpOucc......XXX",
"  XX..o&%#XOiirppp4iq3&ow          XX..X5oysqialxz4iqv5o&&X...X ",
"  XX..oo++b=dqfiuuqq 3#<XXXXX        .X...ysu quiq>qyv5o#&..XXXX",
" X.:..oo++ *uqeqqi>qq#&o..XX         XX..oy*u>  >>>qq35ooo..X XX",
"XX....o$@o =iiq>iq>e +#o..X  X       ...;oydi>qq> eqqv5.....XXX ",
"XXXX..&o%kXOOi >>q e &o.:.           X...owsu>q >eqeyv5o....XXX.",
"XXX..ooo&+XOie>>>efe <..$.            o..#Xgu>>>>qqeyc5o..oo.X.X",
"  X..o<o.oXOO>>>>eqeyo<X$.X        XX.o..+Xgu>>>eqqeyv3#oo.XXXXX",
"  X.X.X.o. OO> >eqqiyoo....X    q  .X.oo.3Xdf>>> qqeyvc&&o.XXX X",
"0wXX<..<oo *O   qqqiu<+oo..X       XXXo#55wuq>>>>qieuv5ooo.XX  X",
"X.X .<$oo. *iqe>fqqiO:#&oXXX     X  ..o+55ydq>>>>eieu55oo....XXX",
"XX...:.#&oydii4aa*Oiuo#+#XX.XX      XX.o35ydii4alrOeq55ooX...XXX",
" .XXX.X.&&ydi4zxxpaOy3;#oXX...      X.X#33ydirzxxxliy55.o.<.X XX",
" XXX.o::@&ydilxxxpx=y3@#o..<...XX XXXXX.55ydilzxxxxOg.5o..XXX XX",
"  X...X.ooydOlxxxxx=u5@##...XXXXX ...X.$o3ydilpxxxx=do5o.oXX XXX",
" .XX...o&&ydirxxxxpOd5o##&XXXX X.X.XX..$;3ydirpxxxpO*o3oo..XX.XX",
" XX .<<&&+5diirxxz4iu5o..XXXX.XXXX..X.X..5ydiirxxz4iso5.o.XXXXX ",
"   X..o.o%Xdu eqiq>qd5o..X XXXX    ...ooo.ydu qqiq>qdooo$XX XX X",
"   XX..o#& *uiX@+ iqu5..XX XX      .X.o##.ydui.++Xiq*oo....XX  X",
"    ...o.o OuX2hhjquu3o.X XXXX   X XXX.o#.q*u.jhhjXuu3##o..X    ",
"    ...o&o Ou#hhhh#*y#o.XX.XX.XX..X ...oo5 Ou+hhhh#*y33o.XXXX XX",
" XX.X..ooo Ou+hhhh@*y@$.XX.X XX XXX X..o.5wOu+hhhh#*y3o..X.X X..",
" XXXX..oooXuu.jhhnX4y+.#..X.XX    XXX..o.X Ou.nhhn * @+...X.XXXX",
" XX....oo&1Ou .++oq*y7....XXX   X XX ..... *ui.++.iu 7@o..XXX XX",
" XX.XX.o&#o ii wwqi*5+o<.X X  XXXXXXXX.X.5 *diq  fiu -o..XXX  XX",
"  X::..&#.oX uqeeqqy+o...X    X  XX X ..o5.m qqeeqiq3-oo.XX  XXX",
"  .XX..ooo<1yyuOOuX-o.:..X     XX .X .X..53X qqiOu 3+5oo.X.X XXX",
"  XXXXX.ooo.55 442-3..@&..XX.X X ..XX.XX.5o3..y*42j-#ooo.X.XXXX ",
"   XX..ooo&<33 **7.5.oo.XX.XXX.X.XXXXXX...#o33y*4,+3o+#....X X X",
"    XX..X.&&o3X*O+##o..   XXX .XX XX   X .+%.oy*a+oo0ooX  .X   w",
"   XXX.X  ...5 **7o&o.. qq X  XXX XXXXX q o&&@y**+&:..o q XX X.X",
"   X.X.. X.XXo14*7#..X. q         X XX X X..ooy*4,<:ooo   XXXXXX",
"    X....::..&X**7+o.:X       XX      XX.##oo#y**2&X.o..XXXXXXXX",
"    XXX.o.oo&oX*=+@oo..XXX XX X       .XX.#+#+ **7o<&o...XXXX XX",
"    X.X.<o&8&#X**+o#oXXXX  X          X:.o##o# **7&&o.:X.XXX    ",
"    XX..oo&::&X*47##:...X          ..X.X.&%@o& **+@.o#oX.o.XX   ",
"   XXXo...oo.oX**-ooX..XX  XX      X.X...o#%%MX**,+.o#o...XX   X",
"   XX....o.o$o **-#..X.XXXXX    XX  X.X..&o&<&>*47%&@oo.XXXX   X"
};
