/* XPM */
static char *tile0871740675773[] = {
/* columns rows colors chars-per-pixel */
"64 64 37 1 ",
"  c gray39",
". c #5F6377",
"X c #5B5F73",
"o c gray34",
"O c #3F3F3F",
"+ c gray12",
"@ c #1F1F27",
"# c #070707",
"$ c #13131B",
"% c gray6",
"& c #272B37",
"* c #0F0F13",
"= c #3F3F4F",
"- c #333343",
"; c #2F2F3B",
": c #272727",
"> c #2F2F2F",
", c #373737",
"< c gray9",
"1 c #C3D7FF",
"2 c #271700",
"3 c #373B4B",
"4 c #4F270F",
"5 c #431F0B",
"6 c #87AFFF",
"7 c #331707",
"8 c #331F00",
"9 c #3B1B07",
"0 c #171B23",
"q c #6B6F87",
"w c gray45",
"e c #73778B",
"r c #4F5363",
"t c gray31",
"y c gray28",
"u c #434757",
"i c white",
/* pixels */
" ...... XX     X   ... X  X X   X XXXX ........XXX  X..     X  X",
"........    XX  X X... X XX  XXo  X  X  .......   XX      X  XXX",
".  ......   XXXXX  ... X    XX  oXX..   ..... ... . ...      .  ",
"............ .     .   X   XX  X  X.. X   . X ... .....      ...",
"..... ...   ..  XX . X      XXXoo  ..  ..XXX X   ... ..     ....",
" ....           XX . X        Xo X ....    . XXXX .... XX   .   ",
"  ... .        .  X       X   X  X .   X.....XXXXX ... X    ...X",
" .... .  XXXXXX XXX..        X   XX  XX X XXXXXXXX ..  X X  ..X ",
" .. .... XX  X XXX ...  X X   X  XX  X      X  XXX  XX X   .X X ",
"  ......   XXXXXX   ..  X X  X o X . X X      . XX. X   XX..XXX ",
"  .. .....   X      .     X   X XX .X XX       . X XX X   . XX  ",
" .. X .X    XX  ....       XX XX    XXXX   X X XX    o    . XX .",
" .  X..         ...         XX XX    XX  XXo XX . XXXXXXX .X X .",
"  XXX ...  ...  ...        XX  X X     XXXX XXX . X  XXXX .X    ",
" XXXX ...  .......          X    X       X    XX  X  XX X .. X  ",
" XXXX ..   .....         ..   X  X  ..    XXX     XXXXXX .......",
" XXXX  O+@@@@###$@@+@#%&*#*$+@++++++$$$$$++++++$$+++++#%=.......",
" XXXX. =@----$$#@---;%%;$#@--;-;;;;--&::::-;;;;--;;--;##=.... . ",
"   X . =+>;-O,+#@--,:$%;$#@--$%%%%%%%#####%%%*$-$%%@;>#%=....   ",
" ..   .=+>>,O,<#+>;-&%%;$#+--+1@1;1&1&1@1$>#%$*>*##+;;#%=.......",
"...    =+>:+>2##+::::##;$#+;;@131=1=1-1&1@,#%#%-*##+::%%=.......",
".... XXO2:45>>:$:>;;>$$;@$:;;$6;6@6-6:6@6+,#%:%@%##+::*%=.......",
"....  .=2278:,,,,;;:;;>;-;-::$@$$$$@$%$$+$,#$,#+%##:::**=.......",
"....  .=299+::,;;>:+##*>*##+:$6$6$6@6%6@6$,#$>#+%##:;>**=....   ",
" ...XX.=+++++::>-@%%$%*>*##@:%#%%###%%%%%*,#%:%@%##&-;**=      .",
"X...XX.=:::::>;,+#####$&$##@::;,--;;,-,,,O=>:::;,;;-=;**OXX  . X",
"X... X.O::::*%%%#%%%##$>$%#0:++@@++:++::+++++++:$**+@:*%OXX XX  ",
" X ..  O$$$$##+::,,:#%$;$%#0;>:::::::::::::::::&*##:>;*%OX  XX .",
" X .  .=$$$$#%+,OO,%#:%;%##$=;,;>&::&:::::::@:::%##:;;*#OXX XXX ",
"XX .X..O****##%%$$%#29$;$%#$=---;:+::+::++::@:&>22#>--;+OX  X   ",
"X  .X. O$$$$#######2220;0$#0;;;;:++;++;;:7>>:&>;+%#+:&:+OX X    ",
"  ..X  O@>@>$%+,-->0#%$;$%#0>--,+%$;%$;;,:,:--:><%#@::#%OX X   .",
" X . XX=@;:;%%+:::+$##%;%##$+:::+%%>%%>>&+;-->::%##+::##OX .. XX",
"oo .. XO*%*;$$+:+++$#%$;$%#$+++:+$$>$$>>:+;-->::*##++:##=XXX  X ",
" oX .X =++%;++&-,,>0#$0;0$#0>,,-&++;++;;::--=,:&+%#++:%*O  XX   ",
"X X .  =>,$;::--,>;$#$$,$$#$;>,--::;::;;++--->>:,,:@&:++O  XXXXX",
"X o XX ,@,*&&:;;&-&%#+0-0+#%&-&;;:&-:&--$$&;>;-+>,>:>>++=  X XXX",
" X XXX ,+>*::++:,;*##%*;*%##*;,:++:,+:,,++::>-@%%$%@:&%%O X   XX",
"XX .  X,$>$>++:;;*#%#$%:*####*;;:++;++;;::>;,+#####:;;##=XXX  XX",
"XX.... O*:$>$%%*%#%%%+$>%#$%%#$%%%$&%$&&:*%%%#%%%##>-;##=XX  XX ",
"XX.... =*$*;#%$#%+%%#%%:%%+$%%+$$%#:%#::$##+::,,:#%,=;*%=XXX X  ",
" X.....=*#%;#$+%%+%####+%#%%%#%%+$#:$#::$#%+,OO,%#:,O,;+=X X   X",
"  .....O*#*;#%%#%%####,>########%%#+%#++*##%%$$%#29,OO,+= .XX   ",
"X .....O2#%;######%<:+<+<##########+##++$#######222:,O,@=.  XX  ",
"X......=22%;-#2#:;::>22#%#:>>+>>:::>>@++++0+:82822<:>OO+=   XX  ",
" XX  ..=*2%;-#77:;:@:#77%#@@+++@@@@++++++++:>:+++<:>>--@O ..  XX",
"   XXX O$<$--##2:-::>##22#@:&>>>>>;;;;>::&;,,>>>&:;----@O ..  X ",
"      X=++@@@%##$&&@+%##2%++@@+++++@@@@@@@@@@@@@@@@@@@@+=... X  ",
"  o   XXo  .. . . X   X.XX  XXX    XX   X   ......XXX .......XXX",
"  o  X  X ... ...   XX     XXX     XX X  XX   .... X   . . .  X ",
"  o   qwweeeewqwwwqqeewwqw  qwqw  qwqw Xqwqw .qwqw  qwqw     .  ",
" oooX.errrrrrrtttrrrtrrrrty errty errty errty errty.errty    .  ",
"ooooX wrrrtttrtttttttrtrrru wrrruXwrrru wrrru wrrru.wrrru       ",
"oooo  errtrrrrrtrrttrrttrry.etrryXetrryXetrry etrry.etrry       ",
" X oo wtrrrttrrttrrtttttrtuXwtrtuXwtrtu wtrtu wtrtu wtrtu       ",
".. XX.erttrtrttrtrttrtttttu etttu etttu.etttu etttuXetttu       ",
".... .errrrttttttrrrrrttttu etttuXetttu.etttuXetttuXetttu       ",
"....  etrttrrtttttrrrrtrttyXerttyXertty erttyXerttyXertty       ",
"....  erttrttttrttrrrttrttu erttuXerttu erttu erttuXerttu       ",
"....  etttttttttttttrtrtttu etttuXetttu etttu etttuXetttu       ",
"..  .. uyyuuyuyyyuuuuyyyyyyX yyyyX yyyy  yyyyX yyyy  yyyy     ..",
"..  .     .. X X ...       X   XXXX      ..     ..            . ",
".....     .. X X ...       X   XXXX      ..     ..              ",
".......     .. X   ....      X  XXXX  .X .......  ..X..         "
};
