/* XPM */
static char *tile0651740674605[] = {
/* columns rows colors chars-per-pixel */
"64 64 89 1 ",
"  c gray28",
". c #9B5317",
"X c #EFD39B",
"o c #DFC387",
"O c #C3A363",
"+ c #B79353",
"@ c #D3B377",
"# c #FFE7B3",
"$ c #B77757",
"% c #331F00",
"& c #9F5B3F",
"* c #E7AF8F",
"= c #A78747",
"- c #A35F1B",
"; c #4F370B",
": c #3F3F3F",
"> c gray31",
", c #373737",
"< c #5F430F",
"1 c #8B672B",
"2 c gray34",
"3 c #6F4F17",
"4 c #6F331B",
"5 c #7B5B1F",
"6 c #431300",
"7 c #87472B",
"8 c #977737",
"9 c #432B07",
"0 c #434F47",
"q c #874723",
"w c #733B1B",
"e c #6B3717",
"r c #7F431F",
"t c #A35B33",
"y c gray39",
"u c #271700",
"i c #AF633B",
"p c #934F2B",
"a c #6B7B6F",
"s c #833F0F",
"d c #572B0F",
"f c #4B5B53",
"g c #B76B3F",
"h c #7F9383",
"j c #632F13",
"k c #131713",
"l c #CF8F6F",
"z c #3B1B07",
"x c #431F0B",
"c c #4F270F",
"v c #4F1307",
"b c gray42",
"n c #1B0700",
"m c #57230F",
"M c gray45",
"N c #4F5363",
"B c #3B433B",
"V c #272727",
"C c #5F6377",
"Z c #7B7B7B",
"A c gray70",
"S c #1F1F27",
"D c #2F2F2F",
"F c gray67",
"G c #7B370B",
"H c gray12",
"J c #9B9B9B",
"K c #939393",
"L c gray64",
"P c #331707",
"I c #272B27",
"U c #6F2F07",
"Y c #0B0B0B",
"T c #838383",
"R c #C3C3C3",
"E c #8B8B8B",
"W c #BBBBBB",
"Q c #C37347",
"! c #23232F",
"~ c #172317",
"^ c gray9",
"/ c #2F3733",
"( c #2F2F3B",
") c #1B271B",
"_ c #272B37",
"` c #13131B",
"' c #0F0F13",
"] c #9B572F",
"[ c white",
/* pixels */
" .XoooXO+.OoooXXoOO@ooooXX#XXoXXXXX##XXX###X@OOX#XX#XXoXXXXXo@+$",
"% O@@@O &@o@O@@O++OO@@@*oo@ooooo@ooXXXoXo@O==OOXo*oo@O@oXX-OO@oO",
";%:&>,;<123<313;3334<5165555773<<<3&&333><<<4<71&55>>5&18335&@@+",
";9%9938815088q53w4w115&5515qwq30118=q115er11t0y===10==1181=18@@@",
"%u9181qq18i&=811p=18=1q111q155888==i&81q5=18&+@+==yaa+++++=81O@s",
"d9d551f8t10p01ga+155wqw754wq55115w118i17q&=++O++=yOa==O+hO8<78$+",
"jk<t8qi===y==+a+=81e45qew5qr115w4w1qq7q18==8=+1$==++=+a++=3q8lXo",
"d9<119dzxc9z99x%7pw501q115188111881q7118188a+&4599xxzxxxz4615OXo",
"dzd11jqc4v4b&n7cq815jj44wrqrw5q5155111y811$$4,>1k4pm2Mj447t18oXo",
";%d18d4x 4:N2c>x3qq5;;wrrrrv1qrrrBB50qqvpqw4V<51z 7d2Cx:;r8y=ooO",
";%98ydj,234>;2Z;qp1qu5ooooooAooooooooooooo5w 115x2y4: 4M>q888O@O",
"Suq81djDFG&Mm>A q1qwH3&: :::,::::::::::: =q1&=3qcJK4M jL24&838o@",
"VDdq5;<D x,:ex:D3qr1u5dPz%denm%:14kmI49kz1wi+1jq;yDx:4mD,4&5<O+2",
" %<11;dH 3<>jU2u4181u54cc,2wqr7yMM;d42 dz8488tw3%:2c247yVw7388$o",
";z<t1dj92yyZ;2b;31q4Y74P;2yb3e< >,c:TMMc%=41t13wc2M>K::y:q18<$#X",
"9%;11;cyTx,N>Pbb<4w5u74P:TRE3w2E2dn4MWTDz=41754j3JD9>2z E35w1oXO",
"%V3=89d,bjm >m:V<wjru34%:  Dcx, 4ewe9::9%1 w&Q4492;m42c::;58=OO+",
";x;159jV,d;2>j,H<qwju7j%D!2E292J:dj2E2Vcc841=tj3c,9c>ycxD48=1Ooo",
"9%9519d: j  ,d2<3jx9u7j~yK2 ,Dyy>299D2Jyz1<qq4ce9249> c92q1==oo+",
";%;119d,>4 b4j 94wqr~7jz>Tb4kcjD 2djz2ZD%1j4j44jc>74b d;:4518@++",
";9d3<xj:Tw4y44T 4qwwu7jz9!:4dc;>2>djd,!xz1<344djcT2d2 I1yd4%3@@O",
"9%dq5xdD d4>cj>,4wjjuqdz:y:e4d y:;jjc:M4k1jjjjceD2;d::j: 449%&Oo",
"9z;11%j:274 xqb:4wxj~4;z:2y7n4 Tydwj;y29%7jw44ce;y1j:9I2>74djq&G",
"%%9jq%d;2 42j<2x4wwjY74u:EZ:jd< >:ee:bMVu6jw44jjd2yx>742,q4cj=+>",
"u~dwc%d9 42Ej 2k4cx%Yq4x: :24j4y,dcj& >>9&dnjwcjc:24K d29jq3x&O8",
"HYxwj%k2bD 2;9My;j44Y<jc2>>bdd; 2j44y> <x7c4wwd44Z>;b:x2Z4754&+O",
"%Huzjzc 2d%2Td  ;dj4^<4zd: 2djyFyIdj2>:mzqxw54cj:y;x,T:;2;<<3$O=",
"%ucx~Pd,;I: :j;V,9x4u4j%2E2 ccyy2 cx:yK2%79j4j9jD:dd> ;cDd:9j8+8",
"%ux7Vuz2:I2F&Iy>9411~4jD b :cdDHyZ2jd:2,%794q/99:2j4FZewy4,z%7=1",
"%u%jd%z:2d;Cyc>,9jqw~Dx4 :9IdjyTy:44e4>:Pw9q139;924d2yd4>x;9%585",
"uu%zzPzD(V;,,9,%9cqq)Dxm2Z2de42TAZ4nj2E:)494<jd9x,,9,:9DD9:z9t$7",
"%uzjcPz:T1;yqML:Ddrw):Dz9:>Vxj,,:2;zV ,zu:D43ed99MZ4227L29:%%dq=",
"%u%j4%%,E2:>x:T:%drw):D%:MbT>m:2y4e3TTb9% Dwrjzz;KM92;cM>9;%%47=",
"u%%%cuHD,%D,d;:DD93wu,D% TAM:d>b mj4yEM,% 9d9%%9, VV,4dDD9:4k$OU",
"%u%jdHVV2M22%MbuDx;ju,D%::::;x, 9Ij;>:_D%:Dkxd%DV:Z>M9>TV9<jz1==",
"uu%d4%V>y22Z<:y2D999~:,z:!yJb yL x9yJy_D%:DewrxD:My>Z>422;4jw8=&",
"%%xcc%%yTVD: %by%x%xu:D%bLb(:>2>2y4;DyFb% 9wqwx9:K,9,29 TD751+l+",
"%ucjxuVV xD  %,HD%%du:D%,Z2D99DD22%%%2bV% 9d;%%9V,Dx 2%DD%<qw1==",
"%uzcz%VD:9 2 z:DDxzz~:D%,,:;992y2>99z,:%%:9uV,dD9:9;y2zD:9<d%78=",
"%u%dc%u,>x:>;z2:Dxz9~,D%;b %9,>b ,999 bx% 9x9;%D929:2:z:29;cc8O=",
"uH9ejHHD2; T;;yD9x%cu,Vu,2b 9D>KM,9z:T2%%:9%%%x9%>;;Z>z2 % 3j===",
"uH9<j%H:Z;D ;%b Vdjw%,Vu:Zb,z,D: D9x,yb,u:9zxzxD%T>V:,%22V:;j&=8",
"HuV49%V, ;D:V:> Dd4;u,DV>>:299D2_999y >2V:99%xc%D ,D:,9> ,:4j&+8",
"VH%9zP%:y>V,9:2 D9cc~:Du:: 2D%V 29z%2 ,Du ,%xd9%,y2V,;;2 D7qj888",
"uu%9%P%H: V29D:uDd4j%,VuVD: V%>F2HuV> ,%H 9djzx9H, H2 V>HV>w95&1",
"uuuzz%VV:, MuD2DD9<j%:V%yK2,u%2>229%,bLMV:DdcqI%V::DT,%>,D<d;181",
"~uux3%H2ZVD>>VZZD9dw%:Du,2DS%%H`>My%%D DH:D;11z%:K:H >%2K:;d;185",
"z%481%%D,H^:MVD!Dcj9%,Vu, Duuu2KbVHu%:2:u:9q1j99V:HuVb,V,V:9z1==",
"dxd5j%uVDu:2Hu,DD9d<%,V^,T2uuu:TWZVuu2MD^:Ddqqc%V,uVy,u%,! 01=*@",
"uu;5w%` 2u,F2~2>Vxjr%:DHH, D%uVD,:V%: ,Hu:D;4jzVDbHuKZu;yD<5<11>",
"H^%;c%VH:uu>>uDH%;d9u,VuVMTE uH: uu:KJbSu:Dd9jdV^,%u:2HV!%<qj===",
"Vuz9x%zV>;uDH bDV%9j%,H~^!:DuuuSHuuYV,S`Y:9j<j9zH> %DVDb:V:4r+OO",
"%uc3j%%DJ2u:u TDV;q8u>39,;;cdd4444<:;:::;19c75;VuZTu,DVZ V:53&=2",
"z%crw%H^Vuuuu'H^V<53~,sOOOO@@@OOOO@@@.OOO1u<819HYSHuu~Y^`V:<95==",
"9Ddw4z;D9;d;4;;;q;j<%uHHHHHH%HHuu^%HuHVVVH%<54xq,;j<j44;;373j=@O",
"z%9djP1$++O+OOO+1z<4jj44djjcj4j444jjw4jjjd<qq5d7+OOOOOOOO+q55=Ol",
"%uzdcu~uuPP%%%%%u%dw8yy81=aQOaaaypq118=t071==8d%%%xzz999;;;538+b",
"%uzdzuu~~~uuuuPu%9rw5q1888888154993873d<t++=539zz999djjdndj538$U",
"u^%%d4qqqqwwqqwqqw15535555w3<99;4115<7=++853w551t88ppq1q7181w8$1",
"uu9088]p1p5pqq511rw55535q53;d518853=OO=1<d343w58=81551111113<1b2",
"9z;q<9j33ww3jjd<<<5358585;d71153jj==54;j553dd3355534553<<<d;z:U+",
"%%%uu%z%%%%%uuuuuHHuu%uuuuuV%%%HH%%%uV%%%VVVV%%%%%%%%%%uHu%%u<O=",
"9%%Vu%%%%uuuu%%%u%%%u~YY^HHV99%;:9%D9D%%D%%9%VDVVV%%%%uuu99dz%,&",
"%%%%%%%%u%u~%9%%%zxuYu%%uHV;;%V,9%V9%VV%V%%VV99,;99%V%xc;;9%%uu3"
};
