/* XPM */
static char *tile0811740675773[] = {
/* columns rows colors chars-per-pixel */
"64 64 13 1 ",
"  c #1F1F27",
". c #171B23",
"X c #272727",
"o c #272B37",
"O c black",
"+ c #3F3F3F",
"@ c #2F2F3B",
"# c #2F2F2F",
"$ c gray9",
"% c #13131B",
"& c #0F0F13",
"* c #0B0B0F",
"= c white",
/* pixels */
"      . .   . ...     X  X  .      X X XXXXXXXXXXXXX X  XXXXXXXo",
"XXXXXXX OOOOOOOOOOOOOOOOOOOOOOOOOOOOOOOOOOOOOOOOOOOOOOOO.ooooooX",
"XXXXXX  OX+++++@+@@@@@@@@@@oooooo##X#XXXXXXXXXX.X$.$$$.O$oooooXX",
" XXXX   OXXXXXXX........%%%%%%%%&&&&&&&*********OOOOOOOO$oooXoX ",
" XXXX   O@XXXXX..........%%%%%%%%&&&&*&********OOOOOOOOO$oooXXX ",
" XXX    O@XXXX..........%%%%%%%%%&&&&&**********OOOOOOOO$oooXXXX",
" X X    OXX.X.X........%.%%%%%%%%&&&&&&********OOOOOOOOO$oooXXXX",
".       OOOOOOOOOOOOOOOOOOOOOOOOOOOOOOOOOOOOOOOOOOOOOOOO$oooXXXX",
"   XX   %%%%%%%%%$%%%%%%$$$$$$$$$$$$$$$$$$.............. oooXXXX",
"XXXXX   OOOOOOOOOOOOOOOOOOOOOOOOOOOOOOOOOOOOOOOOOOOOOOOO.oooXXXX",
"XXXXX   OX+++++@+@@@@@@@@@@oooooo##X#XXXXXXXXXX.X$.$$$.O$XooXXXX",
" XXXX   OXXXXXXX........%%%%%%%%&&&&&&&*********OOOOOOOO$XooXXX ",
"XXXXXX XO@XXXXX..........%%%%%%%%&&&&*&********OOOOOOOOO$ooXXXX ",
"XXXooX XO@XXXX..........%%%%%%%%%&&&&&**********OOOOOOOO$    XX ",
"XXXooXXXOXX.X.X........%.%%%%%%%%&&&&&&********OOOOOOOOO$oooXXX ",
" XXooXXXOOOOOOOOOOOOOOOOOOOOOOOOOOOOOOOOOOOOOOOOOOOOOOOO$XXXXXX ",
"XXXoXXXX$$$$%$%%%$%%%$$$$%%%%%%$$%%%%%%%%%%%&******&%$$$XXXX  X ",
" XXoXXXXOOOOOOOOOOOOOOOOOOOOOOOOOOOOOOOOOOOOOOOOOOOOOOOO.XXX XX ",
" XXoXXXXOX+++++@+@@@@@@@@@@oooooo##X#XXXXXXXXXX.X$.$$$.O$ XX XXX",
"XXXoXXXXOXXXXXXX........%%%%%%%%&&&&&&&*********OOOOOOOO$.. XXXX",
"XXXoXXXXO@XXXXX..........%%%%%%%%&&&&*&********OOOOOOOOO$    XXX",
" XXXXXXXO@XXXX..........%%%%%%%%%&&&&&**********OOOOOOOO$    XXX",
" XXXXXXXOXX.X.X........%.%%%%%%%%&&&&&&********OOOOOOOOO$XXXXXXX",
" XXXX   OOOOOOOOOOOOOOOOOOOOOOOOOOOOOOOOOOOOOOOOOOOOOOOO$XXXXXXX",
" XX     %%%%%%%%%$%%%%%%%%%%%%%%%%%%*%%%%%%$%%%%%%%%$%%%XXXXXXXX",
"XX     .OOOOOOOOOOOOOOOOOOOOOOOOOOOOOOOOOOOOOOOOOOOOOOOO.XXXX   ",
" XX    .OX+++++@+@@@@@@@@@@oooooo##X#XXXXXXXXXX.X$.$$$.O$XXXX XX",
"XXXXXX .OXXXXXXX........%%%%%%%%&&&&&&&*********OOOOOOOO$XXXXXXX",
"XXX    .O@XXXXX..........%%%%%%%%&&&&*&********OOOOOOOOO$XXXXXXX",
"XXX    .O@XXXX..........%%%%%%%%%&&&&&**********OOOOOOOO$XXXXXoX",
" XX    .OXX.X.X........%.%%%%%%%%&&&&&&********OOOOOOOOO$ XX Xoo",
"XXX    .OOOOOOOOOOOOOOOOOOOOOOOOOOOOOOOOOOOOOOOOOOOOOOOO$XXX XoX",
"XXX    .%%%%&%%%%%%%%%%$$$$$%%$$$..$$.$$$$$%%%%%%%%%$$$$XX XXXoX",
"   .....OOOOOOOOOOOOOOOOOOOOOOOOOOOOOOOOOOOOOOOOOOOOOOOO...  XX.",
"XoXXXX .OX+++++@+@@@@@@@@@@oooooo##X#XXXXXXXXXX.X$.$$$.O$XXooooX",
"XXX    .OXXXXXXX........%%%%%%%%&&&&&&&*********OOOOOOOO$ XXXXXX",
"XXX    .O@XXXXX..........%%%%%%%%&&&&*&********OOOOOOOOO$XXXXXXX",
"XXX    .O@XXXX..........%%%%%%%%%&&&&&**********OOOOOOOO$XXXXXXX",
" XX    %OXX.X.X........%.%%%%%%%%&&&&&&********OOOOOOOOO$XXXXXXX",
" XX    %OOOOOOOOOOOOOOOOOOOOOOOOOOOOOOOOOOOOOOOOOOOOOOOO$XXXXXXX",
" XX    .%%%%%%%%%%%%%%%%$$%%%$$$%%%%%%%%$$$%%%%%%$$%%%%% XXXXXXX",
" XXX   .OOOOOOOOOOOOOOOOOOOOOOOOOOOOOOOOOOOOOOOOOOOOOOOO. XXXXXX",
" XXX   .OX+++++@+@@@@@@@@@@oooooo##X#XXXXXXXXXX.X$.$$$.O$ XXXXXX",
" XXXX  .OXXXXXXX........%%%%%%%%&&&&&&&*********OOOOOOOO$ XXXXXX",
" XXXX  .O@XXXXX..........%%%%%%%%&&&&*&********OOOOOOOOO$ XXXXXX",
" XXXX   O@XXXX..........%%%%%%%%%&&&&&**********OOOOOOOO$ XXXXXX",
" XXXX   OXX.X.X........%.%%%%%%%%&&&&&&********OOOOOOOOO$     X ",
" XXX   XOOOOOOOOOOOOOOOOOOOOOOOOOOOOOOOOOOOOOOOOOOOOOOOO$oXXXXXX",
"XXXXXXXX$$$$$$$$$$$$$$$$%%%$%%%%%%$%%%%$$$%$$$$$$$%%$$$$ XXXXXXX",
"XXXX    OOOOOOOOOOOOOOOOOOOOOOOOOOOOOOOOOOOOOOOOOOOOOOOO.X XX XX",
"XXXX    OX+++++@+@@@@@@@@@@oooooo##X#XXXXXXXXXX.X$.$$$.O$XXXXXXX",
"XX      OXXXXXXX........%%%%%%%%&&&&&&&*********OOOOOOOO$XXXXXXX",
"XX      O@XXXXX..........%%%%%%%%&&&&*&********OOOOOOOOO$ XX XXX",
"XX      O@XXXX..........%%%%%%%%%&&&&&**********OOOOOOOO$ XXXXXX",
"XX      OXX.X.X........%.%%%%%%%%&&&&&&********OOOOOOOOO$X XXXXX",
"XX      OOOOOOOOOOOOOOOOOOOOOOOOOOOOOOOOOOOOOOOOOOOOOOOO$XXX XXX",
"XX      %%%%%%%%%%%%%%%%%%%%%%%%%%%%%$%%%%%%%%%%%%%%$%%%    .XXX",
"XX      OOOOOOOOOOOOOOOOOOOOOOOOOOOOOOOOOOOOOOOOOOOOOOOO.oooXXXX",
"XX      OX+++++@+@@@@@@@@@@oooooo##X#XXXXXXXXXX.X$.$$$.O$XXXXXXX",
"X       OXXXXXXX........%%%%%%%%&&&&&&&*********OOOOOOOO$XXX  X ",
"XXXXXX XO@XXXXX..........%%%%%%%%&&&&*&********OOOOOOOOO$XXXX XX",
"XXXXXXXXO@XXXX..........%%%%%%%%%&&&&&**********OOOOOOOO$XXXXXXX",
"XXXXXXX OXX.X.X........%.%%%%%%%%&&&&&&********OOOOOOOOO$XXXXXXX",
"XXXXX   OOOOOOOOOOOOOOOOOOOOOOOOOOOOOOOOOOOOOOOOOOOOOOOO$XXX XXX"
};
