/* XPM */
static char *tile0601740675925[] = {
/* columns rows colors chars-per-pixel */
"64 64 39 1 ",
"  c #333343",
". c #2F2F3B",
"X c #171B23",
"o c #0F0F13",
"O c #272727",
"+ c gray42",
"@ c gray45",
"# c #5F6377",
"$ c #676B7F",
"% c #5B5F73",
"& c #272B37",
"* c #57576B",
"= c #73778B",
"- c gray39",
"; c #434757",
": c gray34",
"> c #23232F",
", c gray12",
"< c #373B4B",
"1 c #4B4B5F",
"2 c #3F3F4F",
"3 c #4F5363",
"4 c #3F3F3F",
"5 c #2F2F2F",
"6 c gray28",
"7 c #7B7B7B",
"8 c gray31",
"9 c #777B93",
"0 c #6B6F87",
"q c #1F1F27",
"w c #13131B",
"e c #373737",
"r c gray9",
"t c gray6",
"y c #0B0B0F",
"u c #838383",
"i c #070707",
"p c black",
"a c white",
/* pixels */
" . XoO+@#$$#$%&**##$#$$@$$$$$$$$@$+++#$@==@$##--;&-%$$#%:;>o,<<<",
" . XoO1*;;12;2>* 22211**1133**3**3;1*3*%%%%1;24;;.@**%333;Xo,<<<",
" . Xo51*332.22>* 22*%****33*%%%#%*3*%#$%%#%*12611.7*2*%386>oX<<<",
"   Xo5;3*%*112>* 21*%+*****%%%$$%%%%#$$$$#%*;;611 9#*%%*125oX<2<",
"<4<Xo&;3%$$%@1>3221*%%3***3%#%##%%%#+@@0$$%31;431 900$$%3;qoX<6<",
"< >Xo&;3%000#1>#21*%%%*%%%*%$$%%*33%$$00$$%*;11*1 9000$%32qoX><<",
"< 5Xo&1*$000%1O#1*%%%%*%%%%%$$%%**3%#$$0$$%3313*3 7000$%32qoXO<<",
"< >Xo53*$000%1.$*%%%%-##%%%#$$$$%33*#0$$$#%*333%* 700$$%32qoX><<",
"< .Xo&1%$000#3.@%%%%%#$$%%%%$$$$%*3%#$$$$%%3333%* 7$$$$%*;qo,&<<",
"<4.Xo&*%$00$$*.@%%%%%%$#%%%#$$$$%3*%$$$$$%**3;*#* 9$$$$%*;>o,&6<",
"<<.Xo&*#$000$*O$%%%**%$#%%%#$$$$%%%%$0$$$%*3;;*$% 7$$$$$%1>o,&<<",
"<2.Xw5*$000$$*.@%%:**#$$%%%#$$$$#%*%$0$$$%*3;;*$% 7$$$$$%1>o,&<<",
"22 Xw&*$0000$*.9%#-%%#$$%%%#$$$$$%*%$0$$$#%32;*$% 7$$$$$%1>w,.2<",
"22 ,w>*$0000$*.@##+%#+$$%%%+$$$$$%1%$00$$$%32;*#% 7$$$$$%1>w,.<<",
"22.,w>1$00000%.@#$#%-+$$%%%$@@$$$%*%$00$$$%*1;*#* 7$$$$$31>oX&<<",
"22&,wq;$00000%.=$$#%-+$$%%%$@@$$#%*%$000$$%*3;*%* 7$$$$#31>oX><<",
"22&,wq;%00000%.9$$#%#+$$%%%+$$$$#%%%$00$$$%*3;*%* 7$$$$%31>oX&;2",
"2;&,w>;%000$$*.=$$#%%$$$#%#$$$$$$%%#$00$$$%*3;*%*<7$$$$%31>oX&;;",
"2;O,o>;%000$0*.@#$#%%$$$$%#$$$$$#%%$000$$$%*31*%*<9$$$$*31>oX>;;",
"2;.Xoq2%$00$$%.@%$#%#@$$$%%$$$$$%%%$=0$$$$%%33*%*<7$$$$%$1>oX.;;",
"2;.Xoq2%$00$$*.@#$$#+7@$#%%$$$$%%%#$$$$$$$%%33%#*<7$$$0*$1>oX.;;",
"2;.XoX;%$0%*#*q#%@@##@@$#%%$00$$%%%%$$$$$$$%*%%$%<7%*#0*$1>oX.;;",
"2; Xoq;%$0*2**O##@@#%+$$$*%$9=$#%3%%#$$$0$$%%%%$%<7*2*0*%;>oX 11",
"<;.XoO;%$0#*#*O#+@@#%%$$$%%$9=$#%3%%%$@@$$$%%%%#%<7%***$%;>oX.;;",
"<2.Xw&;%$0000*O#@=@#%%$$$%#$0@$$%3%*%@@@0$$***%%*<700$*%%;OoX.;;",
"<;eXw&;%$#$$0*O-=9@#%%$00##$$0$#%3%%%@@@0$$**%%%*<9000$*%2OoXe;1",
"2;eXo&;%#%#$0*O$=9@#%%#$$%*#$@$$%*%%#@@@@$$**%%%* 90000#%2>o,e;1",
";12Xo&;%#%%$0*O$9=$-%%#$$%1%$@$$%*%#+@@@@$%**%%%* 7$000$%2Oo, 1*",
"23;Xo.1%#*%$0*O$9=#:%%%$$%*%$@$$%*++$@@@@$%**%%#* 70000$%;&o,;31",
"2*;Xw&1%%%%$0%O@90#:*%%$0%%#$@$$%3%+@@@@@$%3*%%%* 7$000#%;&o,;31",
";3;Xw.1%%*%$0%O$9@#%%%%$0$#-$@@$%*%%@@@@@$$1*%%%* 7$00$%*;&wX231",
";3;Xw.1%%*%00*O$9@$%%%%$0$##$@@@%%%%%$0@@$$**%%%* 7$$$%33;&wX211",
";3;Xo&;%%*%$0*O$9@+%%%#$%%%:$@@@$%*%#$$$$-%3*%%%* 7$$#*;3;&oX211",
"232Xo&;%*%#0$*O$$$%:*%#$*%%:$@@@$%%%#$$$$-*;%%%%* 7$$$*;31.wX2;;",
"212Xo&;%%%#0$*O@#%%63%%$*%%:$@$@$%#%#$$$$+@**%%%3e9$$0%;:1.w,2;;",
"212Xo&;%%%$0$*O@%%*:*%%*#***=@$$$+#%#$$$$@@%*%%%3e7$00%**1.w,21;",
"2:2rw&;%%#$00%O@**16*%%3%#%*$$0=0@#%#$$$@@%3*%%%3e7$$0%*3;.w,2;;",
"2;.,w&;%%$@00*O$31;21*%**%+#0@0=000##$$$$$#3**%%3e9$#$#*3;.w,&;;",
"2;.Xo&;%%$@=@*O@;:62;**3**#@0$0=0=0$$$#%%##33*%%3e9$$$#%%;&w,5;2",
"2;.Xo&;*%$@@@:O7266<211;**3:$$0$00$$$$*3*##*21*%3 7@$#***2>w,O22",
"2; Xo&1*%+@@@:O9166<2211**26%$000=##%3313*%*21*%*e7$#*33*;Ow,.22",
"2;.Xo&1%%##6#*O73:62222*33;;*$0$0=#*331;133;;2*#*e7%<333%;Ow,.62",
"22.Xo.;%#+#:%*O73;622<;133;;*%$$0$%*1222222<221%*e9%*3333;Ow,.<<",
"22.Xo.;%-@@@$1O#;2<222222*;6*%$0**32<.. 22.2.& ;2 =@$*33;;Oo,.<<",
"2; XoX&<662626trrrrrr5Orrr55OrrrrXrrrrrrwwwwywwXrt2622<<e&Xo,.2 ",
"22 Xo;#@7@=9=$X626e6+::6e6e6::uuuuuuuuu::6+::e66er799@#@@%2oX.  ",
"22.,w&;%-:%$**rtttttrrOOrrrrrrrrrrrrrrrrttwryoortr@$$%;1*;&oX&  ",
"<2O,w&;%-:*$%1r<:6O:0:::e6e667777u-7777@@@:+666-5r@$$:;1*;OoX>  ",
"<<O,w.;%-:*$%;rytrtrrrrrrrrrrrrrrrrrrrrwwwrooryrtt@$$-*132qoX> .",
"<<O,w.;%+:*$%;w ::6-:+6:6-6@-+@@@@@77@+@++::-6e:er@$$*1;32qoX>..",
"< O,w&;%+:1$%;wiytrrrrrrrrtrwrwrwwwrrrwooorotttrtt@$$*1;32qoXX..",
"< 5,w&;%#*;$#;r :::-6-6::6e+:e6:+++@++:6---:6:::6r@$$*;;32qoXO..",
"< >,tO;%$1;$#;riyyytttrrrttrortoroorooooooytttyytt@$@3;;32qoXq&&",
"< >rtX;%$13%#;we6::::::-:-e-:-:::-+:666::::::6::er$#@*;;36qoXq&&",
"< &rt>;%$%*%$2oiittttttttttrotyttooooooooyttttttir$%+36;*6qoXO&&",
".&>,wq;%$***%;oe66::6:::eee:66:66:6e6666:::::666 w#%:*23*;qoX>..",
".>>Xoq;%$#*1;2iittittytttttyytttyyytttyyytttttitiw#1:12**;qoX>&.",
"&>5Xoq;%$$%1; oe666666:666e66666:666::666:666e662w*1:*21*;qoX5&.",
"&q5Xow&<22 .&&ttowwwwwwwrwrrwrrrrwwoowwrwowwotowry<&&....5woX5&.",
" >OXo;#@99@##*O$#$$@$$@@@@@$#*3#@@@@@@@@@$#$#%%-@ 7$@$$$$-2oX..<",
"&& Xo>;%$%*22.O#<13*33%%3**32 .2***3**%%*3121 .28<@6%;;;12XoX <.",
"&& Xo>;*%%3;2.O-2;111133111122&;111313311;442 422O+61;1;;2XoX<<.",
" & Xo>22221224X;.<<<<<<<<<<   2222.......&OO..&>&X:4; .&&.XoX<<<",
" & XotiwtwpXXXywwwwwwwwwwwwwwwwwwpppppppppppippppppppppppiqoX<<<"
};
