/* XPM */
static char *result[] = {
/* columns rows colors chars-per-pixel */
"64 64 19 1 ",
"  c gray9",
". c gray12",
"X c #3F3F3F",
"o c #434757",
"O c #4F5363",
"+ c #57576B",
"@ c #3F3F4F",
"# c #5B5F73",
"$ c #3B433B",
"% c #2F2F3B",
"& c #171B23",
"* c #23232F",
"= c #333343",
"- c #272B37",
"; c #1F1F27",
": c gray34",
"> c #373737",
", c gray31",
"< c white",
/* pixels */
" .XooO++Oo@@#+$. .XooO++Oo@@#+$. .XooO++Oo@@#+$. .XooO++Oo@@#+$.",
"X%%&&&&&&   .*@XX%%&&&&&&   .*@XX%%&&&&&&   .*@XX%%&&&&&&   .*@X",
"O=&.%*%*-*-*%*=OO=&.%*%*-*-*%*=OO=&.%*%*-*-*%*=OO=&.%*%*-*-*%*=O",
"+&*-*--%&**-*--o+&*-*--%&**-*--o+&*-*--%&**-*--o+&*-*--%&**-*--o",
"#&&*;***&&&*;**%#&&*;***&&&*;**%#&&*;***&&&*;**%#&&*;***&&&*;**%",
"@&&-*-*-&;&-*-*=@&&-*-*-&;&-*-*=@&&-*-*-&;&-*-*=@&&-*-*-&;&-*-*=",
"@*-*%*%*-*-*%*%%@*-*%*%*-*-*%*%%@*-*%*%*-*-*%*%%@*-*%*%*-*-*%*%%",
"o&*-*--%&**-*--@o&*-*--%&**-*--@o&*-*--%&**-*--@o&*-*--%&**-*--@",
"O&&*;***&&&*;**@O&&*;***&&&*;**@O&&*;***&&&*;**@O&&*;***&&&*;**@",
"+&&-*-*-&;&-*-*o+&&-*-*-&;&-*-*o+&&-*-*-&;&-*-*o+&&-*-*-&;&-*-*o",
"+--*%*%*-*-*%*%=+--*%*%*-*-*%*%=+--*%*%*-*-*%*%=+--*%*%*-*-*%*%=",
"O.*-*--%&**-*--oO.*-*--%&**-*--oO.*-*--%&**-*--oO.*-*--%&**-*--o",
"o&&*;***&&&*;**%o&&*;***&&&*;**%o&&*;***&&&*;**%o&&*;***&&&*;**%",
"o&&-*-*-&;&-*-*=o&&-*-*-&;&-*-*=o&&-*-*-&;&-*-*=o&&-*-*-&;&-*-*=",
":> *%*%*-*-*%*%O:> *%*%*-*-*%*%O:> *%*%*-*-*%*%O:> *%*%*-*-*%*%O",
"%%,*-XX@=%-%-=,%%%,*-XX@=%-%-=,%%%,*-XX@=%-%-=,%%%,*-XX@=%-%-=,%",
" .XooO++Oo@@#+$. .XooO++Oo@@#+$. .XooO++Oo@@#+$. .XooO++Oo@@#+$.",
"X%%&&&&&&   .*@XX%%&&&&&&   .*@XX%%&&&&&&   .*@XX%%&&&&&&   .*@X",
"O=&.%*%*-*-*%*=OO=&.%*%*-*-*%*=OO=&.%*%*-*-*%*=OO=&.%*%*-*-*%*=O",
"+&*-*--%&**-*--o+&*-*--%&**-*--o+&*-*--%&**-*--o+&*-*--%&**-*--o",
"#&&*;***&&&*;**%#&&*;***&&&*;**%#&&*;***&&&*;**%#&&*;***&&&*;**%",
"@&&-*-*-&;&-*-*=@&&-*-*-&;&-*-*=@&&-*-*-&;&-*-*=@&&-*-*-&;&-*-*=",
"@*-*%*%*-*-*%*%%@*-*%*%*-*-*%*%%@*-*%*%*-*-*%*%%@*-*%*%*-*-*%*%%",
"o&*-*--%&**-*--@o&*-*--%&**-*--@o&*-*--%&**-*--@o&*-*--%&**-*--@",
"O&&*;***&&&*;**@O&&*;***&&&*;**@O&&*;***&&&*;**@O&&*;***&&&*;**@",
"+&&-*-*-&;&-*-*o+&&-*-*-&;&-*-*o+&&-*-*-&;&-*-*o+&&-*-*-&;&-*-*o",
"+--*%*%*-*-*%*%=+--*%*%*-*-*%*%=+--*%*%*-*-*%*%=+--*%*%*-*-*%*%=",
"O.*-*--%&**-*--oO.*-*--%&**-*--oO.*-*--%&**-*--oO.*-*--%&**-*--o",
"o&&*;***&&&*;**%o&&*;***&&&*;**%o&&*;***&&&*;**%o&&*;***&&&*;**%",
"o&&-*-*-&;&-*-*=o&&-*-*-&;&-*-*=o&&-*-*-&;&-*-*=o&&-*-*-&;&-*-*=",
":> *%*%*-*-*%*%O:> *%*%*-*-*%*%O:> *%*%*-*-*%*%O:> *%*%*-*-*%*%O",
"%%,*-XX@=%-%-=,%%%,*-XX@=%-%-=,%%%,*-XX@=%-%-=,%%%,*-XX@=%-%-=,%",
" .XooO++Oo@@#+$. .XooO++Oo@@#+$. .XooO++Oo@@#+$. .XooO++Oo@@#+$.",
"X%%&&&&&&   .*@XX%%&&&&&&   .*@XX%%&&&&&&   .*@XX%%&&&&&&   .*@X",
"O=&.%*%*-*-*%*=OO=&.%*%*-*-*%*=OO=&.%*%*-*-*%*=OO=&.%*%*-*-*%*=O",
"+&*-*--%&**-*--o+&*-*--%&**-*--o+&*-*--%&**-*--o+&*-*--%&**-*--o",
"#&&*;***&&&*;**%#&&*;***&&&*;**%#&&*;***&&&*;**%#&&*;***&&&*;**%",
"@&&-*-*-&;&-*-*=@&&-*-*-&;&-*-*=@&&-*-*-&;&-*-*=@&&-*-*-&;&-*-*=",
"@*-*%*%*-*-*%*%%@*-*%*%*-*-*%*%%@*-*%*%*-*-*%*%%@*-*%*%*-*-*%*%%",
"o&*-*--%&**-*--@o&*-*--%&**-*--@o&*-*--%&**-*--@o&*-*--%&**-*--@",
"O&&*;***&&&*;**@O&&*;***&&&*;**@O&&*;***&&&*;**@O&&*;***&&&*;**@",
"+&&-*-*-&;&-*-*o+&&-*-*-&;&-*-*o+&&-*-*-&;&-*-*o+&&-*-*-&;&-*-*o",
"+--*%*%*-*-*%*%=+--*%*%*-*-*%*%=+--*%*%*-*-*%*%=+--*%*%*-*-*%*%=",
"O.*-*--%&**-*--oO.*-*--%&**-*--oO.*-*--%&**-*--oO.*-*--%&**-*--o",
"o&&*;***&&&*;**%o&&*;***&&&*;**%o&&*;***&&&*;**%o&&*;***&&&*;**%",
"o&&-*-*-&;&-*-*=o&&-*-*-&;&-*-*=o&&-*-*-&;&-*-*=o&&-*-*-&;&-*-*=",
":> *%*%*-*-*%*%O:> *%*%*-*-*%*%O:> *%*%*-*-*%*%O:> *%*%*-*-*%*%O",
"%%,*-XX@=%-%-=,%%%,*-XX@=%-%-=,%%%,*-XX@=%-%-=,%%%,*-XX@=%-%-=,%",
" .XooO++Oo@@#+$. .XooO++Oo@@#+$. .XooO++Oo@@#+$. .XooO++Oo@@#+$.",
"X%%&&&&&&   .*@XX%%&&&&&&   .*@XX%%&&&&&&   .*@XX%%&&&&&&   .*@X",
"O=&.%*%*-*-*%*=OO=&.%*%*-*-*%*=OO=&.%*%*-*-*%*=OO=&.%*%*-*-*%*=O",
"+&*-*--%&**-*--o+&*-*--%&**-*--o+&*-*--%&**-*--o+&*-*--%&**-*--o",
"#&&*;***&&&*;**%#&&*;***&&&*;**%#&&*;***&&&*;**%#&&*;***&&&*;**%",
"@&&-*-*-&;&-*-*=@&&-*-*-&;&-*-*=@&&-*-*-&;&-*-*=@&&-*-*-&;&-*-*=",
"@*-*%*%*-*-*%*%%@*-*%*%*-*-*%*%%@*-*%*%*-*-*%*%%@*-*%*%*-*-*%*%%",
"o&*-*--%&**-*--@o&*-*--%&**-*--@o&*-*--%&**-*--@o&*-*--%&**-*--@",
"O&&*;***&&&*;**@O&&*;***&&&*;**@O&&*;***&&&*;**@O&&*;***&&&*;**@",
"+&&-*-*-&;&-*-*o+&&-*-*-&;&-*-*o+&&-*-*-&;&-*-*o+&&-*-*-&;&-*-*o",
"+--*%*%*-*-*%*%=+--*%*%*-*-*%*%=+--*%*%*-*-*%*%=+--*%*%*-*-*%*%=",
"O.*-*--%&**-*--oO.*-*--%&**-*--oO.*-*--%&**-*--oO.*-*--%&**-*--o",
"o&&*;***&&&*;**%o&&*;***&&&*;**%o&&*;***&&&*;**%o&&*;***&&&*;**%",
"o&&-*-*-&;&-*-*=o&&-*-*-&;&-*-*=o&&-*-*-&;&-*-*=o&&-*-*-&;&-*-*=",
":> *%*%*-*-*%*%O:> *%*%*-*-*%*%O:> *%*%*-*-*%*%O:> *%*%*-*-*%*%O",
"%%,*-XX@=%-%-=,%%%,*-XX@=%-%-=,%%%,*-XX@=%-%-=,%%%,*-XX@=%-%-=,%"
};
