/* XPM */
static char *tile0501740674605[] = {
/* columns rows colors chars-per-pixel */
"64 64 18 1 ",
"  c #334333",
". c #373737",
"X c #2B372B",
"o c #3F4F3F",
"O c #6B7F6F",
"+ c #5F7363",
"@ c #536757",
"# c #475B4B",
"$ c gray12",
"% c #1F231B",
"& c #87978B",
"* c #9FAFA7",
"= c #93A397",
"- c #CBD3AB",
"; c #272727",
": c #0F0F13",
"> c gray9",
", c white",
/* pixels */
" .X.. XX   X XXXX  X XXX XXX X X  X.X  XX  XX XXX  X  X XXXXXX X",
"oO+@@++++++@++++@@@@@@##@@#@@oX$oO@@@@@@@@@@@@@@@@@@@@@@@@@@@o.%",
"o&******==--*===&&&&&+++OOOO#o.$X&******==--*===&&&&&+++OOOO#oX$",
"X*++@@@@@@@@@@@@@@#@@########@X%X*+++@@@@#@@@@####o@####o####oX;",
"o*@@+@+++++@+@@@@++@@@#@@####oX%X*+@+@@@@@@#@@@##@@##@###o###o %",
"o*+++@+++@++@@@@@+@#@#@@#####oX;X*@++@O+@@@@@@@##@@#@o#@@#@o#oX;",
"X*++@@++@@@@@+@#@@@@@#####@#oo ;o*@+@@@@@@#@#@@##@@@@#o@o#o#ooX%",
"o*@@@@@@@+###@@#@@#o#######@ooX%X*@+++@+@########@#####o#o#@ooX%",
"X=++@@@@@#@@#@@@#@@###@###oooo ;X=@++++O@#@@@####@#o###oo@o#oo ;",
"X=+++@@@@#@@@@@o###o#####oooooX$X=++++++@#@@@@@##@@o#####o#ooo.$",
"X&@+++@+@@@@@@@###@@#@##o#oo#oX$X&O++@@@@++++@@##@@@@@#######oX$",
"X&+@++@@@+@@@@@@@@@@o@#o##oo#oX$X&+@@@@@+@+@@+@@@+@@#@@o#ooo#oX$",
"X&@#+@@@@@O@@@@@@@@@@@#####oooX%X&@o@@+@@@++@@@@@@+@#@###ooo#oX$",
"X&@++@@@@@@@@@+@@@#@#o@ooo@ooo %o&@@@@+@@@@@@@@@@@#@@@@#o##o#oX$",
"o&@+@@@#@@@@@@@@@@##o#ooo##ooo.%X&@@@@@##@@@@@@@@@##@######oooX%",
"o&@@@@@###@@o@#@@@#@@###o@###o %o&@@@@@@##@@#@@@@@#@@######@#oX%",
"X&@@@@#@@@@###@@@@#@@@@@###@#oX%X&@@@@#@#@@#@##@@@@#o#@oo####o.%",
"o&@++@@@@@@@@@@@@##o#@#o###o#o %o&O+@@#@#@@#@##@@@@o#@#o#####oX$",
"X+@++@@@@@@@@@@@@@oo##o#oo##@oX$X+@+@@@@@@@@###+######o######o.$",
"X++@@@@@@#@@@###@####o##o####o.%o+@@@@@@@o#@####@####o#oo#o##oX$",
"X+@#@@#@####o#@@@###o###o###oo %o+##@#########@@@###o########o.$",
"X+@@@#@@#@#@@#@@##@#########oo.%X+@@@#@@###@##@@############oo.$",
"o+@@o##@@@@@##o@#@###@@##o###o.;o+@@oo######o##@#####@###oo#oo ;",
"X+@@@@#@#@@#@#@####@#oo####@#o %o+@@@##@o#####@#o##@ooo##o##ooX%",
"X+@@@@#@@#@@@@####@#ooo@#####oX%o+@@@@o@####@@##oo##ooo####o#oX$",
"X+@@##@####@#@@o####oo#@#o@##o ;o+@@o#@#o####@@######o###@@##oX;",
"X+@@######o############@#o#o#oX;o+@@##@@####@###########oo###oX;",
"XO#@o@######@###@@##o###@o#o@oX;oO###@######@o##o##ooo##@####oX;",
"XO@#@###o@##o#@##@o#ooo#@@@#ooX%oO#@@#o##@###o##o@###oo#o@@##oX%",
"oO#o#@##o####o##o#o@o####@###o.$oO#oo@#@###########@o####@oooo %",
" OXX  oXoXXXXoXX XXX  oXoXXXX .$ OXXXXXXXXXXX oXo XXoX X X X  .%",
":%::::%>::::>%%>%:::::%>::::>;$%:::>>>:>%>>%>::::::>:::%%%>%>%$%",
"ooX XooXXooXXoooXooXoXoXXXXXX oXo XoooooooooooXXoooXoXXXoXXoo oX",
"oO+++@@++++++++@@@@@@@@#@@@#@oX$o+++++@++++@++++@@@@@@#@@@@@@oX$",
"X&******==--*===&&&&&+++OOOO#o.$X&******==--*===&&&&&+++OOOO#o.$",
"X*++@@@@@###@@@@@@#@@##@#####oX%X*O+@@@@@#@#@@##@##o#oo@o####oX%",
"X*+O+@+@@@@#@@@@@@@@@@@@#####oX%X*+@@@@@@@+#@@@#@@@@o@##o##o#oX%",
"X*+++@++@@@@@@@@#+@o@#@@#####oX;X*+@+@@+@@@@@@@##@@o@o#oooo##oX;",
"o*+++@@@@+@@@+@@@@@@@o#o#o##oo ;o*++@@@@@@#@#@@##@@@@#ooooo@#o ;",
"X*@++@@@@@##@@@####ooooo#####oX%X*@++@@+####@@@#o##ooooo#####oX%",
"X=++O@@@@#@@@######o###o####oo ;X=+++O@@###@#######o#@oo##@#oo ;",
"X=+++@@@@#@@@#@o#@#o###o#####oX$X=@O+@@@@#@#@#@@#@#o###o#o###oX$",
"X&+++@@+@@@@@@@o##@@#@######ooX$X&O+O@+@@@@+@@@o@@@@#@######ooX$",
"X&+@@@+@+@@@#@@##@@@#+#oo#ooooX$X&+@+@@@@@@@#@#@@@@@#+#o##ooooX$",
"X&@#@@+@@@@@#+@@@@@@o@#######oX%X&@@@@+@@@+@@@@@@@@@#@#######oX%",
"o&+@@@+@@@@@@@@@@@o##o@o#####o %o&+++@@@@@@@@@@@@@o@#o@o#@###o %",
"X&++@@+@@@@@@@@#@###oo####o#oo.%X&++@@@@@#@@@@@@####o#o###o#oo.%",
"o&+@@+@@@#@@#@@@@@#####oo###oo %o&+@@@@###@@@@@@####o##oo###oo %",
"X&@@@@#@@@@#@@@@@@@#o#@oooo#ooX%X&@@@@#@@@@@@@@@@@@###@#o####oX%",
"o&+++@@@#@@@@@@@@@@#@@@##oo##o %o&+@@@@@#@@@@#@@@@###@#o##o##o %",
"X++++@@@@@@@@@#+@@######oooo#oX$X+++@@@@@@@@@@@@@@####oooo#o@oX$",
"o+@+@@@#@#@@@#@#@###@o#o##o#oo.%o+++@@@@@#@@#o@@@####o@######o.%",
"o+@#@@o###@@##@@@#######o###oo %o+@@@@##@#@@#@@@@#######o#o##o %",
"X++@@#@@#@@@@#@@############oo.%X+@@@#@@#@#@##@@@###########oo.%",
"o+@@##@#@##@###@#####@@#oo###o.;o+@@####@@@@##o@##@#@@##o#oo#o.;",
"o+@@@@#@o####o@#@#@@oo######oo %o+@@@#o@o@@@##@##@#@###o#oo#oo %",
"o+@+@@#@###@@@@#o############oX%o+@@@@#@@#@@@@@@###@#@####oo#oX%",
"o+@@##@####@#@@######oo###@##o ;o+@@oo#o######@#@###@##ooo@#oo ;",
"o+@@##@@@@#####o@#####@@#o###oX;o+@@##@#@@#@@@@#@##@####o#o##oX;",
"oO@@#@####@#@o#####o#o##@####oX;oO#@o@#@#@@@@###@@@##o#o@o##ooX;",
"oO#@#####@#@##@#o@##oo@#o@@##oX%oO@#@####@#@@@##@@o@#o##o@@o#oX%",
"oO@@#@@@##@@#######@#o###@oooo.$oO@##@#@#o@###@@#@#@#####@o#oo.$",
" OXoX X XXXoXXXXXXXoX X X  X  .$ OXXoXoX oX oXooX XoXXoX X XoX.$",
":::%>%:::::%>::::>%%>%:::::%>$$%:%::::%::%%%::::%>:%>%>>%::::$$$"
};
