/* XPM */
static char *result[] = {
/* columns rows colors chars-per-pixel */
"64 64 20 1 ",
"  c #434757",
". c #2B1300",
"X c #5F430F",
"o c #57576B",
"O c #878BA3",
"+ c #979FB7",
"@ c #7F839B",
"# c #777B93",
"$ c #5B5F73",
"% c #432B07",
"& c gray42",
"* c #6B6F87",
"= c gray34",
"- c #4F5363",
"; c gray45",
": c #838383",
"> c #3F3F4F",
", c #939393",
"< c gray28",
"1 c white",
/* pixels */
" .XXXXXXXXXXXXXXXXXXXXXXXXXXXXXXXXXXXXXXXXXXXXXXXXXXXXXXXXXXXX.o",
".O+++++++++++++++++++++OOO@@@@@@@@@@@@@@@@@###################$.",
"%O&**&*&*&***&&&&=&**$==**&$&&**&&$*&*&&==*&&$*=*&**&*&&***&&&-%",
"%O=*$&=&&*&&$&=*&$**$$&=*&&=$&*$&*&***&&&&***&***&&=**&=*****;-%",
"%O*&&=$$$$&$&==$$&&&*$==&*&&$*$$&*&*&===&$*=$&*$==&*&$&$*&&*&*-%",
"%O=*=$$=$*=$&=$=*$&$$=$$**$&&=&*&&&*&&&$=&&&==**&&$&*&&&**&&**-%",
"%O=&&$$=$&*$$$$&*$*&=$$=&$==$==*==&===$&$$*==$&=&&&**&*$***&**-%",
"%O=*$=$$$*$=$$=$&$$&*$$==&&$$&=&==&*$$=&===&=$$$&$&&*&&=&&==&*-%",
"%O$*&$$$$*$$&*$**$$*$$$&*==&$$&&$==*$*===$$$&$$*$=$*&&*&*&&**;-%",
"%@$&$$$$=&$=&$$&=$$***$$&&=*&$*=$*$*&&&==$&*$&**&&=&***&&**&**-%",
"%@=&$=*&$&$$$=$$&$$&$&$$$*$$$$&*&$&*==$&=&**$$&=&&&&&&&*&&&=&&-%",
"%@&=$$=&&$$$$&=$$$$=$*$=*$$$&&=$&==*&$====*&==*$&$=&&$**&*=*&;-%",
"%@$&$$$$=*&$$=$**$&*$$$$$==$$$=*=$==$=&=$=$&$=$$&$=$&=$=*&$&&*-%",
"%@$&$$$$=&$$$$$=*$$*$&$&=$&=$$====&$=====$=&=====$$=&&$$&==&&;-%",
"%@$$$$$$=$$$&$$$$$=&*=$=&*=$$==&=$=*&$$$=&&&$&$&=$$&=&$&$&&&=*-%",
"%@==$$$==$$$&$$$$$$$$*$$===$$=*=&&=*&$&=$=$&$&**&&$***&&*&&&*&-%",
"%@$$$=$$$$&$&&&&$==&**$&*=$$$&===&=*=$$=$=&*$$$=$$==&&$$=&&&$*-%",
"%@=$$$$$==$$$&**$$*&$=$$&$=$&$&&$$=&$$==$=$*$&$$$$$$=*$==&&*=$-%",
"%@==$$$$$$&=$$*$=$$**&==&$=$$===$$=*&====$$=$&*==$=&=*&=====$;-%",
"%@=&$=$$$*&==$$*&$$&$$==$$$&$=&==$=$&*&&$$=$*&$*$&&**&&=*&&**&-%",
"%@====&==&=$&$$*=$=*&&$$=*=*&===&=$&&=&=$$$*=$$*===&**$&&**&=*-%",
"%@=&=$===&======*=$&===$$&=$$==&====$==$==*&=$=$==&&=&==&=&=&&-%",
"%@====$=$=&====$$====&==*==$$&=$===&$==$==$=====$$====$$&===$;-%",
"%@=$$==o=&==$==&&==*===$=$===$=*===$=$$===$&$$==$===&=$$*====*-%",
"%@========$=$===*==*=&$$=$&==$=$==&==$$$=$=&$&$=$$$=*&$=&=&&&;-%",
"%@===$$==$===&$$=$=&&=$=&*=$====$=====$$==**$==&==$==&$&$&&*=*-%",
"%@==$&====$===&&=$==$&=====$$$*$$*$*==$$=$&*&*$*==$&=*$$$&**$&-%",
"%@=**&&==*&=&&&=&$=&**&$$=$$=$==&&&&$$$$$$&$=$$=$&*=&&*=*&&&&*-%",
"%@&$&=&&=$&==$&&=$&&=$=&$$$$$&&&&&$&=$$$$==*&$==$$$=$&$$$&&*&$-%",
"%@$==$=$$===$$*$=$=*&&=$==$$&$=$&=*&==$$$=$$=$*=$$=&&*$==&=&=;-%",
"%@&&&=$&=&$=$=*=$&$*=*$$$$$$=$*$$*=$===$$=$&=$&===$$$&=$$*&*&& %",
"%@=&&&&==*$$=$**$=&&$$$$$$$$$=$&$$$$=&$$$$$$$=&=&*$*&=$$&&=$&* %",
"X#=$==*==*$$*$$=&=&*$*===$$$=$===$=&$&$$$=$$$$&$&==&=$$=$$&&=* %",
"X#=$==$====$=$*$$$=&*$&=$&=$=$=$$*$&&=$$$$$*$&&&$$$&&&&=&&&&&& %",
"X#=*$$$==&=$=$=*$$=*&*=$&*&$=&&=&=*$$=$$=$$$=&*=$$&&&&&&$&===; %",
"X#=$$=======$$&=$======$&$$$$$=$$*===$$$=$=*=$&==$$&*&&$&*&&&$ %",
"X#&&*&*&=&$&&=*&===***=$***&=$*=&$$$&&$$==&=&=&=*=$&==*&&&*&&; %",
"X#=&=*&==&$=$*&$*&=$&&$$=$=&$$$&$$&$$=$=$===$$&$=&$**&*=**=&&; %",
"X#==*&&==*$$$$**&=&$$$$&$$=$=$$&==*$$=$=$=&$$=&&$&*=&&=&$$$$&; %",
"X#==$&=====&===$===&=*&$*$=$=$==*$$==$&$$$==$$===$$&=======&=& %",
"X#=&&=&==&$==&=$===&**$=====$&$=*&$==&===$==$*===$====&===&&$& %",
"X#&&&**&&&$&=&$&$$&***$=&*=&$&==*=**===o$*=&&**=$&*&$====&&&=* %",
"X#&&&**&**$&$**$$$$**====*&$&=&*=&*&**=&==$&&&&$&=&&$=*==$=**& %",
"X#;**&&&*&$&$*$=&$$*=*$=&*=&==*&$=&=*====$*&=$&&**&&***&=&**=$ %",
"X#&**$$=&$=$=&&*$==$*$==&===$$=$&&&&&=&=&$==&=&$$$&&==$&$$***& %",
"X#&&=*=$$&$&=&*$$=$&&===&&=$&=====*==&===$=$&$*$$$&&&=*$&&&=&& %",
"X#::*&&&&**&$&$&$$==*=$=**=====&*=====$=$=$$=$&&$*$*=$$**$**&: %",
"X#*#*&*&$**&*&**$===*&$$&*&&$&&&**$&==&$&$$=$$&$&*=&$$&$=&=$&; %",
"X#&&**=$=&&*$&&=*$==&$&$$&=&$$==$*&=$$&=$$=$$=&==$$&$=&$$$$=*;>%",
"X#;****&&****&**&$&*&$==$$*$==&$=$$*=$===$$&$=$$$&&&$$$$$&=$*:>%",
"X#&**&=$&&*&$&*===$&====**$==&&*$====$==$==$====$$&$&=$$=&=&&*>%",
"X#&**&&&=*&&&*&&&$=**&$=&$==$$$=&=====$==$=$=$$$=$$=&=&===&==#>%",
"X#*&*&$$**&&$***&&=&*&$=&&=$==&*$$=&===$$&$$$$$$&$$$$$$*$*&**;>%",
"X#&&&&&&&**&=&***=&**&==&==&===&=&$$=&$=&&$$$===&*$&&$$&*=*&;#>%",
"X#$=&====&&&=&=**==&&&====&=====&=&====$===$====&=&&&=&==&&==@>%",
"X#==&&==$&*&=*=&&=&&**==&=&===*&$=&=========&$==&$$&*&&&&=&=&;>%",
"X#&**&=$$$=&*&*$&*$**&==&*===$=*====&$$=$$==$$$=$$&&$&$==&==&*>%",
"X#&&***=&&**&****=&**&*&&*&====&$==&=======$$$=&=$$*$=&=====&#>%",
"X#&=*&*$&*=&****;&&*&&$==$=$$==$$$$&==$o$$$$$$$==$$&*&*$=*&$**>%",
"X#*&&&&=&**&&;**:&&;&&===&&*===&&&&==&&$&&$$$=&=&$&&$**&*=*&&#>%",
"X#$==&=====*&&&=&===&===&======&==&=========&&====&&$&&&&===&;>%",
"X#;&&$*;;&&$*;#:;,;;;#;;=*&&=$$$*&=*;&=======$$&=$&$;$*;$$=$&*>%",
".>>>>>>>>>>>>>>>>>><<<<<<<<<<<<<<<<<<<<<<<<<<<<<<<<<<<<<<<<<<<>.",
"-.%%%%%%%%%%%%%%%%%%%%%%%%%%%%%%%%%%%%%%%%%%%%%%%%%%%%%%%%%%%%.-"
};
