/* XPM */
static char *result[] = {
/* columns rows colors chars-per-pixel */
"64 64 41 1 ",
"  c gray12",
". c gray31",
"X c #838383",
"o c gray45",
"O c #8B8B8B",
"+ c #939393",
"@ c gray64",
"# c #9B9B9B",
"$ c gray42",
"% c #272B27",
"& c #3F3F3F",
"* c gray34",
"= c #7B7B7B",
"- c gray39",
"; c #4F5363",
": c gray28",
"> c #2F2F2F",
", c #0B0000",
"< c gray6",
"1 c #13131B",
"2 c #0F0F13",
"3 c gray9",
"4 c #070707",
"5 c #1B0700",
"6 c #171B23",
"7 c #271700",
"8 c #272B37",
"9 c #272727",
"0 c #3B1B07",
"q c #1F1F27",
"w c #373B4B",
"e c #23232F",
"r c #3F3F4F",
"t c #373737",
"y c #333343",
"u c #331707",
"i c #070B07",
"p c #434757",
"a c #2F2F3B",
"s c #4F270F",
"d c white",
/* pixels */
"   .XooXXoooXOO+@###+##+XXXXoOO$oXXoXXXooXXO+@@##++#+XXXXooO   .",
"%&&$*.......***$o$$$o===$---***;***......***$oo$$oo==$$--***%&&$",
"%&&$*.......***$o$$$o===$---***;***......***$oo$$oo==$$--***%&&$",
"&&&o&&&&&&&&&&&-o****ooo*****:::&&&&&&&&&&&&-oo****oo******:&&&o",
".>>X>       >  >>>>>>&&&>>>>   >>>>      >> >>>>>>>&&>>>>   .>>X",
":..o,,,<12212<<3111<<113<<<433312,,,<112122<3111<<<13<<<4333:..o",
":..o,,,<12212<<3111<<113<<<433312,,,<112122<3111<<<13<<<4333:..o",
":**X54444444444444444444444443346554444444444444444444444443:**X",
":..X7<<1133133311663<33<311<3>><877<1113133311163<<3<331<33>:..X",
"&**o1<<33336133%%%%>933139983>>6811<33336113%%%%>9931339833>&**o",
"&**o1<<33336133%%%%>933139983>>6811<33336113%%%%>9931339833>&**o",
"***o&009q88weeerw..w999>t  <...we&&09qq8weeerww.w999>tt <...***o",
".**X%44<<<<<<<<<<<<<<<<44444<>><y%%4<<<<<<<<<<<<<<<<44444<<>.**X",
"&**O%443133133313991<33<1<<43>><w%%43113133313391<<3<11<433>&**O",
"&**O%443133133313991<33<1<<43>><w%%43113133313391<<3<11<433>&**O",
"t..+%<<3>336133%>>> 3>>  7773>>6w%%<3>>36113%>>> 33>   7733>t..+",
"&**@wuu9.ttrw88r...8>..tt  iprrwawwu9..trww8r...8>>.ttt ippr&**@",
"&..#%<<<<<<<<44<<<<<<<<44444<%%<w%%<<<<<<<<4<<<<<<<<44444<<%&..#",
"&..#%<<<<<<<<44<<<<<<<<44444<%%<w%%<<<<<<<<4<<<<<<<<44444<<%&..#",
"&..#%<<39333<<<1133<<33<311<1%%<w%%<39933<<<1113<<<3<331<11%&..#",
"&..+%<<%>>>6377%%  u>331199  %%6w%%<%>>>6337%%% u>>31119   %&..+",
"&..#w>>>wwwrsssw8sss988ee99 prrwaww>>wwwrsssw88ss998eee9 ppr&..#",
"&..#w>>>wwwrsssw8sss988ee99 prrwaww>>wwwrsssw88ss998eee9 ppr&..#",
"&..+%<<4<<<<444<<<<<<<<44444<%%<w%%<4<<<<444<<<<<<<<44444<<%&..+",
"&..X%<<3611133333663<33<1<<<1%%<w%%<3661133333363<<3<11<<11%&..X",
"&..X%11>%%%1133339939%%  330 %%6w%%1>%%%11133339399%   30  %&..X",
"&..X%11>%%%1133339939%%  330 %%6w%%1>%%%11133339399%   30  %&..X",
"t..Xuuu9w88yaeerwyye>wwte>>1&..w8uuu9ww8yaaerwwye>>wtee>1&&.t..X",
"&--o7<<4<<<<<<<<<<<<<<<44444<>><877<4<<<<<<<<<<<<<<<44444<<>&--o",
"t--O7<<1133133311663<33<311<3>><877<1113133311163<<3<331<33>t--O",
"t--O7<<1133133311663<33<311<3>><877<1113133311163<<3<331<33>t--O",
"***$1<<33336133%%%%>933139983>>6811<33336113%%%%>9931339833>***$",
"&**o7<<4<<<<<<<<<<<<<<<44444<>><877<4<<<<<<<<<<<<<<<44444<<>&**o",
":**Xuuu9w88yaeerwyye>wwte>>1&..w8uuu9ww8yaaerwwye>>wtee>1&&.:**X",
":**Xuuu9w88yaeerwyye>wwte>>1&..w8uuu9ww8yaaerwwye>>wtee>1&&.:**X",
":**o%11>%%%1133339939%%  330 %%6w%%1>%%%11133339399%   30  %:**o",
":**X%<<3611133333663<33<1<<<1%%<w%%<3661133333363<<3<11<<11%:**X",
".**X%<<4<<<<444<<<<<<<<44444<%%<w%%<4<<<<444<<<<<<<<44444<<%.**X",
".**X%<<4<<<<444<<<<<<<<44444<%%<w%%<4<<<<444<<<<<<<<44444<<%.**X",
".**ow>>>wwwrsssw8sss988ee99 prrwaww>>wwwrsssw88ss998eee9 ppr.**o",
".--o%<<%>>>6377%%  u>331199  %%6w%%<%>>>6337%%% u>>31119   %.--o",
"&**X%<<39333<<<1133<<33<311<1%%<w%%<39933<<<1113<<<3<331<11%&**X",
"&**X%<<39333<<<1133<<33<311<1%%<w%%<39933<<<1113<<<3<331<11%&**X",
"&**O%<<<<<<<<44<<<<<<<<44444<%%<w%%<<<<<<<<4<<<<<<<<44444<<%&**O",
":--+wuu9.ttrw88r...8>..tt  iprrwawwu9..trww8r...8>>.ttt ippr:--+",
"&--@%<<3>336133%>>> 3>>  7773>>6w%%<3>>36113%>>> 33>   7733>&--@",
"&--@%<<3>336133%>>> 3>>  7773>>6w%%<3>>36113%>>> 33>   7733>&--@",
":**#%443133133313991<33<1<<43>><w%%43113133313391<<3<11<433>:**#",
"&..#%44<<<<<<<<<<<<<<<<44444<>><y%%4<<<<<<<<<<<<<<<<44444<<>&..#",
"&..+&009q88weeerw..w999>t  <...we&&09qq8weeerww.w999>tt <...&..+",
"&..+&009q88weeerw..w999>t  <...we&&09qq8weeerww.w999>tt <...&..+",
"&..#1<<33336133%%%%>933139983>>6811<33336113%%%%>9931339833>&..#",
".**+7<<1133133311663<33<311<3>><877<1113133311163<<3<331<33>.**+",
":..X54444444444444444444444443346554444444444444444444444443:..X",
":..X54444444444444444444444443346554444444444444444444444443:..X",
"&..X,,,<12212<<3111<<113<<<433312,,,<112122<3111<<<13<<<4333&..X",
"&**X>       >  >>>>>>&&&>>>>   >>>>      >> >>>>>>>&&>>>>   &**X",
":..o&&&&&&&&&&&-o****ooo*****:::&&&&&&&&&&&&-oo****oo******::..o",
":..o&&&&&&&&&&&-o****ooo*****:::&&&&&&&&&&&&-oo****oo******::..o",
":>>O*.......***$o$$$o===$---***;***......***$oo$$oo==$$--***:>>O",
"%&&t:::&&::.&&&&:&&:&&&....::::&*tt&t&&&&&&&&&&&t&&.*&&::::.&%% ",
">>>>>..*...*....*---***-*********---...........*.******.*..>&&& ",
">>>>>..*...*....*---***-*********---...........*.******.*..>&&& ",
".ooXOooXXXX+#++##@@+OXXooXXXoXXo$OOoXXXX+##+###@+OOXoooXXooXo$$."
};
