/* XPM */
static char *tile0631740674605[] = {
/* columns rows colors chars-per-pixel */
"64 64 37 1 ",
"  c black",
". c gray9",
"X c #272727",
"o c gray12",
"O c #0F0F13",
"+ c #2F2F2F",
"@ c #373737",
"# c #070707",
"$ c #0B0B0F",
"% c gray6",
"& c #3F3F3F",
"* c gray28",
"= c gray34",
"- c gray39",
"; c gray31",
": c #1F1F27",
"> c #13131B",
", c #CBCBCB",
"< c #C3C3C3",
"1 c #838383",
"2 c #3F2B2F",
"3 c #4F3B3F",
"4 c #4B333B",
"5 c #171B23",
"6 c #5A425A",
"7 c #573F47",
"8 c #9B9B9B",
"9 c gray86",
"0 c #8B8B8B",
"q c gray67",
"w c gray64",
"e c gray45",
"r c gray42",
"t c LightGray",
"y c gray70",
"u c #23232F",
"i c white",
/* pixels */
"      .Xoo O                 X+.OOOO                            ",
".......XoX O ..XX.           @@Xoooo    ######$$$$$$$%%......  .",
"ooooo..XX@  $oX++oX @+@@@++$ &&X@@@+o@++&@@@@@@@@@@@++XXXXXoo  o",
"ooooo.ooX@   X+++o+X&&***=&$ &&+&&&&o+&&&&&&&&&&&&&&@&@+@@+oo  o",
"ooooooooX@  OX+++oXX&&&*=-&$ **+&&&&oO..OOOOO....OOOO      ..  o",
"oo..o.o.X+  OXX+@oX &&&@==&  @&X&&&&XO.......              OO  .",
"ooXXX o.oo  OXX+&oX &&**;=@$        ..................         o",
"...oo o...o OXX+&oX &+&;;=@   X+o:o..                          .",
"OOOOO Xo..o OXX+&oXX@+@&*=&   .oX.OOO                          O",
"O%%OO XooXX OXX+&oX          ooXoOOOOO.....oo.>..oo.........+== ",
"%%%O. XXoXX  XoXX.Xooo....oX.+Xo.  $  .O...o.OO.oXo.OOO.OOo.+,<o",
"%%%O. XX.XX     @@@@**&&&&&@oXoo.   O ....O......Xo...O...o.X11X",
"OOOOO XooXX     +*;;;====--&oooooXo   2...O.%OOO.o...O%%.OooX.  ",
"OOOOO X.oX+  .  ooooooXXXXX+     ..   %...O.OOOO.X.OOO%%%O.X+oO ",
"XXX+++X XX+  oo XooooooXXX+X ++XXoo $ .....o.>oooXXooo..>.o@&@@+",
"XX+++++ X3@  o  oooooXXXXXoo ++XX  O$ .. oXXoX@@@++++++XXoX@&@@@",
"@@+++++ X+@  oooXoooXXXXXXoo ++@X  ..:X+++++++X+&@&@ &*X+o+*&&@@",
"@&&&@++ X4@  o   ooo.ooooooo  XXX+Xo.oXXX+++++X+&&&@ @&X+X ++@+@",
"++@@++& oo+  XX.o+XXXX++XXX      ..o .+@@@@&&+X@&&&@ &&X+XOX&@X+",
"XXXX++& oX@  o oX o..ooXXXXoO++XX++Xo.X@@@@&&+X@&&&@ @&X++O.Xo..",
" XXoX+& .o&      o..oXoo...X.++X+Xo+o.X@@@@@&+o+@+@@@@:X@XO..o  ",
"o.oXoX& o+@  ++@&+*XXXooo.%o.+@@@+X+o +@@@@@@+o++@@&@+X++X.o..oo",
"ooXXoX@ o+@  &@+++;**&+@X %..o+&+@@Xo +@@@@&&+oXX**=&@@&&XooooXo",
"Xo o.X& .X@    oX &;+.oo  %.> :+X  .  +@@@@@&+ooX**;@.X@@oXoooXo",
"Xoo OX& oX+    .X o&&     %.>o&=&*&+o X++@@@@+.X+;;@X++&@X+X.ooo",
"XXooOX& o++  -=&+oX@;;&&ooXoO *;;++X. X++@@@@+.oX@+oX+X@+o@XoooX",
".o..OX@ X+@  ---*oX;-*&*+     *=&&&+. X@@@@&&+oo@@o@X&&*&X++XXoo",
"Xooo.XX X++  +++XXo        . .&=@**+o X@@@@@@X. XXo+o@+@@:X&*&@+",
"&&&;;*+ XXo  @+XXX&&@@@@+ XXO    .o.  o++++++X.    @X@+&@ X*====",
"@@@&&&+      +X.Xo@@+@@&XXo..  &:@@X. ......ooO  oo+X++@+Xo&****",
"+@&&&@o         .          O. oXo&&X. O..........ooXo++++.X&;*&*",
"X+@@&@X        X         .    O.o  .  $%OOO...   . ...O..Oo+++&*",
"    .              O  o.Oo   .oo ..     o.                      ",
"                                                      .         ",
"  $$$%  OoX    O    %OO              X..oooooooooo.o. .  .%O...O",
"  $$$O %.oo    $    O$Oo.$$%         o..ooooooooooo.     O$.oo..",
" $$%OO O..O  %  $   %$%.O...     %%  oo..o.oooooooo.O      ...oX",
"@X  ++ XX   +++ 55  ++@ +@@@   X+XX@@XX++X+XXXXX++@@@      :X++&",
"++@&;;=;;;=-;=;;@*6;====;;==**&&*;;=;*;=-;=;&&;*;====*==;&*&&;;=",
"..  ooo.     Xo   3    .        oo..  o   :.  3 .  ..oo..>   X++",
"X+@@+     +  O     ooo   %    +@&+              o  oOooo.O   o@&",
"&@&&@@&*&&* &&&*@**@@@+@*&&+&@+**+oXooo4XX4X34XXXo..Ooo...   o&*",
"&X+X+&&;*=;&*;;;&*;;=*&*;;;&*&X@@+   ....OO.o......  .....   o+&",
"@@*;@                        .+*&+                 ..oo...   .+@",
".@=;@     o  .O  O ..   O.    +=*ooXooo4XXX444XXXo.  ooo..   X+@",
"X+@@&&*&+ +&@+@+ +7++@&&&&@@+@@+&*&&@+@@&&&@X ++@@&**+++Xo@@@&==",
"+++@****&*;=*;**@******;&***&&@@*;*;*&*;=*;*@&*&***;*&**&@&+@**@",
"    .        ..                 ..    .  ..   3              o..",
"oo     %  +                  o+X++                           .X+",
"oooooXXo oX    =-@         . oooXX.. ooX++X+XoX++++X++++XXXXXX++",
"XXXXXXXoXXo ..X89&..    $  .  XX++XX XX+@+++@ooooXXXXXXXX:XXXXXX",
"..oooo.oooO ..X=-X:X o..o  O  + .... .X+*@++@X+++++XXXXXXXoooooo",
"..oooo oo4  .. o.X@+ o...+*X  $      .XoXXX+@@@08888qqqqw*oooooo",
"++XXXXXooX     :+X      X+&X         .X+  XXX+@=-===-eeer&XXXXXX",
"++@@++XoXX    .0t*oo  ooXX .  $      .ooo  oo+@++++++++XX+++XXX+",
"    $$ oX@    +1y@.o    oXXo  $      o+ou:oooOOOOOOOO$$$%$$$$$$$",
" $  OO oX@  .. oo..ooXo XoXo  O .O   X*XoXXXXoXXXXXXoOOOOOOOOOOO",
"    OO oo+   oo    oXX.    .  oOO    .+@+XoXXXXXXXXXX...........",
"..oXX:oo.o   >oo     %  O.O% ..      .X+&+X+@+&&&&@+@@X+++XXXXXX",
"XX+++XOo.    o.oX  ++.o  oo.         .++X@&@X+&&&@+@@@XoXXXXXXXX",
"@&&&@X o..       .%                  .XXoX++oX@@++@@++X.o+@+oXXX",
"X+++Xo XoX   ++@&&&&+&@@&@X.            ..O..oXXXXXXXXo.oXXXo  .",
"       Xo+           X         $ $$$    OOO..    .....OO$O      ",
"       o.o           $                              OOO%$O      "
};
