/* XPM */
static char *tile0481740674605[] = {
/* columns rows colors chars-per-pixel */
"64 64 13 1 ",
"  c #230B00",
". c #2B1300",
"X c #3B1B07",
"o c #271700",
"O c #170B07",
"+ c #1F0B00",
"@ c #23130B",
"# c #431F0B",
"$ c #671F00",
"% c #331F00",
"& c #331707",
"* c #2F1707",
"= c white",
/* pixels */
" .X. ....o.......o... .....  o.O+O@......#.XX$.. ........ ...XX%",
" o. .... ....o.o.oo....%oX.  @O+X+O@   ..X.X...X  .#X#o....%o...",
"    o.  +. .X..  . .........@O+X&X+O@....#%..o.  ..%.. ......%..",
"  . o  o   .XX.......%.. ..@O+X&#&X+O@.X....X.    ..XX...%.. #.X",
" .....    + .  ... %.....X@O+X&..%&X+O@.. . .%. o.X..X %.....XX.",
".X## .o ++  ....XX..##X  @O+X&.....&X+O@. ...XX  %.o.$..##X  ...",
"...X+   + .....o%.o...X.@O+X&..#. ..&X+O@. ..%.  . ...o...X. X..",
"o%+ +....#+ ...o+..XX..@O+X&.......  &X+O@ .... o   X...... o .%",
".. .+ ..... ..%.++..%.@O+X& . .. o   .&X+O@ ...+ o    %#.o.. ...",
"..   ......  ..++  ..@O+X&. .  ..   ...&X+O@  ++   .....o  . ..X",
".oo oX...X. o.   o .@O+X&.. .   o + ..  &X+O@++++  ..$oo.    ...",
" o.oo..%.XX%.  ..o.@O+X&.  ...      ..   &X+O@+++++.. o  ++.....",
". o   oX.... ++...@O+X&     .. + . . +..X.&X+O@ + +    +  + ....",
" .+  o  %. o.+ ..@O+X&      ..   X%Xo.%.Xo.&X+O@  .+.  o + +.X#X",
"..oo o. #..... .@@+X& ...X..+ . ...%.oX....+&X+O@.. .      ...  ",
"... +.o.%......@O+X& ...oX.%.oX%X o....  #.X &X+O@  + ...   X...",
"%.......ooXXX.@O+X& ..+....Xo.%.......  ++   o&X+O@+++  o++  ..o",
"+  +...#..o .@O+X&..o X.#  ....o ...#.+  +  .  &X+O@ + +. +....o",
" + o......o.@@+X&...o   ++  .....XX#%.   +  . o.&X+@@+ +.  ..+o ",
"    o..... @O+X&X.%  .  +  +.#...X#$... +++. ....&X+O@     .. + ",
"  .. . .XX@O+X&....o .  +   .%#XXX.X . ..+  .++ +o&X+O@ +o  ..  ",
" +  . . X@O+X&XX..... .+++ ...$#X#X. .o+  . .+   + &X+O@.+  .  +",
" ...   +@@+X&.X#X.%++.  +.. . X.X....... ..+ ..o.  +&X+O@+ .....",
"+.     @O+X&...X#.X +. .  +o. .X# ....#.+++o  ... .. &X+O@  X.XX",
"X.....@O+X&o.XXX#..... . ++..  ...X .X...oX....o..   .&X+O@...%o",
".  ..@O+X&.......#.XX$..+++. ......  X##...X... X  + ..&X+O@....",
".   @O+X&.     ..X.X...Xo++ .   .%#.....% #X.X.+..    . &X+O@.. ",
"...@@+X&..   ....#%..o. o+ ...  ... ..%...%.  ..%+.. .. .&X+O@..",
"  @O+X&.......... . .%.    % +    ....... o. o  +. .o.  ..&X+@@ ",
" @O+X&   .o . .oo  +  ++++    .    o%....o..Xo.. ... ..++  &X+O@",
"@O+X&  o..  ..%o++++o    +  ...X...... ...$..+.o  + +  +   o&X+O",
"O+X&   .X.. ....   .... + +  XX%o.XXX#..... . ..o.    .o.. +.&X+",
"+X&.o   ... o ...+++++  ++++ .#%#...X#.X o.....#.o +o . ooo...&$",
"&+O . ..  ++++   . + +o  . +  .X+o.X#X.%o....o.%.oo   .  +o. OO+",
".&+O  o  +o  +  o     ..o       o..XX.....%.. . .$     +.. .O@+X",
".#&+O.... . ++....   .  ..    .. X#X........  X ... ..+++ .+O+X&",
"..&&+O ..    + .......  o.. o+ ...%..X.%#X.X %  ... +  +  O@+X&.",
"..+&X+O ..++++  ....+.. .. . .%...Xo.X...X....    ++   + OO+X&.o",
"o . &X+O ..  + . .... .. .... .  ....%..X...%. o  + +  +OO+X&.+ ",
"...%.&X+O+ ++ oo ..o..   ..o...  ..+ ..o.    .o....o X.*O+X& . .",
"....#.&X+O   ..  .. X  + ..  ..++++o   +.X%o..+  ..% .+O+X&   ..",
"..%.#..&X+O+...X  .+..    .+  .       ++...%%.o. .   OO+X&o.... ",
"....XX.o&X+O  .. ...%+.. ......o .  ...  ....%.... .OO+X&++.  . ",
"..% . .  &X+O .+ o  +. .o. .  . X...... oo.....X. +OO+X&++ ....o",
". .+   ...&X+Oo .... ... ....o.o.....$.  +. .X... O@+X&o+.....Xo",
".. o     . &X+O  ....o....%o  . X......X o .o%.. OO+X&    o ....",
"o..   ++   .&X+O .... ......o ..X.... ..o.o .X#.@@+X&....       ",
".. .   ++    &X+O%..+...%..    o..X .o.X oo...X@O+X& ..    + . +",
"..... .+ ++  +&X+OX + %.....   o .X...oXXXX...*@+X& .%...X%o..+ ",
"  .o.o ++ +    &X+O.+..##X   ..   X##...X.X ++@+X&oo.......%%.o.",
" .   .    +     &X+O.o...X. .o. .....%  ... O@+X&..%.o.+ ....%..",
" ..  .o . +X    .&X+O o.... .  . ..%..... XOO+X&...# .o oo.....X",
"....#.%..    o. . &X+Oo .o.. o.o...... .  @@+X&.o .%  o  +. .X..",
".o.XX..... . .X.  .&X+OX....  o o%....o..+O+X&.%....Xo   o .o%..",
".... ...%.+..... +  &X+O +..o +.... ....+@+X&.oX%XX.%..oo.o .X#.",
"..   . .o. #o ..+o. +&X+Oo   o  ..   .+@O+X&..%#....   .........",
"  ..   o . .    +   + &X+O.oo.o  ..  .OO+X&..X.X..     ........X",
" o o. $#X. .%..o+ + + +&X+@o o . .   O@+X&...X.#.........X..o...",
"o.o..o#XXoo.... ++++++ .&X+O..o...  OO+X& +..X.... ....X o     .",
" o ..+....%.o%..  .   o..&X+O.. .X OO+X&.    #..X......X +   ...",
" oo.o.....# .o..  .. .o ..&X+@    OO+X&.##X   ..   X##...X.X +.X",
" ..   .o .%  .X +.X#XXoo..o&X+O  +O+X&o...X. .o. .....%  ... +oo",
".o. ..%....Xo.. +oo....%.o o&X+@OO+X&  o.... .  . ..%..... X+.oo",
".  . .X%XX.%. X+.oo....# .   &X+O+X&.  o .o.. o.o...... .  X%..."
};
