/* XPM */
static char *tile0951740675773[] = {
/* columns rows colors chars-per-pixel */
"64 64 48 1 ",
"  c gray64",
". c #C3C3C3",
"X c gray86",
"o c gray89",
"O c #CBCBCB",
"+ c gray31",
"@ c gray28",
"# c gray34",
"$ c gray39",
"% c gray42",
"& c gray45",
"* c #7B7B7B",
"= c #8B8B8B",
"- c #939393",
"; c #838383",
": c gray9",
"> c #373737",
", c #13131B",
"< c #3F3F3F",
"1 c #272727",
"2 c #2F2F2F",
"3 c black",
"4 c gray6",
"5 c #271700",
"6 c #732700",
"7 c #5F430F",
"8 c #432B07",
"9 c #331F00",
"0 c gray12",
"q c #6F4F17",
"w c #4F370B",
"e c #572B0F",
"r c #9B3F0B",
"t c gray67",
"y c #BBBBBB",
"u c #632F13",
"i c #431F0B",
"p c #3B1B07",
"a c #933F00",
"s c #4F270F",
"d c #671F00",
"f c #B77757",
"g c #7B5B1F",
"h c #B76B3F",
"j c #6B3717",
"k c #733B1B",
"l c #8B672B",
"z c white",
/* pixels */
"            .......XXXXooooooXXO........                        ",
"+@@+++++###+@+#+@$%&*=--        -*&&##++++++@@+@@+###*****&*&#@@",
"@@@+++++#$$#@+###+@+####$%%%&*;**&###+#++++++#**#####**&*&*&*#@@",
"++++++++#%%#######++++@@@###$&**&&%###++++##%***&&*$#*&&&&&&&#++",
":++#####$&&$######$##+@@+###$&*;*&&%#####+#$$%*&&&&$&&&&&&&&#++:",
":>##&**&&*&%##$$#$$$+#@++###$&***&&%####+##$$%&&&&&$&&&&%&&&##>:",
",:<%*&****&%###$#$$$$#+++###$%*&*&&%$#####%$$$&&&&#$&&&%%&&&%<,,",
"1::<&&***&&%###$$%%%$$$######$&&&&%%$$#++#$$##%&%&#$&&&%%&&&<2:>",
"333>&&*&&&&%##$$$$$%%%%$$$$####%%%%$$##+++#$$#%&%%#$&%&%%%&%@333",
"22:2&&&&&&&%##%$$$%%%%%%$%%$#####$$$##+@<@#%%%%&%%#$&%%%%%&%@:12",
"&*#2&&&%&&&%##%%%%%%&%&%%%%$$$#########@<@#$%$%%%%##&%%%%%%#@<&&",
"@@22&%&%%&&%##%&&%%&&&&%%%%$$$#$$$####$$@@#$$$%%%%##&%%%#@+#@1@@",
"3332%&&%%&&%##&&*%&&&&&%%%&$$$$###$###$$$$#$%$%%%$##&%%$#@##@333",
"21:2%%&%%&&%###%*&&&&&&%&&&$$$$$#####$%$$$$$%%%%%$##%%%$#+#@@412",
"%#22&%&%%&&%####&&&%&%&%%&&%$$$#%$$###&$%$#$$$%$%$##%$%####+@1#%",
"@>:2&%&%%%%$###$$&*&&&&&&&&%$%$$%*&$#$&$$$#$#$$$####%%%#####@4>@",
"3432&%&%%%%$##$#%&;&&&&&&&&%%$%$%&*&$#&$$$##$#$$####&%&$$###@343",
"22:2%&%%%%%$###$%%*&&*&*&&&%$$$$$&&&&&&$$$####$$###$$$%$$#$#@,12",
"%#12%%%%%%$$####%%;****&*&&%$$$##%&*&&&$%$###$$###%$%%&$$#$#@1+%",
"#<:2%%%%%$$$####$&&;&&&*&&&%%%$##%&*&&&%%$###%%&%&&&%%&%%$$#@:>#",
"3332%%%$$$$$####%%&;&&&&&&&$&%$##%&*&&&%%$###%*&&&&&&&*%%$$#@333",
"11:>%%%%$$$$##+#%%&&&%%&%&&$%;%##%&&&&&&%%%#$&&&&&&&&&*&&%%$@:55",
"6#2@%%%%$$$$$++$%%&&&%%%%&&$%&&%%%&&&&&&&%%#$&&&*&***&*&&$&$@27#",
"8>:@%%%$%%%$$++#&%&*%%%%%&&%%&&&%%&*&&&&&&%#$&***&****;*&%&%@:9<",
"343@$$%%$%%%$##%*&&&&$%%&&=%$%&&&&**&&&&&&&#$*****;***;**%%$@333",
"91:@7$%$$$$$$%$$%**&$$%&&;*%#$%&&&&*&&&&&&&$$&*;;;;;;;**&%%%@:05",
"$#2<7$%$$$$$$$%$%%**%%&&;**%$#$%&&***&&&&&&$&*;;;;;;;;=*&%&%<2#q",
"w>:<@$$$$#$$$$$$$%%%#$%;***%$$%%&&&*&&&&%%%$&*;======;;;&%%&<:><",
"343<+$$$##$$$$$$%%%%$#$****%%%%&&&&**&&&%%&#%*;======;;;*%%%<343",
"21:>e$$$###$$$#$%%%%$#$&**&%%%%&&&&*&&%&%&%%#%*;=--==;;;*&%&@:22",
"$$%r@$$$####$$$$%$%$$#$%&&&%%%%%&&&&&&%&%%%%#+$*=--=-==;*&%%t*%$",
";ty$##$######$$$$$$$$#$&&%%%%%%&%&&&&&%&%%%&##+#;--===;;*&%&$.t;",
"..%#############%$$$$$$&&%&%%%%%%%&%&%%%%%%&##+#%;=;=;;;*&%&#%..",
".$##############$$$$$$$&&%%%%%%%%%&%&%%%%%%&%###$;;;=;;;&&%%##$.",
"++########$#$##$%$%$%$%$&%%%&%&&&&&&&&%&%&&%&$###&;;;*;*&&%%##++",
"########$$$$$$%%$%%%$$$%$&$%%%%&&&&&&&%&%&%%%%$##$&*;***&&%%$$#$",
"+####$$$$$$$$$&%%%%%%$%$&%&$%%&%&%&%&%%%%%%%%%$##$&&*&*%%$%%$$$#",
">>><@@@@#%%%%&&%%%%%%%$%&&&%%%%%%%%%%&$%%%%%%%%$#$%&&%*+<<<@<<><",
">><@@@@@<+%%&**%%%%%%%%%&&&%%$%%%%%%%%%%%%%%%%%%%%$%$$+@@@<<<>>>",
":::11:,<@<<#&**&%%%%%%%%%&&%%$%%%%%%%%$%$$$$$%%&&&7%@@@<:0::4:::",
"<@+#<<1:2@@@#*;&&%&%%%%%&%%%%$%$$$%%$%$%$$$$$$&*%qu<@@2:28><<<<<",
">><>i12@2:>@#+%&&&&&%&%%&&%%%%%$%%%%%%%%#$$#$%&&7w2@>:1>w9#12112",
"@#$<51<>#+:1+#@+%&&%%%%%&$$$$$$$$$%%$%$$#$$#$%&++<@2:2<w+>02+@<@",
"+#$782><###2:>@@<#%%%%%%%$$$$$$$$%%$$$%$####%%#<@<:1<++##@98++@<",
"@#33:0<2####>::<@@+$&%&%%%&&%$$##$%$%$%$#$$##<><2:>@@####75333+<",
"@#<@5::2<$$#@#2:>@@@#&&%&&***&%###$$$$$$#$#@>@>12@#+####@335>>+@",
"@+;;&#@40$$#*#+<::<@@+$&******&$###$$$$##@><<5,<#+#####,3@6%=;+@",
"@+$%##$+<#&%$%%##>:2@@@#=*******$###$$$#<><<5:w#+##$$###@ww<@@++",
"@+3344444443@%&&+@@::<@w#&****;&$#####$><<23pw>###$<3333333333#+",
"@+<>0i1889013:@&<@@+>:2e1@&****&%$####>1<112@2<+#+,33222211112+#",
"+$#@89<6as<%#1:1p>+#+@149@&&*&&&&%$###>142<<28<#130wa  -&#6##&+#",
"@$#0988se88<<++>dp@$%##>5@&&&&&&&&%%%%@1@@<@<@>++@w8w@@@<8988@+#",
"+$3:4434444333334::<&#;<>@&&&&&&&&&%&%@2>&<<+43334333333333443##",
"+$<85808>5i52<@@89:3&+2@>@&&&&&%%&%%%%@><50<331220995>>1115552##",
"#$$w8d@fq8w9@$;#wpi#*#<e5@&%&%&%%%%%%%@>@98<#@#$+eg--t; -hj8#%#$",
"#%+<p8<&%e90>#%#292*&&gu1<%%%%%%%%%%$$<>@82@7+><<>@+2+>+<2991@#$",
"#%444443344333333333*&&#2<%$%$%%%$%$$$<>@2>#334333433343344433#$",
"#+2099>@<1009@<<><<+**&$1<$$%%$%$%$$$$<2#78#2>>9>2215>2221:092#$",
"+##786$;%%w86--=&&*;**&$1>$$$$$$$#$$$#<1#+i#**&k=;;7*%%-;l@1e%##",
"+#<w8p%$+w8>@$$##+#%&&%$1>#$###$##$$##<1#@@###+<<@@222@@@@298#$$",
"+#34:433334443333333&#-@1>####$###$#$#>1@-@#33333333333333334,%#",
"+#<8982@@<>1><<>>>1>%<1>1>############>1>12#>>>22121992221:01<##",
"++&%s7- --%$&=*&&%$&#@>@1>############>1@1<+*%&%%;=%a$---*%#+%##",
">>><>2<<<<>2<>>>>>2>>>>>:1>>>>>>>>>>>>1:>>>>>>>222>2122222211222"
};
