/* XPM */
static char *tile0841740675773[] = {
/* columns rows colors chars-per-pixel */
"64 64 62 1 ",
"  c #838383",
". c #8B8B8B",
"X c gray39",
"o c gray34",
"O c #373737",
"+ c #2F2F2F",
"@ c #272727",
"# c gray12",
"$ c #3F3F3F",
"% c gray31",
"& c gray28",
"* c #3F3F4F",
"= c #5F6377",
"- c #13131B",
"; c #1F1F27",
": c #73778B",
"> c #434757",
", c #333343",
"< c #2F2F3B",
"1 c #5B5F73",
"2 c #4F5363",
"3 c #4B4B5F",
"4 c #23232F",
"5 c #272B37",
"6 c #6B6F87",
"7 c gray6",
"8 c #070707",
"9 c #0F0F13",
"0 c #676B7F",
"q c #373B4B",
"w c #87AFFF",
"e c #435F93",
"r c white",
"t c #57576B",
"y c #271700",
"u c #4F270F",
"i c #671F00",
"p c #431F0B",
"a c #432B07",
"s c #6B3717",
"d c #6F331B",
"f c #171B23",
"g c #331707",
"h c gray42",
"j c #3B1B07",
"k c #57230F",
"l c #572B0F",
"z c gray9",
"x c #331F00",
"c c #4F370B",
"v c #9B9B9B",
"b c gray45",
"n c #7B7B7B",
"m c #939393",
"M c #C3C3C3",
"N c gray70",
"B c gray64",
"V c #BBBBBB",
"C c #CBCBCB",
"Z c gray89",
"A c gray86",
"S c gray67",
/* pixels */
" ........   ....   ....      ...................................",
"XXXXXXXXXoXXXXXXoooXXXoooXoooXoXXXXXXXXXXXXXooXXoXXXXXXXXXXXXXXX",
"OOOOOOOOOOOO+@##$o%ooooooooooooooXXoXooooXXOO&o&##++++++OO+OOOOO",
"******$$*OOO+###*=-;-@@@@@++;;;;;@@@@@@;;#@###:>##-+,++<$*,O$**$",
"1222212123>>*+@#+>#4#,<<<<,,5@@@@,<<<<<4##@##@6>#;#+**$,*2>22112",
"1=1=221111*>,<##<>;@-<75777788+8877779-,-77-;#0>-#++**,*,1>*=111",
"2212221212>**+@-<>;+qwew48887OrO-+787-9+988-;#6>##+Oqq,*q1*>2122",
"222=222211t3>$+#,>-<qwew4887-$r$#O78787,988--#=*#++,,*>22>121121",
"11121122&>&>2+<#,$#<5,q5-887#-+7@O-87@7;788###2*-+O>>O>2&*212121",
"22112122&%233*+#*o+@-7878888-777@O78-O8#788@##*,#+OO>O>2>322%222",
"2%2212222&>3>*,#Ot#@9877888877-7#O-8-+8#788@<#,<#+O+>O2&>&12%21%",
"%221221%%23$*><#>2-@78778887---7@O-87@7;7885O@*+#+$>>$2&2222%122",
"%22%22222>***O+#>=7##<O,,<<O,OOO$*O+@@@<O<<,*@,4#O+*$>$>2%222%22",
"%222%2222>>2$OO#*2-#-79#@##;;##@#######@-99#;@2+#+$O%$>>222%2&2%",
"%222%2%%23$&$>*#+*-#788#<+@@@@@@@@@@@@@5988@+<2,#OO>&>&&&2%2%%%2",
"%2%%%2%222%>$%O#q+7#788;*<O<+5@@@@@@;@@@788@<<o+#O+*$O>>%%&%%2%&",
"%222&222%3$+&$O#+O7;-88;*,,,<@#@##@@;@5+yy8+,,o+#++OOO$$$&%$o2%%",
"uiiipaOsdp;@O&+#%X7#-78f<<<<@##<@g++@5+<#78#@5h+yaaaaaaaauppuuju",
"uuukkllllp;+$$$#$X7@-78f+,,O#7-<O@O@,,@+z78;@@oOypaaaappppja%ujp",
"upukkkuupxx#Og@#*X7+778-#@@@#77+5#<,,+@@788#@@XOypuc&+apua$&Opiu",
"pppuuupjxkp@a+#yOo7<-78-###@#--+@#<,,+@@988##@o$yuuc&Oaupjjpuuuj",
"ppupjupppjx@a#;y*t7<f-8f+OO,5##<@@,,*O@5#78##@X$yp$$&Opjjjppjujj",
"upppuuapuujppp;yO%7+--8-<+O,,@@<##,,,++@OO@;5@X&yjpppOppujjjpupj",
"ppipuju@Ouxxpg;-*%7<f#875,5<<@5,--5<+<,#+O+@++t&yppppjpppjupjpjp",
"+a%ipuuO&jgx;;#y$27+97889<O@##@O##@@+,;77-7;@5t$-jjjp$appjjpjjjj",
"$+$cup@$$jpp@@#y$27#988889<<@##<@@+<O#88888@<<3O-pgpj@Opjjjpppjj",
"&O+$upp$pjjpjjyy$t7#9777787977-5@9777877788+,<3+-pxa@&$ajjppppjp",
"O@+Oujpppjpjjyyy$%7###OOO#78-78@-88#@@OO@87O*<>#-;#+j@paaOjjpp&p",
"@$jjppa$jjjjjjjy$t##+#O$O#77#-8@-87#O$$O78@OO+&+-++x@&y$Oja$jp&j",
"@@yyyy#@yy#@yyyy$%##+##-7778778#98877--78yjOO@>+-+#;@yyyyyy#y@@y",
"*%**%**%*******+$t----#z7888888#-8888888yyy@+#*+-+,,*%*%********",
"@<<<<$,,,,,<<@,@$2--#-#+##@#+;####f#@xyxyyz@##3+-+<O<<,,@<,@,<,<",
"#;;;;;;;;;;;;#;;*2--#--;;;;-#######@+@###z@+##*+-;#;;;;;;;;;;;#@",
"-z--#----zzzz--z$2;-##-#++<<+<+@@5<OO+++5@<4@#*+-##-----zz----z-",
";#;;;;;;;##;#;##$2@+#+#-###+<<<<<<<<<<<<<<4##@O+#####;##;;###;;;",
";;;;#;;;;;#;;;;#$t;#++++###-####;;;;;@@;@####+$+#--####;;####;;;",
";;;##;;;###;;;;#*2%+O+OO$>OO+*O*232%%&&&%%$$O**##-###########;;;",
"222222222212222$30=>$O$>>>3*>$$>231t1t2>222***>*O222212222222222",
"vvvvvvvvvvvvvvvvvvbo%$Oohbho+O$%hXhbhbbnbno$&&obvvvvvvvvvvvvvvvm",
" nnnnnnnnnnnnnnnnnh%&O+%bnhOO$%oXbXhnnnnbho$%oXXnnnnnnnnnn  nnnb",
"MMMM%nnnnnnn%MMMMMMNO$OXnno&&MN..MMM%nnnnnX%OBBVMMMM%nnnnnnn%MMM",
"CCCM;XbnbnbX;MCCCCCM++OobnoO@MCCCCCM;Xbnbbo$@MCCCCCM;XbnbnbX;MCC",
"VVVV@XbnbnbX@VVVVVVV@$$obn%O@VVVVVVV@Xbnbho$@VVVVVVV@XbnbnbX@VVV",
"CMMVO$bnbnb$OVMMCMMV++$Xbno++VMMCMMVO$bnbnbOOVMMCMMVO$bnbnb$OVMM",
"mvmV$OXnbnXO$VmvmvmVO+OXbn&+$VmvmvmV$OXnbnXO$VmvmvmV$OXnbnXO$Vmv",
"ZA.V%OXbnbXO%V.AZA.V$O$bnb&O%V.AZA.V%OXbnbXO%V.AZA.V%OXbnbXO%V.A",
"CC.VX+XhnhX+XV.CCC.Vo+$hnh%+XV.CCC.VX+XhnhX+XV.CCC.VX+XhnhX+XV.C",
"MM.NO+OO$OO+ON.MMM.NO+OO$OO+ON.MMM.NO+OO$OO+ON.MMM.NO+OO$OO+ON.M",
"XX%N%<%XXX%<%N%XXX%N&<&XXX&<%N%XXX%N%<%XXX%<%N%XXX%N%<%XXX%<%N%X",
"z77N%+hnnnh+%N77z77N%+hnnnh+%N77z77N%+hnnnh+%N77z77N%+hnnnh+%N77",
"@zzSh5OXXXO5hS-z@zzSh5OXXXO5hS-z@zzSh5OXXXO5hS-z@zzSh5OXXXO5hS-z",
"+zzvX;OXXXO;Xvzz+zzvX;OXXXO;Xvzz+zzvX;OXXXO;Xvzz+zzvX;OXXXO;Xvzz",
"%++m%-OXXXO-%m++%++m%-OXXXO-%m++%++m%-OXXXO-%m++%++m%-OXXXO-%m++",
"%O+.Xz<%X%<zX.+%%O+.Xz<%X%<zX.+%%O+.Xz<%X%<zX.+%%O+.Xz<%X%<zX.+%",
"X%+.Xz;%%%;zX.+%X%+.Xz;%%%;zX.+%X%+.Xz;%%%;zX.+%X%+.Xz;%%%;zX.+%",
"X%+nh;z%$%z;hn+%X%+nh;z%$%z;hn+%X%+nh;z%$%z;hn+%X%+nh;z%$%z;hn+%",
"h%+nX@z$O$z@Xn+Xh%+nX@z$O$z@Xn+Xh%+nX@z$O$z@Xn+Xh%+nX@z$O$z@Xn+X",
"bXOhX@9;%;9@Xh+XbXOhX@9;%;9@Xh+XbXOhX@9;%;9@Xh+XbXOhX@9;%;9@Xh+X",
"bX+XX;79@97;XX+XbX+XX;79@97;XX+XbX+XX;79@97;XX+XbX+XX;79@97;XX+X",
"nhOXX;-9;9-;XXOnnhOXX;-9;9-;XXOnnhOXX;-9;9-;XXOnnhOXX;-9;9-;XXOn",
" nO%X@-z;z-@X%+  nO%X@-z;z-@X%+  nO%X@-z;z-@X%+  nO%X@-z;z-@X%+ ",
"nh++$ff9f9ff$+;bnh++$ff9f9ff$+;bnh++$ff9f9ff$+;bnh++$ff9f9ff$+;b",
" b;@+fffffff++$  b;@+fffffff++$  b;@+fffffff++$  b;@+fffffff++$ ",
"nn$;@fffffff@@$nnn$;@fffffff@@$nnn$;@fffffff@@$nnn$;@fffffff@@$n"
};
