/* XPM */
static char *tile0421740674605[] = {
/* columns rows colors chars-per-pixel */
"64 64 61 1 ",
"  c #1F0B00",
". c #23130B",
"X c gray9",
"o c #272727",
"O c gray12",
"+ c #2F2F2F",
"@ c #3F3F3F",
"# c #0B0B0F",
"$ c gray34",
"% c #574323",
"& c #634B2B",
"* c #373737",
"= c #4F3B1B",
"- c #272B37",
"; c #434757",
": c gray28",
"> c gray39",
", c #7B7B7B",
"< c #8B8B8B",
"1 c #939393",
"2 c #838383",
"3 c #13131B",
"4 c #9B9B9B",
"5 c gray64",
"6 c #2F1B0F",
"7 c gray31",
"8 c #1F1F27",
"9 c gray45",
"0 c #7F6B47",
"q c #2F2F3B",
"w c #23232F",
"e c gray42",
"r c #6B5733",
"t c #3B2313",
"y c #735F3B",
"u c #333343",
"i c #8B672B",
"p c #0F0F13",
"a c #0B0700",
"s c #171B23",
"d c #3F3F4F",
"f c black",
"g c #936347",
"h c #977737",
"j c #A77757",
"k c #BB8F6F",
"l c #B79353",
"z c #D3A783",
"x c #A78747",
"c c #D3B377",
"v c #E7AF8F",
"b c #E7BF9F",
"n c #473317",
"m c gray67",
"M c gray70",
"N c #CBCBCB",
"B c #BBBBBB",
"V c #C3C3C3",
"C c #432B13",
"Z c #230B00",
"A c white",
/* pixels */
"     .....X..ooOoo++oOOo+++o+@OO#o@$$%%%&&*+*=**++**+oOOOOOoooOX",
".  # .#.. ##.ooo+++oOXOooo*o+-XX#+@;:>,<12:o+**+Oo+***ooooooOOOX",
"X.   .  X. #Xooo+ooOX#OOo++o@@O3#*:>>,4541$+o+*@oOOOo+ooooOOOOO.",
"XX. .X .66.XO+++++oOOOOO+*++$7-8#O*:7><1149*oo**o.OO.oooOXXOoOXX",
"O........oXXo++++ooOoooOo+++0>q8#X@:@:$92<2@o++oOOo++oOOXXXOOXX.",
"OXXX.XX.X.XO++o++ooOo+OXO+*+$$qw#o*@*-8o*@e7++o++oo++OXXXXOOXXXX",
"O...X...XXOo++o**oOOOoOO+*@+@:-w#o+w+@7@@@$$+o++oOoO.XXOOOoOXXXO",
"XX.X..O6X.o++oo*+OXOo+Oo*@o++@o8#+$$7$er@*:7oOOOOootOOOOooOXXXXO",
".XX...OoOoo++oo+oOOoo+o+:@**%=OO#+:$@@$$07&@OO+oXOoo+OO++OOOXXOO",
"..XX.OOoooo++oo+OOXOooo+@@>:$+OX#o*@++@$eyyOOw+OX  .oo++oOOOOOoO",
"O.OOOoOoooo+oo++OXXooOO+@$>7$oOO#+@:=&o+@:7oo+++O##.o+++oooOOooO",
"OOOooooo+*++o+ooOOo++oO**77$*ooX#8u>0ir*@7+w++++oOOo*@***@*+++oO",
"ooo++ooo***+ooooO8+**+o+o@:7wo8p#8;e$&&7:$w-w++o++**@*+**+*+*+oo",
"oo+**ooo**+ooo+oow---*ooo*:7ww8#aO:;$7&$9<:++w**@@:*ooooo++**+++",
"++****++*++w+w8ow8www+o+*@$@swoX#8@:::$><<7+@++*@@*-+oo+****++++",
"+oooo++**++ww---*oowww***$$w--q8#w@$:@79,:+--w*@@-ww-+o*@@*+o+**",
"oOOOOOO+*-ww+*u@*oo+*@@+@$:@$-*O#o@d>77>*+ooO8@@*ow+**++@@*++**+",
"OoooooOo++o++-+++o**:@**7:@e7+@+#+:777:-oOo&+O+*+o++*+++-**+*@*o",
"+ooooo+++ooo+w++**:@*@7$@+$:*uqw#o*::7@*o*%$+8-*+oo**++******@+*",
"++ooo+++w+++ow-::>$%7*7+8@*w@*-3fX-::-$0%7*+*w*@*oo++oo+**-+*+Oo",
"++o++++***++ow-@$9$7*OX3*@ww+++XfX+:*@$*ww+7@+w++++*oOo+@*ww-+ow",
"*++++-**---wo++o7$$:888w:-@@@@opfX+-@7*ww-::o***o++-+oo+****@***",
"**+o+-+++**++++*:@***wo-*+**:@o3fXo+*@%:--@o@$7@+o+**-++***@@***",
"@*oo++oo**+++@@**Ooow+oooow**@+Of3*@@*&@@+w8o*+oXOo+++++++*@****",
"@@++oooowww+@*7@@@++woooo*:::7+OfO*$7:*oww+wOX#XO*@**++++++*@***",
"@@*+w+w++-w*-7>%+ww-oo+@+:$>$:*pfO-:d@*+woowOX38+77**++o+o+@@***",
":*+++@@@**-++:@+w--w-@:@-*7@***Xf#w-q:$7+*@+O3+++@**@*****$>$99:",
"e$:@*@-*+*****ww@uw-*@*ww8w+*+w8f#8w*d;;7:@+o+*@7*-*-@77*:$$>2<9",
"$77:@*-w+-*@+--+--*:*-w-@*w*7*-OfXw**ud;$$7:*+w*@-++w*-**@*-@7$>",
"o:$**@*+**-wO+**o+7:@7:@:@**@*w3fXoww-*d:;7:-wwww-*++@+*7*88888o",
"w:-sX3++83ooOow8Oo++*:@-+w+ww-3XfXO38w--qqq-w8O8X8woo-wu:*oOoX+*",
"w-3##Xwq3#OXOXXX##X3Ow--83#fpX#Xf###www8333OO#pXXpXXXX3w-w33Opwq",
"#a#XXXX##XX#a####XO###+O####ffffXXXXX##XOOOXXXXXXXXOXXXX##XXXXX#",
"*+O@*++@*@:8XOXXO8XOow*oo++w8p#pXw+*+**@77*-oooooo+:@:@+-@::*+++",
"7$@$$::$&0y*$$w*w+-+@:$:@7:-w3XXX@777$$7@@@-*:*77@*@*@@@@:$:+*::",
"r0@>>7ygihr=j>7@*@@*:$$@@$d*w83pX*:+*:$:*7>$$77>$*:$$7@@>jjy%%&&",
"0j*00yryy0&rk>9+@:+7*7>@77q*+-w3XO:777@@@>>@*-7>$::>>:&jkk00r00i",
"l,:ky&%&0r%24,9+&@o%*$$d7*+::@*3X+>e>$>>$$:@*7e2k0r090jzkyy00j0x",
"cv>j%r&0r%055b1@+oOn=7**%@+@:7:wX*>>@7eeyy$>e,,<kkkkvvkjy0gj0yrh",
"lm<>yr&&=n%9154>@@ot&y**7@wo@7@8#@$:@$$7@@:rj22>0kzMNN2ye$&y$&&r",
"&>>7%=+o++o*:7@++-+O*r&*@wo*77*8X:$$e>$@:y$021>@0j4MBV1>:+*@*nnn",
"nn:+oo**+OoOOOo+oo++O@$@+*@@**-wX*>e$77%77yy0,7$r0024B5>+o++otnC",
"nt6.6t7*o.o.o+++ooo++*$$**@wo**8X+7$:$$y7:%@:7>7&0rr9<27+o+++=%=",
"=t..O@$t..tttt+to+o@@O7:&%-w+@*OX-7@:$>770@@&$$:0&%:$7:@*o+@%&==",
"%tot+:rtX.6ttttn+++@*XO77$$7w--8Xw**:+-:r:$0,$$@%++**+*@@*::%&==",
"nt**+:7o..oottn@**+o@+O>9,>+8w8OXw*$7+@&@$jj,$+@%*++o+&7:7$:%:*t",
"+***+**.O.ooOOC=@:*O++894>+Oo+w3X@$>>$e>$>00$*ny0***+=&::7$7@%*o",
"+++*+ot.OoOtoon&7:*OOoo$4,%Ooow8X*$>$>9$::@@$%yj7@***n@:@@77@@@*",
"*oo++oo6Ooo+*@::@*+OOooo:e0oo+w8X-$$*$7wo@$$@+y>::****:@*+n**@*:",
"@oOoooO.Ooo+*@***@*OooooO+>:++o3Xw:*8@@O%0j20y$77:**@%:*+oo+**+*",
"*nOoooO...XO+o+o+@@++*+++O:$+XOpX+7@*&%=y021>&7****@@:@*+oo++o.O",
"o*oOo+tt6O.Ooooo*:@+@7-++Oo$nOoOX*$:ryy70,42:rr*+*@@@:::*oo+o..O",
"XOo+++++tOo+++oo@$*+@7+oO++:@*+o#+$$$&=7004420&+****:$:@**+oOX.O",
"..Oo+.XXO.Oo+%*+*::+7:oOOo+++:+O#o@::&&0k,1550%o+**=$$:*+**+o.X.",
"O..OOO.OO..Oo::*@7@*$*OOOo*+o@+O#*$77=@@72442&*o*@@:$$7@***+ooOO",
"OoO...OO..OO+@@77@o+:+Ooo++7*@w3X*:$0$00+o:7+no+@@:7$>$:::@+oOoO",
".... ..O..Oo*:***o.+oOOO+o:27*+X#*:$**rrr&@**o+*@@@@@7@*@::@ntoO",
".X.     ..OOo@+t*O++OOXO++9<+++X#+@@==*=00:7@*77@*+=n++*@@*@:%t.",
".X.  ZZ..OXXo@+++.+o6.OO+:99oooXXO@$$y&&7*++o:$7*ootn+o++*+**+nt",
"o.. ..X.XX..o*+ooo+O.OOO*7>$nno3X*$$*%07*++++*:7+OotoOOOOOo++oo+",
"o..  . #....o+o.OoOOo.Oo@e29@+ooX@$@*::@*+o*++o*+O+tooOOXOOo++oo",
".O6 ....6...O+oOoOoooXOo@<49oo+O#3+:$y@++o+*++*+oo++++oXXOoooooO",
"oO...........ooooOoooXXO*2<@OOO##O*$7@+o++=*o+@*oOo+++OXXOOOOOoo",
"XX  .X.XX...XOOOoOoooXXO+>:Xo+O##o:$*=%to+:o++*@+oootoXXXOOOoo+o"
};
