/* XPM */
static char *xpm_[] = {
/* columns rows colors chars-per-pixel */
"64 64 16 1 ",
"  c black",
". c gray9",
"X c gray31",
"o c gray34",
"O c #272727",
"+ c gray12",
"@ c #3F3F3F",
"# c #373737",
"$ c #2F2F2F",
"% c gray6",
"& c gray28",
"* c #333343",
"= c #171B23",
"- c #373B4B",
"; c #070707",
": c white",
/* pixels */
"  .XoXO   +@o#+   +#o@O   +@X@+   .XoXO   +@o#+   +#o@O   +@X@+ ",
"  .ooXO   +@o#+   +#o@O   +@o@+   .ooXO   +@o#+   +#o@O   +@o@+ ",
"  +ooXO   +@o#+   +#X@O   O@X#O   +ooXO   +@o#+   +#X@O   O@X#O ",
"  +ooXO   +@o#.   +$X@O   O@o@O   +ooXO   +@o#.   +$X@O   O@o@O ",
"  +ooXO   +@o#.   +#X@O   O@o#+   +ooXO   +@o#.   +#X@O   O@o#+ ",
"  +Xo@O   +@o#+   +#X@O   O@X#+   +Xo@O   +@o#+   +#X@O   O@X#+ ",
"  +XoXO   +@o#+   +#X@O   O@X#+   +XoXO   +@o#+   +#X@O   O@X#+ ",
"  +XoXO   +@o#+   +#X@O   O@X#+   +XoXO   +@o#+   +#X@O   O@X#+ ",
"  +XoXO   +@o#+   +#X@O   O@X#+   +XoXO   +@o#+   +#X@O   O@X#+ ",
"  +ooX$%+.+@o#+   +#X@$%+%$@X#+   +ooX$%+.+@o#+   +#X@$%+%$@X#+ ",
"  +ooX@++++@o#+   +$@@#+++$$@@+   +ooX@++++@o#+   +$@@#+++$$@@+ ",
"  OooX@OOO+@o#+   +$X@#OO+#@X@+   OooX@OOO+@o#+   +$X@#OO+#@X@+ ",
"  +ooX@O$$+@o#+   +$@@#OO+$@@$+   +ooX@O$$+@o#+   +$@@#OO+$@@$+ ",
"  +XoX@++OO@o#+   +$@@#OO+#@@$+   +XoX@++OO@o#+   +$@@#OO+#@@$+ ",
"  +XXX#+.+O@X#+   +$@@#+++#@@$O   +XXX#+.+O@X#+   +$@@#+++#@@$O ",
"  OXXX$%+%+@X#+   +$@@$%+%$@X@O   OXXX$%+%+@X#+   +$@@$%+%$@X@O ",
"  O@XXO   +@X#+   +$@@O   O@X@O   O@XXO   +@X#+   +$@@O   O@X@O ",
"+%$@oXO   +@X$+%+%+$@@O   O@X@$%+%$@oXO   +@X$+%+%+$@@O   O@X@$%",
"$+#@XXO   +@X#O.+.O$@@O   O@X@$.$+#@XXO   +@X#O.+.O$@@O   O@X@$.",
"XO#@X@O   +@X#O+#+O$X#O   O#X@$+XO#@X@O   +@X#O+#+O$X#O   O#X@$+",
"&O#@X@O   +@X#+.$.O$@#O   O#X@#+&O#@X@O   +@X#+.$.O$@#O   O#X@#+",
"&O@@X@O   +@X#O+$.O$@#O   O#o@$+&O@@X@O   +@X#O+$.O$@#O   O#o@$+",
"$+#@X@O   +@X#O.O.O$@#O   O#X@O.$+#@X@O   +@X#O.O.O$@#O   O#X@O.",
"+%$@XXO   +@o#+%+%+$@#O   O@X@+%+%$@XXO   +@o#+%+%+$@#O   O@X@+%",
"  O@XXO   O@X#+   +$@#O   O@@@+   O@XXO   O@X#+   +$@#O   O@@@+ ",
"  O@XXO   O@X$+   +$@#O   O*X@+   O@XXO   O@X$+   +$@#O   O*X@+ ",
"  O@XXO   O@X#+   +$@#O   O*@@+   O@XXO   O@X#+   +$@#O   O*@@+ ",
"  O@XXO   O@X$+   +$@#O   O*@@O   O@XXO   O@X$+   +$@#O   O*@@O ",
"  O@@XO   O@X#+   +#@#O   O@@@+   O@@XO   O@X#+   +#@#O   O@@@+ ",
"  O@@@O   O@X$+   +$@#O   =*@@+   O@@@O   O@X$+   +$@#O   =*@@+ ",
"  O#@@O   O@X$+   +$##O   =@@@+   O#@@O   O@X$+   +$##O   =@@@+ ",
"  O@@#+   O@@O.   +$##O   O@-@O   O@@#+   O@@O.   +$##O   O@-@O ",
"  O@@#+   O@@O.   +$##O   O@-@O   O@@#+   O@@O.   +$##O   O@-@O ",
"  O#@@O   O@X$+   +$##O   =@@@+   O#@@O   O@X$+   +$##O   =@@@+ ",
"  O@@@O   O@X$+   +$@#O   =*@@+   O@@@O   O@X$+   +$@#O   =*@@+ ",
"  O@@XO   O@X#+   +#@#O   O@@@+   O@@XO   O@X#+   +#@#O   O@@@+ ",
"  O@XXO   O@X$+   +$@#O   O*@@O   O@XXO   O@X$+   +$@#O   O*@@O ",
"  O@XXO   O@X#+   +$@#O   O*@@+   O@XXO   O@X#+   +$@#O   O*@@+ ",
"  O@XXO   O@X$+   +$@#O   O*X@+   O@XXO   O@X$+   +$@#O   O*X@+ ",
"  O@XXO   O@X#+   +$@#O   O@@@+   O@XXO   O@X#+   +$@#O   O@@@+ ",
"  $@XXO   +@o#+   +$@#O   O@X@+   $@XXO   +@o#+   +$@#O   O@X@+ ",
"++#@X@O   +@X#O.+.O$@#O   O#X@O.++#@X@O   +@X#O.+.O$@#O   O#X@O.",
"&O@@X@O   +@X#O+$.O$@#O   O#o@$+&O@@X@O   +@X#O+$.O$@#O   O#o@$+",
"&O#@X@O   +@X#+.$.O$@#O   O#X@#+&O#@X@O   +@X#+.$.O$@#O   O#X@#+",
"XO#@X@O   +@X#O+#+O$X#O   O#X@$+XO#@X@O   +@X#O+#+O$X#O   O#X@$+",
"$+#@XXO   +@X#O.+.O$@@O   O@X@$.$+#@XXO   +@X#O.+.O$@@O   O@X@$.",
";%$@oXO   +@X$+%;%+$@@O   O@X@$%;%$@oXO   +@X$+%;%+$@@O   O@X@$%",
"+;O@XXO   +@X#+;+;+$@@O   O@X@O;+;O@XXO   +@X#+;+;+$@@O   O@X@O;",
"  OXXX$   +@X#+   +$@@$   $@X@O   OXXX$   +@X#+   +$@@$   $@X@O ",
"  +XXX#+++O@X#+   +$@@#+++#@@$O   +XXX#+++O@X#+   +$@@#+++#@@$O ",
"  +XoX@++OO@o#+   +$@@#OO+#@@$+   +XoX@++OO@o#+   +$@@#OO+#@@$+ ",
"  +ooX@O$$+@o#+   +$@@#OO+$@@$+   +ooX@O$$+@o#+   +$@@#OO+$@@$+ ",
"  OooX@OOO+@o#+   +$X@#OO+#@X@+   OooX@OOO+@o#+   +$X@#OO+#@X@+ ",
"  +ooX@++++@o#+   +$@@#+++$$@@+   +ooX@++++@o#+   +$@@#+++$$@@+ ",
"  +ooX$%;.+@o#+   +#X@$%;%$@X#+   +ooX$%;.+@o#+   +#X@$%;%$@X#+ ",
"  +XoXO;+;+@o#+   +#X@O;+;O@X#+   +XoXO;+;+@o#+   +#X@O;+;O@X#+ ",
"  +XoXO   +@o#+   +#X@O   O@X#+   +XoXO   +@o#+   +#X@O   O@X#+ ",
"  +XoXO   +@o#+   +#X@O   O@X#+   +XoXO   +@o#+   +#X@O   O@X#+ ",
"  +Xo@O   +@o#+   +#X@O   O@X#+   +Xo@O   +@o#+   +#X@O   O@X#+ ",
"  +ooXO   +@o#.   +#X@O   O@o#+   +ooXO   +@o#.   +#X@O   O@o#+ ",
"  +ooXO   +@o#.   +$X@O   O@o@O   +ooXO   +@o#.   +$X@O   O@o@O ",
"  +ooXO   +@o#+   +#X@O   O@X#O   +ooXO   +@o#+   +#X@O   O@X#O ",
"  .ooXO   +@o#+   +#o@O   +@o@+   .ooXO   +@o#+   +#o@O   +@o@+ ",
"  .XoXO   +@o#+   +#o@O   +@X@+   .XoXO   +@o#+   +#o@O   +@X@+ "
};
