/* XPM */
static char *tile0921740675773[] = {
/* columns rows colors chars-per-pixel */
"64 64 31 1 ",
"  c #431F0B",
". c #4F270F",
"X c #572B0F",
"o c #57230F",
"O c #3B1B07",
"+ c #632F13",
"@ c #331707",
"# c #271700",
"$ c #331F00",
"% c #070707",
"& c gray6",
"* c gray9",
"= c gray12",
"- c #272727",
"; c #2F2F2F",
": c #373737",
"> c #3F3F3F",
", c gray28",
"< c gray31",
"1 c gray34",
"2 c gray39",
"3 c #F7FF00",
"4 c gray42",
"5 c #432B07",
"6 c gray45",
"7 c #874723",
"8 c #733B1B",
"9 c #7F431F",
"0 c #6B3717",
"q c #87472B",
"w c white",
/* pixels */
" ....    . ....X X.o.. ....X.... .o.. ..  . ....X......    .... ",
"..  ...   .   ....X.............OO.X... ......X.X... .     .....",
"..  .... .... . .X...... .. .. . O. X.... ...X......... ........",
"X.   ..... ........ ............. ..X... .X.X.....XX. ....     .",
" .. ... .. . ... ...... .... .. . O .  OO....X ..X.X  ...  .   .",
".+...   O @ O@O   O @@@@@O @@@ @#$#@$$@###$@ $ $ $ $ #OO. ..    ",
" .. .. #%&&&&&&#&&*&#*****&#**&*&*#*#&*&&&#********&*&&&O..  . .",
" ....XX#&&*=========-=---*-*&%%%%%%%%--==---------===**&@... ...",
"  ...X.#&=;;;;;:;;;;;;;;;-;*%%%%%%%%*;:::>:>::::::;--==&@  ... .",
"......X&&=:::::::::::::;:;:*&%%&%&%%*::>>>>>>>>::::;--=*$... ...",
". XX...#%=;::::>::;;::>>:;>=-;;::--;-:;::>>>,>>>>>::;;-*@ .. ...",
".......&%*;;;:>>>:::>>,,,>>-=;;;;;::-;;;::>,,,,,,>>>:;-* ..  ...",
" ..X.. &%*-;;:>,>>>:>><<<>>-=--;:;:,-;;;:>,,,,,,>>>>:;;*$....XX.",
"....X.X&%*-;;:>,,,>>>,,<<,,--;-;>>>>-:::>,,,,,,>>>:::;-* .. ....",
". ...X.#%*-;;:>>,,,,>,<<<,>-=;;;>1<&*:>>,,,,,,,>>:::;;-*  ....X.",
"   ....#&*;;;:>>,,,,,,<<<,:-=;-;22*-->>,,,,,,,>>:::;;-=* ..X...X",
"  ...X.#%*;;::>>,>,,,<<<<,:=*-:21=;1*>,,,,,,>>>>::;;-==*   .....",
"   . ..#&*;:;::>>,,,,,,<,,;-*;<<=,2-&:,,,,,,>>>:::;-==*&   .. ..",
"    ...#%=::;:>>>>>,,,,,,,;-=:>-<2-*=:<,,,,,>>:>:;--=*=*    ....",
"    ...#&=;::;:>>,,,,,,,,>:==>,-1-=;-:,,,,,>>:>::;--=-=*O. .. . ",
"     ..#%=:::::>,,>,,,,,>>:=->,-<--;;:,,,>>>>:::::;;-;-* ...  ..",
"  . ...#&=:>:::>>>>>,,,>>>:**:<-,=***-,,,,>>:::::;;;;;;= . ... .",
"  ...  #&=:>>>:>>>>>>,,,>::**:,-,****-:>,>>:::;;;;---;;= ...X...",
"  . .. #&=:>>>>:::::::>>::-**><-<=*&%=;:::>>::;;;-;-;;;= ...X  .",
".....XX#%*:>>>:;::;;:::::=*-;><;<=-==**;:;3&3&3&;;;;;;:= ....  .",
".....X.#&&->>::;;;;;;;:;**::>>,;1>;;--**-3&3&3&-<1,,>;;= XX..   ",
" .....X#%*=;>::;---;;:;*->::::,-;1,;;--*&&&**&*,4>;:;;-= ..... .",
"..XX...#%&**====***=-=-:>>;;;:<:=-<<;--=&&*&**;2>-1<,::= .X.....",
".......#%&*=-;;;==&*=*-:::---;;<:==,1:::::;--=1>-<<=**=* ..X.. .",
"...X.. #%&*;>>>>:<,**;-;-=&&*=*=<,=*;--;;;;;;>,=<<&&**=* ...X...",
". ..X.X@&%&&==*=**,,==;>:-=---;-*<<-**=*=-=-:>-:<&*--;-=5 ......",
".....X.#&&-<4464,*=>>*->;:--=->>*=1-=------=:=->**=>>,;= ...X...",
"   ....O&*=:>,,<,;;*--78985===,,=*,--0+088=*--;:==*****&. . .XX.",
"  ...X.@&&*=-;-;-*;;&08...O===,<-;<;=0..X80***:;*-***=**  .. ...",
"O. . ..@&&=-;;::-=;*+9X...@***12-;<;=8...+8+*=-*=:,<>,:=.. ...X.",
"   .. O$&=>24422,;-.7XX...O*&=22-;<;#0....+8.&-&=:::>:;*.......X",
"O . ..O@*=:>1221>--7XX....@#*;21--,:#0..o.XX0=***-=****&. ......",
" ..... #&&=-;;--**78XX...o@*=;2<=;,;=0.....X+8=**=*=--*&...XX ..",
"   ...  &*;:<<,;&08.X... .O*-:4<--,;#0. ..XX.+0**==;:>-*..X ....",
" ...XX. *-,<111-.q...... .@*;>6,-;,;=8. .......0===-;--*.o... . ",
" ..X .  *-:>>:*=qX.o....  O*;,2,-;<-#0 . ...... 0==*=--=..OO  ..",
" .o...O@*=;--&&9+.X . ....O&*->;=;:==8.......... 0****-=X O .. .",
". .OO  @*->:;>88..... . ..O&*:,,>>>-=8  .@11>@ ..0*=**=*........",
".. O ..#$X09qqq....  $ . . %&;,>>>>;=8$@,2:*-==. .08+880+.. . ..",
" ......XX.. XX..X.........O%&*;=*-;=#0O:1;***-;= ..X.+00X......X",
"O ............. X.o...... O%&-,;&=;-*0@4<>;<-*;-#... ..X......X ",
"  .......O   .......*qqq9. #*-2:*-;-*8$,:*,<;*::# .   ...X. .o..",
"  ......... .. .....*0  8.O&*-2>*=:-=0#>-><:=%>:#..... . .....OO",
" .X. .. ............*8@@8. &*-2:==:;=8#:-**-*&,:@.  .... .... O ",
"  ........ . .....o.*8@@8. *=-2,=-:;=8$:;>*>*<>*@..   .. .. ....",
" O..... ..   .....X.*8890. *-;2,;;>;=0$ -;>2><;&...    ........ ",
"  .. ....... ..X....*****.O#::2211<>-0..O*;;;=#X .. ..... ......",
"  .... ... ...X.XX.   ..X. =:::;:,>;58..  **&#o..  .............",
"   ....#&#OO $ O$$@##@$$  @=;:;--::;-+5. $ @$..OO        ....X. ",
"  .....&%%%%&%&%%%%%%&&&&&*-;:>;:,,>;*&&&*&&%&&&&&&&&&&=.o.. ...",
".......%%%==---=*&*&**=====;:>>::,,>:------******=---**#..X.....",
" .o.. .&%*;:>>:-------;;--;:>>,::,>:::;;;;--=*==-;:>:;==.X.X... ",
"  .X...%# +0080+088888880888888889898980+000XX..XX+0+X... ......",
"O X.X.X..X.  X...XXXXXX.XXXXXXXXX++0+++X..X.  . .........X. . ..",
".  .................X..X.. ....X...++...  . $   .... ... .......",
" .X. .....X......X..X. X. ..... ...+..X....     .....  ...  ....",
"..........X.... X............  .. .XX.X. O...   .....   .. ..o..",
"...  .. O  .. .......X.X.. .............OOO ....X.X..   .. ...X.",
"... ..     .  .X.....X........ X .XX....O   .X.X.X...     .. X.X"
};
