/* XPM */
static char *tile0771740674605[] = {
/* columns rows colors chars-per-pixel */
"64 64 55 1 ",
"  c #671F00",
". c #6F331B",
"X c #733B1B",
"o c #57230F",
"O c #272727",
"+ c #373737",
"@ c gray28",
"# c #2F2F2F",
"$ c #2F2F3B",
"% c #272B37",
"& c #13131B",
"* c black",
"= c gray6",
"- c #271700",
"; c #4F270F",
": c #5B0B00",
"> c #390000",
", c #3B1B07",
"< c gray31",
"1 c #333343",
"2 c #1F1F27",
"3 c #23232F",
"4 c #373B4B",
"5 c #432B07",
"6 c #331F00",
"7 c #430000",
"8 c #171B23",
"9 c #434757",
"0 c #5F430F",
"q c #4F370B",
"w c #572B0F",
"e c #331707",
"r c #3F3F3F",
"t c #6F4F17",
"y c #4B4B5F",
"u c #3F3F4F",
"i c #732700",
"p c #632F13",
"a c gray9",
"s c #431F0B",
"d c gray12",
"f c #570000",
"g c gray34",
"h c gray39",
"j c #0F0F13",
"k c #7B5B1F",
"l c #8B672B",
"z c gray42",
"x c #4F5363",
"c c #5B5F73",
"v c #730000",
"b c gray45",
"n c #977737",
"m c #7B7B7B",
"M c white",
/* pixels */
" .XoO+@#$%%&&&&*=&&&&&&&=*&&&&&---&&&&-*=&&&-&&-=*&&&%%$#@+OoX. ",
";::o>,<#122$$$$&333333333214444444444452363633633&$$4221#<,>o::;",
"7o: >,,>824$$$$$49999909q15511515515511149099090q$5$5428>,,> :o7",
"wo  ,>>e$3%5$$$+51r551151151115511115111111155115$$$$%3$e>>,  ow",
"r.<o5  e22%5+$$5515511111511115q5q55111551111155$$5$5%22e  5o<.r",
"<.t;%<<<82$55$+5555511151145q14q44454541115511111$5$5$28<<<%;t.<",
"ry w69<#$2355$555+55111+14q4444uq44u@44q11515111155$$32$#<96w yr",
";oio;<<,$&3-,O%2&-----&-&3$$55$$$555$5$3&&&--&&&&2%363&$,<<;oio;",
";:op>+#e+&$---a=&--222-2&*=====&=&======-2-222--2&&-&$&+e#+>po:;",
"7o: >,+>122555535$5$5$5$5%uu9990000999uq$$55$$5$$411q221>+,> :o7",
"s7po>7<s1a25555540900099q44qurrq@q44444u99999<0r0415t2a1s<7>op7s",
"7oo7,7+61&3555511155444qur+qqqqq0q0q9444444@r5555qq003&16+7,7oo7",
"s :u$s761d855555151q4q44rqqqqqqqqr09@<<t<@<<qq5rq55q58d167s$u: s",
"7;f;7; s1&&555511141q44@qq5qq0qqq0q<g<<<<hh<grr555555&&1s ;7;f;7",
"s7:os7>31&8555111514444@qqqqq<0tqqqy0@q@@<@44r55555558&13>7so:7s",
"> ;75ss71&83%552&&-&&-&&-d555+0q555155$3&&&&&aaaa-5#+8&17ss57; >",
",  ;66s>1ja&&&&---2-2222-=---2d---dd222-2-22-2222&&&&aj1>s66;  ,",
"> 4;sss,1=a4q414$$$$$5$$5%utktkklktt<tg05$$5$$$$$4444a=1,sss;4 >",
"7 o7s+s>1a8,,,##qq+q+++qO5qttttttq0qq00qqqq++qrqq##5#8a1>s+s7o 7",
";7:;$#se$=8td#55555#+5q555qt0qtqtttq00qqq5r+####qqqq58=$es#$;:7;",
" :o<$3%e1a%t,##55555,5555d555qqqqttrr+qqqrr#5-5qq55q5%a1e%3$<o: ",
";f.41h e1jdq5##555O,q55,5,O,qqqqqtqqq55#r5q,5-qqO5q6qdj1e h14.f;",
"> :<h.e>1=-q@@5####5#####+,,,qqqq#qq5555555556OOd66qq-=1>e.h<: >",
", :4se>e%2Oqt@Od-&-&-&&&&6$$555155515556-----a-dddq#5O2%e>es4: ,",
">7;re>ee%2Od-a-a&2222-2-&=2-222-2----2--22-2--22&====O2%ee>er;7>",
",+41se>,%835qq4%$$$$55$5$50009000009000q5555$5$$tzgq438%,>es14+,",
"#14xhes7%24r,###++qq@++q+5+++q+q5qqq555qqq00qq00<ttr,42%7sehx41#",
"srxc.-O>%2$r,#5555qq5#####+#5+q5q+q++#55##qqqrrt@qrr#$2%>O-.cxrs",
", f $eoe%8%#,#5,555#5#55###+++55555+++5#555#qq#qq##5#%8%eoe$ f ,",
", :ps7se%8$0@tq5rq#555######+5+#5555555#555#55555#5,,$8%es7sp: ,",
";:vo;;>e%%2q@<55q5#55#555#55##5#555555#5555#555#5555#2%%e>;;ov:;",
";p f ;;7%8200#,---a------65$$5$5$5$55556----------qrr28%7;; f p;",
";.o >>7s%8u<<lk56666,6-d-aOq5-2------6qa-d--6sqq,O0@tu8%s7>> o.;",
"s.; e, r1$1gkkk05q55#5555@zlzlllzzllllt3#5qrq<tt061tk1$1r ,e ;.s",
";qp7>,>O1220q0,q0kllllt@0qqq#5q0<tt0t<000t0khtlbng@rq221O>,>7pq;",
";o:;>,>#$230@,,5q,qq0t5q@t#+q#+ttg@qq55qq5#ttrkkkk@0032$#>,>;:o;",
";o:o>7s6231@+,,,,,5@tt5#55q00#+00q5555qrqqq0qqggqqqqt1326s7>o:o;",
"s f ,7ss$%%#,#,O,,qqq555#q0q55555555555qrrqqq,5#,,#5#%%$ss7, f s",
"s;:7es76122+q5,,,,,,,5#5#5555555555555#5+qq0+,##,,,#q22167se7:;s",
"s7:o77se824qqqq-----------555555555555505666--&---56%428es77o:7s",
";::o>,>e$3%<0t5d---------=---&-----------------2&=&&&%3$e>,>o::;",
";:: >,>e22%ttqrq0$55555556gt0kllbkttkk00,,,5555556500%22e>,> ::;",
";o:o> ;782$5#q,,5qqqq+0ttq0qqttttt55ptttt000000@qqrrq$287; >o:o;",
".o:7, ;>$23Oqrq0q#555,qqq00qqttt0q5,p;500qqqrr+,,,O,,32$>; ,7:o.",
"<o:;>;7>$&3O5qqq5,,,,,5q5qqqttq5qt,,,,,s0,,,,##O,,,5O3&$>7;>;:o<",
" ::: 7o,+&$,OO,,,##,,,,,,qqqttqrqq,,,,,,,,,,,,,#,OO,,$&+,o7 ::: ",
";;f:;f,7122O,,,,O,#,#,#,,q0q5q,,55,#,,,,,#,,,,,,O,,,,2217,f;:f;;",
"> f ;;7g1a2-626--&-----&-60<5qqq5555536-------aa-d6-62a1g7;; f >",
", ;7,><s1&3&&--=&-------&=-&--&--------a-----dd-aa&&-3&1s<>,7; ,",
">;: t.<71d8qq552$55$$555560g0ttt0tqqqqqq,50q,,#00655q8d17<.t :;>",
" ;: m@re1&&qrqr,5qq++5555,5rqq+,,,,5q5q0r00000r0rqO,,&&1er@m :; ",
"5;o l$s,1&8Orr555rqO,O,,OO#5##,,,O,+5q55qt@@t0+,+0,O,8&1,s$l o;5",
"+;:o.u+s1&8,,,,O,,,,,,O,Oqr5rrO,OO,OO#@0@0@t<00OOOO,,8&1s+u.o:;+",
"<o  e@@s1ja,OOOOO,,OOO,,O,q,O#r,OOO,,O,,O#qtgttOOOO,,aj1s@@e  o<",
"%o: >++#1=a,,O,,OOOOOOOOO,,5rq5,O,,OO,,O,+O#0<q,,,O,,a=1#++> :o%",
"+;: e+++1a82222-&&&-&&--&26336633666663-a--6O##--d2--8a1+++e :;+",
"#; s>O++$=8&--&=&--2--22&=--&&&--&--&&&--dd-d-dda=&&-8=$++O>s ;#",
"+so7ee#+1a%551%255$$5$$$$-$4444q4qq4qq5,OO,,OO,OOd%11%a1+#ee7os+",
"+s7s>#+#1jd3655%54ququuuq5555$$$5555$5$1uuqqqqq41%553dj1#+#>s7s+",
"+s;7e>$O1=-6%656%%55$$5555$5$$555555$$$55$$5$$5%%3%35-=1O$>e7;s+",
"# f e>.3%2O636356%5$$555$55$5$$55$5$$$$5555$5$$%35333O2%3.>e f #",
"#;v:7<@+%2O-3-33%55%5%$55555$$$5$$55$$5%$5$%5%$%%6326O2%+@<7:v;#",
"7;f o;#+%8322656%55%5$$$65$555$$5$5$$$55#$$$5%%%5353238%+#;o f;7",
"sp..<<<.%24-22-=*********=32323-326-6-6=*********=2-242%.<<<..ps"
};
