/* XPM */
static char *xpm_[] = {
/* columns rows colors chars-per-pixel */
"64 64 14 1 ",
"  c black",
". c #272B37",
"X c #272727",
"o c #23232F",
"O c #1F1F27",
"+ c gray12",
"@ c #13131B",
"# c #171B23",
"$ c #3F3F3F",
"% c gray28",
"& c #0F0F13",
"* c #2F2F3B",
"= c #333343",
"- c white",
/* pixels */
" .XXXXooOOOOoXXXXooooXoooooooXoooooooooOOooooooOOOOOOOOXOOOOoX. ",
" +XoXXXOOoOOoXXXXooooXoooooooXoooooOoOOOOooOoOOOOOOOOOOOOOOOooO ",
" +ooXXooOOoOXXXoXoXoXXoOooXoXXoOooOoOoOOOoOoOoOOOOOO+OOOOOOOooO ",
" +oXoX@@@#o+oX@@@#XXoX@@@#XXoX@@@#XOoo@@@#XOoo@@@#OO+#@@@#OoooO ",
" OooXo@#X.ooXo@#X.XXXo@#X.XXXo@#X.+oOo@#X.+oOo@#X.OO##@#X.ooooO ",
" +ooXX@XX$oXXX@XX$XoXX@XX$XoXX@XX$+Oo+@XX$+Oo+@XX$O###@XX$oXX+O ",
" +oXoX@XX$oXXX@XX$XXoX@XX$XXoX@XX$oooo@XX$oooo@XX$OO##@XX$OXXXO ",
" +ooXX@XX%XXX.@XX%XooX@XX%XooX@XX%OXXo@XX%OXXo@XX%O##O@XX%XXXoO ",
" +oXoX&XX%oXXX&XX%XooX&XX%XooX&XX%OoXo&XX%OoXo&XX%O###&XX%oXXoO ",
" +ooXX&XX$oXX.&XX$oooo&XX$oooo&XX$Oooo&XX$Oooo&XX$O##O&XX$XoXoO ",
" +oXXX&XX$oXX.&XX$oooX&XX$oooX&XX$OXoo&XX$OXoo&XX$O#O#&XX$XoXXO ",
" +ooXX&XX$oXX.&XX$oooo&XX$oooo&XX$Oooo&XX$Oooo&XX$OO#O&XX$XXXXO ",
" Ooooo&XX$oXo.&XX$oooo&XX$oooo&XX$oooo&XX$oooo&XX$OOO#&XX$ooXoO ",
" +oooX@XX$Ooo.@XX$oooo@XX$oooo@XX$oooo@XX$oooo@XX$OOOO@XX$ooXX+ ",
" +OooX&XX%+oo.&XX%oooo&XX%oooo&XX%oooo&XX%oooo&XX%OOOO&XX%XXXX+ ",
" +OOoX&XX$+ooX&XX$oooo&XX$oooo&XX$oooo&XX$oooo&XX$OOOO&XX$XXXX+ ",
" +OOoX&XX%oooX&XX%oooo&XX%oooo&XX%OXXo&XX%OXXo&XX%OOOO&XX%XXXX+ ",
" +OOoX&XX%ooo.&XX%oooo&XX%oooo&XX%oooo&XX%oooo&XX%oOOO&XX%XXXX+ ",
" +OOXX+XX%XoXX+XX%oooo+XX%oooo+XX%Oooo+XX%Oooo+XX%OOOO+XX%oXXX+ ",
" +OOoX&XX%XOoX&XX%oOoo&XX%oOoo&XX%OOoo&XX%OOoo&XX%OOOO&XX%oXXX+ ",
" +OOXX+XX$XOXX+XX$oOoo+XX$oOoo+XX$OOoo+XX$OOoo+XX$OOOO+XX$oXXX+ ",
" +OOXX&XX%XoXX&XX%Xooo&XX%Xooo&XX%Oooo&XX%Oooo&XX%OOOO&XX%oXXX+ ",
" +OOXX+XX$ooX.+XX$oooX+XX$oooX+XX$oXXo+XX$oXXo+XX$oOOO+XX$oXXX+ ",
" +OOXX+XX%ooXX+XX%oooo+XX%oooo+XX%oXoX+XX%oXoX+XX%OOOO+XX%oXXX+ ",
" +OOoX+XX%ooXX+XX%oooo+XX%oooo+XX%oOoo+XX%oOoo+XX%oOOO+XX%oXXX+ ",
" +OooX+XX%ooXX+XX%oooX+XX%oooX+XX%ooOO+XX%ooOO+XX%oOOO+XX%XXXX+ ",
" +ooXX+XX%XoX.+XX%XoXX+XX%XoXX+XX%OOOo+XX%OOOo+XX%oOOO+XX%oXXX+ ",
" +oXoX+XX%XXo.+XX%XXoX+XX%XXoX+XX%XOOo+XX%XOOo+XX%oO+O+XX%oXXX+ ",
" +ooXX+XX%.XXX+XX%XXXo+XX%XXXo+XX%OOoo+XX%OOoo+XX%oOOO+XX%XXXX+ ",
" +oXXX+XX%XXX.+XX%XXXX+XX%XXXX+XX%OXXX+XX%OXXX+XX%oOOO+XX%XXXX+ ",
" +XXXX+XX%XXX.+XX%XXXX+XX%XXXX+XX%oXXX+XX%oXXX+XX%XOOO+XX%.X.X+ ",
" +oXXX+XX%XXXX+XX%XXXX+XX%XXXX+XX%OXXX+XX%OXXX+XX%oOOo+XX%XXXX+ ",
" +XXX.+XX%..X.+XX%.XXX+XX%.XXX+XX%oX.X+XX%oX.X+XX%XOoO+XX%.X.X+ ",
" +XXX.+XX%....+XX%XXXX+XX%XXXX+XX%XXXX+XX%XXXX+XX%XoOX+XX%X..X+ ",
" +XXX.+XX%XXX.+XX%XXXX+XX%XXXX+XX%oXXX+XX%oXXX+XX%Xooo+XX%...X+ ",
" OXXX.+XX%..X.+XX%XXXX+XX%XXXX+XX%oXXX+XX%oXXX+XX%XooX+XX%....O ",
" O.X..+XX%.XX.+XX%.XXX+XX%.XXX+XX%XXXX+XX%XXXX+XX%Xooo+XX%....O ",
" OX.X.+XX%.XX*+XX%XXX.+XX%XXX.+XX%XXXX+XX%XXXX+XX%Xooo+XX%....O ",
" O....+XX%.X.*+XX%.XX.+XX%.XX.+XX%XXXX+XX%XXXX+XX%XoXo+XX%....O ",
" O....+XX%....+XX%.X..+XX%.X..+XX%XXX.+XX%XXX.+XX%.XXX+XX%....O ",
" O....#XX%....#XX%.X..#XX%.X..#XX%....#XX%....#XX%.XXX#XX%....O ",
" O....+XX%.X.=+XX%.XXX+XX%.XXX+XX%XX.X+XX%XX.X+XX%XXXX+XX%....O ",
" OX...#XX%.X.=#XX%.XX.#XX%.XX.#XX%XXX.#XX%XXX.#XX%XXXX#XX%....O ",
" O.X..#XX%.X..#XX%.XX.#XX%.XX.#XX%XXX.#XX%XXX.#XX%XXXX#XX%....O ",
" OXX..#XX%.X..#XX%.X.X#XX%.X.X#XX%XXXX#XX%XXXX#XX%XXXX#XX%....O ",
" OXX..#XX%....#XX%....#XX%....#XX%XXXX#XX%XXXX#XX%XXXX#XX%....O ",
" OXXX.#XX%...*#XX%....#XX%....#XX%.XXX#XX%.XXX#XX%XXoX#XX%....O ",
" OXX..#XX%*..*#XX%....#XX%....#XX%XX..#XX%XX..#XX%XoXo#XX%....O ",
" OXX..#XX%...*#XX%....#XX%....#XX%XX.X#XX%XX.X#XX%Xooo#XX%....O ",
" OXX..#XX%...=#XX%....#XX%....#XX%X...#XX%X...#XX%Xooo#XX%....O ",
" OX...#XX%...=#XX%....#XX%....#XX%X...#XX%X...#XX%Xooo#XX%....O ",
" OX...#XX%**.=#XX%....#XX%....#XX%....#XX%....#XX%.ooo#XX%....O ",
" OX.*.#XX%=**=#XX%....#XX%....#XX%....#XX%....#XX%.ooo#XX%*.*.O ",
" OX.**#XX%***=#XX%...*#XX%...*#XX%.*..#XX%.*..#XX%.ooo#XX%*.*.O ",
" OX.**#XX%***=#XX%....#XX%....#XX%....#XX%....#XX%.ooo#XX%*.*.O ",
" OX..*#XX%***=#XX%*..*#XX%*..*#XX%....#XX%....#XX%.ooo#XX%.**.O ",
" O.X.*#XX%=**=#XX%*...#XX%*...#XX%X.*.#XX%X.*.#XX%XoXo#XX%***.O ",
" OX..*#XX%***=#XX%**..#XX%**..#XX%....#XX%....#XX%.XoX#XX%.**.O ",
" O.X.*#XX%****#XX%..*.#XX%..*.#XX%X...#XX%X...#XX%XXXX#XX%***.O ",
" O....#XX%..**#XX%....#XX%....#XX%X...#XX%X...#XX%XXXX#XX%***.O ",
" O...*#XX%*X.*#XX%....#XX%....#XX%.X..#XX%.X..#XX%.XXX#XX%****O ",
" X...*#XX%*..=#XX%....#XX%....#XX%X.X.#XX%X.X.#XX%XXXX#XX%***.O ",
" X*.**#XX%..*=#XX%....#XX%....#XX%....#XX%....#XX%.X.X#XX%***.X ",
" X****#XX%...*#XX%...*#XX%...*#XX%.**.#XX%.**.#XX%....#XX%****X "
};
