/* XPM */
static char *result[] = {
/* columns rows colors chars-per-pixel */
"64 64 57 1 ",
"  c #333343",
". c #2F2F3B",
"X c #373B4B",
"o c #3F3F4F",
"O c #434757",
"+ c #4B4B5F",
"@ c #4F5363",
"# c #272B37",
"$ c #23232F",
"% c #171B23",
"& c #13131B",
"* c #676B7F",
"= c #838383",
"- c LightGray",
"; c gray89",
": c #BBBBBB",
"> c #9B9B9B",
", c gray39",
"< c #0F0F13",
"1 c #373737",
"2 c gray31",
"3 c gray45",
"4 c #8B8FA7",
"5 c #A3ABC3",
"6 c #6B6F87",
"7 c gray70",
"8 c gray86",
"9 c #7B7B7B",
"0 c #5F6377",
"q c #5B5F73",
"w c gray28",
"e c gray67",
"r c #CBCBCB",
"t c #57576B",
"y c #2F2F2F",
"u c #979FB7",
"i c #C3C3C3",
"p c #939393",
"a c #BFC7DF",
"s c #73778B",
"d c gray42",
"f c #B7BFD7",
"g c #1F1F27",
"h c #777B93",
"j c #070707",
"k c #3B0000",
"l c #9B0000",
"z c red",
"x c #878BA3",
"c c #9397AF",
"v c #7F839B",
"b c #ABB3CB",
"n c #B3B7CF",
"m c #8B8B8B",
"M c white",
"N c #9FA3BB",
"B c #EFEFEF",
/* pixels */
"           ..      XXXXXXoOO++++++++OOoXXXXXX      ..           ",
"           ..       XoO@++++++++++++++++@OoX       ..           ",
"                  XO@@@@oX#$%&&&&&&%$#Xo@@@@OX                  ",
"                X++++X$%&&&&&+****+&&&&&%$X++++X                ",
"  XXX        .XO+++#%&%#.XO@O=-;:>,XO $%<&&%#+++OX.        XXX  ",
"  XXX      XXO@@@#&%1X2,34>567;;879@30q+O $<&&#@@@OXX      XXX  ",
"  XXX      XO@@X$%$w2*>77ee>0>8;r79t99993tXXy%&$X@@OX      XXX  ",
"          X+@@#&% 0uii:7ep3tX,pppp,.@t333330OX#&&#@@+X          ",
"         X+@O$%.04ari:>3@XX.$2s44s2$.XXOt,dddt+o$&$O@+X         ",
"        X++X%& *f--r>qXX.y%%g<w33w<g%%y.XXO2dd*+X$<%X++X        ",
"       X++X%$+9a-873wX$%%%%%%<w33w<%%%%%%$XX@2000#%%%X++X       ",
"       ++X&y2=8884,w#%&%%%$$#%OssO%#$$%%%&%#X O**0Xg%&X++       ",
"      O+o&#2=8;-hO %&%%%$#...%OssO%...#$%%%&%# O0*,O$%&o+O      ",
"     o++$g2=-;i*w.%%%%$#. ...%OssO%... .#$%%%%## td0O$<$++o     ",
"    X++#%X9-;i6w#%%%$$jjj#...%OssO%...#jjj$$%%%$# ,6* $&#++X    ",
"    O+X&.3a;-6O#g$%$.jklk<...%OssO%...<klkj.$%$g$. d30 g&X+O    ",
"   X++$g,5;;pO#g$$#..jlzlj...%OssO%...jlzlj..#$$g$#O330 <$++X   ",
"   ++#&1=-;e2#%$$    jklk<#%%<#OO#<%%#<klkj    $$%#X23h+y&#++   ",
"  X++&%@58i,X%$$ X   $jjj&<<&<#OO#<&<<&jjj$   X $$% 1,h*X%&++X  ",
"  O+#& x:8xw%%$#XX   .#%<<&$@2*cctw %<<<%#.   XX#$%%XO=9t#&#+O  ",
"XX@@%&Oea72.gg#XXX  .#%<<$vrrr77ee=93O%<<%#.  XXX#gg.Xd=3O<%@@XX",
"Xo@X&#6b-6w%$g XXX  #%<&,r8:>02www2d3392&<%#  XXX g$%XO=v+$&X@oX",
" O+$&O>n:w#g$$<j<#  %<%h;-x,X#g%%g#. Od=+%<%  #<j<$$g#w6vs &$+O ",
" ++%<@enhw%$$<klk< %<&6;:9w#$######$#..22O&<% <klk<$$%wtv=+<%++ ",
"X+o&#6ef@ $$#jlzlj#&&,-76 %#  ....  #%#.2,2<&#jlzlj#$$ O4=t%&o+X",
"o+X&.meeX$$$ <klk<%&#nid.%#   ....   #%# ,0%&%<klk< $$$X==s#&X+o",
"O+#&X47hX%$#X#<j<#&%drhX%#.   ....   .#%.OdO&&#<j<#X#$%X0ms &#+O",
"O+$&@>it.%g#X XXX$&geeOy$..   ....   ..$yXd9%&$XXX X#g%.tmxO&$+O",
"++%&Xd9X$gg X XXX$%OemX$#..          ..#$ ,= &$XXX X gg$X,,X&%++",
"++&+=7>,2&&g$g$$$&&37t.$...          ...$#O9,<&$$$g$g&&2=epd+&++",
"++&*;M;N=2222+22+11e7w$#...          ...#$X>p11+22+2222=;MBb*&++",
"q@<dMMMN4**==h==h22N5@%#...          ...#<#>511h==h==**sMMMb,j@q",
"q@<d8M;N4**==h==h22>u@%#...          ...#&15511h==h==**s-M;b,j@q",
"++&*b7i>=2222+22+116>wg#...          ...#$O7411+22+2222=>rin*&++",
"++&+d99,2&&g$g#gg<<t9@.#XXXXXXXXXXXXXXXX# d7t<<gg#g$g&&2,m=d+&++",
"++%&X,,X$gg#  X  %& 33X#XXXXXXXXXXXXXXXX.2p:X&%  X  #gg#+9dX&%++",
"O+$&Ohpt.%g$     $&%d=w##XXXXXXXXXXXXXX  d::g&$     $g% =r>@&$+O",
"O+#& 6p6X%g$     #&<OdtX$#             .,h-,&&#     $g$wcr4X&#+O",
"o+X&#*=mX$%g##<j<#%&%0*O # XXXXXXXXXXX tsr8#&%#<j<##g%#@7i4#&X+o",
"X+o&%t=pO.%g#<klk<#&<1,,w.$#XXXXXXXX .,37;d&&#<klk<#g%X,r70%&o+X",
" ++%<+99tX%ggjlzlj %&<X,t ##$##  ##.Ot9:83&&% jlzljgg#24re@<%++ ",
" O+$& *9dX#%gjklkj.#%&%Odd+1 .$$$# @,xrr0%&%#.jklkjgg teiv &$+O ",
" X+X&$O99+X%g%jjj$  #%&&2h33d2www20pe:N2&&%#  $jjj%g#ts8:t$&X+X ",
"  ++%<X*9,X#%g$ ..  .#%<&gOd9=ee777ep@g&<%#.  .. $g#@te8cO<%++  ",
"  O+#&y+33OX%%g#... .  %&&&% 1t55t1 %&&&%  . ...#gX2,h;-*y&#+O  ",
"  X++&%X*3,..%g$#....  .#%&&&j#OO#j&&&%#.  ....#$y1,,:;nO%&++X  ",
"   ++#&y+332 #%$g#   #<j<##$%<#OO#<%$##<j<#   #g$#t,>;r0y&#++   ",
".  X++$<X*ddO##ggg#  <klk<   %OssO%   <klk<  #gg @,h;8NO<$++X  .",
"    O+X&$X0d, #$%gg# jlzljXX %OssO% XXjlzlj #ggy ,6-;n2$&X+O    ",
"    X++#&yOdd, #$%g%$jklk<...%OssO%...<klkj$%g% ,6i;r91&#++X    ",
"     o++$<$O,dt $$%%%&jj<#...%OssO%...#<jj&%%%Xt*:8r4.<$++o     ",
"      O+o&%$X,,+ $#%&%%g##...%OssO%...##g%%&%Xt3i8i4.%&o+O      ",
"       +@X&%$X@@t2##$%&g$g$$#%OssO%#$$g$g&%.wtm8-i4.%&X@+       ",
"       X+@X&%# tdd,O##$%$$ggg&w33w&ggg$$%.@2*eii53 %&X@+X       ",
"        X+@X%&yO*ddd2X..#y$%g&w33w&g%%$ w+0m7::c01&%X@+X        ",
"      . XX++O$&$XO0ddd,@X. .$247es2$.XO@3=e7ec6O$&$O++XX .      ",
"      ... X+++$&<yOt033h93t@X,8M8p,Xt3eebeNchOy<&$+++X ...      ",
"            O++X$&%#O@*39999,9MMM79,>>ee>v*@#%&$X++O            ",
"             o+++#%&&$ +t*03298M879,mhh3,O$&&%#+++o             ",
"           .. XO+++#$&&<%# OX,>>>>dX@O.%<&&$#+++OX ..           ",
"           ..   X++@@X$%&&&&&+****+&&&&&%$X@@++X   ..           ",
"           ..     XO@+++oX#$%&&&&&&%$#Xo+++@OX     ..           ",
"           ..      XXXO++++++++++++++++++OXXX      ..           ",
"           ..      XX   XoOOO++++++OOOoX   XX      ..           "
};
