/* XPM */
static char *result[] = {
/* columns rows colors chars-per-pixel */
"64 64 54 1 ",
"  c gray28",
". c #333343",
"X c #272B37",
"o c gray12",
"O c #2F2F2F",
"+ c gray31",
"@ c #373737",
"# c black",
"$ c gray6",
"% c gray9",
"& c #070707",
"* c #0F0F13",
"= c #3F3F3F",
"- c #2F2F3B",
"; c #57230F",
": c #6F331B",
"> c #1F1F27",
", c #0B0B0F",
"< c #5F0000",
"1 c #AB0000",
"2 c red",
"3 c #CB0000",
"4 c #8F0000",
"5 c #3B0000",
"6 c #13131B",
"7 c #272727",
"8 c #4F270F",
"9 c #9B0000",
"0 c #E30000",
"q c #570000",
"w c #730000",
"e c #23232F",
"r c #3F3F4F",
"t c #771F00",
"y c #434757",
"u c #373B4B",
"i c #C70000",
"p c #431F0B",
"a c #572B0F",
"s c #632F13",
"d c #432B07",
"f c #4F5363",
"g c #732700",
"h c #171B23",
"j c #331707",
"k c #6B3717",
"l c #3B1B07",
"z c #6B0000",
"x c #4F370B",
"c c #5B0B00",
"v c #271700",
"b c #430000",
"n c #331F00",
"m c white",
/* pixels */
" .X.XoOO+..O@  O##$%$&##*==-XOXX--@;:;>,#<122222234<5#&,66>>>XXX",
"+....77 =.O=+=@#&$$&###7=@OXXX-XO;:86#590222209q##*o>7XXX7X7X7XX",
"+........O=+O##&$$&##*-=-XXXXXO;:76#<32222045#6>7777777X7X7X7X7X",
"+.......=  O##&&&&##7=.XXXXXX;:8*#w022229q#*>X-X7O7e77X777XXX7XX",
"+......r+=7##&&&&#&7=-XXXXX8t86#w02220w5,>XXXXXX7777e77777XX7X77",
"+.....y+O%##$%$$#$-uXXXXXO;;7#<02220<#*eXXXXXX-X7e7ee>7ooo>%%o%%",
"+...@  O$##$%%$#*..XXXXX8:O,5i2220<#6X77XXXXXXXX7o>o6o7p8as:::::",
"+..=+=7###%%%##%..OXXXX;;%#42220w#6XX7XeX7X7XXe%%%p;::s8d7O7X777",
" .yfr%###ooo%#7=@X-XXOg8,50222156-.-.X7e777ohoj8::O7>>7777777777",
"@  u####%%%##X=OOXXX8:7#w22205,e-...X77e>o%j;:aOeeeeee7777777777",
"+=@###$%%%##X=-O7X-;;6#i2224#>.-.X.--X>h%psk@777eeee>>77p8;ggt77",
"O#####&$&#&X=-O77X;;,50220q,>.--X.X-e%%;s@77X777>ee78st;;8p77777",
"####&&&&#&O=-X777g8&<222356X---XXXeho;:@777777778s:;l7o66,,##6%e",
"###$$$$&#X=OXX777jhw2229#>.XXXXXXho;:Oee777778g:876,##5zwii0296e",
"##&$$$##o=-OXX777hO902<&e..XXXXehp:@X7ee777;:876#5<902222222296e",
"#$$$$$#o=-X77X777o@=45,XX--XXXho;x-X7eee7g:O6#5z32222220iwz5566e",
"%%$$$&%=@XXeX77e77X==>eXX--Xehp:OXX77e7s:l*#<32222234q##,66o>%6>",
"%%%%$*@@XXX7gl7e777X==>eXX->o;OXXXXX7s:l,54022223z5#,>7777777%6e",
"&&&##XuXXXX;8766>7777==oo7hj:7777XX8:p,5922220w5&6>eeee777777%6e",
"$###e=XXXX;;#4966>ee7e==o%p:77777Og;6#w0222i<#*oeeeeeeee7e7e766e",
"###6.OXX78;,<20466>7eee@@8:X7e777:7#q0222i5#%XX7eeeeeee7eee7e66e",
"##$-@XX77:65222566%>ee7hakX-7eXa;6#12220<#>7XXX7eeeeeee>>>oo6,,e",
"##>=X77Xgo#022<,h6%%>eeedoX-7O:p,50222w#6777XXXXeee>>h>e88aa::Oe",
"#%=OXX7;8#i229&>>>66*eeee>XX7:l#w22235,>e77XXXXX>%678;:apjo77777",
"$.@O778;,w223#>>ee>6,>eee>7p:%#i2224#>e>>e7777o%o;:8jo>>e>e77e77",
">=O777:%52205oee>e>%plhe77p:o#3220q#>ee>>e77o%p;s7>>>>eeeeeee7>e",
"=-O77gp#022q67eeee%jp>7e7p:7502235677ee>>7o%p;a7hee>>>eee7d888;s",
".Xe7p;,4224#77>>ehjc>ee77:o50223#o77eee>h%j;a777>ee>>o8s;pjj%%66",
"OX77to5220#o777>>%ch7e77:o50229#o7777ee%%ps77777>e7pcp%%6,&&####",
"O77;8#i2256777e>68v7777to#0229#o77777>hj;O777777788%,&#55q913022",
"Xe7:6<221#777776pj7777gl#3229#777777o6psO77777d8p%&#5wi022222222",
"77;8#0205o7777o%bo777;8#i223#o77777o%88Xe77778p%&5<i2222239z55##",
"77:,w22w,77777%8%e778;,w223#o777e7oj;O7>e778;%&5w022209q#&,6o>>>",
"7;p#020#77777%pj>777:652205>7777eoj;OOee778j&5z0222i<#,o77eee7e>",
"7:,w22<67777o%ch>e7go#022q6X777>hj;@O7>e7;%#b122295#6>e777e7ee>>",
";p#020#77777%8v>>e8;#1224#XX77Xo%;@O7e>pp,#w022i5&>>>>ee7>ohh666",
":6<22<6777Xojco7>7:6q223#7XX77e%8O-777eo654020z#6ee>>>>%6%%6hhh6",
"8#320#X77X7%8v7e>s8#0225>7XXX7h8OO7X77ee6&02356>e>eh6666>OOa;;;s",
">522w,7777ojco7e7:,w22w,77XXX%p8@7X77eeee@*4#oX7eh666h7a;8777777",
",9225e7777%8v77esl5020#>77XXojaO7XX7>7ee>O=OeX77h66>8;877777777e",
"#029,7X7Xo%co7e7:,922<6e77Xe%;@77XO87>7>7e-=-Xe%6h8;7777ee77X77e",
"<22qoXXXX>pj777sl522i#77XXXhpOO77O;65&6>77X-=e%%p;777eeeee77p8;7",
"120#XX7XX%co777:,4225677XXeoaO777s7#0z&6o7X7-=X8877eeee778pjo%6e",
"224,XXXXejl777al#02i#77777h;OXXX8O#i235*%oXXX-kd77eee7ppj%*$,,,e",
"225oX7XXh8o777:6<22<67XX7ojaOeX7;*z223#$%%XXOX777eee7pj*$*%o6,%7",
"20#7XOXXocoX788#320#77777%;@77Xso50205oo%$*OXOOee>78j6**oo77%$67",
"29,7OOOejl777go522w*77X7oja-X7O;,922z677%$,p7OOO7op%$*o777o,,6%7",
"2qo7OOXhp7X77:6z225>X7XX%;@XXXso522i#777%6j77OOXpj%$*77o,#q4i4%7",
"2#7OXOXhceX788#323&XX7Xe%sXXXO;,1225>77%$v8OXXO8j%$o77,5402229hX",
"3#O7OXeop777gO522z6777XopOX-Xs75229,XXo%$87XXX7j%*oeo#w022209o77",
"4,7XXXejoX7X:%<2257X77X%:XX-O;*4225>XX%*j7XXXOph*>e6#i222i<#l;s=",
"<o77XX>p7XXp;,923#7X77eosXXX87#02i#XXo6$8OXXX8o$he653220<5;s;;77",
"5o7XXXhcXX7;p#024677X7epOXXXs>q22<>XX%$j7XXXpj6*e>#3223bp;;p7777",
"#7XXXXocX77g7#22qo7XX7h;OXXO8*920#XXX%$87XX7ph67>#i22i5;sdX77777",
"#7XXXXopXX7t>522#77X7Xh:XXX8O#029,XXo*v77XX8j6o7,w2235;sO77777X7",
",7XXXejpX77;6z20#77X777sX7Xs7522q>XXh$p777Op66Xo5020bpsO7777X777",
"677XXejpO7p;6w2i&77X7oO8XXX;>q22#XXX%$;777pj6>7,422<b;O777777777",
"677OX7po7788,i2w67777o8dXOO86w23&XXeh$p777;%6o7#02i5;d7777777777",
"o77OO7p7OX;p&i2z677X7o;OXOOO,i29*X7e6jn777p667>q22<p;>7777777X77",
"o77OOo;777;7#025>7777o;7OO8O,i2z67Xo6l7777j$>7*420#;p>7777777777",
"o777Oo;777;7#225>7777%:7OOaO#025o7X%68777po$o7,i29j;o>7777777777",
"7777Oh;77Xt7622o>77X7%:XXXaO#225oX7h6;7778%$77o02<;;>>7777777X77",
"7777X%c777777========%:7X7sX#22#X7Xh*;777;O@=====@s8e>7777777777",
"777XXhc777777777777X77X7XXsX#22#XXXh$;777777777777.eee7777777777"
};
