/* XPM */
static char *xpm_[] = {
/* columns rows colors chars-per-pixel */
"64 64 256 2 ",
"   c black",
".  c #010101",
"X  c #020202",
"o  c gray1",
"O  c #040404",
"+  c gray2",
"@  c #060606",
"#  c #070707",
"$  c gray3",
"%  c #090909",
"&  c gray4",
"*  c #0B0B0B",
"=  c #0C0C0C",
"-  c gray5",
";  c #0E0E0E",
":  c gray6",
">  c #101010",
",  c #111111",
"<  c gray7",
"1  c #131313",
"2  c gray8",
"3  c #151515",
"4  c #161616",
"5  c gray9",
"6  c #181818",
"7  c #191919",
"8  c gray10",
"9  c #1B1B1B",
"0  c gray11",
"q  c #1D1D1D",
"w  c #1E1E1E",
"e  c gray12",
"r  c #202020",
"t  c gray13",
"y  c #222222",
"u  c #232323",
"i  c gray14",
"p  c #252525",
"a  c gray15",
"s  c #272727",
"d  c #282828",
"f  c gray16",
"g  c #2A2A2A",
"h  c gray17",
"j  c #2C2C2C",
"k  c #2D2D2D",
"l  c gray18",
"z  c #2F2F2F",
"x  c gray19",
"c  c #313131",
"v  c #323232",
"b  c gray20",
"n  c #343434",
"m  c #353535",
"M  c gray21",
"N  c #373737",
"B  c gray22",
"V  c #393939",
"C  c #3A3A3A",
"Z  c gray23",
"A  c #3C3C3C",
"S  c gray24",
"D  c #3E3E3E",
"F  c #3F3F3F",
"G  c gray25",
"H  c #414141",
"J  c gray26",
"K  c #434343",
"L  c #444444",
"P  c gray27",
"I  c #464646",
"U  c gray28",
"Y  c #484848",
"T  c #494949",
"R  c gray29",
"E  c #4B4B4B",
"W  c #4C4C4C",
"Q  c gray30",
"!  c #4E4E4E",
"~  c gray31",
"^  c #505050",
"/  c #515151",
"(  c gray32",
")  c #535353",
"_  c gray33",
"`  c #555555",
"'  c #565656",
"]  c gray34",
"[  c #585858",
"{  c gray35",
"}  c #5A5A5A",
"|  c #5B5B5B",
" . c gray36",
".. c #5D5D5D",
"X. c gray37",
"o. c #5F5F5F",
"O. c #606060",
"+. c gray38",
"@. c #626262",
"#. c gray39",
"$. c #646464",
"%. c #656565",
"&. c gray40",
"*. c #676767",
"=. c #686868",
"-. c DimGray",
";. c #6A6A6A",
":. c gray42",
">. c #6C6C6C",
",. c #6D6D6D",
"<. c gray43",
"1. c #6F6F6F",
"2. c gray44",
"3. c #717171",
"4. c #727272",
"5. c gray45",
"6. c #747474",
"7. c gray46",
"8. c #767676",
"9. c #777777",
"0. c gray47",
"q. c #797979",
"w. c gray48",
"e. c #7B7B7B",
"r. c #7C7C7C",
"t. c gray49",
"y. c #7E7E7E",
"u. c gray50",
"i. c #808080",
"p. c #818181",
"a. c gray51",
"s. c #838383",
"d. c #848484",
"f. c gray52",
"g. c #868686",
"h. c gray53",
"j. c #888888",
"k. c #898989",
"l. c gray54",
"z. c #8B8B8B",
"x. c gray55",
"c. c #8D8D8D",
"v. c #8E8E8E",
"b. c gray56",
"n. c #909090",
"m. c gray57",
"M. c #929292",
"N. c #939393",
"B. c gray58",
"V. c #959595",
"C. c gray59",
"Z. c #979797",
"A. c #989898",
"S. c gray60",
"D. c #9A9A9A",
"F. c #9B9B9B",
"G. c gray61",
"H. c #9D9D9D",
"J. c gray62",
"K. c #9F9F9F",
"L. c #A0A0A0",
"P. c gray63",
"I. c #A2A2A2",
"U. c gray64",
"Y. c #A4A4A4",
"T. c #A5A5A5",
"R. c gray65",
"E. c #A7A7A7",
"W. c gray66",
"Q. c #A9A9A9",
"!. c #AAAAAA",
"~. c gray67",
"^. c #ACACAC",
"/. c gray68",
"(. c #AEAEAE",
"). c #AFAFAF",
"_. c gray69",
"`. c #B1B1B1",
"'. c #B2B2B2",
"]. c gray70",
"[. c #B4B4B4",
"{. c gray71",
"}. c #B6B6B6",
"|. c #B7B7B7",
" X c gray72",
".X c #B9B9B9",
"XX c gray73",
"oX c #BBBBBB",
"OX c #BCBCBC",
"+X c gray74",
"@X c gray",
"#X c gray75",
"$X c #C0C0C0",
"%X c #C1C1C1",
"&X c gray76",
"*X c #C3C3C3",
"=X c gray77",
"-X c #C5C5C5",
";X c #C6C6C6",
":X c gray78",
">X c #C8C8C8",
",X c gray79",
"<X c #CACACA",
"1X c #CBCBCB",
"2X c gray80",
"3X c #CDCDCD",
"4X c #CECECE",
"5X c gray81",
"6X c #D0D0D0",
"7X c gray82",
"8X c #D2D2D2",
"9X c LightGray",
"0X c gray83",
"qX c #D5D5D5",
"wX c gray84",
"eX c #D7D7D7",
"rX c #D8D8D8",
"tX c gray85",
"yX c #DADADA",
"uX c gray86",
"iX c gainsboro",
"pX c #DDDDDD",
"aX c gray87",
"sX c #DFDFDF",
"dX c gray88",
"fX c #E1E1E1",
"gX c #E2E2E2",
"hX c gray89",
"jX c #E4E4E4",
"kX c gray90",
"lX c #E6E6E6",
"zX c #E7E7E7",
"xX c gray91",
"cX c #E9E9E9",
"vX c #EAEAEA",
"bX c gray92",
"nX c #ECECEC",
"mX c gray93",
"MX c #EEEEEE",
"NX c #EFEFEF",
"BX c gray94",
"VX c #F1F1F1",
"CX c gray95",
"ZX c #F3F3F3",
"AX c #F4F4F4",
"SX c gray96",
"DX c #F6F6F6",
"FX c gray97",
"GX c #F8F8F8",
"HX c #F9F9F9",
"JX c gray98",
"KX c #FBFBFB",
"LX c gray99",
"PX c #FDFDFD",
"IX c #FEFEFE",
"UX c white",
/* pixels */
"~ ] ] #.#.#.#.#.:.#.:.:.5.5.e.5.e.e.e.N.N.N.N.N.N.N.F.5.~ :.].s.~ 1XF.N.N.z.F.F.F.N.z.s.s.N.N.e.e.e.e.5.:.:.:.#.#.#.#.#.] ] ] ~ ",
"] ~ ] #.#.#.#.#.:.:.:.e.5.5.e.e.5.z.e.N.N.N.N.N.N.F.N.:.~ s.*XF.~ *X~.N.s.N.U.N.s.s.e.s.s.z.z.z.e.z.5.5.:.:.#.#.#.#.] :.#.#.] ] ",
"~ ~ ] #.#.:.#.:.e.e.e.e.5.5.e.e.e.e.z.N.N.N.N.N.N.N.F.:.~ s.1XF.~ oXF.z.s.e.U.N.N.s.e.s.z.z.z.s.e.e.e.5.5.:.:.#.#.:.:.:.:.#.] ] ",
"] ] ] #.:.:.:.:.:.e.:.:.:.e.e.e.5.z.z.N.N.N.N.N.N.F.F.:.~ F.9X].~ oXF.s.s.e.z.F.N.F.N.N.z.N.z.s.e.e.e.e.:.:.#.#.:.:.:.:.#.#.#.#.",
"~ ] ] :.:.:.:.:.s.e.:.:.5.5.e.e.s.s.s.s.s.s.s.F.N.N.F.:.~ F.uXoX~ *XF.s.e.e.s.F.F.N.N.N.N.N.z.e.e.e.e.5.5.:.:.#.:.:.#.#.#.] ] ] ",
"~ ~ ] #.:.:.e.:.:.#.:.5.5.e.s.s.e.z.s.s.s.s.s.s.F.F.F.:.~ ~.hX1XN 1X~.s.e.s.U.F.N.F.N.N.N.N.s.z.e.z.e.5.5.:.#.#.:.#.#.#.#.] ~ ] ",
"~ ~ ] ] e.:.:.:.:.#.:.:.e.s.s.s.s.s.s.s.s.s.s.s.s.F.~.:.~ ~.hXuXs 1X~.s.z.N.~.F.N.N.N.N.N.N.N.z.e.e.e.5.5.:.:.#.#.:.#.#.#.] ] ] ",
"~ ] ] #.:.:.:.#.e.e.:.e.s.s.s.s.s.s.s.s.s.s.s.s.s.F.~.:.~ F s s 5 1X~.N.F.N.F.e.oXe.N.N.z.z.N.z.e.z.e.e.5.:.#.#.#.#.:.:.#.#.] #.",
"~ ~ ] #.:.#.#.e.e.e.s.s.s.s.s.s.s.5.s.s.s.s.s.s.s.F.~.:.~ s.*Xs.s oX~.N.~.F.F.] F ] N.N.N.z.N.z.e.e.e.5.5.:.:.#.#.#.:.:.#.#.:.#.",
"~ ~ ] #.#.#.:.e.s.e.e.s.s.s.s.s.s.s.s.s.s.s.s.s.s.F.~.:.~ s.*X5.s 1X].~.U.F.N.e.] e.s.N.N.z.z.z.z.z.e.e.5.:.#.#.#.:.:.:.#.#.] ] ",
"~ ~ ] #.#.:.e.:.e.:.:.e.e.s.s.s.z.z.s.s.s.s.s.s.s.s.N.] F s.1X:.N 1X].~.U.N.N.z.z.s.s.N.N.z.N.z.z.e.e.5.5.:.:.#.#.#.e.e.:.#.] ] ",
"~ ] ] #.:.:.:.:.:.:.:.:.e.s.s.s.z.z.F.z.s.s.z.F.s.s.N.] F s.1XF.~ 1X].~.z.z.N.N.e.s.e.N.z.z.N.z.z.e.e.e.5.:.#.#.#.#.:.:.#.#.] #.",
"~ ] ] #.:.:.#.#.:.:.e.e.e.e.e.s.z.z.N.F.s.N.N.N.s.s.N.] ~ s.*X~.U 1X].~.e.s.z.N.e.e.e.N.N.z.z.z.z.e.e.5.5.:.:.:.:.#.:.:.] ] ] ~ ",
"~ ~ ] #.#.] ] #.#.:.:.:.#.:.#.e.z.z.s.z.s.N.N.N.s.s.N.] ~ z.*X~.U 1X].~.z.s.N.N.e.e.e.N.N.s.e.z.z.s.e.:.e.:.#.:.:.e.e.:.] ] ] ] ",
"~ ~ ] ] #.] ] ] #.#.e.e.e.#.:.e.e.e.e.5.s.N.F.N.s.s.N.] ~ z.*XF.U 1X].~.U.s.F.e.e.e.e.s.N.e.s.s.z.e.e.:.:.:.:.e.:.:.:.:.#.#.#.] ",
"~ ] ] #.] ] ] ] #.#.#.:.:.:.:.e.e.e.e.s.5.N.s.z.s.s.N.#.F z.*X~.~ 1X].~.~.z.N.e.e.e.s.s.s.e.s.e.s.e.e.e.:.:.:.:.:.:.:.e.:.#.:.] ",
"~ ~ ] #.] #.] #.#.#.#.#.#.e.:.e.e.e.e.e.s.F.s.s.s.F.s.#.~ z.1X~.U #.~ s.s.#.z.e.e.e.s.e.s.e.s.e.e.e.e.:.:.:.:.:.e.e.e.e.:.:.:.] ",
"~ ~ ] #.#.] U #.] #.#.#.:.:.:.e.e.e.s.z.N.s.5.F.z.N.s.] F z.1X~.U 1X].~.~.z.s.s.e.e.s.e.s.e.e.e.e.e.e.e.:.:.:.e.:.e.e.e.e.#.] ~ ",
"~ ~ ] #.#.#.#.5.#.:.:.:.#.:.:.e.e.e.s.z.z.s.z.N.N.F.s.] ~ F.1X].~ 1X].~.~.N.F.5.5.s.z.z.N.s.s.e.e.e.e.:.:.:.:.s.s.5.:.e.e.:.] ~ ",
"~ ] ] #.#.#.#.:.:.:.:.:.:.5.s.s.s.s.e.z.z.N.N.z.s.s.z.] ~ F.1XoX~ 1X].~.~.z.F.s.:.s.z.N.s.s.s.e.s.s.s.s.5.5.5.s.5.5.s.s.:.:.:.~ ",
"] ~ :.#.5.5.:.5.:.5.5.5.s.s.z.z.z.s.s.z.F.F.F.z.5.:.z.] ~ F.9X1XU 1X].~.~.F.F.N.s.#.s.F.F.s.s.z.z.s.s.5.5.5.5.5.s.s.s.s.s.:.#.:.",
"] :.:.5.:.:.5.s.s.s.s.z.z.z.F.F.F.~.~.~.~.~.F.F.z.:.N.] ~ ~.uX9XU 1X].~.~.F.F.N.s.s.:.s.s.z.F.z.z.z.s.5.5.5.s.s.s.s.s.e.e.:.:.:.",
":.:.:.:.:.#.:.5.s.s.s.s.~.~.~.~.~.~.~.~.F.F.F.F.z.s.F.] ~ ~.uX1XU 1X].~.~.F.F.F.s.s.s.:.F.s.s.e.s.z.z.s.z.F.F.~.F.F.F.z.z.5.:.:.",
"~ ~ ~ ~ ~ ~ ~ F ~ ~ ~ ~ F F F ~ ~ ~ :.:.#.] #.5.] ] s.#.~ ].uX*XU 1X].~.~.F.F.e.*Xe.s.s.:.e.e.#.#.:.#.#.~ ~ ] 5.~ F F F F F F F ",
":.:.:.5.s.z.z.F.F.z.z.z.F.F.~.].].~.~.~.~.F.F.F.z.s.~.#.~ ~.uXoX~ 1X].~.~.N.F.#.U #.F.F.F.~.~.z.~.~.~.~.F.F.F.F.F.~.~.F.F.F.z.s.",
"] :.:.5.5.5.s.s.s.s.5.s.s.s.z.F.].~.~.~.~.F.~.~.N.F.U.:.~ ].uX].~ 1X].~.~.F.N.e.] #.s.F.~.~.F.~.~.~.~.~.z.:.:.e.e.s.s.z.s.s.s.s.",
"~ ] 5.5.s.s.s.s.s.5.s.s.s.5.s.s.s.F.F.F.F.~.~.~.F.z.F.:.~ ~.uX].~ 1X].~.~.N.s.:.#.#.:.F.F.F.~.~.~.F.F.F.s.e.e.e.:.e.s.s.s.5.5.:.",
"] ~ ] :.:.5.5.s.s.5.s.s.s.s.s.s.s.z.F.F.F.F.F.F.s.s.F.:.~ ~.uX].~ 1X].~.~.N.N.e.#.:.s.F.F.F.~.~.F.F.F.s.e.e.e.s.:.:.e.e.:.5.#.#.",
"~ ~ ] #.:.:.:.5.:.5.5.5.5.5.s.s.s.z.N.z.N.F.s.s.s.s.F.:.~ ~.uX~.~ 1X].~.~.F.N.N.:.:.s.z.F.F.F.s.s.s.s.s.s.e.s.s.e.e.e.s.5.:.#.~ ",
"~ ~ ] #.#.#.:.:.:.:.:.5.:.s.s.s.s.z.z.z.F.s.s.s.s.s.F.:.~ F.9XF.~ 1X].~.~.F.N.F.:.:.N.s.s.N.s.z.s.z.s.s.s.e.s.s.e.e.e.e.#.#.] ~ ",
"~ ~ ] ] #.#.:.:.#.:.:.:.#.s.s.s.:.e.s.z.z.s.s.s.s.s.F.:.~ z.9Xs.~ 1X].~.~.F.z.z.e.N.N.s.s.z.z.z.z.s.s.s.s.s.s.s.e.e.e.:.:.#.] ~ ",
"~ ] ] ] #.#.:.#.#.:.:.#.#.e.:.e.:.e.s.s.s.N.F.z.s.s.F.:.~ z.1Xz.~ 1X].~.~.F.z.N.e.N.N.s.s.z.z.N.z.z.s.s.s.s.s.s.e.e.e.e.#.#.] ] ",
"~ ~ ] ] #.#.#.#.#.:.:.:.5.5.#.:.e.e.s.s.s.N.z.s.s.s.F.5.~ s.1Xs.~ 1X].~.~.N.z.F.e.N.N.e.N.N.z.z.N.z.s.s.s.s.s.e.e.e.e.e.#.:.#.~ ",
"~ ~ ] #.#.#.#.#.#.#.:.:.:.e.] s.s.e.e.s.s.s.N.F.s.s.s.:.~ s.*Xs.~ 1X].~.~.F.N.N.e.N.z.s.N.N.z.z.z.z.e.s.s.s.s.e.e.e.e.:.:.:.#.~ ",
"~ ~ ] #.#.#.#.#.#.#.:.:.:.:.e.e.z.e.s.e.e.N.N.N.N.s.F.5.~ 5.1Xs.~ 1X].~.~.~.F.F.s.N.N.N.N.N.N.z.s.z.e.e.e.e.e.e.:.:.:.e.e.:.#.~ ",
"] ] ] #.#.#.#.#.#.#.:.e.:.e.e.e.z.e.e.e.e.N.N.N.z.F.F.:.~ 5.*Xs.~ 1X].~.~.~.F.z.s.F.N.N.N.N.N.z.z.s.s.s.s.e.e.e.#.#.:.:.#.#.] ] ",
"~ ] ] #.#.#.#.#.#.#.:.:.:.:.e.e.N.s.:.e.s.N.N.s.s.N.F.:.~ :.*Xs.~ 1X].~.~.~.F.F.N.N.N.N.N.N.N.z.s.s.s.s.s.s.s.:.#.:.:.:.#.#.#.~ ",
"~ ~ ] #.#.#.#.#.#.#.:.:.e.e.e.s.z.s.:.e.e.e.s.s.z.N.F.#.F #.].s.~ 1X].~.~.~.N.F.N.F.N.N.N.N.z.z.e.z.e.e.s.s.s.:.#.:.:.:.#.#.] ] ",
"~ ~ ] ] #.#.#.#.#.#.#.:.:.:.e.e.z.z.e.e.:.s.N.z.s.N.N.#.F #.].:.F 1X].].~.~.~.F.N.N.N.N.N.N.N.s.s.e.e.5.5.:.e.e.#.#.#.:.:.] ~ ~ ",
"] ] ] #.#.#.#.#.:.#.:.:.5.e.e.z.z.z.s.e.s.N.N.s.s.F.N.#.F F N s e 1X].~.~.~.F.e.oXe.N.N.z.N.N.z.z.z.e.e.e.s.e.e.#.#.#.#.] ] ] ~ ",
"~ ] ] #.#.#.#.:.:.:.#.] 5.5.e.e.z.z.s.e.z.N.z.s.s.N.z.#.F 5.*Xs.F 1X].~.~.~.F.#.F ] N.N.N.N.N.z.z.e.e.e.s.e.e.:.#.:.:.#.] ] ] ~ ",
"~ ~ ] #.#.#.#.:.:.e.#.] 5.e.e.e.z.z.z.z.z.N.s.s.s.N.z.#.F s.1Xz.F 1X].].~.~.~.e.] e.N.N.N.z.z.z.e.e.5.5.:.:.:.e.e.:.:.:.] ] ~ ~ ",
"~ ] #.:.:.:.e.e.e.e.#.] 5.5.e.e.z.z.z.z.z.N.s.s.s.N.z.] ~ s.1X~.~ 1X].~.~.~.F.N.N.z.N.z.N.N.z.e.e.e.e.5.:.:.e.s.s.:.:.:.#.] ~ ~ ",
"] ] #.:.:.:.e.e.:.:.#.] 5.e.e.5.e.z.e.z.z.z.s.s.z.N.s.] ~ F.1X~.~ 1X].~.~.F.~.F.s.s.N.N.z.N.z.e.e.e.5.5.:.e.e.e.e.:.:.#.] ] ] ~ ",
"~ ] #.:.:.:.:.:.:.:.] ] 5.5.e.e.e.e.e.e.z.s.s.s.N.s.s.] ~ F.9X].~ 1X].~.~.~.~.N.e.s.N.z.N.z.z.e.z.e.e.5.:.e.e.e.:.#.:.#.#.#.] ~ ",
"~ ~ ] #.#.:.:.#.#.:.] #.:.5.e.e.e.z.e.z.s.s.s.z.s.s.s.#.~ ~.uXoXU 1X].~.~.~.~.F.e.s.N.N.z.z.e.z.e.z.5.5.:.:.#.#.#.:.#.#.#.#.] ~ ",
"~ ~ ] ] #.#.#.#.e.e.:.:.e.#.e.e.z.z.z.z.s.s.z.s.s.s.s.#.~ ~.uXoXU 1X].~.~.~.~.N.s.s.N.N.N.N.z.e.z.e.5.:.:.:.:.#.:.#.#.:.:.#.] ~ ",
"~ ~ ~ ] #.:.#.#.:.e.:.5.:.:.e.e.s.z.z.z.z.N.z.e.e.e.e.] ~ ].hXoXU 1X].~.~.~.~.F.s.s.N.N.z.N.z.z.z.z.5.5.:.#.:.:.:.#.#.:.#.#.] U ",
"~ ~ ~ ] :.:.#.:.:.e.:.:.#.:.e.e.e.z.z.z.N.s.s.e.e.e.s.] ~ ].hXoXU 1X].~.~.~.~.F.N.N.N.N.N.N.z.e.z.e.e.e.:.:.:.:.#.#.#.#.#.#.] ] ",
"~ ~ U #.:.:.#.:.:.e.e.5.5.e.e.e.z.z.z.z.z.z.e.e.s.s.z.#.~ oXhX1XU #.~ s.s.5.s.:.s.N.N.N.z.N.z.z.z.e.e.s.e.e.#.#.#.#.#.#.] ] ] ] ",
"~ ~ ] #.:.:.:.:.:.:.e.:.5.5.e.e.z.e.e.e.s.s.s.s.N.N.N.:.~ oXuXuXU 1X].~.~.F.~.F.#.z.N.z.z.N.z.e.z.e.s.s.s.s.e.#.#.#.#.#.#.#.#.#.",
"U ~ ] #.:.5.5.:.:.e.e.e.5.s.s.e.e.s.e.e.e.s.s.z.N.F.F.:.~ oXuXuXU 1X].~.~.F.~.N.s.5.F.F.z.F.z.z.s.s.s.s.s.s.s.5.:.:.:.#.#.#.#.#.",
"U U #.5.5.5.s.e.e.e.e.:.5.s.s.s.s.s.s.s.s.s.s.N.N.N.F.:.~ ~.9X1XU 1X].~.F.F.~.z.z.z.s.F.F.F.F.s.s.s.z.z.z.z.s.s.s.s.5.5.5.5.s.5.",
"U ~ ] :.:.5.s.5.s.e.e.e.5.e.s.s.s.s.s.s.s.s.s.e.e.N.~.5.~ ~.1X1XU 1X].~.~.~.~.F.N.N.F.s.F.F.F.F.s.z.z.F.F.F.F.F.F.s.s.s.5.5.5.#.",
":.5.:.5.5.s.s.s.s.s.s.s.s.s.s.s.s.z.z.z.z.z.s.s.z.z.~.5.~ ~.1XoXU 1X].~.~.~.~.F.N.N.N.z.s.F.z.z.z.F.z.F.~.~.~.~.F.s.s.5.s.s.s.:.",
"~ ~ ~ ~ ~ ~ ~ ~ #.~ ~ F F F ] ] ] F F F F 5.#.#.#.#.5.:.~ ~.1XoXU 1X].~.~.~.~.e.oXe.N.N.s.#.:.:.#.#.#.#.#.#.~ ~ #.#.~ ~ ~ ~ F F ",
":.:.5.s.z.z.z.z.F.F.z.z.F.F.F.F.F.F.~.~.~.~.].~.F.s.F.:.~ F.1X].~ 1X].~.~.~.~.#.U ] N.N.N.N.F.s.s.z.F.s.z.F.F.F.~.~.~.].F.F.F.:.",
"] :.:.5.5.s.s.s.z.s.e.s.z.z.z.z.z.F.F.F.F.F.F.~.~.~.F.#.~ F.1X~.~ 1X~.N.F.F.~.e.] e.s.N.N.F.F.F.z.z.z.z.z.z.z.z.z.F.F.F.z.5.5.#.",
"] ] :.5.5.5.5.5.e.:.e.s.s.s.s.s.s.z.F.F.F.F.F.F.F.F.F.#.~ z.1X~.~ 1X~.N.N.N.~.N.N.z.s.N.N.F.F.s.z.z.z.z.s.s.s.s.s.z.z.z.s.:.#.] ",
"] ] ] #.#.#.#.:.e.:.e.e.e.e.e.:.s.s.z.F.F.z.z.z.z.F.N.#.~ s.1XF.~ 1X~.N.N.N.~.F.N.s.s.N.N.F.F.z.s.s.s.s.s.s.s.s.s.s.s.s.:.#.] ] ",
"] ] ] #.#.#.#.#.e.e.e.e.:.:.e.e.e.e.z.N.F.F.F.F.s.s.s.] F 5.1Xs.~ 1X~.N.N.z.F.F.N.N.N.N.N.N.N.s.s.e.e.e.e.:.e.e.:.:.:.#.] ] ] ~ ",
"] ] ] #.#.#.#.#.:.#.:.:.5.e.5.5.5.z.z.N.N.N.N.N.N.s.e.] ~ s.*Xz.~ 1XF.N.N.z.F.F.N.N.N.N.N.N.s.s.e.e.e.5.:.5.#.#.#.#.#.#.] ] ~ ~ ",
"] ] ] ] #.#.#.#.:.#.:.:.5.5.e.5.e.e.z.N.N.N.N.N.N.N.F.:.~ 5.*Xs.~ *XF.s.s.s.N.N.N.N.N.N.s.z.e.e.e.e.e.5.5.:.:.#.#.#.#.#.#.] ~ ~ ",
"] ] ] #.#.#.#.#.:.:.:.:.5.5.e.5.5.e.z.N.N.N.N.N.N.F.F.5.~ :.].s.~ oXN.s.s.s.z.z.s.F.N.s.s.e.s.z.e.e.e.5.:.:.#.#.#.#.#.#.] ] ~ ~ "
};
