/* XPM */
static char *result[] = {
/* columns rows colors chars-per-pixel */
"64 64 48 1 ",
"  c #13131B",
". c #1B131B",
"X c #1F1F27",
"o c gray12",
"O c #271B27",
"+ c #272727",
"@ c #3F2B2F",
"# c #432F33",
"$ c #4B333B",
"% c #2F232F",
"& c gray9",
"* c gray6",
"= c #171B23",
"- c #2F2F2F",
"; c #2F2F3B",
": c #392939",
"> c #423142",
", c #373737",
"< c #5A4A5A",
"1 c #573F47",
"2 c #4A394A",
"3 c #524252",
"4 c #634B53",
"5 c #23232F",
"6 c #5B434F",
"7 c #0F0F13",
"8 c #4F3B3F",
"9 c #674F5B",
"0 c #6F5763",
"q c gray31",
"w c gray39",
"e c #635263",
"r c #393142",
"t c #735A73",
"y c #736373",
"u c #3F3F3F",
"i c #6B5A6B",
"p c #272B37",
"a c gray34",
"s c #333343",
"d c #373B4B",
"f c #7B6373",
"g c gray28",
"h c #070707",
"j c #7B6B7B",
"k c #3F3F4F",
"l c gray42",
"z c white",
/* pixels */
"    .  X.. .XXX.  .X. XXX    ....X.     oOoO+@#$@##%+@Oo&ooo&OO&",
"      .. .  XXX.  .X..XXX    .....  oXoO%#@%@%##+%%&O&O&&&&O&Oo*",
" .   .X. .. XX... .. .XXX..    . =X&&O@@@@#%@%OO&oo&OOoo++-;;;%o",
" X   X.   . XXX ..XX. .XX.     =XOOo+@@@@@%oOoOO&O;;##$$$:>>:,++",
"      .    .XX....X. ...X.     &Oo+%@@+%o&ooo+;#:<<>###1$2<<>2-o",
"          .XX..XXX.   ...     &O@%%O@+o&O&+--+324#X5:1@5O633<>-o",
"    .     .XX ....  . .    .Xo+%@%@oOoo7#%%--#68=O$<15#91563<>-o",
"          .XX  ...    .   XO%@%%@oO&O+OO:###-;:=@66-.2<9%%>33>O+",
".         ... ..  .  .   &o@@%@oOOO%$>%o+,-++-5811=o2<4=o><22>O5",
".  .        .  .      . &o%#@@O&O+$>166>o+%-+#:=   :165;002>>,O5",
" . .        .  .  .X  XO+%%@oOOo-2004666@&##-22>-X=* =609166q3+o",
"                   . XO@%%@Ooo-2w0<663661o+>>>>>#,8,22288$#%%++ ",
"      .            .&%%%%ooo+-30ee>%#6646%o%>>-:2:2$8#@%%OoO&&&*",
"     ..            O%@%+o&o;re0632>$ 16662oo:>,$+#+OOO&OooOOooO ",
"     ...    . ... &O@%+&&o-:<4.*5*71%X662>-oO:#+Oo&oooooO+%%%%+o",
"      ..    .  .Xo+%%++&--2<e..qt6 1<-918$>oo&oOoooO++-%,>88666,",
"      . ..  ...Oo+%%Oo -333e2*962#5#9y688u;o7&O+++-,>31>>,$$##OX",
"      . ..   .XO+%%Ooo-<iee22X>22 7#2288+OOO++-uq32>,;;X.X.  o* ",
"       ...    &+@OO+ -69633522>OX;4$$##o&oO+r696-:;=o777oo=p;o&=",
"      ....   &O%@o& +-$#>3><-*=;40$$% & oX>996#@ 77*7 =p=5-;==u-",
"        .   &o%#O& ;5o@--:,r296<6$-+  &o-90$-5***  ====555;==2u3",
"      ...  &o%%@& ;22o +-,,,,;;%$@o&o+;80a- *** 5==X==55X5-=-6o<",
"          Xo%@@O r<<8+o +;,,;+;;Ooo++29y657**=5-;=5-5==55===3-o0",
".         O+%@OO-<e62+%oo@#>28:+oo+;6y0# 77 =----XX-5==5;o&r<o-y",
"         &@%%OO-q<<3>+;+oo#82#O+oO800$5o7 X555-5;5X--555;&o9-Ory",
"        Oo@@oO+u3632>++%Ooo#-oOoo109@  7==XX=555-5;5-s5;=&235O39",
".      &o%%+& ;211332;+;$,@+o++X<y157  X=X5===-55s5;;s55Xp9s#X00",
"       &+%+o&;;>216<>>$::$$ +O+<i157 =-XX====--5555sssX s9u::5t6",
"      &o@%o&+-:-:19613312:ooo;1ad 77 --5X-5555-;5X5;;soX23::O:f6",
"      o+@+& ;:-= 5#@1661-oo+-69r%777o---;d;5555-555-;oXp6#::Oryg",
"     &+%@o&;3;--5**:6382oo+-49#55=7 ==;;p;;55=--;555s X6$#::O6yg",
"..   o@%o&+g332-*-r.>>>+++-94@. 2s  =5ss;s;5555-;55-=Or6-::: 00g",
" .  O+@@O&r>2:5  u5>:>-Oo+9i@7 76<>X =5;;;-5=555;s5= =2##:#X5t66",
"    o@%oo+--5.6172,,>-oo+>i@7  75t<r=7 5s-55=555-5  =21#::#o:f6g",
"   &+@@O+;$-=90572>,,oo+-<sX7 777d0r2; 7Xs-5==55o5oX-6$:###orw66",
"   o@@%O%>6:><2*7>>,+oo+98X *775p y9r2-77p;55=  o  O68#:##@&606g",
"  &+@@OO-a22#:52i6>-ooo6g; *7 =5p7syr-rr= ---=7 7 &24#:#:@@X0466",
"  o@@%O+g<3<39i9>-,+oo,6; h7==5=557a08X,2 7ooo 7 op6$##:@@%5t666",
" XO%@OO;<<<>3332,,+&o+6%=**=====55==y6-%->-7 o= = 22#:##%@o:f6gg",
" O%@%& r332>332>>,oo+u>=7* =5555p-p7u06#@p2>X 5X&5r::##5@@O2wg66",
" o%%O&-r23>>332>>+&o-2+ *7=;5===ss;=7t96$$-22oooO#>:#:@%@@O90g66",
"O@%+&ooooo++222>u&oO2,=**=55==5;5ss=7si68####25&%#@%:#@@@+Xt4gg6",
"O@%o&o-O   oO>>>+&o:1; * 555=55ssss5o7<66###@:r5OO@::@@@@%oj6666",
"O%@o&-3>Oo*  o-,&o+>$= 7555===;ssss55o 4<1$@#@@;:oOX#@@#@O-f66g6",
"+%+&&;><e,-o o++&o+6#=h7=X===5;sss;555=s<28:@@@X-5. o@%@@Ouw6666",
"%OO&o,3333<ie<2oo+,2#7*==p-===p-;;55 5==s6>$@@@%@#rp &%@@O<w666g",
"%O&&;233>22<eeu&o+3#5* ;55===ppps;55 ===.:28@@@%@@#r=. O+ wg66gg",
"@+&&;36>>281<3 &o-2#o*=s5=p====ps55===  .Xr>-%@@@@@@$-X& ofu6g22",
"%o&&#2562>2u38ooou,X* p;pp=====p-7o= 7.og>p2r#@@@@@@@--o -yggg>5",
"Oo&o#5-0>5986-Ooo2% 77ps5=p55=== 7o  O=<06X2>r@@@@@@%%::-69gg>5.",
"%o&-$.0:5<266o&o-2X   pss55=====7o..Or00#1152r#@%@@%@@%+O902>5*.",
"%o&->r-.6636>oo+,>=h=5ps5;=5====77.o906::#6>;6r#@@@@@%%+ot2>5*.O",
"@&&-:$2=9:31,oo+>, * -sss55-5== 7&-i0$$#:##655>$@@@@%@%o5t>5*..O",
"@&&;23@5>=>3-&o+3#77 5sss5;==o XXdi$-####:##1or>@@@@%@%o5r5...O.",
"O&&;31-i=-i3o&o-2#7  5ssss5X= &5i6p@@@@$#@#$1>o-:%@@%@%o55*...OO",
"o&&r>-w0596>o&+->X*7p5ss;=oo ok4>%@@@#@##%#$@6-5>%@@ooo*X ..O...",
"&o+>:ris<26-oo+,>57 p5s;%XO pks%@@%%@@@@@%@@#$1&-OOXo55Xh ..O..O",
"oo+->>61>,>+o++>,=  -=%XXO5rrp%%%@%@%@@@@+oOOOo5:r266<5..OO.o..O",
"oo+#>%62%%$-o++>,  -55XX -2$5%%%%%%@@%%oOXo-rg6<y0y025*..OO.oO.o",
"&o@:,>1,;:2+oo+>, 7=o O5p#p@%%+@%ooOX5:r2aiyyfy0qqg>5..O.O.OO...",
"&o#,>:>>;:$+&o+3+o o&O::-@+%oo&X5-->aiyffy94g666gg>5*OO.O...O.OO",
"&O#:-::-%>%@&o+3O  &oO+oO&Xo:r2atfyw04666666ggg62>-*.O.OO..O..OO",
"& @2:O++OOo%&o+3O7  &o5-u6wtyyw066g6ggggg66g666g>5...OO.OO..O.OO",
"** oooooooo**  ,X=;>g0lwt96u2g6g6666g666666666g2-*.oO.OOOO....O."
};
