/* XPM */
static char *tile0511740674605[] = {
/* columns rows colors chars-per-pixel */
"64 64 31 1 ",
"  c #2F2F2F",
". c #373737",
"X c #3F3F3F",
"o c gray12",
"O c #272727",
"+ c black",
"@ c #4F5363",
"# c #271700",
"$ c #272313",
"% c #331F00",
"& c #432B07",
"* c gray6",
"= c #070707",
"- c gray9",
"; c #3F3B23",
": c #2B2F23",
"> c #332F1B",
", c #13131B",
"< c #3B1B07",
"1 c #632F13",
"2 c #6B3717",
"3 c #4F4B2B",
"4 c #431F0B",
"5 c #572B0F",
"6 c #7F431F",
"7 c #4F270F",
"8 c #331707",
"9 c #0F0F13",
"0 c #434757",
"q c gray34",
"w c white",
/* pixels */
" .....    . ... ..... . ...  ..........    . ... ..... . ...  ..",
".......   .. ......... ....  ..  .......   .. ......... ....  ..",
".......   ................ . . . .......   ................ . .X",
". .....   .. .......   .....    ........   .. .......   .....  X",
". X.oooooooooooooooooooooooooooooooooooooooooooooooooooooooo..XX",
"..X.o...... ....  ..  ......... ............ ....  ..  ..X.o...X",
"..X o.OOOOOOOOOOOOOOOOOOOOOOOOOOOOOOOOOOOOOOOOOOOOOOOOOOOO.o  X ",
"  X o.OOOo+++++++++++OO.OO+++++++++++OOOOo+++++++++++OO.O@Xo.X. ",
"  X.o.O++###+++++++OOO+++$%%+++++++OOO+++OOO+++++++OOO+++@Xo...X",
"..X.o.O++++###$++O o+++++++##%+++# o+++++++OOO ++O o+++++@Xo.XXX",
"..X.o.O++++++##$#$+++++++++++#&###+++++++++++OO OO+++++++@Xo.. X",
"..X.o.O++++O##+++#. *=+++++###+++$. +++++++ooO+++O. +++++@Xo   X",
" .X.o.O++O $++++++###%#++#%#++++++oO. +++OOo++++++oO. +++@Xo   X",
". X o.OOOO+++++++++++#*o%#+++++++++++O ooo+++++++++++O .O@Xo  X.",
" .X o O++O.O+++++++#*#+++-%$+++++++OOO+++oOo+++++++OOO+++@Xo....",
"..X o O++++;;o+++##++++++++$:$+++: O+++++++#;O+++  O+++++@Xo..X.",
"..X.o.O++++++o***+++++++++++*;>$$$+++++++++++OoOOo+++++++@Xo. X.",
".X..o.O++++Ooo++++=#+++++*$;>$+*#;$$+++++++##$+++OOO+++++@Xo..X.",
"....o O++OOO+++++++##**,o&&%+++++++ooOo++###+++++++OOO ++@Xo....",
"....o OOOO+++++++++*$%++,#+++++++++++> %##+++++++++++OO O@Xo..X.",
" ...o.O++O..+++++#>&*%+++ooo+++++++#&%+++#%%+++++++OOO+++@Xo...X",
"....o.O++++.Oo+=o$<%+++++++o>>-=+%&#+++++++>.o+++#%$+++++@Xo...X",
"....o.O++++++$*$&%+++++++++*->$$;>+++++++++++O$###+++++++@Xo... ",
". . o.O++++oo-++$122+++++*<;$$**=$o-++++++=:$O+++#%$+++++@Xo...X",
" ...o O++>$$+++++*;1&+=,&;$$**+++++Ooo+=O&%#+++++++%.O+++@Xo...X",
"....o.O:>$+++++++++++,>>$$**++++++++;;3;$#+++++++++++OoOO@Xo..X.",
"    o.O++$#$+++++++=+#++=$$>++++=*,.;$+++++++++++++OOO+++@Xo. X.",
"  X o.O++++###++*++++++++++$$$=#+$Oo++++++++#%>++#$O+++++@Xo..X ",
"  X o.O++++++##=+*+++++++++++.;>$o++++++++++-3;O$#+++++++@Xo..X.",
" .X.o.O++++-##+++=++++++++=.;>+++:;<+++++*4$=#+++#&.+++++@Xo...X",
"..X.o.O++O$-+++++++++#+#*o$>=++++=*&5%+$#621+++++++..o++o@Xo ..X",
"..X.o.O.OO+++++++++$#<###++++++++++==&;%4%$>#*+++++++OOOO@Xo.  .",
"..X.o.O++O.o+*-+$*=2&-++++++++++*==#*+++++=4++++++#&#O+++@Xo  X.",
"..X.o.O++++ooO->$;%;+++++++++$&,+=*#++++++=4##+*>3;%+++++@Xo..X.",
"..X.o.O++++++oO:>o++++++#++++o##%&*++++++++$*+473;=++++++@Xo .XX",
"..X.o.O++++O:;+++#$$===8%#+,o,++=15#++++=*+#=**=#O>#+++++@Xo. .X",
"..X.o.O++OOO*=+++++ooo=#$;-,+++++=###o-&#ooo+++++-####+++@Xo  .X",
"  X.o.OOOo=++++++++++oo,o,+++++++++=%3;;o-++++++++++=4###@.o... ",
"..X.o.O++O>$+++++++-oo+++,,,++++=*>23$+++ooo++++++,54%+++@.o....",
"...Xo.O++++###%++ooo+++++++o-o>$>2&%++++++* o$+=* O$+++++@.o.. .",
"...Xo.O++++++$#%#o+++++++**#*;>;&++++++++++,*%$.OO+++++++@Xo....",
" ..Xo.O++++OOO+++O>%++++++*>;;=+++>%++++**#-##+++O>%+++++@Xo....",
". X o.O++O O++++++#$. +++O;;#+++++o#%&$$&7=++++++++##%+++@Xo...X",
" .X o OOOO+++++++++++O$$>>+++++++++**$;>&7$++++++++++# .O@.o...X",
"..X o O++O.O+++++++OOO==+$>$++++*#=:;;=++#%#++++=#+OOO+++@Xo... ",
"..X.o.O++++..O+++  O+++++++>;:*$#.3;#+++++++++=#$&#O+++++@Xo.. X",
"..X.o.O++++++OoO$#++++++++=*# >;;>*+++++++++++=$>#+++++++@Xo. . ",
"....o O++++OOO+++#%5$*+++++=$>*++O .+++++++###+++#%.+++++@Xo.. .",
"..X.o O++OOO+++++++%77++++oo+++++++ooOo++ooo+++++++OO.O O@Xo..X.",
" .X.o.OOOO++++++++++++*#*O+++++++++++,,o,,+++++++++++OOO.@Xo..X.",
"....o.O++O..+++++++++#+++oOO++++++o,,,+++,OO++++++OOOO+++@Xo..X.",
"..X.o.O++++..o++##*++++++++OO,++oOOo+++++++OO*++#O O+++++@Xo.XX.",
". . o.O++++++OO$$#+++++++++++ooOOO+++++++++++#%#$O+++++++@Xo..X.",
" .X.o O++++OoO+++Oo$+++++++OoO+++OoO+++++++#*#+++OoO+++++@Xo..X.",
"....o.O++OOO+++++++###++++$O+++++++OOO+++o-#+++++++OOO+++@Xo.X..",
" X  o.OOOO+++++++++++###+=+++++++++++ooo,,+++++++++++OOOO@Xo.X. ",
" X  o.O++OOO+++++++###+++#$$+++++++OOO+++,99+++++++OOO+++@.o.X  ",
" X  o.O++++OOO+++OOO+++++++###+++OOO+++++++999+++oOO+++++@Xo.X. ",
" ...o.O++++++OOOOO+++++++++++#OOOO+++++++++++OOOOO+++++++@Xo.X X",
"....o.0qqqqqqqqqqqqqqqqqqqqqqqqqqqqqqqqqqqqqqqqqqqqq@@qqq@Xo XXX",
"....o..XXXXXXXXXXXXXXXXXXXXXXXXXXXXXXXXXXXXXXXXXXXXXXXXXX. o X X",
"....oooooooooooooooooooooooooooooooooooooooooooooooooooooooo...X",
".................................XXX.XX.XXXXXXXXXXXX...... .. .X",
". . ...X..  X...XX...    .....  XX.XXXXX X.   XXXXXXXXXXXXXXX .."
};
