/* XPM */
static char *result[] = {
/* columns rows colors chars-per-pixel */
"64 64 21 1 ",
"  c #070707",
". c #434757",
"X c #373B4B",
"o c #272B37",
"O c #23232F",
"+ c #2F2F3B",
"@ c #272727",
"# c #1F1F27",
"$ c #333343",
"% c #373737",
"& c #0B0B0B",
"* c #3F3F4F",
"= c gray12",
"- c gray9",
"; c #3F3F3F",
": c #0F0F13",
"> c #271700",
", c #272B27",
"< c #331707",
"1 c #3B1B07",
"2 c white",
/* pixels */
" .XoO+@+@@##@ooooooooo++++++$%%+&$*$%$%$%%$%%$%$$$$$$$$$$+$+$+$$",
"&.*o#O@#@@=@@###=########=##-===&*;%%+ooooooo@@@@@@@########====",
"&.;#:::&&::========-===--====-==&$%+@@@#@@@#@##########=========",
"&.X#=:::========-======---======&$%@@@@@@@@@###########===>=====",
"&.$#==========-=---====-----====&$%@@@@@@@@#@######=######>=====",
"&.$#==#========-==--=-------====&$%@#@o@@@@@###########===>>====",
"&.%#&===::::::::::::::&::----==-&+%@@@@@=-=-----------:>>>=-:===",
"&*%#-:==                 o----=&&$+,@@@@                 @=-:===",
" *o#::::                 o===-- &$@@@###                 o-=-:==",
" *o=&:::&#=-===-=-----=-:o=---- &$o##@##-+##########=##=:o-  :::",
" *o=::=:&#==--=-=-==-==-:o=====-&$+###@#-+#####=####=##=:o=->===",
"&*o#-:=-&o##=-=======---:o#====-&$%#@###-+o@###########=-+=>&===",
"&*o#::>&&o##=========-=-:o=====-&$@@-###-+oo############-o==&===",
"&.+=:->>&o#####=####====:o=====#&$@@-o#@-$ooooo#@@@@####-o=&====",
"&*o#-->-&o#=##====##==-=:o======&$@<=@##=%ooo@####@@####-o=-====",
"&*o=::>-&#===##=========:o====#=&$@>=###-+###@@#######==:o=>>===",
"&*o=::::&o==============:$#====>&$@--##=-+#############=:%=->===",
" *o=::&::o--===-====--=#=o##=== &$@-=###-+==##==####=###-o=====:",
"&*#=:-&::o-=========-==#-+#####-&%#-=@o#-+#####=####==##:o======",
"&*@=::&--o==#====-===-==-+##=##=&%#==#@@=+##@##########=:o======",
"&*o==:&:-o=======--==-==-+#=====&%#==###=+#######=#=#==#:o======",
"&*@=:=:::o=====-==--=--=:o======&%#=####-+####=#===#====:o======",
"&*#=:-==:+=-==-=======-=:o=--==-&%#=####-+###===#=#=====:o=::==:",
" *@=&&=-:o=-=-----==----:o------&%#==##=-+#====#=====--=:#::::::",
" *o=::==:o======-====-==-o===-==&$#==###-o#=#=#=#=====-=:o===:==",
"&*o=::==:o==============:o=#====&$######-+###====#=====>:o======",
"&*o#=-#=:o====#=#=====#=:+###=#=&$o@o#@=-o#=====#=#====>:o======",
"&*o#::##:o==============:o====##&$%===#=:o==##===>--==--:o======",
"&*o#=-@=:o==##=====##=-=:o======&$o===o=:o===##==->>=--=:o======",
"&*o#=:=#:o#=#=#=##======:o======&$o=====:o#====##===->>=:o======",
"&*o#=-##:+#=##==========:o======&$o===#=-o#====###==->>=:o======",
"&*o#====:o#==#==#=======:o======&$#==#==:o====#####=-==>:o======",
"&*o###==:o#=---=======#o=$o=====&$#=====:o====#####===->-+#=====",
"&*o###-=:o#-###=##-&--##=oo#--#=&$o==o==:o==@===###:->>>:#==::==",
"&*%oo##-:o=--=###-  -=#=-+#####1&$o=#===:o=#####==##=->-:o======",
"&.%ooo==:o###----- =&:--:o#oo##>&$@=##==:+==#####>=#:===:o======",
"&.%#=#==:o==o#----&==&>-:o====#>&$======:o=######-=#====:o======",
"&.@==#=o:o==#=#-===>>>&>:o=====>&$=====#:o=##==#####=#==:o======",
"-*@=@#=#:o#=####@#@   ->:o=-=@@>&%O=====:o==#===###=#===:o=:=#=#",
"&X#=====:o==========->->:o==-&&>&%======:o==##===##::===&o======",
"&$#==#-=:o=========-==o-:o=:- ->&X======-o#####=##===@#=:o======",
" $#=##-=:o=========-===#:o=:- = &X===o==-o#######==-=@==:o=-===-",
"&$#o###=:o-===========##:o=:- > &$====#=:o#=#=#=##===@o#:o-&-==-",
"&$###@#=:o============##:o=&-  -&X-=====:o===#===###=@##:o=&=--&",
"&$<==#@-:o===#==-==#=###:o= >  -&$-===#=:o===#===#######:o==&===",
"-$<###@=:o@@##@==@@-=#==:o= >  &&%&===#=:o##=##====##+#=:o==>--=",
"-$<=###-:o#=##==@#======:o=>>> > @&=====:o===#==@==#@@#=:o==&=-=",
"-$=====-:o@=@#@=-===-===:o=&==-> @&===#=:o##=##=-==--@=#-+#--===",
"&$-=====:o=----=======#o:$=--=:- %-=====:o===-#======##=:+=-  --",
" $==>--=:o=-====-==&&-==:o-=  :  @&=-==-:o-===:===-&-==>>+-= --&",
"&$==>>#-&#&--====-----#=:o==#=:=&@>=====:o:====:===--#o>>+&-  --",
"&$-===>=:o===-&&&&----=-:o===-:=&@&=====:o====-=-=&&&=#>>,&>  &&",
"&$-=-=>=:o====&-&&&====-:o======&@&=====:o=====#-&-&&#=>>,-&-&&-",
"&$--=>>=:o=====&======--:o-=====&@>=====:o===###-&&====  #&&&&&=",
"&%  --==&#:&:::::::::&:::o---===&@>=====&#::----::::::::&#&&&=&=",
"&%& =>--                 o=:&-=-&@>-===-                 o=--=-=",
"&%-===-&                 o=::=-=&+ =====                 #--====",
" %&===>- =--===-------===-=:&==-&+ >:==::=-=##:-==---==------=--",
" %====>  ---===-----====-==::==:&#>&:-==::-##=-&-==--===---&&--&",
"&%======--===--&---=&--=--==:&:::+>&====&-=--=---=---===---&-&--",
"&%=======-=-==-&---==---------==:%>-=::-###-===------=====--&&--",
"&%===--- :--===&==----------&:=-&%>-&::-----=->-   ====----&&&--",
" o--====-&=&=---------&-------=-&<&>  ===&--=-&     =------&&---",
"                                &                               "
};
