/* XPM */
static char *tile0941740675773[] = {
/* columns rows colors chars-per-pixel */
"64 64 66 1 ",
"  c #4F5363",
". c #4B4B5F",
"X c #3F3F4F",
"o c #272B37",
"O c #2F2F3B",
"+ c #5B5F73",
"@ c #777B93",
"# c #434757",
"$ c #C3D7FF",
"% c white",
"& c red",
"* c #CB0000",
"= c #57576B",
"- c #272727",
"; c #5F6377",
": c #939393",
"> c #DFE7FF",
", c #9B9B9B",
"< c #373B4B",
"1 c #1F1F27",
"2 c gray12",
"3 c #676B7F",
"4 c #373737",
"5 c #13131B",
"6 c gray31",
"7 c #6B6F87",
"8 c #2F2F2F",
"9 c #7B7B7B",
"0 c gray64",
"q c #73778B",
"w c #7F839B",
"e c gray67",
"r c #333343",
"t c #9FA3BB",
"y c gray42",
"u c #878BA3",
"i c #ABB3CB",
"p c gray34",
"a c #838383",
"s c gray39",
"d c #8B8FA7",
"f c #C3C3C3",
"g c #B7BFD7",
"h c #8B8B8B",
"j c #9397AF",
"k c #CBCBCB",
"l c #A3ABC3",
"z c gray45",
"x c #B3B7CF",
"c c #979FB7",
"v c #BFC7DF",
"b c LightGray",
"n c #BBBBBB",
"m c gray86",
"M c gray89",
"N c #EFEFEF",
"B c gray70",
"V c gray28",
"C c #3F3F3F",
"Z c #0B0B0F",
"A c gray6",
"S c #070707",
"D c black",
"F c #171B23",
"G c gray9",
"H c #0F0F13",
/* pixels */
" ..........XoOX +@#$%%%%%%%%%&****&%%%%%%%%%$#@+.XooX   ......##",
" .   = == =##-X ;:#>%%%%%%%%%&****&%%%%%%%%%>#,; X-<#         . ",
"=    <11111112X=3,#>%%%%%%%%%&****&%%%%%%%%%>#,3=X-1111111<    =",
"=====X4OO4O4-5#;3,6>%%%%%%%%%&****&%%%%%%%%%>6,7;#8-4O4OO4X=====",
"=++=39<<   661#370#>%%%%%%%%%&****&%%%%%%%%%>#0q3#o66   <<93=+=+",
";;+33weeeee,wr.7@t#>%%%%%%%%%&****&%%%%%%%%%>.t@3.Ow,eeeeew33++;",
"33;333@w@@@9yX qwe=>%%%%%%%%%&****&%%%%%%%%%>+ewq ry9@@@w@333;33",
"33373<11111116 quiy>%%%%%%%%%&****&%%%%%%%%%>pi:q=6w@7q3q3737377",
"37qqqX4OO4O4-6 quiy>%%%%%%%%%&****&%%%%%%%%%>ye:as6a9@qqqqqqqq77",
"7qq@q9<<   666s@df7&&&&&&&&&&&****&&&&&&&&&&&yg,hsp:w@a@@@@q@qqq",
"7q@@aweeeee,wpshjf7**************************yfjusp,awwwawa@@@@q",
"a@@w@3@w@@@9y.yujf@**************************@ktuy.euwwwhww@w@@@",
"@wwwuhuwhuwd0pydtk@**************************@ktdypi:uhwwuwwaw@@",
"wwwuwdudduddepyjlk@**************************@kljzsxcu:dduduuwww",
"wwhuuddddddcls3civ@&&&&&&&&&&&****&&&&&&&&&&&wbxczyktd::ddddduuw",
"wwudu,j,,j,enszegmw>%%%%%%%%%&****&%%%%%%%%%>wMvi9ybnjjj,j,jjuuw",
"qqwwwwwwwwwdns3lgMw>%%%%%%%%%&****&%%%%%%%%%>:NkB9ymxuduuwwwww@q",
"33333777777wlp+jib:>%%%%%%%%%&****&%%%%%%%%%>wmfeyV,eqq997777733",
";+==+;33;33q06 wcf9>%%%%%%%%%&****&%%%%%%%%%>qkB:s-Vsyssp=;;;++3",
";==++=   =;zdXpqdxq>%%%%%%%%%&****&%%%%%%%%%>9k0h=-4122222 +;=+3",
";=+ #-----X7dXp9:x9>%%%%%%%%%&****&%%%%%%%%%>9k,a 4xds-C-- ;;;+3",
"3+=;#O&XXO#7:Xp9dn7>%%%%%%%%%&****&%%%%%%%%%>3g,a 4C6-sey- ;;++3",
"3+++#OXXXO#3wXpquiz>%%%%%%%%%&****&%%%%%%%%%>yf:a 4t:s2C-- ;++=3",
"3+=;#O&XXO#;@C67wl3$>>>>>>>>>&****&>>>>>>>>>$ynha 44V26,y- ;;==;",
"3++=#OXCXOX;qC63qj;#psss;y777q9999qq77yyy;;p#y,9q 499624-- ;++=+",
";==+#OCXX4#;qr637qlfffffggfggggggggggfgggggfge99q --426:y- ;;==+",
"+=++#OXXXO#s9rp9qqwd,,,,jj,,jjjjjjjjjddjj,,,:h999p-yyV5-2- ;++=+",
"+==+#OXXXO#;3Opqzqq@@wwh::hhhwuuuuwww@@@@a9999a99p---5C9y- ++==+",
"==++#OXXXO#+;opqzq9qqqaauua9aawaaaaa9qqq99zzqz999p-sp4Z22- ;+==+",
"==+;;huuuw;y+86qzqq9999awu9a9aaaa9a9a9q99zzzqz9996-25A-Vs-.++===",
"pppppssssspppCC p  pppps++pppppppppppppppppp  pppC-sV-Z2--Xppppp",
"CCCCCCCCCCCCC48Or<CCCCCCXXCCCCCCCCCCCCCCCCCC44CCCC-2255222-CCCCC",
"@3777qq9999999@u@uuuu::,jjjccccttcccc::::hhhh@hhhw@@@@@qqqq77779",
"=+++;;;3yyyyyzzq9wud::::djjjjjjjjjjjj,,:hhhhhha99999333333;;+++3",
"  ==+;;;;;y;;;yz3wft0eeeeeiiiiiiiiiiiiiieeeeefaz39yzyy;;;;+=====",
"XX############;z3wi36p.. p pppppppppp p     yea333#66##########X",
"o-oooooooooo1-#z3hi.$>>>>>>>>&****&>>>>>>>>$#eay;X--oooooooooo-o",
"############ro#zyaB#>%%%%%%%%&****&%%%%%%%%>6iayyXor############",
" ..  =======Xr#y;aBX>%%%%%%%%&****&%%%%%%%%>XihyyXrX======   .. ",
"XXXXX#X#####r8#3;@xX>%%%%%%%%&****&%%%%%%%%>Viwyy#8r#####XXXXXXX",
"111118118888-1#;;@xX>%%%%%%%%&****&%%%%%%%%>Xi@;;#1-888811111111",
";33337777qqq+r#;;@iX>%%%%%%%%&****&%%%%%%%%>Xx@=;Xr+77777773333;",
"======++;;;;.r#;;@lX>%%%%%%%%&****&%%%%%%%%>Xiq=;#r.++++++======",
"       =+++;#rX;=qeC>%%%%%%%%&****&%%%%%%%%>Xiq=;#rX= ===      .",
".       ++++#rX;=7tC>%%%%%%%%&****&%%%%%%%%>Xe7=;#rX  ==        ",
"##. .+   =  XoX; 7tC&&&&&&&&&&****&&&&&&&&&&Ce7 ;#rX   .=    . .",
"#X###  +++++#r#;+7eC************************Ce7=;#oX  ..      ..",
"#XX##  +=; +#rX;=7tC************************Ct7 ;XoX .       ..X",
"OOOOOCCXX#CCO8X+=7tC************************Ct7 +X1OrrCCCCCCrrOO",
"1-111----1--1-X+=7jr************************rj7 +X1--1-------111",
"  ===;;;;;;; oX+=7jr&&&&&&&&&&****&&&&&&&&&&rj7=;#o ;;;;;;++=== ",
"<<<XX .     XoX+ 3,O>%%%%%%%%&****&%%%%%%%%>Oj3 +XoX     ..##X#X",
"<<<<X       XrX+ 3,O>%%%%%%%%&****&%%%%%%%%>O,3  XoX.   ..##XXXX",
"<r<<<##     XoX  ;dO>%%%%%%%%&****&%%%%%%%%>O,;  XoX    ###XXXXX",
"<<<<<X#.    XoX  ;dO>%%%%%%%%&****&%%%%%%%%>Od;  XoX.   ##XXXXXX",
"#XXXX######Xooo##=,O>%%%%%%%%&****&%%%%%%%%>O,;. roX####XXXXXXX#",
"OOOrrrOOrrrr--rX#=dO>%%%%%%%%&****&%%%%%%%%>O,; .o-o<<<rOOrrrOOO",
";33737773737;=oXX=dO>%%%%%%%%&****&%%%%%%%%>O,;. r+;77777773733;",
"SSSSSSSS++DDDXoXX=:O>%%%%%%%%&****&%%%%%%%%>Od+.#r#DDD++SSSSSSSS",
"oFoGoGoZ =DDD#o##=:O$>>>>>>>>&****&>>>>>>>>$Ow=##o#DDD==ZoGoGoFo",
"<O<O<O<H  DDDXoX#=:O........##.####.#######.Ow=#XoXDDD==H<O<O<O<",
"oGoGoGoZ  DDDXoXX l,,texxxxggggggggggxxxxet,d0 XXoXDDD= ZoGoGoGo",
"SSSSSSSS..DDD<o<X.=;;;;377777777777777773;;+= .XXo<DDD..SSSSSSSS",
"Crrrrrr<r<r<OOo<<<#.#XX#X#X#X#X##X#<#X#X#XX#.XXXXoO8r<<<<rrrrrrC"
};
