/* XPM */
static char *result[] = {
/* columns rows colors chars-per-pixel */
"64 64 33 1 ",
"  c #3F3F4F",
". c #333343",
"X c #3F3F3F",
"o c #373B4B",
"O c #434757",
"+ c gray31",
"@ c #434F47",
"# c #57576B",
"$ c #57675B",
"% c #4B5B53",
"& c gray34",
"* c #3F573F",
"= c gray28",
"- c #374F37",
"; c #334733",
": c #3B433B",
"> c #2B3F2B",
", c #373737",
"< c #2F3733",
"1 c #273727",
"2 c #1B271B",
"3 c #1F2F1F",
"4 c gray12",
"5 c gray9",
"6 c #0B0B0B",
"7 c #272727",
"8 c #272B27",
"9 c #2F2F2F",
"0 c #131713",
"q c #172317",
"w c gray6",
"e c #272B37",
"r c white",
/* pixels */
" .XXXXXXXXXXXoXXXXXXXXXXXXXXXXXXXXXXXXXXXXXXXXXXXXXXXXXXo.XXXXX ",
"O+@@@@@@@@@@@@@@@@@@@@@@@@@@@@@@@@@@@@@@@@@@@@@@@@@@@@@@@@@@@@@O",
"#$$$$$$$$$$$$$$$$$$$$$$$$$$$$$$$$$$$$$$$$$$$$$$$$$$$$$$$$$$$$$$#",
"%%%%%$$$$$$$$$$$&&&&&$$$$$$$$%%%%%$$$$$$&&&%%%%%%%&%&%%%%%%%%%%%",
"***@@@%@@@@+@@%=*+++@@%@@+@@@*@**@@+@@%+==**@@@@@***@*@-@@*-**@@",
";-;---------X@X@X@X-X@--X-XXX-X-;---X@X@XX:X----:X:-:X:-;X;-;-;;",
">;;;;;;;;;;;;,,,,;;;,;,,,,,,,,<1>;;;;;;,,,><,;<1><<><>1>>>>>><>1",
"2323232324232324232424242424542224242322222422222222222222222222",
"6666666666666666666666666666666666666666666666666666666666666666",
"2223732233333333372237777777442227773372723332222222222222222222",
";>>>:;;;;;;---;:<<<<<<::::::,,,>>;;:;:<;;<::;<<<<<<<<111>><<<<<1",
">>>;;;;;;;----;:<<<<<:<:::::::,>1<><::;:,:;:,><><<<<<>11>><<<<>1",
">1><;:;;;;<-;;::<<<<;:::,::,,,1>::::,::,;:,:>7<><<<>>>1>>><<<<>>",
">11>;;----;;;:::<<;;:;;1:;1:><<>;----;;;:::<<;;><<<>>1>>>>><<<>>",
">1><:;;<;<;;<;:<:<:;:;;:;:,>,><<;;<;<;;<;:<:<:;<<<<>>>1>>><<<<>>",
">11>;;-;;-;:;;::::::;;;;;;<::<<>;-;;-;:;;::::::><<<>>1>>>>><<<>>",
">113111>;;<,,89::,,,1111,;;::88911>;;<,,89::,,,18831131>>>><<>>>",
"20252222qqqqq0www5552225555555,2222qqqqq0www5555555552220225522q",
"1888111111111887788881188888889111111111887788877778811181188883",
"1319111111111118811111181118999111111111118811188888811131111333",
"%%%%%%$$%%%%%%%%%%%%@@@@@%%%%$$$%$$%%%%%%%%%%%%%%%%%%%%%%%%%%%%*",
";1>;;:;--;;;**@@@@@***::XXX****;:;--;;;**@@@@@*@%%%@:<<<>>><<>>>",
">>>:;;;--;;<<::::::::::::X,;::;;;;--;;<<:::::::;;;<<<<;;>>><<>>>",
">;;;;;;;---;::::::::::::,:;;:::;;;;---;::::::::;;;;<<;;;>>><<>>>",
">;;;;:;;-;--;<<::::,,,,,,,::;:;;;;;;;;--:;;;;;:;;;;;:;;;>>><<>>>",
">1>;;;;;;;;-;:::::::,,,:,::::::;;;;;;---;-;;;;;:;;;;:;;;><><<>>>",
">1>>>>;<:::::,::::::::::::::::;;;;;;;;--;;;;;;;;;;;;;;;>><>>>>>>",
">>;<<<,,,,,,::::::::::::::<;:;;>;;;;;;--;<;;;;;-;;;;;::>><>>>><1",
"<>><><<<<,,::<;:::::::::::::;;>>>;;;;;---;;-;-;--;;;;;;>><>11>1>",
">1>;<>><<,::,:;::;;:::::<,,;;;>>>;;;;---------;-;;:;;;;>>>>>1>>>",
">>>>>><<<,::::;:<<<<<<<::::::;;11;;;;-----;;;;;;;;;;;:;>><>>>>>>",
">>1>>>><,,,::;;,99<<9<<,,,,;;,111>>1111111991,;;;,,;;;;>><>>>11>",
">>1>>>>>::;;;;<><988888888811118313813333118881118811119,;>>>><>",
"00000000000000002000000000000000w0qqqqq2222200000000000500000000",
"e33333333333333333333333883333333811811111118888888888888888888e",
"3333333331133333333333331333333311111119999999991191199971111311",
"********@@@%%%%@**@@@%%%%%%******%%%%$%$&&$%%%$&&%$$%@@@@@******",
"111111111>;;;;;;;**********;;;;;;;;::::<,,,,,:::,;*:X,,<<<>1>>>1",
"1111111111111111>>;;;>1>;;;>1111111111><,,,,,::,<<><<,<<<>>><;>1",
"1>11111111>1>>>>>>>11>11>>>11>>19<><<<<<<,,,,<<<<<><<<<<<<11>>>1",
"1>11111111>>>>>>>>>1>>111>>>>>>11>>><<><<<<<<<<<<<1<<<<<<<<>><>1",
"111111111>>>>>1>>>>>>1111>>>>>>11>>><<<<<<<<<>><<<><;<<>>>>>>191",
"111111111>>>111>11>>11>11>>>>1>>11>><<1111111>><<<<<;;<;;>>>>>>1",
"111111111>>11111111>>1111>>>>1>1111<<><1111111>><<<<;;;;;:;;;;;>",
"111111111>>111111111>>>11>>1>>>11>>>>>><<<<<<11<<><11<;;;;<<;>>>",
"11111111111111>>1>11>>>>1>111>111>1>><><<<>><1>><<1><><;;;;<;>11",
"11111111111111>>>111>>>>>11111<11>>11<><<<>><>>>><1><<>;;;<>>>11",
"11111111111111>>111111>>111111111>><7>>11111181>>>1<<<>;<;;;;>11",
"11111111111111118888381188888888111><<1>1118888811>><>>;;;;>>>11",
"q200002000000002000550020005000ww220052250200000000222520222220q",
"3333333333333333883332338833333333888888888873333338111181111833",
"3333333333333373133333731333333111191111111883333388311131113333",
"%*************;:*@@@;;;:*@@@;,,;;;:::******:X;;**@**@@*%%*%%****",
"111111111111199911,:**;;;188199911,<<<<<<<<<<<<<<<>>>;;>;;>>>>11",
"111111111111111111>,,;,,,199911111><<<<<<<<<<<<<<<>;;;;>;;;;>>11",
"11111111111111111>><<<99991111111>>><<<><<<<><<<<>;;;;>>>>>>>111",
"31111111111111191><<<>91111>11191><<<><<<<<>><<>;;;;;;;;>11>>>11",
"311111111111111991111919911>11111>>><<<<<<><<>;;;>;;>>>>1><<>>11",
"111111111199999991111999111111111;;<>>>>;;><;>>><<<>>;;;;;>>>>11",
"1>111111111919999999999991191191111>1><;;;<11<>1<<1<1>;;;>>>>>11",
"111111111119999119999999911111131>>;:>:>>>>11<<1<>>>>;;;;>>;;>11",
"111111111119191119999999111111111>>>>>;>>>>11<>1<>>>;;>>;;;>>>>1",
"1111111111111111119911919911111111>>1>;;>>>111>>>>;;>;;;;;>>>>11",
"3333338333333333333333333333333331111111111381111111111111111193"
};
